<?xml version="1.0" encoding="UTF-8" standalone="no"?>
<!-- Created with Inkscape (http://www.inkscape.org/) -->

<svg
   width="600"
   height="600"
   id="svg8309"
   sodipodi:version="0.32"
   inkscape:version="1.2 (1:1.2+202206011327+fc4e4096c5)"
   version="1.0"
   sodipodi:docname="ransac_line.svg"
   inkscape:output_extension="org.inkscape.output.svg.inkscape"
   sodipodi:modified="true"
   xmlns:inkscape="http://www.inkscape.org/namespaces/inkscape"
   xmlns:sodipodi="http://sodipodi.sourceforge.net/DTD/sodipodi-0.dtd"
   xmlns="http://www.w3.org/2000/svg"
   xmlns:svg="http://www.w3.org/2000/svg"
   xmlns:rdf="http://www.w3.org/1999/02/22-rdf-syntax-ns#"
   xmlns:cc="http://creativecommons.org/ns#"
   xmlns:dc="http://purl.org/dc/elements/1.1/">
  <defs
     id="defs8311" />
  <sodipodi:namedview
     id="base"
     pagecolor="#ffffff"
     bordercolor="#666666"
     borderopacity="1.0"
     gridtolerance="10000"
     guidetolerance="10"
     objecttolerance="10"
     inkscape:pageopacity="0.0"
     inkscape:pageshadow="2"
     inkscape:zoom="1.1561678"
     inkscape:cx="454.5188"
     inkscape:cy="285.4257"
     inkscape:document-units="px"
     inkscape:current-layer="layer1"
     inkscape:window-width="1366"
     inkscape:window-height="731"
     inkscape:window-x="0"
     inkscape:window-y="223"
     width="600px"
     height="600px"
     showborder="true"
     inkscape:showpageshadow="true"
     inkscape:pagecheckerboard="0"
     inkscape:deskcolor="#d1d1d1"
     showgrid="false"
     inkscape:window-maximized="1" />
  <metadata
     id="metadata8314">
    <rdf:RDF>
      <cc:Work
         rdf:about="">
        <dc:format>image/svg+xml</dc:format>
        <dc:type
           rdf:resource="http://purl.org/dc/dcmitype/StillImage" />
      </cc:Work>
    </rdf:RDF>
  </metadata>
  <g
     inkscape:label="Layer 1"
     inkscape:groupmode="layer"
     id="layer1"
     transform="translate(-484.71429,6.6387713e-2)">
    <path
       style="fill:none;fill-rule:evenodd;stroke:#77b7ff;stroke-width:4;stroke-linecap:butt;stroke-linejoin:miter;stroke-miterlimit:4;stroke-dasharray:none;stroke-opacity:1"
       d="M 505.79985,557.21093 L 1053.6367,34.44848"
       id="path4302"
       sodipodi:nodetypes="cc" />
    <g
       id="g6242"
       transform="matrix(2.8459057,0,0,2.8477333,-425.21784,-116.69914)"
       style="fill:#2244d1;fill-opacity:1">
      <path
         sodipodi:type="arc"
         style="fill:#2244d1;fill-opacity:1;stroke:none;stroke-width:2;stroke-miterlimit:4;stroke-dasharray:none;stroke-dashoffset:0;stroke-opacity:1"
         id="path4212"
         sodipodi:cx="329.30972"
         sodipodi:cy="82.615738"
         sodipodi:rx="2.0203052"
         sodipodi:ry="2.0203052"
         d="M 331.33003 82.615738 A 2.0203052 2.0203052 0 1 1  327.28942,82.615738 A 2.0203052 2.0203052 0 1 1  331.33003 82.615738 z"
         transform="translate(61.071429,96.071429)" />
      <path
         transform="translate(74.642859,81.071429)"
         d="M 331.33003 82.615738 A 2.0203052 2.0203052 0 1 1  327.28942,82.615738 A 2.0203052 2.0203052 0 1 1  331.33003 82.615738 z"
         sodipodi:ry="2.0203052"
         sodipodi:rx="2.0203052"
         sodipodi:cy="82.615738"
         sodipodi:cx="329.30972"
         id="path4214"
         style="fill:#2244d1;fill-opacity:1;stroke:none;stroke-width:2;stroke-miterlimit:4;stroke-dasharray:none;stroke-dashoffset:0;stroke-opacity:1"
         sodipodi:type="arc" />
      <path
         sodipodi:type="arc"
         style="fill:#2244d1;fill-opacity:1;stroke:none;stroke-width:2;stroke-miterlimit:4;stroke-dasharray:none;stroke-dashoffset:0;stroke-opacity:1"
         id="path4216"
         sodipodi:cx="329.30972"
         sodipodi:cy="82.615738"
         sodipodi:rx="2.0203052"
         sodipodi:ry="2.0203052"
         d="M 331.33003 82.615738 A 2.0203052 2.0203052 0 1 1  327.28942,82.615738 A 2.0203052 2.0203052 0 1 1  331.33003 82.615738 z"
         transform="translate(145.71429,10.357143)" />
      <path
         transform="translate(159.28571,1.0714286)"
         d="M 331.33003 82.615738 A 2.0203052 2.0203052 0 1 1  327.28942,82.615738 A 2.0203052 2.0203052 0 1 1  331.33003 82.615738 z"
         sodipodi:ry="2.0203052"
         sodipodi:rx="2.0203052"
         sodipodi:cy="82.615738"
         sodipodi:cx="329.30972"
         id="path4218"
         style="fill:#2244d1;fill-opacity:1;stroke:none;stroke-width:2;stroke-miterlimit:4;stroke-dasharray:none;stroke-dashoffset:0;stroke-opacity:1"
         sodipodi:type="arc" />
      <path
         sodipodi:type="arc"
         style="fill:#2244d1;fill-opacity:1;stroke:none;stroke-width:2;stroke-miterlimit:4;stroke-dasharray:none;stroke-dashoffset:0;stroke-opacity:1"
         id="path4220"
         sodipodi:cx="329.30972"
         sodipodi:cy="82.615738"
         sodipodi:rx="2.0203052"
         sodipodi:ry="2.0203052"
         d="M 331.33003 82.615738 A 2.0203052 2.0203052 0 1 1  327.28942,82.615738 A 2.0203052 2.0203052 0 1 1  331.33003 82.615738 z"
         transform="translate(93.571429,60.357143)" />
      <path
         transform="translate(132.85714,17.5)"
         d="M 331.33003 82.615738 A 2.0203052 2.0203052 0 1 1  327.28942,82.615738 A 2.0203052 2.0203052 0 1 1  331.33003 82.615738 z"
         sodipodi:ry="2.0203052"
         sodipodi:rx="2.0203052"
         sodipodi:cy="82.615738"
         sodipodi:cx="329.30972"
         id="path4222"
         style="fill:#2244d1;fill-opacity:1;stroke:none;stroke-width:2;stroke-miterlimit:4;stroke-dasharray:none;stroke-dashoffset:0;stroke-opacity:1"
         sodipodi:type="arc" />
      <path
         sodipodi:type="arc"
         style="fill:#2244d1;fill-opacity:1;stroke:none;stroke-width:2;stroke-miterlimit:4;stroke-dasharray:none;stroke-dashoffset:0;stroke-opacity:1"
         id="path4224"
         sodipodi:cx="329.30972"
         sodipodi:cy="82.615738"
         sodipodi:rx="2.0203052"
         sodipodi:ry="2.0203052"
         d="M 331.33003 82.615738 A 2.0203052 2.0203052 0 1 1  327.28942,82.615738 A 2.0203052 2.0203052 0 1 1  331.33003 82.615738 z"
         transform="translate(104.64286,48.928572)" />
      <path
         transform="translate(10.714289,141.78571)"
         d="M 331.33003 82.615738 A 2.0203052 2.0203052 0 1 1  327.28942,82.615738 A 2.0203052 2.0203052 0 1 1  331.33003 82.615738 z"
         sodipodi:ry="2.0203052"
         sodipodi:rx="2.0203052"
         sodipodi:cy="82.615738"
         sodipodi:cx="329.30972"
         id="path4226"
         style="fill:#2244d1;fill-opacity:1;stroke:none;stroke-width:2;stroke-miterlimit:4;stroke-dasharray:none;stroke-dashoffset:0;stroke-opacity:1"
         sodipodi:type="arc" />
      <path
         sodipodi:type="arc"
         style="fill:#2244d1;fill-opacity:1;stroke:none;stroke-width:2;stroke-miterlimit:4;stroke-dasharray:none;stroke-dashoffset:0;stroke-opacity:1"
         id="path4228"
         sodipodi:cx="329.30972"
         sodipodi:cy="82.615738"
         sodipodi:rx="2.0203052"
         sodipodi:ry="2.0203052"
         d="M 331.33003 82.615738 A 2.0203052 2.0203052 0 1 1  327.28942,82.615738 A 2.0203052 2.0203052 0 1 1  331.33003 82.615738 z"
         transform="translate(22.142859,133.21428)" />
      <path
         transform="translate(89.642859,65)"
         d="M 331.33003 82.615738 A 2.0203052 2.0203052 0 1 1  327.28942,82.615738 A 2.0203052 2.0203052 0 1 1  331.33003 82.615738 z"
         sodipodi:ry="2.0203052"
         sodipodi:rx="2.0203052"
         sodipodi:cy="82.615738"
         sodipodi:cx="329.30972"
         id="path4230"
         style="fill:#2244d1;fill-opacity:1;stroke:none;stroke-width:2;stroke-miterlimit:4;stroke-dasharray:none;stroke-dashoffset:0;stroke-opacity:1"
         sodipodi:type="arc" />
      <path
         sodipodi:type="arc"
         style="fill:#2244d1;fill-opacity:1;stroke:none;stroke-width:2;stroke-miterlimit:4;stroke-dasharray:none;stroke-dashoffset:0;stroke-opacity:1"
         id="path4232"
         sodipodi:cx="329.30972"
         sodipodi:cy="82.615738"
         sodipodi:rx="2.0203052"
         sodipodi:ry="2.0203052"
         d="M 331.33003 82.615738 A 2.0203052 2.0203052 0 1 1  327.28942,82.615738 A 2.0203052 2.0203052 0 1 1  331.33003 82.615738 z"
         transform="translate(46.428569,108.21428)" />
      <path
         transform="translate(130.35714,26.071429)"
         d="M 331.33003 82.615738 A 2.0203052 2.0203052 0 1 1  327.28942,82.615738 A 2.0203052 2.0203052 0 1 1  331.33003 82.615738 z"
         sodipodi:ry="2.0203052"
         sodipodi:rx="2.0203052"
         sodipodi:cy="82.615738"
         sodipodi:cx="329.30972"
         id="path4234"
         style="fill:#2244d1;fill-opacity:1;stroke:none;stroke-width:2;stroke-miterlimit:4;stroke-dasharray:none;stroke-dashoffset:0;stroke-opacity:1"
         sodipodi:type="arc" />
      <path
         sodipodi:type="arc"
         style="fill:#2244d1;fill-opacity:1;stroke:none;stroke-width:2;stroke-miterlimit:4;stroke-dasharray:none;stroke-dashoffset:0;stroke-opacity:1"
         id="path4236"
         sodipodi:cx="329.30972"
         sodipodi:cy="82.615738"
         sodipodi:rx="2.0203052"
         sodipodi:ry="2.0203052"
         d="M 331.33003 82.615738 A 2.0203052 2.0203052 0 1 1  327.28942,82.615738 A 2.0203052 2.0203052 0 1 1  331.33003 82.615738 z"
         transform="translate(115,45.357143)" />
      <path
         transform="translate(176.78571,-16.785714)"
         d="M 331.33003 82.615738 A 2.0203052 2.0203052 0 1 1  327.28942,82.615738 A 2.0203052 2.0203052 0 1 1  331.33003 82.615738 z"
         sodipodi:ry="2.0203052"
         sodipodi:rx="2.0203052"
         sodipodi:cy="82.615738"
         sodipodi:cx="329.30972"
         id="path4238"
         style="fill:#2244d1;fill-opacity:1;stroke:none;stroke-width:2;stroke-miterlimit:4;stroke-dasharray:none;stroke-dashoffset:0;stroke-opacity:1"
         sodipodi:type="arc" />
      <path
         sodipodi:type="arc"
         style="fill:#2244d1;fill-opacity:1;stroke:none;stroke-width:2;stroke-miterlimit:4;stroke-dasharray:none;stroke-dashoffset:0;stroke-opacity:1"
         id="path4240"
         sodipodi:cx="329.30972"
         sodipodi:cy="82.615738"
         sodipodi:rx="2.0203052"
         sodipodi:ry="2.0203052"
         d="M 331.33003 82.615738 A 2.0203052 2.0203052 0 1 1  327.28942,82.615738 A 2.0203052 2.0203052 0 1 1  331.33003 82.615738 z"
         transform="translate(164.28571,-6.0714285)" />
      <path
         transform="translate(27.857139,124.64285)"
         d="M 331.33003 82.615738 A 2.0203052 2.0203052 0 1 1  327.28942,82.615738 A 2.0203052 2.0203052 0 1 1  331.33003 82.615738 z"
         sodipodi:ry="2.0203052"
         sodipodi:rx="2.0203052"
         sodipodi:cy="82.615738"
         sodipodi:cx="329.30972"
         id="path4242"
         style="fill:#2244d1;fill-opacity:1;stroke:none;stroke-width:2;stroke-miterlimit:4;stroke-dasharray:none;stroke-dashoffset:0;stroke-opacity:1"
         sodipodi:type="arc" />
      <path
         sodipodi:type="arc"
         style="fill:#2244d1;fill-opacity:1;stroke:none;stroke-width:2;stroke-miterlimit:4;stroke-dasharray:none;stroke-dashoffset:0;stroke-opacity:1"
         id="path4244"
         sodipodi:cx="329.30972"
         sodipodi:cy="82.615738"
         sodipodi:rx="2.0203052"
         sodipodi:ry="2.0203052"
         d="M 331.33003 82.615738 A 2.0203052 2.0203052 0 1 1  327.28942,82.615738 A 2.0203052 2.0203052 0 1 1  331.33003 82.615738 z"
         transform="translate(39.999999,121.42857)" />
      <path
         transform="translate(53.214279,98.214286)"
         d="M 331.33003 82.615738 A 2.0203052 2.0203052 0 1 1  327.28942,82.615738 A 2.0203052 2.0203052 0 1 1  331.33003 82.615738 z"
         sodipodi:ry="2.0203052"
         sodipodi:rx="2.0203052"
         sodipodi:cy="82.615738"
         sodipodi:cx="329.30972"
         id="path4246"
         style="fill:#2244d1;fill-opacity:1;stroke:none;stroke-width:2;stroke-miterlimit:4;stroke-dasharray:none;stroke-dashoffset:0;stroke-opacity:1"
         sodipodi:type="arc" />
      <path
         sodipodi:type="arc"
         style="fill:#2244d1;fill-opacity:1;stroke:none;stroke-width:2;stroke-miterlimit:4;stroke-dasharray:none;stroke-dashoffset:0;stroke-opacity:1"
         id="path4248"
         sodipodi:cx="329.30972"
         sodipodi:cy="82.615738"
         sodipodi:rx="2.0203052"
         sodipodi:ry="2.0203052"
         d="M 331.33003 82.615738 A 2.0203052 2.0203052 0 1 1  327.28942,82.615738 A 2.0203052 2.0203052 0 1 1  331.33003 82.615738 z"
         transform="translate(66.071429,87.142858)" />
      <path
         transform="translate(81.071429,76.071429)"
         d="M 331.33003 82.615738 A 2.0203052 2.0203052 0 1 1  327.28942,82.615738 A 2.0203052 2.0203052 0 1 1  331.33003 82.615738 z"
         sodipodi:ry="2.0203052"
         sodipodi:rx="2.0203052"
         sodipodi:cy="82.615738"
         sodipodi:cx="329.30972"
         id="path4250"
         style="fill:#2244d1;fill-opacity:1;stroke:none;stroke-width:2;stroke-miterlimit:4;stroke-dasharray:none;stroke-dashoffset:0;stroke-opacity:1"
         sodipodi:type="arc" />
      <path
         sodipodi:type="arc"
         style="fill:#2244d1;fill-opacity:1;stroke:none;stroke-width:2;stroke-miterlimit:4;stroke-dasharray:none;stroke-dashoffset:0;stroke-opacity:1"
         id="path4252"
         sodipodi:cx="329.30972"
         sodipodi:cy="82.615738"
         sodipodi:rx="2.0203052"
         sodipodi:ry="2.0203052"
         d="M 331.33003 82.615738 A 2.0203052 2.0203052 0 1 1  327.28942,82.615738 A 2.0203052 2.0203052 0 1 1  331.33003 82.615738 z"
         transform="translate(101.78571,60.000001)" />
      <path
         transform="translate(141.07143,14.285714)"
         d="M 331.33003 82.615738 A 2.0203052 2.0203052 0 1 1  327.28942,82.615738 A 2.0203052 2.0203052 0 1 1  331.33003 82.615738 z"
         sodipodi:ry="2.0203052"
         sodipodi:rx="2.0203052"
         sodipodi:cy="82.615738"
         sodipodi:cx="329.30972"
         id="path4254"
         style="fill:#2244d1;fill-opacity:1;stroke:none;stroke-width:2;stroke-miterlimit:4;stroke-dasharray:none;stroke-dashoffset:0;stroke-opacity:1"
         sodipodi:type="arc" />
      <path
         sodipodi:type="arc"
         style="fill:#2244d1;fill-opacity:1;stroke:none;stroke-width:2;stroke-miterlimit:4;stroke-dasharray:none;stroke-dashoffset:0;stroke-opacity:1"
         id="path4256"
         sodipodi:cx="329.30972"
         sodipodi:cy="82.615738"
         sodipodi:rx="2.0203052"
         sodipodi:ry="2.0203052"
         d="M 331.33003 82.615738 A 2.0203052 2.0203052 0 1 1  327.28942,82.615738 A 2.0203052 2.0203052 0 1 1  331.33003 82.615738 z"
         transform="translate(121.78572,36.071429)" />
      <path
         transform="translate(156.78571,4.6428574)"
         d="M 331.33003 82.615738 A 2.0203052 2.0203052 0 1 1  327.28942,82.615738 A 2.0203052 2.0203052 0 1 1  331.33003 82.615738 z"
         sodipodi:ry="2.0203052"
         sodipodi:rx="2.0203052"
         sodipodi:cy="82.615738"
         sodipodi:cx="329.30972"
         id="path4258"
         style="fill:#2244d1;fill-opacity:1;stroke:none;stroke-width:2;stroke-miterlimit:4;stroke-dasharray:none;stroke-dashoffset:0;stroke-opacity:1"
         sodipodi:type="arc" />
    </g>
    <g
       id="g6268"
       style="fill:#ff1e1e;fill-opacity:1"
       transform="matrix(2.8459057,0,0,2.8477333,-425.21784,-116.69914)">
      <path
         sodipodi:type="arc"
         style="fill:#ff1e1e;fill-opacity:1;stroke:none;stroke-width:2;stroke-miterlimit:4;stroke-dasharray:none;stroke-dashoffset:0;stroke-opacity:1"
         id="path4204"
         sodipodi:cx="329.30972"
         sodipodi:cy="82.615738"
         sodipodi:rx="2.0203052"
         sodipodi:ry="2.0203052"
         d="M 331.33003 82.615738 A 2.0203052 2.0203052 0 1 1  327.28942,82.615738 A 2.0203052 2.0203052 0 1 1  331.33003 82.615738 z"
         transform="translate(94.999999,1.428571)" />
      <path
         transform="translate(66.785709,55)"
         d="M 331.33003 82.615738 A 2.0203052 2.0203052 0 1 1  327.28942,82.615738 A 2.0203052 2.0203052 0 1 1  331.33003 82.615738 z"
         sodipodi:ry="2.0203052"
         sodipodi:rx="2.0203052"
         sodipodi:cy="82.615738"
         sodipodi:cx="329.30972"
         id="path4206"
         style="fill:#ff1e1e;fill-opacity:1;stroke:none;stroke-width:2;stroke-miterlimit:4;stroke-dasharray:none;stroke-dashoffset:0;stroke-opacity:1"
         sodipodi:type="arc" />
      <path
         sodipodi:type="arc"
         style="fill:#ff1e1e;fill-opacity:1;stroke:none;stroke-width:2;stroke-miterlimit:4;stroke-dasharray:none;stroke-dashoffset:0;stroke-opacity:1"
         id="path4208"
         sodipodi:cx="329.30972"
         sodipodi:cy="82.615738"
         sodipodi:rx="2.0203052"
         sodipodi:ry="2.0203052"
         d="M 331.33003 82.615738 A 2.0203052 2.0203052 0 1 1  327.28942,82.615738 A 2.0203052 2.0203052 0 1 1  331.33003 82.615738 z"
         transform="translate(83.214289,21.071429)" />
      <path
         transform="translate(103.21429,19.285714)"
         d="M 331.33003 82.615738 A 2.0203052 2.0203052 0 1 1  327.28942,82.615738 A 2.0203052 2.0203052 0 1 1  331.33003 82.615738 z"
         sodipodi:ry="2.0203052"
         sodipodi:rx="2.0203052"
         sodipodi:cy="82.615738"
         sodipodi:cx="329.30972"
         id="path4210"
         style="fill:#ff1e1e;fill-opacity:1;stroke:none;stroke-width:2;stroke-miterlimit:4;stroke-dasharray:none;stroke-dashoffset:0;stroke-opacity:1"
         sodipodi:type="arc" />
      <path
         transform="translate(76.428569,40)"
         d="M 331.33003 82.615738 A 2.0203052 2.0203052 0 1 1  327.28942,82.615738 A 2.0203052 2.0203052 0 1 1  331.33003 82.615738 z"
         sodipodi:ry="2.0203052"
         sodipodi:rx="2.0203052"
         sodipodi:cy="82.615738"
         sodipodi:cx="329.30972"
         id="path4260"
         style="fill:#ff1e1e;fill-opacity:1;stroke:none;stroke-width:2;stroke-miterlimit:4;stroke-dasharray:none;stroke-dashoffset:0;stroke-opacity:1"
         sodipodi:type="arc" />
      <path
         sodipodi:type="arc"
         style="fill:#ff1e1e;fill-opacity:1;stroke:none;stroke-width:2;stroke-miterlimit:4;stroke-dasharray:none;stroke-dashoffset:0;stroke-opacity:1"
         id="path4262"
         sodipodi:cx="329.30972"
         sodipodi:cy="82.615738"
         sodipodi:rx="2.0203052"
         sodipodi:ry="2.0203052"
         d="M 331.33003 82.615738 A 2.0203052 2.0203052 0 1 1  327.28942,82.615738 A 2.0203052 2.0203052 0 1 1  331.33003 82.615738 z"
         transform="translate(22.857139,84.642857)" />
      <path
         transform="translate(49.285709,69.285714)"
         d="M 331.33003 82.615738 A 2.0203052 2.0203052 0 1 1  327.28942,82.615738 A 2.0203052 2.0203052 0 1 1  331.33003 82.615738 z"
         sodipodi:ry="2.0203052"
         sodipodi:rx="2.0203052"
         sodipodi:cy="82.615738"
         sodipodi:cx="329.30972"
         id="path4264"
         style="fill:#ff1e1e;fill-opacity:1;stroke:none;stroke-width:2;stroke-miterlimit:4;stroke-dasharray:none;stroke-dashoffset:0;stroke-opacity:1"
         sodipodi:type="arc" />
      <path
         sodipodi:type="arc"
         style="fill:#ff1e1e;fill-opacity:1;stroke:none;stroke-width:2;stroke-miterlimit:4;stroke-dasharray:none;stroke-dashoffset:0;stroke-opacity:1"
         id="path4266"
         sodipodi:cx="329.30972"
         sodipodi:cy="82.615738"
         sodipodi:rx="2.0203052"
         sodipodi:ry="2.0203052"
         d="M 331.33003 82.615738 A 2.0203052 2.0203052 0 1 1  327.28942,82.615738 A 2.0203052 2.0203052 0 1 1  331.33003 82.615738 z"
         transform="translate(37.142859,39.642857)" />
      <path
         transform="translate(11.785709,59.285714)"
         d="M 331.33003 82.615738 A 2.0203052 2.0203052 0 1 1  327.28942,82.615738 A 2.0203052 2.0203052 0 1 1  331.33003 82.615738 z"
         sodipodi:ry="2.0203052"
         sodipodi:rx="2.0203052"
         sodipodi:cy="82.615738"
         sodipodi:cx="329.30972"
         id="path4268"
         style="fill:#ff1e1e;fill-opacity:1;stroke:none;stroke-width:2;stroke-miterlimit:4;stroke-dasharray:none;stroke-dashoffset:0;stroke-opacity:1"
         sodipodi:type="arc" />
      <path
         sodipodi:type="arc"
         style="fill:#ff1e1e;fill-opacity:1;stroke:none;stroke-width:2;stroke-miterlimit:4;stroke-dasharray:none;stroke-dashoffset:0;stroke-opacity:1"
         id="path4270"
         sodipodi:cx="329.30972"
         sodipodi:cy="82.615738"
         sodipodi:rx="2.0203052"
         sodipodi:ry="2.0203052"
         d="M 331.33003 82.615738 A 2.0203052 2.0203052 0 1 1  327.28942,82.615738 A 2.0203052 2.0203052 0 1 1  331.33003 82.615738 z"
         transform="translate(57.857139,23.214286)" />
      <path
         sodipodi:type="arc"
         style="fill:#ff1e1e;fill-opacity:1;stroke:none;stroke-width:2;stroke-miterlimit:4;stroke-dasharray:none;stroke-dashoffset:0;stroke-opacity:1"
         id="path4272"
         sodipodi:cx="329.30972"
         sodipodi:cy="82.615738"
         sodipodi:rx="2.0203052"
         sodipodi:ry="2.0203052"
         d="M 331.33003 82.615738 A 2.0203052 2.0203052 0 1 1  327.28942,82.615738 A 2.0203052 2.0203052 0 1 1  331.33003 82.615738 z"
         transform="translate(163.21428,65.714286)" />
      <path
         sodipodi:type="arc"
         style="fill:#ff1e1e;fill-opacity:1;stroke:none;stroke-width:2;stroke-miterlimit:4;stroke-dasharray:none;stroke-dashoffset:0;stroke-opacity:1"
         id="path4274"
         sodipodi:cx="329.30972"
         sodipodi:cy="82.615738"
         sodipodi:rx="2.0203052"
         sodipodi:ry="2.0203052"
         d="M 331.33003 82.615738 A 2.0203052 2.0203052 0 1 1  327.28942,82.615738 A 2.0203052 2.0203052 0 1 1  331.33003 82.615738 z"
         transform="translate(172.85714,50.714286)" />
      <path
         sodipodi:type="arc"
         style="fill:#ff1e1e;fill-opacity:1;stroke:none;stroke-width:2;stroke-miterlimit:4;stroke-dasharray:none;stroke-dashoffset:0;stroke-opacity:1"
         id="path4276"
         sodipodi:cx="329.30972"
         sodipodi:cy="82.615738"
         sodipodi:rx="2.0203052"
         sodipodi:ry="2.0203052"
         d="M 331.33003 82.615738 A 2.0203052 2.0203052 0 1 1  327.28942,82.615738 A 2.0203052 2.0203052 0 1 1  331.33003 82.615738 z"
         transform="translate(148.57142,72.857143)" />
      <path
         transform="translate(133.57143,50.357143)"
         d="M 331.33003 82.615738 A 2.0203052 2.0203052 0 1 1  327.28942,82.615738 A 2.0203052 2.0203052 0 1 1  331.33003 82.615738 z"
         sodipodi:ry="2.0203052"
         sodipodi:rx="2.0203052"
         sodipodi:cy="82.615738"
         sodipodi:cx="329.30972"
         id="path4278"
         style="fill:#ff1e1e;fill-opacity:1;stroke:none;stroke-width:2;stroke-miterlimit:4;stroke-dasharray:none;stroke-dashoffset:0;stroke-opacity:1"
         sodipodi:type="arc" />
      <path
         transform="translate(154.28571,33.928572)"
         d="M 331.33003 82.615738 A 2.0203052 2.0203052 0 1 1  327.28942,82.615738 A 2.0203052 2.0203052 0 1 1  331.33003 82.615738 z"
         sodipodi:ry="2.0203052"
         sodipodi:rx="2.0203052"
         sodipodi:cy="82.615738"
         sodipodi:cx="329.30972"
         id="path4280"
         style="fill:#ff1e1e;fill-opacity:1;stroke:none;stroke-width:2;stroke-miterlimit:4;stroke-dasharray:none;stroke-dashoffset:0;stroke-opacity:1"
         sodipodi:type="arc" />
      <path
         transform="translate(132.5,135.35714)"
         d="M 331.33003 82.615738 A 2.0203052 2.0203052 0 1 1  327.28942,82.615738 A 2.0203052 2.0203052 0 1 1  331.33003 82.615738 z"
         sodipodi:ry="2.0203052"
         sodipodi:rx="2.0203052"
         sodipodi:cy="82.615738"
         sodipodi:cx="329.30972"
         id="path4282"
         style="fill:#ff1e1e;fill-opacity:1;stroke:none;stroke-width:2;stroke-miterlimit:4;stroke-dasharray:none;stroke-dashoffset:0;stroke-opacity:1"
         sodipodi:type="arc" />
      <path
         transform="translate(142.14286,120.35714)"
         d="M 331.33003 82.615738 A 2.0203052 2.0203052 0 1 1  327.28942,82.615738 A 2.0203052 2.0203052 0 1 1  331.33003 82.615738 z"
         sodipodi:ry="2.0203052"
         sodipodi:rx="2.0203052"
         sodipodi:cy="82.615738"
         sodipodi:cx="329.30972"
         id="path4284"
         style="fill:#ff1e1e;fill-opacity:1;stroke:none;stroke-width:2;stroke-miterlimit:4;stroke-dasharray:none;stroke-dashoffset:0;stroke-opacity:1"
         sodipodi:type="arc" />
      <path
         transform="translate(117.85713,132.14285)"
         d="M 331.33003 82.615738 A 2.0203052 2.0203052 0 1 1  327.28942,82.615738 A 2.0203052 2.0203052 0 1 1  331.33003 82.615738 z"
         sodipodi:ry="2.0203052"
         sodipodi:rx="2.0203052"
         sodipodi:cy="82.615738"
         sodipodi:cx="329.30972"
         id="path4286"
         style="fill:#ff1e1e;fill-opacity:1;stroke:none;stroke-width:2;stroke-miterlimit:4;stroke-dasharray:none;stroke-dashoffset:0;stroke-opacity:1"
         sodipodi:type="arc" />
      <path
         sodipodi:type="arc"
         style="fill:#ff1e1e;fill-opacity:1;stroke:none;stroke-width:2;stroke-miterlimit:4;stroke-dasharray:none;stroke-dashoffset:0;stroke-opacity:1"
         id="path4288"
         sodipodi:cx="329.30972"
         sodipodi:cy="82.615738"
         sodipodi:rx="2.0203052"
         sodipodi:ry="2.0203052"
         d="M 331.33003 82.615738 A 2.0203052 2.0203052 0 1 1  327.28942,82.615738 A 2.0203052 2.0203052 0 1 1  331.33003 82.615738 z"
         transform="translate(110.35714,102.5)" />
      <path
         sodipodi:type="arc"
         style="fill:#ff1e1e;fill-opacity:1;stroke:none;stroke-width:2;stroke-miterlimit:4;stroke-dasharray:none;stroke-dashoffset:0;stroke-opacity:1"
         id="path4290"
         sodipodi:cx="329.30972"
         sodipodi:cy="82.615738"
         sodipodi:rx="2.0203052"
         sodipodi:ry="2.0203052"
         d="M 331.33003 82.615738 A 2.0203052 2.0203052 0 1 1  327.28942,82.615738 A 2.0203052 2.0203052 0 1 1  331.33003 82.615738 z"
         transform="translate(131.78571,86.428576)" />
      <path
         sodipodi:type="arc"
         style="fill:#ff1e1e;fill-opacity:1;stroke:none;stroke-width:2;stroke-miterlimit:4;stroke-dasharray:none;stroke-dashoffset:0;stroke-opacity:1"
         id="path4292"
         sodipodi:cx="329.30972"
         sodipodi:cy="82.615738"
         sodipodi:rx="2.0203052"
         sodipodi:ry="2.0203052"
         d="M 331.33003 82.615738 A 2.0203052 2.0203052 0 1 1  327.28942,82.615738 A 2.0203052 2.0203052 0 1 1  331.33003 82.615738 z"
         transform="translate(59.642849,7.8571427)" />
      <path
         transform="translate(76.071429,-26.071428)"
         d="M 331.33003 82.615738 A 2.0203052 2.0203052 0 1 1  327.28942,82.615738 A 2.0203052 2.0203052 0 1 1  331.33003 82.615738 z"
         sodipodi:ry="2.0203052"
         sodipodi:rx="2.0203052"
         sodipodi:cy="82.615738"
         sodipodi:cx="329.30972"
         id="path4294"
         style="fill:#ff1e1e;fill-opacity:1;stroke:none;stroke-width:2;stroke-miterlimit:4;stroke-dasharray:none;stroke-dashoffset:0;stroke-opacity:1"
         sodipodi:type="arc" />
      <path
         sodipodi:type="arc"
         style="fill:#ff1e1e;fill-opacity:1;stroke:none;stroke-width:2;stroke-miterlimit:4;stroke-dasharray:none;stroke-dashoffset:0;stroke-opacity:1"
         id="path4296"
         sodipodi:cx="329.30972"
         sodipodi:cy="82.615738"
         sodipodi:rx="2.0203052"
         sodipodi:ry="2.0203052"
         d="M 331.33003 82.615738 A 2.0203052 2.0203052 0 1 1  327.28942,82.615738 A 2.0203052 2.0203052 0 1 1  331.33003 82.615738 z"
         transform="translate(69.285709,-7.1428573)" />
      <path
         transform="translate(29.999999,-7.5000003)"
         d="M 331.33003 82.615738 A 2.0203052 2.0203052 0 1 1  327.28942,82.615738 A 2.0203052 2.0203052 0 1 1  331.33003 82.615738 z"
         sodipodi:ry="2.0203052"
         sodipodi:rx="2.0203052"
         sodipodi:cy="82.615738"
         sodipodi:cx="329.30972"
         id="path4298"
         style="fill:#ff1e1e;fill-opacity:1;stroke:none;stroke-width:2;stroke-miterlimit:4;stroke-dasharray:none;stroke-dashoffset:0;stroke-opacity:1"
         sodipodi:type="arc" />
      <path
         transform="translate(50.714279,-23.928571)"
         d="M 331.33003 82.615738 A 2.0203052 2.0203052 0 1 1  327.28942,82.615738 A 2.0203052 2.0203052 0 1 1  331.33003 82.615738 z"
         sodipodi:ry="2.0203052"
         sodipodi:rx="2.0203052"
         sodipodi:cy="82.615738"
         sodipodi:cx="329.30972"
         id="path4300"
         style="fill:#ff1e1e;fill-opacity:1;stroke:none;stroke-width:2;stroke-miterlimit:4;stroke-dasharray:none;stroke-dashoffset:0;stroke-opacity:1"
         sodipodi:type="arc" />
    </g>
  </g>
</svg>
