<?xml version="1.0" encoding="UTF-8" standalone="no"?>
<!-- Created with Inkscape (http://www.inkscape.org/) -->

<svg
   xmlns:ns0="http://www.iki.fi/pav/software/textext/"
   xmlns:dc="http://purl.org/dc/elements/1.1/"
   xmlns:cc="http://creativecommons.org/ns#"
   xmlns:rdf="http://www.w3.org/1999/02/22-rdf-syntax-ns#"
   xmlns:svg="http://www.w3.org/2000/svg"
   xmlns="http://www.w3.org/2000/svg"
   xmlns:sodipodi="http://sodipodi.sourceforge.net/DTD/sodipodi-0.dtd"
   xmlns:inkscape="http://www.inkscape.org/namespaces/inkscape"
   width="128.9776"
   height="160.61877"
   id="svg2"
   version="1.1"
   inkscape:version="0.92.1 unknown"
   sodipodi:docname="tracking_reprojection_error_before.svg">
  <sodipodi:namedview
     id="base"
     pagecolor="#ffffff"
     bordercolor="#666666"
     borderopacity="1.0"
     inkscape:pageopacity="0.0"
     inkscape:pageshadow="2"
     inkscape:zoom="2.8284273"
     inkscape:cx="28.125012"
     inkscape:cy="64.096954"
     inkscape:document-units="px"
     inkscape:current-layer="layer3"
     showgrid="false"
     showguides="true"
     inkscape:guide-bbox="true"
     inkscape:window-width="1366"
     inkscape:window-height="744"
     inkscape:window-x="0"
     inkscape:window-y="24"
     inkscape:window-maximized="1"
     fit-margin-top="0"
     fit-margin-left="0"
     fit-margin-right="0"
     fit-margin-bottom="0">
    <inkscape:grid
       spacingy="1.0666667"
       spacingx="1.0666667"
       originy="-619.37952"
       originx="-232.02847"
       snapvisiblegridlinesonly="true"
       enabled="true"
       visible="true"
       empspacing="5"
       id="grid3761"
       type="xygrid" />
  </sodipodi:namedview>
  <defs
     id="defs4" />
  <metadata
     id="metadata7">
    <rdf:RDF>
      <cc:Work
         rdf:about="">
        <dc:format>image/svg+xml</dc:format>
        <dc:type
           rdf:resource="http://purl.org/dc/dcmitype/StillImage" />
        <dc:title />
      </cc:Work>
    </rdf:RDF>
  </metadata>
  <g
     inkscape:groupmode="layer"
     id="layer2"
     inkscape:label="image_planes"
     style="display:inline"
     transform="translate(-82.628173,-3.9849737)"
     sodipodi:insensitive="true">
    <rect
       y="75.736351"
       x="93.014481"
       height="50.999905"
       width="88.535629"
       id="rect3089"
       style="fill:none;stroke:#9b9b9b;stroke-width:1.02349246;stroke-linecap:round;stroke-miterlimit:4;stroke-dasharray:none;stroke-dashoffset:0;stroke-opacity:1" />
    <path
       transform="translate(0.22303664,2.6037755)"
       sodipodi:nodetypes="cc"
       style="display:inline;fill:none;stroke:#000000;stroke-width:1.06666672;stroke-linecap:butt;stroke-linejoin:miter;stroke-miterlimit:4;stroke-dasharray:2.13333333, 1.06666667;stroke-dashoffset:0;stroke-opacity:0.39215686"
       d="M 137.12418,151.60029 181.32707,73.132576"
       id="path4912"
       inkscape:connector-curvature="0" />
    <path
       sodipodi:nodetypes="cc"
       style="display:inline;fill:none;stroke:#000000;stroke-width:1.06666672;stroke-linecap:butt;stroke-linejoin:miter;stroke-miterlimit:4;stroke-dasharray:2.13333333, 1.06666667;stroke-dashoffset:0;stroke-opacity:0.39215686"
       d="M 137.34722,154.20407 93.014481,75.736351"
       id="path4912-2"
       inkscape:connector-curvature="0" />
    <path
       sodipodi:nodetypes="cc"
       style="display:inline;fill:none;stroke:#000000;stroke-width:1.06666672;stroke-linecap:butt;stroke-linejoin:miter;stroke-miterlimit:4;stroke-dasharray:2.13333333, 1.06666667;stroke-dashoffset:0;stroke-opacity:0.39215686"
       d="m 137.34722,154.20407 44.20289,-27.46782"
       id="path4912-2-7"
       inkscape:connector-curvature="0" />
    <path
       sodipodi:nodetypes="cc"
       style="display:inline;fill:none;stroke:#000000;stroke-width:1.06666672;stroke-linecap:butt;stroke-linejoin:miter;stroke-miterlimit:4;stroke-dasharray:2.13333333, 1.06666667;stroke-dashoffset:0;stroke-opacity:0.39215686"
       d="M 137.34722,154.20407 93.014481,126.73625"
       id="path4912-2-7-0"
       inkscape:connector-curvature="0" />
    <circle
       r="2.2270546"
       cy="493.05225"
       cx="286.5369"
       id="path3895-7-5-5-8-7"
       style="display:inline;fill:#000000;fill-opacity:1;stroke-width:1.06666672;stroke-miterlimit:4;stroke-dasharray:none"
       transform="translate(-149.40029,-338.53642)" />
    <g
       style="font-style:normal;font-variant:normal;font-weight:normal;font-stretch:normal;letter-spacing:normal;word-spacing:normal;text-anchor:start;display:inline;fill:none;fill-opacity:1;fill-rule:evenodd;stroke:#000000;stroke-linecap:butt;stroke-linejoin:miter;stroke-miterlimit:10.43299961;stroke-dasharray:none;stroke-dashoffset:0;stroke-opacity:1"
       ns0:preamble="/home/taihu/Documents/tesis/inkscape_preamble.tex"
       ns0:text="$\\seMatrix_{\\curr}$"
       word-spacing="normal"
       letter-spacing="normal"
       font-size-adjust="none"
       font-stretch="normal"
       font-weight="normal"
       font-variant="normal"
       font-style="normal"
       stroke-miterlimit="10.433"
       xml:space="preserve"
       transform="matrix(0.70313341,0,0,-0.70313341,-22.720491,660.70655)"
       id="content"><path
         id="path5756"
         d="m 230.63,709.85 h -0.46 c -0.22,-1.37 -0.5,-2.26 -2.34,-2.26 h -1.52 v 2.81 h 0.55 c 0.96,0 1.06,-0.43 1.06,-1.17 h 0.46 v 2.8 h -0.46 c 0,-0.73 -0.09,-1.16 -1.06,-1.16 h -0.55 v 2.56 h 1.52 c 1.6,0 1.86,-0.73 2.02,-1.93 h 0.47 l -0.31,2.4 h -6.19 v -0.47 h 1.08 v -5.84 h -1.08 v -0.47 h 6.36 z"
         inkscape:connector-curvature="0"
         style="fill:#000000;stroke-width:0" /><path
         id="path5758"
         d="m 234.02,708.3 h -0.03 l -0.02,-0.01 h -0.02 l -0.02,-0.01 -0.02,-0.01 -0.02,-0.01 -0.02,-0.01 -0.01,-0.01 -0.02,-0.01 -0.02,-0.01 -0.01,-0.01 -0.02,-0.01 -0.01,-0.01 -0.01,-0.02 -0.01,-0.01 -0.02,-0.01 -0.01,-0.02 -0.01,-0.01 v -0.02 l -0.01,-0.01 -0.01,-0.01 -0.01,-0.02 v -0.01 l -0.01,-0.02 v -0.02 L 233.67,708 v -0.02 -0.01 l -0.01,-0.02 v -0.01 -0.02 -0.01 c 0,-0.19 0.15,-0.26 0.27,-0.26 0.16,0 0.4,0.11 0.4,0.45 0,0.47 -0.54,0.61 -0.92,0.61 -1.05,0 -2.01,-0.97 -2.01,-1.94 0,-0.6 0.41,-1.21 1.28,-1.21 1.18,0 1.73,0.69 1.73,0.79 0,0.04 -0.06,0.12 -0.11,0.12 -0.05,0 -0.06,-0.02 -0.12,-0.07 -0.54,-0.64 -1.36,-0.64 -1.48,-0.64 -0.5,0 -0.73,0.34 -0.73,0.77 0,0.2 0.1,0.96 0.46,1.44 0.27,0.35 0.63,0.54 0.98,0.54 0.1,0 0.43,-0.01 0.61,-0.21 z"
         inkscape:connector-curvature="0"
         style="fill:#000000;stroke-width:0" /></g>  </g>
  <g
     transform="translate(-232.02847,-342.5214)"
     id="layer1"
     inkscape:groupmode="layer"
     inkscape:label="measurements"
     style="display:inline"
     sodipodi:insensitive="true">
    <path
       style="fill:none;fill-opacity:1;stroke:#00ff00;stroke-width:1.0377022px;stroke-linecap:butt;stroke-linejoin:miter;stroke-opacity:1"
       d="m 274.24289,438.82062 -9.13847,3.05055"
       id="path4443-4"
       inkscape:connector-curvature="0" />
    <circle
       r="2.2270546"
       cy="442.34094"
       cx="264.36356"
       id="path3895-7-5-5"
       style="display:inline;fill:#ff0000;fill-opacity:1;stroke-width:1.06666672;stroke-miterlimit:4;stroke-dasharray:none" />
    <path
       sodipodi:nodetypes="cc"
       style="display:inline;fill:none;stroke:#000000;stroke-width:1.06666672;stroke-linecap:butt;stroke-linejoin:miter;stroke-miterlimit:4;stroke-dasharray:2.13333333, 1.06666667;stroke-dashoffset:0;stroke-opacity:1"
       d="m 235.75188,353.85121 38.15953,84.17192"
       id="path4416"
       inkscape:connector-curvature="0" />
    <circle
       r="2.2270546"
       cy="438.79694"
       cx="274.31467"
       id="path3895-7-2"
       style="display:inline;fill:#ffff00;fill-opacity:1;stroke-width:1.06666672;stroke-miterlimit:4;stroke-dasharray:none" />
    <circle
       r="2.7846546"
       cy="354.02612"
       cx="235.39273"
       id="path3895-97-28"
       style="fill:#000000;fill-opacity:1;stroke-width:0.27846548;stroke-miterlimit:4;stroke-dasharray:none" />
    <g
       style="font-style:normal;font-variant:normal;font-weight:normal;font-stretch:normal;letter-spacing:normal;word-spacing:normal;text-anchor:start;fill:none;stroke:#000000;stroke-linecap:butt;stroke-linejoin:miter;stroke-miterlimit:10.43299961;stroke-dasharray:none;stroke-dashoffset:0;stroke-opacity:1"
       ns0:preamble="/home/taihu/Documents/tesis/inkscape_preamble.tex"
       ns0:text="$\\worldPoint_{1}$"
       word-spacing="normal"
       letter-spacing="normal"
       font-size-adjust="none"
       font-stretch="normal"
       font-weight="normal"
       font-variant="normal"
       font-style="normal"
       stroke-miterlimit="10.433"
       xml:space="preserve"
       transform="matrix(1,0,0,-1,-6.531533,1103.8442)"
       id="g5774"><path
         style="fill:#000000;stroke-width:0"
         inkscape:connector-curvature="0"
         id="path4296"
         d="m 241.99467,756.87467 1.248,1.376 c 0.13866,0.14933 0.20266,0.224 1.07733,0.224 v 0.50133 c -0.36267,-0.0213 -0.91733,-0.032 -0.97067,-0.032 -0.26666,0 -0.8,0.0213 -1.09866,0.032 v -0.50133 c 0.14933,0 0.27733,-0.0213 0.40533,-0.096 -0.0427,-0.064 -0.0427,-0.0853 -0.0853,-0.128 l -0.88534,-0.992 -1.04533,1.216 h 0.42667 v 0.50133 c -0.27734,-0.0107 -0.94934,-0.032 -1.29067,-0.032 -0.33067,0 -0.81067,0.0213 -1.16267,0.032 v -0.50133 h 0.75734 l 1.65333,-1.952 -1.38667,-1.55734 C 239.456,754.76267 239.072,754.76267 238.56,754.76267 v -0.50134 c 0.37333,0.032 0.928,0.0427 0.98133,0.0427 0.26667,0 0.87467,-0.0213 1.088,-0.0427 v 0.50134 c -0.192,0 -0.39466,0.0533 -0.39466,0.11733 0,0.0107 0,0.0213 0.0747,0.10667 l 1.03467,1.152 1.16267,-1.376 h -0.416 v -0.50134 c 0.27733,0.0213 0.928,0.0427 1.28,0.0427 0.34133,0 0.81066,-0.0213 1.16266,-0.0427 v 0.50134 h -0.74666 z" /><path
         style="fill:#000000;stroke-width:0"
         inkscape:connector-curvature="0"
         id="path4298"
         d="m 249.97333,760.59733 0.0213,0.032 0.0107,0.032 0.0213,0.032 0.0107,0.032 0.0213,0.032 0.0107,0.0213 0.0213,0.0213 0.0107,0.0213 0.0213,0.0213 0.0213,0.0213 0.0213,0.0213 0.0107,0.0213 0.0213,0.0107 0.0213,0.0213 0.0213,0.0107 0.0213,0.0107 0.0213,0.0107 0.0213,0.0107 0.0213,0.0107 0.0213,0.0107 0.0213,0.0107 0.0213,0.0107 h 0.0213 l 0.0213,0.0107 h 0.0213 0.0213 l 0.0213,0.0107 h 0.0213 0.0427 l 0.0427,0.0107 v 0.26667 c -0.20267,-0.0213 -0.32,-0.032 -0.53334,-0.032 -0.224,0 -0.512,0.0107 -0.72533,0.032 v -0.2668 c 0.256,-0.0107 0.384,-0.14933 0.384,-0.33067 0,-0.064 0,-0.0747 -0.0427,-0.18133 l -0.72533,-1.84533 -0.8,2.02666 c -0.0213,0.0427 -0.0427,0.096 -0.0427,0.13867 0,0.17067 0.192,0.192 0.40534,0.192 v 0.26667 c -0.26667,-0.0213 -0.53334,-0.032 -0.8,-0.032 -0.21334,0 -0.43734,0.0107 -0.66134,0.032 V 761.056 c 0.17067,0 0.33067,0 0.42667,-0.064 0.10667,-0.0747 0.17067,-0.32 0.17067,-0.33067 0,-0.0107 -0.0107,-0.0533 -0.032,-0.0853 l -0.69334,-1.76 -0.75733,1.90933 c -0.0427,0.10667 -0.0427,0.10667 -0.0427,0.13867 0,0.192 0.26667,0.192 0.40534,0.192 v 0.26667 c -0.0107,0 -0.544,-0.032 -0.84267,-0.032 -0.224,0 -0.46933,0.0107 -0.69333,0.032 v -0.2667 c 0.288,0 0.448,0 0.53333,-0.224 l 1.03467,-2.61333 c 0.0427,-0.10667 0.064,-0.17067 0.20266,-0.17067 0.128,0 0.14934,0.064 0.192,0.16 l 0.832,2.112 0.832,-2.09067 c 0.0427,-0.11733 0.0747,-0.18133 0.20267,-0.18133 0.13867,0 0.16,0.0533 0.20267,0.17067 z" /><path
         style="fill:#000000;stroke-width:0"
         inkscape:connector-curvature="0"
         id="path4300"
         d="m 247.264,756.352 v 0 0.0107 0.0107 0.0107 0.0107 0 0.0107 0.0107 0 0.0107 0.0107 0 0.0107 0 0.0107 0 0.0107 h -0.0107 v 0.0107 0.0107 0.0107 l -0.0107,0.0107 v 0 0.0107 h -0.0107 v 0.0107 h -0.0107 -0.0107 L 247.2,756.544 v 0 h -0.0107 -0.0107 -0.0107 v 0 l -0.0107,0.0107 v 0 h -0.0107 -0.0107 v 0 h -0.0107 -0.0107 v 0 h -0.0107 -0.0107 v 0 h -0.0107 -0.0107 -0.0107 -0.0107 -0.0107 c -0.46933,-0.46934 -1.152,-0.48 -1.45067,-0.48 v -0.2667 c 0.17067,0 0.672,0 1.07734,0.21333 v -3.78666 c 0,-0.24534 0,-0.34134 -0.74667,-0.34134 h -0.27733 v -0.26666 c 0.128,0.0107 1.04533,0.032 1.32266,0.032 0.224,0 1.16267,-0.0213 1.32267,-0.032 v 0.26666 h -0.27733 c -0.74667,0 -0.74667,0.096 -0.74667,0.34134 z" /></g>    <circle
       r="2.7846546"
       cy="370.92542"
       cx="353.15048"
       id="path3895-97-28-3"
       style="fill:#000000;fill-opacity:1;stroke-width:0.27846548;stroke-miterlimit:4;stroke-dasharray:none" />
    <path
       style="fill:none;fill-opacity:1;stroke:#00ff00;stroke-width:1.0377022px;stroke-linecap:butt;stroke-linejoin:miter;stroke-opacity:1"
       d="m 301.94518,451.72546 -9.13847,3.05055"
       id="path4443-4-5"
       inkscape:connector-curvature="0" />
    <circle
       r="2.2270546"
       cy="455.24576"
       cx="292.06586"
       id="path3895-7-5-5-2"
       style="fill:#ff0000;fill-opacity:1;stroke-width:1.06666672;stroke-miterlimit:4;stroke-dasharray:none" />
    <path
       sodipodi:nodetypes="cc"
       style="display:inline;fill:none;stroke:#000000;stroke-width:1.06666672;stroke-linecap:butt;stroke-linejoin:miter;stroke-miterlimit:4;stroke-dasharray:2.13333333, 1.06666667;stroke-dashoffset:0;stroke-opacity:1"
       d="m 353.48107,371.62972 -51.7299,80.11825"
       id="path4439-9-1"
       inkscape:connector-curvature="0" />
    <circle
       r="2.2270546"
       cy="451.70175"
       cx="302.01697"
       id="path3895-7-2-6"
       style="fill:#ffff00;fill-opacity:1;stroke-width:1.06666672;stroke-miterlimit:4;stroke-dasharray:none" />
    <g
       style="font-style:normal;font-variant:normal;font-weight:normal;font-stretch:normal;letter-spacing:normal;word-spacing:normal;text-anchor:start;fill:none;fill-opacity:1;fill-rule:evenodd;stroke:#000000;stroke-linecap:butt;stroke-linejoin:miter;stroke-miterlimit:10.43299961;stroke-dasharray:none;stroke-dashoffset:0;stroke-opacity:1"
       ns0:preamble="/home/taihu/Documents/tesis/inkscape_preamble.tex"
       ns0:text="$\\worldPoint_{3}$"
       word-spacing="normal"
       letter-spacing="normal"
       font-size-adjust="none"
       font-stretch="normal"
       font-weight="normal"
       font-variant="normal"
       font-style="normal"
       stroke-miterlimit="10.433"
       xml:space="preserve"
       transform="matrix(1,0,0,-1,126.05607,1072.8447)"
       id="g6139"><path
         id="path6133"
         d="m 226.88,709.57 1.16,1.3 c 0.14,0.14 0.19,0.21 1.02,0.21 v 0.47 c -0.35,-0.02 -0.86,-0.03 -0.91,-0.03 -0.25,0 -0.75,0.02 -1.03,0.03 v -0.47 c 0.14,0 0.26,-0.02 0.38,-0.09 -0.04,-0.06 -0.04,-0.08 -0.08,-0.12 l -0.84,-0.94 -0.98,1.15 h 0.4 v 0.47 c -0.26,-0.01 -0.88,-0.03 -1.2,-0.03 -0.32,0 -0.77,0.02 -1.1,0.03 v -0.47 h 0.71 l 1.55,-1.84 -1.3,-1.46 c -0.17,-0.19 -0.53,-0.19 -1.01,-0.19 v -0.47 c 0.35,0.02 0.87,0.03 0.92,0.03 0.25,0 0.83,-0.02 1.02,-0.03 v 0.47 c -0.18,0 -0.36,0.05 -0.36,0.11 0,0.01 0,0.02 0.07,0.1 l 0.96,1.09 1.1,-1.3 h -0.39 v -0.47 c 0.26,0.01 0.87,0.03 1.19,0.03 0.32,0 0.77,-0.02 1.1,-0.03 v 0.47 h -0.71 z"
         inkscape:connector-curvature="0"
         style="fill:#000000;stroke-width:0" /><path
         id="path6135"
         d="m 234.36,713.07 0.01,0.03 0.02,0.03 0.01,0.03 0.02,0.02 0.01,0.03 0.02,0.02 0.01,0.03 0.02,0.02 0.02,0.02 0.01,0.02 0.02,0.02 0.02,0.01 0.02,0.02 0.02,0.01 0.01,0.02 0.02,0.01 0.02,0.01 0.02,0.01 0.02,0.01 0.02,0.01 h 0.02 l 0.02,0.01 0.02,0.01 h 0.02 l 0.02,0.01 h 0.02 0.02 l 0.02,0.01 h 0.04 0.05 v 0.25 c -0.19,-0.02 -0.3,-0.02 -0.51,-0.02 -0.21,0 -0.47,0 -0.68,0.02 v -0.25 c 0.24,-0.01 0.36,-0.14 0.36,-0.31 0,-0.05 0,-0.06 -0.04,-0.16 l -0.68,-1.74 -0.75,1.9 c -0.01,0.04 -0.03,0.1 -0.03,0.14 0,0.15 0.18,0.17 0.37,0.17 v 0.25 c -0.25,-0.02 -0.5,-0.02 -0.75,-0.02 -0.2,0 -0.41,0.01 -0.62,0.02 v -0.25 c 0.17,0 0.31,0 0.4,-0.05 0.1,-0.07 0.16,-0.3 0.16,-0.31 0,-0.01 -0.01,-0.06 -0.03,-0.08 l -0.65,-1.66 -0.7,1.79 c -0.05,0.1 -0.05,0.11 -0.05,0.14 0,0.17 0.26,0.17 0.38,0.17 v 0.25 c -0.01,0 -0.51,-0.02 -0.79,-0.02 -0.21,0 -0.44,0 -0.65,0.02 v -0.25 c 0.27,0 0.42,0 0.5,-0.2 l 0.97,-2.46 c 0.04,-0.11 0.06,-0.16 0.19,-0.16 0.12,0 0.14,0.05 0.18,0.14 l 0.79,2 0.77,-1.97 c 0.04,-0.11 0.07,-0.17 0.2,-0.17 0.12,0 0.14,0.05 0.18,0.16 z"
         inkscape:connector-curvature="0"
         style="fill:#000000;stroke-width:0" /><path
         id="path6137"
         d="m 231.38,706.98 h 0.05 0.05 l 0.05,-0.01 h 0.05 l 0.04,-0.01 0.05,-0.02 0.04,-0.01 0.05,-0.02 0.04,-0.02 0.04,-0.02 0.04,-0.02 0.04,-0.02 0.03,-0.03 0.04,-0.03 0.03,-0.03 0.03,-0.04 0.03,-0.03 0.03,-0.04 0.03,-0.04 0.02,-0.05 0.03,-0.04 0.02,-0.05 0.02,-0.05 0.02,-0.05 0.01,-0.05 0.02,-0.06 0.01,-0.06 0.01,-0.06 0.01,-0.06 V 706 705.93 l 0.01,-0.07 c 0,-0.86 -0.51,-1.12 -0.91,-1.12 -0.28,0 -0.89,0.08 -1.19,0.49 0.33,0.01 0.41,0.24 0.41,0.39 0,0.22 -0.17,0.38 -0.39,0.38 -0.19,0 -0.39,-0.12 -0.39,-0.4 0,-0.66 0.73,-1.08 1.57,-1.08 0.97,0 1.64,0.64 1.64,1.34 0,0.55 -0.44,1.09 -1.21,1.25 0.73,0.27 1,0.79 1,1.21 0,0.55 -0.64,0.97 -1.41,0.97 -0.78,0 -1.37,-0.38 -1.37,-0.94 0,-0.24 0.15,-0.37 0.36,-0.37 0.22,0 0.36,0.16 0.36,0.36 0,0.2 -0.14,0.35 -0.36,0.36 0.25,0.31 0.73,0.38 0.99,0.38 0.31,0 0.75,-0.15 0.75,-0.76 0,-0.29 -0.1,-0.61 -0.28,-0.83 -0.23,-0.26 -0.43,-0.28 -0.77,-0.3 -0.18,-0.01 -0.19,-0.01 -0.23,-0.02 -0.01,0 -0.07,-0.01 -0.07,-0.09 0,-0.1 0.07,-0.1 0.19,-0.1 z"
         inkscape:connector-curvature="0"
         style="fill:#000000;stroke-width:0" /></g>    <g
       id="g6575"
       transform="matrix(0.79985644,0,0,-0.79985644,97.970638,1009.079)"
       xml:space="preserve"
       stroke-miterlimit="10.433"
       font-style="normal"
       font-variant="normal"
       font-weight="normal"
       font-stretch="normal"
       font-size-adjust="none"
       letter-spacing="normal"
       word-spacing="normal"
       ns0:text="$\\prediction_{1}$"
       ns0:preamble="/home/taihu/Documents/tesis/inkscape_preamble.tex"
       style="font-style:normal;font-variant:normal;font-weight:normal;font-stretch:normal;letter-spacing:normal;word-spacing:normal;text-anchor:start;display:inline;fill:none;fill-opacity:1;fill-rule:evenodd;stroke:#000000;stroke-linecap:butt;stroke-linejoin:miter;stroke-miterlimit:10.43299961;stroke-dasharray:none;stroke-dashoffset:0;stroke-opacity:1"><polygon
         points="225.98,713.66 227.12,712.65 227.3,712.82 225.98,714.18 224.64,712.82 224.82,712.65 "
         id="polygon6569"
         style="fill:#000000;stroke-width:0" /><path
         d="m 227.91,711.12 v 0.01 l 0.01,0.01 0.01,0.01 v 0 l 0.01,0.01 v 0.01 l 0.01,0.01 v 0.01 h 0.01 v 0.01 l 0.01,0.01 v 0 l 0.01,0.01 v 0 0.01 h 0.01 v 0.01 0.01 0 0.01 H 228 v 0.01 0 0.01 0.01 0 0.01 0.01 0 0.01 0.01 l 0.01,0.01 c 0,0.21 -0.14,0.21 -0.32,0.21 h -3.66 l -0.12,-1.75 h 0.47 c 0.06,1.03 0.37,1.39 1.39,1.39 h 0.85 l -2.78,-3.63 c -0.09,-0.11 -0.09,-0.13 -0.09,-0.22 0,-0.22 0.13,-0.22 0.32,-0.22 h 3.79 l 0.18,2.02 h -0.47 c -0.09,-1.01 -0.25,-1.62 -1.57,-1.62 h -0.85 z"
         id="path6571"
         inkscape:connector-curvature="0"
         style="fill:#000000;stroke-width:0" /><path
         d="m 230.86,710.07 v 0 0.01 0.01 0.01 0.01 0 0.01 0.01 0 0.01 0.01 0 0.01 0 0.01 0.01 h -0.01 v 0.01 0 0.01 0.01 l -0.01,0.01 v 0 l -0.01,0.01 v 0 l -0.01,0.01 v 0 l -0.01,0.01 h -0.01 v 0 h -0.01 l -0.01,0.01 h -0.01 v 0 h -0.01 v 0 h -0.01 -0.01 v 0 h -0.01 -0.01 v 0 h -0.01 -0.01 -0.01 v 0 h -0.01 -0.01 -0.01 -0.01 c -0.44,-0.44 -1.08,-0.45 -1.36,-0.45 v -0.25 c 0.16,0 0.62,0 1.01,0.2 v -3.56 c 0,-0.23 0,-0.32 -0.7,-0.32 h -0.27 v -0.25 c 0.13,0.01 0.99,0.03 1.24,0.03 0.22,0 1.1,-0.02 1.25,-0.03 v 0.25 h -0.26 c -0.7,0 -0.7,0.09 -0.7,0.32 z"
         id="path6573"
         inkscape:connector-curvature="0"
         style="fill:#000000;stroke-width:0" /></g>    <g
       style="font-style:normal;font-variant:normal;font-weight:normal;font-stretch:normal;letter-spacing:normal;word-spacing:normal;text-anchor:start;fill:none;fill-opacity:1;fill-rule:evenodd;stroke:#000000;stroke-linecap:butt;stroke-linejoin:miter;stroke-miterlimit:10.43299961;stroke-dasharray:none;stroke-dashoffset:0;stroke-opacity:1"
       ns0:preamble="/home/taihu/Documents/tesis/inkscape_preamble.tex"
       ns0:text="$\\measurement_{1}$"
       word-spacing="normal"
       letter-spacing="normal"
       font-size-adjust="none"
       font-stretch="normal"
       font-weight="normal"
       font-variant="normal"
       font-style="normal"
       stroke-miterlimit="10.433"
       xml:space="preserve"
       transform="matrix(0.79985644,0,0,-0.79985644,85.292415,1014.1557)"
       id="g6711"><path
         id="path6707"
         d="m 227.91,711.12 v 0.01 l 0.01,0.01 0.01,0.01 v 0 l 0.01,0.01 v 0.01 l 0.01,0.01 v 0.01 h 0.01 v 0.01 l 0.01,0.01 v 0 l 0.01,0.01 v 0 0.01 h 0.01 v 0.01 0.01 0 0.01 H 228 v 0.01 0 0.01 0.01 0 0.01 0.01 0 0.01 0.01 l 0.01,0.01 c 0,0.21 -0.14,0.21 -0.32,0.21 h -3.66 l -0.12,-1.75 h 0.47 c 0.06,1.03 0.37,1.39 1.39,1.39 h 0.85 l -2.78,-3.63 c -0.09,-0.11 -0.09,-0.13 -0.09,-0.22 0,-0.22 0.13,-0.22 0.32,-0.22 h 3.79 l 0.18,2.02 h -0.47 c -0.09,-1.01 -0.25,-1.62 -1.57,-1.62 h -0.85 z"
         inkscape:connector-curvature="0"
         style="fill:#000000;stroke-width:0" /><path
         id="path6709"
         d="m 230.86,710.07 v 0 0.01 0.01 0.01 0.01 0 0.01 0.01 0 0.01 0.01 0 0.01 0 0.01 0.01 h -0.01 v 0.01 0 0.01 0.01 l -0.01,0.01 v 0 l -0.01,0.01 v 0 l -0.01,0.01 v 0 l -0.01,0.01 h -0.01 v 0 h -0.01 l -0.01,0.01 h -0.01 v 0 h -0.01 v 0 h -0.01 -0.01 v 0 h -0.01 -0.01 v 0 h -0.01 -0.01 -0.01 v 0 h -0.01 -0.01 -0.01 -0.01 c -0.44,-0.44 -1.08,-0.45 -1.36,-0.45 v -0.25 c 0.16,0 0.62,0 1.01,0.2 v -3.56 c 0,-0.23 0,-0.32 -0.7,-0.32 h -0.27 v -0.25 c 0.13,0.01 0.99,0.03 1.24,0.03 0.22,0 1.1,-0.02 1.25,-0.03 v 0.25 h -0.26 c -0.7,0 -0.7,0.09 -0.7,0.32 z"
         inkscape:connector-curvature="0"
         style="fill:#000000;stroke-width:0" /></g>    <g
       id="g6845"
       transform="matrix(0.79985644,0,0,-0.79985644,110.57715,1027.2875)"
       xml:space="preserve"
       stroke-miterlimit="10.433"
       font-style="normal"
       font-variant="normal"
       font-weight="normal"
       font-stretch="normal"
       font-size-adjust="none"
       letter-spacing="normal"
       word-spacing="normal"
       ns0:text="$\\measurement_{3}$"
       ns0:preamble="/home/taihu/Documents/tesis/inkscape_preamble.tex"
       style="font-style:normal;font-variant:normal;font-weight:normal;font-stretch:normal;letter-spacing:normal;word-spacing:normal;text-anchor:start;fill:none;fill-opacity:1;fill-rule:evenodd;stroke:#000000;stroke-linecap:butt;stroke-linejoin:miter;stroke-miterlimit:10.43299961;stroke-dasharray:none;stroke-dashoffset:0;stroke-opacity:1"><path
         style="fill:#000000;stroke-width:0"
         inkscape:connector-curvature="0"
         d="m 227.91,711.12 v 0.01 l 0.01,0.01 0.01,0.01 v 0 l 0.01,0.01 v 0.01 l 0.01,0.01 v 0.01 h 0.01 v 0.01 l 0.01,0.01 v 0 l 0.01,0.01 v 0 0.01 h 0.01 v 0.01 0.01 0 0.01 H 228 v 0.01 0 0.01 0.01 0 0.01 0.01 0 0.01 0.01 l 0.01,0.01 c 0,0.21 -0.14,0.21 -0.32,0.21 h -3.66 l -0.12,-1.75 h 0.47 c 0.06,1.03 0.37,1.39 1.39,1.39 h 0.85 l -2.78,-3.63 c -0.09,-0.11 -0.09,-0.13 -0.09,-0.22 0,-0.22 0.13,-0.22 0.32,-0.22 h 3.79 l 0.18,2.02 h -0.47 c -0.09,-1.01 -0.25,-1.62 -1.57,-1.62 h -0.85 z"
         id="path6841" /><path
         style="fill:#000000;stroke-width:0"
         inkscape:connector-curvature="0"
         d="m 230.43,707.96 h 0.05 l 0.05,-0.01 h 0.05 l 0.05,-0.01 0.04,-0.01 0.05,-0.01 0.04,-0.01 0.04,-0.02 0.05,-0.02 0.04,-0.02 0.04,-0.02 0.03,-0.03 0.04,-0.03 0.03,-0.03 0.04,-0.03 0.03,-0.03 0.03,-0.04 0.03,-0.04 0.03,-0.04 0.02,-0.04 0.02,-0.05 0.03,-0.04 0.02,-0.05 0.01,-0.05 0.02,-0.06 0.01,-0.05 0.02,-0.06 0.01,-0.06 v -0.06 l 0.01,-0.07 v -0.07 -0.06 c 0,-0.87 -0.5,-1.13 -0.9,-1.13 -0.28,0 -0.9,0.08 -1.19,0.49 0.33,0.02 0.41,0.25 0.41,0.39 0,0.23 -0.17,0.39 -0.39,0.39 -0.19,0 -0.39,-0.12 -0.39,-0.41 0,-0.65 0.73,-1.08 1.57,-1.08 0.97,0 1.64,0.65 1.64,1.35 0,0.54 -0.45,1.08 -1.21,1.25 0.73,0.26 0.99,0.78 0.99,1.21 0,0.55 -0.63,0.96 -1.4,0.96 -0.78,0 -1.37,-0.38 -1.37,-0.93 0,-0.24 0.15,-0.37 0.36,-0.37 0.22,0 0.36,0.16 0.36,0.35 0,0.2 -0.14,0.35 -0.36,0.36 0.25,0.31 0.73,0.39 0.98,0.39 0.32,0 0.76,-0.15 0.76,-0.76 0,-0.29 -0.1,-0.62 -0.28,-0.83 -0.23,-0.27 -0.43,-0.28 -0.78,-0.3 -0.17,-0.01 -0.18,-0.01 -0.22,-0.02 -0.01,0 -0.07,-0.02 -0.07,-0.09 0,-0.1 0.06,-0.1 0.18,-0.1 z"
         id="path6843" /></g>    <g
       style="font-style:normal;font-variant:normal;font-weight:normal;font-stretch:normal;letter-spacing:normal;word-spacing:normal;text-anchor:start;display:inline;fill:none;fill-opacity:1;fill-rule:evenodd;stroke:#000000;stroke-linecap:butt;stroke-linejoin:miter;stroke-miterlimit:10.43299961;stroke-dasharray:none;stroke-dashoffset:0;stroke-opacity:1"
       ns0:preamble="/home/taihu/Documents/tesis/inkscape_preamble.tex"
       ns0:text="$\\prediction_{3}$"
       word-spacing="normal"
       letter-spacing="normal"
       font-size-adjust="none"
       font-stretch="normal"
       font-weight="normal"
       font-variant="normal"
       font-style="normal"
       stroke-miterlimit="10.433"
       xml:space="preserve"
       transform="matrix(0.79985644,0,0,-0.79985644,126.21503,1021.94)"
       id="g6978"><polygon
         id="polygon6972"
         points="225.98,713.66 227.12,712.65 227.3,712.82 225.98,714.18 224.64,712.82 224.82,712.65 "
         style="fill:#000000;stroke-width:0" /><path
         id="path6974"
         d="m 227.91,711.12 v 0.01 l 0.01,0.01 0.01,0.01 v 0 l 0.01,0.01 v 0.01 l 0.01,0.01 v 0.01 h 0.01 v 0.01 l 0.01,0.01 v 0 l 0.01,0.01 v 0 0.01 h 0.01 v 0.01 0.01 0 0.01 H 228 v 0.01 0 0.01 0.01 0 0.01 0.01 0 0.01 0.01 l 0.01,0.01 c 0,0.21 -0.14,0.21 -0.32,0.21 h -3.66 l -0.12,-1.75 h 0.47 c 0.06,1.03 0.37,1.39 1.39,1.39 h 0.85 l -2.78,-3.63 c -0.09,-0.11 -0.09,-0.13 -0.09,-0.22 0,-0.22 0.13,-0.22 0.32,-0.22 h 3.79 l 0.18,2.02 h -0.47 c -0.09,-1.01 -0.25,-1.62 -1.57,-1.62 h -0.85 z"
         inkscape:connector-curvature="0"
         style="fill:#000000;stroke-width:0" /><path
         id="path6976"
         d="m 230.43,707.96 h 0.05 l 0.05,-0.01 h 0.05 l 0.05,-0.01 0.04,-0.01 0.05,-0.01 0.04,-0.01 0.04,-0.02 0.05,-0.02 0.04,-0.02 0.04,-0.02 0.03,-0.03 0.04,-0.03 0.03,-0.03 0.04,-0.03 0.03,-0.03 0.03,-0.04 0.03,-0.04 0.03,-0.04 0.02,-0.04 0.02,-0.05 0.03,-0.04 0.02,-0.05 0.01,-0.05 0.02,-0.06 0.01,-0.05 0.02,-0.06 0.01,-0.06 v -0.06 l 0.01,-0.07 v -0.07 -0.06 c 0,-0.87 -0.5,-1.13 -0.9,-1.13 -0.28,0 -0.9,0.08 -1.19,0.49 0.33,0.02 0.41,0.25 0.41,0.39 0,0.23 -0.17,0.39 -0.39,0.39 -0.19,0 -0.39,-0.12 -0.39,-0.41 0,-0.65 0.73,-1.08 1.57,-1.08 0.97,0 1.64,0.65 1.64,1.35 0,0.54 -0.45,1.08 -1.21,1.25 0.73,0.26 0.99,0.78 0.99,1.21 0,0.55 -0.63,0.96 -1.4,0.96 -0.78,0 -1.37,-0.38 -1.37,-0.93 0,-0.24 0.15,-0.37 0.36,-0.37 0.22,0 0.36,0.16 0.36,0.35 0,0.2 -0.14,0.35 -0.36,0.36 0.25,0.31 0.73,0.39 0.98,0.39 0.32,0 0.76,-0.15 0.76,-0.76 0,-0.29 -0.1,-0.62 -0.28,-0.83 -0.23,-0.27 -0.43,-0.28 -0.78,-0.3 -0.17,-0.01 -0.18,-0.01 -0.22,-0.02 -0.01,0 -0.07,-0.02 -0.07,-0.09 0,-0.1 0.06,-0.1 0.18,-0.1 z"
         inkscape:connector-curvature="0"
         style="fill:#000000;stroke-width:0" /></g>    <circle
       transform="translate(149.40029,338.53643)"
       r="2.7846546"
       cy="28.845961"
       cx="143.69087"
       id="path3895-97-28-6"
       style="display:inline;fill:#000000;fill-opacity:1;stroke-width:0.27846548;stroke-miterlimit:4;stroke-dasharray:none" />
    <path
       transform="translate(149.40029,338.53643)"
       style="display:inline;fill:none;fill-opacity:1;stroke:#00ff00;stroke-width:1.0377022px;stroke-linecap:butt;stroke-linejoin:miter;stroke-opacity:1"
       d="m 147.81203,82.25958 -9.13847,3.05055"
       id="path4443-4-5-2"
       inkscape:connector-curvature="0" />
    <circle
       transform="translate(149.40029,338.53643)"
       r="2.2270546"
       cy="85.779877"
       cx="137.93272"
       id="path3895-7-5-5-2-2"
       style="display:inline;fill:#ff0000;fill-opacity:1;stroke-width:1.06666672;stroke-miterlimit:4;stroke-dasharray:none" />
    <g
       id="g5960"
       transform="matrix(1,0,0,-1,65.695736,1069.5407)"
       xml:space="preserve"
       stroke-miterlimit="10.433"
       font-style="normal"
       font-variant="normal"
       font-weight="normal"
       font-stretch="normal"
       font-size-adjust="none"
       letter-spacing="normal"
       word-spacing="normal"
       ns0:text="$\\worldPoint_{2}$"
       ns0:preamble="/home/taihu/Documents/tesis/inkscape_preamble.tex"
       style="font-style:normal;font-variant:normal;font-weight:normal;font-stretch:normal;letter-spacing:normal;word-spacing:normal;text-anchor:start;display:inline;fill:none;fill-opacity:1;fill-rule:evenodd;stroke:#000000;stroke-linecap:butt;stroke-linejoin:miter;stroke-miterlimit:10.43299961;stroke-dasharray:none;stroke-dashoffset:0;stroke-opacity:1"><path
         style="fill:#000000;stroke-width:0"
         inkscape:connector-curvature="0"
         d="m 226.88,709.57 1.16,1.3 c 0.14,0.14 0.19,0.21 1.02,0.21 v 0.47 c -0.35,-0.02 -0.86,-0.03 -0.91,-0.03 -0.25,0 -0.75,0.02 -1.03,0.03 v -0.47 c 0.14,0 0.26,-0.02 0.38,-0.09 -0.04,-0.06 -0.04,-0.08 -0.08,-0.12 l -0.84,-0.94 -0.98,1.15 h 0.4 v 0.47 c -0.26,-0.01 -0.88,-0.03 -1.2,-0.03 -0.32,0 -0.77,0.02 -1.1,0.03 v -0.47 h 0.71 l 1.55,-1.84 -1.3,-1.46 c -0.17,-0.19 -0.53,-0.19 -1.01,-0.19 v -0.47 c 0.35,0.02 0.87,0.03 0.92,0.03 0.25,0 0.83,-0.02 1.02,-0.03 v 0.47 c -0.18,0 -0.36,0.05 -0.36,0.11 0,0.01 0,0.02 0.07,0.1 l 0.96,1.09 1.1,-1.3 h -0.39 v -0.47 c 0.26,0.01 0.87,0.03 1.19,0.03 0.32,0 0.77,-0.02 1.1,-0.03 v 0.47 h -0.71 z"
         id="path5954" /><path
         style="fill:#000000;stroke-width:0"
         inkscape:connector-curvature="0"
         d="m 234.36,713.07 0.01,0.03 0.02,0.03 0.01,0.03 0.02,0.02 0.01,0.03 0.02,0.02 0.01,0.03 0.02,0.02 0.02,0.02 0.01,0.02 0.02,0.02 0.02,0.01 0.02,0.02 0.02,0.01 0.01,0.02 0.02,0.01 0.02,0.01 0.02,0.01 0.02,0.01 0.02,0.01 h 0.02 l 0.02,0.01 0.02,0.01 h 0.02 l 0.02,0.01 h 0.02 0.02 l 0.02,0.01 h 0.04 0.05 v 0.25 c -0.19,-0.02 -0.3,-0.02 -0.51,-0.02 -0.21,0 -0.47,0 -0.68,0.02 v -0.25 c 0.24,-0.01 0.36,-0.14 0.36,-0.31 0,-0.05 0,-0.06 -0.04,-0.16 l -0.68,-1.74 -0.75,1.9 c -0.01,0.04 -0.03,0.1 -0.03,0.14 0,0.15 0.18,0.17 0.37,0.17 v 0.25 c -0.25,-0.02 -0.5,-0.02 -0.75,-0.02 -0.2,0 -0.41,0.01 -0.62,0.02 v -0.25 c 0.17,0 0.31,0 0.4,-0.05 0.1,-0.07 0.16,-0.3 0.16,-0.31 0,-0.01 -0.01,-0.06 -0.03,-0.08 l -0.65,-1.66 -0.7,1.79 c -0.05,0.1 -0.05,0.11 -0.05,0.14 0,0.17 0.26,0.17 0.38,0.17 v 0.25 c -0.01,0 -0.51,-0.02 -0.79,-0.02 -0.21,0 -0.44,0 -0.65,0.02 v -0.25 c 0.27,0 0.42,0 0.5,-0.2 l 0.97,-2.46 c 0.04,-0.11 0.06,-0.16 0.19,-0.16 0.12,0 0.14,0.05 0.18,0.14 l 0.79,2 0.77,-1.97 c 0.04,-0.11 0.07,-0.17 0.2,-0.17 0.12,0 0.14,0.05 0.18,0.16 z"
         id="path5956" /><path
         style="fill:#000000;stroke-width:0"
         inkscape:connector-curvature="0"
         d="m 233,705.92 h -0.24 c -0.02,-0.15 -0.09,-0.56 -0.18,-0.63 -0.06,-0.04 -0.59,-0.04 -0.69,-0.04 h -1.28 c 0.73,0.65 0.97,0.84 1.39,1.17 0.52,0.41 1,0.84 1,1.51 0,0.84 -0.74,1.36 -1.63,1.36 -0.87,0 -1.45,-0.61 -1.45,-1.25 0,-0.36 0.3,-0.39 0.37,-0.39 0.16,0 0.37,0.12 0.37,0.37 0,0.12 -0.05,0.37 -0.42,0.37 0.22,0.49 0.69,0.64 1.02,0.64 0.7,0 1.06,-0.54 1.06,-1.1 0,-0.61 -0.43,-1.09 -0.65,-1.34 l -1.68,-1.66 c -0.07,-0.07 -0.07,-0.08 -0.07,-0.27 h 2.87 z"
         id="path5958" /></g>    <g
       id="g6258"
       transform="matrix(0.79985644,0,0,-0.79985644,121.25103,990.91847)"
       xml:space="preserve"
       stroke-miterlimit="10.433"
       font-style="normal"
       font-variant="normal"
       font-weight="normal"
       font-stretch="normal"
       font-size-adjust="none"
       letter-spacing="normal"
       word-spacing="normal"
       ns0:text="$\\prediction_{2}$"
       ns0:preamble="/home/taihu/Documents/tesis/inkscape_preamble.tex"
       style="font-style:normal;font-variant:normal;font-weight:normal;font-stretch:normal;letter-spacing:normal;word-spacing:normal;text-anchor:start;display:inline;fill:none;fill-opacity:1;fill-rule:evenodd;stroke:#000000;stroke-linecap:butt;stroke-linejoin:miter;stroke-miterlimit:10.43299961;stroke-dasharray:none;stroke-dashoffset:0;stroke-opacity:1"><polygon
         points="227.3,712.82 225.98,714.18 224.64,712.82 224.82,712.65 225.98,713.66 227.12,712.65 "
         id="polygon6252"
         style="fill:#000000;stroke-width:0" /><path
         d="m 227.91,711.12 v 0.01 l 0.01,0.01 0.01,0.01 v 0 l 0.01,0.01 v 0.01 l 0.01,0.01 v 0.01 h 0.01 v 0.01 l 0.01,0.01 v 0 l 0.01,0.01 v 0 0.01 h 0.01 v 0.01 0.01 0 0.01 H 228 v 0.01 0 0.01 0.01 0 0.01 0.01 0 0.01 0.01 l 0.01,0.01 c 0,0.21 -0.14,0.21 -0.32,0.21 h -3.66 l -0.12,-1.75 h 0.47 c 0.06,1.03 0.37,1.39 1.39,1.39 h 0.85 l -2.78,-3.63 c -0.09,-0.11 -0.09,-0.13 -0.09,-0.22 0,-0.22 0.13,-0.22 0.32,-0.22 h 3.79 l 0.18,2.02 h -0.47 c -0.09,-1.01 -0.25,-1.62 -1.57,-1.62 h -0.85 z"
         id="path6254"
         inkscape:connector-curvature="0"
         style="fill:#000000;stroke-width:0" /><path
         d="m 232.05,706.9 h -0.24 c -0.02,-0.15 -0.09,-0.57 -0.18,-0.63 -0.06,-0.05 -0.59,-0.05 -0.69,-0.05 h -1.29 c 0.74,0.65 0.98,0.85 1.4,1.17 0.52,0.42 1,0.85 1,1.51 0,0.84 -0.74,1.36 -1.64,1.36 -0.86,0 -1.45,-0.61 -1.45,-1.25 0,-0.35 0.3,-0.39 0.37,-0.39 0.17,0 0.37,0.12 0.37,0.37 0,0.13 -0.05,0.37 -0.41,0.37 0.22,0.5 0.69,0.65 1.02,0.65 0.7,0 1.06,-0.54 1.06,-1.11 0,-0.61 -0.43,-1.09 -0.66,-1.34 l -1.68,-1.66 c -0.07,-0.06 -0.07,-0.07 -0.07,-0.27 h 2.88 z"
         id="path6256"
         inkscape:connector-curvature="0"
         style="fill:#000000;stroke-width:0" /></g>    <g
       style="font-style:normal;font-variant:normal;font-weight:normal;font-stretch:normal;letter-spacing:normal;word-spacing:normal;text-anchor:start;display:inline;fill:none;fill-opacity:1;fill-rule:evenodd;stroke:#000000;stroke-linecap:butt;stroke-linejoin:miter;stroke-miterlimit:10.43299961;stroke-dasharray:none;stroke-dashoffset:0;stroke-opacity:1"
       ns0:preamble="/home/taihu/Documents/tesis/inkscape_preamble.tex"
       ns0:text="$\\measurement_{2}$"
       word-spacing="normal"
       letter-spacing="normal"
       font-size-adjust="none"
       font-stretch="normal"
       font-weight="normal"
       font-variant="normal"
       font-style="normal"
       stroke-miterlimit="10.433"
       xml:space="preserve"
       transform="matrix(0.79985644,0,0,-0.79985644,104.8898,996.57511)"
       id="g6398"><path
         id="path6394"
         d="m 227.91,711.12 v 0.01 l 0.01,0.01 0.01,0.01 v 0 l 0.01,0.01 v 0.01 l 0.01,0.01 v 0.01 h 0.01 v 0.01 l 0.01,0.01 v 0 l 0.01,0.01 v 0 0.01 h 0.01 v 0.01 0.01 0 0.01 H 228 v 0.01 0 0.01 0.01 0 0.01 0.01 0 0.01 0.01 l 0.01,0.01 c 0,0.21 -0.14,0.21 -0.32,0.21 h -3.66 l -0.12,-1.75 h 0.47 c 0.06,1.03 0.37,1.39 1.39,1.39 h 0.85 l -2.78,-3.63 c -0.09,-0.11 -0.09,-0.13 -0.09,-0.22 0,-0.22 0.13,-0.22 0.32,-0.22 h 3.79 l 0.18,2.02 h -0.47 c -0.09,-1.01 -0.25,-1.62 -1.57,-1.62 h -0.85 z"
         inkscape:connector-curvature="0"
         style="fill:#000000;stroke-width:0" /><path
         id="path6396"
         d="m 232.05,706.9 h -0.24 c -0.02,-0.15 -0.09,-0.57 -0.18,-0.63 -0.06,-0.05 -0.59,-0.05 -0.69,-0.05 h -1.29 c 0.74,0.65 0.98,0.85 1.4,1.17 0.52,0.42 1,0.85 1,1.51 0,0.84 -0.74,1.36 -1.64,1.36 -0.86,0 -1.45,-0.61 -1.45,-1.25 0,-0.35 0.3,-0.39 0.37,-0.39 0.17,0 0.37,0.12 0.37,0.37 0,0.13 -0.05,0.37 -0.41,0.37 0.22,0.5 0.69,0.65 1.02,0.65 0.7,0 1.06,-0.54 1.06,-1.11 0,-0.61 -0.43,-1.09 -0.66,-1.34 l -1.68,-1.66 c -0.07,-0.06 -0.07,-0.07 -0.07,-0.27 h 2.88 z"
         inkscape:connector-curvature="0"
         style="fill:#000000;stroke-width:0" /></g>    <path
       sodipodi:nodetypes="cc"
       style="display:inline;fill:none;stroke:#000000;stroke-width:1.06666672;stroke-linecap:butt;stroke-linejoin:miter;stroke-miterlimit:4;stroke-dasharray:2.13333333, 1.06666667;stroke-dashoffset:0;stroke-opacity:1"
       d="m 293.00828,367.26718 4.20404,53.52883"
       id="path4439-9-1-3"
       inkscape:connector-curvature="0" />
    <circle
       transform="translate(149.40029,338.53643)"
       r="2.2270546"
       cy="82.23587"
       cx="147.88383"
       id="path3895-7-2-6-0"
       style="display:inline;fill:#ffff00;fill-opacity:1;stroke-width:1.06666672;stroke-miterlimit:4;stroke-dasharray:none" />
  </g>
  <g
     id="g3101"
     transform="matrix(1.7710705,0,0,-1.7710705,-538.80885,1496.448)"
     xml:space="preserve"
     stroke-miterlimit="10.433"
     font-style="normal"
     font-variant="normal"
     font-weight="normal"
     font-stretch="normal"
     font-size-adjust="none"
     letter-spacing="normal"
     word-spacing="normal"
     ns0:text="$\\vec{E}^{\\mathrm{L}\\mathrm{W}}_{prev}$"
     ns0:preamble=""
     style="font-style:normal;font-variant:normal;font-weight:normal;font-stretch:normal;letter-spacing:normal;word-spacing:normal;text-anchor:start;fill:none;stroke:#000000;stroke-linecap:butt;stroke-linejoin:miter;stroke-miterlimit:10.43299961;stroke-dasharray:none;stroke-dashoffset:0;stroke-opacity:1" />  <g
     inkscape:groupmode="layer"
     id="layer3"
     inkscape:label="image_planes_new"
     style="display:none"
     transform="translate(-116.56743,-1.3811994)"
     sodipodi:insensitive="true">
    <rect
       style="display:inline;fill:none;stroke:#9b9b9b;stroke-width:1.02349246;stroke-linecap:round;stroke-miterlimit:4;stroke-dasharray:none;stroke-dashoffset:0;stroke-opacity:1"
       id="rect7064"
       width="88.535629"
       height="50.999905"
       x="133.45374"
       y="72.132576" />
    <path
       inkscape:connector-curvature="0"
       id="path7066"
       d="M 177.78647,150.60029 221.98936,72.132577"
       style="display:inline;fill:none;stroke:#000000;stroke-width:1.06666672;stroke-linecap:butt;stroke-linejoin:miter;stroke-miterlimit:4;stroke-dasharray:2.13333333, 1.06666667;stroke-dashoffset:0;stroke-opacity:0.39215686"
       sodipodi:nodetypes="cc" />
    <path
       inkscape:connector-curvature="0"
       id="path7068"
       d="M 177.78647,150.6003 133.45373,72.132577"
       style="display:inline;fill:none;stroke:#000000;stroke-width:1.06666672;stroke-linecap:butt;stroke-linejoin:miter;stroke-miterlimit:4;stroke-dasharray:2.13333333, 1.06666667;stroke-dashoffset:0;stroke-opacity:0.39215686"
       sodipodi:nodetypes="cc" />
    <path
       inkscape:connector-curvature="0"
       id="path7070"
       d="m 177.78647,150.6003 44.20289,-27.46782"
       style="display:inline;fill:none;stroke:#000000;stroke-width:1.06666672;stroke-linecap:butt;stroke-linejoin:miter;stroke-miterlimit:4;stroke-dasharray:2.13333333, 1.06666667;stroke-dashoffset:0;stroke-opacity:0.39215686"
       sodipodi:nodetypes="cc" />
    <path
       inkscape:connector-curvature="0"
       id="path7072"
       d="M 177.78647,150.6003 133.45373,123.13248"
       style="display:inline;fill:none;stroke:#000000;stroke-width:1.06666672;stroke-linecap:butt;stroke-linejoin:miter;stroke-miterlimit:4;stroke-dasharray:2.13333333, 1.06666667;stroke-dashoffset:0;stroke-opacity:0.39215686"
       sodipodi:nodetypes="cc" />
    <circle
       style="display:inline;fill:#000000;fill-opacity:1;stroke-width:1.06666672;stroke-miterlimit:4;stroke-dasharray:none"
       id="circle7074"
       cx="177.57585"
       cy="150.91206"
       r="2.2270546" />
    <g
       id="g7080"
       transform="matrix(0.70313341,0,0,-0.70313341,17.718763,657.10278)"
       xml:space="preserve"
       stroke-miterlimit="10.433"
       font-style="normal"
       font-variant="normal"
       font-weight="normal"
       font-stretch="normal"
       font-size-adjust="none"
       letter-spacing="normal"
       word-spacing="normal"
       ns0:text="$\\seMatrix_{\\curr}$"
       ns0:preamble="/home/taihu/Documents/tesis/inkscape_preamble.tex"
       style="font-style:normal;font-variant:normal;font-weight:normal;font-stretch:normal;letter-spacing:normal;word-spacing:normal;text-anchor:start;display:inline;fill:none;fill-opacity:1;fill-rule:evenodd;stroke:#000000;stroke-linecap:butt;stroke-linejoin:miter;stroke-miterlimit:10.43299961;stroke-dasharray:none;stroke-dashoffset:0;stroke-opacity:1"><path
         style="fill:#000000;stroke-width:0"
         inkscape:connector-curvature="0"
         d="m 230.63,709.85 h -0.46 c -0.22,-1.37 -0.5,-2.26 -2.34,-2.26 h -1.52 v 2.81 h 0.55 c 0.96,0 1.06,-0.43 1.06,-1.17 h 0.46 v 2.8 h -0.46 c 0,-0.73 -0.09,-1.16 -1.06,-1.16 h -0.55 v 2.56 h 1.52 c 1.6,0 1.86,-0.73 2.02,-1.93 h 0.47 l -0.31,2.4 h -6.19 v -0.47 h 1.08 v -5.84 h -1.08 v -0.47 h 6.36 z"
         id="path7076" /><path
         style="fill:#000000;stroke-width:0"
         inkscape:connector-curvature="0"
         d="m 234.02,708.3 h -0.03 l -0.02,-0.01 h -0.02 l -0.02,-0.01 -0.02,-0.01 -0.02,-0.01 -0.02,-0.01 -0.01,-0.01 -0.02,-0.01 -0.02,-0.01 -0.01,-0.01 -0.02,-0.01 -0.01,-0.01 -0.01,-0.02 -0.01,-0.01 -0.02,-0.01 -0.01,-0.02 -0.01,-0.01 v -0.02 l -0.01,-0.01 -0.01,-0.01 -0.01,-0.02 v -0.01 l -0.01,-0.02 v -0.02 L 233.67,708 v -0.02 -0.01 l -0.01,-0.02 v -0.01 -0.02 -0.01 c 0,-0.19 0.15,-0.26 0.27,-0.26 0.16,0 0.4,0.11 0.4,0.45 0,0.47 -0.54,0.61 -0.92,0.61 -1.05,0 -2.01,-0.97 -2.01,-1.94 0,-0.6 0.41,-1.21 1.28,-1.21 1.18,0 1.73,0.69 1.73,0.79 0,0.04 -0.06,0.12 -0.11,0.12 -0.05,0 -0.06,-0.02 -0.12,-0.07 -0.54,-0.64 -1.36,-0.64 -1.48,-0.64 -0.5,0 -0.73,0.34 -0.73,0.77 0,0.2 0.1,0.96 0.46,1.44 0.27,0.35 0.63,0.54 0.98,0.54 0.1,0 0.43,-0.01 0.61,-0.21 z"
         id="path7078" /></g>  </g>
  <g
     inkscape:groupmode="layer"
     id="layer4"
     inkscape:label="measurements_new"
     style="display:none"
     transform="translate(-116.56743,-1.3811994)"
     sodipodi:insensitive="true">
    <path
       transform="translate(-115.46104,-341.1402)"
       inkscape:connector-curvature="0"
       id="path7091"
       d="m 268.96166,440.32123 -3.85724,1.54994"
       style="display:inline;fill:none;fill-opacity:1;stroke:#00ff00;stroke-width:1.0377022px;stroke-linecap:butt;stroke-linejoin:miter;stroke-opacity:1"
       sodipodi:nodetypes="cc" />
    <circle
       style="display:inline;fill:#ff0000;fill-opacity:1;stroke-width:1.06666672;stroke-miterlimit:4;stroke-dasharray:none"
       id="circle7093"
       cx="264.36356"
       cy="442.34094"
       r="2.2270546"
       transform="translate(-115.46104,-341.1402)" />
    <path
       transform="translate(-115.46104,-341.1402)"
       inkscape:connector-curvature="0"
       id="path7095"
       d="m 235.75188,353.85121 33.20978,86.47002"
       style="display:inline;fill:none;stroke:#000000;stroke-width:1.06666672;stroke-linecap:butt;stroke-linejoin:miter;stroke-miterlimit:4;stroke-dasharray:2.13333333, 1.06666667;stroke-dashoffset:0;stroke-opacity:1"
       sodipodi:nodetypes="cc" />
    <circle
       style="display:inline;fill:#ffff00;fill-opacity:1;stroke-width:1.06666672;stroke-miterlimit:4;stroke-dasharray:none"
       id="circle7097"
       cx="153.7271"
       cy="99.070946"
       r="2.2270546" />
    <circle
       transform="translate(-115.46104,-341.1402)"
       style="display:inline;fill:#000000;fill-opacity:1;stroke-width:0.27846548;stroke-miterlimit:4;stroke-dasharray:none"
       id="circle7099"
       cx="235.39273"
       cy="354.02612"
       r="2.7846546" />
    <g
       id="g7107"
       transform="matrix(1,0,0,-1,-121.99257,762.704)"
       xml:space="preserve"
       stroke-miterlimit="10.433"
       font-style="normal"
       font-variant="normal"
       font-weight="normal"
       font-stretch="normal"
       font-size-adjust="none"
       letter-spacing="normal"
       word-spacing="normal"
       ns0:text="$\\worldPoint_{1}$"
       ns0:preamble="/home/taihu/Documents/tesis/inkscape_preamble.tex"
       style="font-style:normal;font-variant:normal;font-weight:normal;font-stretch:normal;letter-spacing:normal;word-spacing:normal;text-anchor:start;display:inline;fill:none;stroke:#000000;stroke-linecap:butt;stroke-linejoin:miter;stroke-miterlimit:10.43299961;stroke-dasharray:none;stroke-dashoffset:0;stroke-opacity:1"><path
         d="m 241.99467,756.87467 1.248,1.376 c 0.13866,0.14933 0.20266,0.224 1.07733,0.224 v 0.50133 c -0.36267,-0.0213 -0.91733,-0.032 -0.97067,-0.032 -0.26666,0 -0.8,0.0213 -1.09866,0.032 v -0.50133 c 0.14933,0 0.27733,-0.0213 0.40533,-0.096 -0.0427,-0.064 -0.0427,-0.0853 -0.0853,-0.128 l -0.88534,-0.992 -1.04533,1.216 h 0.42667 v 0.50133 c -0.27734,-0.0107 -0.94934,-0.032 -1.29067,-0.032 -0.33067,0 -0.81067,0.0213 -1.16267,0.032 v -0.50133 h 0.75734 l 1.65333,-1.952 -1.38667,-1.55734 C 239.456,754.76267 239.072,754.76267 238.56,754.76267 v -0.50134 c 0.37333,0.032 0.928,0.0427 0.98133,0.0427 0.26667,0 0.87467,-0.0213 1.088,-0.0427 v 0.50134 c -0.192,0 -0.39466,0.0533 -0.39466,0.11733 0,0.0107 0,0.0213 0.0747,0.10667 l 1.03467,1.152 1.16267,-1.376 h -0.416 v -0.50134 c 0.27733,0.0213 0.928,0.0427 1.28,0.0427 0.34133,0 0.81066,-0.0213 1.16266,-0.0427 v 0.50134 h -0.74666 z"
         id="path7101"
         inkscape:connector-curvature="0"
         style="fill:#000000;stroke-width:0" /><path
         d="m 249.97333,760.59733 0.0213,0.032 0.0107,0.032 0.0213,0.032 0.0107,0.032 0.0213,0.032 0.0107,0.0213 0.0213,0.0213 0.0107,0.0213 0.0213,0.0213 0.0213,0.0213 0.0213,0.0213 0.0107,0.0213 0.0213,0.0107 0.0213,0.0213 0.0213,0.0107 0.0213,0.0107 0.0213,0.0107 0.0213,0.0107 0.0213,0.0107 0.0213,0.0107 0.0213,0.0107 0.0213,0.0107 h 0.0213 l 0.0213,0.0107 h 0.0213 0.0213 l 0.0213,0.0107 h 0.0213 0.0427 l 0.0427,0.0107 v 0.26667 c -0.20267,-0.0213 -0.32,-0.032 -0.53334,-0.032 -0.224,0 -0.512,0.0107 -0.72533,0.032 v -0.2668 c 0.256,-0.0107 0.384,-0.14933 0.384,-0.33067 0,-0.064 0,-0.0747 -0.0427,-0.18133 l -0.72533,-1.84533 -0.8,2.02666 c -0.0213,0.0427 -0.0427,0.096 -0.0427,0.13867 0,0.17067 0.192,0.192 0.40534,0.192 v 0.26667 c -0.26667,-0.0213 -0.53334,-0.032 -0.8,-0.032 -0.21334,0 -0.43734,0.0107 -0.66134,0.032 V 761.056 c 0.17067,0 0.33067,0 0.42667,-0.064 0.10667,-0.0747 0.17067,-0.32 0.17067,-0.33067 0,-0.0107 -0.0107,-0.0533 -0.032,-0.0853 l -0.69334,-1.76 -0.75733,1.90933 c -0.0427,0.10667 -0.0427,0.10667 -0.0427,0.13867 0,0.192 0.26667,0.192 0.40534,0.192 v 0.26667 c -0.0107,0 -0.544,-0.032 -0.84267,-0.032 -0.224,0 -0.46933,0.0107 -0.69333,0.032 v -0.2667 c 0.288,0 0.448,0 0.53333,-0.224 l 1.03467,-2.61333 c 0.0427,-0.10667 0.064,-0.17067 0.20266,-0.17067 0.128,0 0.14934,0.064 0.192,0.16 l 0.832,2.112 0.832,-2.09067 c 0.0427,-0.11733 0.0747,-0.18133 0.20267,-0.18133 0.13867,0 0.16,0.0533 0.20267,0.17067 z"
         id="path7103"
         inkscape:connector-curvature="0"
         style="fill:#000000;stroke-width:0" /><path
         d="m 247.264,756.352 v 0 0.0107 0.0107 0.0107 0.0107 0 0.0107 0.0107 0 0.0107 0.0107 0 0.0107 0 0.0107 0 0.0107 h -0.0107 v 0.0107 0.0107 0.0107 l -0.0107,0.0107 v 0 0.0107 h -0.0107 v 0.0107 h -0.0107 -0.0107 L 247.2,756.544 v 0 h -0.0107 -0.0107 -0.0107 v 0 l -0.0107,0.0107 v 0 h -0.0107 -0.0107 v 0 h -0.0107 -0.0107 v 0 h -0.0107 -0.0107 v 0 h -0.0107 -0.0107 -0.0107 -0.0107 -0.0107 c -0.46933,-0.46934 -1.152,-0.48 -1.45067,-0.48 v -0.2667 c 0.17067,0 0.672,0 1.07734,0.21333 v -3.78666 c 0,-0.24534 0,-0.34134 -0.74667,-0.34134 h -0.27733 v -0.26666 c 0.128,0.0107 1.04533,0.032 1.32266,0.032 0.224,0 1.16267,-0.0213 1.32267,-0.032 v 0.26666 h -0.27733 c -0.74667,0 -0.74667,0.096 -0.74667,0.34134 z"
         id="path7105"
         inkscape:connector-curvature="0"
         style="fill:#000000;stroke-width:0" /></g>    <circle
       transform="translate(-115.46104,-341.1402)"
       style="display:inline;fill:#000000;fill-opacity:1;stroke-width:0.27846548;stroke-miterlimit:4;stroke-dasharray:none"
       id="circle7109"
       cx="353.15048"
       cy="370.92542"
       r="2.7846546" />
    <circle
       style="display:inline;fill:#ff0000;fill-opacity:1;stroke-width:1.06666672;stroke-miterlimit:4;stroke-dasharray:none"
       id="circle7113"
       cx="292.06586"
       cy="455.24576"
       r="2.2270546"
       transform="translate(-115.46104,-341.1402)" />
    <path
       transform="translate(-115.46104,-341.1402)"
       inkscape:connector-curvature="0"
       id="path7115"
       d="m 353.48107,371.62972 -60.67436,83.14629"
       style="display:inline;fill:none;stroke:#000000;stroke-width:1.06666672;stroke-linecap:butt;stroke-linejoin:miter;stroke-miterlimit:4;stroke-dasharray:2.13333333, 1.06666667;stroke-dashoffset:0;stroke-opacity:1"
       sodipodi:nodetypes="cc" />
    <circle
       style="display:inline;fill:#ffff00;fill-opacity:1;stroke-width:1.06666672;stroke-miterlimit:4;stroke-dasharray:none"
       id="circle7117"
       cx="177.00998"
       cy="113.92031"
       r="2.2270546" />
    <g
       id="g7125"
       transform="matrix(1,0,0,-1,10.59503,731.7045)"
       xml:space="preserve"
       stroke-miterlimit="10.433"
       font-style="normal"
       font-variant="normal"
       font-weight="normal"
       font-stretch="normal"
       font-size-adjust="none"
       letter-spacing="normal"
       word-spacing="normal"
       ns0:text="$\\worldPoint_{3}$"
       ns0:preamble="/home/taihu/Documents/tesis/inkscape_preamble.tex"
       style="font-style:normal;font-variant:normal;font-weight:normal;font-stretch:normal;letter-spacing:normal;word-spacing:normal;text-anchor:start;display:inline;fill:none;fill-opacity:1;fill-rule:evenodd;stroke:#000000;stroke-linecap:butt;stroke-linejoin:miter;stroke-miterlimit:10.43299961;stroke-dasharray:none;stroke-dashoffset:0;stroke-opacity:1"><path
         style="fill:#000000;stroke-width:0"
         inkscape:connector-curvature="0"
         d="m 226.88,709.57 1.16,1.3 c 0.14,0.14 0.19,0.21 1.02,0.21 v 0.47 c -0.35,-0.02 -0.86,-0.03 -0.91,-0.03 -0.25,0 -0.75,0.02 -1.03,0.03 v -0.47 c 0.14,0 0.26,-0.02 0.38,-0.09 -0.04,-0.06 -0.04,-0.08 -0.08,-0.12 l -0.84,-0.94 -0.98,1.15 h 0.4 v 0.47 c -0.26,-0.01 -0.88,-0.03 -1.2,-0.03 -0.32,0 -0.77,0.02 -1.1,0.03 v -0.47 h 0.71 l 1.55,-1.84 -1.3,-1.46 c -0.17,-0.19 -0.53,-0.19 -1.01,-0.19 v -0.47 c 0.35,0.02 0.87,0.03 0.92,0.03 0.25,0 0.83,-0.02 1.02,-0.03 v 0.47 c -0.18,0 -0.36,0.05 -0.36,0.11 0,0.01 0,0.02 0.07,0.1 l 0.96,1.09 1.1,-1.3 h -0.39 v -0.47 c 0.26,0.01 0.87,0.03 1.19,0.03 0.32,0 0.77,-0.02 1.1,-0.03 v 0.47 h -0.71 z"
         id="path7119" /><path
         style="fill:#000000;stroke-width:0"
         inkscape:connector-curvature="0"
         d="m 234.36,713.07 0.01,0.03 0.02,0.03 0.01,0.03 0.02,0.02 0.01,0.03 0.02,0.02 0.01,0.03 0.02,0.02 0.02,0.02 0.01,0.02 0.02,0.02 0.02,0.01 0.02,0.02 0.02,0.01 0.01,0.02 0.02,0.01 0.02,0.01 0.02,0.01 0.02,0.01 0.02,0.01 h 0.02 l 0.02,0.01 0.02,0.01 h 0.02 l 0.02,0.01 h 0.02 0.02 l 0.02,0.01 h 0.04 0.05 v 0.25 c -0.19,-0.02 -0.3,-0.02 -0.51,-0.02 -0.21,0 -0.47,0 -0.68,0.02 v -0.25 c 0.24,-0.01 0.36,-0.14 0.36,-0.31 0,-0.05 0,-0.06 -0.04,-0.16 l -0.68,-1.74 -0.75,1.9 c -0.01,0.04 -0.03,0.1 -0.03,0.14 0,0.15 0.18,0.17 0.37,0.17 v 0.25 c -0.25,-0.02 -0.5,-0.02 -0.75,-0.02 -0.2,0 -0.41,0.01 -0.62,0.02 v -0.25 c 0.17,0 0.31,0 0.4,-0.05 0.1,-0.07 0.16,-0.3 0.16,-0.31 0,-0.01 -0.01,-0.06 -0.03,-0.08 l -0.65,-1.66 -0.7,1.79 c -0.05,0.1 -0.05,0.11 -0.05,0.14 0,0.17 0.26,0.17 0.38,0.17 v 0.25 c -0.01,0 -0.51,-0.02 -0.79,-0.02 -0.21,0 -0.44,0 -0.65,0.02 v -0.25 c 0.27,0 0.42,0 0.5,-0.2 l 0.97,-2.46 c 0.04,-0.11 0.06,-0.16 0.19,-0.16 0.12,0 0.14,0.05 0.18,0.14 l 0.79,2 0.77,-1.97 c 0.04,-0.11 0.07,-0.17 0.2,-0.17 0.12,0 0.14,0.05 0.18,0.16 z"
         id="path7121" /><path
         style="fill:#000000;stroke-width:0"
         inkscape:connector-curvature="0"
         d="m 231.38,706.98 h 0.05 0.05 l 0.05,-0.01 h 0.05 l 0.04,-0.01 0.05,-0.02 0.04,-0.01 0.05,-0.02 0.04,-0.02 0.04,-0.02 0.04,-0.02 0.04,-0.02 0.03,-0.03 0.04,-0.03 0.03,-0.03 0.03,-0.04 0.03,-0.03 0.03,-0.04 0.03,-0.04 0.02,-0.05 0.03,-0.04 0.02,-0.05 0.02,-0.05 0.02,-0.05 0.01,-0.05 0.02,-0.06 0.01,-0.06 0.01,-0.06 0.01,-0.06 V 706 705.93 l 0.01,-0.07 c 0,-0.86 -0.51,-1.12 -0.91,-1.12 -0.28,0 -0.89,0.08 -1.19,0.49 0.33,0.01 0.41,0.24 0.41,0.39 0,0.22 -0.17,0.38 -0.39,0.38 -0.19,0 -0.39,-0.12 -0.39,-0.4 0,-0.66 0.73,-1.08 1.57,-1.08 0.97,0 1.64,0.64 1.64,1.34 0,0.55 -0.44,1.09 -1.21,1.25 0.73,0.27 1,0.79 1,1.21 0,0.55 -0.64,0.97 -1.41,0.97 -0.78,0 -1.37,-0.38 -1.37,-0.94 0,-0.24 0.15,-0.37 0.36,-0.37 0.22,0 0.36,0.16 0.36,0.36 0,0.2 -0.14,0.35 -0.36,0.36 0.25,0.31 0.73,0.38 0.99,0.38 0.31,0 0.75,-0.15 0.75,-0.76 0,-0.29 -0.1,-0.61 -0.28,-0.83 -0.23,-0.26 -0.43,-0.28 -0.77,-0.3 -0.18,-0.01 -0.19,-0.01 -0.23,-0.02 -0.01,0 -0.07,-0.01 -0.07,-0.09 0,-0.1 0.07,-0.1 0.19,-0.1 z"
         id="path7123" /></g>    <g
       style="font-style:normal;font-variant:normal;font-weight:normal;font-stretch:normal;letter-spacing:normal;word-spacing:normal;text-anchor:start;display:inline;fill:none;fill-opacity:1;fill-rule:evenodd;stroke:#000000;stroke-linecap:butt;stroke-linejoin:miter;stroke-miterlimit:10.43299961;stroke-dasharray:none;stroke-dashoffset:0;stroke-opacity:1"
       ns0:preamble="/home/taihu/Documents/tesis/inkscape_preamble.tex"
       ns0:text="$\\prediction_{1}$"
       word-spacing="normal"
       letter-spacing="normal"
       font-size-adjust="none"
       font-stretch="normal"
       font-weight="normal"
       font-variant="normal"
       font-style="normal"
       stroke-miterlimit="10.433"
       xml:space="preserve"
       transform="matrix(0.79985644,0,0,-0.79985644,-21.865402,667.6888)"
       id="g7133"><polygon
         style="fill:#000000;stroke-width:0"
         id="polygon7127"
         points="224.82,712.65 225.98,713.66 227.12,712.65 227.3,712.82 225.98,714.18 224.64,712.82 " /><path
         style="fill:#000000;stroke-width:0"
         inkscape:connector-curvature="0"
         id="path7129"
         d="m 227.91,711.12 v 0.01 l 0.01,0.01 0.01,0.01 v 0 l 0.01,0.01 v 0.01 l 0.01,0.01 v 0.01 h 0.01 v 0.01 l 0.01,0.01 v 0 l 0.01,0.01 v 0 0.01 h 0.01 v 0.01 0.01 0 0.01 H 228 v 0.01 0 0.01 0.01 0 0.01 0.01 0 0.01 0.01 l 0.01,0.01 c 0,0.21 -0.14,0.21 -0.32,0.21 h -3.66 l -0.12,-1.75 h 0.47 c 0.06,1.03 0.37,1.39 1.39,1.39 h 0.85 l -2.78,-3.63 c -0.09,-0.11 -0.09,-0.13 -0.09,-0.22 0,-0.22 0.13,-0.22 0.32,-0.22 h 3.79 l 0.18,2.02 h -0.47 c -0.09,-1.01 -0.25,-1.62 -1.57,-1.62 h -0.85 z" /><path
         style="fill:#000000;stroke-width:0"
         inkscape:connector-curvature="0"
         id="path7131"
         d="m 230.86,710.07 v 0 0.01 0.01 0.01 0.01 0 0.01 0.01 0 0.01 0.01 0 0.01 0 0.01 0.01 h -0.01 v 0.01 0 0.01 0.01 l -0.01,0.01 v 0 l -0.01,0.01 v 0 l -0.01,0.01 v 0 l -0.01,0.01 h -0.01 v 0 h -0.01 l -0.01,0.01 h -0.01 v 0 h -0.01 v 0 h -0.01 -0.01 v 0 h -0.01 -0.01 v 0 h -0.01 -0.01 -0.01 v 0 h -0.01 -0.01 -0.01 -0.01 c -0.44,-0.44 -1.08,-0.45 -1.36,-0.45 v -0.25 c 0.16,0 0.62,0 1.01,0.2 v -3.56 c 0,-0.23 0,-0.32 -0.7,-0.32 h -0.27 v -0.25 c 0.13,0.01 0.99,0.03 1.24,0.03 0.22,0 1.1,-0.02 1.25,-0.03 v 0.25 h -0.26 c -0.7,0 -0.7,0.09 -0.7,0.32 z" /></g>    <g
       id="g7139"
       transform="matrix(0.79985644,0,0,-0.79985644,-30.168625,673.0155)"
       xml:space="preserve"
       stroke-miterlimit="10.433"
       font-style="normal"
       font-variant="normal"
       font-weight="normal"
       font-stretch="normal"
       font-size-adjust="none"
       letter-spacing="normal"
       word-spacing="normal"
       ns0:text="$\\measurement_{1}$"
       ns0:preamble="/home/taihu/Documents/tesis/inkscape_preamble.tex"
       style="font-style:normal;font-variant:normal;font-weight:normal;font-stretch:normal;letter-spacing:normal;word-spacing:normal;text-anchor:start;display:inline;fill:none;fill-opacity:1;fill-rule:evenodd;stroke:#000000;stroke-linecap:butt;stroke-linejoin:miter;stroke-miterlimit:10.43299961;stroke-dasharray:none;stroke-dashoffset:0;stroke-opacity:1"><path
         style="fill:#000000;stroke-width:0"
         inkscape:connector-curvature="0"
         d="m 227.91,711.12 v 0.01 l 0.01,0.01 0.01,0.01 v 0 l 0.01,0.01 v 0.01 l 0.01,0.01 v 0.01 h 0.01 v 0.01 l 0.01,0.01 v 0 l 0.01,0.01 v 0 0.01 h 0.01 v 0.01 0.01 0 0.01 H 228 v 0.01 0 0.01 0.01 0 0.01 0.01 0 0.01 0.01 l 0.01,0.01 c 0,0.21 -0.14,0.21 -0.32,0.21 h -3.66 l -0.12,-1.75 h 0.47 c 0.06,1.03 0.37,1.39 1.39,1.39 h 0.85 l -2.78,-3.63 c -0.09,-0.11 -0.09,-0.13 -0.09,-0.22 0,-0.22 0.13,-0.22 0.32,-0.22 h 3.79 l 0.18,2.02 h -0.47 c -0.09,-1.01 -0.25,-1.62 -1.57,-1.62 h -0.85 z"
         id="path7135" /><path
         style="fill:#000000;stroke-width:0"
         inkscape:connector-curvature="0"
         d="m 230.86,710.07 v 0 0.01 0.01 0.01 0.01 0 0.01 0.01 0 0.01 0.01 0 0.01 0 0.01 0.01 h -0.01 v 0.01 0 0.01 0.01 l -0.01,0.01 v 0 l -0.01,0.01 v 0 l -0.01,0.01 v 0 l -0.01,0.01 h -0.01 v 0 h -0.01 l -0.01,0.01 h -0.01 v 0 h -0.01 v 0 h -0.01 -0.01 v 0 h -0.01 -0.01 v 0 h -0.01 -0.01 -0.01 v 0 h -0.01 -0.01 -0.01 -0.01 c -0.44,-0.44 -1.08,-0.45 -1.36,-0.45 v -0.25 c 0.16,0 0.62,0 1.01,0.2 v -3.56 c 0,-0.23 0,-0.32 -0.7,-0.32 h -0.27 v -0.25 c 0.13,0.01 0.99,0.03 1.24,0.03 0.22,0 1.1,-0.02 1.25,-0.03 v 0.25 h -0.26 c -0.7,0 -0.7,0.09 -0.7,0.32 z"
         id="path7137" /></g>    <g
       style="font-style:normal;font-variant:normal;font-weight:normal;font-stretch:normal;letter-spacing:normal;word-spacing:normal;text-anchor:start;display:inline;fill:none;fill-opacity:1;fill-rule:evenodd;stroke:#000000;stroke-linecap:butt;stroke-linejoin:miter;stroke-miterlimit:10.43299961;stroke-dasharray:none;stroke-dashoffset:0;stroke-opacity:1"
       ns0:preamble="/home/taihu/Documents/tesis/inkscape_preamble.tex"
       ns0:text="$\\measurement_{3}$"
       word-spacing="normal"
       letter-spacing="normal"
       font-size-adjust="none"
       font-stretch="normal"
       font-weight="normal"
       font-variant="normal"
       font-style="normal"
       stroke-miterlimit="10.433"
       xml:space="preserve"
       transform="matrix(0.79985644,0,0,-0.79985644,-4.88389,686.1473)"
       id="g7145"><path
         id="path7141"
         d="m 227.91,711.12 v 0.01 l 0.01,0.01 0.01,0.01 v 0 l 0.01,0.01 v 0.01 l 0.01,0.01 v 0.01 h 0.01 v 0.01 l 0.01,0.01 v 0 l 0.01,0.01 v 0 0.01 h 0.01 v 0.01 0.01 0 0.01 H 228 v 0.01 0 0.01 0.01 0 0.01 0.01 0 0.01 0.01 l 0.01,0.01 c 0,0.21 -0.14,0.21 -0.32,0.21 h -3.66 l -0.12,-1.75 h 0.47 c 0.06,1.03 0.37,1.39 1.39,1.39 h 0.85 l -2.78,-3.63 c -0.09,-0.11 -0.09,-0.13 -0.09,-0.22 0,-0.22 0.13,-0.22 0.32,-0.22 h 3.79 l 0.18,2.02 h -0.47 c -0.09,-1.01 -0.25,-1.62 -1.57,-1.62 h -0.85 z"
         inkscape:connector-curvature="0"
         style="fill:#000000;stroke-width:0" /><path
         id="path7143"
         d="m 230.43,707.96 h 0.05 l 0.05,-0.01 h 0.05 l 0.05,-0.01 0.04,-0.01 0.05,-0.01 0.04,-0.01 0.04,-0.02 0.05,-0.02 0.04,-0.02 0.04,-0.02 0.03,-0.03 0.04,-0.03 0.03,-0.03 0.04,-0.03 0.03,-0.03 0.03,-0.04 0.03,-0.04 0.03,-0.04 0.02,-0.04 0.02,-0.05 0.03,-0.04 0.02,-0.05 0.01,-0.05 0.02,-0.06 0.01,-0.05 0.02,-0.06 0.01,-0.06 v -0.06 l 0.01,-0.07 v -0.07 -0.06 c 0,-0.87 -0.5,-1.13 -0.9,-1.13 -0.28,0 -0.9,0.08 -1.19,0.49 0.33,0.02 0.41,0.25 0.41,0.39 0,0.23 -0.17,0.39 -0.39,0.39 -0.19,0 -0.39,-0.12 -0.39,-0.41 0,-0.65 0.73,-1.08 1.57,-1.08 0.97,0 1.64,0.65 1.64,1.35 0,0.54 -0.45,1.08 -1.21,1.25 0.73,0.26 0.99,0.78 0.99,1.21 0,0.55 -0.63,0.96 -1.4,0.96 -0.78,0 -1.37,-0.38 -1.37,-0.93 0,-0.24 0.15,-0.37 0.36,-0.37 0.22,0 0.36,0.16 0.36,0.35 0,0.2 -0.14,0.35 -0.36,0.36 0.25,0.31 0.73,0.39 0.98,0.39 0.32,0 0.76,-0.15 0.76,-0.76 0,-0.29 -0.1,-0.62 -0.28,-0.83 -0.23,-0.27 -0.43,-0.28 -0.78,-0.3 -0.17,-0.01 -0.18,-0.01 -0.22,-0.02 -0.01,0 -0.07,-0.02 -0.07,-0.09 0,-0.1 0.06,-0.1 0.18,-0.1 z"
         inkscape:connector-curvature="0"
         style="fill:#000000;stroke-width:0" /></g>    <g
       id="g7153"
       transform="matrix(0.79985644,0,0,-0.79985644,0.78279649,681.88191)"
       xml:space="preserve"
       stroke-miterlimit="10.433"
       font-style="normal"
       font-variant="normal"
       font-weight="normal"
       font-stretch="normal"
       font-size-adjust="none"
       letter-spacing="normal"
       word-spacing="normal"
       ns0:text="$\\prediction_{3}$"
       ns0:preamble="/home/taihu/Documents/tesis/inkscape_preamble.tex"
       style="font-style:normal;font-variant:normal;font-weight:normal;font-stretch:normal;letter-spacing:normal;word-spacing:normal;text-anchor:start;display:inline;fill:none;fill-opacity:1;fill-rule:evenodd;stroke:#000000;stroke-linecap:butt;stroke-linejoin:miter;stroke-miterlimit:10.43299961;stroke-dasharray:none;stroke-dashoffset:0;stroke-opacity:1"><polygon
         style="fill:#000000;stroke-width:0"
         points="227.12,712.65 227.3,712.82 225.98,714.18 224.64,712.82 224.82,712.65 225.98,713.66 "
         id="polygon7147" /><path
         style="fill:#000000;stroke-width:0"
         inkscape:connector-curvature="0"
         d="m 227.91,711.12 v 0.01 l 0.01,0.01 0.01,0.01 v 0 l 0.01,0.01 v 0.01 l 0.01,0.01 v 0.01 h 0.01 v 0.01 l 0.01,0.01 v 0 l 0.01,0.01 v 0 0.01 h 0.01 v 0.01 0.01 0 0.01 H 228 v 0.01 0 0.01 0.01 0 0.01 0.01 0 0.01 0.01 l 0.01,0.01 c 0,0.21 -0.14,0.21 -0.32,0.21 h -3.66 l -0.12,-1.75 h 0.47 c 0.06,1.03 0.37,1.39 1.39,1.39 h 0.85 l -2.78,-3.63 c -0.09,-0.11 -0.09,-0.13 -0.09,-0.22 0,-0.22 0.13,-0.22 0.32,-0.22 h 3.79 l 0.18,2.02 h -0.47 c -0.09,-1.01 -0.25,-1.62 -1.57,-1.62 h -0.85 z"
         id="path7149" /><path
         style="fill:#000000;stroke-width:0"
         inkscape:connector-curvature="0"
         d="m 230.43,707.96 h 0.05 l 0.05,-0.01 h 0.05 l 0.05,-0.01 0.04,-0.01 0.05,-0.01 0.04,-0.01 0.04,-0.02 0.05,-0.02 0.04,-0.02 0.04,-0.02 0.03,-0.03 0.04,-0.03 0.03,-0.03 0.04,-0.03 0.03,-0.03 0.03,-0.04 0.03,-0.04 0.03,-0.04 0.02,-0.04 0.02,-0.05 0.03,-0.04 0.02,-0.05 0.01,-0.05 0.02,-0.06 0.01,-0.05 0.02,-0.06 0.01,-0.06 v -0.06 l 0.01,-0.07 v -0.07 -0.06 c 0,-0.87 -0.5,-1.13 -0.9,-1.13 -0.28,0 -0.9,0.08 -1.19,0.49 0.33,0.02 0.41,0.25 0.41,0.39 0,0.23 -0.17,0.39 -0.39,0.39 -0.19,0 -0.39,-0.12 -0.39,-0.41 0,-0.65 0.73,-1.08 1.57,-1.08 0.97,0 1.64,0.65 1.64,1.35 0,0.54 -0.45,1.08 -1.21,1.25 0.73,0.26 0.99,0.78 0.99,1.21 0,0.55 -0.63,0.96 -1.4,0.96 -0.78,0 -1.37,-0.38 -1.37,-0.93 0,-0.24 0.15,-0.37 0.36,-0.37 0.22,0 0.36,0.16 0.36,0.35 0,0.2 -0.14,0.35 -0.36,0.36 0.25,0.31 0.73,0.39 0.98,0.39 0.32,0 0.76,-0.15 0.76,-0.76 0,-0.29 -0.1,-0.62 -0.28,-0.83 -0.23,-0.27 -0.43,-0.28 -0.78,-0.3 -0.17,-0.01 -0.18,-0.01 -0.22,-0.02 -0.01,0 -0.07,-0.02 -0.07,-0.09 0,-0.1 0.06,-0.1 0.18,-0.1 z"
         id="path7151" /></g>    <circle
       style="display:inline;fill:#000000;fill-opacity:1;stroke-width:0.27846548;stroke-miterlimit:4;stroke-dasharray:none"
       id="circle7155"
       cx="143.69087"
       cy="28.845961"
       r="2.7846546"
       transform="translate(33.93925,-2.60377)" />
    <circle
       style="display:inline;fill:#ff0000;fill-opacity:1;stroke-width:1.06666672;stroke-miterlimit:4;stroke-dasharray:none"
       id="circle7159"
       cx="137.93272"
       cy="85.779877"
       r="2.2270546"
       transform="translate(33.93925,-2.60377)" />
    <g
       style="font-style:normal;font-variant:normal;font-weight:normal;font-stretch:normal;letter-spacing:normal;word-spacing:normal;text-anchor:start;display:inline;fill:none;fill-opacity:1;fill-rule:evenodd;stroke:#000000;stroke-linecap:butt;stroke-linejoin:miter;stroke-miterlimit:10.43299961;stroke-dasharray:none;stroke-dashoffset:0;stroke-opacity:1"
       ns0:preamble="/home/taihu/Documents/tesis/inkscape_preamble.tex"
       ns0:text="$\\worldPoint_{2}$"
       word-spacing="normal"
       letter-spacing="normal"
       font-size-adjust="none"
       font-stretch="normal"
       font-weight="normal"
       font-variant="normal"
       font-style="normal"
       stroke-miterlimit="10.433"
       xml:space="preserve"
       transform="matrix(1,0,0,-1,-49.765304,728.4005)"
       id="g7167"><path
         id="path7161"
         d="m 226.88,709.57 1.16,1.3 c 0.14,0.14 0.19,0.21 1.02,0.21 v 0.47 c -0.35,-0.02 -0.86,-0.03 -0.91,-0.03 -0.25,0 -0.75,0.02 -1.03,0.03 v -0.47 c 0.14,0 0.26,-0.02 0.38,-0.09 -0.04,-0.06 -0.04,-0.08 -0.08,-0.12 l -0.84,-0.94 -0.98,1.15 h 0.4 v 0.47 c -0.26,-0.01 -0.88,-0.03 -1.2,-0.03 -0.32,0 -0.77,0.02 -1.1,0.03 v -0.47 h 0.71 l 1.55,-1.84 -1.3,-1.46 c -0.17,-0.19 -0.53,-0.19 -1.01,-0.19 v -0.47 c 0.35,0.02 0.87,0.03 0.92,0.03 0.25,0 0.83,-0.02 1.02,-0.03 v 0.47 c -0.18,0 -0.36,0.05 -0.36,0.11 0,0.01 0,0.02 0.07,0.1 l 0.96,1.09 1.1,-1.3 h -0.39 v -0.47 c 0.26,0.01 0.87,0.03 1.19,0.03 0.32,0 0.77,-0.02 1.1,-0.03 v 0.47 h -0.71 z"
         inkscape:connector-curvature="0"
         style="fill:#000000;stroke-width:0" /><path
         id="path7163"
         d="m 234.36,713.07 0.01,0.03 0.02,0.03 0.01,0.03 0.02,0.02 0.01,0.03 0.02,0.02 0.01,0.03 0.02,0.02 0.02,0.02 0.01,0.02 0.02,0.02 0.02,0.01 0.02,0.02 0.02,0.01 0.01,0.02 0.02,0.01 0.02,0.01 0.02,0.01 0.02,0.01 0.02,0.01 h 0.02 l 0.02,0.01 0.02,0.01 h 0.02 l 0.02,0.01 h 0.02 0.02 l 0.02,0.01 h 0.04 0.05 v 0.25 c -0.19,-0.02 -0.3,-0.02 -0.51,-0.02 -0.21,0 -0.47,0 -0.68,0.02 v -0.25 c 0.24,-0.01 0.36,-0.14 0.36,-0.31 0,-0.05 0,-0.06 -0.04,-0.16 l -0.68,-1.74 -0.75,1.9 c -0.01,0.04 -0.03,0.1 -0.03,0.14 0,0.15 0.18,0.17 0.37,0.17 v 0.25 c -0.25,-0.02 -0.5,-0.02 -0.75,-0.02 -0.2,0 -0.41,0.01 -0.62,0.02 v -0.25 c 0.17,0 0.31,0 0.4,-0.05 0.1,-0.07 0.16,-0.3 0.16,-0.31 0,-0.01 -0.01,-0.06 -0.03,-0.08 l -0.65,-1.66 -0.7,1.79 c -0.05,0.1 -0.05,0.11 -0.05,0.14 0,0.17 0.26,0.17 0.38,0.17 v 0.25 c -0.01,0 -0.51,-0.02 -0.79,-0.02 -0.21,0 -0.44,0 -0.65,0.02 v -0.25 c 0.27,0 0.42,0 0.5,-0.2 l 0.97,-2.46 c 0.04,-0.11 0.06,-0.16 0.19,-0.16 0.12,0 0.14,0.05 0.18,0.14 l 0.79,2 0.77,-1.97 c 0.04,-0.11 0.07,-0.17 0.2,-0.17 0.12,0 0.14,0.05 0.18,0.16 z"
         inkscape:connector-curvature="0"
         style="fill:#000000;stroke-width:0" /><path
         id="path7165"
         d="m 233,705.92 h -0.24 c -0.02,-0.15 -0.09,-0.56 -0.18,-0.63 -0.06,-0.04 -0.59,-0.04 -0.69,-0.04 h -1.28 c 0.73,0.65 0.97,0.84 1.39,1.17 0.52,0.41 1,0.84 1,1.51 0,0.84 -0.74,1.36 -1.63,1.36 -0.87,0 -1.45,-0.61 -1.45,-1.25 0,-0.36 0.3,-0.39 0.37,-0.39 0.16,0 0.37,0.12 0.37,0.37 0,0.12 -0.05,0.37 -0.42,0.37 0.22,0.49 0.69,0.64 1.02,0.64 0.7,0 1.06,-0.54 1.06,-1.1 0,-0.61 -0.43,-1.09 -0.65,-1.34 l -1.68,-1.66 c -0.07,-0.07 -0.07,-0.08 -0.07,-0.27 h 2.87 z"
         inkscape:connector-curvature="0"
         style="fill:#000000;stroke-width:0" /></g>    <g
       style="font-style:normal;font-variant:normal;font-weight:normal;font-stretch:normal;letter-spacing:normal;word-spacing:normal;text-anchor:start;display:inline;fill:none;fill-opacity:1;fill-rule:evenodd;stroke:#000000;stroke-linecap:butt;stroke-linejoin:miter;stroke-miterlimit:10.43299961;stroke-dasharray:none;stroke-dashoffset:0;stroke-opacity:1"
       ns0:preamble="/home/taihu/Documents/tesis/inkscape_preamble.tex"
       ns0:text="$\\prediction_{2}$"
       word-spacing="normal"
       letter-spacing="normal"
       font-size-adjust="none"
       font-stretch="normal"
       font-weight="normal"
       font-variant="normal"
       font-style="normal"
       stroke-miterlimit="10.433"
       xml:space="preserve"
       transform="matrix(0.79985644,0,0,-0.79985644,-2.7100096,650.65327)"
       id="g7175"><polygon
         style="fill:#000000;stroke-width:0"
         id="polygon7169"
         points="227.12,712.65 227.3,712.82 225.98,714.18 224.64,712.82 224.82,712.65 225.98,713.66 " /><path
         style="fill:#000000;stroke-width:0"
         inkscape:connector-curvature="0"
         id="path7171"
         d="m 227.91,711.12 v 0.01 l 0.01,0.01 0.01,0.01 v 0 l 0.01,0.01 v 0.01 l 0.01,0.01 v 0.01 h 0.01 v 0.01 l 0.01,0.01 v 0 l 0.01,0.01 v 0 0.01 h 0.01 v 0.01 0.01 0 0.01 H 228 v 0.01 0 0.01 0.01 0 0.01 0.01 0 0.01 0.01 l 0.01,0.01 c 0,0.21 -0.14,0.21 -0.32,0.21 h -3.66 l -0.12,-1.75 h 0.47 c 0.06,1.03 0.37,1.39 1.39,1.39 h 0.85 l -2.78,-3.63 c -0.09,-0.11 -0.09,-0.13 -0.09,-0.22 0,-0.22 0.13,-0.22 0.32,-0.22 h 3.79 l 0.18,2.02 h -0.47 c -0.09,-1.01 -0.25,-1.62 -1.57,-1.62 h -0.85 z" /><path
         style="fill:#000000;stroke-width:0"
         inkscape:connector-curvature="0"
         id="path7173"
         d="m 232.05,706.9 h -0.24 c -0.02,-0.15 -0.09,-0.57 -0.18,-0.63 -0.06,-0.05 -0.59,-0.05 -0.69,-0.05 h -1.29 c 0.74,0.65 0.98,0.85 1.4,1.17 0.52,0.42 1,0.85 1,1.51 0,0.84 -0.74,1.36 -1.64,1.36 -0.86,0 -1.45,-0.61 -1.45,-1.25 0,-0.35 0.3,-0.39 0.37,-0.39 0.17,0 0.37,0.12 0.37,0.37 0,0.13 -0.05,0.37 -0.41,0.37 0.22,0.5 0.69,0.65 1.02,0.65 0.7,0 1.06,-0.54 1.06,-1.11 0,-0.61 -0.43,-1.09 -0.66,-1.34 l -1.68,-1.66 c -0.07,-0.06 -0.07,-0.07 -0.07,-0.27 h 2.88 z" /></g>    <g
       id="g7181"
       transform="matrix(0.79985644,0,0,-0.79985644,-10.57124,655.43491)"
       xml:space="preserve"
       stroke-miterlimit="10.433"
       font-style="normal"
       font-variant="normal"
       font-weight="normal"
       font-stretch="normal"
       font-size-adjust="none"
       letter-spacing="normal"
       word-spacing="normal"
       ns0:text="$\\measurement_{2}$"
       ns0:preamble="/home/taihu/Documents/tesis/inkscape_preamble.tex"
       style="font-style:normal;font-variant:normal;font-weight:normal;font-stretch:normal;letter-spacing:normal;word-spacing:normal;text-anchor:start;display:inline;fill:none;fill-opacity:1;fill-rule:evenodd;stroke:#000000;stroke-linecap:butt;stroke-linejoin:miter;stroke-miterlimit:10.43299961;stroke-dasharray:none;stroke-dashoffset:0;stroke-opacity:1"><path
         style="fill:#000000;stroke-width:0"
         inkscape:connector-curvature="0"
         d="m 227.91,711.12 v 0.01 l 0.01,0.01 0.01,0.01 v 0 l 0.01,0.01 v 0.01 l 0.01,0.01 v 0.01 h 0.01 v 0.01 l 0.01,0.01 v 0 l 0.01,0.01 v 0 0.01 h 0.01 v 0.01 0.01 0 0.01 H 228 v 0.01 0 0.01 0.01 0 0.01 0.01 0 0.01 0.01 l 0.01,0.01 c 0,0.21 -0.14,0.21 -0.32,0.21 h -3.66 l -0.12,-1.75 h 0.47 c 0.06,1.03 0.37,1.39 1.39,1.39 h 0.85 l -2.78,-3.63 c -0.09,-0.11 -0.09,-0.13 -0.09,-0.22 0,-0.22 0.13,-0.22 0.32,-0.22 h 3.79 l 0.18,2.02 h -0.47 c -0.09,-1.01 -0.25,-1.62 -1.57,-1.62 h -0.85 z"
         id="path7177" /><path
         style="fill:#000000;stroke-width:0"
         inkscape:connector-curvature="0"
         d="m 232.05,706.9 h -0.24 c -0.02,-0.15 -0.09,-0.57 -0.18,-0.63 -0.06,-0.05 -0.59,-0.05 -0.69,-0.05 h -1.29 c 0.74,0.65 0.98,0.85 1.4,1.17 0.52,0.42 1,0.85 1,1.51 0,0.84 -0.74,1.36 -1.64,1.36 -0.86,0 -1.45,-0.61 -1.45,-1.25 0,-0.35 0.3,-0.39 0.37,-0.39 0.17,0 0.37,0.12 0.37,0.37 0,0.13 -0.05,0.37 -0.41,0.37 0.22,0.5 0.69,0.65 1.02,0.65 0.7,0 1.06,-0.54 1.06,-1.11 0,-0.61 -0.43,-1.09 -0.66,-1.34 l -1.68,-1.66 c -0.07,-0.06 -0.07,-0.07 -0.07,-0.27 h 2.88 z"
         id="path7179" /></g>    <path
       transform="translate(-115.46104,-341.1402)"
       inkscape:connector-curvature="0"
       id="path7183"
       d="m 293.00828,367.26718 -4.63479,56.53403"
       style="display:inline;fill:none;stroke:#000000;stroke-width:1.06666672;stroke-linecap:butt;stroke-linejoin:miter;stroke-miterlimit:4;stroke-dasharray:2.13333333, 1.06666667;stroke-dashoffset:0;stroke-opacity:1"
       sodipodi:nodetypes="cc" />
    <circle
       style="display:inline;fill:#ffff00;fill-opacity:1;stroke-width:1.06666672;stroke-miterlimit:4;stroke-dasharray:none"
       id="circle7185"
       cx="172.98425"
       cy="82.637306"
       r="2.2270546" />
  </g>
</svg>
