<?xml version="1.0" encoding="UTF-8" standalone="no"?>
<!-- Created with Inkscape (http://www.inkscape.org/) -->

<svg
   width="93.202492mm"
   height="30.195566mm"
   viewBox="0 0 93.202492 30.195566"
   version="1.1"
   id="svg1"
   xml:space="preserve"
   inkscape:version="1.4.2 (1:1.4.2+202505120737+ebf0e940d0)"
   sodipodi:docname="transformations_2d.svg"
   xmlns:inkscape="http://www.inkscape.org/namespaces/inkscape"
   xmlns:sodipodi="http://sodipodi.sourceforge.net/DTD/sodipodi-0.dtd"
   xmlns="http://www.w3.org/2000/svg"
   xmlns:svg="http://www.w3.org/2000/svg"><sodipodi:namedview
     id="namedview1"
     pagecolor="#ffffff"
     bordercolor="#666666"
     borderopacity="1.0"
     inkscape:showpageshadow="2"
     inkscape:pageopacity="0.0"
     inkscape:pagecheckerboard="0"
     inkscape:deskcolor="#d1d1d1"
     inkscape:document-units="mm"
     inkscape:zoom="2.8936196"
     inkscape:cx="171.41161"
     inkscape:cy="88.988891"
     inkscape:window-width="1920"
     inkscape:window-height="986"
     inkscape:window-x="0"
     inkscape:window-y="32"
     inkscape:window-maximized="1"
     inkscape:current-layer="g62" /><defs
     id="defs1"><clipPath
       clipPathUnits="userSpaceOnUse"
       id="clipPath1"><path
         d="M 44.6639,627.484 H 342.289 v 98.675 H 44.6639 Z"
         transform="matrix(0.94084,0,0,0.94084,-42.360071,-609.30088)"
         id="path1" /></clipPath><clipPath
       clipPathUnits="userSpaceOnUse"
       id="clipPath2"><path
         d="M 44.6639,627.484 H 342.289 v 98.675 H 44.6639 Z"
         transform="matrix(0.94084,0,0,0.94084,-312.42007,-612.36087)"
         id="path2" /></clipPath><clipPath
       clipPathUnits="userSpaceOnUse"
       id="clipPath3"><path
         d="M 44.6639,627.484 H 342.289 v 98.675 H 44.6639 Z"
         transform="matrix(0.94084,0,0,0.94084,-59.280085,-592.38088)"
         id="path3" /></clipPath><clipPath
       clipPathUnits="userSpaceOnUse"
       id="clipPath4"><path
         d="M 44.6639,627.484 H 342.289 v 98.675 H 44.6639 Z"
         transform="matrix(0.94084,0,0,0.94084,-56.220091,-667.86087)"
         id="path4" /></clipPath><clipPath
       clipPathUnits="userSpaceOnUse"
       id="clipPath5"><path
         d="M 44.6639,627.484 H 342.289 v 98.675 H 44.6639 Z"
         transform="matrix(1,0,0,-1,-53.569195,706.98621)"
         id="path5" /></clipPath><clipPath
       clipPathUnits="userSpaceOnUse"
       id="clipPath6"><path
         d="M 44.6639,627.484 H 342.289 v 98.675 H 44.6639 Z"
         transform="matrix(1,0,0,-1,-321.15838,635.05041)"
         id="path6" /></clipPath><clipPath
       clipPathUnits="userSpaceOnUse"
       id="clipPath7"><path
         d="M 44.6639,627.484 H 342.289 v 98.675 H 44.6639 Z"
         transform="matrix(0.94084,0,0,0.94084,18.000027,29.280024)"
         id="path7" /></clipPath><clipPath
       clipPathUnits="userSpaceOnUse"
       id="clipPath8"><path
         d="M 44.6639,627.484 H 342.289 v 98.675 H 44.6639 Z"
         transform="matrix(0.94084,0,0,0.94084,18.000027,29.280024)"
         id="path8" /></clipPath><clipPath
       clipPathUnits="userSpaceOnUse"
       id="clipPath9"><path
         d="M 44.6639,627.484 H 342.289 v 98.675 H 44.6639 Z"
         transform="matrix(0.94084,0,0,0.94084,-169.55997,-613.97993)"
         id="path9" /></clipPath><clipPath
       clipPathUnits="userSpaceOnUse"
       id="clipPath10"><path
         d="M 44.6639,627.484 H 342.289 v 98.675 H 44.6639 Z"
         transform="matrix(0.94084,0,0,0.94084,-208.13997,-658.73994)"
         id="path10" /></clipPath><clipPath
       clipPathUnits="userSpaceOnUse"
       id="clipPath11"><path
         d="M 44.6639,627.484 H 342.289 v 98.675 H 44.6639 Z"
         transform="matrix(0.94084,0,0,0.94084,-71.939977,-646.31996)"
         id="path11" /></clipPath><clipPath
       clipPathUnits="userSpaceOnUse"
       id="clipPath12"><path
         d="M 44.6639,627.484 H 342.289 v 98.675 H 44.6639 Z"
         transform="matrix(0.94084,0,0,0.94084,-207.35997,-668.51994)"
         id="path12" /></clipPath><clipPath
       clipPathUnits="userSpaceOnUse"
       id="clipPath13"><path
         d="M 44.6639,627.484 H 342.289 v 98.675 H 44.6639 Z"
         transform="matrix(0.94084,0,0,0.94084,-67.739977,-647.81995)"
         id="path13" /></clipPath><clipPath
       clipPathUnits="userSpaceOnUse"
       id="clipPath14"><path
         d="M 44.6639,627.484 H 342.289 v 98.675 H 44.6639 Z"
         transform="matrix(0.94084,0,0,0.94084,-294.05996,-672.77994)"
         id="path14" /></clipPath><clipPath
       clipPathUnits="userSpaceOnUse"
       id="clipPath15"><path
         d="M 44.6639,627.484 H 342.289 v 98.675 H 44.6639 Z"
         transform="matrix(0.94084,0,0,0.94084,-105.77996,-622.01994)"
         id="path15" /></clipPath><clipPath
       clipPathUnits="userSpaceOnUse"
       id="clipPath16"><path
         d="M 44.6639,627.484 H 342.289 v 98.675 H 44.6639 Z"
         transform="matrix(0.94084,0,0,0.94084,-160.79997,-626.21995)"
         id="path16" /></clipPath><clipPath
       clipPathUnits="userSpaceOnUse"
       id="clipPath17"><path
         d="M 44.6639,627.484 H 342.289 v 98.675 H 44.6639 Z"
         transform="matrix(0.94084,0,0,0.94084,-97.319979,-605.03995)"
         id="path17" /></clipPath><clipPath
       clipPathUnits="userSpaceOnUse"
       id="clipPath18"><path
         d="M 44.6639,627.484 H 342.289 v 98.675 H 44.6639 Z"
         transform="matrix(0.94084,0,0,0.94084,-234.83997,-626.21995)"
         id="path18" /></clipPath><clipPath
       clipPathUnits="userSpaceOnUse"
       id="clipPath19"><path
         d="M 44.6639,627.484 H 342.289 v 98.675 H 44.6639 Z"
         transform="matrix(0.94084,0,0,0.94084,-236.93997,-617.75994)"
         id="path19" /></clipPath><clipPath
       clipPathUnits="userSpaceOnUse"
       id="clipPath20"><path
         d="M 44.6639,627.484 H 342.289 v 98.675 H 44.6639 Z"
         transform="matrix(0.94084,0,0,0.94084,-270.83997,-626.21995)"
         id="path20" /></clipPath><clipPath
       clipPathUnits="userSpaceOnUse"
       id="clipPath21"><path
         d="M 44.6639,627.484 H 342.289 v 98.675 H 44.6639 Z"
         transform="matrix(0.94084,0,0,0.94084,-245.39995,-643.13994)"
         id="path21" /></clipPath><clipPath
       clipPathUnits="userSpaceOnUse"
       id="clipPath22"><path
         d="M 44.6639,627.484 H 342.289 v 98.675 H 44.6639 Z"
         transform="matrix(0.94084,0,0,0.94084,-236.93997,-617.75995)"
         id="path22" /></clipPath><clipPath
       clipPathUnits="userSpaceOnUse"
       id="clipPath23"><path
         d="M 44.6639,627.484 H 342.289 v 98.675 H 44.6639 Z"
         transform="matrix(0.94084,0,0,0.94084,-291.95997,-637.85995)"
         id="path23" /></clipPath><clipPath
       clipPathUnits="userSpaceOnUse"
       id="clipPath24"><path
         d="M 44.6639,627.484 H 342.289 v 98.675 H 44.6639 Z"
         transform="matrix(0.94084,0,0,0.94084,-321.59998,-629.39994)"
         id="path24" /></clipPath><clipPath
       clipPathUnits="userSpaceOnUse"
       id="clipPath25"><path
         d="M 44.6639,627.484 H 342.289 v 98.675 H 44.6639 Z"
         transform="matrix(0.94084,0,0,0.94084,-291.95997,-666.41995)"
         id="path25" /></clipPath><clipPath
       clipPathUnits="userSpaceOnUse"
       id="clipPath26"><path
         d="M 44.6639,627.484 H 342.289 v 98.675 H 44.6639 Z"
         transform="matrix(0.94084,0,0,0.94084,-291.95997,-637.85995)"
         id="path26" /></clipPath><clipPath
       clipPathUnits="userSpaceOnUse"
       id="clipPath27"><path
         d="M 44.6639,627.484 H 342.289 v 98.675 H 44.6639 Z"
         transform="matrix(1,0,0,-1,-180.9874,701.69311)"
         id="path27" /></clipPath><clipPath
       clipPathUnits="userSpaceOnUse"
       id="clipPath28"><path
         d="M 44.6639,627.484 H 342.289 v 98.675 H 44.6639 Z"
         transform="matrix(1,0,0,-1,-134.10982,652.2724)"
         id="path28" /></clipPath><clipPath
       clipPathUnits="userSpaceOnUse"
       id="clipPath29"><path
         d="M 44.6639,627.484 H 342.289 v 98.675 H 44.6639 Z"
         transform="matrix(1,0,0,-1,-230.08773,649.97955)"
         id="path29" /></clipPath><clipPath
       clipPathUnits="userSpaceOnUse"
       id="clipPath30"><path
         d="M 44.6639,627.484 H 342.289 v 98.675 H 44.6639 Z"
         transform="matrix(1,0,0,-1,-267.84409,706.479)"
         id="path30" /></clipPath><clipPath
       clipPathUnits="userSpaceOnUse"
       id="clipPath31"><path
         d="M 44.6639,627.484 H 342.289 v 98.675 H 44.6639 Z"
         transform="matrix(1,0,0,-1,-84.629018,686.51447)"
         id="path31" /></clipPath><clipPath
       clipPathUnits="userSpaceOnUse"
       id="clipPath32"><path
         d="M 44.6639,627.484 H 342.289 v 98.675 H 44.6639 Z"
         transform="matrix(0.94084,0,0,0.94084,-97.320146,-636.5409)"
         id="path32" /></clipPath><clipPath
       clipPathUnits="userSpaceOnUse"
       id="clipPath33"><path
         d="M 44.6639,627.484 H 342.289 v 98.675 H 44.6639 Z"
         transform="matrix(0.94084,0,0,0.94084,-116.40013,-641.9409)"
         id="path33" /></clipPath></defs><g
     inkscape:label="Layer 1"
     inkscape:groupmode="layer"
     id="layer1"
     transform="translate(-63.26742,-19.756408)" /><g
     id="g62"
     transform="matrix(0.26458333,0,0,0.26458333,-59.322239,-27.276261)"><path
       d="M 0,0 H 270.84"
       style="fill:none;stroke:#000000;stroke-width:0.677;stroke-linecap:round;stroke-linejoin:round;stroke-miterlimit:10;stroke-dasharray:none;stroke-opacity:1"
       transform="matrix(1.2584499,0,0,-1.2584499,224.63601,195.4974)"
       clip-path="url(#clipPath1)"
       id="path34" /><path
       d="M 0,0 9.18,-3.06 0,-6.1199999 V 0"
       style="fill:#000000;fill-opacity:1;fill-rule:evenodd;stroke:none"
       transform="matrix(1.2584499,0,0,-1.2584499,564.49299,191.64655)"
       clip-path="url(#clipPath2)"
       id="path35" /><path
       d="M 0,0 V 76.260002"
       style="fill:none;stroke:#000000;stroke-width:0.677;stroke-linecap:round;stroke-linejoin:round;stroke-miterlimit:10;stroke-dasharray:none;stroke-opacity:1"
       transform="matrix(1.2584499,0,0,-1.2584499,245.929,216.79037)"
       clip-path="url(#clipPath3)"
       id="path36" /><path
       d="M 0,0 3.06,9.1199999 6.06,0 H 0"
       style="fill:#000000;fill-opacity:1;fill-rule:evenodd;stroke:none"
       transform="matrix(1.2584499,0,0,-1.2584499,242.07815,121.80258)"
       clip-path="url(#clipPath4)"
       id="path37" /><text
       xml:space="preserve"
       transform="matrix(1.184,0,0,1.184,234.75391,125.20036)"
       clip-path="url(#clipPath5)"
       id="text37"><tspan
         style="font-style:italic;font-variant:normal;font-weight:normal;font-stretch:normal;font-size:11.9893px;font-family:'Times New Roman';writing-mode:lr-tb;fill:#000000;fill-opacity:1;fill-rule:nonzero;stroke:none"
         x="0"
         y="0"
         id="tspan37">y</tspan></text><text
       xml:space="preserve"
       transform="matrix(1.184,0,0,1.184,551.57951,210.37234)"
       clip-path="url(#clipPath6)"
       id="text38"><tspan
         style="font-style:italic;font-variant:normal;font-weight:normal;font-stretch:normal;font-size:11.9893px;font-family:'Times New Roman';writing-mode:lr-tb;fill:#000000;fill-opacity:1;fill-rule:nonzero;stroke:none"
         x="0"
         y="0"
         id="tspan38">x</tspan></text><path
       d="M 77.279999,638.58002 H 111.12 v 33.84 H 77.279999 Z"
       style="fill:#ffffff;fill-opacity:1;fill-rule:nonzero;stroke:#000000;stroke-width:0.677;stroke-linecap:round;stroke-linejoin:round;stroke-miterlimit:10;stroke-dasharray:none;stroke-opacity:1"
       transform="matrix(1.2584499,0,0,-1.2584499,148.67585,999.11947)"
       clip-path="url(#clipPath7)"
       id="path38" /><path
       d="m 138.60001,660.78003 h 33.84 v 33.84 h -33.84 z"
       style="fill:#ffffff;fill-opacity:1;fill-rule:nonzero;stroke:#000000;stroke-width:0.677;stroke-linecap:round;stroke-linejoin:round;stroke-miterlimit:10;stroke-dasharray:none;stroke-opacity:1"
       transform="matrix(1.2584499,0,0,-1.2584499,148.67585,999.11947)"
       clip-path="url(#clipPath8)"
       id="path39" /><path
       d="M 0,0 32.7,8.76 23.94,41.459999 -8.76,32.7 0,0"
       style="fill:#ffffff;fill-opacity:1;fill-rule:evenodd;stroke:#000000;stroke-width:0.677;stroke-linecap:round;stroke-linejoin:round;stroke-miterlimit:10;stroke-dasharray:none;stroke-opacity:1"
       transform="matrix(1.2584499,0,0,-1.2584499,384.71071,189.60904)"
       clip-path="url(#clipPath9)"
       id="path40" /><path
       d="m 0,0 18.299999,-10.56 10.5,18.2999998 L 10.56,18.24 0,0"
       style="fill:#ffffff;fill-opacity:1;fill-rule:evenodd;stroke:#000000;stroke-width:0.677;stroke-linecap:round;stroke-linejoin:round;stroke-miterlimit:10;stroke-dasharray:none;stroke-opacity:1"
       transform="matrix(1.2584499,0,0,-1.2584499,433.26171,133.28081)"
       clip-path="url(#clipPath10)"
       id="path41" /><path
       d="M 0,0 C 19.26,22.08 76.919998,32.220001 130.86,23.04"
       style="fill:none;stroke:#000000;stroke-width:0.677;stroke-linecap:round;stroke-linejoin:round;stroke-miterlimit:10;stroke-dasharray:none;stroke-opacity:1"
       transform="matrix(1.2584499,0,0,-1.2584499,261.86084,148.91074)"
       clip-path="url(#clipPath11)"
       id="path42" /><path
       d="m 0,0 -6.54,-1.92 c 1.26,1.74 1.68,3.96 1.08,6 L 0,0"
       style="fill:#000000;fill-opacity:1;fill-rule:evenodd;stroke:none"
       transform="matrix(1.2584499,0,0,-1.2584499,432.28012,120.97317)"
       clip-path="url(#clipPath12)"
       id="path43" /><path
       d="M 0,0 C 1.86,19.559999 63.599998,35.04 137.82001,34.560001 168.72,34.380001 198.36,31.32 221.82001,26.04"
       style="fill:none;stroke:#000000;stroke-width:0.677;stroke-linecap:round;stroke-linejoin:round;stroke-miterlimit:10;stroke-dasharray:none;stroke-opacity:1"
       transform="matrix(1.2584499,0,0,-1.2584499,256.57535,147.02308)"
       clip-path="url(#clipPath13)"
       id="path44" /><path
       d="m 0,0 -6.6,-1.56 c 1.3800002,1.62 1.9200002,3.84 1.3800002,5.94 L 0,0"
       style="fill:#000000;fill-opacity:1;fill-rule:evenodd;stroke:none"
       transform="matrix(1.2584499,0,0,-1.2584499,541.38771,115.61218)"
       clip-path="url(#clipPath14)"
       id="path45" /><path
       d="M 0,0 C 22.139999,0 42.119999,1.02 50.7,2.58"
       style="fill:none;stroke:#000000;stroke-width:0.677;stroke-linecap:round;stroke-linejoin:round;stroke-miterlimit:10;stroke-dasharray:none;stroke-opacity:1"
       transform="matrix(1.2584499,0,0,-1.2584499,304.44676,179.49109)"
       clip-path="url(#clipPath15)"
       id="path46" /><path
       d="M 0,0 -4.6199999,-5.04 C -4.38,-2.88 -5.2199998,-0.78 -6.78,0.66 L 0,0"
       style="fill:#000000;fill-opacity:1;fill-rule:evenodd;stroke:none"
       transform="matrix(1.2584499,0,0,-1.2584499,373.68669,174.20559)"
       clip-path="url(#clipPath16)"
       id="path47" /><path
       d="m 0,0 c 13.98,-14.34 68.339996,-8.1599998 121.44,13.92 4.02,1.68 8.04,3.48 11.94,5.28"
       style="fill:none;stroke:#000000;stroke-width:0.677;stroke-linecap:round;stroke-linejoin:round;stroke-miterlimit:10;stroke-dasharray:none;stroke-opacity:1"
       transform="matrix(1.2584499,0,0,-1.2584499,293.8003,200.85956)"
       clip-path="url(#clipPath17)"
       id="path48" /><path
       d="M 0,0 -4.1999998,-5.34 C -4.1399999,-3.24 -5.1,-1.2 -6.78,0.12 L 0,0"
       style="fill:#000000;fill-opacity:1;fill-rule:evenodd;stroke:none"
       transform="matrix(1.2584499,0,0,-1.2584499,466.86232,174.20559)"
       clip-path="url(#clipPath18)"
       id="path49" /><path
       d="M 0,0 8.46,25.379999"
       style="fill:none;stroke:#000000;stroke-width:0.677;stroke-linecap:round;stroke-linejoin:round;stroke-miterlimit:10;stroke-dasharray:none;stroke-opacity:1"
       transform="matrix(1.2584499,0,0,-1.2584499,469.50507,184.85209)"
       clip-path="url(#clipPath19)"
       id="path50" /><path
       d="M 0,0 8.46,25.379999"
       style="fill:none;stroke:#000000;stroke-width:0.677;stroke-linecap:round;stroke-linejoin:round;stroke-miterlimit:10;stroke-dasharray:none;stroke-opacity:1"
       transform="matrix(1.2584499,0,0,-1.2584499,512.16651,174.20559)"
       clip-path="url(#clipPath20)"
       id="path51" /><path
       d="M 0,0 33.900002,8.46"
       style="fill:none;stroke:#000000;stroke-width:0.677;stroke-linecap:round;stroke-linejoin:round;stroke-miterlimit:10;stroke-dasharray:none;stroke-opacity:1"
       transform="matrix(1.2584499,0,0,-1.2584499,480.15153,152.91263)"
       clip-path="url(#clipPath21)"
       id="path52" /><path
       d="M 0,0 33.900002,8.46"
       style="fill:none;stroke:#000000;stroke-width:0.677;stroke-linecap:round;stroke-linejoin:round;stroke-miterlimit:10;stroke-dasharray:none;stroke-opacity:1"
       transform="matrix(1.2584499,0,0,-1.2584499,469.50507,184.85208)"
       clip-path="url(#clipPath22)"
       id="path53" /><path
       d="M 0,0 V 28.559999"
       style="fill:none;stroke:#000000;stroke-width:0.677;stroke-linecap:round;stroke-linejoin:round;stroke-miterlimit:10;stroke-dasharray:none;stroke-opacity:1"
       transform="matrix(1.2584499,0,0,-1.2584499,538.74498,159.55724)"
       clip-path="url(#clipPath23)"
       id="path54" /><path
       d="M 0,0 V 44.400002"
       style="fill:none;stroke:#000000;stroke-width:0.677;stroke-linecap:round;stroke-linejoin:round;stroke-miterlimit:10;stroke-dasharray:none;stroke-opacity:1"
       transform="matrix(1.2584499,0,0,-1.2584499,576.04545,170.20374)"
       clip-path="url(#clipPath24)"
       id="path55" /><path
       d="M 0,0 29.639999,7.38"
       style="fill:none;stroke:#000000;stroke-width:0.677;stroke-linecap:round;stroke-linejoin:round;stroke-miterlimit:10;stroke-dasharray:none;stroke-opacity:1"
       transform="matrix(1.2584499,0,0,-1.2584499,538.74498,123.61591)"
       clip-path="url(#clipPath25)"
       id="path56" /><path
       d="M 0,0 29.639999,-8.46"
       style="fill:none;stroke:#000000;stroke-width:0.677;stroke-linecap:round;stroke-linejoin:round;stroke-miterlimit:10;stroke-dasharray:none;stroke-opacity:1"
       transform="matrix(1.2584499,0,0,-1.2584499,538.74498,159.55724)"
       clip-path="url(#clipPath26)"
       id="path57" /><text
       xml:space="preserve"
       transform="matrix(1.184,0,0,1.184,385.61706,131.46738)"
       clip-path="url(#clipPath27)"
       id="text57"><tspan
         style="font-variant:normal;font-weight:normal;font-stretch:normal;font-size:10.0123px;font-family:'Times New Roman';writing-mode:lr-tb;fill:#000000;fill-opacity:1;fill-rule:nonzero;stroke:none"
         x="0"
         y="0"
         id="tspan57">similarity</tspan></text><text
       xml:space="preserve"
       transform="matrix(1.184,0,0,1.184,330.11401,189.98151)"
       clip-path="url(#clipPath28)"
       id="text58"><tspan
         style="font-variant:normal;font-weight:normal;font-stretch:normal;font-size:10.0123px;font-family:'Times New Roman';writing-mode:lr-tb;fill:#000000;fill-opacity:1;fill-rule:nonzero;stroke:none"
         x="0"
         y="0"
         id="tspan58">Euclidean</tspan></text><text
       xml:space="preserve"
       transform="matrix(1.184,0,0,1.184,443.75185,192.69624)"
       clip-path="url(#clipPath29)"
       id="text59"><tspan
         style="font-variant:normal;font-weight:normal;font-stretch:normal;font-size:10.0123px;font-family:'Times New Roman';writing-mode:lr-tb;fill:#000000;fill-opacity:1;fill-rule:nonzero;stroke:none"
         x="0"
         y="0"
         id="tspan59">affine</tspan></text><text
       xml:space="preserve"
       transform="matrix(1.184,0,0,1.184,488.45538,125.80089)"
       clip-path="url(#clipPath30)"
       id="text60"><tspan
         style="font-variant:normal;font-weight:normal;font-stretch:normal;font-size:10.0123px;font-family:'Times New Roman';writing-mode:lr-tb;fill:#000000;fill-opacity:1;fill-rule:nonzero;stroke:none"
         x="0"
         y="0"
         id="tspan60">projective</tspan></text><text
       xml:space="preserve"
       transform="matrix(1.184,0,0,1.184,271.52874,149.4389)"
       clip-path="url(#clipPath31)"
       id="text61"><tspan
         style="font-variant:normal;font-weight:normal;font-stretch:normal;font-size:10.0123px;font-family:'Times New Roman';writing-mode:lr-tb;fill:#000000;fill-opacity:1;fill-rule:nonzero;stroke:none"
         x="0"
         y="0"
         id="tspan61">translation</tspan></text><path
       d="M 0,0 14.64,4.1399999"
       style="fill:none;stroke:#000000;stroke-width:0.677;stroke-linecap:round;stroke-linejoin:round;stroke-miterlimit:10;stroke-dasharray:none;stroke-opacity:1"
       transform="matrix(1.2584499,0,0,-1.2584499,293.80051,161.21719)"
       clip-path="url(#clipPath32)"
       id="path61" /><path
       d="m 0,0 -5.04,-4.56 c 0.4200001,2.1 -0.24,4.26 -1.6799998,5.82 L 0,0"
       style="fill:#000000;fill-opacity:1;fill-rule:evenodd;stroke:none"
       transform="matrix(1.2584499,0,0,-1.2584499,317.81171,154.42156)"
       clip-path="url(#clipPath33)"
       id="path62" /></g></svg>
