<?xml version="1.0" encoding="UTF-8" standalone="no"?>
<!-- Created with Inkscape (http://www.inkscape.org/) -->

<svg
   width="61.059151mm"
   height="10.808405mm"
   viewBox="0 0 61.059151 10.808405"
   version="1.1"
   id="svg5"
   sodipodi:docname="pose_landmark_expected_observation.svg"
   inkscape:version="1.2.1 (1:1.2.1+202210291243+9c6d41e410)"
   xmlns:inkscape="http://www.inkscape.org/namespaces/inkscape"
   xmlns:sodipodi="http://sodipodi.sourceforge.net/DTD/sodipodi-0.dtd"
   xmlns="http://www.w3.org/2000/svg"
   xmlns:svg="http://www.w3.org/2000/svg"
   xmlns:ns22="http://www.iki.fi/pav/software/textext/">
  <sodipodi:namedview
     id="namedview7"
     pagecolor="#ffffff"
     bordercolor="#666666"
     borderopacity="1.0"
     inkscape:showpageshadow="2"
     inkscape:pageopacity="0.0"
     inkscape:pagecheckerboard="0"
     inkscape:deskcolor="#d1d1d1"
     inkscape:document-units="mm"
     showgrid="false"
     inkscape:zoom="4.2835116"
     inkscape:cx="112.05759"
     inkscape:cy="41.904871"
     inkscape:window-width="1846"
     inkscape:window-height="1016"
     inkscape:window-x="1440"
     inkscape:window-y="27"
     inkscape:window-maximized="1"
     inkscape:current-layer="layer1" />
  <defs
     id="defs2">
    <marker
       style="overflow:visible"
       id="Arrow1L"
       refX="0"
       refY="0"
       orient="auto-start-reverse"
       inkscape:stockid="Arrow1L"
       markerWidth="5.75"
       markerHeight="3.2857144"
       viewBox="0 0 8.75 5"
       inkscape:isstock="true"
       inkscape:collect="always"
       preserveAspectRatio="xMidYMid">
      <path
         style="fill:context-stroke;fill-rule:evenodd;stroke:none"
         d="M 0,0 5,-5 -12.5,0 5,5 Z"
         id="arrow1L"
         transform="scale(-0.5)" />
    </marker>
    <marker
       style="overflow:visible"
       id="Arrow1L-3"
       refX="0"
       refY="0"
       orient="auto-start-reverse"
       inkscape:stockid="Arrow1L"
       markerWidth="5.75"
       markerHeight="3.2857144"
       viewBox="0 0 8.75 5"
       inkscape:isstock="true"
       inkscape:collect="always"
       preserveAspectRatio="xMidYMid">
      <path
         style="fill:context-stroke;fill-rule:evenodd;stroke:none"
         d="M 0,0 5,-5 -12.5,0 5,5 Z"
         id="arrow1L-6"
         transform="scale(-0.5)" />
    </marker>
    <marker
       style="overflow:visible"
       id="Arrow1L-6"
       refX="0"
       refY="0"
       orient="auto-start-reverse"
       inkscape:stockid="Arrow1L"
       markerWidth="5.75"
       markerHeight="3.2857144"
       viewBox="0 0 8.75 5"
       inkscape:isstock="true"
       inkscape:collect="always"
       preserveAspectRatio="xMidYMid">
      <path
         style="fill:context-stroke;fill-rule:evenodd;stroke:none"
         d="M 0,0 5,-5 -12.5,0 5,5 Z"
         id="arrow1L-2"
         transform="scale(-0.5)" />
    </marker>
  </defs>
  <g
     inkscape:label="Layer 1"
     inkscape:groupmode="layer"
     id="layer1"
     transform="translate(-41.326141,-146.53509)">
    <g
       transform="matrix(0.352778,0,0,0.352778,41.3746,146.535)"
       ns22:version="1.3.0"
       ns22:texconverter="pdflatex"
       ns22:pdfconverter="inkscape"
       ns22:text="\t\\begin{equation*}\n\t\t\\hat{\\observationBold}_{ij}(\\stateBold_{i}, \\stateBold_{j}) = \\rotation_{i}^{\\top}(\\stateBold_{j}-\\translation_{i})\n\t\\end{equation*}"
       ns22:preamble="/home/taihu/Documents/materia-robotica-movil-rosario/common/math_preamble.tex"
       ns22:scale="1.0"
       ns22:alignment="middle center"
       ns22:jacobian_sqrt="0.352778"
       id="g266">
      <defs
         id="id-bfc4bd2f-1985-43d4-b8ad-3f5481da01cb">
        <g
           id="id-e3514134-1f9a-4165-9b75-51e287fe1d8d">
          <symbol
             overflow="visible"
             id="id-30666320-2a26-460e-91a0-75949e1bf1a2">
            <path
               style="stroke:none;stroke-width:0"
               d=""
               id="id-fb5b304b-de8a-468c-aa7c-0e9416eefefd" />
          </symbol>
          <symbol
             overflow="visible"
             id="id-980c2a15-d72f-4290-aa48-0f5b8cc3f517">
            <path
               style="stroke:none;stroke-width:0"
               d="M 2.5,-6.921875 1.15625,-5.5625 1.328125,-5.390625 2.5,-6.40625 3.640625,-5.390625 3.8125,-5.5625 Z m 0,0"
               id="id-a6728809-0bce-4c36-84aa-9e5ef2add587" />
          </symbol>
          <symbol
             overflow="visible"
             id="id-4982f8f8-3809-4eeb-9f83-c9d9706f270e">
            <path
               style="stroke:none;stroke-width:0"
               d="m 3.296875,2.390625 c 0,-0.03125 0,-0.046875 -0.171875,-0.21875 C 1.890625,0.921875 1.5625,-0.96875 1.5625,-2.5 c 0,-1.734375 0.375,-3.46875 1.609375,-4.703125 0.125,-0.125 0.125,-0.140625 0.125,-0.171875 0,-0.078125 -0.03125,-0.109375 -0.09375,-0.109375 -0.109375,0 -1,0.6875 -1.59375,1.953125 -0.5,1.09375 -0.625,2.203125 -0.625,3.03125 0,0.78125 0.109375,1.984375 0.65625,3.125 C 2.25,1.84375 3.09375,2.5 3.203125,2.5 c 0.0625,0 0.09375,-0.03125 0.09375,-0.109375 z m 0,0"
               id="id-dd13b646-6336-493f-ae23-1aeb8f0ad608" />
          </symbol>
          <symbol
             overflow="visible"
             id="id-57c07667-17a5-4f3f-acb4-cfcaa7b02059">
            <path
               style="stroke:none;stroke-width:0"
               d="m 2.875,-2.5 c 0,-0.765625 -0.109375,-1.96875 -0.65625,-3.109375 -0.59375,-1.21875 -1.453125,-1.875 -1.546875,-1.875 -0.0625,0 -0.109375,0.046875 -0.109375,0.109375 0,0.03125 0,0.046875 0.1875,0.234375 0.984375,0.984375 1.546875,2.5625 1.546875,4.640625 0,1.71875 -0.359375,3.46875 -1.59375,4.71875 C 0.5625,2.34375 0.5625,2.359375 0.5625,2.390625 0.5625,2.453125 0.609375,2.5 0.671875,2.5 0.765625,2.5 1.671875,1.8125 2.25,0.546875 2.765625,-0.546875 2.875,-1.65625 2.875,-2.5 Z m 0,0"
               id="id-e8152a1d-6bac-41ac-b99e-e6e0f4cb607c" />
          </symbol>
          <symbol
             overflow="visible"
             id="id-1b052ce5-b914-44e4-b74b-c07f7320c422">
            <path
               style="stroke:none;stroke-width:0"
               d="m 6.84375,-3.265625 c 0.15625,0 0.34375,0 0.34375,-0.1875 C 7.1875,-3.65625 7,-3.65625 6.859375,-3.65625 h -5.96875 c -0.140625,0 -0.328125,0 -0.328125,0.203125 0,0.1875 0.1875,0.1875 0.328125,0.1875 z m 0.015625,1.9375 c 0.140625,0 0.328125,0 0.328125,-0.203125 0,-0.1875 -0.1875,-0.1875 -0.34375,-0.1875 H 0.890625 c -0.140625,0 -0.328125,0 -0.328125,0.1875 0,0.203125 0.1875,0.203125 0.328125,0.203125 z m 0,0"
               id="id-6f147c64-eee1-499b-98a9-4159b2464c10" />
          </symbol>
          <symbol
             overflow="visible"
             id="id-1347d9c9-6ab5-46a1-84d2-f8008a5acec0">
            <path
               style="stroke:none;stroke-width:0"
               d=""
               id="id-a5d99b5f-a7dd-4e95-8a3f-83925225289d" />
          </symbol>
          <symbol
             overflow="visible"
             id="id-e319d082-204a-4259-bb9b-4f3bdbd8ffee">
            <path
               style="stroke:none;stroke-width:0"
               d="M 4.46875,-4 C 4.5625,-4.109375 4.578125,-4.125 4.578125,-4.21875 4.578125,-4.421875 4.4375,-4.421875 4.25,-4.421875 H 0.59375 L 0.484375,-2.6875 h 0.46875 C 1,-3.703125 1.3125,-4.0625 2.34375,-4.0625 H 3.1875 l -2.78125,3.625 C 0.3125,-0.328125 0.3125,-0.3125 0.3125,-0.21875 0.3125,0 0.453125,0 0.640625,0 h 3.78125 l 0.1875,-2.015625 H 4.140625 C 4.046875,-1 3.890625,-0.40625 2.578125,-0.40625 H 1.71875 Z m 0,0"
               id="id-4eab04bb-e64d-4334-b1da-955869fd80a5" />
          </symbol>
          <symbol
             overflow="visible"
             id="id-c9e9851e-2951-482e-9237-153dad9cea5f">
            <path
               style="stroke:none;stroke-width:0"
               d="M 3.453125,-2.453125 4.609375,-3.75 C 4.75,-3.890625 4.8125,-3.953125 5.625,-3.953125 v -0.46875 c -0.34375,0.015625 -0.859375,0.03125 -0.90625,0.03125 -0.25,0 -0.75,-0.03125 -1.03125,-0.03125 v 0.46875 c 0.140625,0 0.265625,0.015625 0.375,0.078125 -0.03125,0.0625 -0.03125,0.09375 -0.078125,0.125 L 3.15625,-2.8125 2.171875,-3.953125 h 0.40625 v -0.46875 c -0.265625,0 -0.890625,0.03125 -1.21875,0.03125 -0.3125,0 -0.765625,-0.03125 -1.09375,-0.03125 v 0.46875 h 0.71875 L 2.53125,-2.125 1.21875,-0.65625 c -0.15625,0.1875 -0.515625,0.1875 -1,0.1875 V 0 c 0.34375,-0.015625 0.875,-0.03125 0.921875,-0.03125 0.25,0 0.828125,0.015625 1.015625,0.03125 v -0.46875 c -0.171875,0 -0.359375,-0.046875 -0.359375,-0.109375 0,-0.015625 0,-0.015625 0.0625,-0.09375 l 0.96875,-1.09375 1.09375,1.296875 H 3.53125 V 0 c 0.265625,-0.015625 0.875,-0.03125 1.203125,-0.03125 0.3125,0 0.765625,0.015625 1.09375,0.03125 V -0.46875 H 5.125 Z m 0,0"
               id="id-0dadae81-59fd-4203-b9cb-0736e0a50a51" />
          </symbol>
          <symbol
             overflow="visible"
             id="id-394221b9-a58d-49bd-943f-6492452ffafa">
            <path
               style="stroke:none;stroke-width:0"
               d="M 2.828125,-3.59375 V -6.375 H 4 c 1.609375,0 1.625,0.78125 1.625,1.390625 0,0.5625 0,1.390625 -1.640625,1.390625 z m 2.65625,0.203125 C 6.640625,-3.6875 7.140625,-4.34375 7.140625,-5 c 0,-1 -1.09375,-1.84375 -2.96875,-1.84375 H 0.390625 V -6.375 H 1.46875 v 5.90625 H 0.390625 V 0 c 0.359375,-0.03125 1.328125,-0.03125 1.75,-0.03125 0.421875,0 1.390625,0 1.75,0.03125 v -0.46875 h -1.0625 v -2.765625 h 1.15625 c 0.140625,0 0.578125,0 0.890625,0.328125 0.3125,0.359375 0.3125,0.546875 0.3125,1.265625 0,0.65625 0,1.15625 0.703125,1.484375 0.4375,0.21875 1.0625,0.265625 1.46875,0.265625 1.0625,0 1.1875,-0.890625 1.1875,-1.0625 0,-0.21875 -0.140625,-0.21875 -0.234375,-0.21875 -0.203125,0 -0.21875,0.109375 -0.234375,0.234375 C 8.03125,-0.46875 7.75,-0.25 7.453125,-0.25 c -0.609375,0 -0.6875,-0.703125 -0.75,-1.125 C 6.6875,-1.484375 6.609375,-2.171875 6.59375,-2.21875 6.453125,-2.921875 5.90625,-3.234375 5.484375,-3.390625 Z m 0,0"
               id="id-247d039b-efcf-4ce9-b9da-3454aed80e61" />
          </symbol>
          <symbol
             overflow="visible"
             id="id-9fc8d533-447e-431b-9797-258c69b1e2e8">
            <path
               style="stroke:none;stroke-width:0"
               d="m 1.03125,-3.953125 v 2.734375 c 0,1.0625 0.859375,1.28125 1.578125,1.28125 0.75,0 1.203125,-0.578125 1.203125,-1.296875 v -0.53125 H 3.34375 V -1.25 c 0,0.671875 -0.328125,0.90625 -0.609375,0.90625 -0.578125,0 -0.578125,-0.640625 -0.578125,-0.859375 v -2.75 H 3.625 v -0.46875 H 2.15625 v -1.90625 H 1.6875 c 0,1 -0.484375,1.984375 -1.484375,2.015625 v 0.359375 z m 0,0"
               id="id-091290b3-8a7d-49cc-b54f-f9cb6df91da2" />
          </symbol>
          <symbol
             overflow="visible"
             id="id-ef658195-a595-42b0-8de3-396205bf9602">
            <path
               style="stroke:none;stroke-width:0"
               d=""
               id="id-cd4bc722-f49c-4390-9574-d446c56d9329" />
          </symbol>
          <symbol
             overflow="visible"
             id="id-329fd177-c190-4293-9add-051c125b8ffb">
            <path
               style="stroke:none;stroke-width:0"
               d="m 2.265625,-4.359375 c 0,-0.109375 -0.09375,-0.265625 -0.28125,-0.265625 -0.1875,0 -0.390625,0.1875 -0.390625,0.390625 0,0.109375 0.078125,0.265625 0.28125,0.265625 0.1875,0 0.390625,-0.203125 0.390625,-0.390625 z M 0.84375,-0.8125 c -0.03125,0.09375 -0.0625,0.171875 -0.0625,0.296875 0,0.328125 0.265625,0.578125 0.65625,0.578125 0.6875,0 1,-0.953125 1,-1.0625 0,-0.09375 -0.09375,-0.09375 -0.109375,-0.09375 -0.09375,0 -0.109375,0.046875 -0.140625,0.125 -0.15625,0.5625 -0.453125,0.84375 -0.734375,0.84375 -0.140625,0 -0.171875,-0.09375 -0.171875,-0.25 0,-0.15625 0.046875,-0.28125 0.109375,-0.4375 C 1.46875,-1 1.546875,-1.1875 1.609375,-1.375 1.671875,-1.546875 1.9375,-2.171875 1.953125,-2.265625 1.984375,-2.328125 2,-2.40625 2,-2.484375 2,-2.8125 1.71875,-3.078125 1.34375,-3.078125 0.640625,-3.078125 0.328125,-2.125 0.328125,-2 c 0,0.078125 0.09375,0.078125 0.125,0.078125 0.09375,0 0.09375,-0.03125 0.125,-0.109375 C 0.75,-2.625 1.0625,-2.875 1.3125,-2.875 c 0.109375,0 0.171875,0.046875 0.171875,0.234375 0,0.171875 -0.03125,0.265625 -0.203125,0.703125 z m 0,0"
               id="id-40f722f7-a9bb-4cb3-afa7-20743bf33825" />
          </symbol>
          <symbol
             overflow="visible"
             id="id-7535a64b-d9b8-4df3-902e-4266a7b23b0c">
            <path
               style="stroke:none;stroke-width:0"
               d="M 3.0625,-4.359375 C 3.0625,-4.46875 2.96875,-4.625 2.78125,-4.625 c -0.203125,0 -0.390625,0.203125 -0.390625,0.390625 0,0.109375 0.078125,0.265625 0.28125,0.265625 0.1875,0 0.390625,-0.1875 0.390625,-0.390625 z M 1.578125,0.34375 C 1.46875,0.828125 1.09375,1.21875 0.6875,1.21875 c -0.09375,0 -0.171875,0 -0.25,-0.03125 0.171875,-0.09375 0.234375,-0.25 0.234375,-0.359375 0,-0.171875 -0.140625,-0.25 -0.28125,-0.25 C 0.1875,0.578125 0,0.765625 0,0.984375 c 0,0.265625 0.265625,0.4375 0.6875,0.4375 0.421875,0 1.234375,-0.25 1.453125,-1.09375 l 0.625,-2.5 c 0.015625,-0.078125 0.03125,-0.140625 0.03125,-0.25 0,-0.375 -0.328125,-0.65625 -0.734375,-0.65625 -0.78125,0 -1.21875,0.96875 -1.21875,1.078125 0,0.078125 0.09375,0.078125 0.109375,0.078125 0.078125,0 0.09375,-0.015625 0.140625,-0.125 C 1.265625,-2.453125 1.625,-2.875 2.03125,-2.875 c 0.171875,0 0.234375,0.109375 0.234375,0.34375 0,0.078125 0,0.171875 -0.015625,0.203125 z m 0,0"
               id="id-7aa7fd67-15ed-43e8-bfdb-9b96a7ce0ebd" />
          </symbol>
          <symbol
             overflow="visible"
             id="id-ceebdd31-83e0-4dde-889b-10a1b106e5fa">
            <path
               style="stroke:none;stroke-width:0"
               d=""
               id="id-aeb76982-4410-4483-9351-b1ed76269199" />
          </symbol>
          <symbol
             overflow="visible"
             id="id-1a45ad98-307d-4654-bdee-cc672b1bcded">
            <path
               style="stroke:none;stroke-width:0"
               d="m 2.03125,-0.015625 c 0,-0.65625 -0.25,-1.046875 -0.640625,-1.046875 -0.328125,0 -0.53125,0.25 -0.53125,0.53125 C 0.859375,-0.265625 1.0625,0 1.390625,0 1.5,0 1.640625,-0.046875 1.734375,-0.125 1.765625,-0.15625 1.78125,-0.15625 1.78125,-0.15625 c 0.015625,0 0.015625,0 0.015625,0.140625 0,0.75 -0.34375,1.34375 -0.671875,1.671875 -0.109375,0.109375 -0.109375,0.125 -0.109375,0.15625 0,0.078125 0.046875,0.109375 0.09375,0.109375 0.109375,0 0.921875,-0.765625 0.921875,-1.9375 z m 0,0"
               id="id-b1077a78-550d-4529-a628-0d9f393327a4" />
          </symbol>
          <symbol
             overflow="visible"
             id="id-ed974c29-9d00-4657-9594-382ec0e1236d">
            <path
               style="stroke:none;stroke-width:0"
               d=""
               id="id-c982e26b-0345-4200-994e-662e2b64446f" />
          </symbol>
          <symbol
             overflow="visible"
             id="id-8dc50aa0-59c5-42dd-a5c5-7fc6cfcf44e5">
            <path
               style="stroke:none;stroke-width:0"
               d="m 3.28125,-4.5 h 2.125 c 0.109375,0 0.28125,0 0.28125,-0.15625 0,-0.1875 -0.15625,-0.1875 -0.28125,-0.1875 H 0.8125 c -0.109375,0 -0.28125,0 -0.28125,0.171875 C 0.53125,-4.5 0.703125,-4.5 0.8125,-4.5 h 2.125 v 4.234375 C 2.9375,-0.15625 2.9375,0 3.109375,0 3.28125,0 3.28125,-0.171875 3.28125,-0.265625 Z m 0,0"
               id="id-0b7936ff-7660-42fe-8782-c08ca2540378" />
          </symbol>
          <symbol
             overflow="visible"
             id="id-a87afd8a-815f-4966-93d2-5f26ef78c4e6">
            <path
               style="stroke:none;stroke-width:0"
               d=""
               id="id-d25f09d3-e42c-45ef-8e05-e67a0264f83a" />
          </symbol>
          <symbol
             overflow="visible"
             id="id-ca3532a1-fb99-4de7-8c6d-8cdfe5c3b301">
            <path
               style="stroke:none;stroke-width:0"
               d="m 6.5625,-2.296875 c 0.171875,0 0.359375,0 0.359375,-0.203125 0,-0.1875 -0.1875,-0.1875 -0.359375,-0.1875 H 1.171875 c -0.171875,0 -0.34375,0 -0.34375,0.1875 0,0.203125 0.171875,0.203125 0.34375,0.203125 z m 0,0"
               id="id-76a5482a-73f4-4f9d-9290-c351795a4265" />
          </symbol>
        </g>
      </defs>
      <g
         id="id-64934110-a489-43f4-ba59-3a8fce6794a0"
         transform="translate(-250.719,-137.503)">
        <g
           style="fill:#000000;fill-opacity:1"
           id="id-f936cb73-3eeb-4efe-9a23-7ec0946af8df">
          <g
             transform="translate(250.461,146.581)"
             id="g179">
            <path
               style="stroke:none;stroke-width:0"
               d="M 2.5,-6.921875 1.15625,-5.5625 1.328125,-5.390625 2.5,-6.40625 3.640625,-5.390625 3.8125,-5.5625 Z m 0,0"
               id="id-fe070080-64dd-484a-9440-7307520e1964" />
          </g>
        </g>
        <g
           style="fill:#000000;fill-opacity:1"
           id="id-6e421fc3-6525-423c-84da-86048e26bc85">
          <g
             transform="translate(250.406,146.72)"
             id="g183">
            <path
               style="stroke:none;stroke-width:0"
               d="M 4.46875,-4 C 4.5625,-4.109375 4.578125,-4.125 4.578125,-4.21875 4.578125,-4.421875 4.4375,-4.421875 4.25,-4.421875 H 0.59375 L 0.484375,-2.6875 h 0.46875 C 1,-3.703125 1.3125,-4.0625 2.34375,-4.0625 H 3.1875 l -2.78125,3.625 C 0.3125,-0.328125 0.3125,-0.3125 0.3125,-0.21875 0.3125,0 0.453125,0 0.640625,0 h 3.78125 l 0.1875,-2.015625 H 4.140625 C 4.046875,-1 3.890625,-0.40625 2.578125,-0.40625 H 1.71875 Z m 0,0"
               id="id-089cd7dd-4083-4e7d-aa12-4b5c93cb33f8" />
          </g>
        </g>
        <g
           style="fill:#000000;fill-opacity:1"
           id="id-0cbef8cf-3bb4-4a36-a0b3-461d8e377502">
          <g
             transform="translate(255.498,148.214)"
             id="g187">
            <path
               style="stroke:none;stroke-width:0"
               d="m 2.265625,-4.359375 c 0,-0.109375 -0.09375,-0.265625 -0.28125,-0.265625 -0.1875,0 -0.390625,0.1875 -0.390625,0.390625 0,0.109375 0.078125,0.265625 0.28125,0.265625 0.1875,0 0.390625,-0.203125 0.390625,-0.390625 z M 0.84375,-0.8125 c -0.03125,0.09375 -0.0625,0.171875 -0.0625,0.296875 0,0.328125 0.265625,0.578125 0.65625,0.578125 0.6875,0 1,-0.953125 1,-1.0625 0,-0.09375 -0.09375,-0.09375 -0.109375,-0.09375 -0.09375,0 -0.109375,0.046875 -0.140625,0.125 -0.15625,0.5625 -0.453125,0.84375 -0.734375,0.84375 -0.140625,0 -0.171875,-0.09375 -0.171875,-0.25 0,-0.15625 0.046875,-0.28125 0.109375,-0.4375 C 1.46875,-1 1.546875,-1.1875 1.609375,-1.375 1.671875,-1.546875 1.9375,-2.171875 1.953125,-2.265625 1.984375,-2.328125 2,-2.40625 2,-2.484375 2,-2.8125 1.71875,-3.078125 1.34375,-3.078125 0.640625,-3.078125 0.328125,-2.125 0.328125,-2 c 0,0.078125 0.09375,0.078125 0.125,0.078125 0.09375,0 0.09375,-0.03125 0.125,-0.109375 C 0.75,-2.625 1.0625,-2.875 1.3125,-2.875 c 0.109375,0 0.171875,0.046875 0.171875,0.234375 0,0.171875 -0.03125,0.265625 -0.203125,0.703125 z m 0,0"
               id="id-d711868e-3299-41fa-817a-64dfbfceef39" />
          </g>
          <g
             transform="translate(258.317,148.214)"
             id="g190">
            <path
               style="stroke:none;stroke-width:0"
               d="M 3.0625,-4.359375 C 3.0625,-4.46875 2.96875,-4.625 2.78125,-4.625 c -0.203125,0 -0.390625,0.203125 -0.390625,0.390625 0,0.109375 0.078125,0.265625 0.28125,0.265625 0.1875,0 0.390625,-0.1875 0.390625,-0.390625 z M 1.578125,0.34375 C 1.46875,0.828125 1.09375,1.21875 0.6875,1.21875 c -0.09375,0 -0.171875,0 -0.25,-0.03125 0.171875,-0.09375 0.234375,-0.25 0.234375,-0.359375 0,-0.171875 -0.140625,-0.25 -0.28125,-0.25 C 0.1875,0.578125 0,0.765625 0,0.984375 c 0,0.265625 0.265625,0.4375 0.6875,0.4375 0.421875,0 1.234375,-0.25 1.453125,-1.09375 l 0.625,-2.5 c 0.015625,-0.078125 0.03125,-0.140625 0.03125,-0.25 0,-0.375 -0.328125,-0.65625 -0.734375,-0.65625 -0.78125,0 -1.21875,0.96875 -1.21875,1.078125 0,0.078125 0.09375,0.078125 0.109375,0.078125 0.078125,0 0.09375,-0.015625 0.140625,-0.125 C 1.265625,-2.453125 1.625,-2.875 2.03125,-2.875 c 0.171875,0 0.234375,0.109375 0.234375,0.34375 0,0.078125 0,0.171875 -0.015625,0.203125 z m 0,0"
               id="id-d86210f5-87ae-4ea0-ae74-4e6109f28aae" />
          </g>
        </g>
        <g
           style="fill:#000000;fill-opacity:1"
           id="id-e15b9e52-0fc2-47fd-985f-fae427eabb35">
          <g
             transform="translate(262.514,146.72)"
             id="g194">
            <path
               style="stroke:none;stroke-width:0"
               d="m 3.296875,2.390625 c 0,-0.03125 0,-0.046875 -0.171875,-0.21875 C 1.890625,0.921875 1.5625,-0.96875 1.5625,-2.5 c 0,-1.734375 0.375,-3.46875 1.609375,-4.703125 0.125,-0.125 0.125,-0.140625 0.125,-0.171875 0,-0.078125 -0.03125,-0.109375 -0.09375,-0.109375 -0.109375,0 -1,0.6875 -1.59375,1.953125 -0.5,1.09375 -0.625,2.203125 -0.625,3.03125 0,0.78125 0.109375,1.984375 0.65625,3.125 C 2.25,1.84375 3.09375,2.5 3.203125,2.5 c 0.0625,0 0.09375,-0.03125 0.09375,-0.109375 z m 0,0"
               id="id-bce11403-056d-4dae-8a76-0a6176bf5ab9" />
          </g>
        </g>
        <g
           style="fill:#000000;fill-opacity:1"
           id="id-4032240e-d9db-4b50-87cc-d8aab1643d53">
          <g
             transform="translate(266.389,146.72)"
             id="g198">
            <path
               style="stroke:none;stroke-width:0"
               d="M 3.453125,-2.453125 4.609375,-3.75 C 4.75,-3.890625 4.8125,-3.953125 5.625,-3.953125 v -0.46875 c -0.34375,0.015625 -0.859375,0.03125 -0.90625,0.03125 -0.25,0 -0.75,-0.03125 -1.03125,-0.03125 v 0.46875 c 0.140625,0 0.265625,0.015625 0.375,0.078125 -0.03125,0.0625 -0.03125,0.09375 -0.078125,0.125 L 3.15625,-2.8125 2.171875,-3.953125 h 0.40625 v -0.46875 c -0.265625,0 -0.890625,0.03125 -1.21875,0.03125 -0.3125,0 -0.765625,-0.03125 -1.09375,-0.03125 v 0.46875 h 0.71875 L 2.53125,-2.125 1.21875,-0.65625 c -0.15625,0.1875 -0.515625,0.1875 -1,0.1875 V 0 c 0.34375,-0.015625 0.875,-0.03125 0.921875,-0.03125 0.25,0 0.828125,0.015625 1.015625,0.03125 v -0.46875 c -0.171875,0 -0.359375,-0.046875 -0.359375,-0.109375 0,-0.015625 0,-0.015625 0.0625,-0.09375 l 0.96875,-1.09375 1.09375,1.296875 H 3.53125 V 0 c 0.265625,-0.015625 0.875,-0.03125 1.203125,-0.03125 0.3125,0 0.765625,0.015625 1.09375,0.03125 V -0.46875 H 5.125 Z m 0,0"
               id="id-58ab48f8-7867-4e2e-a679-ff834c878493" />
          </g>
        </g>
        <g
           style="fill:#000000;fill-opacity:1"
           id="id-6c66a853-120d-4a33-9750-1719854d1a06">
          <g
             transform="translate(272.435,148.214)"
             id="g202">
            <path
               style="stroke:none;stroke-width:0"
               d="m 2.265625,-4.359375 c 0,-0.109375 -0.09375,-0.265625 -0.28125,-0.265625 -0.1875,0 -0.390625,0.1875 -0.390625,0.390625 0,0.109375 0.078125,0.265625 0.28125,0.265625 0.1875,0 0.390625,-0.203125 0.390625,-0.390625 z M 0.84375,-0.8125 c -0.03125,0.09375 -0.0625,0.171875 -0.0625,0.296875 0,0.328125 0.265625,0.578125 0.65625,0.578125 0.6875,0 1,-0.953125 1,-1.0625 0,-0.09375 -0.09375,-0.09375 -0.109375,-0.09375 -0.09375,0 -0.109375,0.046875 -0.140625,0.125 -0.15625,0.5625 -0.453125,0.84375 -0.734375,0.84375 -0.140625,0 -0.171875,-0.09375 -0.171875,-0.25 0,-0.15625 0.046875,-0.28125 0.109375,-0.4375 C 1.46875,-1 1.546875,-1.1875 1.609375,-1.375 1.671875,-1.546875 1.9375,-2.171875 1.953125,-2.265625 1.984375,-2.328125 2,-2.40625 2,-2.484375 2,-2.8125 1.71875,-3.078125 1.34375,-3.078125 0.640625,-3.078125 0.328125,-2.125 0.328125,-2 c 0,0.078125 0.09375,0.078125 0.125,0.078125 0.09375,0 0.09375,-0.03125 0.125,-0.109375 C 0.75,-2.625 1.0625,-2.875 1.3125,-2.875 c 0.109375,0 0.171875,0.046875 0.171875,0.234375 0,0.171875 -0.03125,0.265625 -0.203125,0.703125 z m 0,0"
               id="id-dab91602-4fd0-4577-b3e0-a723aea4f8a2" />
          </g>
        </g>
        <g
           style="fill:#000000;fill-opacity:1"
           id="id-e3429ed3-59f1-4c2f-9841-474dba24d4da">
          <g
             transform="translate(275.752,146.72)"
             id="g206">
            <path
               style="stroke:none;stroke-width:0"
               d="m 2.03125,-0.015625 c 0,-0.65625 -0.25,-1.046875 -0.640625,-1.046875 -0.328125,0 -0.53125,0.25 -0.53125,0.53125 C 0.859375,-0.265625 1.0625,0 1.390625,0 1.5,0 1.640625,-0.046875 1.734375,-0.125 1.765625,-0.15625 1.78125,-0.15625 1.78125,-0.15625 c 0.015625,0 0.015625,0 0.015625,0.140625 0,0.75 -0.34375,1.34375 -0.671875,1.671875 -0.109375,0.109375 -0.109375,0.125 -0.109375,0.15625 0,0.078125 0.046875,0.109375 0.09375,0.109375 0.109375,0 0.921875,-0.765625 0.921875,-1.9375 z m 0,0"
               id="id-aaa8d3d8-b8d8-4bb0-a8c9-779cfe9c0d40" />
          </g>
        </g>
        <g
           style="fill:#000000;fill-opacity:1"
           id="id-4c36d997-0690-4939-8ed6-e794c5187b56">
          <g
             transform="translate(280.18,146.72)"
             id="g210">
            <path
               style="stroke:none;stroke-width:0"
               d="M 3.453125,-2.453125 4.609375,-3.75 C 4.75,-3.890625 4.8125,-3.953125 5.625,-3.953125 v -0.46875 c -0.34375,0.015625 -0.859375,0.03125 -0.90625,0.03125 -0.25,0 -0.75,-0.03125 -1.03125,-0.03125 v 0.46875 c 0.140625,0 0.265625,0.015625 0.375,0.078125 -0.03125,0.0625 -0.03125,0.09375 -0.078125,0.125 L 3.15625,-2.8125 2.171875,-3.953125 h 0.40625 v -0.46875 c -0.265625,0 -0.890625,0.03125 -1.21875,0.03125 -0.3125,0 -0.765625,-0.03125 -1.09375,-0.03125 v 0.46875 h 0.71875 L 2.53125,-2.125 1.21875,-0.65625 c -0.15625,0.1875 -0.515625,0.1875 -1,0.1875 V 0 c 0.34375,-0.015625 0.875,-0.03125 0.921875,-0.03125 0.25,0 0.828125,0.015625 1.015625,0.03125 v -0.46875 c -0.171875,0 -0.359375,-0.046875 -0.359375,-0.109375 0,-0.015625 0,-0.015625 0.0625,-0.09375 l 0.96875,-1.09375 1.09375,1.296875 H 3.53125 V 0 c 0.265625,-0.015625 0.875,-0.03125 1.203125,-0.03125 0.3125,0 0.765625,0.015625 1.09375,0.03125 V -0.46875 H 5.125 Z m 0,0"
               id="id-78138926-87bb-42e5-8c2b-91eb1f958e8c" />
          </g>
        </g>
        <g
           style="fill:#000000;fill-opacity:1"
           id="id-cf88aa8c-9e27-42bf-ae37-897140daf6f8">
          <g
             transform="translate(286.227,148.214)"
             id="g214">
            <path
               style="stroke:none;stroke-width:0"
               d="M 3.0625,-4.359375 C 3.0625,-4.46875 2.96875,-4.625 2.78125,-4.625 c -0.203125,0 -0.390625,0.203125 -0.390625,0.390625 0,0.109375 0.078125,0.265625 0.28125,0.265625 0.1875,0 0.390625,-0.1875 0.390625,-0.390625 z M 1.578125,0.34375 C 1.46875,0.828125 1.09375,1.21875 0.6875,1.21875 c -0.09375,0 -0.171875,0 -0.25,-0.03125 0.171875,-0.09375 0.234375,-0.25 0.234375,-0.359375 0,-0.171875 -0.140625,-0.25 -0.28125,-0.25 C 0.1875,0.578125 0,0.765625 0,0.984375 c 0,0.265625 0.265625,0.4375 0.6875,0.4375 0.421875,0 1.234375,-0.25 1.453125,-1.09375 l 0.625,-2.5 c 0.015625,-0.078125 0.03125,-0.140625 0.03125,-0.25 0,-0.375 -0.328125,-0.65625 -0.734375,-0.65625 -0.78125,0 -1.21875,0.96875 -1.21875,1.078125 0,0.078125 0.09375,0.078125 0.109375,0.078125 0.078125,0 0.09375,-0.015625 0.140625,-0.125 C 1.265625,-2.453125 1.625,-2.875 2.03125,-2.875 c 0.171875,0 0.234375,0.109375 0.234375,0.34375 0,0.078125 0,0.171875 -0.015625,0.203125 z m 0,0"
               id="id-ec9ec257-9280-43d5-851d-f2a816e8c2be" />
          </g>
        </g>
        <g
           style="fill:#000000;fill-opacity:1"
           id="id-7ab88198-e536-4db5-a671-9c8560343f8c">
          <g
             transform="translate(290.425,146.72)"
             id="g218">
            <path
               style="stroke:none;stroke-width:0"
               d="m 2.875,-2.5 c 0,-0.765625 -0.109375,-1.96875 -0.65625,-3.109375 -0.59375,-1.21875 -1.453125,-1.875 -1.546875,-1.875 -0.0625,0 -0.109375,0.046875 -0.109375,0.109375 0,0.03125 0,0.046875 0.1875,0.234375 0.984375,0.984375 1.546875,2.5625 1.546875,4.640625 0,1.71875 -0.359375,3.46875 -1.59375,4.71875 C 0.5625,2.34375 0.5625,2.359375 0.5625,2.390625 0.5625,2.453125 0.609375,2.5 0.671875,2.5 0.765625,2.5 1.671875,1.8125 2.25,0.546875 2.765625,-0.546875 2.875,-1.65625 2.875,-2.5 Z m 0,0"
               id="id-9c8691b9-5619-4f72-ac9f-bc38bca2b73b" />
          </g>
        </g>
        <g
           style="fill:#000000;fill-opacity:1"
           id="id-eb3f2a5d-4142-414c-9ab8-146d46200e15">
          <g
             transform="translate(297.069,146.72)"
             id="g222">
            <path
               style="stroke:none;stroke-width:0"
               d="m 6.84375,-3.265625 c 0.15625,0 0.34375,0 0.34375,-0.1875 C 7.1875,-3.65625 7,-3.65625 6.859375,-3.65625 h -5.96875 c -0.140625,0 -0.328125,0 -0.328125,0.203125 0,0.1875 0.1875,0.1875 0.328125,0.1875 z m 0.015625,1.9375 c 0.140625,0 0.328125,0 0.328125,-0.203125 0,-0.1875 -0.1875,-0.1875 -0.34375,-0.1875 H 0.890625 c -0.140625,0 -0.328125,0 -0.328125,0.1875 0,0.203125 0.1875,0.203125 0.328125,0.203125 z m 0,0"
               id="id-90395b2e-cc5b-4e3a-9a4d-abfaabbab86c" />
          </g>
        </g>
        <g
           style="fill:#000000;fill-opacity:1"
           id="id-fb76fdc8-c52b-4eef-b9d5-2779e61fb1ff">
          <g
             transform="translate(307.582,146.72)"
             id="g226">
            <path
               style="stroke:none;stroke-width:0"
               d="M 2.828125,-3.59375 V -6.375 H 4 c 1.609375,0 1.625,0.78125 1.625,1.390625 0,0.5625 0,1.390625 -1.640625,1.390625 z m 2.65625,0.203125 C 6.640625,-3.6875 7.140625,-4.34375 7.140625,-5 c 0,-1 -1.09375,-1.84375 -2.96875,-1.84375 H 0.390625 V -6.375 H 1.46875 v 5.90625 H 0.390625 V 0 c 0.359375,-0.03125 1.328125,-0.03125 1.75,-0.03125 0.421875,0 1.390625,0 1.75,0.03125 v -0.46875 h -1.0625 v -2.765625 h 1.15625 c 0.140625,0 0.578125,0 0.890625,0.328125 0.3125,0.359375 0.3125,0.546875 0.3125,1.265625 0,0.65625 0,1.15625 0.703125,1.484375 0.4375,0.21875 1.0625,0.265625 1.46875,0.265625 1.0625,0 1.1875,-0.890625 1.1875,-1.0625 0,-0.21875 -0.140625,-0.21875 -0.234375,-0.21875 -0.203125,0 -0.21875,0.109375 -0.234375,0.234375 C 8.03125,-0.46875 7.75,-0.25 7.453125,-0.25 c -0.609375,0 -0.6875,-0.703125 -0.75,-1.125 C 6.6875,-1.484375 6.609375,-2.171875 6.59375,-2.21875 6.453125,-2.921875 5.90625,-3.234375 5.484375,-3.390625 Z m 0,0"
               id="id-ea7530f3-6481-436d-88f0-0841da3ee5dc" />
          </g>
        </g>
        <g
           style="fill:#000000;fill-opacity:1"
           id="id-cb0a0129-afdf-4dcb-a2bf-690d228799ca">
          <g
             transform="translate(316.175,142.347)"
             id="g230">
            <path
               style="stroke:none;stroke-width:0"
               d="m 3.28125,-4.5 h 2.125 c 0.109375,0 0.28125,0 0.28125,-0.15625 0,-0.1875 -0.15625,-0.1875 -0.28125,-0.1875 H 0.8125 c -0.109375,0 -0.28125,0 -0.28125,0.171875 C 0.53125,-4.5 0.703125,-4.5 0.8125,-4.5 h 2.125 v 4.234375 C 2.9375,-0.15625 2.9375,0 3.109375,0 3.28125,0 3.28125,-0.171875 3.28125,-0.265625 Z m 0,0"
               id="id-15ff8d32-bac1-4cfb-829b-50b726acf8cd" />
          </g>
        </g>
        <g
           style="fill:#000000;fill-opacity:1"
           id="id-41e53d24-4663-4bb0-bda4-96f1447ae259">
          <g
             transform="translate(316.175,149.183)"
             id="g234">
            <path
               style="stroke:none;stroke-width:0"
               d="m 2.265625,-4.359375 c 0,-0.109375 -0.09375,-0.265625 -0.28125,-0.265625 -0.1875,0 -0.390625,0.1875 -0.390625,0.390625 0,0.109375 0.078125,0.265625 0.28125,0.265625 0.1875,0 0.390625,-0.203125 0.390625,-0.390625 z M 0.84375,-0.8125 c -0.03125,0.09375 -0.0625,0.171875 -0.0625,0.296875 0,0.328125 0.265625,0.578125 0.65625,0.578125 0.6875,0 1,-0.953125 1,-1.0625 0,-0.09375 -0.09375,-0.09375 -0.109375,-0.09375 -0.09375,0 -0.109375,0.046875 -0.140625,0.125 -0.15625,0.5625 -0.453125,0.84375 -0.734375,0.84375 -0.140625,0 -0.171875,-0.09375 -0.171875,-0.25 0,-0.15625 0.046875,-0.28125 0.109375,-0.4375 C 1.46875,-1 1.546875,-1.1875 1.609375,-1.375 1.671875,-1.546875 1.9375,-2.171875 1.953125,-2.265625 1.984375,-2.328125 2,-2.40625 2,-2.484375 2,-2.8125 1.71875,-3.078125 1.34375,-3.078125 0.640625,-3.078125 0.328125,-2.125 0.328125,-2 c 0,0.078125 0.09375,0.078125 0.125,0.078125 0.09375,0 0.09375,-0.03125 0.125,-0.109375 C 0.75,-2.625 1.0625,-2.875 1.3125,-2.875 c 0.109375,0 0.171875,0.046875 0.171875,0.234375 0,0.171875 -0.03125,0.265625 -0.203125,0.703125 z m 0,0"
               id="id-de92fc32-d30b-430a-945a-1dcd04a35218" />
          </g>
        </g>
        <g
           style="fill:#000000;fill-opacity:1"
           id="id-2681e77e-4467-498c-bbf2-06d2aebe8b58">
          <g
             transform="translate(322.9,146.72)"
             id="g238">
            <path
               style="stroke:none;stroke-width:0"
               d="m 3.296875,2.390625 c 0,-0.03125 0,-0.046875 -0.171875,-0.21875 C 1.890625,0.921875 1.5625,-0.96875 1.5625,-2.5 c 0,-1.734375 0.375,-3.46875 1.609375,-4.703125 0.125,-0.125 0.125,-0.140625 0.125,-0.171875 0,-0.078125 -0.03125,-0.109375 -0.09375,-0.109375 -0.109375,0 -1,0.6875 -1.59375,1.953125 -0.5,1.09375 -0.625,2.203125 -0.625,3.03125 0,0.78125 0.109375,1.984375 0.65625,3.125 C 2.25,1.84375 3.09375,2.5 3.203125,2.5 c 0.0625,0 0.09375,-0.03125 0.09375,-0.109375 z m 0,0"
               id="id-bf6f0d3e-b345-42e3-b6e1-241897726283" />
          </g>
        </g>
        <g
           style="fill:#000000;fill-opacity:1"
           id="id-70de5c30-312f-4c78-b72b-1757ac735c56">
          <g
             transform="translate(326.774,146.72)"
             id="g242">
            <path
               style="stroke:none;stroke-width:0"
               d="M 3.453125,-2.453125 4.609375,-3.75 C 4.75,-3.890625 4.8125,-3.953125 5.625,-3.953125 v -0.46875 c -0.34375,0.015625 -0.859375,0.03125 -0.90625,0.03125 -0.25,0 -0.75,-0.03125 -1.03125,-0.03125 v 0.46875 c 0.140625,0 0.265625,0.015625 0.375,0.078125 -0.03125,0.0625 -0.03125,0.09375 -0.078125,0.125 L 3.15625,-2.8125 2.171875,-3.953125 h 0.40625 v -0.46875 c -0.265625,0 -0.890625,0.03125 -1.21875,0.03125 -0.3125,0 -0.765625,-0.03125 -1.09375,-0.03125 v 0.46875 h 0.71875 L 2.53125,-2.125 1.21875,-0.65625 c -0.15625,0.1875 -0.515625,0.1875 -1,0.1875 V 0 c 0.34375,-0.015625 0.875,-0.03125 0.921875,-0.03125 0.25,0 0.828125,0.015625 1.015625,0.03125 v -0.46875 c -0.171875,0 -0.359375,-0.046875 -0.359375,-0.109375 0,-0.015625 0,-0.015625 0.0625,-0.09375 l 0.96875,-1.09375 1.09375,1.296875 H 3.53125 V 0 c 0.265625,-0.015625 0.875,-0.03125 1.203125,-0.03125 0.3125,0 0.765625,0.015625 1.09375,0.03125 V -0.46875 H 5.125 Z m 0,0"
               id="id-9245e8e4-1811-40f6-95d4-117296273a04" />
          </g>
        </g>
        <g
           style="fill:#000000;fill-opacity:1"
           id="id-174c58ae-fc7c-4558-a573-9fac7e6a36fa">
          <g
             transform="translate(332.821,148.214)"
             id="g246">
            <path
               style="stroke:none;stroke-width:0"
               d="M 3.0625,-4.359375 C 3.0625,-4.46875 2.96875,-4.625 2.78125,-4.625 c -0.203125,0 -0.390625,0.203125 -0.390625,0.390625 0,0.109375 0.078125,0.265625 0.28125,0.265625 0.1875,0 0.390625,-0.1875 0.390625,-0.390625 z M 1.578125,0.34375 C 1.46875,0.828125 1.09375,1.21875 0.6875,1.21875 c -0.09375,0 -0.171875,0 -0.25,-0.03125 0.171875,-0.09375 0.234375,-0.25 0.234375,-0.359375 0,-0.171875 -0.140625,-0.25 -0.28125,-0.25 C 0.1875,0.578125 0,0.765625 0,0.984375 c 0,0.265625 0.265625,0.4375 0.6875,0.4375 0.421875,0 1.234375,-0.25 1.453125,-1.09375 l 0.625,-2.5 c 0.015625,-0.078125 0.03125,-0.140625 0.03125,-0.25 0,-0.375 -0.328125,-0.65625 -0.734375,-0.65625 -0.78125,0 -1.21875,0.96875 -1.21875,1.078125 0,0.078125 0.09375,0.078125 0.109375,0.078125 0.078125,0 0.09375,-0.015625 0.140625,-0.125 C 1.265625,-2.453125 1.625,-2.875 2.03125,-2.875 c 0.171875,0 0.234375,0.109375 0.234375,0.34375 0,0.078125 0,0.171875 -0.015625,0.203125 z m 0,0"
               id="id-d80f4ba5-3e76-4ca9-8c38-bebe12bc21c1" />
          </g>
        </g>
        <g
           style="fill:#000000;fill-opacity:1"
           id="id-85745940-5f86-441f-964d-db577f195518">
          <g
             transform="translate(339.233,146.72)"
             id="g250">
            <path
               style="stroke:none;stroke-width:0"
               d="m 6.5625,-2.296875 c 0.171875,0 0.359375,0 0.359375,-0.203125 0,-0.1875 -0.1875,-0.1875 -0.359375,-0.1875 H 1.171875 c -0.171875,0 -0.34375,0 -0.34375,0.1875 0,0.203125 0.171875,0.203125 0.34375,0.203125 z m 0,0"
               id="id-11bd5d66-76af-4081-a05f-770d06f3deb0" />
          </g>
        </g>
        <g
           style="fill:#000000;fill-opacity:1"
           id="id-f1aa5df1-d251-4dcf-9418-9a13ca9ed24a">
          <g
             transform="translate(349.195,146.72)"
             id="g254">
            <path
               style="stroke:none;stroke-width:0"
               d="m 1.03125,-3.953125 v 2.734375 c 0,1.0625 0.859375,1.28125 1.578125,1.28125 0.75,0 1.203125,-0.578125 1.203125,-1.296875 v -0.53125 H 3.34375 V -1.25 c 0,0.671875 -0.328125,0.90625 -0.609375,0.90625 -0.578125,0 -0.578125,-0.640625 -0.578125,-0.859375 v -2.75 H 3.625 v -0.46875 H 2.15625 v -1.90625 H 1.6875 c 0,1 -0.484375,1.984375 -1.484375,2.015625 v 0.359375 z m 0,0"
               id="id-71340fe8-e096-4cb3-b7ad-766ab464f5e3" />
          </g>
        </g>
        <g
           style="fill:#000000;fill-opacity:1"
           id="id-24baf4fb-3c92-4bac-aebe-ed080024ba5e">
          <g
             transform="translate(353.651,148.214)"
             id="g258">
            <path
               style="stroke:none;stroke-width:0"
               d="m 2.265625,-4.359375 c 0,-0.109375 -0.09375,-0.265625 -0.28125,-0.265625 -0.1875,0 -0.390625,0.1875 -0.390625,0.390625 0,0.109375 0.078125,0.265625 0.28125,0.265625 0.1875,0 0.390625,-0.203125 0.390625,-0.390625 z M 0.84375,-0.8125 c -0.03125,0.09375 -0.0625,0.171875 -0.0625,0.296875 0,0.328125 0.265625,0.578125 0.65625,0.578125 0.6875,0 1,-0.953125 1,-1.0625 0,-0.09375 -0.09375,-0.09375 -0.109375,-0.09375 -0.09375,0 -0.109375,0.046875 -0.140625,0.125 -0.15625,0.5625 -0.453125,0.84375 -0.734375,0.84375 -0.140625,0 -0.171875,-0.09375 -0.171875,-0.25 0,-0.15625 0.046875,-0.28125 0.109375,-0.4375 C 1.46875,-1 1.546875,-1.1875 1.609375,-1.375 1.671875,-1.546875 1.9375,-2.171875 1.953125,-2.265625 1.984375,-2.328125 2,-2.40625 2,-2.484375 2,-2.8125 1.71875,-3.078125 1.34375,-3.078125 0.640625,-3.078125 0.328125,-2.125 0.328125,-2 c 0,0.078125 0.09375,0.078125 0.125,0.078125 0.09375,0 0.09375,-0.03125 0.125,-0.109375 C 0.75,-2.625 1.0625,-2.875 1.3125,-2.875 c 0.109375,0 0.171875,0.046875 0.171875,0.234375 0,0.171875 -0.03125,0.265625 -0.203125,0.703125 z m 0,0"
               id="id-5ad059a0-3f83-476b-bb13-f08ccfc1078d" />
          </g>
        </g>
        <g
           style="fill:#000000;fill-opacity:1"
           id="id-9a87d24c-ea2d-4862-a2d4-69137ee5e2eb">
          <g
             transform="translate(356.968,146.72)"
             id="g262">
            <path
               style="stroke:none;stroke-width:0"
               d="m 2.875,-2.5 c 0,-0.765625 -0.109375,-1.96875 -0.65625,-3.109375 -0.59375,-1.21875 -1.453125,-1.875 -1.546875,-1.875 -0.0625,0 -0.109375,0.046875 -0.109375,0.109375 0,0.03125 0,0.046875 0.1875,0.234375 0.984375,0.984375 1.546875,2.5625 1.546875,4.640625 0,1.71875 -0.359375,3.46875 -1.59375,4.71875 C 0.5625,2.34375 0.5625,2.359375 0.5625,2.390625 0.5625,2.453125 0.609375,2.5 0.671875,2.5 0.765625,2.5 1.671875,1.8125 2.25,0.546875 2.765625,-0.546875 2.875,-1.65625 2.875,-2.5 Z m 0,0"
               id="id-be70aa6f-8526-4bd9-9b61-4be18d3daa15" />
          </g>
        </g>
      </g>
    </g>
    <path
       style="fill:#ff0000;stroke:#ff0000;stroke-width:0.264583px;stroke-linecap:butt;stroke-linejoin:miter;stroke-opacity:1;marker-end:url(#Arrow1L)"
       d="m 48.099108,154.44004 v -1.79555"
       id="path544" />
    <path
       style="fill:#ff0000;stroke:#ff0000;stroke-width:0.264583px;stroke-linecap:butt;stroke-linejoin:miter;stroke-opacity:1;marker-end:url(#Arrow1L-3)"
       d="m 53.110588,154.44004 v -1.79555"
       id="path544-7" />
    <path
       style="fill:#ff0000;stroke:#ff0000;stroke-width:0.264583px;stroke-linecap:butt;stroke-linejoin:miter;stroke-opacity:1;marker-end:url(#Arrow1L-6)"
       d="m 77.613088,154.44004 v -1.79555"
       id="path544-9" />
    <text
       xml:space="preserve"
       style="font-style:normal;font-variant:normal;font-weight:normal;font-stretch:normal;font-size:3.52778px;line-height:1.25;font-family:'CMU Serif';-inkscape-font-specification:'CMU Serif, Normal';font-variant-ligatures:none;font-variant-caps:normal;font-variant-numeric:normal;font-variant-east-asian:normal;fill:#ff0000;stroke-width:0.264583"
       x="41.227364"
       y="157.30469"
       id="text3200"><tspan
         sodipodi:role="line"
         id="tspan3198"
         style="font-style:normal;font-variant:normal;font-weight:normal;font-stretch:normal;font-size:3.52778px;font-family:'CMU Serif';-inkscape-font-specification:'CMU Serif, Normal';font-variant-ligatures:none;font-variant-caps:normal;font-variant-numeric:normal;font-variant-east-asian:normal;fill:#ff0000;stroke-width:0.264583"
         x="41.227364"
         y="157.30469">robot</tspan></text>
    <text
       xml:space="preserve"
       style="font-style:normal;font-variant:normal;font-weight:normal;font-stretch:normal;font-size:3.52778px;line-height:1.25;font-family:'CMU Serif';-inkscape-font-specification:'CMU Serif, Normal';font-variant-ligatures:none;font-variant-caps:normal;font-variant-numeric:normal;font-variant-east-asian:normal;fill:#ff0000;stroke-width:0.264583"
       x="52.837421"
       y="157.29631"
       id="text3200-2"><tspan
         sodipodi:role="line"
         id="tspan3198-8"
         style="font-style:normal;font-variant:normal;font-weight:normal;font-stretch:normal;font-size:3.52778px;font-family:'CMU Serif';-inkscape-font-specification:'CMU Serif, Normal';font-variant-ligatures:none;font-variant-caps:normal;font-variant-numeric:normal;font-variant-east-asian:normal;fill:#ff0000;stroke-width:0.264583"
         x="52.837421"
         y="157.29631">landmark</tspan></text>
    <text
       xml:space="preserve"
       style="font-style:normal;font-variant:normal;font-weight:normal;font-stretch:normal;font-size:3.52778px;line-height:1.25;font-family:'CMU Serif';-inkscape-font-specification:'CMU Serif, Normal';font-variant-ligatures:none;font-variant-caps:normal;font-variant-numeric:normal;font-variant-east-asian:normal;fill:#ff0000;stroke-width:0.264583"
       x="76.279808"
       y="157.17229"
       id="text3200-2-9"><tspan
         sodipodi:role="line"
         id="tspan3198-8-7"
         style="font-style:normal;font-variant:normal;font-weight:normal;font-stretch:normal;font-size:3.52778px;font-family:'CMU Serif';-inkscape-font-specification:'CMU Serif, Normal';font-variant-ligatures:none;font-variant-caps:normal;font-variant-numeric:normal;font-variant-east-asian:normal;fill:#ff0000;stroke-width:0.264583"
         x="76.279808"
         y="157.17229">robot translation</tspan></text>
  </g>
</svg>
