<?xml version="1.0" encoding="UTF-8" standalone="no"?>
<!-- Created with Inkscape (http://www.inkscape.org/) -->

<svg
   width="26.408794mm"
   height="14.883829mm"
   viewBox="0 0 26.408794 14.883829"
   version="1.1"
   id="svg5"
   sodipodi:docname="map_probability_distribution.svg"
   inkscape:version="1.2 (1:1.2.1+202207142221+cd75a1ee6d)"
   xmlns:inkscape="http://www.inkscape.org/namespaces/inkscape"
   xmlns:sodipodi="http://sodipodi.sourceforge.net/DTD/sodipodi-0.dtd"
   xmlns="http://www.w3.org/2000/svg"
   xmlns:svg="http://www.w3.org/2000/svg">
  <sodipodi:namedview
     id="namedview7"
     pagecolor="#ffffff"
     bordercolor="#666666"
     borderopacity="1.0"
     inkscape:showpageshadow="2"
     inkscape:pageopacity="0.0"
     inkscape:pagecheckerboard="0"
     inkscape:deskcolor="#d1d1d1"
     inkscape:document-units="mm"
     showgrid="false"
     inkscape:zoom="4.2835116"
     inkscape:cx="69.102182"
     inkscape:cy="42.605231"
     inkscape:window-width="1846"
     inkscape:window-height="1016"
     inkscape:window-x="1440"
     inkscape:window-y="27"
     inkscape:window-maximized="1"
     inkscape:current-layer="layer1" />
  <defs
     id="defs2">
    <marker
       style="overflow:visible"
       id="Arrow1L"
       refX="0"
       refY="0"
       orient="auto-start-reverse"
       inkscape:stockid="Arrow1L"
       markerWidth="8.75"
       markerHeight="5"
       viewBox="0 0 8.75 5"
       inkscape:isstock="true"
       inkscape:collect="always"
       preserveAspectRatio="xMidYMid">
      <path
         style="fill:context-stroke;fill-rule:evenodd;stroke:none"
         d="M 0,0 5,-5 -12.5,0 5,5 Z"
         id="arrow1L"
         transform="scale(-0.5)" />
    </marker>
    <clipPath
       id="clipPath4717">
      <path
         d="M 0,3 H 5 V 9.964844 H 0 Z m 0,0"
         id="path4062" />
    </clipPath>
    <clipPath
       id="clipPath9799">
      <path
         d="M 5,0 H 9 V 9.964844 H 5 Z m 0,0"
         id="path1966" />
    </clipPath>
    <clipPath
       id="clipPath8752">
      <path
         d="m 17,4 h 4 v 5.964844 h -4 z m 0,0"
         id="path3507" />
    </clipPath>
    <clipPath
       id="clipPath9998">
      <path
         d="m 21,0 h 3 v 9.964844 h -3 z m 0,0"
         id="path2951" />
    </clipPath>
    <clipPath
       id="clipPath530">
      <path
         d="m 37,3 h 6 v 6.964844 h -6 z m 0,0"
         id="path4988" />
    </clipPath>
    <clipPath
       id="clipPath83">
      <path
         d="m 44,0 h 3 v 9.964844 h -3 z m 0,0"
         id="path768" />
    </clipPath>
    <clipPath
       id="clipPath478">
      <path
         d="m 61,6 h 2 v 3.964844 h -2 z m 0,0"
         id="path9238" />
    </clipPath>
    <clipPath
       id="clipPath1906">
      <path
         d="m 78,6 h 2 v 3.964844 h -2 z m 0,0"
         id="path786" />
    </clipPath>
    <clipPath
       id="clipPath4259">
      <path
         d="m 96,6 h 2 v 3.964844 h -2 z m 0,0"
         id="path8221" />
    </clipPath>
    <clipPath
       id="clipPath6620">
      <path
         d="m 116,0 h 4 v 9.964844 h -4 z m 0,0"
         id="path5405" />
    </clipPath>
    <clipPath
       id="clipPath9365">
      <path
         d="M 0,3 H 5 V 9.964844 H 0 Z m 0,0"
         id="path3164" />
    </clipPath>
    <clipPath
       id="clipPath7699">
      <path
         d="M 5,0 H 9 V 9.964844 H 5 Z m 0,0"
         id="path7457" />
    </clipPath>
    <clipPath
       id="clipPath6724">
      <path
         d="m 18,0 h 3 v 9.964844 h -3 z m 0,0"
         id="path924" />
    </clipPath>
    <clipPath
       id="clipPath3672">
      <path
         d="m 34,3 h 6 v 6.964844 h -6 z m 0,0"
         id="path6091" />
    </clipPath>
    <clipPath
       id="clipPath343">
      <path
         d="m 40,0 h 4 v 9.964844 h -4 z m 0,0"
         id="path4412" />
    </clipPath>
    <clipPath
       id="clipPath4007">
      <path
         d="m 57,6 h 2 v 3.964844 h -2 z m 0,0"
         id="path8971" />
    </clipPath>
    <clipPath
       id="clipPath8363">
      <path
         d="m 75,6 h 2 v 3.964844 h -2 z m 0,0"
         id="path1245" />
    </clipPath>
    <clipPath
       id="clipPath4212">
      <path
         d="m 93,6 h 2 v 3.964844 h -2 z m 0,0"
         id="path5403" />
    </clipPath>
    <clipPath
       id="clipPath1287">
      <path
         d="m 113,0 h 3 v 9.964844 h -3 z m 0,0"
         id="path5996" />
    </clipPath>
    <clipPath
       id="clipPath8240">
      <path
         d="M 0,3 H 5 V 9.964844 H 0 Z m 0,0"
         id="path7585" />
    </clipPath>
    <clipPath
       id="clipPath9220">
      <path
         d="M 5,0 H 9 V 9.964844 H 5 Z m 0,0"
         id="path7678" />
    </clipPath>
    <clipPath
       id="clipPath543">
      <path
         d="m 18,0 h 3 v 9.964844 h -3 z m 0,0"
         id="path2797" />
    </clipPath>
    <clipPath
       id="clipPath9600">
      <path
         d="m 41,3 h 7 v 6.964844 h -7 z m 0,0"
         id="path6414" />
    </clipPath>
    <clipPath
       id="clipPath3631">
      <path
         d="m 48,0 h 3 v 9.964844 h -3 z m 0,0"
         id="path1905" />
    </clipPath>
    <clipPath
       id="clipPath4913">
      <path
         d="m 60,4 h 3 v 5.964844 h -3 z m 0,0"
         id="path6574" />
    </clipPath>
    <clipPath
       id="clipPath2996">
      <path
         d="m 63,0 h 4 v 9.964844 h -4 z m 0,0"
         id="path821" />
    </clipPath>
    <clipPath
       id="clipPath1019">
      <path
         d="M 0,3 H 5 V 9.964844 H 0 Z m 0,0"
         id="path4089" />
    </clipPath>
    <clipPath
       id="clipPath2276">
      <path
         d="M 5,0 H 9 V 9.964844 H 5 Z m 0,0"
         id="path7883" />
    </clipPath>
    <clipPath
       id="clipPath4111">
      <path
         d="m 18,0 h 3 v 9.964844 h -3 z m 0,0"
         id="path728" />
    </clipPath>
    <clipPath
       id="clipPath6652">
      <path
         d="m 42,4 h 3 v 5.964844 h -3 z m 0,0"
         id="path9143" />
    </clipPath>
    <clipPath
       id="clipPath8429">
      <path
         d="m 45,3 h 6 v 6.964844 h -6 z m 0,0"
         id="path196" />
    </clipPath>
    <clipPath
       id="clipPath5119">
      <path
         d="m 51,0 h 3 v 9.964844 h -3 z m 0,0"
         id="path7573" />
    </clipPath>
    <clipPath
       id="clipPath988">
      <path
         d="m 63,4 h 3 v 5.964844 h -3 z m 0,0"
         id="path7450" />
    </clipPath>
    <clipPath
       id="clipPath563">
      <path
         d="m 67,0 h 3 v 9.964844 h -3 z m 0,0"
         id="path9139" />
    </clipPath>
    <clipPath
       id="clipPath2626">
      <path
         d="m 44,5 h 3 v 5.460938 h -3 z m 0,0"
         id="path2135" />
    </clipPath>
    <clipPath
       id="clipPath2902">
      <path
         d="m 44,5 h 3 v 5.460938 h -3 z m 0,0"
         id="path337" />
    </clipPath>
    <marker
       style="overflow:visible"
       id="Arrow1L-6"
       refX="0"
       refY="0"
       orient="auto-start-reverse"
       inkscape:stockid="Arrow1L"
       markerWidth="8.75"
       markerHeight="5"
       viewBox="0 0 8.75 5"
       inkscape:isstock="true"
       inkscape:collect="always"
       preserveAspectRatio="xMidYMid">
      <path
         style="fill:context-stroke;fill-rule:evenodd;stroke:none"
         d="M 0,0 5,-5 -12.5,0 5,5 Z"
         id="arrow1L-7"
         transform="scale(-0.5)" />
    </marker>
  </defs>
  <g
     inkscape:label="Layer 1"
     inkscape:groupmode="layer"
     id="layer1"
     transform="translate(-65.929303,-133.16256)">
    <text
       xml:space="preserve"
       style="font-style:normal;font-variant:normal;font-weight:normal;font-stretch:normal;font-size:3.52778px;line-height:1.25;font-family:'CMU Serif';-inkscape-font-specification:'CMU Serif, Normal';font-variant-ligatures:none;font-variant-caps:normal;font-variant-numeric:normal;font-variant-east-asian:normal;stroke-width:0.264583"
       x="66.793098"
       y="147.362"
       id="text543"><tspan
         sodipodi:role="line"
         id="tspan541"
         style="font-style:normal;font-variant:normal;font-weight:normal;font-stretch:normal;font-size:3.52778px;font-family:'CMU Serif';-inkscape-font-specification:'CMU Serif, Normal';font-variant-ligatures:none;font-variant-caps:normal;font-variant-numeric:normal;font-variant-east-asian:normal;stroke-width:0.264583"
         x="66.793098"
         y="147.362">map</tspan></text>
    <text
       xml:space="preserve"
       style="font-style:normal;font-variant:normal;font-weight:normal;font-stretch:normal;font-size:3.52778px;line-height:1.25;font-family:'CMU Serif';-inkscape-font-specification:'CMU Serif, Normal';font-variant-ligatures:none;font-variant-caps:normal;font-variant-numeric:normal;font-variant-east-asian:normal;stroke-width:0.264583"
       x="84.531143"
       y="148.00758"
       id="text543-7-2"><tspan
         sodipodi:role="line"
         id="tspan541-9-0"
         style="font-style:normal;font-variant:normal;font-weight:normal;font-stretch:normal;font-size:3.52778px;font-family:'CMU Serif';-inkscape-font-specification:'CMU Serif, Normal';font-variant-ligatures:none;font-variant-caps:normal;font-variant-numeric:normal;font-variant-east-asian:normal;stroke-width:0.264583"
         x="84.531143"
         y="148.00758">celda</tspan></text>
    <path
       style="fill:none;stroke:#ff0000;stroke-width:0.264583px;stroke-linecap:butt;stroke-linejoin:miter;stroke-opacity:1;marker-end:url(#Arrow1L)"
       d="M 70.61396,145.13002 V 138.7817"
       id="path934" />
    <path
       style="fill:none;stroke:#ff0000;stroke-width:0.264583px;stroke-linecap:butt;stroke-linejoin:miter;stroke-opacity:1;marker-end:url(#Arrow1L-6)"
       d="M 88.723915,145.13002 V 138.7817"
       id="path934-5" />
    <g
       inkscape:label=""
       transform="translate(65.929303,133.16256)"
       id="g3055">
      <g
         id="g3053"
         transform="matrix(0.352778,0,0,0.352778,0.110243,0.00436558)">
        <g
           style="fill:#000000;fill-opacity:1"
           id="g2983">
          <g
             id="g2981"
             transform="translate(0,7.4720001)">
            <path
               style="stroke:none"
               d="M 0.453125,1.21875 C 0.375,1.5625 0.34375,1.625 -0.09375,1.625 c -0.109375,0 -0.21875,0 -0.21875,0.1875 0,0.078125 0.046875,0.125 0.125,0.125 0.265625,0 0.5625,-0.03125 0.828125,-0.03125 0.34375,0 0.671875,0.03125 1,0.03125 0.046875,0 0.171875,0 0.171875,-0.203125 C 1.8125,1.625 1.71875,1.625 1.578125,1.625 c -0.5,0 -0.5,-0.0625 -0.5,-0.15625 0,-0.125 0.421875,-1.75 0.484375,-2 0.125,0.296875 0.40625,0.640625 0.921875,0.640625 1.15625,0 2.40625,-1.453125 2.40625,-2.921875 0,-0.9375 -0.578125,-1.59375 -1.328125,-1.59375 -0.5,0 -0.984375,0.359375 -1.3125,0.75 -0.09375,-0.546875 -0.53125,-0.75 -0.890625,-0.75 -0.46875,0 -0.65625,0.390625 -0.734375,0.5625 C 0.4375,-3.5 0.3125,-2.90625 0.3125,-2.875 c 0,0.109375 0.09375,0.109375 0.109375,0.109375 0.109375,0 0.109375,-0.015625 0.171875,-0.234375 0.171875,-0.703125 0.375,-1.1875 0.734375,-1.1875 0.171875,0 0.3125,0.078125 0.3125,0.453125 0,0.234375 -0.03125,0.34375 -0.078125,0.515625 z m 1.75,-4.328125 C 2.265625,-3.375 2.546875,-3.65625 2.71875,-3.8125 c 0.359375,-0.296875 0.640625,-0.375 0.8125,-0.375 0.390625,0 0.640625,0.34375 0.640625,0.9375 0,0.59375 -0.328125,1.734375 -0.515625,2.109375 -0.34375,0.703125 -0.8125,1.03125 -1.1875,1.03125 C 1.8125,-0.109375 1.6875,-0.9375 1.6875,-1 c 0,-0.015625 0,-0.03125 0.03125,-0.15625 z m 0,0"
               id="path2979" />
          </g>
        </g>
        <g
           style="fill:#000000;fill-opacity:1"
           id="g2989">
          <g
             id="g2987"
             transform="translate(5.0120001,7.4720001)">
            <path
               style="stroke:none"
               d="m 3.296875,2.390625 c 0,-0.03125 0,-0.046875 -0.171875,-0.21875 C 1.890625,0.921875 1.5625,-0.96875 1.5625,-2.5 c 0,-1.734375 0.375,-3.46875 1.609375,-4.703125 0.125,-0.125 0.125,-0.140625 0.125,-0.171875 0,-0.078125 -0.03125,-0.109375 -0.09375,-0.109375 -0.109375,0 -1,0.6875 -1.59375,1.953125 -0.5,1.09375 -0.625,2.203125 -0.625,3.03125 0,0.78125 0.109375,1.984375 0.65625,3.125 C 2.25,1.84375 3.09375,2.5 3.203125,2.5 c 0.0625,0 0.09375,-0.03125 0.09375,-0.109375 z m 0,0"
               id="path2985" />
          </g>
        </g>
        <g
           style="fill:#000000;fill-opacity:1"
           id="g2995">
          <g
             id="g2993"
             transform="translate(8.8870001,7.4720001)">
            <path
               style="stroke:none"
               d="m 0.875,-0.59375 c -0.03125,0.15625 -0.09375,0.390625 -0.09375,0.4375 0,0.171875 0.140625,0.265625 0.296875,0.265625 0.125,0 0.296875,-0.078125 0.375,-0.28125 0,-0.015625 0.125,-0.484375 0.1875,-0.734375 l 0.21875,-0.890625 C 1.90625,-2.03125 1.96875,-2.25 2.03125,-2.46875 c 0.03125,-0.171875 0.109375,-0.46875 0.125,-0.5 0.140625,-0.3125 0.671875,-1.21875 1.625,-1.21875 0.453125,0 0.53125,0.375 0.53125,0.703125 0,0.25 -0.0625,0.53125 -0.140625,0.828125 L 3.890625,-1.5 3.6875,-0.75 c -0.03125,0.203125 -0.125,0.546875 -0.125,0.59375 0,0.171875 0.140625,0.265625 0.28125,0.265625 0.3125,0 0.375,-0.25 0.453125,-0.5625 0.140625,-0.5625 0.515625,-2.015625 0.59375,-2.40625 0.03125,-0.125 0.5625,-1.328125 1.65625,-1.328125 0.421875,0 0.53125,0.34375 0.53125,0.703125 0,0.5625 -0.421875,1.703125 -0.625,2.234375 -0.078125,0.234375 -0.125,0.34375 -0.125,0.546875 0,0.46875 0.34375,0.8125 0.8125,0.8125 0.9375,0 1.3125,-1.453125 1.3125,-1.53125 0,-0.109375 -0.09375,-0.109375 -0.125,-0.109375 -0.09375,0 -0.09375,0.03125 -0.140625,0.1875 -0.15625,0.53125 -0.46875,1.234375 -1.015625,1.234375 -0.171875,0 -0.25,-0.09375 -0.25,-0.328125 0,-0.25 0.09375,-0.484375 0.1875,-0.703125 0.1875,-0.53125 0.609375,-1.625 0.609375,-2.203125 0,-0.640625 -0.40625,-1.0625 -1.15625,-1.0625 -0.734375,0 -1.25,0.4375 -1.625,0.96875 0,-0.125 -0.03125,-0.46875 -0.3125,-0.703125 -0.25,-0.21875 -0.5625,-0.265625 -0.8125,-0.265625 -0.90625,0 -1.390625,0.640625 -1.5625,0.875 -0.046875,-0.578125 -0.46875,-0.875 -0.921875,-0.875 -0.453125,0 -0.640625,0.390625 -0.734375,0.5625 -0.171875,0.359375 -0.296875,0.9375 -0.296875,0.96875 0,0.109375 0.09375,0.109375 0.109375,0.109375 0.109375,0 0.109375,-0.015625 0.171875,-0.234375 0.171875,-0.703125 0.375,-1.1875 0.734375,-1.1875 0.15625,0 0.296875,0.078125 0.296875,0.453125 0,0.21875 -0.03125,0.328125 -0.15625,0.84375 z m 0,0"
               id="path2991" />
          </g>
        </g>
        <g
           style="fill:#000000;fill-opacity:1"
           id="g3001">
          <g
             id="g2999"
             transform="translate(17.634001,7.4720001)">
            <path
               style="stroke:none"
               d="m 2.875,-2.5 c 0,-0.765625 -0.109375,-1.96875 -0.65625,-3.109375 -0.59375,-1.21875 -1.453125,-1.875 -1.546875,-1.875 -0.0625,0 -0.109375,0.046875 -0.109375,0.109375 0,0.03125 0,0.046875 0.1875,0.234375 0.984375,0.984375 1.546875,2.5625 1.546875,4.640625 0,1.71875 -0.359375,3.46875 -1.59375,4.71875 C 0.5625,2.34375 0.5625,2.359375 0.5625,2.390625 0.5625,2.453125 0.609375,2.5 0.671875,2.5 0.765625,2.5 1.671875,1.8125 2.25,0.546875 2.765625,-0.546875 2.875,-1.65625 2.875,-2.5 Z m 0,0"
               id="path2997" />
          </g>
        </g>
        <g
           style="fill:#000000;fill-opacity:1"
           id="g3007">
          <g
             id="g3005"
             transform="translate(24.278057,7.4720001)">
            <path
               style="stroke:none"
               d="m 6.84375,-3.265625 c 0.15625,0 0.34375,0 0.34375,-0.1875 C 7.1875,-3.65625 7,-3.65625 6.859375,-3.65625 h -5.96875 c -0.140625,0 -0.328125,0 -0.328125,0.203125 0,0.1875 0.1875,0.1875 0.328125,0.1875 z m 0.015625,1.9375 c 0.140625,0 0.328125,0 0.328125,-0.203125 0,-0.1875 -0.1875,-0.1875 -0.34375,-0.1875 H 0.890625 c -0.140625,0 -0.328125,0 -0.328125,0.1875 0,0.203125 0.1875,0.203125 0.328125,0.203125 z m 0,0"
               id="path3003" />
          </g>
        </g>
        <g
           style="fill:#000000;fill-opacity:1"
           id="g3013">
          <g
             id="g3011"
             transform="translate(34.792)">
            <path
               style="stroke:none"
               d="M 3.578125,9.96875 V 9.5625 c -1.03125,0 -1.03125,-0.484375 -1.03125,-0.78125 v -8.375 H 6.84375 v 8.375 c 0,0.296875 0,0.78125 -1.015625,0.78125 V 9.96875 H 8.84375 V 9.5625 C 7.8125,9.5625 7.8125,9.078125 7.8125,8.78125 V 1.1875 c 0,-0.296875 0,-0.78125 1.03125,-0.78125 V 0 H 0.5625 v 0.40625 c 1.015625,0 1.015625,0.484375 1.015625,0.78125 v 7.59375 c 0,0.296875 0,0.78125 -1.015625,0.78125 v 0.40625 z m 0,0"
               id="path3009" />
          </g>
        </g>
        <g
           clip-path="url(#clipPath2902)"
           clip-rule="nonzero"
           id="g3021">
          <g
             style="fill:#000000;fill-opacity:1"
             id="g3019">
            <g
               id="g3017"
               transform="translate(44.201,10.461)">
              <path
                 style="stroke:none"
                 d="m 2.265625,-4.359375 c 0,-0.109375 -0.09375,-0.265625 -0.28125,-0.265625 -0.1875,0 -0.390625,0.1875 -0.390625,0.390625 0,0.109375 0.078125,0.265625 0.28125,0.265625 0.1875,0 0.390625,-0.203125 0.390625,-0.390625 z M 0.84375,-0.8125 c -0.03125,0.09375 -0.0625,0.171875 -0.0625,0.296875 0,0.328125 0.265625,0.578125 0.65625,0.578125 0.6875,0 1,-0.953125 1,-1.0625 0,-0.09375 -0.09375,-0.09375 -0.109375,-0.09375 -0.09375,0 -0.109375,0.046875 -0.140625,0.125 -0.15625,0.5625 -0.453125,0.84375 -0.734375,0.84375 -0.140625,0 -0.171875,-0.09375 -0.171875,-0.25 0,-0.15625 0.046875,-0.28125 0.109375,-0.4375 C 1.46875,-1 1.546875,-1.1875 1.609375,-1.375 1.671875,-1.546875 1.9375,-2.171875 1.953125,-2.265625 1.984375,-2.328125 2,-2.40625 2,-2.484375 2,-2.8125 1.71875,-3.078125 1.34375,-3.078125 0.640625,-3.078125 0.328125,-2.125 0.328125,-2 c 0,0.078125 0.09375,0.078125 0.125,0.078125 0.09375,0 0.09375,-0.03125 0.125,-0.109375 C 0.75,-2.625 1.0625,-2.875 1.3125,-2.875 c 0.109375,0 0.171875,0.046875 0.171875,0.234375 0,0.171875 -0.03125,0.265625 -0.203125,0.703125 z m 0,0"
                 id="path3015" />
            </g>
          </g>
        </g>
        <g
           style="fill:#000000;fill-opacity:1"
           id="g3027">
          <g
             id="g3025"
             transform="translate(49.178001,7.4720001)">
            <path
               style="stroke:none"
               d="M 0.453125,1.21875 C 0.375,1.5625 0.34375,1.625 -0.09375,1.625 c -0.109375,0 -0.21875,0 -0.21875,0.1875 0,0.078125 0.046875,0.125 0.125,0.125 0.265625,0 0.5625,-0.03125 0.828125,-0.03125 0.34375,0 0.671875,0.03125 1,0.03125 0.046875,0 0.171875,0 0.171875,-0.203125 C 1.8125,1.625 1.71875,1.625 1.578125,1.625 c -0.5,0 -0.5,-0.0625 -0.5,-0.15625 0,-0.125 0.421875,-1.75 0.484375,-2 0.125,0.296875 0.40625,0.640625 0.921875,0.640625 1.15625,0 2.40625,-1.453125 2.40625,-2.921875 0,-0.9375 -0.578125,-1.59375 -1.328125,-1.59375 -0.5,0 -0.984375,0.359375 -1.3125,0.75 -0.09375,-0.546875 -0.53125,-0.75 -0.890625,-0.75 -0.46875,0 -0.65625,0.390625 -0.734375,0.5625 C 0.4375,-3.5 0.3125,-2.90625 0.3125,-2.875 c 0,0.109375 0.09375,0.109375 0.109375,0.109375 0.109375,0 0.109375,-0.015625 0.171875,-0.234375 0.171875,-0.703125 0.375,-1.1875 0.734375,-1.1875 0.171875,0 0.3125,0.078125 0.3125,0.453125 0,0.234375 -0.03125,0.34375 -0.078125,0.515625 z m 1.75,-4.328125 C 2.265625,-3.375 2.546875,-3.65625 2.71875,-3.8125 c 0.359375,-0.296875 0.640625,-0.375 0.8125,-0.375 0.390625,0 0.640625,0.34375 0.640625,0.9375 0,0.59375 -0.328125,1.734375 -0.515625,2.109375 -0.34375,0.703125 -0.8125,1.03125 -1.1875,1.03125 C 1.8125,-0.109375 1.6875,-0.9375 1.6875,-1 c 0,-0.015625 0,-0.03125 0.03125,-0.15625 z m 0,0"
               id="path3023" />
          </g>
        </g>
        <g
           style="fill:#000000;fill-opacity:1"
           id="g3033">
          <g
             id="g3031"
             transform="translate(54.191002,7.4720001)">
            <path
               style="stroke:none"
               d="m 3.296875,2.390625 c 0,-0.03125 0,-0.046875 -0.171875,-0.21875 C 1.890625,0.921875 1.5625,-0.96875 1.5625,-2.5 c 0,-1.734375 0.375,-3.46875 1.609375,-4.703125 0.125,-0.125 0.125,-0.140625 0.125,-0.171875 0,-0.078125 -0.03125,-0.109375 -0.09375,-0.109375 -0.109375,0 -1,0.6875 -1.59375,1.953125 -0.5,1.09375 -0.625,2.203125 -0.625,3.03125 0,0.78125 0.109375,1.984375 0.65625,3.125 C 2.25,1.84375 3.09375,2.5 3.203125,2.5 c 0.0625,0 0.09375,-0.03125 0.09375,-0.109375 z m 0,0"
               id="path3029" />
          </g>
        </g>
        <g
           style="fill:#000000;fill-opacity:1"
           id="g3039">
          <g
             id="g3037"
             transform="translate(58.064999,7.4720001)">
            <path
               style="stroke:none"
               d="m 0.875,-0.59375 c -0.03125,0.15625 -0.09375,0.390625 -0.09375,0.4375 0,0.171875 0.140625,0.265625 0.296875,0.265625 0.125,0 0.296875,-0.078125 0.375,-0.28125 0,-0.015625 0.125,-0.484375 0.1875,-0.734375 l 0.21875,-0.890625 C 1.90625,-2.03125 1.96875,-2.25 2.03125,-2.46875 c 0.03125,-0.171875 0.109375,-0.46875 0.125,-0.5 0.140625,-0.3125 0.671875,-1.21875 1.625,-1.21875 0.453125,0 0.53125,0.375 0.53125,0.703125 0,0.25 -0.0625,0.53125 -0.140625,0.828125 L 3.890625,-1.5 3.6875,-0.75 c -0.03125,0.203125 -0.125,0.546875 -0.125,0.59375 0,0.171875 0.140625,0.265625 0.28125,0.265625 0.3125,0 0.375,-0.25 0.453125,-0.5625 0.140625,-0.5625 0.515625,-2.015625 0.59375,-2.40625 0.03125,-0.125 0.5625,-1.328125 1.65625,-1.328125 0.421875,0 0.53125,0.34375 0.53125,0.703125 0,0.5625 -0.421875,1.703125 -0.625,2.234375 -0.078125,0.234375 -0.125,0.34375 -0.125,0.546875 0,0.46875 0.34375,0.8125 0.8125,0.8125 0.9375,0 1.3125,-1.453125 1.3125,-1.53125 0,-0.109375 -0.09375,-0.109375 -0.125,-0.109375 -0.09375,0 -0.09375,0.03125 -0.140625,0.1875 -0.15625,0.53125 -0.46875,1.234375 -1.015625,1.234375 -0.171875,0 -0.25,-0.09375 -0.25,-0.328125 0,-0.25 0.09375,-0.484375 0.1875,-0.703125 0.1875,-0.53125 0.609375,-1.625 0.609375,-2.203125 0,-0.640625 -0.40625,-1.0625 -1.15625,-1.0625 -0.734375,0 -1.25,0.4375 -1.625,0.96875 0,-0.125 -0.03125,-0.46875 -0.3125,-0.703125 -0.25,-0.21875 -0.5625,-0.265625 -0.8125,-0.265625 -0.90625,0 -1.390625,0.640625 -1.5625,0.875 -0.046875,-0.578125 -0.46875,-0.875 -0.921875,-0.875 -0.453125,0 -0.640625,0.390625 -0.734375,0.5625 -0.171875,0.359375 -0.296875,0.9375 -0.296875,0.96875 0,0.109375 0.09375,0.109375 0.109375,0.109375 0.109375,0 0.109375,-0.015625 0.171875,-0.234375 0.171875,-0.703125 0.375,-1.1875 0.734375,-1.1875 0.15625,0 0.296875,0.078125 0.296875,0.453125 0,0.21875 -0.03125,0.328125 -0.15625,0.84375 z m 0,0"
               id="path3035" />
          </g>
        </g>
        <g
           style="fill:#000000;fill-opacity:1"
           id="g3045">
          <g
             id="g3043"
             transform="translate(66.813004,8.967)">
            <path
               style="stroke:none"
               d="m 2.265625,-4.359375 c 0,-0.109375 -0.09375,-0.265625 -0.28125,-0.265625 -0.1875,0 -0.390625,0.1875 -0.390625,0.390625 0,0.109375 0.078125,0.265625 0.28125,0.265625 0.1875,0 0.390625,-0.203125 0.390625,-0.390625 z M 0.84375,-0.8125 c -0.03125,0.09375 -0.0625,0.171875 -0.0625,0.296875 0,0.328125 0.265625,0.578125 0.65625,0.578125 0.6875,0 1,-0.953125 1,-1.0625 0,-0.09375 -0.09375,-0.09375 -0.109375,-0.09375 -0.09375,0 -0.109375,0.046875 -0.140625,0.125 -0.15625,0.5625 -0.453125,0.84375 -0.734375,0.84375 -0.140625,0 -0.171875,-0.09375 -0.171875,-0.25 0,-0.15625 0.046875,-0.28125 0.109375,-0.4375 C 1.46875,-1 1.546875,-1.1875 1.609375,-1.375 1.671875,-1.546875 1.9375,-2.171875 1.953125,-2.265625 1.984375,-2.328125 2,-2.40625 2,-2.484375 2,-2.8125 1.71875,-3.078125 1.34375,-3.078125 0.640625,-3.078125 0.328125,-2.125 0.328125,-2 c 0,0.078125 0.09375,0.078125 0.125,0.078125 0.09375,0 0.09375,-0.03125 0.125,-0.109375 C 0.75,-2.625 1.0625,-2.875 1.3125,-2.875 c 0.109375,0 0.171875,0.046875 0.171875,0.234375 0,0.171875 -0.03125,0.265625 -0.203125,0.703125 z m 0,0"
               id="path3041" />
          </g>
        </g>
        <g
           style="fill:#000000;fill-opacity:1"
           id="g3051">
          <g
             id="g3049"
             transform="translate(70.128998,7.4720001)">
            <path
               style="stroke:none"
               d="m 2.875,-2.5 c 0,-0.765625 -0.109375,-1.96875 -0.65625,-3.109375 -0.59375,-1.21875 -1.453125,-1.875 -1.546875,-1.875 -0.0625,0 -0.109375,0.046875 -0.109375,0.109375 0,0.03125 0,0.046875 0.1875,0.234375 0.984375,0.984375 1.546875,2.5625 1.546875,4.640625 0,1.71875 -0.359375,3.46875 -1.59375,4.71875 C 0.5625,2.34375 0.5625,2.359375 0.5625,2.390625 0.5625,2.453125 0.609375,2.5 0.671875,2.5 0.765625,2.5 1.671875,1.8125 2.25,0.546875 2.765625,-0.546875 2.875,-1.65625 2.875,-2.5 Z m 0,0"
               id="path3047" />
          </g>
        </g>
      </g>
    </g>
  </g>
</svg>
