<?xml version="1.0" encoding="UTF-8" standalone="no"?>
<svg
   id="Ebene_1"
   data-name="Ebene 1"
   viewBox="0 0 569.15718 304.04999"
   version="1.1"
   sodipodi:docname="pid_control_proportional.svg"
   width="569.15717"
   height="304.04999"
   inkscape:version="1.3.2 (1:1.3.2+202311252150+091e20ef0f)"
   xmlns:inkscape="http://www.inkscape.org/namespaces/inkscape"
   xmlns:sodipodi="http://sodipodi.sourceforge.net/DTD/sodipodi-0.dtd"
   xmlns="http://www.w3.org/2000/svg"
   xmlns:svg="http://www.w3.org/2000/svg">
  <defs
     id="defs109">
    <clipPath
       clipPathUnits="userSpaceOnUse"
       id="clipPath115">
      <path
         d="M 338.54169,401.04175 H 2213.5417 V 1441.6669 H 338.54169 Z"
         transform="matrix(0.24024021,0,0,0.24024021,-81.556555,-96.346352)"
         clip-rule="evenodd"
         id="path115" />
    </clipPath>
    <clipPath
       clipPathUnits="userSpaceOnUse"
       id="clipPath116">
      <path
         d="M 338.54169,401.04175 H 2213.5417 V 1441.6669 H 338.54169 Z"
         transform="matrix(0.31999999,0,0,0.31999999,-153.6778,-384.07737)"
         clip-rule="evenodd"
         id="path116" />
    </clipPath>
    <clipPath
       clipPathUnits="userSpaceOnUse"
       id="clipPath118">
      <path
         d="M 338.54169,401.04175 H 2213.5417 V 1441.6669 H 338.54169 Z"
         transform="matrix(0.24024021,0,0,0.24024021,-81.556555,-96.346352)"
         clip-rule="evenodd"
         id="path118" />
    </clipPath>
    <clipPath
       clipPathUnits="userSpaceOnUse"
       id="clipPath119">
      <path
         d="M 338.54169,401.04175 H 2213.5417 V 1441.6669 H 338.54169 Z"
         transform="matrix(0.31999999,0,0,0.31999999,-153.6778,-333.59459)"
         clip-rule="evenodd"
         id="path119" />
    </clipPath>
    <clipPath
       clipPathUnits="userSpaceOnUse"
       id="clipPath121">
      <path
         d="M 338.54169,401.04175 H 2213.5417 V 1441.6669 H 338.54169 Z"
         transform="matrix(0.24024021,0,0,0.24024021,-81.556555,-96.346352)"
         clip-rule="evenodd"
         id="path121" />
    </clipPath>
    <clipPath
       clipPathUnits="userSpaceOnUse"
       id="clipPath122">
      <path
         d="M 338.54169,401.04175 H 2213.5417 V 1441.6669 H 338.54169 Z"
         transform="matrix(0.31999999,0,0,0.31999999,-153.6778,-282.97856)"
         clip-rule="evenodd"
         id="path122" />
    </clipPath>
    <clipPath
       clipPathUnits="userSpaceOnUse"
       id="clipPath124">
      <path
         d="M 338.54169,401.04175 H 2213.5417 V 1441.6669 H 338.54169 Z"
         transform="matrix(0.24024021,0,0,0.24024021,-81.556555,-96.346352)"
         clip-rule="evenodd"
         id="path124" />
    </clipPath>
    <clipPath
       clipPathUnits="userSpaceOnUse"
       id="clipPath125">
      <path
         d="M 338.54169,401.04175 H 2213.5417 V 1441.6669 H 338.54169 Z"
         transform="matrix(0.31999999,0,0,0.31999999,-153.6778,-232.36257)"
         clip-rule="evenodd"
         id="path125" />
    </clipPath>
    <clipPath
       clipPathUnits="userSpaceOnUse"
       id="clipPath127">
      <path
         d="M 338.54169,401.04175 H 2213.5417 V 1441.6669 H 338.54169 Z"
         transform="matrix(0.24024021,0,0,0.24024021,-81.556555,-96.346352)"
         clip-rule="evenodd"
         id="path127" />
    </clipPath>
    <clipPath
       clipPathUnits="userSpaceOnUse"
       id="clipPath128">
      <path
         d="M 338.54169,401.04175 H 2213.5417 V 1441.6669 H 338.54169 Z"
         transform="matrix(0.31999999,0,0,0.31999999,-153.6778,-181.87976)"
         clip-rule="evenodd"
         id="path128" />
    </clipPath>
    <clipPath
       clipPathUnits="userSpaceOnUse"
       id="clipPath130">
      <path
         d="M 338.54169,401.04175 H 2213.5417 V 1441.6669 H 338.54169 Z"
         transform="matrix(0.24024021,0,0,0.24024021,-81.556555,-96.346352)"
         clip-rule="evenodd"
         id="path130" />
    </clipPath>
    <clipPath
       clipPathUnits="userSpaceOnUse"
       id="clipPath131">
      <path
         d="M 338.54169,401.04175 H 2213.5417 V 1441.6669 H 338.54169 Z"
         transform="matrix(0.31999999,0,0,0.31999999,-184.7022,-428.43295)"
         clip-rule="evenodd"
         id="path131" />
    </clipPath>
    <clipPath
       clipPathUnits="userSpaceOnUse"
       id="clipPath133">
      <path
         d="M 338.54169,401.04175 H 2213.5417 V 1441.6669 H 338.54169 Z"
         transform="matrix(0.24024021,0,0,0.24024021,-81.556555,-96.346352)"
         clip-rule="evenodd"
         id="path133" />
    </clipPath>
    <clipPath
       clipPathUnits="userSpaceOnUse"
       id="clipPath134">
      <path
         d="M 338.54169,401.04175 H 2213.5417 V 1441.6669 H 338.54169 Z"
         transform="matrix(0.31999999,0,0,0.31999999,-338.689,-428.43295)"
         clip-rule="evenodd"
         id="path134" />
    </clipPath>
    <clipPath
       clipPathUnits="userSpaceOnUse"
       id="clipPath136">
      <path
         d="M 338.54169,401.04175 H 2213.5417 V 1441.6669 H 338.54169 Z"
         transform="matrix(0.24024021,0,0,0.24024021,-81.556555,-96.346352)"
         clip-rule="evenodd"
         id="path136" />
    </clipPath>
    <clipPath
       clipPathUnits="userSpaceOnUse"
       id="clipPath137">
      <path
         d="M 338.54169,401.04175 H 2213.5417 V 1441.6669 H 338.54169 Z"
         transform="matrix(0.31999999,0,0,0.31999999,-496.7934,-428.43295)"
         clip-rule="evenodd"
         id="path137" />
    </clipPath>
    <clipPath
       clipPathUnits="userSpaceOnUse"
       id="clipPath139">
      <path
         d="M 338.54169,401.04175 H 2213.5417 V 1441.6669 H 338.54169 Z"
         transform="matrix(0.24024021,0,0,0.24024021,-81.556555,-96.346352)"
         clip-rule="evenodd"
         id="path139" />
    </clipPath>
    <clipPath
       clipPathUnits="userSpaceOnUse"
       id="clipPath140">
      <path
         d="M 338.54169,401.04175 H 2213.5417 V 1441.6669 H 338.54169 Z"
         transform="matrix(0.31999999,0,0,0.31999999,-658.7647,-428.43295)"
         clip-rule="evenodd"
         id="path140" />
    </clipPath>
    <clipPath
       clipPathUnits="userSpaceOnUse"
       id="clipPath142">
      <path
         d="M 338.54169,401.04175 H 2213.5417 V 1441.6669 H 338.54169 Z"
         transform="matrix(0.24024021,0,0,0.24024021,-81.556555,-96.346352)"
         clip-rule="evenodd"
         id="path142" />
    </clipPath>
    <clipPath
       clipPathUnits="userSpaceOnUse"
       id="clipPath143">
      <path
         d="M 338.54169,401.04175 H 2213.5417 V 1441.6669 H 338.54169 Z"
         transform="matrix(0.31999999,0,0,0.31999999,-366.9081,-308.28657)"
         clip-rule="evenodd"
         id="path143" />
    </clipPath>
    <clipPath
       clipPathUnits="userSpaceOnUse"
       id="clipPath145">
      <path
         d="M 338.54169,401.04175 H 2213.5417 V 1441.6669 H 338.54169 Z"
         transform="matrix(0.24024021,0,0,0.24024021,-81.556555,-96.346352)"
         clip-rule="evenodd"
         id="path145" />
    </clipPath>
    <clipPath
       clipPathUnits="userSpaceOnUse"
       id="clipPath146">
      <path
         d="M 338.54169,401.04175 H 2213.5417 V 1441.6669 H 338.54169 Z"
         transform="matrix(0,0.31999999,-0.31999999,0,333.04705,-132.07653)"
         clip-rule="evenodd"
         id="path146" />
    </clipPath>
    <clipPath
       clipPathUnits="userSpaceOnUse"
       id="clipPath147">
      <path
         d="M 338.54169,401.04175 H 2213.5417 V 1441.6669 H 338.54169 Z"
         transform="matrix(0.31999999,0,0,0.31999999,-404.659,-450.54412)"
         clip-rule="evenodd"
         id="path147" />
    </clipPath>
    <clipPath
       clipPathUnits="userSpaceOnUse"
       id="clipPath149">
      <path
         d="M 338.54169,401.04175 H 2213.5417 V 1441.6669 H 338.54169 Z"
         transform="matrix(0.24024021,0,0,0.24024021,-81.556555,-96.346352)"
         clip-rule="evenodd"
         id="path149" />
    </clipPath>
    <clipPath
       clipPathUnits="userSpaceOnUse"
       id="clipPath151">
      <path
         d="M 338.54169,401.04175 H 2213.5417 V 1441.6669 H 338.54169 Z"
         transform="matrix(0.24024021,0,0,0.24024021,-81.556555,-96.346352)"
         clip-rule="evenodd"
         id="path151" />
    </clipPath>
    <clipPath
       clipPathUnits="userSpaceOnUse"
       id="clipPath153">
      <path
         d="M 338.54169,401.04175 H 2213.5417 V 1441.6669 H 338.54169 Z"
         transform="matrix(0.24024021,0,0,0.24024021,-81.556555,-96.346352)"
         clip-rule="evenodd"
         id="path153" />
    </clipPath>
    <clipPath
       clipPathUnits="userSpaceOnUse"
       id="clipPath155">
      <path
         d="M 338.54169,401.04175 H 2213.5417 V 1441.6669 H 338.54169 Z"
         transform="matrix(0.24024021,0,0,0.24024021,-81.556555,-96.346352)"
         clip-rule="evenodd"
         id="path155" />
    </clipPath>
    <clipPath
       clipPathUnits="userSpaceOnUse"
       id="clipPath157">
      <path
         d="M 338.54169,401.04175 H 2213.5417 V 1441.6669 H 338.54169 Z"
         transform="matrix(0.24024021,0,0,0.24024021,-81.556555,-96.346352)"
         clip-rule="evenodd"
         id="path157" />
    </clipPath>
  </defs>
  <sodipodi:namedview
     id="namedview109"
     pagecolor="#ffffff"
     bordercolor="#666666"
     borderopacity="1.0"
     inkscape:showpageshadow="2"
     inkscape:pageopacity="0.0"
     inkscape:pagecheckerboard="0"
     inkscape:deskcolor="#d1d1d1"
     inkscape:zoom="0.93162176"
     inkscape:cx="253.32169"
     inkscape:cy="103.04611"
     inkscape:window-width="1850"
     inkscape:window-height="1016"
     inkscape:window-x="1436"
     inkscape:window-y="27"
     inkscape:window-maximized="1"
     inkscape:current-layer="Ebene_1" />
  <g
     id="g71"
     transform="matrix(0.506453,0,0,0.506453,61.129131,-97.142358)">
    <path
       id="path227"
       d="m 689.77,466.52 h 43.97"
       fill="none"
       stroke="#006699"
       stroke-linecap="round"
       stroke-linejoin="round"
       stroke-width="4" />
    <path
       id="path227-2"
       data-name="path227"
       d="m 689.77,506.13 h 43.97"
       fill="none"
       stroke="#ff0000"
       stroke-linecap="round"
       stroke-linejoin="round"
       stroke-width="4" />
    <g
       id="g51">
      <path
         d="m 752.67,454.04 h 1.52 v 12.52 l 11.3,-12.52 h 1.83 l -7.89,8.72 8.01,11.55 h -1.74 l -7.26,-10.47 -4.23,4.66 v 5.8 h -1.52 v -20.27 z"
         id="path46" />
      <path
         d="m 769.38,475.5 h 0.77 l 0.07,1.58 c 0.47,-1.1 1.7,-1.82 2.85,-1.82 0.98,0 1.72,0.32 2.28,0.8 0.97,0.82 1.4,2.1 1.4,3.59 0,1.49 -0.42,2.7 -1.32,3.54 -0.57,0.53 -1.35,0.88 -2.35,0.88 -1.22,0 -2.4,-0.68 -2.87,-1.75 v 4.84 h -0.83 z m 5.57,7 c 0.67,-0.72 0.95,-1.77 0.95,-2.83 0,-1.18 -0.33,-2.3 -1.13,-2.99 -0.42,-0.37 -0.98,-0.6 -1.72,-0.6 -0.74,0 -1.32,0.28 -1.75,0.68 -0.77,0.73 -1.1,1.75 -1.1,2.9 0,1.23 0.3,2.2 1.08,2.92 0.43,0.4 1.02,0.67 1.8,0.67 0.78,0 1.43,-0.28 1.87,-0.75 z"
         id="path47" />
      <path
         d="m 799.45,462.33 v 1.26 H 786.7 v -1.26 z m 0,6.03 v 1.26 H 786.7 v -1.26 z"
         id="path48" />
      <path
         d="m 809.21,459.96 v -1.6 l 5.43,-3.86 h 1.29 v 19.82 h -1.43 v -18.04 l -5.29,3.69 z"
         id="path49" />
      <path
         d="m 823.85,471.74 v 2.57 h -2.52 v -2.57 z"
         id="path50" />
      <path
         d="m 829.66,473.09 c -2.14,-1.97 -2.46,-5.55 -2.46,-8.69 0,-3.14 0.31,-6.69 2.46,-8.66 0.97,-0.89 2.32,-1.63 4.23,-1.63 1.91,0 3.29,0.71 4.23,1.63 2.12,2.03 2.46,5.55 2.46,8.66 0,3.11 -0.31,6.72 -2.46,8.69 -0.94,0.89 -2.32,1.63 -4.23,1.63 -1.91,0 -3.26,-0.74 -4.23,-1.63 z m 7.52,-0.92 c 1.86,-1.74 1.97,-5.18 1.97,-7.78 0,-2.6 -0.09,-6 -1.97,-7.75 -0.77,-0.71 -1.8,-1.17 -3.29,-1.17 -1.49,0 -2.52,0.49 -3.26,1.17 -1.89,1.74 -1.97,5.18 -1.97,7.75 0,2.57 0.09,6.03 1.97,7.78 0.74,0.69 1.8,1.17 3.26,1.17 1.46,0 2.54,-0.46 3.29,-1.17 z"
         id="path51" />
    </g>
    <g
       id="g57">
      <path
         d="m 752.67,493.64 h 1.52 v 12.52 l 11.3,-12.52 h 1.83 l -7.89,8.72 8.01,11.55 h -1.74 l -7.26,-10.47 -4.23,4.66 v 5.8 h -1.52 v -20.27 z"
         id="path52" />
      <path
         d="m 769.38,515.1 h 0.77 l 0.07,1.58 c 0.47,-1.1 1.7,-1.82 2.85,-1.82 0.98,0 1.72,0.32 2.28,0.8 0.97,0.82 1.4,2.1 1.4,3.59 0,1.49 -0.42,2.7 -1.32,3.54 -0.57,0.53 -1.35,0.88 -2.35,0.88 -1.22,0 -2.4,-0.68 -2.87,-1.75 v 4.84 h -0.83 z m 5.57,7 c 0.67,-0.72 0.95,-1.77 0.95,-2.83 0,-1.18 -0.33,-2.3 -1.13,-2.99 -0.42,-0.37 -0.98,-0.6 -1.72,-0.6 -0.74,0 -1.32,0.28 -1.75,0.68 -0.77,0.73 -1.1,1.75 -1.1,2.9 0,1.23 0.3,2.2 1.08,2.92 0.43,0.4 1.02,0.67 1.8,0.67 0.78,0 1.43,-0.28 1.87,-0.75 z"
         id="path53" />
      <path
         d="m 799.45,501.93 v 1.26 H 786.7 v -1.26 z m 0,6.03 v 1.26 H 786.7 v -1.26 z"
         id="path54" />
      <path
         d="m 809.98,508.17 h 1.43 c 0.14,2.8 2.09,4.78 5.09,4.78 3.17,0 4.98,-2.23 4.98,-5.23 0,-3 -1.57,-5.29 -4.75,-5.29 -1.77,0 -3.52,0.69 -4.46,2.17 h -1.69 l 0.8,-10.49 h 10.84 v 1.34 h -9.61 l -0.66,7.72 c 1.09,-1.4 3,-2.09 4.78,-2.09 4.09,0 6.18,2.86 6.18,6.63 0,3.77 -2.26,6.61 -6.41,6.61 -4.15,0 -6.43,-2.66 -6.52,-6.15 z"
         id="path55" />
      <path
         d="m 829.48,511.34 v 2.57 h -2.52 v -2.57 z"
         id="path56" />
      <path
         d="m 835.29,512.69 c -2.14,-1.97 -2.46,-5.55 -2.46,-8.69 0,-3.14 0.31,-6.69 2.46,-8.66 0.97,-0.89 2.32,-1.63 4.23,-1.63 1.91,0 3.29,0.71 4.23,1.63 2.12,2.03 2.46,5.55 2.46,8.66 0,3.11 -0.31,6.72 -2.46,8.69 -0.94,0.89 -2.32,1.63 -4.23,1.63 -1.91,0 -3.26,-0.74 -4.23,-1.63 z m 7.52,-0.92 c 1.86,-1.74 1.97,-5.18 1.97,-7.78 0,-2.6 -0.09,-6 -1.97,-7.75 -0.77,-0.71 -1.8,-1.17 -3.29,-1.17 -1.49,0 -2.52,0.49 -3.26,1.17 -1.89,1.74 -1.97,5.18 -1.97,7.75 0,2.57 0.09,6.03 1.97,7.78 0.74,0.69 1.8,1.17 3.26,1.17 1.46,0 2.54,-0.46 3.29,-1.17 z"
         id="path57" />
    </g>
    <path
       id="path227-3"
       data-name="path227"
       d="m 689.77,545.73 h 43.97"
       fill="none"
       stroke="#66cc33"
       stroke-linecap="round"
       stroke-linejoin="round"
       stroke-width="4" />
    <g
       id="g64">
      <path
         d="m 752.67,533.24 h 1.52 v 12.52 l 11.3,-12.52 h 1.83 l -7.89,8.72 8.01,11.55 h -1.74 l -7.26,-10.47 -4.23,4.66 v 5.8 h -1.52 v -20.27 z"
         id="path58" />
      <path
         d="m 769.38,554.7 h 0.77 l 0.07,1.58 c 0.47,-1.1 1.7,-1.82 2.85,-1.82 0.98,0 1.72,0.32 2.28,0.8 0.97,0.82 1.4,2.1 1.4,3.59 0,1.49 -0.42,2.7 -1.32,3.54 -0.57,0.53 -1.35,0.88 -2.35,0.88 -1.22,0 -2.4,-0.68 -2.87,-1.75 v 4.84 h -0.83 z m 5.57,7 c 0.67,-0.72 0.95,-1.77 0.95,-2.84 0,-1.18 -0.33,-2.3 -1.13,-2.98 -0.42,-0.37 -0.98,-0.6 -1.72,-0.6 -0.74,0 -1.32,0.28 -1.75,0.68 -0.77,0.73 -1.1,1.75 -1.1,2.9 0,1.23 0.3,2.2 1.08,2.92 0.43,0.4 1.02,0.67 1.8,0.67 0.78,0 1.43,-0.28 1.87,-0.75 z"
         id="path59" />
      <path
         d="m 799.45,541.54 v 1.26 H 786.7 v -1.26 z m 0,6.03 v 1.26 H 786.7 v -1.26 z"
         id="path60" />
      <path
         d="m 809.21,539.16 v -1.6 l 5.43,-3.86 h 1.29 v 19.82 h -1.43 v -18.04 l -5.29,3.69 z"
         id="path61" />
      <path
         d="m 823.22,552.29 c -2.14,-1.97 -2.46,-5.55 -2.46,-8.69 0,-3.14 0.31,-6.69 2.46,-8.66 0.97,-0.89 2.32,-1.63 4.23,-1.63 1.91,0 3.29,0.71 4.23,1.63 2.12,2.03 2.46,5.55 2.46,8.66 0,3.11 -0.31,6.72 -2.46,8.69 -0.94,0.89 -2.32,1.63 -4.23,1.63 -1.91,0 -3.26,-0.74 -4.23,-1.63 z m 7.52,-0.92 c 1.86,-1.74 1.97,-5.18 1.97,-7.78 0,-2.6 -0.09,-6 -1.97,-7.75 -0.77,-0.71 -1.8,-1.17 -3.29,-1.17 -1.49,0 -2.52,0.49 -3.26,1.17 -1.89,1.74 -1.97,5.18 -1.97,7.75 0,2.57 0.09,6.03 1.97,7.78 0.74,0.69 1.8,1.17 3.26,1.17 1.46,0 2.54,-0.46 3.29,-1.17 z"
         id="path62" />
      <path
         d="m 840.01,550.94 v 2.57 h -2.52 v -2.57 z"
         id="path63" />
      <path
         d="m 845.81,552.29 c -2.14,-1.97 -2.46,-5.55 -2.46,-8.69 0,-3.14 0.31,-6.69 2.46,-8.66 0.97,-0.89 2.32,-1.63 4.23,-1.63 1.91,0 3.29,0.71 4.23,1.63 2.12,2.03 2.46,5.55 2.46,8.66 0,3.11 -0.31,6.72 -2.46,8.69 -0.94,0.89 -2.32,1.63 -4.23,1.63 -1.91,0 -3.26,-0.74 -4.23,-1.63 z m 7.52,-0.92 c 1.86,-1.74 1.97,-5.18 1.97,-7.78 0,-2.6 -0.09,-6 -1.97,-7.75 -0.77,-0.71 -1.8,-1.17 -3.29,-1.17 -1.49,0 -2.52,0.49 -3.26,1.17 -1.89,1.74 -1.97,5.18 -1.97,7.75 0,2.57 0.09,6.03 1.97,7.78 0.74,0.69 1.8,1.17 3.26,1.17 1.46,0 2.54,-0.46 3.29,-1.17 z"
         id="path64" />
    </g>
    <g
       id="path227-4"
       data-name="path227">
      <g
         id="g66">
        <line
           x1="689.77002"
           y1="585.32001"
           x2="693.77002"
           y2="585.32001"
           fill="none"
           stroke="#000000"
           stroke-linecap="round"
           stroke-linejoin="round"
           stroke-width="4"
           id="line64" />
        <line
           x1="707.26001"
           y1="585.32001"
           x2="722.98999"
           y2="585.32001"
           fill="none"
           stroke="#000000"
           stroke-dasharray="0, 0, 8.99, 13.49"
           stroke-linecap="round"
           stroke-linejoin="round"
           stroke-width="4"
           id="line65" />
        <line
           x1="729.73999"
           y1="585.32001"
           x2="733.73999"
           y2="585.32001"
           fill="none"
           stroke="#000000"
           stroke-linecap="round"
           stroke-linejoin="round"
           stroke-width="4"
           id="line66" />
      </g>
    </g>
    <g
       id="g70">
      <path
         d="m 754.18,572.83 v 20.27 h -1.52 v -20.27 z"
         id="path66" />
      <path
         d="m 759.85,578.81 h 1.32 l 0.11,2.75 c 0.74,-1.97 2.97,-3.15 4.98,-3.15 3.26,0 5.06,2.17 5.06,5.35 v 9.35 h -1.43 v -9.21 c 0,-2.4 -1.23,-4.09 -3.77,-4.09 -3.17,0 -4.83,2.63 -4.83,5.8 v 7.49 h -1.43 v -14.3 z"
         id="path67" />
      <path
         d="m 776.46,578.81 h 1.32 l 0.11,2.72 c 0.8,-1.89 2.92,-3.12 4.89,-3.12 1.69,0 2.95,0.54 3.92,1.37 1.66,1.4 2.4,3.6 2.4,6.15 0,2.55 -0.71,4.63 -2.26,6.06 -0.97,0.92 -2.32,1.52 -4.03,1.52 -2.09,0 -4.12,-1.17 -4.92,-3 v 8.29 h -1.43 z m 9.55,12.01 c 1.14,-1.23 1.63,-3.03 1.63,-4.86 0,-2.03 -0.57,-3.95 -1.94,-5.12 -0.71,-0.63 -1.69,-1.03 -2.95,-1.03 -1.26,0 -2.26,0.49 -3,1.17 -1.32,1.26 -1.89,3 -1.89,4.98 0,2.12 0.51,3.77 1.86,5 0.74,0.69 1.74,1.14 3.09,1.14 1.35,0 2.46,-0.49 3.2,-1.29 z"
         id="path68" />
      <path
         d="m 793.31,588.04 v -9.24 h 1.43 v 9.15 c 0,2.49 1.23,4.15 3.75,4.15 3.32,0 4.69,-2.66 4.69,-5.86 v -7.43 h 1.43 v 14.3 h -1.32 l -0.11,-2.69 c -0.8,1.89 -2.63,3.09 -4.78,3.09 -3.23,0 -5.09,-2.26 -5.09,-5.46 z"
         id="path69" />
      <path
         d="m 811.38,589.39 v -9.26 h -3.37 v -1.32 h 3.37 v -3.95 l 1.43,-0.34 v 4.29 h 4.49 v 1.32 h -4.49 v 9.06 c 0,1.57 0.49,2.77 2.57,2.77 0.77,0 1.37,-0.09 2.12,-0.26 v 1.26 c -0.71,0.23 -1.43,0.34 -2.23,0.34 -2.8,0 -3.89,-1.63 -3.89,-3.92 z"
         id="path70" />
    </g>
  </g>
  <path
     id="path114"
     d="m 60.099998,187.5 h 18 M 425,187.5 h -18"
     style="fill:none;stroke:#000000;stroke-width:1;stroke-linecap:butt;stroke-linejoin:miter;stroke-miterlimit:10;stroke-dasharray:none;stroke-opacity:1"
     transform="matrix(1.3320001,0,0,1.3320001,-12.347715,-21.578403)"
     clip-path="url(#clipPath115)" />
  <text
     id="text115"
     xml:space="preserve"
     transform="translate(32.696745,234.1656)"
     clip-path="url(#clipPath116)"><tspan
       style="font-variant:normal;font-weight:normal;font-size:15.98px;font-family:'Times New Roman';writing-mode:lr-tb;fill:#000000;fill-opacity:1;fill-rule:nonzero;stroke:none"
       x="0 7.984375 15.96875"
       y="0"
       sodipodi:role="line"
       id="tspan115">140</tspan></text>
  <path
     id="path117"
     d="m 60.099998,179.89999 h 9 m 355.900002,0 h -9 M 60.099998,172.3 h 9 M 425,172.3 h -9 M 60.099998,164.7 h 9 M 425,164.7 h -9 M 60.099998,157.2 h 9 M 425,157.2 h -9 M 60.099998,149.60001 h 18 m 346.900002,0 h -18"
     style="fill:none;stroke:#000000;stroke-width:1;stroke-linecap:butt;stroke-linejoin:miter;stroke-miterlimit:10;stroke-dasharray:none;stroke-opacity:1"
     transform="matrix(1.3320001,0,0,1.3320001,-12.347715,-21.578403)"
     clip-path="url(#clipPath118)" />
  <text
     id="text118"
     xml:space="preserve"
     transform="translate(32.696745,183.6828)"
     clip-path="url(#clipPath119)"><tspan
       style="font-variant:normal;font-weight:normal;font-size:15.98px;font-family:'Times New Roman';writing-mode:lr-tb;fill:#000000;fill-opacity:1;fill-rule:nonzero;stroke:none"
       x="0 7.984375 15.96875"
       y="0"
       sodipodi:role="line"
       id="tspan118">150</tspan></text>
  <path
     id="path120"
     d="m 60.099998,142 h 9 M 425,142 h -9 M 60.099998,134.39999 h 9 m 355.900002,0 h -9 M 60.099998,126.8 h 9 M 425,126.8 h -9 M 60.099998,119.2 h 9 M 425,119.2 h -9 M 60.099998,111.6 h 18 M 425,111.6 h -18"
     style="fill:none;stroke:#000000;stroke-width:1;stroke-linecap:butt;stroke-linejoin:miter;stroke-miterlimit:10;stroke-dasharray:none;stroke-opacity:1"
     transform="matrix(1.3320001,0,0,1.3320001,-12.347715,-21.578403)"
     clip-path="url(#clipPath121)" />
  <text
     id="text121"
     xml:space="preserve"
     transform="translate(32.696745,133.0668)"
     clip-path="url(#clipPath122)"><tspan
       style="font-variant:normal;font-weight:normal;font-size:15.98px;font-family:'Times New Roman';writing-mode:lr-tb;fill:#000000;fill-opacity:1;fill-rule:nonzero;stroke:none"
       x="0 7.984375 15.96875"
       y="0"
       sodipodi:role="line"
       id="tspan121">160</tspan></text>
  <path
     id="path123"
     d="m 60.099998,104 h 9 M 425,104 h -9 M 60.099998,96.400002 h 9 m 355.900002,0 h -9 M 60.099998,88.800003 h 9 m 355.900002,0 h -9 M 60.099998,81.199997 h 9 m 355.900002,0 h -9 M 60.099998,73.599998 h 18 m 346.900002,0 h -18"
     style="fill:none;stroke:#000000;stroke-width:1;stroke-linecap:butt;stroke-linejoin:miter;stroke-miterlimit:10;stroke-dasharray:none;stroke-opacity:1"
     transform="matrix(1.3320001,0,0,1.3320001,-12.347715,-21.578403)"
     clip-path="url(#clipPath124)" />
  <text
     id="text124"
     xml:space="preserve"
     transform="translate(32.696745,82.450797)"
     clip-path="url(#clipPath125)"><tspan
       style="font-variant:normal;font-weight:normal;font-size:15.98px;font-family:'Times New Roman';writing-mode:lr-tb;fill:#000000;fill-opacity:1;fill-rule:nonzero;stroke:none"
       x="0 7.984375 15.96875"
       y="0"
       sodipodi:role="line"
       id="tspan124">170</tspan></text>
  <path
     id="path126"
     d="m 60.099998,66 h 9 M 425,66 h -9 M 60.099998,58.5 h 9 M 425,58.5 h -9 M 60.099998,50.900002 h 9 m 355.900002,0 h -9 M 60.099998,43.299999 h 9 m 355.900002,0 h -9 M 60.099998,35.700001 h 18 m 346.900002,0 h -18"
     style="fill:none;stroke:#000000;stroke-width:1;stroke-linecap:butt;stroke-linejoin:miter;stroke-miterlimit:10;stroke-dasharray:none;stroke-opacity:1"
     transform="matrix(1.3320001,0,0,1.3320001,-12.347715,-21.578403)"
     clip-path="url(#clipPath127)" />
  <text
     id="text127"
     xml:space="preserve"
     transform="translate(32.696745,31.968007)"
     clip-path="url(#clipPath128)"><tspan
       style="font-variant:normal;font-weight:normal;font-size:15.98px;font-family:'Times New Roman';writing-mode:lr-tb;fill:#000000;fill-opacity:1;fill-rule:nonzero;stroke:none"
       x="0 7.984375 15.96875"
       y="0"
       sodipodi:role="line"
       id="tspan127">180</tspan></text>
  <path
     id="path129"
     d="m 60.099998,28.1 h 9 M 425,28.1 h -9 M 60.099998,20.5 h 9 M 425,20.5 h -9 m -355.900002,186 v -18 m 0,-171.799999 v 18"
     style="fill:none;stroke:#000000;stroke-width:1;stroke-linecap:butt;stroke-linejoin:miter;stroke-miterlimit:10;stroke-dasharray:none;stroke-opacity:1"
     transform="matrix(1.3320001,0,0,1.3320001,-12.347715,-21.578403)"
     clip-path="url(#clipPath130)" />
  <text
     id="text130"
     xml:space="preserve"
     transform="translate(63.721145,278.5212)"
     clip-path="url(#clipPath131)"><tspan
       style="font-variant:normal;font-weight:normal;font-size:15.98px;font-family:'Times New Roman';writing-mode:lr-tb;fill:#000000;fill-opacity:1;fill-rule:nonzero;stroke:none"
       x="0"
       y="0"
       id="tspan130">0</tspan></text>
  <path
     id="path132"
     d="m 72.300003,206.5 v -9 m 0,-180.799999 v 9 M 84.400002,206.5 v -9 m 0,-180.799999 v 9 M 96.599998,206.5 v -9 m 0,-180.799999 v 9 M 108.8,206.5 v -9 m 0,-180.799999 v 9 M 120.9,206.5 v -9 m 0,-180.799999 v 9 M 133.10001,206.5 v -9 m 0,-180.799999 v 9 M 145.2,206.5 v -9 m 0,-180.799999 v 9 M 157.39999,206.5 v -9 m 0,-180.799999 v 9 M 169.60001,206.5 v -9 m 0,-180.799999 v 9 M 181.7,206.5 v -18 m 0,-171.799999 v 18"
     style="fill:none;stroke:#000000;stroke-width:1;stroke-linecap:butt;stroke-linejoin:miter;stroke-miterlimit:10;stroke-dasharray:none;stroke-opacity:1"
     transform="matrix(1.3320001,0,0,1.3320001,-12.347715,-21.578403)"
     clip-path="url(#clipPath133)" />
  <text
     id="text133"
     xml:space="preserve"
     transform="translate(217.70795,278.5212)"
     clip-path="url(#clipPath134)"><tspan
       style="font-variant:normal;font-weight:normal;font-size:15.98px;font-family:'Times New Roman';writing-mode:lr-tb;fill:#000000;fill-opacity:1;fill-rule:nonzero;stroke:none"
       x="0 7.984375 15.96875"
       y="0"
       sodipodi:role="line"
       id="tspan133">500</tspan></text>
  <path
     id="path135"
     d="m 193.89999,206.5 v -9 m 0,-180.799999 v 9 M 206.10001,206.5 v -9 m 0,-180.799999 v 9 M 218.2,206.5 v -9 m 0,-180.799999 v 9 M 230.39999,206.5 v -9 m 0,-180.799999 v 9 M 242.60001,206.5 v -9 m 0,-180.799999 v 9 M 254.7,206.5 v -9 m 0,-180.799999 v 9 M 266.89999,206.5 v -9 m 0,-180.799999 v 9 M 279,206.5 v -9 m 0,-180.799999 v 9 M 291.20001,206.5 v -9 m 0,-180.799999 v 9 M 303.39999,206.5 v -18 m 0,-171.799999 v 18"
     style="fill:none;stroke:#000000;stroke-width:1;stroke-linecap:butt;stroke-linejoin:miter;stroke-miterlimit:10;stroke-dasharray:none;stroke-opacity:1"
     transform="matrix(1.3320001,0,0,1.3320001,-12.347715,-21.578403)"
     clip-path="url(#clipPath136)" />
  <text
     id="text136"
     xml:space="preserve"
     transform="translate(375.81235,278.5212)"
     clip-path="url(#clipPath137)"><tspan
       style="font-variant:normal;font-weight:normal;font-size:15.98px;font-family:'Times New Roman';writing-mode:lr-tb;fill:#000000;fill-opacity:1;fill-rule:nonzero;stroke:none"
       x="0 7.984375 15.96875 23.953125"
       y="0"
       sodipodi:role="line"
       id="tspan136">1000</tspan></text>
  <path
     id="path138"
     d="m 315.5,206.5 v -9 m 0,-180.799999 v 9 M 327.70001,206.5 v -9 m 0,-180.799999 v 9 M 339.89999,206.5 v -9 m 0,-180.799999 v 9 M 352,206.5 v -9 m 0,-180.799999 v 9 M 364.20001,206.5 v -9 m 0,-180.799999 v 9 M 376.29999,206.5 v -9 m 0,-180.799999 v 9 M 388.5,206.5 v -9 m 0,-180.799999 v 9 M 400.70001,206.5 v -9 m 0,-180.799999 v 9 M 412.79999,206.5 v -9 m 0,-180.799999 v 9 M 425,206.5 v -18 m 0,-171.799999 v 18"
     style="fill:none;stroke:#000000;stroke-width:1;stroke-linecap:butt;stroke-linejoin:miter;stroke-miterlimit:10;stroke-dasharray:none;stroke-opacity:1"
     transform="matrix(1.3320001,0,0,1.3320001,-12.347715,-21.578403)"
     clip-path="url(#clipPath139)" />
  <text
     id="text139"
     xml:space="preserve"
     transform="translate(537.78365,278.5212)"
     clip-path="url(#clipPath140)"><tspan
       style="font-variant:normal;font-weight:normal;font-size:15.98px;font-family:'Times New Roman';writing-mode:lr-tb;fill:#000000;fill-opacity:1;fill-rule:nonzero;stroke:none"
       x="0 7.984375 15.96875 23.953125"
       y="0"
       sodipodi:role="line"
       id="tspan139">1500</tspan></text>
  <path
     id="path141"
     d="M 60.099998,16.700001 V 206.5 H 425 V 16.700001 Z"
     style="fill:none;stroke:#000000;stroke-width:1;stroke-linecap:butt;stroke-linejoin:miter;stroke-miterlimit:10;stroke-dasharray:none;stroke-opacity:1"
     transform="matrix(1.3320001,0,0,1.3320001,-12.347715,-21.578403)"
     clip-path="url(#clipPath142)" />
  <text
     id="text142"
     xml:space="preserve"
     transform="translate(245.92705,158.3748)"
     clip-path="url(#clipPath143)"><tspan
       style="font-variant:normal;font-weight:normal;font-size:15.98px;font-family:'Times New Roman';writing-mode:lr-tb;fill:#000000;fill-opacity:1;fill-rule:nonzero;stroke:none"
       x="0 5.3177185 13.302094 20.389786 25.707504 32.795197 39.882889 46.09729 50.53392 58.518295 66.50267 70.494858 78.479233 85.566925 90.003555"
       y="0"
       sodipodi:role="line"
       id="tspan142">Increasing gain</tspan></text>
  <path
     id="path144"
     d="M 149.3,81.199997 133.10001,73.599998 143.3,88.300003 M 191.5,123 133.10001,73.599998"
     style="fill:none;stroke:#000000;stroke-width:1;stroke-linecap:butt;stroke-linejoin:miter;stroke-miterlimit:10;stroke-dasharray:none;stroke-opacity:1"
     transform="matrix(1.3320001,0,0,1.3320001,-12.347715,-21.578403)"
     clip-path="url(#clipPath145)" />
  <text
     id="text145"
     xml:space="preserve"
     transform="rotate(-90,97.115393,86.019905)"
     clip-path="url(#clipPath146)"><tspan
       style="font-variant:normal;font-weight:normal;font-size:15.98px;font-family:'Times New Roman';writing-mode:lr-tb;fill:#000000;fill-opacity:1;fill-rule:nonzero;stroke:none"
       x="0 8.6385651 15.726257 28.147263 36.131638 43.21933 48.537048 55.624741 60.061371 68.045746 73.363464 80.451157 84.443344 89.761063 96.147003 106.79803"
       y="0"
       sodipodi:role="line"
       id="tspan145">Temperature (°C)</tspan></text>
  <text
     id="text146"
     xml:space="preserve"
     transform="translate(283.67795,300.6324)"
     clip-path="url(#clipPath147)"><tspan
       style="font-variant:normal;font-weight:normal;font-size:15.98px;font-family:'Times New Roman';writing-mode:lr-tb;fill:#000000;fill-opacity:1;fill-rule:nonzero;stroke:none"
       x="0 9.1925507 13.629181 26.050186 33.137878 37.130066 42.447784 48.662186"
       y="0"
       sodipodi:role="line"
       id="tspan146">Time (s)</tspan></text>
  <path
     id="path148"
     d="M 60.099998,149.60001 H 61.299999 62.5 63.700001 65 66.199997 67.400002 68.599998 69.800003 71 72.300003 73.5 h 1.199997 1.200005 1.199996 1.200005 1.299995 1.200005 H 82 h 1.199997 1.200005 1.199996 1.300004 1.199996 1.200005 1.199997 1.199997 1.200005 1.299995 1.200005 1.199996 1.200005 H 99 h 1.2 1.3 1.2 1.2 1.2 1.2 1.2 1.3 1.2 1.2 1.2 1.2 1.2 1.3 1.2 1.2 1.2 l 1.2,-94.900009 h 1.2 1.2 1.3 1.2 1.2 1.2 1.19999 1.20002 1.29998 1.20002 1.19999 1.2 1.2 1.19999 1.30001 1.19999 1.20002 1.19999 1.2 1.2 1.3 1.2 1.19999 1.20002 1.19999 1.2 1.3 1.2 1.2 1.19999 1.20002 1.19999 1.30001 1.19999 1.2 1.2 1.19999 1.20002 1.29998 1.20002 1.19999 1.2 1.2 1.19999 1.30001 1.19999 1.20002 1.19999 1.2 1.2 1.19999 1.30001 1.19999 1.20002 1.19999 1.2 1.2 1.3 1.2 1.19999 1.20002 1.19999 1.2 1.3 1.2 1.2 1.19999 1.20002 1.19999 1.30001 1.19999 1.2 1.2 1.19999 1.20002 1.29998 1.20002 1.19999 1.2 1.2 1.19999 1.30001 1.19999 1.20002 1.19999 1.2 1.2 1.3 1.2 1.19999 1.20002 1.19999 1.2 1.3 1.2 1.2 1.19999 1.20002 1.19999 1.30001 1.19999 1.2 1.2 1.19999 1.20002 1.19999 1.30001 1.19999 1.2 1.2 1.19999 1.20002 1.29998 1.20002 1.19998 1.20001 1.20001 1.19998 1.30002 1.19998 1.20002 1.19998 1.20001 1.20001 1.29999 1.20001 1.19998 1.20002 1.19998 1.20001 1.29999 1.20001 1.20001 1.19998 1.20002 1.19998 1.30002 1.19998 1.20001 1.20001 1.19998 1.20002 1.29998 1.20002 1.19998 1.20001 1.20001 1.19998 1.30002 1.19998 1.20002 1.19998 1.20001 1.20001 1.19998 1.30002 1.19998 1.20002 1.19998 1.20001 1.20001 1.29999 1.20001 1.19998 1.20002 1.19998 1.20001 1.29999 1.20001 1.20001 1.19998 1.20002 1.19998 1.30002 1.19998 1.20001 1.20001 1.19998 1.20002 1.29998 1.20002 1.19998 1.20001 1.20001 1.19998 1.30002 1.19998 1.20002 1.19998 1.20001 1.20001 1.29999 1.20001 1.19998 1.20002 1.19998 1.20001 1.29999 1.20001 1.20001 1.19998 1.20002 1.19998 1.20001 1.29999 1.20001 1.20001 1.19998 1.20002 1.19998 1.30002 1.19998 1.20001 1.20001 1.19998 1.20002 1.29998 1.20002 1.19998 1.20001 1.20001 1.19998 1.30002 1.19998 1.20002 1.19998 1.20001 1.20001 1.29999 1.20001 1.19998 1.20002 1.19998 1.20001 1.29999 1.20001 1.20001 1.19998 1.20002 1.19998 1.30002 1.19998 1.20001 1.20001 1.19998 1.20002 1.29998 1.20002 1.19998 H 425"
     style="fill:none;stroke:#ff0000;stroke-width:1;stroke-linecap:butt;stroke-linejoin:miter;stroke-miterlimit:10;stroke-dasharray:none;stroke-opacity:1"
     transform="matrix(1.3320001,0,0,1.3320001,-12.347715,-21.578403)"
     clip-path="url(#clipPath149)" />
  <path
     id="path150"
     d="M 60.099998,150.60001 H 61.299999 62.5 63.700001 65 66.199997 67.400002 68.599998 69.800003 71 72.300003 73.5 h 1.199997 1.200005 1.199996 1.200005 1.299995 1.200005 H 82 h 1.199997 1.200005 1.199996 1.300004 1.199996 1.200005 1.199997 1.199997 1.200005 1.299995 1.200005 1.199996 1.200005 H 99 h 1.2 1.3 1.2 1.2 1.2 1.2 1.2 1.3 1.2 1.2 1.2 1.2 1.2 1.3 1.2 1.2 1.2 1.2 l 1.2,-0.10001 1.2,-0.60001 1.3,-1.09999 1.2,-1.5 1.2,-1.90001 1.2,-2.29998 1.19999,-2.5 1.20002,-2.80001 1.29998,-2.90001 1.20002,-3.19999 1.19999,-3.30001 1.2,-3.49999 1.2,-3.5 1.19999,-3.7 1.30001,-3.7 1.19999,-3.9 1.20002,-3.9 1.19999,-3.9 1.2,-3.899998 1.2,-4 1.3,-4.099999 1.2,-4 1.19999,-4.100006 1.20002,-4.099999 L 151.3,74 l 1.2,-4.099998 1.3,-4.099999 1.2,-4.100002 1.2,-4.200001 1.19999,-4 1.20002,-3.700001 1.19999,-3.099998 1.30001,-2.600003 1.19999,-1.899997 1.2,-1.5 1.2,-1.100003 1.19999,-0.799999 1.20002,-0.5 1.29998,-0.200001 h 1.20002 l 1.19999,0.200001 1.2,0.400002 1.2,0.5 1.19999,0.599998 1.30001,0.799999 1.19999,0.800004 1.20002,0.899997 1.19999,1 1.2,1 1.2,1.100003 1.19999,1.099998 1.30001,1.200001 1.19999,1.200001 1.20002,1.199996 1.19999,1.200001 1.2,1.299999 1.2,1.300004 1.3,1.299999 1.2,1.200001 1.19999,1.299999 1.20002,0.899997 1.19999,0.600003 1.2,0.1 1.3,-0.399997 L 200,58.200001 201.2,57 l 1.19999,-1.299999 1.20002,-1.299999 1.19999,-1.100003 1.30001,-0.700001 1.19999,-0.5 1.2,-0.199996 h 1.2 l 1.19999,0.1 1.20002,0.400002 1.29998,0.399997 1.20002,0.600003 L 215.8,54.200001 217,55 l 1.2,0.799999 1.19999,0.900002 L 220.7,57.5 l 1.19999,0.5 1.20002,0.299999 1.19999,-0.1 1.2,-0.400002 1.2,-0.700001 1.3,-0.899997 1.2,-0.900002 1.19999,-0.799999 1.20002,-0.700001 L 232.8,53.4 234,53.299997 235.3,53.4 l 1.2,0.199996 1.2,0.400002 1.19999,0.5 1.20002,0.700001 L 241.3,55.9 242.60001,56.699999 243.8,57.299997 245,57.699999 246.2,57.9 247.39999,57.799997 248.60001,57.4 249.8,56.799997 l 1.30001,-0.700001 1.19999,-0.799999 1.2,-0.700001 1.2,-0.5 1.19999,-0.199996 1.20002,-0.100003 1.29998,0.100003 1.20002,0.399997 1.19998,0.400002 1.20001,0.6 1.20001,0.700001 1.19998,0.599998 1.30002,0.600003 1.19998,0.399997 1.20002,0.100003 1.19998,-0.100003 L 270.5,57.299999 271.70001,56.700001 273,56 l 1.20001,-0.700001 1.19998,-0.599998 1.20002,-0.400002 1.19998,-0.200001 L 279,54 280.29999,54.200001 281.5,54.5 l 1.20001,0.5 1.19998,0.599998 1.20002,0.700001 1.19998,0.600003 1.30002,0.399997 1.19998,0.299999 H 290 L 291.20001,57.400002 292.39999,57 l 1.20002,-0.599998 1.29998,-0.700001 1.20002,-0.600003 L 297.29999,54.5 298.5,54.200001 l 1.20001,-0.100003 1.19998,0.100003 1.30002,0.299999 1.19998,0.400002 1.20002,0.599998 1.19998,0.599998 1.20001,0.600003 1.20001,0.5 1.19998,0.299999 1.30002,0.1 1.19998,-0.199996 L 313.10001,57.1 314.29999,56.6 315.5,55.900004 316.70001,55.300001 318,54.700003 l 1.20001,-0.299999 1.19998,-0.200001 h 1.20002 L 322.79999,54.5 324,54.799999 l 1.29999,0.5 L 326.5,56 l 1.20001,0.599998 1.19998,0.5 1.20002,0.300004 1.19998,0.1 1.30002,-0.1 1.19998,-0.300004 1.20001,-0.5 L 336.20001,56 l 1.19998,-0.599998 1.20002,-0.600003 1.29998,-0.299999 1.20002,-0.299999 h 1.19998 L 343.5,54.5 l 1.20001,0.299999 1.19998,0.5 1.30002,0.600003 1.19998,0.599998 1.20002,0.5 1.19998,0.400002 1.20001,0.1 h 1.20001 l 1.29999,-0.299999 1.20001,-0.5 1.19998,-0.600003 1.20002,-0.6 1.19998,-0.599998 L 360.5,54.5 361.79999,54.299999 H 363 l 1.20001,0.100003 1.19998,0.399997 1.20002,0.5 1.19998,0.5 1.20001,0.600003 1.29999,0.5 L 371.5,57.299999 372.70001,57.5 h 1.19998 l 1.20002,-0.299999 1.19998,-0.5 1.30002,-0.5 L 378.79999,55.5 380,55 l 1.20001,-0.5 1.19998,-0.200001 h 1.20002 l 1.29998,0.100003 1.20002,0.399997 1.19998,0.400002 1.20001,0.599998 1.20001,0.600003 1.19998,0.5 1.30002,0.399997 1.19998,0.200001 h 1.20002 l 1.19998,-0.299999 1.20001,-0.5 1.20001,-0.5 L 399.5,55.599998 400.70001,55 l 1.19998,-0.400002 1.20002,-0.299999 h 1.19998 l 1.20001,0.100003 1.29999,0.299999 1.20001,0.5 1.20001,0.599998 1.19998,0.600003 1.20002,0.5 1.19998,0.399997 1.30002,0.200001 h 1.19998 l 1.20001,-0.299999 1.20001,-0.400002 1.19998,-0.599998 1.20002,-0.600003 L 421.39999,55 l 1.20002,-0.400002 1.19998,-0.299999 1.20001,-0.1"
     style="fill:none;stroke:#0000ff;stroke-width:1;stroke-linecap:butt;stroke-linejoin:miter;stroke-miterlimit:10;stroke-dasharray:none;stroke-opacity:1"
     transform="matrix(1.3320001,0,0,1.3320001,-12.347715,-21.578403)"
     clip-path="url(#clipPath151)" />
  <path
     id="path152"
     d="M 60.099998,155.8 H 61.299999 62.5 63.700001 65 66.199997 67.400002 68.599998 69.800003 71 72.300003 73.5 h 1.199997 1.200005 1.199996 1.200005 1.299995 1.200005 H 82 h 1.199997 1.200005 1.199996 1.300004 1.199996 1.200005 1.199997 1.199997 1.200005 1.299995 1.200005 1.199996 1.200005 H 99 h 1.2 1.3 1.2 1.2 1.2 1.2 1.2 1.3 1.2 1.2 1.2 1.2 1.2 1.3 1.2 1.2 1.2 1.2 l 1.2,-0.1 1.2,-0.59999 1.3,-1.10001 1.2,-1.5 1.2,-1.89999 1.2,-2.30001 1.19999,-2.5 1.20002,-2.8 1.29998,-3 1.20002,-3.2 1.19999,-3.3 1.2,-3.5 1.2,-3.6 1.19999,-3.6 1.30001,-3.8 1.19999,-3.8 1.20002,-3.9 1.19999,-3.9 1.2,-4 1.2,-3.999998 1.3,-4 1.2,-4.099999 1.19999,-4.100006 1.20002,-4.099999 L 151.3,79 152.5,74.900002 153.8,71 l 1.2,-3.699997 1.2,-3.400001 1.19999,-3.100003 1.20002,-2.700001 1.19999,-2.299999 1.30001,-1.899997 1.19999,-1.5 1.2,-1.100003 1.2,-0.700001 1.19999,-0.5 1.20002,-0.199996 h 1.29998 l 1.20002,0.199996 1.19999,0.300004 1.2,0.5 1.2,0.599998 1.19999,0.799999 L 175.7,53.099998 176.89999,54 l 1.20002,0.900002 1.19999,1 1.2,1.099998 1.2,1 1.19999,1.099998 1.30001,1 1.19999,0.900002 1.20002,0.900002 1.19999,0.799999 1.2,0.700001 1.2,0.5 1.3,0.5 1.2,0.400001 1.19999,0.199997 1.20002,0.199997 h 1.19999 1.2 l 1.3,-0.1 1.2,-0.199996 1.2,-0.200005 L 202.39999,64.5 203.60001,64.199997 204.8,63.900002 206.10001,63.599998 207.3,63.299999 208.5,63 l 1.2,-0.299999 1.19999,-0.299999 1.20002,-0.200001 1.29998,-0.299999 1.20002,-0.100003 1.19999,-0.200001 1.2,-0.1 1.2,-0.1 1.19999,-0.100003 h 1.30001 1.19999 1.20002 1.19999 1.2 l 1.2,0.100003 1.3,0.1 1.2,0.1 h 1.19999 l 1.20002,0.200001 H 232.8 l 1.2,0.100003 1.3,0.1 1.2,0.1 1.2,0.100003 h 1.19999 l 1.20002,0.1 H 241.3 l 1.30001,0.100003 h 1.19999 1.2 1.2 1.19999 1.20002 1.19999 1.30001 1.19999 l 1.2,-0.100003 h 1.2 1.19999 1.20002 1.29998 l 1.20002,-0.1 H 260.79999 262 l 1.20001,-0.100003 h 1.19998 1.30002 1.19998 1.20002 1.19998 1.20001 1.20001 1.29999 1.20001 1.19998 1.20002 1.19998 1.20001 1.29999 1.20001 1.20001 1.19998 1.20002 1.19998 1.30002 1.19998 L 290,62.200005 h 1.20001 1.19998 1.20002 1.29998 1.20002 1.19998 1.20001 1.20001 1.19998 1.30002 1.19998 1.20002 1.19998 1.20001 1.20001 1.19998 l 1.30002,-0.100003 h 1.19998 1.20002 1.19998 1.20001 1.20001 1.29999 1.20001 1.19998 1.20002 1.19998 1.20001 1.29999 1.20001 1.20001 1.19998 1.20002 1.19998 1.30002 1.19998 1.20001 1.20001 1.19998 1.20002 1.29998 1.20002 1.19998 1.20001 1.20001 1.19998 1.30002 1.19998 1.20002 1.19998 1.20001 1.20001 1.29999 1.20001 1.19998 1.20002 1.19998 1.20001 1.29999 1.20001 1.20001 1.19998 1.20002 1.19998 1.20001 1.29999 1.20001 1.20001 1.19998 1.20002 1.19998 1.30002 1.19998 1.20001 1.20001 1.19998 1.20002 1.29998 1.20002 1.19998 1.20001 1.20001 1.19998 1.30002 1.19998 1.20002 1.19998 1.20001 1.20001 1.29999 1.20001 1.19998 1.20002 1.19998 1.20001 1.29999 1.20001 1.20001 1.19998 1.20002 1.19998 1.30002 1.19998 1.20001 1.20001 1.19998 1.20002 1.29998 1.20002 1.19998 l 1.20001,0.1"
     style="fill:none;stroke:#00ff00;stroke-width:1;stroke-linecap:butt;stroke-linejoin:miter;stroke-miterlimit:10;stroke-dasharray:none;stroke-opacity:1"
     transform="matrix(1.3320001,0,0,1.3320001,-12.347715,-21.578403)"
     clip-path="url(#clipPath153)" />
  <path
     id="path154"
     d="M 60.099998,179.2 H 61.299999 62.5 63.700001 65 66.199997 67.400002 68.599998 69.800003 71 72.300003 73.5 h 1.199997 1.200005 1.199996 1.200005 1.299995 1.200005 H 82 h 1.199997 1.200005 1.199996 1.300004 1.199996 1.200005 1.199997 1.199997 1.200005 1.299995 1.200005 1.199996 1.200005 H 99 h 1.2 1.3 1.2 1.2 1.2 1.2 1.2 1.3 1.2 1.2 1.2 1.2 1.2 1.3 1.2 1.2 1.2 1.2 l 1.2,-0.1 1.2,-0.40001 1.3,-0.9 1.2,-1.19999 1.2,-1.5 1.2,-1.70002 1.19999,-2 1.20002,-2.09999 1.29998,-2.3 1.20002,-2.3 1.19999,-2.5 1.2,-2.5 1.2,-2.5 1.19999,-2.59999 1.30001,-2.6 1.19999,-2.5 1.20002,-2.60001 L 142.8,144.5 144,142 l 1.2,-2.39999 1.3,-2.30001 1.2,-2.3 1.19999,-2.2 1.20002,-2.19999 L 151.3,128.5 l 1.2,-2 1.3,-1.9 1.2,-1.9 1.2,-1.8 1.19999,-1.7 1.20002,-1.6 1.19999,-1.6 1.30001,-1.5 1.19999,-1.4 1.2,-1.3 1.2,-1.4 1.19999,-1.2 1.20002,-1.2 1.29998,-1.1 1.20002,-1 1.19999,-1 1.2,-1 1.2,-0.8 1.19999,-0.9 1.30001,-0.8 1.19999,-0.7 1.20002,-0.799998 1.19999,-0.599999 1.2,-0.600006 1.2,-0.599999 1.19999,-0.5 L 184.2,97 l 1.19999,-0.5 1.20002,-0.400002 1.19999,-0.400001 1.2,-0.399994 1.2,-0.400001 1.3,-0.300004 1.2,-0.400001 1.19999,-0.299995 1.20002,-0.300004 1.19999,-0.199996 1.2,-0.200005 1.3,-0.299995 1.2,-0.200005 1.2,-0.199997 1.19999,-0.199997 1.20002,-0.200005 1.19999,-0.1 1.30001,-0.1 1.19999,-0.200005 1.2,-0.1 1.2,-0.1 1.19999,-0.1 1.20002,-0.1 1.29998,-0.100006 1.20002,-0.1 1.19999,-0.1 1.2,-0.1 h 1.2 l 1.19999,-0.1 H 220.7 l 1.19999,-0.100006 1.20002,-0.1 h 1.19999 1.2 l 1.2,-0.1 h 1.3 1.2 1.19999 l 1.20002,-0.1 h 1.19999 1.2 1.3 l 1.2,-0.1 h 1.2 1.19999 1.20002 1.19999 1.30001 1.19999 1.2 1.2 1.19999 1.20002 1.19999 1.30001 L 252.3,90.199975 h 1.2 1.2 1.19999 1.20002 1.29998 1.20002 1.19998 1.20001 1.20001 1.19998 1.30002 1.19998 1.20002 1.19998 1.20001 1.20001 1.29999 1.20001 1.19998 1.20002 1.19998 1.20001 1.29999 1.20001 1.20001 1.19998 1.20002 1.19998 1.30002 1.19998 1.20001 1.20001 1.19998 1.20002 1.29998 1.20002 1.19998 1.20001 1.20001 1.19998 1.30002 1.19998 1.20002 1.19998 1.20001 1.20001 1.19998 1.30002 1.19998 1.20002 1.19998 1.20001 1.20001 1.29999 1.20001 1.19998 1.20002 1.19998 1.20001 1.29999 1.20001 1.20001 1.19998 1.20002 1.19998 1.30002 1.19998 1.20001 1.20001 1.19998 1.20002 1.29998 1.20002 1.19998 1.20001 1.20001 1.19998 1.30002 1.19998 1.20002 1.19998 1.20001 1.20001 1.29999 1.20001 1.19998 1.20002 1.19998 1.20001 1.29999 1.20001 1.20001 1.19998 1.20002 1.19998 1.20001 1.29999 1.20001 1.20001 1.19998 1.20002 1.19998 1.30002 1.19998 1.20001 1.20001 1.19998 1.20002 1.29998 1.20002 1.19998 1.20001 1.20001 1.19998 1.30002 1.19998 1.20002 1.19998 1.20001 1.20001 1.29999 1.20001 1.19998 1.20002 1.19998 1.20001 1.29999 1.20001 1.20001 1.19998 1.20002 1.19998 1.30002 1.19998 1.20001 1.20001 1.19998 1.20002 1.29998 1.20002 1.19998 H 425"
     style="fill:none;stroke:#00ffff;stroke-width:1;stroke-linecap:butt;stroke-linejoin:miter;stroke-miterlimit:10;stroke-dasharray:none;stroke-opacity:1"
     transform="matrix(1.3320001,0,0,1.3320001,-12.347715,-21.578403)"
     clip-path="url(#clipPath155)" />
  <path
     id="path156"
     d="M 60.099998,16.700001 V 206.5 H 425 V 16.700001 Z"
     style="fill:none;stroke:#000000;stroke-width:1;stroke-linecap:butt;stroke-linejoin:miter;stroke-miterlimit:10;stroke-dasharray:none;stroke-opacity:1"
     transform="matrix(1.3320001,0,0,1.3320001,-12.347715,-21.578403)"
     clip-path="url(#clipPath157)" />
</svg>
