<?xml version="1.0" encoding="UTF-8"?>
<svg id="Ebene_1" data-name="Ebene 1" xmlns="http://www.w3.org/2000/svg" viewBox="0 0 966.23 652.96">
  <path d="m593.73,149.43c-102.12,32.82-62.33,268.89-151.19,294.41-88.85,25.53-233.27-56.65-379.82-140.03h-1.24s0,267.6,0,267.6h572.56s0-1.58,0-1.58V143.06c-15.18.63-28.78,2.66-40.32,6.37Z" fill="#ccc" stroke-width="0"/>
  <g>
    <line x1="634.05" y1="143.99" x2="634.05" y2="154.19" fill="none" stroke="#069" stroke-linecap="round" stroke-linejoin="round" stroke-width="4"/>
    <line x1="634.05" y1="175.53" x2="634.05" y2="548.96" fill="none" stroke="#069" stroke-dasharray="0 0 21.34 21.34" stroke-linecap="round" stroke-linejoin="round" stroke-width="4"/>
    <line x1="634.05" y1="559.63" x2="634.05" y2="569.83" fill="none" stroke="#069" stroke-linecap="round" stroke-linejoin="round" stroke-width="4"/>
  </g>
  <g>
    <line x1="61.49" y1="571.41" x2="962.18" y2="571.41" fill="none" stroke="#000" stroke-linecap="round" stroke-linejoin="round" stroke-width="2"/>
    <path d="m950.56,579.57c-.25-.4-.13-.92.26-1.17l10.97-6.99-10.97-6.99c-.4-.25-.51-.78-.26-1.17.25-.4.78-.51,1.18-.26l12.09,7.7c.24.16.39.43.39.72s-.15.56-.39.72l-12.09,7.7c-.14.09-.3.13-.46.13-.28,0-.56-.14-.72-.39Z" stroke-width="0"/>
  </g>
  <g>
    <line x1="61.49" y1="571.41" x2="61.49" y2="2.04" fill="none" stroke="#000" stroke-linecap="round" stroke-linejoin="round" stroke-width="2"/>
    <path d="m69.65,13.66c-.4.25-.92.13-1.17-.26l-6.99-10.97-6.99,10.97c-.25.4-.78.51-1.17.26-.4-.25-.51-.78-.26-1.18L60.77.39c.16-.24.43-.39.72-.39s.56.15.72.39l7.7,12.09c.09.14.13.3.13.46,0,.28-.14.56-.39.72Z" stroke-width="0"/>
  </g>
  <path d="m62.73,303.82c146.54,83.38,290.96,165.56,379.82,140.03,88.85-25.53,49.07-261.59,151.19-294.41,69.6-22.37,214.05,16.4,329.43,53.33l41.07,12.39" fill="none" stroke="#000" stroke-linecap="round" stroke-linejoin="round" stroke-width="4"/>
  <g>
    <line x1="484.91" y1="129.73" x2="495.09" y2="130.49" fill="none" stroke="#6c3" stroke-linecap="round" stroke-linejoin="round" stroke-width="4"/>
    <line x1="514.18" y1="131.9" x2="771.88" y2="151.02" fill="none" stroke="#6c3" stroke-dasharray="0 0 19.14 19.14" stroke-linecap="round" stroke-linejoin="round" stroke-width="4"/>
    <line x1="781.43" y1="151.73" x2="791.6" y2="152.48" fill="none" stroke="#6c3" stroke-linecap="round" stroke-linejoin="round" stroke-width="4"/>
  </g>
  <g>
    <path d="m3.57,23.37c-1.17-1.37-1.89-3.32-1.89-5.49,0-1.8.29-3.57,1.43-5.09,1.23-1.63,2.92-2.52,5-2.52,3.95,0,6.32,3.15,6.32,6.95,0,.34,0,.54-.03.94H3.12c.06,3.17,1.92,5.83,5.12,5.83,2.26,0,4.03-1.49,4.38-3.32h1.49c-.43,2.69-3,4.69-5.86,4.69-2.06,0-3.72-.92-4.66-2Zm9.38-6.49c-.06-2.72-1.74-5.26-4.83-5.26s-4.92,2.46-4.98,5.26h9.81Z" stroke-width="0"/>
    <path d="m18.16,15.74c0-4.46,1.63-9.44,4.72-12.9l.89.69c-2.8,3.6-4.26,7.52-4.26,12.21s1.46,8.61,4.26,12.21l-.89.69c-3.09-3.46-4.72-8.44-4.72-12.9Z" stroke-width="0"/>
    <path d="m28.46,21.26v-9.26h-3.37v-1.32h3.37v-3.95l1.43-.34v4.29h4.49v1.32h-4.49v9.06c0,1.57.49,2.77,2.57,2.77.77,0,1.37-.09,2.12-.26v1.26c-.71.23-1.43.34-2.23.34-2.8,0-3.89-1.63-3.89-3.92Z" stroke-width="0"/>
    <path d="m35.92,27.95c2.8-3.6,4.26-7.52,4.26-12.21s-1.46-8.61-4.26-12.21l.89-.69c3.09,3.46,4.72,8.44,4.72,12.9s-1.63,9.44-4.72,12.9l-.89-.69Z" stroke-width="0"/>
  </g>
  <path d="m951.89,606.34v-9.26h-3.38v-1.32h3.38v-3.95l1.43-.34v4.29h4.49v1.32h-4.49v9.06c0,1.57.49,2.77,2.57,2.77.77,0,1.37-.09,2.12-.26v1.26c-.71.23-1.43.34-2.23.34-2.8,0-3.89-1.63-3.89-3.92Z" stroke-width="0"/>
  <path d="m643.01,141.11c0,4.95-4.01,8.96-8.97,8.96s-8.96-4.01-8.96-8.96,4.01-8.97,8.96-8.97,8.97,4.01,8.97,8.97Z" fill="#005ea9" stroke-width="0"/>
  <g>
    <path d="m577.78,51.41v1.43h-11.47v7.58h10.09v1.43h-10.09v8.41h11.47v1.43h-12.98v-20.27h12.98Z" fill="#6c3" stroke-width="0"/>
    <path d="m581.87,57.38h1.32l.11,2.95c.63-2,2.57-3.09,4.6-3.09.43,0,.92,0,1.34.14v1.37c-.46-.11-.94-.14-1.4-.14-3.32,0-4.55,2.75-4.55,5.92v7.15h-1.43v-14.3Z" fill="#6c3" stroke-width="0"/>
    <path d="m592.68,57.38h1.32l.11,2.95c.63-2,2.57-3.09,4.6-3.09.43,0,.92,0,1.34.14v1.37c-.46-.11-.94-.14-1.4-.14-3.32,0-4.55,2.75-4.55,5.92v7.15h-1.43v-14.3Z" fill="#6c3" stroke-width="0"/>
    <path d="m604.09,70.39c-1.57-1.52-2.17-3.4-2.17-5.86s.6-4.35,2.17-5.86c1.03-.97,2.46-1.69,4.29-1.69s3.26.71,4.29,1.69c1.57,1.52,2.17,3.43,2.17,5.86s-.6,4.35-2.17,5.86c-1.03.97-2.46,1.69-4.29,1.69s-3.26-.71-4.29-1.69Zm7.58-.97c1.34-1.32,1.72-3,1.72-4.89s-.37-3.57-1.72-4.89c-.77-.77-1.86-1.26-3.29-1.26s-2.52.49-3.29,1.26c-1.34,1.32-1.72,3.03-1.72,4.89s.37,3.57,1.72,4.89c.77.77,1.86,1.26,3.29,1.26s2.52-.49,3.29-1.26Z" fill="#6c3" stroke-width="0"/>
    <path d="m619.22,57.38h1.32l.11,2.95c.63-2,2.57-3.09,4.6-3.09.43,0,.92,0,1.34.14v1.37c-.46-.11-.94-.14-1.4-.14-3.32,0-4.55,2.75-4.55,5.92v7.15h-1.43v-14.3Z" fill="#6c3" stroke-width="0"/>
    <path d="m633.24,52.84v-1.43h15.24v1.43h-6.89v18.84h-1.49v-18.84h-6.86Z" fill="#6c3" stroke-width="0"/>
    <path d="m649.85,70.08c-1.17-1.37-1.89-3.32-1.89-5.49,0-1.8.29-3.57,1.43-5.09,1.23-1.63,2.92-2.52,5-2.52,3.95,0,6.32,3.15,6.32,6.95,0,.34,0,.54-.03.94h-11.29c.06,3.17,1.92,5.83,5.12,5.83,2.26,0,4.03-1.49,4.38-3.32h1.49c-.43,2.69-3,4.69-5.86,4.69-2.06,0-3.72-.92-4.66-2Zm9.38-6.49c-.06-2.72-1.74-5.26-4.83-5.26s-4.92,2.46-4.98,5.26h9.81Z" fill="#6c3" stroke-width="0"/>
    <path d="m664.95,57.38h1.32l.11,2.75c.74-1.97,2.97-3.15,4.98-3.15,3.26,0,5.06,2.17,5.06,5.35v9.35h-1.43v-9.21c0-2.4-1.23-4.09-3.77-4.09-3.17,0-4.83,2.63-4.83,5.81v7.49h-1.43v-14.3Z" fill="#6c3" stroke-width="0"/>
    <path d="m683,70.71c-1.66-1.4-2.4-3.69-2.4-6.15s.74-4.55,2.29-6c1-.94,2.4-1.57,4.17-1.57,2.32,0,4.09,1.29,4.75,2.89v-8.89h1.46v20.7h-1.34l-.11-2.72c-.8,1.92-2.89,3.12-4.86,3.12-1.69,0-2.97-.54-3.95-1.37Zm6.98-1.2c1.34-1.23,1.86-3,1.86-4.98,0-2.12-.49-3.77-1.83-5-.74-.69-1.74-1.14-3.09-1.14s-2.43.49-3.2,1.29c-1.14,1.2-1.66,3.03-1.66,4.86,0,2.03.57,3.98,1.94,5.12.74.63,1.74,1.03,2.97,1.03s2.26-.49,3-1.17Z" fill="#6c3" stroke-width="0"/>
    <path d="m699.5,70.08c-1.17-1.37-1.89-3.32-1.89-5.49,0-1.8.29-3.57,1.43-5.09,1.23-1.63,2.92-2.52,5-2.52,3.95,0,6.32,3.15,6.32,6.95,0,.34,0,.54-.03.94h-11.29c.06,3.17,1.92,5.83,5.12,5.83,2.26,0,4.03-1.49,4.38-3.32h1.49c-.43,2.69-3,4.69-5.86,4.69-2.06,0-3.72-.92-4.66-2Zm9.38-6.49c-.06-2.72-1.74-5.26-4.83-5.26s-4.92,2.46-4.98,5.26h9.81Z" fill="#6c3" stroke-width="0"/>
    <path d="m714.6,57.38h1.32l.11,2.75c.74-1.97,2.97-3.15,4.98-3.15,3.26,0,5.06,2.17,5.06,5.35v9.35h-1.43v-9.21c0-2.4-1.23-4.09-3.77-4.09-3.17,0-4.83,2.63-4.83,5.81v7.49h-1.43v-14.3Z" fill="#6c3" stroke-width="0"/>
    <path d="m732.33,70.37c-1.52-1.52-2.06-3.4-2.06-5.83s.51-4.38,2.06-5.86c1.03-1,2.49-1.69,4.32-1.69,3.03,0,5.35,1.86,5.69,4.83h-1.52c-.31-1.97-1.94-3.43-4.17-3.43-1.4,0-2.52.46-3.29,1.23-1.34,1.34-1.63,3.03-1.63,4.92s.31,3.55,1.66,4.89c.77.77,1.89,1.23,3.29,1.23,2.23,0,3.86-1.46,4.17-3.43h1.49c-.37,2.95-2.69,4.83-5.69,4.83-1.83,0-3.29-.66-4.32-1.69Z" fill="#6c3" stroke-width="0"/>
    <path d="m744.72,77.26v-1.4c.51.26,1.14.43,1.86.43,1.37,0,2.23-.63,2.89-2.29l.83-2.09-5.83-14.53h1.57l4.95,12.7,4.78-12.7h1.52l-6.55,17.1c-.89,2.32-2.17,3.17-4.06,3.17-.92,0-1.72-.26-1.94-.4Z" fill="#6c3" stroke-width="0"/>
    <path d="m563.94,96.76c0-4.46,1.63-9.44,4.72-12.9l.89.69c-2.8,3.6-4.26,7.52-4.26,12.21s1.46,8.61,4.26,12.21l-.89.69c-3.09-3.46-4.72-8.44-4.72-12.9Z" fill="#6c3" stroke-width="0"/>
    <path d="m579.81,85.73c2.29,0,4.12.77,5.38,1.97,2.29,2.17,2.63,5.32,2.63,8.18s-.34,5.98-2.63,8.15c-1.26,1.2-3.09,1.97-5.38,1.97h-6.69v-20.27h6.69Zm4.29,17.36c2-1.86,2.17-4.92,2.17-7.21s-.17-5.38-2.17-7.23c-1.03-.97-2.6-1.46-4.29-1.46h-5.2v17.36h5.2c1.69,0,3.26-.49,4.29-1.46Z" fill="#6c3" stroke-width="0"/>
    <path d="m596.2,87.16v-1.43h15.24v1.43h-6.89v18.84h-1.49v-18.84h-6.86Z" fill="#6c3" stroke-width="0"/>
    <path d="m612.82,104.4c-1.17-1.37-1.89-3.32-1.89-5.49,0-1.8.29-3.57,1.43-5.09,1.23-1.63,2.92-2.52,5-2.52,3.95,0,6.32,3.15,6.32,6.95,0,.34,0,.54-.03.94h-11.29c.06,3.17,1.92,5.83,5.12,5.83,2.26,0,4.03-1.49,4.38-3.32h1.49c-.43,2.69-3,4.69-5.86,4.69-2.06,0-3.72-.92-4.66-2Zm9.38-6.49c-.06-2.72-1.74-5.26-4.83-5.26s-4.92,2.46-4.98,5.26h9.81Z" fill="#6c3" stroke-width="0"/>
    <path d="m627.92,91.7h1.32l.11,2.95c.63-2,2.57-3.09,4.6-3.09.43,0,.92,0,1.34.14v1.37c-.46-.11-.94-.14-1.4-.14-3.32,0-4.55,2.75-4.55,5.92v7.15h-1.43v-14.3Z" fill="#6c3" stroke-width="0"/>
    <path d="m638.73,91.7h1.32l.11,2.8c.66-1.92,2.4-3.2,4.49-3.2,2.46,0,3.89,1.26,4.46,3.09.77-1.77,2.32-3.09,4.72-3.09,3.35,0,4.75,2.2,4.75,5.26v9.44h-1.43v-9.26c0-2.52-.97-4.09-3.46-4.09-2.69,0-4.26,2.37-4.26,5.26v8.09h-1.49v-9.26c0-2.52-1.09-4.09-3.46-4.09-2.75,0-4.32,2.57-4.32,5.63v7.72h-1.43v-14.3Z" fill="#6c3" stroke-width="0"/>
    <path d="m661.64,108.97c2.8-3.6,4.26-7.52,4.26-12.21s-1.46-8.61-4.26-12.21l.89-.69c3.09,3.46,4.72,8.44,4.72,12.9s-1.63,9.44-4.72,12.9l-.89-.69Z" fill="#6c3" stroke-width="0"/>
  </g>
  <g>
    <path d="m565.97,608.25c-2.17-2.2-2.37-5.43-2.37-8.32s.2-6.09,2.37-8.29c1.4-1.4,3.4-2.23,5.35-2.23,3.89,0,6.86,2.72,7.21,6.61h-1.54c-.26-3-2.46-5.15-5.66-5.15-1.8,0-3.17.66-4.26,1.77-1.83,1.89-1.92,4.86-1.92,7.29s.11,5.43,1.94,7.32c1.12,1.14,2.54,1.77,4.23,1.77,3.2,0,5.4-2.15,5.66-5.15h1.54c-.31,3.97-3.4,6.61-7.21,6.61-1.94,0-3.95-.83-5.35-2.23Z" fill="#069" stroke-width="0"/>
    <path d="m582.41,605.02v-9.24h1.43v9.15c0,2.49,1.23,4.15,3.75,4.15,3.32,0,4.69-2.66,4.69-5.86v-7.43h1.43v14.3h-1.32l-.11-2.69c-.8,1.89-2.63,3.09-4.78,3.09-3.23,0-5.09-2.26-5.09-5.46Z" fill="#069" stroke-width="0"/>
    <path d="m599.03,595.79h1.32l.11,2.95c.63-2,2.57-3.09,4.6-3.09.43,0,.92,0,1.34.14v1.37c-.46-.11-.94-.14-1.4-.14-3.32,0-4.55,2.75-4.55,5.92v7.15h-1.43v-14.3Z" fill="#069" stroke-width="0"/>
    <path d="m609.84,595.79h1.32l.11,2.95c.63-2,2.57-3.09,4.6-3.09.43,0,.92,0,1.34.14v1.37c-.46-.11-.94-.14-1.4-.14-3.32,0-4.55,2.75-4.55,5.92v7.15h-1.43v-14.3Z" fill="#069" stroke-width="0"/>
    <path d="m620.93,608.48c-1.17-1.37-1.89-3.32-1.89-5.49,0-1.8.29-3.57,1.43-5.09,1.23-1.63,2.92-2.52,5-2.52,3.95,0,6.32,3.15,6.32,6.95,0,.34,0,.54-.03.94h-11.3c.06,3.17,1.92,5.83,5.12,5.83,2.26,0,4.03-1.49,4.38-3.32h1.49c-.43,2.69-3,4.69-5.86,4.69-2.06,0-3.72-.92-4.66-2Zm9.38-6.49c-.06-2.72-1.74-5.26-4.83-5.26s-4.92,2.46-4.98,5.26h9.81Z" fill="#069" stroke-width="0"/>
    <path d="m636.04,595.79h1.32l.11,2.75c.74-1.97,2.97-3.15,4.98-3.15,3.26,0,5.06,2.17,5.06,5.35v9.35h-1.43v-9.21c0-2.4-1.23-4.09-3.77-4.09-3.17,0-4.83,2.63-4.83,5.8v7.49h-1.43v-14.3Z" fill="#069" stroke-width="0"/>
    <path d="m653.85,606.37v-9.26h-3.37v-1.32h3.37v-3.95l1.43-.34v4.29h4.49v1.32h-4.49v9.06c0,1.57.49,2.77,2.57,2.77.77,0,1.37-.09,2.12-.26v1.26c-.71.23-1.43.34-2.23.34-2.8,0-3.89-1.63-3.89-3.92Z" fill="#069" stroke-width="0"/>
    <path d="m683.45,589.81v1.43h-11.47v7.58h10.09v1.43h-10.09v8.41h11.47v1.43h-12.98v-20.27h12.98Z" fill="#069" stroke-width="0"/>
    <path d="m687.54,595.79h1.32l.11,2.95c.63-2,2.57-3.09,4.6-3.09.43,0,.92,0,1.34.14v1.37c-.46-.11-.94-.14-1.4-.14-3.32,0-4.55,2.75-4.55,5.92v7.15h-1.43v-14.3Z" fill="#069" stroke-width="0"/>
    <path d="m698.35,595.79h1.32l.11,2.95c.63-2,2.57-3.09,4.6-3.09.43,0,.92,0,1.34.14v1.37c-.46-.11-.94-.14-1.4-.14-3.32,0-4.55,2.75-4.55,5.92v7.15h-1.43v-14.3Z" fill="#069" stroke-width="0"/>
    <path d="m709.77,608.8c-1.57-1.52-2.17-3.4-2.17-5.86s.6-4.35,2.17-5.86c1.03-.97,2.46-1.69,4.29-1.69s3.26.71,4.29,1.69c1.57,1.52,2.17,3.43,2.17,5.86s-.6,4.35-2.17,5.86c-1.03.97-2.46,1.69-4.29,1.69s-3.26-.71-4.29-1.69Zm7.58-.97c1.34-1.32,1.72-3,1.72-4.89s-.37-3.57-1.72-4.89c-.77-.77-1.86-1.26-3.29-1.26s-2.52.49-3.29,1.26c-1.34,1.32-1.72,3.03-1.72,4.89s.37,3.57,1.72,4.89c.77.77,1.86,1.26,3.29,1.26s2.52-.49,3.29-1.26Z" fill="#069" stroke-width="0"/>
    <path d="m724.89,595.79h1.32l.11,2.95c.63-2,2.57-3.09,4.6-3.09.43,0,.92,0,1.34.14v1.37c-.46-.11-.94-.14-1.4-.14-3.32,0-4.55,2.75-4.55,5.92v7.15h-1.43v-14.3Z" fill="#069" stroke-width="0"/>
    <path d="m563.94,635.17c0-4.46,1.63-9.44,4.72-12.9l.89.69c-2.8,3.6-4.26,7.52-4.26,12.21s1.46,8.61,4.26,12.21l-.89.69c-3.09-3.46-4.72-8.44-4.72-12.9Z" fill="#069" stroke-width="0"/>
    <path d="m580.24,624.13c3.75,0,6.66,1.8,6.66,5.78s-2.92,5.78-6.66,5.78h-5.63v8.72h-1.49v-20.27h7.12Zm5.12,5.78c0-3.15-2.26-4.35-5.2-4.35h-5.55v8.69h5.55c2.95,0,5.2-1.2,5.2-4.35Z" fill="#069" stroke-width="0"/>
    <path d="m593.74,625.56v-1.43h15.24v1.43h-6.89v18.84h-1.49v-18.84h-6.86Z" fill="#069" stroke-width="0"/>
    <path d="m610.35,642.8c-1.17-1.37-1.89-3.32-1.89-5.49,0-1.8.29-3.57,1.43-5.09,1.23-1.63,2.92-2.52,5-2.52,3.95,0,6.32,3.15,6.32,6.95,0,.34,0,.54-.03.94h-11.29c.06,3.17,1.92,5.83,5.12,5.83,2.26,0,4.03-1.49,4.38-3.32h1.49c-.43,2.69-3,4.69-5.86,4.69-2.06,0-3.72-.92-4.66-2Zm9.38-6.49c-.06-2.72-1.74-5.26-4.83-5.26s-4.92,2.46-4.98,5.26h9.81Z" fill="#069" stroke-width="0"/>
    <path d="m625.45,630.11h1.32l.11,2.95c.63-2,2.57-3.09,4.6-3.09.43,0,.92,0,1.34.14v1.37c-.46-.11-.94-.14-1.4-.14-3.32,0-4.55,2.75-4.55,5.92v7.15h-1.43v-14.3Z" fill="#069" stroke-width="0"/>
    <path d="m636.26,630.11h1.32l.11,2.8c.66-1.92,2.4-3.2,4.49-3.2,2.46,0,3.89,1.26,4.46,3.09.77-1.77,2.32-3.09,4.72-3.09,3.35,0,4.75,2.2,4.75,5.26v9.44h-1.43v-9.26c0-2.52-.97-4.09-3.46-4.09-2.69,0-4.26,2.37-4.26,5.26v8.09h-1.49v-9.26c0-2.52-1.09-4.09-3.46-4.09-2.75,0-4.32,2.57-4.32,5.63v7.72h-1.43v-14.3Z" fill="#069" stroke-width="0"/>
    <path d="m659.17,647.38c2.8-3.6,4.26-7.52,4.26-12.21s-1.46-8.61-4.26-12.21l.89-.69c3.09,3.46,4.72,8.44,4.72,12.9s-1.63,9.44-4.72,12.9l-.89-.69Z" fill="#069" stroke-width="0"/>
  </g>
  <g>
    <path d="m133.69,490.29h-9.61l-2.43,6.38h-1.57l7.86-20.27h1.8l7.95,20.27h-1.54l-2.46-6.38Zm-.54-1.37l-4.32-11.15-4.23,11.15h8.55Z" stroke-width="0"/>
    <path d="m141.7,495.35c-1.52-1.52-2.06-3.4-2.06-5.83s.51-4.38,2.06-5.86c1.03-1,2.49-1.69,4.32-1.69,3.03,0,5.35,1.86,5.69,4.83h-1.52c-.31-1.97-1.94-3.43-4.17-3.43-1.4,0-2.52.46-3.29,1.23-1.34,1.34-1.63,3.03-1.63,4.92s.31,3.55,1.66,4.89c.77.77,1.89,1.23,3.29,1.23,2.23,0,3.86-1.46,4.17-3.43h1.49c-.37,2.95-2.69,4.83-5.69,4.83-1.83,0-3.29-.66-4.32-1.69Z" stroke-width="0"/>
    <path d="m156.95,495.35c-1.52-1.52-2.06-3.4-2.06-5.83s.51-4.38,2.06-5.86c1.03-1,2.49-1.69,4.32-1.69,3.03,0,5.35,1.86,5.69,4.83h-1.52c-.31-1.97-1.94-3.43-4.17-3.43-1.4,0-2.52.46-3.29,1.23-1.34,1.34-1.63,3.03-1.63,4.92s.31,3.55,1.66,4.89c.77.77,1.89,1.23,3.29,1.23,2.23,0,3.86-1.46,4.17-3.43h1.49c-.37,2.95-2.69,4.83-5.69,4.83-1.83,0-3.29-.66-4.32-1.69Z" stroke-width="0"/>
    <path d="m170.85,491.61v-9.24h1.43v9.15c0,2.49,1.23,4.15,3.75,4.15,3.32,0,4.69-2.66,4.69-5.86v-7.43h1.43v14.3h-1.32l-.11-2.69c-.8,1.89-2.63,3.09-4.78,3.09-3.23,0-5.09-2.26-5.09-5.46Z" stroke-width="0"/>
    <path d="m187.46,482.37h1.32l.11,2.8c.66-1.92,2.4-3.2,4.49-3.2,2.46,0,3.89,1.26,4.46,3.09.77-1.77,2.32-3.09,4.72-3.09,3.35,0,4.75,2.2,4.75,5.26v9.44h-1.43v-9.26c0-2.52-.97-4.09-3.46-4.09-2.69,0-4.26,2.37-4.26,5.26v8.09h-1.49v-9.26c0-2.52-1.09-4.09-3.46-4.09-2.75,0-4.32,2.57-4.32,5.63v7.72h-1.43v-14.3Z" stroke-width="0"/>
    <path d="m212.29,491.61v-9.24h1.43v9.15c0,2.49,1.23,4.15,3.75,4.15,3.32,0,4.69-2.66,4.69-5.86v-7.43h1.43v14.3h-1.32l-.11-2.69c-.8,1.89-2.63,3.09-4.78,3.09-3.23,0-5.09-2.26-5.09-5.46Z" stroke-width="0"/>
    <path d="m228.84,493.81v-17.84h1.43v17.79c0,.97.29,1.72,1.49,1.72.57,0,.83-.03,1.23-.09v1.29c-.31.09-.69.17-1.29.17-1.83,0-2.86-.94-2.86-3.03Z" stroke-width="0"/>
    <path d="m234.96,492.69c0-2.54,1.94-4.12,4.8-4.32l5.26-.37v-1.26c0-2.4-1.74-3.43-3.95-3.43s-3.92,1.03-4.06,3.17h-1.43c.2-2.95,2.57-4.52,5.43-4.52,3.26,0,5.43,1.6,5.43,4.89v7.06c0,.97.14,1.54,1.12,1.54.11,0,.29,0,.4-.03v1.26c-.2.06-.46.09-.69.09-1.77,0-2.26-1.34-2.26-2.86-.77,2.03-2.95,3.15-5.15,3.15-2.77,0-4.92-1.69-4.92-4.38Zm10.07-2.63v-.74l-5.12.31c-2.2.14-3.49,1.34-3.49,3.03,0,2,1.54,3.09,3.57,3.09,3.6,0,5.03-2.92,5.03-5.69Z" stroke-width="0"/>
    <path d="m253.07,492.95v-9.26h-3.37v-1.32h3.37v-3.95l1.43-.34v4.29h4.49v1.32h-4.49v9.06c0,1.57.49,2.77,2.57,2.77.77,0,1.37-.09,2.12-.26v1.26c-.71.23-1.43.34-2.23.34-2.8,0-3.89-1.63-3.89-3.92Z" stroke-width="0"/>
    <path d="m263.11,495.07c-1.17-1.37-1.89-3.32-1.89-5.49,0-1.8.29-3.57,1.43-5.09,1.23-1.63,2.92-2.52,5-2.52,3.95,0,6.32,3.15,6.32,6.95,0,.34,0,.54-.03.94h-11.3c.06,3.17,1.92,5.83,5.12,5.83,2.26,0,4.03-1.49,4.38-3.32h1.49c-.43,2.69-3,4.69-5.86,4.69-2.06,0-3.72-.92-4.66-2Zm9.38-6.49c-.06-2.72-1.74-5.26-4.83-5.26s-4.92,2.46-4.98,5.26h9.81Z" stroke-width="0"/>
    <path d="m279.64,495.7c-1.66-1.4-2.4-3.69-2.4-6.15s.74-4.55,2.29-6c1-.94,2.4-1.57,4.17-1.57,2.32,0,4.09,1.29,4.75,2.89v-8.89h1.46v20.7h-1.34l-.11-2.72c-.8,1.92-2.89,3.12-4.86,3.12-1.69,0-2.97-.54-3.95-1.37Zm6.98-1.2c1.34-1.23,1.86-3,1.86-4.98,0-2.12-.49-3.77-1.83-5-.74-.69-1.74-1.14-3.09-1.14s-2.43.49-3.2,1.29c-1.14,1.2-1.66,3.03-1.66,4.86,0,2.03.57,3.98,1.94,5.12.74.63,1.74,1.03,2.97,1.03s2.26-.49,3-1.17Z" stroke-width="0"/>
    <path d="m315.27,476.4v1.43h-11.47v7.58h10.09v1.43h-10.09v8.41h11.47v1.43h-12.98v-20.27h12.98Z" stroke-width="0"/>
    <path d="m319.36,482.37h1.32l.11,2.95c.63-2,2.57-3.09,4.6-3.09.43,0,.92,0,1.34.14v1.37c-.46-.11-.94-.14-1.4-.14-3.32,0-4.55,2.75-4.55,5.92v7.15h-1.43v-14.3Z" stroke-width="0"/>
    <path d="m330.17,482.37h1.32l.11,2.95c.63-2,2.57-3.09,4.6-3.09.43,0,.92,0,1.34.14v1.37c-.46-.11-.94-.14-1.4-.14-3.32,0-4.55,2.75-4.55,5.92v7.15h-1.43v-14.3Z" stroke-width="0"/>
    <path d="m341.58,495.38c-1.57-1.52-2.17-3.4-2.17-5.86s.6-4.35,2.17-5.86c1.03-.97,2.46-1.69,4.29-1.69s3.26.71,4.29,1.69c1.57,1.52,2.17,3.43,2.17,5.86s-.6,4.35-2.17,5.86c-1.03.97-2.46,1.69-4.29,1.69s-3.26-.71-4.29-1.69Zm7.58-.97c1.34-1.32,1.72-3,1.72-4.89s-.37-3.57-1.72-4.89c-.77-.77-1.86-1.26-3.29-1.26s-2.52.49-3.29,1.26c-1.34,1.32-1.72,3.03-1.72,4.89s.37,3.57,1.72,4.89c.77.77,1.86,1.26,3.29,1.26s2.52-.49,3.29-1.26Z" stroke-width="0"/>
    <path d="m356.71,482.37h1.32l.11,2.95c.63-2,2.57-3.09,4.6-3.09.43,0,.92,0,1.34.14v1.37c-.46-.11-.94-.14-1.4-.14-3.32,0-4.55,2.75-4.55,5.92v7.15h-1.43v-14.3Z" stroke-width="0"/>
    <path d="m121.94,521.75c0-4.46,1.63-9.44,4.72-12.9l.89.69c-2.8,3.6-4.26,7.52-4.26,12.21s1.46,8.61,4.26,12.21l-.89.69c-3.09-3.46-4.72-8.44-4.72-12.9Z" stroke-width="0"/>
    <path d="m132.64,510.72v20.27h-1.52v-20.27h1.52Z" stroke-width="0"/>
    <path d="m142.22,512.15v-1.43h15.24v1.43h-6.89v18.84h-1.49v-18.84h-6.86Z" stroke-width="0"/>
    <path d="m158.83,529.39c-1.17-1.37-1.89-3.32-1.89-5.49,0-1.8.29-3.57,1.43-5.09,1.23-1.63,2.92-2.52,5-2.52,3.95,0,6.32,3.15,6.32,6.95,0,.34,0,.54-.03.94h-11.29c.06,3.17,1.92,5.83,5.12,5.83,2.26,0,4.03-1.49,4.38-3.32h1.49c-.43,2.69-3,4.69-5.86,4.69-2.06,0-3.72-.92-4.66-2Zm9.38-6.49c-.06-2.72-1.74-5.26-4.83-5.26s-4.92,2.46-4.98,5.26h9.81Z" stroke-width="0"/>
    <path d="m173.93,516.69h1.32l.11,2.94c.63-2,2.57-3.09,4.6-3.09.43,0,.92,0,1.34.14v1.37c-.46-.11-.94-.14-1.4-.14-3.32,0-4.55,2.74-4.55,5.92v7.15h-1.43v-14.3Z" stroke-width="0"/>
    <path d="m184.74,516.69h1.32l.11,2.8c.66-1.92,2.4-3.2,4.49-3.2,2.46,0,3.89,1.26,4.46,3.09.77-1.77,2.32-3.09,4.72-3.09,3.35,0,4.75,2.2,4.75,5.26v9.44h-1.43v-9.26c0-2.52-.97-4.09-3.46-4.09-2.69,0-4.26,2.37-4.26,5.26v8.09h-1.49v-9.26c0-2.52-1.09-4.09-3.46-4.09-2.75,0-4.32,2.57-4.32,5.63v7.72h-1.43v-14.3Z" stroke-width="0"/>
    <path d="m207.65,533.96c2.8-3.6,4.26-7.52,4.26-12.21s-1.46-8.61-4.26-12.21l.89-.69c3.09,3.46,4.72,8.44,4.72,12.9s-1.63,9.44-4.72,12.9l-.89-.69Z" stroke-width="0"/>
  </g>
</svg>