<?xml version="1.0" encoding="UTF-8"?>
<svg id="Ebene_1" data-name="Ebene 1" xmlns="http://www.w3.org/2000/svg" viewBox="0 0 964.28 715.35">
  <g>
    <line x1="78" y1="623.41" x2="951.79" y2="623.41" fill="none" stroke="#d9d9d9" stroke-linejoin="round" stroke-width="2"/>
    <line x1="78" y1="521.62" x2="951.79" y2="521.62" fill="none" stroke="#d9d9d9" stroke-linejoin="round" stroke-width="2"/>
    <line x1="78" y1="419.83" x2="951.79" y2="419.83" fill="none" stroke="#d9d9d9" stroke-linejoin="round" stroke-width="2"/>
    <line x1="78" y1="318.05" x2="951.79" y2="318.05" fill="none" stroke="#d9d9d9" stroke-linejoin="round" stroke-width="2"/>
    <line x1="78" y1="216.26" x2="951.79" y2="216.26" fill="none" stroke="#d9d9d9" stroke-linejoin="round" stroke-width="2"/>
    <line x1="78" y1="114.47" x2="951.79" y2="114.47" fill="none" stroke="#d9d9d9" stroke-linejoin="round" stroke-width="2"/>
    <line x1="78" y1="12.69" x2="951.79" y2="12.69" fill="none" stroke="#d9d9d9" stroke-linejoin="round" stroke-width="2"/>
    <line x1="119.61" y1="653" x2="119.61" y2="1.87" fill="none" stroke="#d9d9d9" stroke-linejoin="round" stroke-width="2"/>
    <line x1="223.63" y1="653" x2="223.63" y2="1.87" fill="none" stroke="#d9d9d9" stroke-linejoin="round" stroke-width="2"/>
    <line x1="327.65" y1="653" x2="327.65" y2="1.87" fill="none" stroke="#d9d9d9" stroke-linejoin="round" stroke-width="2"/>
    <line x1="431.68" y1="653" x2="431.68" y2="1.87" fill="none" stroke="#d9d9d9" stroke-linejoin="round" stroke-width="2"/>
    <line x1="535.7" y1="653" x2="535.7" y2="1.87" fill="none" stroke="#d9d9d9" stroke-linejoin="round" stroke-width="2"/>
    <line x1="639.73" y1="653" x2="639.73" y2="1.87" fill="none" stroke="#d9d9d9" stroke-linejoin="round" stroke-width="2"/>
    <line x1="743.75" y1="653" x2="743.75" y2="1.87" fill="none" stroke="#d9d9d9" stroke-linejoin="round" stroke-width="2"/>
    <line x1="847.77" y1="653" x2="847.77" y2="1.87" fill="none" stroke="#d9d9d9" stroke-linejoin="round" stroke-width="2"/>
  </g>
  <line x1="119.61" y1="653" x2="119.61" y2="645.81" fill="none" stroke="#000" stroke-linecap="round" stroke-linejoin="round" stroke-width="2"/>
  <path d="m116.35,680.71c-1.65-1.52-1.89-4.27-1.89-6.69s.24-5.15,1.89-6.67c.75-.68,1.78-1.25,3.26-1.25s2.53.55,3.26,1.25c1.63,1.56,1.89,4.27,1.89,6.67s-.24,5.17-1.89,6.69c-.73.68-1.78,1.25-3.26,1.25s-2.51-.57-3.26-1.25Zm5.79-.7c1.43-1.34,1.52-3.98,1.52-5.98s-.07-4.62-1.52-5.96c-.59-.55-1.39-.9-2.53-.9s-1.94.37-2.51.9c-1.45,1.34-1.52,3.98-1.52,5.96s.07,4.64,1.52,5.98c.57.53,1.39.9,2.51.9s1.96-.35,2.53-.9Z" fill="#1d1d1b"/>
  <line x1="223.63" y1="653" x2="223.63" y2="645.81" fill="none" stroke="#000" stroke-linecap="round" stroke-linejoin="round" stroke-width="2"/>
  <g>
    <path d="m209.97,680.47l6.36-6.86c1.01-1.1,1.52-2.2,1.52-3.34,0-1.8-1.23-3.1-3.32-3.1s-3.41,1.43-3.41,3.92h-1.17c0-3.08,1.87-4.97,4.58-4.97,2.51,0,4.42,1.61,4.42,4.16,0,1.36-.66,2.82-1.76,3.98l-5.96,6.36h8.12v1.06h-9.37v-1.19Z" fill="#1d1d1b"/>
    <path d="m224.29,679.68v1.98h-1.94v-1.98h1.94Z" fill="#1d1d1b"/>
    <path d="m227.4,677.24h1.1c.11,2.16,1.61,3.67,3.92,3.67,2.44,0,3.83-1.72,3.83-4.03s-1.21-4.07-3.65-4.07c-1.36,0-2.71.53-3.43,1.67h-1.3l.62-8.08h8.34v1.03h-7.39l-.51,5.94c.84-1.08,2.31-1.61,3.67-1.61,3.15,0,4.75,2.2,4.75,5.11s-1.74,5.08-4.93,5.08-4.95-2.05-5.02-4.73Z" fill="#1d1d1b"/>
  </g>
  <line x1="327.65" y1="653" x2="327.65" y2="645.81" fill="none" stroke="#000" stroke-linecap="round" stroke-linejoin="round" stroke-width="2"/>
  <path d="m322.67,677.24h1.1c.11,2.16,1.61,3.67,3.92,3.67,2.44,0,3.83-1.72,3.83-4.03s-1.21-4.07-3.65-4.07c-1.36,0-2.71.53-3.43,1.67h-1.3l.62-8.08h8.34v1.03h-7.39l-.51,5.94c.84-1.08,2.31-1.61,3.67-1.61,3.15,0,4.75,2.2,4.75,5.11s-1.74,5.08-4.93,5.08-4.95-2.05-5.02-4.73Z" fill="#1d1d1b"/>
  <line x1="431.68" y1="653" x2="431.68" y2="645.81" fill="none" stroke="#000" stroke-linecap="round" stroke-linejoin="round" stroke-width="2"/>
  <g>
    <path d="m426.5,667.47h-8.87v-1.06h10.03v1.17l-6.91,14.08h-1.28l7.02-14.19Z" fill="#1d1d1b"/>
    <path d="m432.02,679.68v1.98h-1.94v-1.98h1.94Z" fill="#1d1d1b"/>
    <path d="m435.12,677.24h1.1c.11,2.16,1.61,3.67,3.92,3.67,2.44,0,3.83-1.72,3.83-4.03s-1.21-4.07-3.65-4.07c-1.36,0-2.71.53-3.43,1.67h-1.3l.62-8.08h8.34v1.03h-7.39l-.51,5.94c.84-1.08,2.31-1.61,3.67-1.61,3.15,0,4.75,2.2,4.75,5.11s-1.74,5.08-4.93,5.08-4.95-2.05-5.02-4.73Z" fill="#1d1d1b"/>
  </g>
  <line x1="535.7" y1="653" x2="535.7" y2="645.81" fill="none" stroke="#000" stroke-linecap="round" stroke-linejoin="round" stroke-width="2"/>
  <g>
    <path d="m525.69,670.61v-1.23l4.18-2.97h.99v15.25h-1.1v-13.88l-4.07,2.84Z" fill="#1d1d1b"/>
    <path d="m536.47,680.71c-1.65-1.52-1.89-4.27-1.89-6.69s.24-5.15,1.89-6.67c.75-.68,1.78-1.25,3.26-1.25s2.53.55,3.26,1.25c1.63,1.56,1.89,4.27,1.89,6.67s-.24,5.17-1.89,6.69c-.73.68-1.78,1.25-3.26,1.25s-2.51-.57-3.26-1.25Zm5.79-.7c1.43-1.34,1.52-3.98,1.52-5.98s-.07-4.62-1.52-5.96c-.59-.55-1.39-.9-2.53-.9s-1.94.37-2.51.9c-1.45,1.34-1.52,3.98-1.52,5.96s.07,4.64,1.52,5.98c.57.53,1.39.9,2.51.9s1.96-.35,2.53-.9Z" fill="#1d1d1b"/>
  </g>
  <line x1="639.73" y1="653" x2="639.73" y2="645.81" fill="none" stroke="#000" stroke-linecap="round" stroke-linejoin="round" stroke-width="2"/>
  <g>
    <path d="m621.38,670.61v-1.23l4.18-2.97h.99v15.25h-1.1v-13.88l-4.07,2.84Z" fill="#1d1d1b"/>
    <path d="m630.09,680.47l6.36-6.86c1.01-1.1,1.52-2.2,1.52-3.34,0-1.8-1.23-3.1-3.32-3.1s-3.41,1.43-3.41,3.92h-1.17c0-3.08,1.87-4.97,4.58-4.97,2.51,0,4.42,1.61,4.42,4.16,0,1.36-.66,2.82-1.76,3.98l-5.96,6.36h8.12v1.06h-9.37v-1.19Z" fill="#1d1d1b"/>
    <path d="m644.41,679.68v1.98h-1.94v-1.98h1.94Z" fill="#1d1d1b"/>
    <path d="m647.51,677.24h1.1c.11,2.16,1.61,3.67,3.92,3.67,2.44,0,3.83-1.72,3.83-4.03s-1.21-4.07-3.65-4.07c-1.36,0-2.71.53-3.43,1.67h-1.3l.62-8.08h8.34v1.03h-7.39l-.51,5.94c.84-1.08,2.31-1.61,3.67-1.61,3.15,0,4.75,2.2,4.75,5.11s-1.74,5.08-4.93,5.08-4.95-2.05-5.02-4.73Z" fill="#1d1d1b"/>
  </g>
  <line x1="743.75" y1="653" x2="743.75" y2="645.81" fill="none" stroke="#000" stroke-linecap="round" stroke-linejoin="round" stroke-width="2"/>
  <g>
    <path d="m734.15,670.61v-1.23l4.18-2.97h.99v15.25h-1.1v-13.88l-4.07,2.84Z" fill="#1d1d1b"/>
    <path d="m742.79,677.24h1.1c.11,2.16,1.61,3.67,3.92,3.67,2.44,0,3.83-1.72,3.83-4.03s-1.21-4.07-3.65-4.07c-1.36,0-2.71.53-3.43,1.67h-1.3l.62-8.08h8.34v1.03h-7.39l-.51,5.94c.84-1.08,2.31-1.61,3.67-1.61,3.15,0,4.75,2.2,4.75,5.11s-1.74,5.08-4.93,5.08-4.95-2.05-5.02-4.73Z" fill="#1d1d1b"/>
  </g>
  <line x1="847.77" y1="653" x2="847.77" y2="645.81" fill="none" stroke="#000" stroke-linecap="round" stroke-linejoin="round" stroke-width="2"/>
  <g>
    <path d="m829.75,670.61v-1.23l4.18-2.97h.99v15.25h-1.1v-13.88l-4.07,2.84Z" fill="#1d1d1b"/>
    <path d="m846.62,667.47h-8.87v-1.06h10.03v1.17l-6.91,14.08h-1.28l7.02-14.19Z" fill="#1d1d1b"/>
    <path d="m852.14,679.68v1.98h-1.94v-1.98h1.94Z" fill="#1d1d1b"/>
    <path d="m855.24,677.24h1.1c.11,2.16,1.61,3.67,3.92,3.67,2.44,0,3.83-1.72,3.83-4.03s-1.21-4.07-3.65-4.07c-1.36,0-2.71.53-3.43,1.67h-1.3l.62-8.08h8.34v1.03h-7.39l-.51,5.94c.84-1.08,2.31-1.61,3.67-1.61,3.15,0,4.75,2.2,4.75,5.11s-1.74,5.08-4.93,5.08-4.95-2.05-5.02-4.73Z" fill="#1d1d1b"/>
  </g>
  <line x1="951.8" y1="653" x2="951.8" y2="645.81" fill="none" stroke="#000" stroke-linecap="round" stroke-linejoin="round" stroke-width="2"/>
  <g>
    <path d="m940.59,680.47l6.36-6.86c1.01-1.1,1.52-2.2,1.52-3.34,0-1.8-1.23-3.1-3.32-3.1s-3.41,1.43-3.41,3.92h-1.17c0-3.08,1.87-4.97,4.58-4.97,2.51,0,4.42,1.61,4.42,4.16,0,1.36-.66,2.82-1.76,3.98l-5.96,6.36h8.12v1.06h-9.37v-1.19Z" fill="#1d1d1b"/>
    <path d="m954.43,680.71c-1.65-1.52-1.89-4.27-1.89-6.69s.24-5.15,1.89-6.67c.75-.68,1.78-1.25,3.26-1.25s2.53.55,3.26,1.25c1.63,1.56,1.89,4.27,1.89,6.67s-.24,5.17-1.89,6.69c-.73.68-1.78,1.25-3.26,1.25s-2.51-.57-3.26-1.25Zm5.79-.7c1.43-1.34,1.52-3.98,1.52-5.98s-.07-4.62-1.52-5.96c-.59-.55-1.39-.9-2.53-.9s-1.94.37-2.51.9c-1.45,1.34-1.52,3.98-1.52,5.96s.07,4.64,1.52,5.98c.57.53,1.39.9,2.51.9s1.96-.35,2.53-.9Z" fill="#1d1d1b"/>
  </g>
  <line x1="951.79" y1="653" x2="951.79" y2="645.81" fill="none" stroke="#000" stroke-linecap="round" stroke-linejoin="round" stroke-width="2"/>
  <line x1="85.19" y1="623.41" x2="78" y2="623.41" fill="none" stroke="#000" stroke-linecap="round" stroke-linejoin="round" stroke-width="2"/>
  <g>
    <path d="m39.43,628.57c-1.65-1.52-1.89-4.27-1.89-6.69s.24-5.15,1.89-6.67c.75-.68,1.78-1.25,3.26-1.25s2.53.55,3.26,1.25c1.63,1.56,1.89,4.27,1.89,6.67s-.24,5.17-1.89,6.69c-.73.68-1.78,1.25-3.26,1.25s-2.51-.57-3.26-1.25Zm5.79-.7c1.43-1.34,1.52-3.98,1.52-5.98s-.07-4.62-1.52-5.96c-.59-.55-1.39-.9-2.53-.9s-1.94.37-2.51.9c-1.45,1.34-1.52,3.98-1.52,5.96s.07,4.64,1.52,5.98c.57.53,1.39.9,2.51.9s1.96-.35,2.53-.9Z" fill="#1d1d1b"/>
    <path d="m53.12,627.54v1.98h-1.94v-1.98h1.94Z" fill="#1d1d1b"/>
    <path d="m58.35,628.57c-1.65-1.52-1.89-4.27-1.89-6.69s.24-5.15,1.89-6.67c.75-.68,1.78-1.25,3.26-1.25s2.53.55,3.26,1.25c1.63,1.56,1.89,4.27,1.89,6.67s-.24,5.17-1.89,6.69c-.73.68-1.78,1.25-3.26,1.25s-2.51-.57-3.26-1.25Zm5.79-.7c1.43-1.34,1.52-3.98,1.52-5.98s-.07-4.62-1.52-5.96c-.59-.55-1.39-.9-2.53-.9s-1.94.37-2.51.9c-1.45,1.34-1.52,3.98-1.52,5.96s.07,4.64,1.52,5.98c.57.53,1.39.9,2.51.9s1.96-.35,2.53-.9Z" fill="#1d1d1b"/>
  </g>
  <line x1="85.19" y1="521.62" x2="78" y2="521.62" fill="none" stroke="#000" stroke-linecap="round" stroke-linejoin="round" stroke-width="2"/>
  <g>
    <path d="m40.86,526.78c-1.65-1.52-1.89-4.27-1.89-6.69s.24-5.15,1.89-6.67c.75-.68,1.78-1.25,3.26-1.25s2.53.55,3.26,1.25c1.63,1.56,1.89,4.27,1.89,6.67s-.24,5.17-1.89,6.69c-.73.68-1.78,1.25-3.26,1.25s-2.51-.57-3.26-1.25Zm5.79-.7c1.43-1.34,1.52-3.98,1.52-5.98s-.07-4.62-1.52-5.96c-.59-.55-1.39-.9-2.53-.9s-1.94.37-2.51.9c-1.45,1.34-1.52,3.98-1.52,5.96s.07,4.64,1.52,5.98c.57.53,1.39.9,2.51.9s1.96-.35,2.53-.9Z" fill="#1d1d1b"/>
    <path d="m54.55,525.75v1.98h-1.94v-1.98h1.94Z" fill="#1d1d1b"/>
    <path d="m57.71,526.54l6.36-6.87c1.01-1.1,1.52-2.2,1.52-3.34,0-1.8-1.23-3.1-3.32-3.1s-3.41,1.43-3.41,3.92h-1.17c0-3.08,1.87-4.97,4.58-4.97,2.51,0,4.42,1.61,4.42,4.16,0,1.36-.66,2.82-1.76,3.98l-5.96,6.36h8.12v1.06h-9.37v-1.19Z" fill="#1d1d1b"/>
  </g>
  <line x1="85.19" y1="419.83" x2="78" y2="419.83" fill="none" stroke="#000" stroke-linecap="round" stroke-linejoin="round" stroke-width="2"/>
  <g>
    <path d="m40.29,425c-1.65-1.52-1.89-4.27-1.89-6.69s.24-5.15,1.89-6.67c.75-.68,1.78-1.25,3.26-1.25s2.53.55,3.26,1.25c1.63,1.56,1.89,4.27,1.89,6.67s-.24,5.17-1.89,6.69c-.73.68-1.78,1.25-3.26,1.25s-2.51-.57-3.26-1.25Zm5.79-.7c1.43-1.34,1.52-3.98,1.52-5.98s-.07-4.62-1.52-5.96c-.59-.55-1.39-.9-2.53-.9s-1.94.37-2.51.9c-1.45,1.34-1.52,3.98-1.52,5.96s.07,4.64,1.52,5.98c.57.53,1.39.9,2.51.9s1.96-.35,2.53-.9Z" fill="#1d1d1b"/>
    <path d="m53.97,423.96v1.98h-1.94v-1.98h1.94Z" fill="#1d1d1b"/>
    <path d="m64.14,422.36h-7.61v-1.32l6.6-10.34h1.3l-6.78,10.56h6.49v-5.04h1.12v5.04h2.27v1.1h-2.27v3.59h-1.12v-3.59Z" fill="#1d1d1b"/>
  </g>
  <line x1="85.19" y1="318.05" x2="78" y2="318.05" fill="none" stroke="#000" stroke-linecap="round" stroke-linejoin="round" stroke-width="2"/>
  <g>
    <path d="m39.76,323.21c-1.65-1.52-1.89-4.27-1.89-6.69s.24-5.15,1.89-6.67c.75-.68,1.78-1.25,3.26-1.25s2.53.55,3.26,1.25c1.63,1.56,1.89,4.27,1.89,6.67s-.24,5.17-1.89,6.69c-.73.68-1.78,1.25-3.26,1.25s-2.51-.57-3.26-1.25Zm5.79-.7c1.43-1.34,1.52-3.98,1.52-5.98s-.07-4.62-1.52-5.96c-.59-.55-1.39-.9-2.53-.9s-1.94.37-2.51.9c-1.45,1.34-1.52,3.98-1.52,5.96s.07,4.64,1.52,5.98c.57.53,1.39.9,2.51.9s1.96-.35,2.53-.9Z" fill="#1d1d1b"/>
    <path d="m53.45,322.18v1.98h-1.94v-1.98h1.94Z" fill="#1d1d1b"/>
    <path d="m58.18,322.6c-1.17-1.56-1.41-3.9-1.41-6.07,0-2.33.31-4.86,1.8-6.47.73-.77,1.87-1.45,3.45-1.45,2.57,0,4.42,1.58,4.55,3.98h-1.12c-.15-1.76-1.32-2.93-3.43-2.93-3.41,0-4.11,3.67-4.11,7.31.55-1.61,2.22-2.68,4.03-2.68,3.17,0,4.99,2.05,4.99,5.06,0,2.82-1.8,5.13-4.97,5.13-1.78,0-3.06-.9-3.78-1.87Zm7.64-3.26c0-2.11-1.21-4.05-3.85-4.05-2.2,0-3.74,1.78-3.74,4s1.32,4.11,3.76,4.11c2.64,0,3.83-1.94,3.83-4.07Z" fill="#1d1d1b"/>
  </g>
  <line x1="85.19" y1="216.26" x2="78" y2="216.26" fill="none" stroke="#000" stroke-linecap="round" stroke-linejoin="round" stroke-width="2"/>
  <g>
    <path d="m39.78,221.42c-1.65-1.52-1.89-4.27-1.89-6.69s.24-5.15,1.89-6.67c.75-.68,1.78-1.25,3.26-1.25s2.53.55,3.26,1.25c1.63,1.56,1.89,4.27,1.89,6.67s-.24,5.17-1.89,6.69c-.73.68-1.78,1.25-3.26,1.25s-2.51-.57-3.26-1.25Zm5.79-.7c1.43-1.34,1.52-3.98,1.52-5.98s-.07-4.62-1.52-5.96c-.59-.55-1.39-.9-2.53-.9s-1.94.37-2.51.9c-1.45,1.34-1.52,3.98-1.52,5.96s.07,4.64,1.52,5.98c.57.53,1.39.9,2.51.9s1.96-.35,2.53-.9Z" fill="#1d1d1b"/>
    <path d="m53.47,220.39v1.98h-1.94v-1.98h1.94Z" fill="#1d1d1b"/>
    <path d="m56.72,218.34c0-1.72,1.1-3.37,2.84-3.94-1.5-.55-2.49-2-2.49-3.52,0-2.55,2.09-4.07,4.71-4.07s4.71,1.52,4.71,4.07c0,1.52-.99,2.97-2.49,3.52,1.74.57,2.84,2.22,2.84,3.94,0,2.73-2.33,4.33-5.06,4.33s-5.06-1.61-5.06-4.33Zm9-.07c0-2.18-1.76-3.39-3.94-3.39s-3.94,1.21-3.94,3.39,1.76,3.39,3.94,3.39,3.94-1.21,3.94-3.39Zm-.37-7.44c0-1.96-1.61-3.04-3.56-3.04s-3.56,1.08-3.56,3.04,1.56,3.08,3.56,3.08,3.56-1.08,3.56-3.08Z" fill="#1d1d1b"/>
  </g>
  <line x1="85.19" y1="114.47" x2="78" y2="114.47" fill="none" stroke="#000" stroke-linecap="round" stroke-linejoin="round" stroke-width="2"/>
  <g>
    <path d="m41.85,109.54v-1.23l4.18-2.97h.99v15.25h-1.1v-13.88l-4.07,2.84Z" fill="#1d1d1b"/>
    <path d="m53.12,118.61v1.98h-1.94v-1.98h1.94Z" fill="#1d1d1b"/>
    <path d="m58.35,119.64c-1.65-1.52-1.89-4.27-1.89-6.69s.24-5.15,1.89-6.67c.75-.68,1.78-1.25,3.26-1.25s2.53.55,3.26,1.25c1.63,1.56,1.89,4.27,1.89,6.67s-.24,5.17-1.89,6.69c-.73.68-1.78,1.25-3.26,1.25s-2.51-.57-3.26-1.25Zm5.79-.7c1.43-1.34,1.52-3.98,1.52-5.98s-.07-4.62-1.52-5.96c-.59-.55-1.39-.9-2.53-.9s-1.94.37-2.51.9c-1.45,1.34-1.52,3.98-1.52,5.96s.07,4.64,1.52,5.98c.57.53,1.39.9,2.51.9s1.96-.35,2.53-.9Z" fill="#1d1d1b"/>
  </g>
  <line x1="85.19" y1="12.69" x2="78" y2="12.69" fill="none" stroke="#000" stroke-linecap="round" stroke-linejoin="round" stroke-width="2"/>
  <g>
    <path d="m43.28,7.75v-1.23l4.18-2.97h.99v15.25h-1.1V4.92l-4.07,2.84Z" fill="#1d1d1b"/>
    <path d="m54.55,16.82v1.98h-1.94v-1.98h1.94Z" fill="#1d1d1b"/>
    <path d="m57.71,17.61l6.36-6.87c1.01-1.1,1.52-2.2,1.52-3.34,0-1.8-1.23-3.1-3.32-3.1s-3.41,1.43-3.41,3.92h-1.17c0-3.08,1.87-4.97,4.58-4.97,2.51,0,4.42,1.61,4.42,4.16,0,1.36-.66,2.82-1.76,3.98l-5.96,6.36h8.12v1.06h-9.37v-1.19Z" fill="#1d1d1b"/>
  </g>
  <g>
    <path id="path227" d="m689.77,467.39h43.97" fill="none" stroke="#069" stroke-linecap="round" stroke-linejoin="round" stroke-width="4"/>
    <path id="path227-2" data-name="path227" d="m689.77,506.99h43.97" fill="none" stroke="red" stroke-linecap="round" stroke-linejoin="round" stroke-width="4"/>
    <path id="path227-3" data-name="path227" d="m689.77,546.6h43.97" fill="none" stroke="#6c3" stroke-linecap="round" stroke-linejoin="round" stroke-width="4"/>
    <g id="path227-4" data-name="path227">
      <g>
        <line x1="689.77" y1="586.18" x2="693.77" y2="586.18" fill="none" stroke="#000" stroke-linecap="round" stroke-linejoin="round" stroke-width="4"/>
        <line x1="707.26" y1="586.18" x2="722.99" y2="586.18" fill="none" stroke="#000" stroke-dasharray="0 0 8.99 13.49" stroke-linecap="round" stroke-linejoin="round" stroke-width="4"/>
        <line x1="729.74" y1="586.18" x2="733.74" y2="586.18" fill="none" stroke="#000" stroke-linecap="round" stroke-linejoin="round" stroke-width="4"/>
      </g>
    </g>
    <g>
      <path d="m752.67,454.91h1.52v12.52l11.3-12.52h1.83l-7.89,8.72,8.01,11.55h-1.74l-7.26-10.47-4.23,4.66v5.8h-1.52v-20.27Z"/>
      <path d="m770.36,472.88v1.23h-1.13v-1.23h1.13Zm-.13,3.49v8.34h-.85v-8.34h.85Z"/>
      <path d="m793.47,463.2v1.26h-12.75v-1.26h12.75Zm0,6.03v1.26h-12.75v-1.26h12.75Z"/>
      <path d="m806.77,473.95c-2.14-1.97-2.46-5.55-2.46-8.69s.31-6.69,2.46-8.66c.97-.89,2.32-1.63,4.23-1.63s3.29.71,4.23,1.63c2.12,2.03,2.46,5.55,2.46,8.66s-.31,6.72-2.46,8.69c-.94.89-2.32,1.63-4.23,1.63s-3.26-.74-4.23-1.63Zm7.52-.92c1.86-1.74,1.97-5.18,1.97-7.78s-.09-6-1.97-7.75c-.77-.71-1.8-1.17-3.29-1.17s-2.52.49-3.26,1.17c-1.89,1.74-1.97,5.18-1.97,7.75s.09,6.03,1.97,7.78c.74.69,1.8,1.17,3.26,1.17s2.54-.46,3.29-1.17Z"/>
      <path d="m823.55,472.61v2.57h-2.52v-2.57h2.52Z"/>
      <path d="m824.1,460.83v-1.6l5.43-3.86h1.29v19.82h-1.43v-18.04l-5.29,3.69Z"/>
      <path d="m841.86,470.84h1.46c.23,2.35,2.09,3.37,4.43,3.37s4.15-1.03,4.15-2.97c0-1.26-.89-2.32-2.63-2.54l-2.77-.37c-2.4-.31-4.03-1.46-4.03-3.63,0-2.54,2.46-4.2,5.15-4.2,3.09,0,5.32,1.77,5.4,4.35h-1.43c-.2-2.06-1.89-3-3.97-3s-3.69,1.12-3.69,2.72c0,1.17.63,2.06,2.77,2.34l2.72.37c2.69.37,3.95,2.17,3.95,3.89,0,2.92-2.63,4.43-5.61,4.43-3.4,0-5.75-1.8-5.89-4.75Z"/>
      <path d="m863.61,460.24v.77h-7.74v-.77h7.74Z"/>
      <path d="m864.36,457.29v-.93l3.17-2.25h.75v11.56h-.83v-10.52l-3.09,2.15Z"/>
    </g>
    <g>
      <path d="m752.67,494.51h1.52v12.52l11.3-12.52h1.83l-7.89,8.72,8.01,11.55h-1.74l-7.26-10.47-4.23,4.66v5.8h-1.52v-20.27Z"/>
      <path d="m770.36,512.48v1.23h-1.13v-1.23h1.13Zm-.13,3.49v8.34h-.85v-8.34h.85Z"/>
      <path d="m793.47,502.8v1.26h-12.75v-1.26h12.75Zm0,6.03v1.26h-12.75v-1.26h12.75Z"/>
      <path d="m806.77,513.55c-2.14-1.97-2.46-5.55-2.46-8.69s.31-6.69,2.46-8.66c.97-.89,2.32-1.63,4.23-1.63s3.29.71,4.23,1.63c2.12,2.03,2.46,5.55,2.46,8.66s-.31,6.72-2.46,8.69c-.94.89-2.32,1.63-4.23,1.63s-3.26-.74-4.23-1.63Zm7.52-.92c1.86-1.74,1.97-5.18,1.97-7.78s-.09-6-1.97-7.75c-.77-.71-1.8-1.17-3.29-1.17s-2.52.49-3.26,1.17c-1.89,1.74-1.97,5.18-1.97,7.75s.09,6.03,1.97,7.78c.74.69,1.8,1.17,3.26,1.17s2.54-.46,3.29-1.17Z"/>
      <path d="m823.55,512.21v2.57h-2.52v-2.57h2.52Z"/>
      <path d="m827.59,509.04h1.43c.14,2.8,2.09,4.78,5.09,4.78,3.17,0,4.98-2.23,4.98-5.23s-1.57-5.29-4.75-5.29c-1.77,0-3.52.69-4.46,2.17h-1.69l.8-10.49h10.84v1.34h-9.61l-.66,7.72c1.09-1.4,3-2.09,4.78-2.09,4.09,0,6.18,2.86,6.18,6.63s-2.26,6.61-6.41,6.61-6.43-2.66-6.52-6.15Z"/>
      <path d="m850.21,510.44h1.46c.23,2.35,2.09,3.37,4.43,3.37s4.15-1.03,4.15-2.97c0-1.26-.89-2.32-2.63-2.54l-2.77-.37c-2.4-.31-4.03-1.46-4.03-3.63,0-2.54,2.46-4.2,5.15-4.2,3.09,0,5.32,1.77,5.4,4.35h-1.43c-.2-2.06-1.89-3-3.97-3s-3.69,1.12-3.69,2.72c0,1.17.63,2.06,2.77,2.34l2.72.37c2.69.37,3.95,2.17,3.95,3.89,0,2.92-2.63,4.43-5.61,4.43-3.4,0-5.75-1.8-5.89-4.75Z"/>
      <path d="m871.96,499.84v.77h-7.74v-.77h7.74Z"/>
      <path d="m872.71,496.89v-.93l3.17-2.25h.75v11.56h-.83v-10.52l-3.09,2.15Z"/>
    </g>
    <g>
      <path d="m752.67,534.11h1.52v12.52l11.3-12.52h1.83l-7.89,8.72,8.01,11.55h-1.74l-7.26-10.47-4.23,4.66v5.8h-1.52v-20.27Z"/>
      <path d="m770.36,552.08v1.23h-1.13v-1.23h1.13Zm-.13,3.49v8.34h-.85v-8.34h.85Z"/>
      <path d="m793.47,542.4v1.26h-12.75v-1.26h12.75Zm0,6.03v1.26h-12.75v-1.26h12.75Z"/>
      <path d="m803.22,540.03v-1.6l5.43-3.86h1.29v19.82h-1.43v-18.04l-5.29,3.69Z"/>
      <path d="m817.86,551.81v2.57h-2.52v-2.57h2.52Z"/>
      <path d="m823.67,553.16c-2.14-1.97-2.46-5.55-2.46-8.69s.31-6.69,2.46-8.66c.97-.89,2.32-1.63,4.23-1.63s3.29.71,4.23,1.63c2.12,2.03,2.46,5.55,2.46,8.66s-.31,6.72-2.46,8.69c-.94.89-2.32,1.63-4.23,1.63s-3.26-.74-4.23-1.63Zm7.52-.92c1.86-1.74,1.97-5.18,1.97-7.78s-.09-6-1.97-7.75c-.77-.71-1.8-1.17-3.29-1.17s-2.52.49-3.26,1.17c-1.89,1.74-1.97,5.18-1.97,7.75s.09,6.03,1.97,7.78c.74.69,1.8,1.17,3.26,1.17s2.54-.46,3.29-1.17Z"/>
      <path d="m844.58,550.04h1.46c.23,2.35,2.09,3.37,4.43,3.37s4.15-1.03,4.15-2.97c0-1.26-.89-2.32-2.63-2.54l-2.77-.37c-2.4-.31-4.03-1.46-4.03-3.63,0-2.54,2.46-4.2,5.15-4.2,3.09,0,5.32,1.77,5.4,4.35h-1.43c-.2-2.06-1.89-3-3.97-3s-3.69,1.12-3.69,2.72c0,1.17.63,2.06,2.77,2.34l2.72.37c2.69.37,3.95,2.17,3.95,3.89,0,2.92-2.63,4.43-5.61,4.43-3.4,0-5.75-1.8-5.89-4.75Z"/>
      <path d="m866.33,539.44v.77h-7.74v-.77h7.74Z"/>
      <path d="m867.07,536.49v-.93l3.17-2.25h.75v11.56h-.83v-10.52l-3.09,2.15Z"/>
    </g>
    <g>
      <path d="m754.18,573.7v20.27h-1.52v-20.27h1.52Z"/>
      <path d="m759.85,579.67h1.32l.11,2.75c.74-1.97,2.97-3.15,4.98-3.15,3.26,0,5.06,2.17,5.06,5.35v9.35h-1.43v-9.21c0-2.4-1.23-4.09-3.77-4.09-3.17,0-4.83,2.63-4.83,5.8v7.49h-1.43v-14.3Z"/>
      <path d="m776.46,579.67h1.32l.11,2.72c.8-1.89,2.92-3.12,4.89-3.12,1.69,0,2.95.54,3.92,1.37,1.66,1.4,2.4,3.6,2.4,6.15s-.71,4.63-2.26,6.06c-.97.92-2.32,1.52-4.03,1.52-2.09,0-4.12-1.17-4.92-3v8.29h-1.43v-19.99Zm9.55,12.01c1.14-1.23,1.63-3.03,1.63-4.86,0-2.03-.57-3.95-1.94-5.12-.71-.63-1.69-1.03-2.95-1.03s-2.26.49-3,1.17c-1.32,1.26-1.89,3-1.89,4.98,0,2.12.51,3.77,1.86,5,.74.69,1.74,1.14,3.09,1.14s2.46-.49,3.2-1.29Z"/>
      <path d="m793.31,588.91v-9.24h1.43v9.15c0,2.49,1.23,4.15,3.75,4.15,3.32,0,4.69-2.66,4.69-5.86v-7.43h1.43v14.3h-1.32l-.11-2.69c-.8,1.89-2.63,3.09-4.78,3.09-3.23,0-5.09-2.26-5.09-5.46Z"/>
      <path d="m811.38,590.25v-9.26h-3.37v-1.32h3.37v-3.95l1.43-.34v4.29h4.49v1.32h-4.49v9.06c0,1.57.49,2.77,2.57,2.77.77,0,1.37-.09,2.12-.26v1.26c-.71.23-1.43.34-2.23.34-2.8,0-3.89-1.63-3.89-3.92Z"/>
    </g>
  </g>
  <polyline points="119.61 623.4 121.36 622.96 123.11 621.7 124.86 619.67 126.6 616.94 129.23 611.68 131.85 605.18 135.35 594.92 138.85 583.18 143.22 566.98 149.35 542.49 167.71 467.68 173.84 444.97 179.09 427 184.33 410.56 189.58 395.71 193.95 384.56 198.33 374.51 202.7 365.53 207.07 357.55 211.45 350.53 215.82 344.39 220.19 339.07 224.57 334.5 228.94 330.59 233.32 327.28 237.69 324.5 242.06 322.19 247.31 319.93 252.56 318.14 258.68 316.53 265.68 315.16 274.42 313.92 287.54 312.57 312.04 310.08 326.03 308.19 340.9 305.72 357.52 302.49 378.51 297.93 472.98 276.88 509.71 269.45 550.82 261.58 594.56 253.66 640.04 245.87 686.4 238.38 733.63 231.18 782.61 224.16 833.34 217.33 885.82 210.71 940.05 204.32 950.84 203.14" fill="none" stroke="#069" stroke-linecap="round" stroke-linejoin="round" stroke-width="4"/>
  <polyline points="119.61 623.4 121.36 622.96 123.11 621.68 124.86 619.6 126.6 616.79 128.35 613.3 130.98 606.87 133.6 599.18 137.1 587.19 140.6 573.55 144.97 554.62 150.22 529.87 158.09 490.25 176.46 396.81 183.46 363.73 189.58 336.7 195.7 311.7 200.95 292 206.2 273.91 211.45 257.44 216.7 242.56 221.07 231.33 225.44 221.12 229.82 211.89 234.19 203.57 238.56 196.11 242.94 189.46 247.31 183.54 251.68 178.31 256.06 173.7 260.43 169.65 264.8 166.1 270.05 162.45 275.3 159.35 280.55 156.75 286.67 154.22 292.79 152.15 299.79 150.23 308.54 148.31 319.03 146.5 334.78 144.29 390.76 136.76 441.49 129.67 465.98 126.75 488.72 124.47 512.34 122.54 538.58 120.85 568.32 119.38 603.3 118.11 646.16 117 699.52 116.08 766.87 115.37 858.71 114.87 950.46 114.45" fill="none" stroke="red" stroke-linecap="round" stroke-linejoin="round" stroke-width="4"/>
  <polyline points="119.61 623.4 120.48 623.29 122.23 622.41 123.98 620.69 125.73 618.16 127.48 614.87 129.23 610.84 131.85 603.51 134.48 594.75 137.1 584.67 140.6 569.39 144.1 552.27 148.47 528.66 153.72 497.75 160.72 453.46 172.96 372.18 183.46 303.49 190.46 260.16 196.58 224.62 202.7 191.72 207.95 165.87 213.2 142.31 217.57 124.48 221.94 108.34 226.32 93.86 230.69 81.05 234.19 71.97 237.69 63.92 241.19 56.85 244.69 50.75 248.18 45.57 251.68 41.27 255.18 37.82 257.81 35.76 260.43 34.12 263.05 32.9 265.68 32.06 268.3 31.59 270.93 31.47 274.42 31.82 277.92 32.69 281.42 34.06 284.92 35.85 289.29 38.64 293.67 41.94 298.92 46.46 305.04 52.33 312.91 60.51 340.9 90.2 348.77 97.62 355.77 103.6 361.89 108.3 368.01 112.49 374.14 116.14 380.26 119.26 386.38 121.86 392.51 123.95 398.63 125.56 404.75 126.73 410.87 127.5 417.87 127.92 424.87 127.93 432.74 127.52 442.36 126.55 453.73 124.93 471.23 121.94 495.72 117.79 510.59 115.72 524.58 114.21 538.58 113.16 553.45 112.5 569.19 112.25 588.43 112.38 617.3 113.08 670.65 114.41 704.76 114.76 748.5 114.75 901.57 114.4 950.46 114.45" fill="none" stroke="#6c3" stroke-linecap="round" stroke-linejoin="round" stroke-width="4"/>
  <g>
    <line x1="79.25" y1="623.4" x2="83.25" y2="623.4" fill="none" stroke="#000" stroke-linecap="round" stroke-linejoin="round" stroke-width="4"/>
    <line x1="95.2" y1="623.4" x2="109.13" y2="623.4" fill="none" stroke="#000" stroke-dasharray="0 0 7.96 11.95" stroke-linecap="round" stroke-linejoin="round" stroke-width="4"/>
    <polyline points="115.11 623.4 119.11 623.4 119.11 619.4" fill="none" stroke="#000" stroke-linecap="round" stroke-linejoin="round" stroke-width="4"/>
    <line x1="119.14" y1="607.18" x2="119.96" y2="124.55" fill="none" stroke="#000" stroke-dasharray="0 0 8.15 12.22" stroke-linecap="round" stroke-linejoin="round" stroke-width="4"/>
    <polyline points="119.98 118.45 119.98 114.45 123.98 114.45" fill="none" stroke="#000" stroke-linecap="round" stroke-linejoin="round" stroke-width="4"/>
    <line x1="135.84" y1="114.45" x2="940.53" y2="114.45" fill="none" stroke="#000" stroke-dasharray="0 0 7.91 11.86" stroke-linecap="round" stroke-linejoin="round" stroke-width="4"/>
    <line x1="946.46" y1="114.45" x2="950.46" y2="114.45" fill="none" stroke="#000" stroke-linecap="round" stroke-linejoin="round" stroke-width="4"/>
  </g>
  <rect x="78" y="1.87" width="873.79" height="651.13" fill="none" stroke="#000" stroke-linecap="round" stroke-linejoin="round" stroke-width="2"/>
  <g>
    <path d="m7.8,434.64v-1.01l2.11-.09c-1.52-.57-2.42-2.29-2.42-3.83,0-2.51,1.67-3.89,4.11-3.89h7.19v1.1h-7.08c-1.85,0-3.15.95-3.15,2.9,0,2.44,2.02,3.72,4.47,3.72h5.76v1.1H7.8Z"/>
    <path d="m17.81,420.91c-1.17,1.21-2.62,1.67-4.51,1.67s-3.34-.46-4.51-1.67c-.75-.79-1.3-1.89-1.3-3.3s.55-2.51,1.3-3.3c1.17-1.21,2.64-1.67,4.51-1.67s3.34.46,4.51,1.67c.75.79,1.3,1.89,1.3,3.3s-.55,2.51-1.3,3.3Zm-.75-5.83c-1.01-1.03-2.31-1.32-3.76-1.32s-2.75.29-3.76,1.32c-.59.59-.97,1.43-.97,2.53s.37,1.94.97,2.53c1.01,1.03,2.33,1.32,3.76,1.32s2.75-.29,3.76-1.32c.59-.59.97-1.43.97-2.53s-.37-1.94-.97-2.53Z"/>
    <path d="m7.8,409.28v-1.01l2.27-.09c-1.54-.48-2.38-1.98-2.38-3.54,0-.33,0-.7.11-1.03h1.06c-.09.35-.11.73-.11,1.08,0,2.55,2.11,3.5,4.55,3.5h5.5v1.1H7.8Z"/>
    <path d="m7.8,400.96v-1.01l2.16-.09c-1.47-.51-2.46-1.85-2.46-3.45,0-1.89.97-2.99,2.38-3.43-1.36-.59-2.38-1.78-2.38-3.63,0-2.57,1.69-3.65,4.05-3.65h7.26v1.1h-7.13c-1.94,0-3.15.75-3.15,2.66,0,2.07,1.83,3.28,4.05,3.28h6.23v1.14h-7.13c-1.94,0-3.15.84-3.15,2.66,0,2.11,1.98,3.32,4.33,3.32h5.94v1.1H7.8Z"/>
    <path d="m15.74,382.63c-1.96,0-3.17-1.5-3.32-3.7l-.29-4.05h-.97c-1.85,0-2.64,1.34-2.64,3.04s.79,3.01,2.44,3.12v1.1c-2.27-.15-3.48-1.98-3.48-4.18,0-2.51,1.23-4.18,3.76-4.18h5.43c.75,0,1.19-.11,1.19-.86,0-.09,0-.22-.02-.31h.97c.04.15.07.35.07.53,0,1.36-1.03,1.74-2.2,1.74,1.56.59,2.42,2.27,2.42,3.96,0,2.13-1.3,3.78-3.37,3.78Zm-2.02-7.75h-.57l.24,3.94c.11,1.69,1.03,2.68,2.33,2.68,1.54,0,2.38-1.19,2.38-2.75,0-2.77-2.24-3.87-4.38-3.87Z"/>
    <path d="m16.6,369.7H2.87v-1.1h13.69c.75,0,1.32-.22,1.32-1.14,0-.44-.02-.64-.07-.95h.99c.07.24.13.53.13.99,0,1.41-.73,2.2-2.33,2.2Z"/>
    <path d="m3.2,362.79h1.63v1.5h-1.63v-1.5Zm4.6.18h11v1.12H7.8v-1.12Z"/>
    <path d="m8.83,352.78v7.04h-1.03v-8.23h1.21l8.74,7.04v-7.11h1.06v8.3h-1.23l-8.73-7.04Z"/>
    <path d="m17.57,347.7c-1.06.9-2.55,1.45-4.22,1.45-1.39,0-2.75-.22-3.92-1.1-1.25-.95-1.94-2.24-1.94-3.85,0-3.04,2.42-4.86,5.35-4.86.26,0,.42,0,.73.02v8.69c2.44-.04,4.49-1.47,4.49-3.94,0-1.74-1.14-3.1-2.55-3.37v-1.14c2.07.33,3.61,2.31,3.61,4.51,0,1.58-.7,2.86-1.54,3.59Zm-4.99-7.22c-2.09.04-4.05,1.34-4.05,3.72s1.89,3.78,4.05,3.83v-7.55Z"/>
    <path d="m18.05,334.98c-1.08,1.28-2.84,1.85-4.73,1.85s-3.5-.57-4.62-1.76c-.73-.77-1.21-1.85-1.21-3.21,0-1.78.99-3.15,2.22-3.65H2.87v-1.12h15.93v1.03l-2.09.09c1.47.62,2.4,2.22,2.4,3.74,0,1.3-.42,2.29-1.06,3.04Zm-.92-5.37c-.95-1.03-2.31-1.43-3.83-1.43-1.63,0-2.9.37-3.85,1.41-.53.57-.88,1.34-.88,2.38s.37,1.87.99,2.46c.92.88,2.33,1.28,3.74,1.28,1.56,0,3.06-.44,3.94-1.5.48-.57.79-1.34.79-2.29s-.37-1.74-.9-2.31Z"/>
    <path d="m15.74,318.73c-1.96,0-3.17-1.5-3.32-3.7l-.29-4.05h-.97c-1.85,0-2.64,1.34-2.64,3.04s.79,3.01,2.44,3.12v1.1c-2.27-.15-3.48-1.98-3.48-4.18,0-2.51,1.23-4.18,3.76-4.18h5.43c.75,0,1.19-.11,1.19-.86,0-.09,0-.22-.02-.31h.97c.04.15.07.35.07.53,0,1.36-1.03,1.74-2.2,1.74,1.56.59,2.42,2.27,2.42,3.96,0,2.13-1.3,3.78-3.37,3.78Zm-2.02-7.75h-.57l.24,3.94c.11,1.69,1.03,2.68,2.33,2.68,1.54,0,2.38-1.19,2.38-2.75,0-2.77-2.24-3.87-4.38-3.87Z"/>
    <path d="m7.8,305.75v-1.01l2.16-.09c-1.47-.51-2.46-1.85-2.46-3.45,0-1.89.97-2.99,2.38-3.43-1.36-.59-2.38-1.78-2.38-3.63,0-2.57,1.69-3.65,4.05-3.65h7.26v1.1h-7.13c-1.94,0-3.15.75-3.15,2.66,0,2.07,1.83,3.28,4.05,3.28h6.23v1.14h-7.13c-1.94,0-3.15.84-3.15,2.66,0,2.11,1.98,3.32,4.33,3.32h5.94v1.1H7.8Z"/>
    <path d="m7.8,286.52v-1.01l2.09-.09c-1.45-.62-2.4-2.24-2.4-3.76,0-1.3.42-2.27,1.06-3.01,1.08-1.28,2.77-1.85,4.73-1.85s3.56.55,4.67,1.74c.7.75,1.17,1.78,1.17,3.1,0,1.61-.9,3.17-2.31,3.78h6.38v1.1H7.8Zm9.24-7.35c-.95-.88-2.33-1.25-3.74-1.25-1.56,0-3.04.44-3.94,1.5-.48.55-.79,1.3-.79,2.27s.37,1.74.9,2.31c.97,1.01,2.31,1.45,3.83,1.45,1.63,0,2.9-.4,3.85-1.43.53-.57.88-1.34.88-2.38s-.37-1.89-.99-2.46Z"/>
    <path d="m16.6,273.47H2.87v-1.1h13.69c.75,0,1.32-.22,1.32-1.14,0-.44-.02-.64-.07-.95h.99c.07.24.13.53.13.99,0,1.41-.73,2.2-2.33,2.2Z"/>
    <path d="m3.2,266.56h1.63v1.5h-1.63v-1.5Zm4.6.18h11v1.12H7.8v-1.12Z"/>
    <path d="m15.94,261.55h-7.13v2.6h-1.01v-2.6h-3.04l-.26-1.1h3.3v-3.45h1.01v3.45h6.97c1.21,0,2.13-.37,2.13-1.98,0-.59-.07-1.06-.2-1.63h.97c.18.55.26,1.1.26,1.72,0,2.16-1.25,2.99-3.01,2.99Z"/>
    <path d="m14.9,254.33h-7.11v-1.1h7.04c1.91,0,3.19-.95,3.19-2.88,0-2.55-2.05-3.61-4.51-3.61h-5.72v-1.1h11v1.01l-2.07.09c1.45.62,2.38,2.02,2.38,3.67,0,2.49-1.74,3.92-4.2,3.92Z"/>
    <path d="m18.05,240.45c-1.08,1.28-2.84,1.85-4.73,1.85s-3.5-.57-4.62-1.76c-.73-.77-1.21-1.85-1.21-3.21,0-1.78.99-3.15,2.22-3.65H2.87v-1.12h15.93v1.03l-2.09.09c1.47.62,2.4,2.22,2.4,3.74,0,1.3-.42,2.29-1.06,3.04Zm-.92-5.37c-.95-1.03-2.31-1.43-3.83-1.43-1.63,0-2.9.37-3.85,1.41-.53.57-.88,1.34-.88,2.38s.37,1.87.99,2.46c.92.88,2.33,1.28,3.74,1.28,1.56,0,3.06-.44,3.94-1.5.48-.57.79-1.34.79-2.29s-.37-1.74-.9-2.31Z"/>
    <path d="m17.57,227.76c-1.06.9-2.55,1.45-4.22,1.45-1.39,0-2.75-.22-3.92-1.1-1.25-.95-1.94-2.24-1.94-3.85,0-3.04,2.42-4.86,5.35-4.86.26,0,.42,0,.73.02v8.69c2.44-.04,4.49-1.47,4.49-3.94,0-1.74-1.14-3.1-2.55-3.37v-1.14c2.07.33,3.61,2.31,3.61,4.51,0,1.58-.7,2.86-1.54,3.59Zm-4.99-7.22c-2.09.04-4.05,1.34-4.05,3.72s1.89,3.78,4.05,3.83v-7.55Z"/>
  </g>
  <g>
    <path d="m414.23,705.92v-7.13h-2.6v-1.01h2.6v-3.04l1.1-.26v3.3h3.45v1.01h-3.45v6.97c0,1.21.37,2.13,1.98,2.13.59,0,1.06-.07,1.63-.2v.97c-.55.18-1.1.26-1.72.26-2.16,0-2.99-1.25-2.99-3.01Z"/>
    <path d="m422.87,693.17v1.63h-1.5v-1.63h1.5Zm-.18,4.6v11h-1.12v-11h1.12Z"/>
    <path d="m426.77,697.77h1.01l.09,2.16c.51-1.47,1.85-2.46,3.45-2.46,1.89,0,2.99.97,3.43,2.38.59-1.36,1.78-2.38,3.63-2.38,2.57,0,3.65,1.69,3.65,4.05v7.26h-1.1v-7.13c0-1.94-.75-3.15-2.66-3.15-2.07,0-3.28,1.83-3.28,4.05v6.23h-1.14v-7.13c0-1.94-.84-3.15-2.66-3.15-2.11,0-3.32,1.98-3.32,4.33v5.94h-1.1v-11Z"/>
    <path d="m446.7,707.54c-.9-1.06-1.45-2.55-1.45-4.22,0-1.39.22-2.75,1.1-3.92.95-1.25,2.24-1.94,3.85-1.94,3.04,0,4.86,2.42,4.86,5.35,0,.26,0,.42-.02.73h-8.69c.04,2.44,1.47,4.49,3.94,4.49,1.74,0,3.1-1.14,3.37-2.55h1.14c-.33,2.07-2.31,3.61-4.51,3.61-1.58,0-2.86-.7-3.59-1.54Zm7.22-4.99c-.04-2.09-1.34-4.05-3.72-4.05s-3.78,1.89-3.83,4.05h7.55Z"/>
    <path d="m463.09,701.67c0-3.43,1.25-7.26,3.63-9.92l.68.53c-2.16,2.77-3.28,5.79-3.28,9.39s1.12,6.62,3.28,9.4l-.68.53c-2.38-2.66-3.63-6.49-3.63-9.92Z"/>
    <path d="m468.98,705.72c0-1.96,1.5-3.17,3.7-3.32l4.05-.29v-.97c0-1.85-1.34-2.64-3.04-2.64s-3.01.79-3.12,2.44h-1.1c.15-2.27,1.98-3.48,4.18-3.48,2.51,0,4.18,1.23,4.18,3.76v5.43c0,.75.11,1.19.86,1.19.09,0,.22,0,.31-.02v.97c-.15.04-.35.07-.53.07-1.36,0-1.74-1.03-1.74-2.2-.59,1.56-2.27,2.42-3.96,2.42-2.13,0-3.78-1.3-3.78-3.37Zm7.75-2.02v-.57l-3.94.24c-1.69.11-2.68,1.03-2.68,2.33,0,1.54,1.19,2.38,2.75,2.38,2.77,0,3.87-2.24,3.87-4.38Z"/>
    <path d="m481.96,697.77h1.01l.09,2.27c.48-1.54,1.98-2.38,3.54-2.38.33,0,.7,0,1.03.11v1.06c-.35-.09-.73-.11-1.08-.11-2.55,0-3.5,2.11-3.5,4.55v5.5h-1.1v-11Z"/>
    <path d="m491.38,706.62l-.09,2.16h-1.01v-15.93h1.1v7.11c.57-1.52,2.18-2.49,3.78-2.49,1.32,0,2.35.44,3.1,1.14,1.19,1.1,1.76,2.86,1.76,4.69s-.59,3.67-1.87,4.75c-.75.64-1.72,1.03-3.01,1.03-1.52,0-3.19-.92-3.76-2.46Zm6.01.62c1.03-.92,1.5-2.38,1.5-3.96,0-1.43-.35-2.86-1.25-3.76-.59-.59-1.39-.97-2.46-.97s-1.8.33-2.38.86c-1.03.95-1.43,2.24-1.43,3.87,0,1.52.42,2.9,1.45,3.85.57.53,1.32.88,2.31.88s1.72-.29,2.27-.77Z"/>
    <path d="m504.67,693.17v1.63h-1.5v-1.63h1.5Zm-.18,4.6v11h-1.12v-11h1.12Z"/>
    <path d="m509.68,705.92v-7.13h-2.6v-1.01h2.6v-3.04l1.1-.26v3.3h3.45v1.01h-3.45v6.97c0,1.21.37,2.13,1.98,2.13.59,0,1.06-.07,1.63-.2v.97c-.55.18-1.1.26-1.72.26-2.16,0-2.99-1.25-2.99-3.01Z"/>
    <path d="m517.03,697.77h1.01l.09,2.27c.48-1.54,1.98-2.38,3.54-2.38.33,0,.7,0,1.03.11v1.06c-.35-.09-.73-.11-1.08-.11-2.55,0-3.5,2.11-3.5,4.55v5.5h-1.1v-11Z"/>
    <path d="m524.44,705.72c0-1.96,1.5-3.17,3.7-3.32l4.05-.29v-.97c0-1.85-1.34-2.64-3.04-2.64s-3.01.79-3.12,2.44h-1.1c.15-2.27,1.98-3.48,4.18-3.48,2.51,0,4.18,1.23,4.18,3.76v5.43c0,.75.11,1.19.86,1.19.09,0,.22,0,.31-.02v.97c-.15.04-.35.07-.53.07-1.36,0-1.74-1.03-1.74-2.2-.59,1.56-2.27,2.42-3.96,2.42-2.13,0-3.78-1.3-3.78-3.37Zm7.75-2.02v-.57l-3.94.24c-1.69.11-2.68,1.03-2.68,2.33,0,1.54,1.19,2.38,2.75,2.38,2.77,0,3.87-2.24,3.87-4.38Z"/>
    <path d="m537.42,697.77h1.01l.09,2.27c.48-1.54,1.98-2.38,3.54-2.38.33,0,.7,0,1.03.11v1.06c-.35-.09-.73-.11-1.08-.11-2.55,0-3.5,2.11-3.5,4.55v5.5h-1.1v-11Z"/>
    <path d="m544.4,713.07v-1.08c.4.2.88.33,1.43.33,1.06,0,1.72-.48,2.22-1.76l.64-1.61-4.49-11.18h1.21l3.81,9.77,3.67-9.77h1.17l-5.04,13.16c-.68,1.78-1.67,2.44-3.12,2.44-.7,0-1.32-.2-1.5-.31Z"/>
    <path d="m560.7,705.43h1.12c.18,1.8,1.61,2.6,3.41,2.6s3.19-.79,3.19-2.29c0-.97-.68-1.78-2.02-1.96l-2.13-.29c-1.85-.24-3.1-1.12-3.1-2.79,0-1.96,1.89-3.23,3.96-3.23,2.38,0,4.09,1.36,4.16,3.34h-1.1c-.15-1.58-1.45-2.31-3.06-2.31s-2.84.86-2.84,2.09c0,.9.48,1.58,2.13,1.8l2.09.29c2.07.29,3.04,1.67,3.04,2.99,0,2.24-2.02,3.41-4.31,3.41-2.62,0-4.42-1.39-4.53-3.65Z"/>
    <path d="m573.55,707.76c-1.17-1.17-1.58-2.62-1.58-4.49s.4-3.37,1.58-4.51c.79-.77,1.91-1.3,3.32-1.3,2.33,0,4.11,1.43,4.38,3.72h-1.17c-.24-1.52-1.5-2.64-3.21-2.64-1.08,0-1.94.35-2.53.95-1.03,1.03-1.25,2.33-1.25,3.78s.24,2.73,1.28,3.76c.59.59,1.45.95,2.53.95,1.72,0,2.97-1.12,3.21-2.64h1.14c-.29,2.27-2.07,3.72-4.38,3.72-1.41,0-2.53-.51-3.32-1.3Z"/>
    <path d="m583.51,705.72c0-1.96,1.5-3.17,3.7-3.32l4.05-.29v-.97c0-1.85-1.34-2.64-3.04-2.64s-3.01.79-3.12,2.44h-1.1c.15-2.27,1.98-3.48,4.18-3.48,2.51,0,4.18,1.23,4.18,3.76v5.43c0,.75.11,1.19.86,1.19.09,0,.22,0,.31-.02v.97c-.15.04-.35.07-.53.07-1.36,0-1.74-1.03-1.74-2.2-.59,1.56-2.27,2.42-3.96,2.42-2.13,0-3.78-1.3-3.78-3.37Zm7.75-2.02v-.57l-3.94.24c-1.69.11-2.68,1.03-2.68,2.33,0,1.54,1.19,2.38,2.75,2.38,2.77,0,3.87-2.24,3.87-4.38Z"/>
    <path d="m596.45,706.58v-13.73h1.1v13.69c0,.75.22,1.32,1.14,1.32.44,0,.64-.02.95-.07v.99c-.24.07-.53.13-.99.13-1.41,0-2.2-.73-2.2-2.33Z"/>
    <path d="m602.76,707.54c-.9-1.06-1.45-2.55-1.45-4.22,0-1.39.22-2.75,1.1-3.92.95-1.25,2.24-1.94,3.85-1.94,3.04,0,4.86,2.42,4.86,5.35,0,.26,0,.42-.02.73h-8.69c.04,2.44,1.47,4.49,3.94,4.49,1.74,0,3.1-1.14,3.37-2.55h1.14c-.33,2.07-2.31,3.61-4.51,3.61-1.58,0-2.86-.7-3.59-1.54Zm7.22-4.99c-.04-2.09-1.34-4.05-3.72-4.05s-3.78,1.89-3.83,4.05h7.55Z"/>
    <path d="m612.77,711.06c2.16-2.77,3.28-5.79,3.28-9.4s-1.12-6.62-3.28-9.39l.68-.53c2.38,2.66,3.63,6.49,3.63,9.92s-1.25,7.26-3.63,9.92l-.68-.53Z"/>
  </g>
</svg>