<?xml version="1.0" encoding="UTF-8" standalone="no"?>
<svg
   id="Ebene_1"
   data-name="Ebene 1"
   viewBox="0 0 551.04267 308.18891"
   version="1.1"
   sodipodi:docname="pid_control_on_off.svg"
   width="551.04266"
   height="308.1889"
   xml:space="preserve"
   inkscape:version="1.3.2 (1:1.3.2+202311252150+091e20ef0f)"
   xmlns:inkscape="http://www.inkscape.org/namespaces/inkscape"
   xmlns:sodipodi="http://sodipodi.sourceforge.net/DTD/sodipodi-0.dtd"
   xmlns="http://www.w3.org/2000/svg"
   xmlns:svg="http://www.w3.org/2000/svg"><defs
     id="defs109"><clipPath
       clipPathUnits="userSpaceOnUse"
       id="clipPath33-3"><path
         d="M 338.54169,1501.0418 H 2213.5417 V 2541.667 H 338.54169 Z"
         transform="matrix(0.24024021,0,0,0.24024021,-81.556555,-360.61059)"
         clip-rule="evenodd"
         id="path33-6" /></clipPath><clipPath
       clipPathUnits="userSpaceOnUse"
       id="clipPath34-7"><path
         d="M 338.54169,1501.0418 H 2213.5417 V 2541.667 H 338.54169 Z"
         transform="matrix(0.31999999,0,0,0.31999999,-155.94222,-690.12333)"
         clip-rule="evenodd"
         id="path34-5" /></clipPath><clipPath
       clipPathUnits="userSpaceOnUse"
       id="clipPath36-3"><path
         d="M 338.54169,1501.0418 H 2213.5417 V 2541.667 H 338.54169 Z"
         transform="matrix(0.24024021,0,0,0.24024021,-81.556555,-360.61059)"
         clip-rule="evenodd"
         id="path36-5" /></clipPath><clipPath
       clipPathUnits="userSpaceOnUse"
       id="clipPath37-6"><path
         d="M 338.54169,1501.0418 H 2213.5417 V 2541.667 H 338.54169 Z"
         transform="matrix(0.31999999,0,0,0.31999999,-155.94222,-653.75975)"
         clip-rule="evenodd"
         id="path37-2" /></clipPath><clipPath
       clipPathUnits="userSpaceOnUse"
       id="clipPath39-9"><path
         d="M 338.54169,1501.0418 H 2213.5417 V 2541.667 H 338.54169 Z"
         transform="matrix(0.24024021,0,0,0.24024021,-81.556555,-360.61059)"
         clip-rule="evenodd"
         id="path39-1" /></clipPath><clipPath
       clipPathUnits="userSpaceOnUse"
       id="clipPath40-2"><path
         d="M 338.54169,1501.0418 H 2213.5417 V 2541.667 H 338.54169 Z"
         transform="matrix(0.31999999,0,0,0.31999999,-155.94222,-617.52935)"
         clip-rule="evenodd"
         id="path40-7" /></clipPath><clipPath
       clipPathUnits="userSpaceOnUse"
       id="clipPath42-0"><path
         d="M 338.54169,1501.0418 H 2213.5417 V 2541.667 H 338.54169 Z"
         transform="matrix(0.24024021,0,0,0.24024021,-81.556555,-360.61059)"
         clip-rule="evenodd"
         id="path42-9" /></clipPath><clipPath
       clipPathUnits="userSpaceOnUse"
       id="clipPath43-3"><path
         d="M 338.54169,1501.0418 H 2213.5417 V 2541.667 H 338.54169 Z"
         transform="matrix(0.31999999,0,0,0.31999999,-155.94222,-581.16577)"
         clip-rule="evenodd"
         id="path43-6" /></clipPath><clipPath
       clipPathUnits="userSpaceOnUse"
       id="clipPath45-0"><path
         d="M 338.54169,1501.0418 H 2213.5417 V 2541.667 H 338.54169 Z"
         transform="matrix(0.24024021,0,0,0.24024021,-81.556555,-360.61059)"
         clip-rule="evenodd"
         id="path45-6" /></clipPath><clipPath
       clipPathUnits="userSpaceOnUse"
       id="clipPath46-2"><path
         d="M 338.54169,1501.0418 H 2213.5417 V 2541.667 H 338.54169 Z"
         transform="matrix(0.31999999,0,0,0.31999999,-155.94222,-544.93534)"
         clip-rule="evenodd"
         id="path46-6" /></clipPath><clipPath
       clipPathUnits="userSpaceOnUse"
       id="clipPath48-1"><path
         d="M 338.54169,1501.0418 H 2213.5417 V 2541.667 H 338.54169 Z"
         transform="matrix(0.24024021,0,0,0.24024021,-81.556555,-360.61059)"
         clip-rule="evenodd"
         id="path48-8" /></clipPath><clipPath
       clipPathUnits="userSpaceOnUse"
       id="clipPath49-7"><path
         d="M 338.54169,1501.0418 H 2213.5417 V 2541.667 H 338.54169 Z"
         transform="matrix(0.31999999,0,0,0.31999999,-155.94222,-508.57174)"
         clip-rule="evenodd"
         id="path49-9" /></clipPath><clipPath
       clipPathUnits="userSpaceOnUse"
       id="clipPath51-2"><path
         d="M 338.54169,1501.0418 H 2213.5417 V 2541.667 H 338.54169 Z"
         transform="matrix(0.24024021,0,0,0.24024021,-81.556555,-360.61059)"
         clip-rule="evenodd"
         id="path51-0" /></clipPath><clipPath
       clipPathUnits="userSpaceOnUse"
       id="clipPath52-2"><path
         d="M 338.54169,1501.0418 H 2213.5417 V 2541.667 H 338.54169 Z"
         transform="matrix(0.31999999,0,0,0.31999999,-186.96655,-779.50061)"
         clip-rule="evenodd"
         id="path52-3" /></clipPath><clipPath
       clipPathUnits="userSpaceOnUse"
       id="clipPath54-7"><path
         d="M 338.54169,1501.0418 H 2213.5417 V 2541.667 H 338.54169 Z"
         transform="matrix(0.24024021,0,0,0.24024021,-81.556555,-360.61059)"
         clip-rule="evenodd"
         id="path54-5" /></clipPath><clipPath
       clipPathUnits="userSpaceOnUse"
       id="clipPath55-9"><path
         d="M 338.54169,1501.0418 H 2213.5417 V 2541.667 H 338.54169 Z"
         transform="matrix(0.31999999,0,0,0.31999999,-322.03897,-779.50061)"
         clip-rule="evenodd"
         id="path55-2" /></clipPath><clipPath
       clipPathUnits="userSpaceOnUse"
       id="clipPath57-2"><path
         d="M 338.54169,1501.0418 H 2213.5417 V 2541.667 H 338.54169 Z"
         transform="matrix(0.24024021,0,0,0.24024021,-81.556555,-360.61059)"
         clip-rule="evenodd"
         id="path57-8" /></clipPath><clipPath
       clipPathUnits="userSpaceOnUse"
       id="clipPath58-9"><path
         d="M 338.54169,1501.0418 H 2213.5417 V 2541.667 H 338.54169 Z"
         transform="matrix(0.31999999,0,0,0.31999999,-460.96256,-779.50061)"
         clip-rule="evenodd"
         id="path58-7" /></clipPath><clipPath
       clipPathUnits="userSpaceOnUse"
       id="clipPath60-3"><path
         d="M 338.54169,1501.0418 H 2213.5417 V 2541.667 H 338.54169 Z"
         transform="matrix(0.24024021,0,0,0.24024021,-81.556555,-360.61059)"
         clip-rule="evenodd"
         id="path60-6" /></clipPath><clipPath
       clipPathUnits="userSpaceOnUse"
       id="clipPath61-1"><path
         d="M 338.54169,1501.0418 H 2213.5417 V 2541.667 H 338.54169 Z"
         transform="matrix(0.31999999,0,0,0.31999999,-604.01935,-779.50061)"
         clip-rule="evenodd"
         id="path61-2" /></clipPath><clipPath
       clipPathUnits="userSpaceOnUse"
       id="clipPath63-9"><path
         d="M 338.54169,1501.0418 H 2213.5417 V 2541.667 H 338.54169 Z"
         transform="matrix(0.24024021,0,0,0.24024021,-81.556555,-360.61059)"
         clip-rule="evenodd"
         id="path63-3" /></clipPath><clipPath
       clipPathUnits="userSpaceOnUse"
       id="clipPath64-1"><path
         d="M 338.54169,1501.0418 H 2213.5417 V 2541.667 H 338.54169 Z"
         transform="matrix(0.31999999,0,0,0.31999999,-631.04372,-742.33779)"
         clip-rule="evenodd"
         id="path64-9" /></clipPath><clipPath
       clipPathUnits="userSpaceOnUse"
       id="clipPath66-4"><path
         d="M 338.54169,1501.0418 H 2213.5417 V 2541.667 H 338.54169 Z"
         transform="matrix(0.24024021,0,0,0.24024021,-81.556555,-360.61059)"
         clip-rule="evenodd"
         id="path66-7" /></clipPath><clipPath
       clipPathUnits="userSpaceOnUse"
       id="clipPath67-8"><path
         d="M 338.54169,1501.0418 H 2213.5417 V 2541.667 H 338.54169 Z"
         transform="matrix(0.31999999,0,0,0.31999999,-631.04372,-691.58858)"
         clip-rule="evenodd"
         id="path67-4" /></clipPath><clipPath
       clipPathUnits="userSpaceOnUse"
       id="clipPath69-5"><path
         d="M 338.54169,1501.0418 H 2213.5417 V 2541.667 H 338.54169 Z"
         transform="matrix(0.24024021,0,0,0.24024021,-81.556555,-360.61059)"
         clip-rule="evenodd"
         id="path69-0" /></clipPath><clipPath
       clipPathUnits="userSpaceOnUse"
       id="clipPath70-3"><path
         d="M 338.54169,1501.0418 H 2213.5417 V 2541.667 H 338.54169 Z"
         transform="matrix(0,0.31999999,-0.31999999,0,649.48263,-132.07655)"
         clip-rule="evenodd"
         id="path70-6" /></clipPath><clipPath
       clipPathUnits="userSpaceOnUse"
       id="clipPath71-1"><path
         d="M 338.54169,1501.0418 H 2213.5417 V 2541.667 H 338.54169 Z"
         transform="matrix(0,0.31999999,-0.31999999,0,745.2241,-668.60614)"
         clip-rule="evenodd"
         id="path71-0" /></clipPath><clipPath
       clipPathUnits="userSpaceOnUse"
       id="clipPath72-6"><path
         d="M 338.54169,1501.0418 H 2213.5417 V 2541.667 H 338.54169 Z"
         transform="matrix(0.31999999,0,0,0.31999999,-378.41858,-802.54409)"
         clip-rule="evenodd"
         id="path72-3" /></clipPath><clipPath
       clipPathUnits="userSpaceOnUse"
       id="clipPath74-2"><path
         d="M 338.54169,1501.0418 H 2213.5417 V 2541.667 H 338.54169 Z"
         transform="matrix(0.24024021,0,0,0.24024021,-81.556555,-360.61059)"
         clip-rule="evenodd"
         id="path74-0" /></clipPath><clipPath
       clipPathUnits="userSpaceOnUse"
       id="clipPath76-6"><path
         d="M 338.54169,1501.0418 H 2213.5417 V 2541.667 H 338.54169 Z"
         transform="matrix(0.24024021,0,0,0.24024021,-81.556555,-360.61059)"
         clip-rule="evenodd"
         id="path76-1" /></clipPath><clipPath
       clipPathUnits="userSpaceOnUse"
       id="clipPath78-5"><path
         d="M 338.54169,1501.0418 H 2213.5417 V 2541.667 H 338.54169 Z"
         transform="matrix(0.24024021,0,0,0.24024021,-81.556555,-360.61059)"
         clip-rule="evenodd"
         id="path78-5" /></clipPath><clipPath
       clipPathUnits="userSpaceOnUse"
       id="clipPath80-4"><path
         d="M 338.54169,1501.0418 H 2213.5417 V 2541.667 H 338.54169 Z"
         transform="matrix(0.24024021,0,0,0.24024021,-81.556555,-360.61059)"
         clip-rule="evenodd"
         id="path80-7" /></clipPath></defs><sodipodi:namedview
     id="namedview109"
     pagecolor="#ffffff"
     bordercolor="#666666"
     borderopacity="1.0"
     inkscape:showpageshadow="2"
     inkscape:pageopacity="0.0"
     inkscape:pagecheckerboard="0"
     inkscape:deskcolor="#d1d1d1"
     inkscape:zoom="7.452974"
     inkscape:cx="410.30601"
     inkscape:cy="139.40744"
     inkscape:window-width="1452"
     inkscape:window-height="752"
     inkscape:window-x="0"
     inkscape:window-y="248"
     inkscape:window-maximized="0"
     inkscape:current-layer="g71" /><g
     id="g71"
     transform="matrix(0.38491478,0,0,0.38491478,139.21419,-60.993406)"><text
       xml:space="preserve"
       style="font-style:normal;font-variant:normal;font-weight:500;font-stretch:normal;font-size:34.6397px;line-height:1.25;font-family:'CMU Serif';-inkscape-font-specification:'CMU Serif, Medium';font-variant-ligatures:normal;font-variant-caps:normal;font-variant-numeric:normal;font-variant-east-asian:normal;stroke-width:2.59798"
       x="740.77112"
       y="480.55075"
       id="text1"><tspan
         sodipodi:role="line"
         id="tspan1"
         style="font-style:normal;font-variant:normal;font-weight:500;font-stretch:normal;font-size:34.6397px;font-family:'CMU Serif';-inkscape-font-specification:'CMU Serif, Medium';font-variant-ligatures:normal;font-variant-caps:normal;font-variant-numeric:normal;font-variant-east-asian:normal;stroke-width:2.59798"
         x="740.77112"
         y="480.55075">on-off</tspan></text><text
       xml:space="preserve"
       style="font-style:normal;font-variant:normal;font-weight:500;font-stretch:normal;font-size:34.6397px;line-height:1.25;font-family:'CMU Serif';-inkscape-font-specification:'CMU Serif, Medium';font-variant-ligatures:normal;font-variant-caps:normal;font-variant-numeric:normal;font-variant-east-asian:normal;stroke-width:2.59798"
       x="742.09698"
       y="512.18835"
       id="text1-9"><tspan
         sodipodi:role="line"
         id="tspan1-1"
         style="font-style:normal;font-variant:normal;font-weight:500;font-stretch:normal;font-size:34.6397px;font-family:'CMU Serif';-inkscape-font-specification:'CMU Serif, Medium';font-variant-ligatures:normal;font-variant-caps:normal;font-variant-numeric:normal;font-variant-east-asian:normal;stroke-width:2.59798"
         x="742.09698"
         y="512.18835">input</tspan></text><path
       style="fill:#ff0000;fill-opacity:1;stroke:#ff0000;stroke-width:5.19596;stroke-linecap:round;stroke-linejoin:miter;stroke-dasharray:none;stroke-opacity:1"
       d="M 672.63219,503.96424 H 731.0525"
       id="path1" /><path
       style="fill:none;stroke:#00ff00;stroke-width:5.19596;stroke-linecap:round;stroke-linejoin:miter;stroke-dasharray:none;stroke-opacity:1"
       d="m 671.04292,473.23292 h 58.42031"
       id="path1-8-9" /></g><path
     id="path32-6"
     d="M 61.799999,153 H 79.800003"
     style="fill:none;stroke:#000000;stroke-width:1;stroke-linecap:butt;stroke-linejoin:miter;stroke-miterlimit:10;stroke-dasharray:none;stroke-opacity:1"
     transform="matrix(1.3320001,0,0,1.3320001,-12.347722,-17.439416)"
     clip-path="url(#clipPath33-3)" /><text
     id="text33"
     xml:space="preserve"
     transform="translate(34.961158,192.3506)"
     clip-path="url(#clipPath34-7)"><tspan
       style="font-variant:normal;font-weight:normal;font-size:15.98px;font-family:'Times New Roman';writing-mode:lr-tb;fill:#000000;fill-opacity:1;fill-rule:nonzero;stroke:none"
       x="0 7.984375 15.96875"
       y="0"
       sodipodi:role="line"
       id="tspan33">140</tspan></text><path
     id="path35-9"
     d="m 61.799999,147.5 h 9.000004 m -9.000004,-5.39999 h 9.000004 m -9.000004,-5.5 h 9.000004 M 61.799999,131.2 h 9.000004 m -9.000004,-5.5 h 18.000004"
     style="fill:none;stroke:#000000;stroke-width:1;stroke-linecap:butt;stroke-linejoin:miter;stroke-miterlimit:10;stroke-dasharray:none;stroke-opacity:1"
     transform="matrix(1.3320001,0,0,1.3320001,-12.347722,-17.439416)"
     clip-path="url(#clipPath36-3)" /><text
     id="text36"
     xml:space="preserve"
     transform="translate(34.961158,155.987)"
     clip-path="url(#clipPath37-6)"><tspan
       style="font-variant:normal;font-weight:normal;font-size:15.98px;font-family:'Times New Roman';writing-mode:lr-tb;fill:#000000;fill-opacity:1;fill-rule:nonzero;stroke:none"
       x="0 7.984375 15.96875"
       y="0"
       sodipodi:role="line"
       id="tspan36">150</tspan></text><path
     id="path38-3"
     d="m 61.799999,120.3 h 9.000004 m -9.000004,-5.5 h 9.000004 m -9.000004,-5.4 h 9.000004 m -9.000004,-5.5 h 9.000004 m -9.000004,-5.4 h 18.000004"
     style="fill:none;stroke:#000000;stroke-width:1;stroke-linecap:butt;stroke-linejoin:miter;stroke-miterlimit:10;stroke-dasharray:none;stroke-opacity:1"
     transform="matrix(1.3320001,0,0,1.3320001,-12.347722,-17.439416)"
     clip-path="url(#clipPath39-9)" /><text
     id="text39"
     xml:space="preserve"
     transform="translate(34.961158,119.7566)"
     clip-path="url(#clipPath40-2)"><tspan
       style="font-variant:normal;font-weight:normal;font-size:15.98px;font-family:'Times New Roman';writing-mode:lr-tb;fill:#000000;fill-opacity:1;fill-rule:nonzero;stroke:none"
       x="0 7.984375 15.96875"
       y="0"
       sodipodi:role="line"
       id="tspan39">160</tspan></text><path
     id="path41"
     d="m 61.799999,93 h 9.000004 m -9.000004,-5.400002 h 9.000004 m -9.000004,-5.5 h 9.000004 m -9.000004,-5.400001 h 9.000004 m -9.000004,-5.5 h 18.000004"
     style="fill:none;stroke:#000000;stroke-width:1;stroke-linecap:butt;stroke-linejoin:miter;stroke-miterlimit:10;stroke-dasharray:none;stroke-opacity:1"
     transform="matrix(1.3320001,0,0,1.3320001,-12.347722,-17.439416)"
     clip-path="url(#clipPath42-0)" /><text
     id="text42"
     xml:space="preserve"
     transform="translate(34.961158,83.393014)"
     clip-path="url(#clipPath43-3)"><tspan
       style="font-variant:normal;font-weight:normal;font-size:15.98px;font-family:'Times New Roman';writing-mode:lr-tb;fill:#000000;fill-opacity:1;fill-rule:nonzero;stroke:none"
       x="0 7.984375 15.96875"
       y="0"
       sodipodi:role="line"
       id="tspan42">170</tspan></text><path
     id="path44"
     d="m 61.799999,65.800003 h 9.000004 m -9.000004,-5.500004 h 9.000004 m -9.000004,-5.399997 h 9.000004 m -9.000004,-5.5 h 9.000004 M 61.799999,44 h 18.000004"
     style="fill:none;stroke:#000000;stroke-width:1;stroke-linecap:butt;stroke-linejoin:miter;stroke-miterlimit:10;stroke-dasharray:none;stroke-opacity:1"
     transform="matrix(1.3320001,0,0,1.3320001,-12.347722,-17.439416)"
     clip-path="url(#clipPath45-0)" /><text
     id="text45"
     xml:space="preserve"
     transform="translate(34.961158,47.162584)"
     clip-path="url(#clipPath46-2)"><tspan
       style="font-variant:normal;font-weight:normal;font-size:15.98px;font-family:'Times New Roman';writing-mode:lr-tb;fill:#000000;fill-opacity:1;fill-rule:nonzero;stroke:none"
       x="0 7.984375 15.96875"
       y="0"
       sodipodi:role="line"
       id="tspan45">180</tspan></text><path
     id="path47-7"
     d="m 61.799999,38.5 h 9.000004 m -9.000004,-5.400002 h 9.000004 M 61.799999,27.6 h 9.000004 m -9.000004,-5.399999 h 9.000004 m -9.000004,-5.5 h 18.000004"
     style="fill:none;stroke:#000000;stroke-width:1;stroke-linecap:butt;stroke-linejoin:miter;stroke-miterlimit:10;stroke-dasharray:none;stroke-opacity:1"
     transform="matrix(1.3320001,0,0,1.3320001,-12.347722,-17.439416)"
     clip-path="url(#clipPath48-1)" /><text
     id="text48"
     xml:space="preserve"
     transform="translate(34.961158,10.798984)"
     clip-path="url(#clipPath49-7)"><tspan
       style="font-variant:normal;font-weight:normal;font-size:15.98px;font-family:'Times New Roman';writing-mode:lr-tb;fill:#000000;fill-opacity:1;fill-rule:nonzero;stroke:none"
       x="0 7.984375 15.96875"
       y="0"
       sodipodi:role="line"
       id="tspan48">190</tspan></text><path
     id="path50-4"
     d="m 61.799999,207.5 v -18 m 0,-172.799999 v 18"
     style="fill:none;stroke:#000000;stroke-width:1;stroke-linecap:butt;stroke-linejoin:miter;stroke-miterlimit:10;stroke-dasharray:none;stroke-opacity:1"
     transform="matrix(1.3320001,0,0,1.3320001,-12.347722,-17.439416)"
     clip-path="url(#clipPath51-2)" /><text
     id="text51"
     xml:space="preserve"
     transform="translate(65.985488,281.7279)"
     clip-path="url(#clipPath52-2)"><tspan
       style="font-variant:normal;font-weight:normal;font-size:15.98px;font-family:'Times New Roman';writing-mode:lr-tb;fill:#000000;fill-opacity:1;fill-rule:nonzero;stroke:none"
       x="0"
       y="0"
       id="tspan51">0</tspan></text><path
     id="path53-5"
     d="m 72.5,207.5 v -9 m 0,-181.799999 v 9 M 83.300003,207.5 v -9 m 0,-181.799999 v 9 M 94,207.5 v -9 M 94,16.700001 v 9 M 104.7,207.5 v -9 m 0,-181.799999 v 9 M 115.5,207.5 v -9 m 0,-181.799999 v 9 M 126.2,207.5 v -9 m 0,-181.799999 v 9 M 137,207.5 v -9 m 0,-181.799999 v 9 M 147.7,207.5 v -9 m 0,-181.799999 v 9 M 158.39999,207.5 v -9 m 0,-181.799999 v 9 M 169.2,207.5 v -18 m 0,-172.799999 v 18"
     style="fill:none;stroke:#000000;stroke-width:1;stroke-linecap:butt;stroke-linejoin:miter;stroke-miterlimit:10;stroke-dasharray:none;stroke-opacity:1"
     transform="matrix(1.3320001,0,0,1.3320001,-12.347722,-17.439416)"
     clip-path="url(#clipPath54-7)" /><text
     id="text54"
     xml:space="preserve"
     transform="translate(201.05791,281.7279)"
     clip-path="url(#clipPath55-9)"><tspan
       style="font-variant:normal;font-weight:normal;font-size:15.98px;font-family:'Times New Roman';writing-mode:lr-tb;fill:#000000;fill-opacity:1;fill-rule:nonzero;stroke:none"
       x="0 7.984375 15.96875"
       y="0"
       sodipodi:role="line"
       id="tspan54">500</tspan></text><path
     id="path56-2"
     d="m 179.89999,207.5 v -9 m 0,-181.799999 v 9 M 190.60001,207.5 v -9 m 0,-181.799999 v 9 M 201.39999,207.5 v -9 m 0,-181.799999 v 9 M 212.10001,207.5 v -9 m 0,-181.799999 v 9 M 222.89999,207.5 v -9 m 0,-181.799999 v 9 M 233.60001,207.5 v -9 m 0,-181.799999 v 9 M 244.3,207.5 v -9 m 0,-181.799999 v 9 M 255.10001,207.5 v -9 m 0,-181.799999 v 9 M 265.79999,207.5 v -9 m 0,-181.799999 v 9 M 276.5,207.5 v -18 m 0,-172.799999 v 18"
     style="fill:none;stroke:#000000;stroke-width:1;stroke-linecap:butt;stroke-linejoin:miter;stroke-miterlimit:10;stroke-dasharray:none;stroke-opacity:1"
     transform="matrix(1.3320001,0,0,1.3320001,-12.347722,-17.439416)"
     clip-path="url(#clipPath57-2)" /><text
     id="text57"
     xml:space="preserve"
     transform="translate(339.9815,281.7279)"
     clip-path="url(#clipPath58-9)"><tspan
       style="font-variant:normal;font-weight:normal;font-size:15.98px;font-family:'Times New Roman';writing-mode:lr-tb;fill:#000000;fill-opacity:1;fill-rule:nonzero;stroke:none"
       x="0 7.984375 15.96875 23.953125"
       y="0"
       sodipodi:role="line"
       id="tspan57">1000</tspan></text><path
     id="path59-5"
     d="m 287.29999,207.5 v -9 m 0,-181.799999 v 9 M 298,207.5 v -9 m 0,-181.799999 v 9 M 308.70001,207.5 v -9 m 0,-181.799999 v 9 M 319.5,207.5 v -9 m 0,-181.799999 v 9 M 330.20001,207.5 v -9 m 0,-181.799999 v 9 M 341,207.5 v -9 m 0,-181.799999 v 9 M 351.70001,207.5 v -9 m 0,-181.799999 v 9 M 362.39999,207.5 v -9 m 0,-181.799999 v 9 M 373.20001,207.5 v -9 m 0,-181.799999 v 9 M 383.89999,207.5 v -18 m 0,-172.799999 v 18"
     style="fill:none;stroke:#000000;stroke-width:1;stroke-linecap:butt;stroke-linejoin:miter;stroke-miterlimit:10;stroke-dasharray:none;stroke-opacity:1"
     transform="matrix(1.3320001,0,0,1.3320001,-12.347722,-17.439416)"
     clip-path="url(#clipPath60-3)" /><text
     id="text60"
     xml:space="preserve"
     transform="translate(483.03829,281.7279)"
     clip-path="url(#clipPath61-1)"><tspan
       style="font-variant:normal;font-weight:normal;font-size:15.98px;font-family:'Times New Roman';writing-mode:lr-tb;fill:#000000;fill-opacity:1;fill-rule:nonzero;stroke:none"
       x="0 7.984375 15.96875 23.953125"
       y="0"
       sodipodi:role="line"
       id="tspan60">1500</tspan></text><path
     id="path62-4"
     d="m 383.89999,192.2 h -18"
     style="fill:none;stroke:#000000;stroke-width:1;stroke-linecap:butt;stroke-linejoin:miter;stroke-miterlimit:10;stroke-dasharray:none;stroke-opacity:1"
     transform="matrix(1.3320001,0,0,1.3320001,-12.347722,-17.439416)"
     clip-path="url(#clipPath63-9)" /><text
     id="text63"
     xml:space="preserve"
     transform="translate(510.06266,244.565)"
     clip-path="url(#clipPath64-1)"><tspan
       style="font-variant:normal;font-weight:normal;font-size:15.98px;font-family:'Times New Roman';writing-mode:lr-tb;fill:#000000;fill-opacity:1;fill-rule:nonzero;stroke:none"
       x="0"
       y="0"
       id="tspan63">0</tspan></text><path
     id="path65"
     d="m 383.89999,184.60001 h -9 m 9,-7.60001 h -9 m 9,-7.7 h -9 m 9,-7.6 h -9 m 9,-7.59999 h -18"
     style="fill:none;stroke:#000000;stroke-width:1;stroke-linecap:butt;stroke-linejoin:miter;stroke-miterlimit:10;stroke-dasharray:none;stroke-opacity:1"
     transform="matrix(1.3320001,0,0,1.3320001,-12.347722,-17.439416)"
     clip-path="url(#clipPath66-4)" /><text
     id="text66"
     xml:space="preserve"
     transform="translate(510.06266,193.8158)"
     clip-path="url(#clipPath67-8)"><tspan
       style="font-variant:normal;font-weight:normal;font-size:15.98px;font-family:'Times New Roman';writing-mode:lr-tb;fill:#000000;fill-opacity:1;fill-rule:nonzero;stroke:none"
       x="0"
       y="0"
       id="tspan66">5</tspan></text><path
     id="path68-7"
     d="M 61.799999,16.700001 V 207.5 H 383.89999 V 16.700001 Z"
     style="fill:none;stroke:#000000;stroke-width:1;stroke-linecap:butt;stroke-linejoin:miter;stroke-miterlimit:10;stroke-dasharray:none;stroke-opacity:1"
     transform="matrix(1.3320001,0,0,1.3320001,-12.347722,-17.439416)"
     clip-path="url(#clipPath69-5)" /><text
     id="text69"
     xml:space="preserve"
     transform="rotate(-90,81.402681,70.307193)"
     clip-path="url(#clipPath70-3)"><tspan
       style="font-variant:normal;font-weight:normal;font-size:15.98px;font-family:'Times New Roman';writing-mode:lr-tb;fill:#000000;fill-opacity:1;fill-rule:nonzero;stroke:none"
       x="0 8.6385651 15.726257 28.147263 36.131638 43.21933 48.537048 55.624741 60.061371 68.045746 73.363464 80.451157 84.443344 89.761063 96.147003 106.79803"
       y="0"
       sodipodi:role="line"
       id="tspan69">Temperature (°C)</tspan></text><text
     id="text70"
     xml:space="preserve"
     transform="rotate(-90,397.53821,-150.08687)"
     clip-path="url(#clipPath71-1)"><tspan
       style="font-variant:normal;font-weight:normal;font-size:15.98px;font-family:'Times New Roman';writing-mode:lr-tb;fill:#000000;fill-opacity:1;fill-rule:nonzero;stroke:none"
       x="0 8.8810577 16.865433 28.397552 35.485245 40.802963 44.795151 50.112869 58.097244 73.169312"
       y="0"
       sodipodi:role="line"
       id="tspan70">Power (kW)</tspan></text><text
     id="text71"
     xml:space="preserve"
     transform="translate(257.43752,304.7713)"
     clip-path="url(#clipPath72-6)"><tspan
       style="font-variant:normal;font-weight:normal;font-size:15.98px;font-family:'Times New Roman';writing-mode:lr-tb;fill:#000000;fill-opacity:1;fill-rule:nonzero;stroke:none"
       x="0 9.1925507 13.629181 26.050186 33.137878 37.130066 42.447784 48.662186"
       y="0"
       sodipodi:role="line"
       id="tspan71">Time (s)</tspan></text><path
     id="path73-4"
     d="m 61.799999,125.7 h 1.100003 1 H 65 h 1.099998 1.099999 1 1.100006 1.099999 1.099998 1 1.099998 1.099999 1.100006 1 1.099999 H 79 h 1.099998 1 1.099999 1.100006 1 1.099999 1.099998 1.099998 1 1.099999 1.100006 1.099999 1 H 94 h 1.099998 1.099999 1 1.100006 1.099999 1.099998 1 1.1 1.1 1 1.1 1.1 1.1 1 1.1 1.1 1.1 1 1.1 1.1 1.1 1 1.1 1.1 1.1 1 1.1 1.1 1 1.1 1.1 1.09999 1 1.10001 1.10001 1.09999 1 1.1 1.09999 1.10001 1 1.10001 1.09999 1.1 1 1.09999 1.10001 1 1.10001 1.09999 1.1 1 1.09999 1.10001 1.10001 1 1.09999 1.1 1.09999 1 1.10001 1.10001 1.09999 1 1.1 1.09999 1 1.10001 1.10001 1.09999 1 1.1 1.09999 1.10001 1 1.10001 1.09999 1.1 1 1.09999 1.10001 1.10001 1 1.09999 1.1 1 1.09999 1.10001 1.10001 1 1.09999 1.1 1.09999 1 1.10001 1.10001 1.09999 1 1.1 1.09999 1.10001 1 1.10001 1.09999 1 1.1 1.09999 1.10001 1 1.10001 1.09999 1.1 1 1.09999 1.10001 1.10001 1 1.09999 1.1 l 1.09999,-68.100002 h 1 1.10001 1.10001 1 1.09999 1.1 1.09999 1 1.10001 1.10001 1.09999 1 1.1 1.09999 1.10001 1 1.10001 1.09999 1 1.1 1.09999 1.10001 1 1.10001 1.09999 1.1 1 1.09999 1.10001 1.10001 1 1.1 1.09998 1.1 1 1.10001 1.10001 1 1.1 1.09998 1.1 1 1.10001 1.10001 1.1 1 1.09998 1.1 1.10001 1 1.10001 1.1 1.09998 1 1.1 1.10001 1 1.10001 1.1 1.09998 1 1.1 1.10001 1.10001 1 1.1 1.09998 1.1 1 1.10001 1.10001 1.1 1 1.09998 1.1 1 1.10001 1.10001 1.1 1 1.09998 1.1 1.10001 1 1.10001 1.1 1.09998 1 1.1 1.10001 1.10001 1 1.1 1.09998 1 1.1 1.10001 1.10001 1 1.1 1.09998 1.1 1 1.10001 1.10001 1.1 1 1.09998 1.1 1.10001 1 1.10001 1.1 1 1.09998 1.1 1.10001 1 1.10001 1.1 1.09998 1 1.1 1.10001 1.10001 1 1.1 1.09998 1.1 1 1.10001 1.10001 1 1.1 1.09998 1.1 1 1.10001 1.10001 1.1 1 1.09998 1.1 1.10001 1 1.10001 1.1 1.09998 1 1.1"
     style="fill:none;stroke:#ff0000;stroke-width:1;stroke-linecap:butt;stroke-linejoin:miter;stroke-miterlimit:10;stroke-dasharray:none;stroke-opacity:1"
     transform="matrix(1.3320001,0,0,1.3320001,-12.347722,-17.439416)"
     clip-path="url(#clipPath74-2)" /><path
     id="path75-4"
     d="m 61.799999,192.2 h 1.100003 1 H 65 h 1.099998 1.099999 1 1.100006 1.099999 1.099998 1 1.099998 1.099999 1.100006 1 1.099999 H 79 80.099998 l 1,-30.5 h 1.099999 1.100006 1 1.099999 1.099998 1.099998 1 1.099999 1.100006 1.099999 1 H 94 h 1.099998 1.099999 1 1.100006 1.099999 L 100.5,192.2 h 1 1.1 1.1 1 1.1 1.1 1.1 1 1.1 1.1 1.1 1 1.1 1.1 1.1 1 1.1 1.1 1.1 1 1.1 1.1 1 1.1 1.1 1.09999 1 1.10001 1.10001 1.09999 1 1.1 1.09999 1.10001 1 1.10001 1.09999 1.1 1 1.09999 1.10001 1 1.10001 1.09999 1.1 1 1.09999 1.10001 1.10001 1 1.09999 1.1 1.09999 1 1.10001 1.10001 1.09999 1 1.1 1.09999 1 1.10001 1.10001 1.09999 1 1.1 l 1.09999,-30.5 h 1.10001 1 1.10001 1.09999 1.1 1 1.09999 1.10001 1.10001 1 1.09999 1.1 1 1.09999 1.10001 1.10001 1 L 191.7,192.2 h 1.1 1.09999 1 1.10001 1.10001 1.09999 1 1.1 1.09999 1.10001 1 1.10001 1.09999 1 1.1 1.09999 1.10001 1 1.10001 1.09999 1.1 1 1.09999 1.10001 1.10001 1 1.09999 1.1 1.09999 l 1,-30.5 H 225 h 1.10001 1 1.09999 1.1 1.09999 1 1.10001 1.10001 1.09999 1 1.1 1.09999 1.10001 1 1.10001 1.09999 1 1.1 1.09999 1.10001 1 1.10001 1.09999 1.1 1 1.09999 1.10001 1.10001 1 l 1.1,30.5 h 1.09998 1.1 1 1.10001 1.10001 1 1.1 1.09998 1.1 1 1.10001 1.10001 1.1 1 1.09998 1.1 1.10001 1 1.10001 1.1 1.09998 1 1.1 1.10001 1 1.10001 1.1 1.09998 1 1.1 1.10001 1.10001 1 1.1 1.09998 1.1 1 1.10001 1.10001 1.1 1 1.09998 1.1 1 1.10001 1.10001 1.1 1 1.09998 1.1 1.10001 1 1.10001 1.1 1.09998 l 1,-30.5 h 1.1 1.10001 1.10001 1 1.1 1.09998 1 1.1 1.10001 1.10001 1 1.1 1.09998 1.1 1 1.10001 1.10001 1.1 l 1,30.5 h 1.09998 1.1 1.10001 1 1.10001 1.1 1 1.09998 1.1 1.10001 1 1.10001 1.1 1.09998 1 1.1 1.10001 1.10001 1 1.1 1.09998 1.1 1 1.10001 1.10001 1 1.1 1.09998 1.1 1 1.10001 1.10001 1.1 1 1.09998 1.1 1.10001 1 1.10001 1.1 1.09998 1 1.1"
     style="fill:none;stroke:#0000ff;stroke-width:1;stroke-linecap:butt;stroke-linejoin:miter;stroke-miterlimit:10;stroke-dasharray:none;stroke-opacity:1"
     transform="matrix(1.3320001,0,0,1.3320001,-12.347722,-17.439416)"
     clip-path="url(#clipPath76-6)" /><path
     id="path77-3"
     d="m 61.799999,125.7 1.100003,0.8 1,0.9 1.099998,0.8 1.099998,0.8 1.099999,0.8 1,0.80001 1.100006,0.89999 1.099999,0.8 1.099998,0.80001 1,0.79998 1.099998,0.80001 1.099999,0.8 1.100006,0.8 1,0.80001 1.099999,0.79998 L 79,138.8 l 1.099998,0.7 1,0.8 1.099999,0.2 1.100006,-0.2 1,-0.6 1.099999,-0.9 L 86.5,137.60001 87.599998,136 l 1,-1.7 1.099999,-1.90001 1.100006,-2.09999 1.099999,-2.19999 1,-2.40001 L 94,123.3 l 1.099998,-2.6 1.099999,-2.6 1,-2.7 1.100006,-2.7 1.099999,-2.8 1.099998,-2.8 1,-2.3 1.1,-1.9 1.1,-1.5 1,-1.2 1.1,-0.899997 1.1,-0.700005 1.1,-0.5 1,-0.299995 1.1,-0.100006 1.1,0.100006 1.1,0.1 1,0.199996 1.1,0.400002 1.1,0.400002 1.1,0.5 1,0.5 1.1,0.599997 1.1,0.6 1.1,0.6 1,0.7 1.1,0.7 1.1,0.8 1,0.7 1.1,0.8 1.1,0.8 1.09999,0.8 1,0.8 1.10001,0.8 1.10001,0.8 1.09999,0.8 1,0.9 1.1,0.8 1.09999,0.8 1.10001,0.9 1,0.8 1.10001,0.8 1.09999,0.9 1.1,0.8 1,0.9 1.09999,0.8 1.10001,0.9 1,0.8 1.10001,0.8 1.09999,0.9 1.1,0.8 1,0.8 1.09999,0.9 1.10001,0.8 1.10001,0.8 1,0.9 1.09999,0.8 1.1,0.80001 1.09999,0.89999 1,0.8 1.10001,0.80001 1.10001,0.79998 1.09999,0.80001 1,0.90001 1.1,0.79998 1.09999,0.80001 1,0.8 1.10001,0.8 1.10001,0.80001 1.09999,0.79998 1,0.80001 1.1,0.8 1.09999,0.7 1.10001,0.3 1,-0.2 1.10001,-0.6 1.09999,-1 1.1,-1.2 1,-1.5 1.09999,-1.7 1.10001,-2 1.10001,-2 1,-2.3 1.09999,-2.3 1.1,-2.5 1,-2.5 1.09999,-2.6 1.10001,-2.7 1.10001,-2.8 1,-2.8 1.09999,-2.7 1.1,-2.4 1.09999,-1.9 1,-1.5 L 196,100.6 197.10001,99.699997 198.2,99 l 1,-0.400002 1.1,-0.299995 1.09999,-0.100006 H 202.5 l 1,0.100006 1.10001,0.299995 1.09999,0.300004 1,0.400001 1.1,0.5 1.09999,0.499997 1.10001,0.6 1,0.6 1.10001,0.7 1.09999,0.7 1.1,0.7 1,0.7 1.09999,0.7 1.10001,0.8 1.10001,0.8 1,0.8 1.09999,0.8 1.1,0.8 1.09999,0.8 1,0.7 1.10001,0.3 1.10001,-0.1 1,-0.6 1.09999,-0.9 1.1,-1.2 1.09999,-1.4 1,-1.7 1.10001,-1.8 1.10001,-2.1 1.09999,-2.099998 1,-2.300004 1.1,-2.400001 1.09999,-2.5 L 239,89.099998 240,86.5 241.10001,83.800003 242.2,81.099998 243.2,78.400002 244.3,75.5 245.39999,72.699997 246.5,69.900002 247.5,67 l 1.10001,-2.900002 1.09999,-2.899997 1.1,-2.900002 1,-2.899997 L 252.89999,52.5 254,49.599998 l 1.10001,-2.899997 1,-3 1.1,-2.799999 1.09998,-2.400002 1.1,-1.900002 1,-1.599998 L 261.5,33.900002 262.60001,33 l 1,-0.599998 1.1,-0.400002 1.09998,-0.200001 h 1.1 l 1,0.100001 L 269,32.200001 270.10001,32.5 l 1.1,0.5 1,0.5 1.09998,0.599998 1.1,0.700001 L 275.5,35.5 l 1,0.700001 1.10001,0.799999 1.1,0.900002 1.09998,0.799999 1,0.899997 1.1,0.900002 1.10001,0.900002 1,0.899997 1.10001,1 1.1,1 1.09998,0.900002 1,1 1.1,1 1.10001,1 1.10001,0.899997 1,1 1.1,1 1.09998,1 1.1,1 1,1 1.10001,1 1.10001,1 1.1,1 1,0.900002 1.09998,1 1.1,1 1,1 1.10001,1 1.10001,1 1.1,1 1,0.900002 1.09998,1 1.1,1 1.10001,1 1,1 1.10001,0.900001 1.1,1 1.09998,1 1,0.799995 1.1,0.5 H 319.5 l 1.10001,-0.5 1,-0.799995 1.1,-1 1.09998,-1.400001 1,-1.5 1.1,-1.800004 1.10001,-1.900001 1.10001,-2.099999 1,-2.199996 1.1,-2.300004 1.09998,-2.399997 1.1,-2.400002 1,-2.599998 L 334.5,47.599998 335.60001,45 l 1.1,-2.700001 1,-2.599998 1.09998,-2.200001 1.1,-1.700001 L 341,34.400002 342,33.299999 343.10001,32.5 l 1.1,-0.5 1,-0.299999 L 346.29999,31.6 h 1.1 l 1.10001,0.199999 1,0.299999 1.10001,0.400002 1.1,0.5 1.09998,0.5 1,0.700001 1.1,0.700001 1.10001,0.699996 1.10001,0.800004 1,0.799999 1.1,0.799999 1.09998,0.900002 1.1,0.899997 1,0.900002 1.10001,0.899997 1.10001,0.900002 1,1 1.1,0.900002 1.09998,1 1.1,1 1,1 1.10001,0.899997 1.10001,1 1.1,1 1,1 1.09998,1 1.1,1 1.10001,1 1,1 1.10001,1 1.1,1 1.09998,1 1,0.900002 1.1,1"
     style="fill:none;stroke:#00ff00;stroke-width:1;stroke-linecap:butt;stroke-linejoin:miter;stroke-miterlimit:10;stroke-dasharray:none;stroke-opacity:1"
     transform="matrix(1.3320001,0,0,1.3320001,-12.347722,-17.439416)"
     clip-path="url(#clipPath78-5)" /><path
     id="path79-0"
     d="M 61.799999,16.700001 V 207.5 H 383.89999 V 16.700001 Z"
     style="fill:none;stroke:#000000;stroke-width:1;stroke-linecap:butt;stroke-linejoin:miter;stroke-miterlimit:10;stroke-dasharray:none;stroke-opacity:1"
     transform="matrix(1.3320001,0,0,1.3320001,-12.347722,-17.439416)"
     clip-path="url(#clipPath80-4)" /></svg>
