<?xml version="1.0" encoding="UTF-8" standalone="no"?>
<svg
   id="Ebene_1"
   data-name="Ebene 1"
   viewBox="0 0 551.0428 308.18888"
   version="1.1"
   sodipodi:docname="pid_control_integral.svg"
   width="551.04279"
   height="308.18887"
   inkscape:version="1.3.2 (1:1.3.2+202311252150+091e20ef0f)"
   xmlns:inkscape="http://www.inkscape.org/namespaces/inkscape"
   xmlns:sodipodi="http://sodipodi.sourceforge.net/DTD/sodipodi-0.dtd"
   xmlns="http://www.w3.org/2000/svg"
   xmlns:svg="http://www.w3.org/2000/svg">
  <defs
     id="defs105">
    <clipPath
       clipPathUnits="userSpaceOnUse"
       id="clipPath325">
      <path
         d="M 338.54169,151.04199 H 2213.5417 V 1191.667 H 338.54169 Z"
         transform="matrix(0.24024021,0,0,0.24024021,-81.556525,-36.28636)"
         clip-rule="evenodd"
         id="path325" />
    </clipPath>
    <clipPath
       clipPathUnits="userSpaceOnUse"
       id="clipPath326">
      <path
         d="M 338.54169,151.04199 H 2213.5417 V 1191.667 H 338.54169 Z"
         transform="matrix(0.31999999,0,0,0.31999999,-155.9422,-241.34022)"
         clip-rule="evenodd"
         id="path326" />
    </clipPath>
    <clipPath
       clipPathUnits="userSpaceOnUse"
       id="clipPath328">
      <path
         d="M 338.54169,151.04199 H 2213.5417 V 1191.667 H 338.54169 Z"
         transform="matrix(0.24024021,0,0,0.24024021,-81.556525,-36.28636)"
         clip-rule="evenodd"
         id="path328" />
    </clipPath>
    <clipPath
       clipPathUnits="userSpaceOnUse"
       id="clipPath329">
      <path
         d="M 338.54169,151.04199 H 2213.5417 V 1191.667 H 338.54169 Z"
         transform="matrix(0.31999999,0,0,0.31999999,-155.9422,-186.32863)"
         clip-rule="evenodd"
         id="path329" />
    </clipPath>
    <clipPath
       clipPathUnits="userSpaceOnUse"
       id="clipPath331">
      <path
         d="M 338.54169,151.04199 H 2213.5417 V 1191.667 H 338.54169 Z"
         transform="matrix(0.24024021,0,0,0.24024021,-81.556525,-36.28636)"
         clip-rule="evenodd"
         id="path331" />
    </clipPath>
    <clipPath
       clipPathUnits="userSpaceOnUse"
       id="clipPath332">
      <path
         d="M 338.54169,151.04199 H 2213.5417 V 1191.667 H 338.54169 Z"
         transform="matrix(0.31999999,0,0,0.31999999,-155.9422,-131.45024)"
         clip-rule="evenodd"
         id="path332" />
    </clipPath>
    <clipPath
       clipPathUnits="userSpaceOnUse"
       id="clipPath334">
      <path
         d="M 338.54169,151.04199 H 2213.5417 V 1191.667 H 338.54169 Z"
         transform="matrix(0.24024021,0,0,0.24024021,-81.556525,-36.28636)"
         clip-rule="evenodd"
         id="path334" />
    </clipPath>
    <clipPath
       clipPathUnits="userSpaceOnUse"
       id="clipPath335">
      <path
         d="M 338.54169,151.04199 H 2213.5417 V 1191.667 H 338.54169 Z"
         transform="matrix(0.31999999,0,0,0.31999999,-155.9422,-76.571837)"
         clip-rule="evenodd"
         id="path335" />
    </clipPath>
    <clipPath
       clipPathUnits="userSpaceOnUse"
       id="clipPath337">
      <path
         d="M 338.54169,151.04199 H 2213.5417 V 1191.667 H 338.54169 Z"
         transform="matrix(0.24024021,0,0,0.24024021,-81.556525,-36.28636)"
         clip-rule="evenodd"
         id="path337" />
    </clipPath>
    <clipPath
       clipPathUnits="userSpaceOnUse"
       id="clipPath338">
      <path
         d="M 338.54169,151.04199 H 2213.5417 V 1191.667 H 338.54169 Z"
         transform="matrix(0.31999999,0,0,0.31999999,-186.9666,-344.96983)"
         clip-rule="evenodd"
         id="path338" />
    </clipPath>
    <clipPath
       clipPathUnits="userSpaceOnUse"
       id="clipPath340">
      <path
         d="M 338.54169,151.04199 H 2213.5417 V 1191.667 H 338.54169 Z"
         transform="matrix(0.24024021,0,0,0.24024021,-81.556525,-36.28636)"
         clip-rule="evenodd"
         id="path340" />
    </clipPath>
    <clipPath
       clipPathUnits="userSpaceOnUse"
       id="clipPath341">
      <path
         d="M 338.54169,151.04199 H 2213.5417 V 1191.667 H 338.54169 Z"
         transform="matrix(0.31999999,0,0,0.31999999,-254.4949,-344.96983)"
         clip-rule="evenodd"
         id="path341" />
    </clipPath>
    <clipPath
       clipPathUnits="userSpaceOnUse"
       id="clipPath343">
      <path
         d="M 338.54169,151.04199 H 2213.5417 V 1191.667 H 338.54169 Z"
         transform="matrix(0.24024021,0,0,0.24024021,-81.556525,-36.28636)"
         clip-rule="evenodd"
         id="path343" />
    </clipPath>
    <clipPath
       clipPathUnits="userSpaceOnUse"
       id="clipPath344">
      <path
         d="M 338.54169,151.04199 H 2213.5417 V 1191.667 H 338.54169 Z"
         transform="matrix(0.31999999,0,0,0.31999999,-322.039,-344.96983)"
         clip-rule="evenodd"
         id="path344" />
    </clipPath>
    <clipPath
       clipPathUnits="userSpaceOnUse"
       id="clipPath346">
      <path
         d="M 338.54169,151.04199 H 2213.5417 V 1191.667 H 338.54169 Z"
         transform="matrix(0.24024021,0,0,0.24024021,-81.556525,-36.28636)"
         clip-rule="evenodd"
         id="path346" />
    </clipPath>
    <clipPath
       clipPathUnits="userSpaceOnUse"
       id="clipPath347">
      <path
         d="M 338.54169,151.04199 H 2213.5417 V 1191.667 H 338.54169 Z"
         transform="matrix(0.31999999,0,0,0.31999999,-393.5674,-344.96983)"
         clip-rule="evenodd"
         id="path347" />
    </clipPath>
    <clipPath
       clipPathUnits="userSpaceOnUse"
       id="clipPath349">
      <path
         d="M 338.54169,151.04199 H 2213.5417 V 1191.667 H 338.54169 Z"
         transform="matrix(0.24024021,0,0,0.24024021,-81.556525,-36.28636)"
         clip-rule="evenodd"
         id="path349" />
    </clipPath>
    <clipPath
       clipPathUnits="userSpaceOnUse"
       id="clipPath350">
      <path
         d="M 338.54169,151.04199 H 2213.5417 V 1191.667 H 338.54169 Z"
         transform="matrix(0.31999999,0,0,0.31999999,-464.9626,-344.96983)"
         clip-rule="evenodd"
         id="path350" />
    </clipPath>
    <clipPath
       clipPathUnits="userSpaceOnUse"
       id="clipPath352">
      <path
         d="M 338.54169,151.04199 H 2213.5417 V 1191.667 H 338.54169 Z"
         transform="matrix(0.24024021,0,0,0.24024021,-81.556525,-36.28636)"
         clip-rule="evenodd"
         id="path352" />
    </clipPath>
    <clipPath
       clipPathUnits="userSpaceOnUse"
       id="clipPath353">
      <path
         d="M 338.54169,151.04199 H 2213.5417 V 1191.667 H 338.54169 Z"
         transform="matrix(0.31999999,0,0,0.31999999,-536.491,-344.96983)"
         clip-rule="evenodd"
         id="path353" />
    </clipPath>
    <clipPath
       clipPathUnits="userSpaceOnUse"
       id="clipPath355">
      <path
         d="M 338.54169,151.04199 H 2213.5417 V 1191.667 H 338.54169 Z"
         transform="matrix(0.24024021,0,0,0.24024021,-81.556525,-36.28636)"
         clip-rule="evenodd"
         id="path355" />
    </clipPath>
    <clipPath
       clipPathUnits="userSpaceOnUse"
       id="clipPath356">
      <path
         d="M 338.54169,151.04199 H 2213.5417 V 1191.667 H 338.54169 Z"
         transform="matrix(0.31999999,0,0,0.31999999,-608.0194,-344.96983)"
         clip-rule="evenodd"
         id="path356" />
    </clipPath>
    <clipPath
       clipPathUnits="userSpaceOnUse"
       id="clipPath358">
      <path
         d="M 338.54169,151.04199 H 2213.5417 V 1191.667 H 338.54169 Z"
         transform="matrix(0.24024021,0,0,0.24024021,-81.556525,-36.28636)"
         clip-rule="evenodd"
         id="path358" />
    </clipPath>
    <clipPath
       clipPathUnits="userSpaceOnUse"
       id="clipPath359">
      <path
         d="M 338.54169,151.04199 H 2213.5417 V 1191.667 H 338.54169 Z"
         transform="matrix(0.31999999,0,0,0.31999999,-631.0437,-303.94425)"
         clip-rule="evenodd"
         id="path359" />
    </clipPath>
    <clipPath
       clipPathUnits="userSpaceOnUse"
       id="clipPath361">
      <path
         d="M 338.54169,151.04199 H 2213.5417 V 1191.667 H 338.54169 Z"
         transform="matrix(0.24024021,0,0,0.24024021,-81.556525,-36.28636)"
         clip-rule="evenodd"
         id="path361" />
    </clipPath>
    <clipPath
       clipPathUnits="userSpaceOnUse"
       id="clipPath362">
      <path
         d="M 338.54169,151.04199 H 2213.5417 V 1191.667 H 338.54169 Z"
         transform="matrix(0.31999999,0,0,0.31999999,-631.0437,-254.52704)"
         clip-rule="evenodd"
         id="path362" />
    </clipPath>
    <clipPath
       clipPathUnits="userSpaceOnUse"
       id="clipPath364">
      <path
         d="M 338.54169,151.04199 H 2213.5417 V 1191.667 H 338.54169 Z"
         transform="matrix(0.24024021,0,0,0.24024021,-81.556525,-36.28636)"
         clip-rule="evenodd"
         id="path364" />
    </clipPath>
    <clipPath
       clipPathUnits="userSpaceOnUse"
       id="clipPath365">
      <path
         d="M 338.54169,151.04199 H 2213.5417 V 1191.667 H 338.54169 Z"
         transform="matrix(0,0.31999999,-0.31999999,0,209.0911,-132.0765)"
         clip-rule="evenodd"
         id="path365" />
    </clipPath>
    <clipPath
       clipPathUnits="userSpaceOnUse"
       id="clipPath366">
      <path
         d="M 338.54169,151.04199 H 2213.5417 V 1191.667 H 338.54169 Z"
         transform="matrix(0,0.31999999,-0.31999999,0,307.6298,-668.6062)"
         clip-rule="evenodd"
         id="path366" />
    </clipPath>
    <clipPath
       clipPathUnits="userSpaceOnUse"
       id="clipPath367">
      <path
         d="M 338.54169,151.04199 H 2213.5417 V 1191.667 H 338.54169 Z"
         transform="matrix(0.31999999,0,0,0.31999999,-378.4186,-370.5442)"
         clip-rule="evenodd"
         id="path367" />
    </clipPath>
    <clipPath
       clipPathUnits="userSpaceOnUse"
       id="clipPath369">
      <path
         d="M 338.54169,151.04199 H 2213.5417 V 1191.667 H 338.54169 Z"
         transform="matrix(0.24024021,0,0,0.24024021,-81.556525,-36.28636)"
         clip-rule="evenodd"
         id="path369" />
    </clipPath>
    <clipPath
       clipPathUnits="userSpaceOnUse"
       id="clipPath371">
      <path
         d="M 338.54169,151.04199 H 2213.5417 V 1191.667 H 338.54169 Z"
         transform="matrix(0.24024021,0,0,0.24024021,-81.556525,-36.28636)"
         clip-rule="evenodd"
         id="path371" />
    </clipPath>
    <clipPath
       clipPathUnits="userSpaceOnUse"
       id="clipPath373">
      <path
         d="M 338.54169,151.04199 H 2213.5417 V 1191.667 H 338.54169 Z"
         transform="matrix(0.24024021,0,0,0.24024021,-81.556525,-36.28636)"
         clip-rule="evenodd"
         id="path373" />
    </clipPath>
    <clipPath
       clipPathUnits="userSpaceOnUse"
       id="clipPath375">
      <path
         d="M 338.54169,151.04199 H 2213.5417 V 1191.667 H 338.54169 Z"
         transform="matrix(0.24024021,0,0,0.24024021,-81.556525,-36.28636)"
         clip-rule="evenodd"
         id="path375" />
    </clipPath>
  </defs>
  <sodipodi:namedview
     id="namedview105"
     pagecolor="#ffffff"
     bordercolor="#666666"
     borderopacity="1.0"
     inkscape:showpageshadow="2"
     inkscape:pageopacity="0.0"
     inkscape:pagecheckerboard="0"
     inkscape:deskcolor="#d1d1d1"
     inkscape:zoom="0.23290544"
     inkscape:cx="-115.92688"
     inkscape:cy="468.00109"
     inkscape:window-width="1850"
     inkscape:window-height="1016"
     inkscape:window-x="1436"
     inkscape:window-y="27"
     inkscape:window-maximized="1"
     inkscape:current-layer="Ebene_1" />
  <g
     id="g62"
     transform="matrix(0.59075631,0,0,0.59075631,-53.231332,-179.82293)">
    <path
       id="path227"
       d="m 689.77,467.39 h 43.97"
       fill="none"
       stroke="#006699"
       stroke-linecap="round"
       stroke-linejoin="round"
       stroke-width="4" />
    <path
       id="path227-2"
       data-name="path227"
       d="m 689.77,506.99 h 43.97"
       fill="none"
       stroke="#ff0000"
       stroke-linecap="round"
       stroke-linejoin="round"
       stroke-width="4" />
    <g
       id="path227-3"
       data-name="path227">
      <g
         id="g43">
        <line
           x1="689.77002"
           y1="546.59998"
           x2="693.77002"
           y2="546.59998"
           fill="none"
           stroke="#000000"
           stroke-linecap="round"
           stroke-linejoin="round"
           stroke-width="4"
           id="line41" />
        <line
           x1="707.26001"
           y1="546.59998"
           x2="722.98999"
           y2="546.59998"
           fill="none"
           stroke="#000000"
           stroke-dasharray="0, 0, 8.99, 13.49"
           stroke-linecap="round"
           stroke-linejoin="round"
           stroke-width="4"
           id="line42" />
        <line
           x1="729.73999"
           y1="546.59998"
           x2="733.73999"
           y2="546.59998"
           fill="none"
           stroke="#000000"
           stroke-linecap="round"
           stroke-linejoin="round"
           stroke-width="4"
           id="line43" />
      </g>
    </g>
    <g
       id="g47">
      <path
         d="m 754.19,534.11 v 20.27 h -1.52 v -20.27 z"
         id="path43" />
      <path
         d="m 759.85,540.09 h 1.32 l 0.11,2.75 c 0.74,-1.97 2.97,-3.15 4.98,-3.15 3.26,0 5.06,2.17 5.06,5.35 v 9.35 h -1.43 v -9.21 c 0,-2.4 -1.23,-4.09 -3.77,-4.09 -3.17,0 -4.83,2.63 -4.83,5.81 v 7.49 h -1.43 v -14.3 z"
         id="path44" />
      <path
         d="m 776.46,540.09 h 1.32 l 0.11,2.72 c 0.8,-1.89 2.92,-3.12 4.89,-3.12 1.69,0 2.95,0.54 3.92,1.37 1.66,1.4 2.4,3.6 2.4,6.15 0,2.55 -0.71,4.63 -2.26,6.06 -0.97,0.92 -2.32,1.52 -4.03,1.52 -2.09,0 -4.12,-1.17 -4.92,-3 v 8.29 h -1.43 z m 9.55,12.01 c 1.14,-1.23 1.63,-3.03 1.63,-4.86 0,-2.03 -0.57,-3.95 -1.94,-5.12 -0.71,-0.63 -1.69,-1.03 -2.95,-1.03 -1.26,0 -2.26,0.49 -3,1.17 -1.32,1.26 -1.89,3 -1.89,4.98 0,2.12 0.51,3.77 1.86,5 0.74,0.69 1.74,1.14 3.09,1.14 1.35,0 2.46,-0.49 3.2,-1.29 z"
         id="path45" />
      <path
         d="m 793.31,549.32 v -9.24 h 1.43 v 9.15 c 0,2.49 1.23,4.15 3.75,4.15 3.32,0 4.69,-2.66 4.69,-5.86 v -7.43 h 1.43 v 14.3 h -1.32 l -0.11,-2.69 c -0.8,1.89 -2.63,3.09 -4.78,3.09 -3.23,0 -5.09,-2.26 -5.09,-5.46 z"
         id="path46" />
      <path
         d="m 811.38,550.67 v -9.26 h -3.37 v -1.32 h 3.37 v -3.95 l 1.43,-0.34 v 4.29 h 4.49 v 1.32 h -4.49 v 9.06 c 0,1.57 0.49,2.77 2.57,2.77 0.77,0 1.37,-0.09 2.12,-0.26 v 1.26 c -0.71,0.23 -1.43,0.34 -2.23,0.34 -2.8,0 -3.89,-1.63 -3.89,-3.92 z"
         id="path47" />
    </g>
    <g
       id="g54">
      <path
         d="m 752.67,454.91 h 1.52 v 12.52 l 11.3,-12.52 h 1.83 l -7.89,8.72 8.01,11.55 h -1.74 l -7.26,-10.47 -4.23,4.66 v 5.8 h -1.52 V 454.9 Z"
         id="path48" />
      <path
         d="m 770.21,484.14 c -0.97,-0.82 -1.4,-2.15 -1.4,-3.59 0,-1.44 0.43,-2.65 1.33,-3.5 0.58,-0.55 1.4,-0.92 2.43,-0.92 1.35,0 2.38,0.75 2.77,1.68 v -5.19 h 0.85 v 12.07 h -0.78 l -0.07,-1.58 c -0.47,1.12 -1.68,1.82 -2.83,1.82 -0.98,0 -1.73,-0.32 -2.3,-0.8 z m 4.07,-0.7 c 0.78,-0.72 1.08,-1.75 1.08,-2.9 0,-1.23 -0.28,-2.2 -1.07,-2.92 -0.43,-0.4 -1.02,-0.67 -1.8,-0.67 -0.78,0 -1.42,0.28 -1.87,0.75 -0.67,0.7 -0.97,1.77 -0.97,2.84 0,1.18 0.33,2.32 1.13,2.99 0.43,0.37 1.02,0.6 1.73,0.6 0.71,0 1.32,-0.28 1.75,-0.68 z"
         id="path49" />
      <path
         d="m 799.45,463.2 v 1.26 H 786.7 v -1.26 z m 0,6.03 v 1.26 H 786.7 v -1.26 z"
         id="path50" />
      <path
         d="m 812.75,473.95 c -2.14,-1.97 -2.46,-5.55 -2.46,-8.69 0,-3.14 0.31,-6.69 2.46,-8.66 0.97,-0.89 2.32,-1.63 4.23,-1.63 1.91,0 3.29,0.71 4.23,1.63 2.12,2.03 2.46,5.55 2.46,8.66 0,3.11 -0.31,6.72 -2.46,8.69 -0.94,0.89 -2.32,1.63 -4.23,1.63 -1.91,0 -3.26,-0.74 -4.23,-1.63 z m 7.52,-0.92 c 1.86,-1.74 1.97,-5.18 1.97,-7.78 0,-2.6 -0.09,-6 -1.97,-7.75 -0.77,-0.71 -1.8,-1.17 -3.29,-1.17 -1.49,0 -2.52,0.49 -3.26,1.17 -1.89,1.74 -1.97,5.18 -1.97,7.75 0,2.57 0.09,6.03 1.97,7.78 0.74,0.69 1.8,1.17 3.26,1.17 1.46,0 2.54,-0.46 3.29,-1.17 z"
         id="path51" />
      <path
         d="m 829.54,472.61 v 2.57 h -2.52 v -2.57 z"
         id="path52" />
      <path
         d="m 835.35,473.95 c -2.14,-1.97 -2.46,-5.55 -2.46,-8.69 0,-3.14 0.31,-6.69 2.46,-8.66 0.97,-0.89 2.32,-1.63 4.23,-1.63 1.91,0 3.29,0.71 4.23,1.63 2.12,2.03 2.46,5.55 2.46,8.66 0,3.11 -0.31,6.72 -2.46,8.69 -0.94,0.89 -2.32,1.63 -4.23,1.63 -1.91,0 -3.26,-0.74 -4.23,-1.63 z m 7.52,-0.92 c 1.86,-1.74 1.97,-5.18 1.97,-7.78 0,-2.6 -0.09,-6 -1.97,-7.75 -0.77,-0.71 -1.8,-1.17 -3.29,-1.17 -1.49,0 -2.52,0.49 -3.26,1.17 -1.89,1.74 -1.97,5.18 -1.97,7.75 0,2.57 0.09,6.03 1.97,7.78 0.74,0.69 1.8,1.17 3.26,1.17 1.46,0 2.54,-0.46 3.29,-1.17 z"
         id="path53" />
      <path
         d="m 856.25,470.84 h 1.46 c 0.23,2.35 2.09,3.37 4.43,3.37 2.34,0 4.15,-1.03 4.15,-2.97 0,-1.26 -0.89,-2.32 -2.63,-2.54 l -2.77,-0.37 c -2.4,-0.31 -4.03,-1.46 -4.03,-3.63 0,-2.54 2.46,-4.2 5.15,-4.2 3.09,0 5.32,1.77 5.4,4.35 h -1.43 c -0.2,-2.06 -1.89,-3 -3.97,-3 -2.08,0 -3.69,1.12 -3.69,2.72 0,1.17 0.63,2.06 2.77,2.34 l 2.72,0.37 c 2.69,0.37 3.95,2.17 3.95,3.89 0,2.92 -2.63,4.43 -5.61,4.43 -3.4,0 -5.75,-1.8 -5.89,-4.75 z"
         id="path54" />
    </g>
    <g
       id="g61">
      <path
         d="m 752.67,494.51 h 1.52 v 12.52 l 11.3,-12.52 h 1.83 l -7.89,8.72 8.01,11.55 h -1.74 l -7.26,-10.47 -4.23,4.66 v 5.8 h -1.52 V 494.5 Z"
         id="path55" />
      <path
         d="m 770.21,523.74 c -0.97,-0.82 -1.4,-2.15 -1.4,-3.59 0,-1.44 0.43,-2.65 1.33,-3.5 0.58,-0.55 1.4,-0.92 2.43,-0.92 1.35,0 2.38,0.75 2.77,1.68 v -5.19 h 0.85 v 12.07 h -0.78 l -0.07,-1.58 c -0.47,1.12 -1.68,1.82 -2.83,1.82 -0.98,0 -1.73,-0.32 -2.3,-0.8 z m 4.07,-0.7 c 0.78,-0.72 1.08,-1.75 1.08,-2.9 0,-1.23 -0.28,-2.2 -1.07,-2.92 -0.43,-0.4 -1.02,-0.67 -1.8,-0.67 -0.78,0 -1.42,0.28 -1.87,0.75 -0.67,0.7 -0.97,1.77 -0.97,2.84 0,1.18 0.33,2.32 1.13,2.99 0.43,0.37 1.02,0.6 1.73,0.6 0.71,0 1.32,-0.28 1.75,-0.68 z"
         id="path56" />
      <path
         d="m 799.45,502.8 v 1.26 H 786.7 v -1.26 z m 0,6.03 v 1.26 H 786.7 v -1.26 z"
         id="path57" />
      <path
         d="m 810.07,513.24 8.26,-8.92 c 1.32,-1.43 1.97,-2.86 1.97,-4.35 0,-2.35 -1.6,-4.03 -4.32,-4.03 -2.72,0 -4.43,1.86 -4.43,5.09 h -1.52 c 0,-4 2.43,-6.46 5.95,-6.46 3.26,0 5.75,2.09 5.75,5.4 0,1.77 -0.86,3.66 -2.29,5.18 l -7.75,8.26 h 10.55 v 1.37 h -12.18 v -1.54 z"
         id="path58" />
      <path
         d="m 828.97,512.21 v 2.57 h -2.52 v -2.57 z"
         id="path59" />
      <path
         d="m 834.78,513.55 c -2.14,-1.97 -2.46,-5.55 -2.46,-8.69 0,-3.14 0.31,-6.69 2.46,-8.66 0.97,-0.89 2.32,-1.63 4.23,-1.63 1.91,0 3.29,0.71 4.23,1.63 2.12,2.03 2.46,5.55 2.46,8.66 0,3.11 -0.31,6.72 -2.46,8.69 -0.94,0.89 -2.32,1.63 -4.23,1.63 -1.91,0 -3.26,-0.74 -4.23,-1.63 z m 7.52,-0.92 c 1.86,-1.74 1.97,-5.18 1.97,-7.78 0,-2.6 -0.09,-6 -1.97,-7.75 -0.77,-0.71 -1.8,-1.17 -3.29,-1.17 -1.49,0 -2.52,0.49 -3.26,1.17 -1.89,1.74 -1.97,5.18 -1.97,7.75 0,2.57 0.09,6.03 1.97,7.78 0.74,0.69 1.8,1.17 3.26,1.17 1.46,0 2.54,-0.46 3.29,-1.17 z"
         id="path60" />
      <path
         d="m 855.68,510.44 h 1.46 c 0.23,2.35 2.09,3.37 4.43,3.37 2.34,0 4.15,-1.03 4.15,-2.97 0,-1.26 -0.89,-2.32 -2.63,-2.54 l -2.77,-0.37 c -2.4,-0.31 -4.03,-1.46 -4.03,-3.63 0,-2.54 2.46,-4.2 5.15,-4.2 3.09,0 5.32,1.77 5.4,4.35 h -1.43 c -0.2,-2.06 -1.89,-3 -3.97,-3 -2.08,0 -3.69,1.12 -3.69,2.72 0,1.17 0.63,2.06 2.77,2.34 l 2.72,0.37 c 2.69,0.37 3.95,2.17 3.95,3.89 0,2.92 -2.63,4.43 -5.61,4.43 -3.4,0 -5.75,-1.8 -5.89,-4.75 z"
         id="path61" />
    </g>
  </g>
  <path
     id="path324"
     d="M 61.799999,140.39999 H 79.800003"
     style="fill:none;stroke:#000000;stroke-width:1;stroke-linecap:butt;stroke-linejoin:miter;stroke-miterlimit:10;stroke-dasharray:none;stroke-opacity:1"
     transform="matrix(1.3320001,0,0,1.3320001,-12.347722,-17.439416)"
     clip-path="url(#clipPath325)" />
  <text
     id="text325"
     xml:space="preserve"
     transform="translate(34.961178,175.56728)"
     clip-path="url(#clipPath326)"><tspan
       style="font-variant:normal;font-weight:normal;font-size:15.98px;font-family:'Times New Roman';writing-mode:lr-tb;fill:#000000;fill-opacity:1;fill-rule:nonzero;stroke:none"
       x="0 7.984375 15.96875"
       y="0"
       sodipodi:role="line"
       id="tspan325">170</tspan></text>
  <path
     id="path327"
     d="m 61.799999,132.10001 h 9.000004 M 61.799999,123.9 h 9.000004 m -9.000004,-8.3 h 9.000004 m -9.000004,-8.2 h 9.000004 m -9.000004,-8.300002 h 18.000004"
     style="fill:none;stroke:#000000;stroke-width:1;stroke-linecap:butt;stroke-linejoin:miter;stroke-miterlimit:10;stroke-dasharray:none;stroke-opacity:1"
     transform="matrix(1.3320001,0,0,1.3320001,-12.347722,-17.439416)"
     clip-path="url(#clipPath328)" />
  <text
     id="text328"
     xml:space="preserve"
     transform="translate(34.961178,120.55578)"
     clip-path="url(#clipPath329)"><tspan
       style="font-variant:normal;font-weight:normal;font-size:15.98px;font-family:'Times New Roman';writing-mode:lr-tb;fill:#000000;fill-opacity:1;fill-rule:nonzero;stroke:none"
       x="0 7.984375 15.96875"
       y="0"
       sodipodi:role="line"
       id="tspan328">172</tspan></text>
  <path
     id="path330"
     d="m 61.799999,90.900002 h 9.000004 m -9.000004,-8.200005 h 9.000004 m -9.000004,-8.299995 h 9.000004 m -9.000004,-8.200005 h 9.000004 m -9.000004,-8.299995 h 18.000004"
     style="fill:none;stroke:#000000;stroke-width:1;stroke-linecap:butt;stroke-linejoin:miter;stroke-miterlimit:10;stroke-dasharray:none;stroke-opacity:1"
     transform="matrix(1.3320001,0,0,1.3320001,-12.347722,-17.439416)"
     clip-path="url(#clipPath331)" />
  <text
     id="text331"
     xml:space="preserve"
     transform="translate(34.961178,65.677384)"
     clip-path="url(#clipPath332)"><tspan
       style="font-variant:normal;font-weight:normal;font-size:15.98px;font-family:'Times New Roman';writing-mode:lr-tb;fill:#000000;fill-opacity:1;fill-rule:nonzero;stroke:none"
       x="0 7.984375 15.96875"
       y="0"
       sodipodi:role="line"
       id="tspan331">174</tspan></text>
  <path
     id="path333"
     d="m 61.799999,49.700001 h 9.000004 m -9.000004,-8.299999 h 9.000004 m -9.000004,-8.200001 h 9.000004 M 61.799999,24.9 h 9.000004 m -9.000004,-8.199999 h 18.000004"
     style="fill:none;stroke:#000000;stroke-width:1;stroke-linecap:butt;stroke-linejoin:miter;stroke-miterlimit:10;stroke-dasharray:none;stroke-opacity:1"
     transform="matrix(1.3320001,0,0,1.3320001,-12.347722,-17.439416)"
     clip-path="url(#clipPath334)" />
  <text
     id="text334"
     xml:space="preserve"
     transform="translate(34.961178,10.798984)"
     clip-path="url(#clipPath335)"><tspan
       style="font-variant:normal;font-weight:normal;font-size:15.98px;font-family:'Times New Roman';writing-mode:lr-tb;fill:#000000;fill-opacity:1;fill-rule:nonzero;stroke:none"
       x="0 7.984375 15.96875"
       y="0"
       sodipodi:role="line"
       id="tspan334">176</tspan></text>
  <path
     id="path336"
     d="m 61.799999,202.2 v -18 m 0,-167.499999 v 18"
     style="fill:none;stroke:#000000;stroke-width:1;stroke-linecap:butt;stroke-linejoin:miter;stroke-miterlimit:10;stroke-dasharray:none;stroke-opacity:1"
     transform="matrix(1.3320001,0,0,1.3320001,-12.347722,-17.439416)"
     clip-path="url(#clipPath337)" />
  <text
     id="text337"
     xml:space="preserve"
     transform="translate(65.985581,279.19698)"
     clip-path="url(#clipPath338)"><tspan
       style="font-variant:normal;font-weight:normal;font-size:15.98px;font-family:'Times New Roman';writing-mode:lr-tb;fill:#000000;fill-opacity:1;fill-rule:nonzero;stroke:none"
       x="0"
       y="0"
       id="tspan337">0</tspan></text>
  <path
     id="path339"
     d="m 72.5,202.2 v -9 m 0,-176.499999 v 9 M 83.300003,202.2 v -9 m 0,-176.499999 v 9 M 94,202.2 v -9 M 94,16.700001 v 9 M 104.7,202.2 v -9 m 0,-176.499999 v 9 M 115.5,202.2 v -18 m 0,-167.499999 v 18"
     style="fill:none;stroke:#000000;stroke-width:1;stroke-linecap:butt;stroke-linejoin:miter;stroke-miterlimit:10;stroke-dasharray:none;stroke-opacity:1"
     transform="matrix(1.3320001,0,0,1.3320001,-12.347722,-17.439416)"
     clip-path="url(#clipPath340)" />
  <text
     id="text340"
     xml:space="preserve"
     transform="translate(133.51388,279.19698)"
     clip-path="url(#clipPath341)"><tspan
       style="font-variant:normal;font-weight:normal;font-size:15.98px;font-family:'Times New Roman';writing-mode:lr-tb;fill:#000000;fill-opacity:1;fill-rule:nonzero;stroke:none"
       x="0 7.984375"
       y="0"
       sodipodi:role="line"
       id="tspan340">50</tspan></text>
  <path
     id="path342"
     d="m 126.2,202.2 v -9 m 0,-176.499999 v 9 M 137,202.2 v -9 m 0,-176.499999 v 9 M 147.7,202.2 v -9 m 0,-176.499999 v 9 M 158.39999,202.2 v -9 m 0,-176.499999 v 9 M 169.2,202.2 v -18 m 0,-167.499999 v 18"
     style="fill:none;stroke:#000000;stroke-width:1;stroke-linecap:butt;stroke-linejoin:miter;stroke-miterlimit:10;stroke-dasharray:none;stroke-opacity:1"
     transform="matrix(1.3320001,0,0,1.3320001,-12.347722,-17.439416)"
     clip-path="url(#clipPath343)" />
  <text
     id="text343"
     xml:space="preserve"
     transform="translate(201.05798,279.19698)"
     clip-path="url(#clipPath344)"><tspan
       style="font-variant:normal;font-weight:normal;font-size:15.98px;font-family:'Times New Roman';writing-mode:lr-tb;fill:#000000;fill-opacity:1;fill-rule:nonzero;stroke:none"
       x="0 7.984375 15.96875"
       y="0"
       sodipodi:role="line"
       id="tspan343">100</tspan></text>
  <path
     id="path345"
     d="m 179.89999,202.2 v -9 m 0,-176.499999 v 9 M 190.60001,202.2 v -9 m 0,-176.499999 v 9 M 201.39999,202.2 v -9 m 0,-176.499999 v 9 M 212.10001,202.2 v -9 m 0,-176.499999 v 9 M 222.89999,202.2 v -18 m 0,-167.499999 v 18"
     style="fill:none;stroke:#000000;stroke-width:1;stroke-linecap:butt;stroke-linejoin:miter;stroke-miterlimit:10;stroke-dasharray:none;stroke-opacity:1"
     transform="matrix(1.3320001,0,0,1.3320001,-12.347722,-17.439416)"
     clip-path="url(#clipPath346)" />
  <text
     id="text346"
     xml:space="preserve"
     transform="translate(272.58638,279.19698)"
     clip-path="url(#clipPath347)"><tspan
       style="font-variant:normal;font-weight:normal;font-size:15.98px;font-family:'Times New Roman';writing-mode:lr-tb;fill:#000000;fill-opacity:1;fill-rule:nonzero;stroke:none"
       x="0 7.984375 15.96875"
       y="0"
       sodipodi:role="line"
       id="tspan346">150</tspan></text>
  <path
     id="path348"
     d="m 233.60001,202.2 v -9 m 0,-176.499999 v 9 M 244.3,202.2 v -9 m 0,-176.499999 v 9 M 255.10001,202.2 v -9 m 0,-176.499999 v 9 M 265.79999,202.2 v -9 m 0,-176.499999 v 9 M 276.5,202.2 v -18 m 0,-167.499999 v 18"
     style="fill:none;stroke:#000000;stroke-width:1;stroke-linecap:butt;stroke-linejoin:miter;stroke-miterlimit:10;stroke-dasharray:none;stroke-opacity:1"
     transform="matrix(1.3320001,0,0,1.3320001,-12.347722,-17.439416)"
     clip-path="url(#clipPath349)" />
  <text
     id="text349"
     xml:space="preserve"
     transform="translate(343.98158,279.19698)"
     clip-path="url(#clipPath350)"><tspan
       style="font-variant:normal;font-weight:normal;font-size:15.98px;font-family:'Times New Roman';writing-mode:lr-tb;fill:#000000;fill-opacity:1;fill-rule:nonzero;stroke:none"
       x="0 7.984375 15.96875"
       y="0"
       sodipodi:role="line"
       id="tspan349">200</tspan></text>
  <path
     id="path351"
     d="m 287.29999,202.2 v -9 m 0,-176.499999 v 9 M 298,202.2 v -9 m 0,-176.499999 v 9 M 308.70001,202.2 v -9 m 0,-176.499999 v 9 M 319.5,202.2 v -9 m 0,-176.499999 v 9 M 330.20001,202.2 v -18 m 0,-167.499999 v 18"
     style="fill:none;stroke:#000000;stroke-width:1;stroke-linecap:butt;stroke-linejoin:miter;stroke-miterlimit:10;stroke-dasharray:none;stroke-opacity:1"
     transform="matrix(1.3320001,0,0,1.3320001,-12.347722,-17.439416)"
     clip-path="url(#clipPath352)" />
  <text
     id="text352"
     xml:space="preserve"
     transform="translate(415.50998,279.19698)"
     clip-path="url(#clipPath353)"><tspan
       style="font-variant:normal;font-weight:normal;font-size:15.98px;font-family:'Times New Roman';writing-mode:lr-tb;fill:#000000;fill-opacity:1;fill-rule:nonzero;stroke:none"
       x="0 7.984375 15.96875"
       y="0"
       sodipodi:role="line"
       id="tspan352">250</tspan></text>
  <path
     id="path354"
     d="m 341,202.2 v -9 m 0,-176.499999 v 9 M 351.70001,202.2 v -9 m 0,-176.499999 v 9 M 362.39999,202.2 v -9 m 0,-176.499999 v 9 M 373.20001,202.2 v -9 m 0,-176.499999 v 9 M 383.89999,202.2 v -18 m 0,-167.499999 v 18"
     style="fill:none;stroke:#000000;stroke-width:1;stroke-linecap:butt;stroke-linejoin:miter;stroke-miterlimit:10;stroke-dasharray:none;stroke-opacity:1"
     transform="matrix(1.3320001,0,0,1.3320001,-12.347722,-17.439416)"
     clip-path="url(#clipPath355)" />
  <text
     id="text355"
     xml:space="preserve"
     transform="translate(487.03838,279.19698)"
     clip-path="url(#clipPath356)"><tspan
       style="font-variant:normal;font-weight:normal;font-size:15.98px;font-family:'Times New Roman';writing-mode:lr-tb;fill:#000000;fill-opacity:1;fill-rule:nonzero;stroke:none"
       x="0 7.984375 15.96875"
       y="0"
       sodipodi:role="line"
       id="tspan355">300</tspan></text>
  <path
     id="path357"
     d="m 383.89999,187.39999 h -18"
     style="fill:none;stroke:#000000;stroke-width:1;stroke-linecap:butt;stroke-linejoin:miter;stroke-miterlimit:10;stroke-dasharray:none;stroke-opacity:1"
     transform="matrix(1.3320001,0,0,1.3320001,-12.347722,-17.439416)"
     clip-path="url(#clipPath358)" />
  <text
     id="text358"
     xml:space="preserve"
     transform="translate(510.06268,238.17138)"
     clip-path="url(#clipPath359)"><tspan
       style="font-variant:normal;font-weight:normal;font-size:15.98px;font-family:'Times New Roman';writing-mode:lr-tb;fill:#000000;fill-opacity:1;fill-rule:nonzero;stroke:none"
       x="0"
       y="0"
       id="tspan358">0</tspan></text>
  <path
     id="path360"
     d="m 383.89999,179.89999 h -9 m 9,-7.39999 h -9 m 9,-7.39999 h -9 m 9,-7.40001 h -9 m 9,-7.4 h -18"
     style="fill:none;stroke:#000000;stroke-width:1;stroke-linecap:butt;stroke-linejoin:miter;stroke-miterlimit:10;stroke-dasharray:none;stroke-opacity:1"
     transform="matrix(1.3320001,0,0,1.3320001,-12.347722,-17.439416)"
     clip-path="url(#clipPath361)" />
  <text
     id="text361"
     xml:space="preserve"
     transform="translate(510.06268,188.75418)"
     clip-path="url(#clipPath362)"><tspan
       style="font-variant:normal;font-weight:normal;font-size:15.98px;font-family:'Times New Roman';writing-mode:lr-tb;fill:#000000;fill-opacity:1;fill-rule:nonzero;stroke:none"
       x="0"
       y="0"
       id="tspan361">5</tspan></text>
  <path
     id="path363"
     d="M 61.799999,16.700001 V 202.2 H 383.89999 V 16.700001 Z"
     style="fill:none;stroke:#000000;stroke-width:1;stroke-linecap:butt;stroke-linejoin:miter;stroke-miterlimit:10;stroke-dasharray:none;stroke-opacity:1"
     transform="matrix(1.3320001,0,0,1.3320001,-12.347722,-17.439416)"
     clip-path="url(#clipPath364)" />
  <text
     id="text364"
     xml:space="preserve"
     transform="rotate(-90,77.206856,66.111368)"
     clip-path="url(#clipPath365)"><tspan
       style="font-variant:normal;font-weight:normal;font-size:15.98px;font-family:'Times New Roman';writing-mode:lr-tb;fill:#000000;fill-opacity:1;fill-rule:nonzero;stroke:none"
       x="0 8.6385651 15.726257 28.147263 36.131638 43.21933 48.537048 55.624741 60.061371 68.045746 73.363464 80.451157 84.443344 89.761063 96.147003 106.79803"
       y="0"
       sodipodi:role="line"
       id="tspan364">Temperature (°C)</tspan></text>
  <text
     id="text365"
     xml:space="preserve"
     transform="rotate(-90,394.74105,-152.88413)"
     clip-path="url(#clipPath366)"><tspan
       style="font-variant:normal;font-weight:normal;font-size:15.98px;font-family:'Times New Roman';writing-mode:lr-tb;fill:#000000;fill-opacity:1;fill-rule:nonzero;stroke:none"
       x="0 8.8810577 16.865433 28.397552 35.485245 40.802963 44.795151 50.112869 58.097244 73.169312"
       y="0"
       sodipodi:role="line"
       id="tspan365">Power (kW)</tspan></text>
  <text
     id="text366"
     xml:space="preserve"
     transform="translate(257.43758,304.77128)"
     clip-path="url(#clipPath367)"><tspan
       style="font-variant:normal;font-weight:normal;font-size:15.98px;font-family:'Times New Roman';writing-mode:lr-tb;fill:#000000;fill-opacity:1;fill-rule:nonzero;stroke:none"
       x="0 9.1925507 13.629181 26.050186 33.137878 37.130066 42.447784 48.662186"
       y="0"
       sodipodi:role="line"
       id="tspan366">Time (s)</tspan></text>
  <path
     id="path368"
     d="M 61.799999,140.39999 H 63.099998 64.5 65.800003 67.199997 68.5 69.900002 71.199997 72.5 h 1.400002 1.299995 1.400001 1.300004 1.299995 1.400001 1.300004 1.400001 1.299995 H 86 87.300003 88.599998 90 91.300003 92.699997 94 95.400002 96.699997 98 99.400002 100.7 h 1.4 1.3 1.3 1.4 1.3 1.4 1.3 1.4 1.3 1.3 l 1.4,-103.099991 h 1.3 1.4 1.3 1.4 1.3 1.3 1.4 1.3 1.4 1.29999 1.30001 1.40001 1.29998 1.40001 1.30001 1.39999 1.3 1.30001 1.39999 1.3 1.4 1.3 1.39999 1.30001 1.3 1.39999 1.30001 1.40001 1.29998 1.30001 1.40001 1.29998 1.40001 1.30001 1.39999 1.3 1.30001 1.39999 1.3 1.4 1.3 1.39999 1.30001 1.3 1.39999 1.30001 1.40001 1.29998 1.30001 1.40001 1.29998 1.40001 1.30001 1.39999 1.3 1.30001 1.39999 1.3 1.4 1.3 1.39999 1.30001 1.3 1.39999 1.30001 1.40001 1.29998 1.30001 1.40001 1.29998 1.40001 1.30001 1.39999 1.3 1.30001 1.39999 1.3 1.4 1.3 1.39999 1.30001 1.3 1.39999 1.30001 1.40001 1.29998 1.30001 1.40001 1.29998 1.40001 1.30001 1.39999 1.3 1.30001 1.39999 1.3 1.4 1.3 1.3 1.4 1.3 1.39999 1.30001 1.40001 1.29998 1.30002 1.4 1.29998 1.4 1.30002 1.39999 1.29999 1.30002 1.39999 1.29999 1.40002 1.29999 1.29999 1.40002 1.29999 1.39999 1.30002 1.4 1.29998 1.30002 1.4 1.29998 1.4 1.30002 1.39999 1.29999 1.30002 1.39999 1.29999 1.40002 1.29999 1.29999 1.40002 1.29999 1.39999 1.30002 1.4 1.29998 1.30002 1.4 1.29998 1.4 1.30002 1.39999 1.29999 1.30002 1.39999 1.29999 1.40002 1.29999 1.29999 1.40002 1.29999 1.39999 1.30002 1.4 1.29998 1.30002 1.4 1.29998 1.4 1.30002 1.39999 1.29999 1.30002 1.39999 1.29999 1.40002 1.29999 1.29999 1.40002 1.29999 1.39999 1.30002 1.4 1.29998 1.30002 1.4 1.29998 1.4 1.30002 1.39999 1.29999 1.30002 1.39999 1.29999 1.40002 1.29999 1.29999 1.40002 1.29999 1.39999 1.30002 1.4 1.29998"
     style="fill:none;stroke:#ff0000;stroke-width:1;stroke-linecap:butt;stroke-linejoin:miter;stroke-miterlimit:10;stroke-dasharray:none;stroke-opacity:1"
     transform="matrix(1.3320001,0,0,1.3320001,-12.347722,-17.439416)"
     clip-path="url(#clipPath369)" />
  <path
     id="path370"
     d="M 61.799999,180.2 H 63.099998 64.5 65.800003 67.199997 68.5 69.900002 71.199997 72.5 h 1.400002 1.299995 1.400001 1.300004 1.299995 1.400001 1.300004 1.400001 1.299995 H 86 87.300003 88.599998 90 91.300003 92.699997 94 95.400002 96.699997 98 99.400002 100.7 h 1.4 1.3 1.3 1.4 1.3 1.4 1.3 1.4 1.3 1.3 1.4 l 1.3,-22.5 h 1.4 1.3 1.4 1.3 1.3 1.4 1.3 1.4 1.29999 1.30001 1.40001 1.29998 1.40001 1.30001 1.39999 1.3 1.30001 1.39999 1.3 l 1.4,1.6 1.3,3.80001 1.39999,3.39999 1.30001,3 1.3,2.60001 1.39999,2.19999 1.30001,1.80001 1.40001,1.59999 1.29998,1.3 1.30001,1.2 1.40001,0.90001 1.29998,0.69999 1.40001,0.7 1.30001,0.5 1.39999,0.3 1.3,0.30001 1.30001,0.19999 1.39999,0.2 1.3,0.10001 h 1.4 1.3 1.39999 L 173.2,184 h 1.3 l 1.39999,-0.10001 L 177.2,183.7 l 1.40001,-0.1 1.29998,-0.10001 1.30001,-0.2 1.40001,-0.1 1.29998,-0.1 1.40001,-0.20002 1.30001,-0.1 L 188,182.60001 189.3,182.5 190.60001,182.39999 192,182.2 l 1.3,-0.1 1.4,-0.10001 1.3,-0.10001 1.39999,-0.19999 1.30001,-0.1 1.3,-0.10001 1.39999,-0.10001 1.30001,-0.1 1.40001,-0.1 h 1.29998 l 1.30001,-0.1 1.40001,-0.10001 1.29998,-0.10001 H 210.8 l 1.30001,-0.1 1.39999,-0.1 h 1.3 l 1.30001,-0.1 H 217.5 l 1.3,-0.10001 h 1.4 1.3 l 1.39999,-0.10001 h 1.30001 1.3 l 1.39999,-0.1 h 1.30001 1.40001 l 1.29998,-0.1 h 1.30001 1.40001 1.29998 1.40001 l 1.30001,-0.1 H 239 h 1.3 1.30001 1.39999 1.3 1.4 1.3 l 1.3,-0.10001 h 1.4 1.3 1.39999 1.30001 1.40001 1.29998 1.30002 1.4 1.29998 1.4 1.30002 1.39999 1.29999 1.30002 1.39999 1.29999 1.40002 1.29999 1.29999 1.40002 1.29999 1.39999 1.30002 1.4 1.29998 1.30002 1.4 1.29998 l 1.4,-0.10001 h 1.30002 1.39999 1.29999 1.30002 1.39999 1.29999 1.40002 1.29999 1.29999 1.40002 1.29999 1.39999 1.30002 1.4 1.29998 1.30002 1.4 1.29998 1.4 1.30002 1.39999 1.29999 1.30002 1.39999 1.29999 1.40002 1.29999 1.29999 1.40002 1.29999 1.39999 1.30002 1.4 1.29998 1.30002 1.4 1.29998 1.4 1.30002 1.39999 1.29999 1.30002 1.39999 1.29999 1.40002 1.29999 1.29999 1.40002 1.29999 1.39999 1.30002 1.4 1.29998 1.30002 1.4 1.29998 1.4 1.30002 1.39999 1.29999 1.30002 1.39999 1.29999 1.40002 1.29999 1.29999 1.40002 1.29999 1.39999 1.30002 1.4 1.29998"
     style="fill:none;stroke:#0000ff;stroke-width:1;stroke-linecap:butt;stroke-linejoin:miter;stroke-miterlimit:10;stroke-dasharray:none;stroke-opacity:1"
     transform="matrix(1.3320001,0,0,1.3320001,-12.347722,-17.439416)"
     clip-path="url(#clipPath371)" />
  <path
     id="path372"
     d="M 61.799999,140.39999 H 63.099998 64.5 65.800003 67.199997 68.5 69.900002 71.199997 72.5 h 1.400002 1.299995 1.400001 1.300004 1.299995 1.400001 1.300004 1.400001 1.299995 H 86 87.300003 88.599998 90 91.300003 92.699997 94 95.400002 96.699997 98 99.400002 100.7 h 1.4 1.3 1.3 1.4 1.3 1.4 1.3 1.4 1.3 1.3 1.4 1.3 l 1.4,-0.19999 1.3,-0.5 1.4,-0.59999 1.3,-0.60001 1.3,-1 1.4,-1 1.3,-1.3 1.4,-1.2 1.29999,-1.7 1.30001,-1.6 1.40001,-1.7 1.29998,-2 1.40001,-2.1 1.30001,-2.1 1.39999,-2.2 1.3,-2.5 1.30001,-2.5 L 141,113 l 1.3,-2.7 1.4,-2.9 1.3,-2.9 1.39999,-2.9 L 147.7,98.699997 149,95.599998 150.39999,92.800003 151.7,89.900002 153.10001,87 l 1.29998,-2.699997 1.30001,-2.700005 1.40001,-2.400001 1.29998,-2.5 L 159.8,74.400002 161.10001,72.099998 162.5,69.900002 163.8,67.800003 165.10001,66 166.5,64.099998 167.8,62.299999 169.2,60.599998 170.5,59 l 1.39999,-1.5 1.30001,-1.400002 1.3,-1.299999 1.39999,-1.200001 1.30001,-1.199996 1.40001,-1.100003 1.29998,-1 L 181.2,49.5 l 1.40001,-1.099998 1.29998,-0.800004 1.40001,-0.799999 1.30001,-0.599998 1.39999,-0.600003 1.3,-0.899997 1.30001,-0.400002 1.39999,-0.599998 1.3,-0.600003 1.4,-0.399997 1.3,-0.400002 1.39999,-0.5 L 198.7,41.400002 200,41 201.39999,40.799999 202.7,40.400002 204.10001,40.200001 205.39999,40 206.7,39.799999 l 1.40001,-0.399997 1.29998,-0.200001 H 210.8 L 212.10001,39 213.5,38.799999 214.8,38.5 216.10001,38.299999 H 217.5 l 1.3,-0.200001 h 1.4 l 1.3,-0.199996 h 1.39999 L 224.2,37.700001 h 1.3 1.39999 L 228.2,37.5 h 1.40001 1.29998 L 232.2,37.299999 h 1.40001 1.29998 1.40001 1.30001 L 239,37.099998 h 1.3 1.30001 1.39999 1.3 1.4 1.3 1.3 1.4 l 1.3,-0.199996 h 1.39999 1.30001 1.40001 1.29998 1.30002 1.4 1.29998 1.4 1.30002 1.39999 1.29999 1.30002 1.39999 1.29999 1.40002 1.29999 1.29999 1.40002 1.29999 1.39999 1.30002 1.4 1.29998 1.30002 1.4 1.29998 1.4 1.30002 1.39999 1.29999 1.30002 1.39999 1.29999 1.40002 1.29999 1.29999 1.40002 1.29999 1.39999 1.30002 1.4 1.29998 1.30002 1.4 1.29998 1.4 1.30002 1.39999 1.29999 1.30002 1.39999 1.29999 1.40002 1.29999 1.29999 1.40002 1.29999 1.39999 1.30002 1.4 1.29998 1.30002 1.4 1.29998 1.4 1.30002 1.39999 1.29999 1.30002 1.39999 1.29999 1.40002 1.29999 1.29999 1.40002 1.29999 1.39999 1.30002 1.4 1.29998 1.30002 1.4 1.29998 1.4 1.30002 1.39999 1.29999 1.30002 1.39999 1.29999 1.40002 1.29999 1.29999 1.40002 1.29999 1.39999 1.30002 1.4 1.29998"
     style="fill:none;stroke:#00ff00;stroke-width:1;stroke-linecap:butt;stroke-linejoin:miter;stroke-miterlimit:10;stroke-dasharray:none;stroke-opacity:1"
     transform="matrix(1.3320001,0,0,1.3320001,-12.347722,-17.439416)"
     clip-path="url(#clipPath373)" />
  <path
     id="path374"
     d="M 61.799999,16.700001 V 202.2 H 383.89999 V 16.700001 Z"
     style="fill:none;stroke:#000000;stroke-width:1;stroke-linecap:butt;stroke-linejoin:miter;stroke-miterlimit:10;stroke-dasharray:none;stroke-opacity:1"
     transform="matrix(1.3320001,0,0,1.3320001,-12.347722,-17.439416)"
     clip-path="url(#clipPath375)" />
</svg>
