<?xml version="1.0" encoding="UTF-8" standalone="no"?>
<svg
   id="Ebene_1"
   data-name="Ebene 1"
   viewBox="0 0 551.04267 308.18891"
   version="1.1"
   sodipodi:docname="pid_control_on_off.svg"
   width="551.04266"
   height="308.1889"
   xml:space="preserve"
   inkscape:version="1.3.2 (1:1.3.2+202311252150+091e20ef0f)"
   xmlns:inkscape="http://www.inkscape.org/namespaces/inkscape"
   xmlns:sodipodi="http://sodipodi.sourceforge.net/DTD/sodipodi-0.dtd"
   xmlns="http://www.w3.org/2000/svg"
   xmlns:svg="http://www.w3.org/2000/svg"><defs
     id="defs109"><clipPath
       clipPathUnits="userSpaceOnUse"
       id="clipPath33-3"><path
         d="M 338.54169,1501.0418 H 2213.5417 V 2541.667 H 338.54169 Z"
         transform="matrix(0.24024021,0,0,0.24024021,-81.556555,-360.61059)"
         clip-rule="evenodd"
         id="path33-6" /></clipPath><clipPath
       clipPathUnits="userSpaceOnUse"
       id="clipPath34-7"><path
         d="M 338.54169,1501.0418 H 2213.5417 V 2541.667 H 338.54169 Z"
         transform="matrix(0.31999999,0,0,0.31999999,-155.94222,-690.12333)"
         clip-rule="evenodd"
         id="path34-5" /></clipPath><clipPath
       clipPathUnits="userSpaceOnUse"
       id="clipPath36-3"><path
         d="M 338.54169,1501.0418 H 2213.5417 V 2541.667 H 338.54169 Z"
         transform="matrix(0.24024021,0,0,0.24024021,-81.556555,-360.61059)"
         clip-rule="evenodd"
         id="path36-5" /></clipPath><clipPath
       clipPathUnits="userSpaceOnUse"
       id="clipPath37-6"><path
         d="M 338.54169,1501.0418 H 2213.5417 V 2541.667 H 338.54169 Z"
         transform="matrix(0.31999999,0,0,0.31999999,-155.94222,-653.75975)"
         clip-rule="evenodd"
         id="path37-2" /></clipPath><clipPath
       clipPathUnits="userSpaceOnUse"
       id="clipPath39-9"><path
         d="M 338.54169,1501.0418 H 2213.5417 V 2541.667 H 338.54169 Z"
         transform="matrix(0.24024021,0,0,0.24024021,-81.556555,-360.61059)"
         clip-rule="evenodd"
         id="path39-1" /></clipPath><clipPath
       clipPathUnits="userSpaceOnUse"
       id="clipPath40-2"><path
         d="M 338.54169,1501.0418 H 2213.5417 V 2541.667 H 338.54169 Z"
         transform="matrix(0.31999999,0,0,0.31999999,-155.94222,-617.52935)"
         clip-rule="evenodd"
         id="path40-7" /></clipPath><clipPath
       clipPathUnits="userSpaceOnUse"
       id="clipPath42-0"><path
         d="M 338.54169,1501.0418 H 2213.5417 V 2541.667 H 338.54169 Z"
         transform="matrix(0.24024021,0,0,0.24024021,-81.556555,-360.61059)"
         clip-rule="evenodd"
         id="path42-9" /></clipPath><clipPath
       clipPathUnits="userSpaceOnUse"
       id="clipPath43-3"><path
         d="M 338.54169,1501.0418 H 2213.5417 V 2541.667 H 338.54169 Z"
         transform="matrix(0.31999999,0,0,0.31999999,-155.94222,-581.16577)"
         clip-rule="evenodd"
         id="path43-6" /></clipPath><clipPath
       clipPathUnits="userSpaceOnUse"
       id="clipPath45-0"><path
         d="M 338.54169,1501.0418 H 2213.5417 V 2541.667 H 338.54169 Z"
         transform="matrix(0.24024021,0,0,0.24024021,-81.556555,-360.61059)"
         clip-rule="evenodd"
         id="path45-6" /></clipPath><clipPath
       clipPathUnits="userSpaceOnUse"
       id="clipPath46-2"><path
         d="M 338.54169,1501.0418 H 2213.5417 V 2541.667 H 338.54169 Z"
         transform="matrix(0.31999999,0,0,0.31999999,-155.94222,-544.93534)"
         clip-rule="evenodd"
         id="path46-6" /></clipPath><clipPath
       clipPathUnits="userSpaceOnUse"
       id="clipPath48-1"><path
         d="M 338.54169,1501.0418 H 2213.5417 V 2541.667 H 338.54169 Z"
         transform="matrix(0.24024021,0,0,0.24024021,-81.556555,-360.61059)"
         clip-rule="evenodd"
         id="path48-8" /></clipPath><clipPath
       clipPathUnits="userSpaceOnUse"
       id="clipPath49-7"><path
         d="M 338.54169,1501.0418 H 2213.5417 V 2541.667 H 338.54169 Z"
         transform="matrix(0.31999999,0,0,0.31999999,-155.94222,-508.57174)"
         clip-rule="evenodd"
         id="path49-9" /></clipPath><clipPath
       clipPathUnits="userSpaceOnUse"
       id="clipPath51-2"><path
         d="M 338.54169,1501.0418 H 2213.5417 V 2541.667 H 338.54169 Z"
         transform="matrix(0.24024021,0,0,0.24024021,-81.556555,-360.61059)"
         clip-rule="evenodd"
         id="path51-0" /></clipPath><clipPath
       clipPathUnits="userSpaceOnUse"
       id="clipPath52-2"><path
         d="M 338.54169,1501.0418 H 2213.5417 V 2541.667 H 338.54169 Z"
         transform="matrix(0.31999999,0,0,0.31999999,-186.96655,-779.50061)"
         clip-rule="evenodd"
         id="path52-3" /></clipPath><clipPath
       clipPathUnits="userSpaceOnUse"
       id="clipPath54-7"><path
         d="M 338.54169,1501.0418 H 2213.5417 V 2541.667 H 338.54169 Z"
         transform="matrix(0.24024021,0,0,0.24024021,-81.556555,-360.61059)"
         clip-rule="evenodd"
         id="path54-5" /></clipPath><clipPath
       clipPathUnits="userSpaceOnUse"
       id="clipPath55-9"><path
         d="M 338.54169,1501.0418 H 2213.5417 V 2541.667 H 338.54169 Z"
         transform="matrix(0.31999999,0,0,0.31999999,-322.03897,-779.50061)"
         clip-rule="evenodd"
         id="path55-2" /></clipPath><clipPath
       clipPathUnits="userSpaceOnUse"
       id="clipPath57-2"><path
         d="M 338.54169,1501.0418 H 2213.5417 V 2541.667 H 338.54169 Z"
         transform="matrix(0.24024021,0,0,0.24024021,-81.556555,-360.61059)"
         clip-rule="evenodd"
         id="path57-8" /></clipPath><clipPath
       clipPathUnits="userSpaceOnUse"
       id="clipPath58-9"><path
         d="M 338.54169,1501.0418 H 2213.5417 V 2541.667 H 338.54169 Z"
         transform="matrix(0.31999999,0,0,0.31999999,-460.96256,-779.50061)"
         clip-rule="evenodd"
         id="path58-7" /></clipPath><clipPath
       clipPathUnits="userSpaceOnUse"
       id="clipPath60-3"><path
         d="M 338.54169,1501.0418 H 2213.5417 V 2541.667 H 338.54169 Z"
         transform="matrix(0.24024021,0,0,0.24024021,-81.556555,-360.61059)"
         clip-rule="evenodd"
         id="path60-6" /></clipPath><clipPath
       clipPathUnits="userSpaceOnUse"
       id="clipPath61-1"><path
         d="M 338.54169,1501.0418 H 2213.5417 V 2541.667 H 338.54169 Z"
         transform="matrix(0.31999999,0,0,0.31999999,-604.01935,-779.50061)"
         clip-rule="evenodd"
         id="path61-2" /></clipPath><clipPath
       clipPathUnits="userSpaceOnUse"
       id="clipPath63-9"><path
         d="M 338.54169,1501.0418 H 2213.5417 V 2541.667 H 338.54169 Z"
         transform="matrix(0.24024021,0,0,0.24024021,-81.556555,-360.61059)"
         clip-rule="evenodd"
         id="path63-3" /></clipPath><clipPath
       clipPathUnits="userSpaceOnUse"
       id="clipPath64-1"><path
         d="M 338.54169,1501.0418 H 2213.5417 V 2541.667 H 338.54169 Z"
         transform="matrix(0.31999999,0,0,0.31999999,-631.04372,-742.33779)"
         clip-rule="evenodd"
         id="path64-9" /></clipPath><clipPath
       clipPathUnits="userSpaceOnUse"
       id="clipPath66-4"><path
         d="M 338.54169,1501.0418 H 2213.5417 V 2541.667 H 338.54169 Z"
         transform="matrix(0.24024021,0,0,0.24024021,-81.556555,-360.61059)"
         clip-rule="evenodd"
         id="path66-7" /></clipPath><clipPath
       clipPathUnits="userSpaceOnUse"
       id="clipPath67-8"><path
         d="M 338.54169,1501.0418 H 2213.5417 V 2541.667 H 338.54169 Z"
         transform="matrix(0.31999999,0,0,0.31999999,-631.04372,-691.58858)"
         clip-rule="evenodd"
         id="path67-4" /></clipPath><clipPath
       clipPathUnits="userSpaceOnUse"
       id="clipPath69-5"><path
         d="M 338.54169,1501.0418 H 2213.5417 V 2541.667 H 338.54169 Z"
         transform="matrix(0.24024021,0,0,0.24024021,-81.556555,-360.61059)"
         clip-rule="evenodd"
         id="path69-0" /></clipPath><clipPath
       clipPathUnits="userSpaceOnUse"
       id="clipPath70-3"><path
         d="M 338.54169,1501.0418 H 2213.5417 V 2541.667 H 338.54169 Z"
         transform="matrix(0,0.31999999,-0.31999999,0,649.48263,-132.07655)"
         clip-rule="evenodd"
         id="path70-6" /></clipPath><clipPath
       clipPathUnits="userSpaceOnUse"
       id="clipPath71-1"><path
         d="M 338.54169,1501.0418 H 2213.5417 V 2541.667 H 338.54169 Z"
         transform="matrix(0,0.31999999,-0.31999999,0,745.2241,-668.60614)"
         clip-rule="evenodd"
         id="path71-0" /></clipPath><clipPath
       clipPathUnits="userSpaceOnUse"
       id="clipPath72-6"><path
         d="M 338.54169,1501.0418 H 2213.5417 V 2541.667 H 338.54169 Z"
         transform="matrix(0.31999999,0,0,0.31999999,-378.41858,-802.54409)"
         clip-rule="evenodd"
         id="path72-3" /></clipPath><clipPath
       clipPathUnits="userSpaceOnUse"
       id="clipPath74-2"><path
         d="M 338.54169,1501.0418 H 2213.5417 V 2541.667 H 338.54169 Z"
         transform="matrix(0.24024021,0,0,0.24024021,-81.556555,-360.61059)"
         clip-rule="evenodd"
         id="path74-0" /></clipPath><clipPath
       clipPathUnits="userSpaceOnUse"
       id="clipPath76-6"><path
         d="M 338.54169,1501.0418 H 2213.5417 V 2541.667 H 338.54169 Z"
         transform="matrix(0.24024021,0,0,0.24024021,-81.556555,-360.61059)"
         clip-rule="evenodd"
         id="path76-1" /></clipPath><clipPath
       clipPathUnits="userSpaceOnUse"
       id="clipPath78-5"><path
         d="M 338.54169,1501.0418 H 2213.5417 V 2541.667 H 338.54169 Z"
         transform="matrix(0.24024021,0,0,0.24024021,-81.556555,-360.61059)"
         clip-rule="evenodd"
         id="path78-5" /></clipPath><clipPath
       clipPathUnits="userSpaceOnUse"
       id="clipPath80-4"><path
         d="M 338.54169,1501.0418 H 2213.5417 V 2541.667 H 338.54169 Z"
         transform="matrix(0.24024021,0,0,0.24024021,-81.556555,-360.61059)"
         clip-rule="evenodd"
         id="path80-7" /></clipPath></defs><sodipodi:namedview
     id="namedview109"
     pagecolor="#ffffff"
     bordercolor="#666666"
     borderopacity="1.0"
     inkscape:showpageshadow="2"
     inkscape:pageopacity="0.0"
     inkscape:pagecheckerboard="0"
     inkscape:deskcolor="#d1d1d1"
     inkscape:zoom="0.46581088"
     inkscape:cx="223.26658"
     inkscape:cy="-257.61528"
     inkscape:window-width="1850"
     inkscape:window-height="1016"
     inkscape:window-x="1436"
     inkscape:window-y="27"
     inkscape:window-maximized="1"
     inkscape:current-layer="Ebene_1" /><g
     id="g71"
     transform="matrix(0.38491478,0,0,0.38491478,139.21419,-60.993406)"><path
       id="path227"
       d="m 689.77,466.52 h 43.97"
       fill="none"
       stroke="#006699"
       stroke-linecap="round"
       stroke-linejoin="round"
       stroke-width="4" /><path
       id="path227-2"
       data-name="path227"
       d="m 689.77,506.13 h 43.97"
       fill="none"
       stroke="#ff0000"
       stroke-linecap="round"
       stroke-linejoin="round"
       stroke-width="4" /><g
       id="g51"><path
         d="m 752.67,454.04 h 1.52 v 12.52 l 11.3,-12.52 h 1.83 l -7.89,8.72 8.01,11.55 h -1.74 l -7.26,-10.47 -4.23,4.66 v 5.8 h -1.52 v -20.27 z"
         id="path46" /><path
         d="m 769.38,475.5 h 0.77 l 0.07,1.58 c 0.47,-1.1 1.7,-1.82 2.85,-1.82 0.98,0 1.72,0.32 2.28,0.8 0.97,0.82 1.4,2.1 1.4,3.59 0,1.49 -0.42,2.7 -1.32,3.54 -0.57,0.53 -1.35,0.88 -2.35,0.88 -1.22,0 -2.4,-0.68 -2.87,-1.75 v 4.84 h -0.83 z m 5.57,7 c 0.67,-0.72 0.95,-1.77 0.95,-2.83 0,-1.18 -0.33,-2.3 -1.13,-2.99 -0.42,-0.37 -0.98,-0.6 -1.72,-0.6 -0.74,0 -1.32,0.28 -1.75,0.68 -0.77,0.73 -1.1,1.75 -1.1,2.9 0,1.23 0.3,2.2 1.08,2.92 0.43,0.4 1.02,0.67 1.8,0.67 0.78,0 1.43,-0.28 1.87,-0.75 z"
         id="path47" /><path
         d="m 799.45,462.33 v 1.26 H 786.7 v -1.26 z m 0,6.03 v 1.26 H 786.7 v -1.26 z"
         id="path48" /><path
         d="m 809.21,459.96 v -1.6 l 5.43,-3.86 h 1.29 v 19.82 h -1.43 v -18.04 l -5.29,3.69 z"
         id="path49" /><path
         d="m 823.85,471.74 v 2.57 h -2.52 v -2.57 z"
         id="path50" /><path
         d="m 829.66,473.09 c -2.14,-1.97 -2.46,-5.55 -2.46,-8.69 0,-3.14 0.31,-6.69 2.46,-8.66 0.97,-0.89 2.32,-1.63 4.23,-1.63 1.91,0 3.29,0.71 4.23,1.63 2.12,2.03 2.46,5.55 2.46,8.66 0,3.11 -0.31,6.72 -2.46,8.69 -0.94,0.89 -2.32,1.63 -4.23,1.63 -1.91,0 -3.26,-0.74 -4.23,-1.63 z m 7.52,-0.92 c 1.86,-1.74 1.97,-5.18 1.97,-7.78 0,-2.6 -0.09,-6 -1.97,-7.75 -0.77,-0.71 -1.8,-1.17 -3.29,-1.17 -1.49,0 -2.52,0.49 -3.26,1.17 -1.89,1.74 -1.97,5.18 -1.97,7.75 0,2.57 0.09,6.03 1.97,7.78 0.74,0.69 1.8,1.17 3.26,1.17 1.46,0 2.54,-0.46 3.29,-1.17 z"
         id="path51" /></g><g
       id="g57"><path
         d="m 752.67,493.64 h 1.52 v 12.52 l 11.3,-12.52 h 1.83 l -7.89,8.72 8.01,11.55 h -1.74 l -7.26,-10.47 -4.23,4.66 v 5.8 h -1.52 v -20.27 z"
         id="path52" /><path
         d="m 769.38,515.1 h 0.77 l 0.07,1.58 c 0.47,-1.1 1.7,-1.82 2.85,-1.82 0.98,0 1.72,0.32 2.28,0.8 0.97,0.82 1.4,2.1 1.4,3.59 0,1.49 -0.42,2.7 -1.32,3.54 -0.57,0.53 -1.35,0.88 -2.35,0.88 -1.22,0 -2.4,-0.68 -2.87,-1.75 v 4.84 h -0.83 z m 5.57,7 c 0.67,-0.72 0.95,-1.77 0.95,-2.83 0,-1.18 -0.33,-2.3 -1.13,-2.99 -0.42,-0.37 -0.98,-0.6 -1.72,-0.6 -0.74,0 -1.32,0.28 -1.75,0.68 -0.77,0.73 -1.1,1.75 -1.1,2.9 0,1.23 0.3,2.2 1.08,2.92 0.43,0.4 1.02,0.67 1.8,0.67 0.78,0 1.43,-0.28 1.87,-0.75 z"
         id="path53" /><path
         d="m 799.45,501.93 v 1.26 H 786.7 v -1.26 z m 0,6.03 v 1.26 H 786.7 v -1.26 z"
         id="path54" /><path
         d="m 809.98,508.17 h 1.43 c 0.14,2.8 2.09,4.78 5.09,4.78 3.17,0 4.98,-2.23 4.98,-5.23 0,-3 -1.57,-5.29 -4.75,-5.29 -1.77,0 -3.52,0.69 -4.46,2.17 h -1.69 l 0.8,-10.49 h 10.84 v 1.34 h -9.61 l -0.66,7.72 c 1.09,-1.4 3,-2.09 4.78,-2.09 4.09,0 6.18,2.86 6.18,6.63 0,3.77 -2.26,6.61 -6.41,6.61 -4.15,0 -6.43,-2.66 -6.52,-6.15 z"
         id="path55" /><path
         d="m 829.48,511.34 v 2.57 h -2.52 v -2.57 z"
         id="path56" /><path
         d="m 835.29,512.69 c -2.14,-1.97 -2.46,-5.55 -2.46,-8.69 0,-3.14 0.31,-6.69 2.46,-8.66 0.97,-0.89 2.32,-1.63 4.23,-1.63 1.91,0 3.29,0.71 4.23,1.63 2.12,2.03 2.46,5.55 2.46,8.66 0,3.11 -0.31,6.72 -2.46,8.69 -0.94,0.89 -2.32,1.63 -4.23,1.63 -1.91,0 -3.26,-0.74 -4.23,-1.63 z m 7.52,-0.92 c 1.86,-1.74 1.97,-5.18 1.97,-7.78 0,-2.6 -0.09,-6 -1.97,-7.75 -0.77,-0.71 -1.8,-1.17 -3.29,-1.17 -1.49,0 -2.52,0.49 -3.26,1.17 -1.89,1.74 -1.97,5.18 -1.97,7.75 0,2.57 0.09,6.03 1.97,7.78 0.74,0.69 1.8,1.17 3.26,1.17 1.46,0 2.54,-0.46 3.29,-1.17 z"
         id="path57" /></g><path
       id="path227-3"
       data-name="path227"
       d="m 689.77,545.73 h 43.97"
       fill="none"
       stroke="#66cc33"
       stroke-linecap="round"
       stroke-linejoin="round"
       stroke-width="4" /><g
       id="g64"><path
         d="m 752.67,533.24 h 1.52 v 12.52 l 11.3,-12.52 h 1.83 l -7.89,8.72 8.01,11.55 h -1.74 l -7.26,-10.47 -4.23,4.66 v 5.8 h -1.52 v -20.27 z"
         id="path58" /><path
         d="m 769.38,554.7 h 0.77 l 0.07,1.58 c 0.47,-1.1 1.7,-1.82 2.85,-1.82 0.98,0 1.72,0.32 2.28,0.8 0.97,0.82 1.4,2.1 1.4,3.59 0,1.49 -0.42,2.7 -1.32,3.54 -0.57,0.53 -1.35,0.88 -2.35,0.88 -1.22,0 -2.4,-0.68 -2.87,-1.75 v 4.84 h -0.83 z m 5.57,7 c 0.67,-0.72 0.95,-1.77 0.95,-2.84 0,-1.18 -0.33,-2.3 -1.13,-2.98 -0.42,-0.37 -0.98,-0.6 -1.72,-0.6 -0.74,0 -1.32,0.28 -1.75,0.68 -0.77,0.73 -1.1,1.75 -1.1,2.9 0,1.23 0.3,2.2 1.08,2.92 0.43,0.4 1.02,0.67 1.8,0.67 0.78,0 1.43,-0.28 1.87,-0.75 z"
         id="path59" /><path
         d="m 799.45,541.54 v 1.26 H 786.7 v -1.26 z m 0,6.03 v 1.26 H 786.7 v -1.26 z"
         id="path60" /><path
         d="m 809.21,539.16 v -1.6 l 5.43,-3.86 h 1.29 v 19.82 h -1.43 v -18.04 l -5.29,3.69 z"
         id="path61" /><path
         d="m 823.22,552.29 c -2.14,-1.97 -2.46,-5.55 -2.46,-8.69 0,-3.14 0.31,-6.69 2.46,-8.66 0.97,-0.89 2.32,-1.63 4.23,-1.63 1.91,0 3.29,0.71 4.23,1.63 2.12,2.03 2.46,5.55 2.46,8.66 0,3.11 -0.31,6.72 -2.46,8.69 -0.94,0.89 -2.32,1.63 -4.23,1.63 -1.91,0 -3.26,-0.74 -4.23,-1.63 z m 7.52,-0.92 c 1.86,-1.74 1.97,-5.18 1.97,-7.78 0,-2.6 -0.09,-6 -1.97,-7.75 -0.77,-0.71 -1.8,-1.17 -3.29,-1.17 -1.49,0 -2.52,0.49 -3.26,1.17 -1.89,1.74 -1.97,5.18 -1.97,7.75 0,2.57 0.09,6.03 1.97,7.78 0.74,0.69 1.8,1.17 3.26,1.17 1.46,0 2.54,-0.46 3.29,-1.17 z"
         id="path62" /><path
         d="m 840.01,550.94 v 2.57 h -2.52 v -2.57 z"
         id="path63" /><path
         d="m 845.81,552.29 c -2.14,-1.97 -2.46,-5.55 -2.46,-8.69 0,-3.14 0.31,-6.69 2.46,-8.66 0.97,-0.89 2.32,-1.63 4.23,-1.63 1.91,0 3.29,0.71 4.23,1.63 2.12,2.03 2.46,5.55 2.46,8.66 0,3.11 -0.31,6.72 -2.46,8.69 -0.94,0.89 -2.32,1.63 -4.23,1.63 -1.91,0 -3.26,-0.74 -4.23,-1.63 z m 7.52,-0.92 c 1.86,-1.74 1.97,-5.18 1.97,-7.78 0,-2.6 -0.09,-6 -1.97,-7.75 -0.77,-0.71 -1.8,-1.17 -3.29,-1.17 -1.49,0 -2.52,0.49 -3.26,1.17 -1.89,1.74 -1.97,5.18 -1.97,7.75 0,2.57 0.09,6.03 1.97,7.78 0.74,0.69 1.8,1.17 3.26,1.17 1.46,0 2.54,-0.46 3.29,-1.17 z"
         id="path64" /></g><g
       id="path227-4"
       data-name="path227"><g
         id="g66"><line
           x1="689.77002"
           y1="585.32001"
           x2="693.77002"
           y2="585.32001"
           fill="none"
           stroke="#000000"
           stroke-linecap="round"
           stroke-linejoin="round"
           stroke-width="4"
           id="line64" /><line
           x1="707.26001"
           y1="585.32001"
           x2="722.98999"
           y2="585.32001"
           fill="none"
           stroke="#000000"
           stroke-dasharray="0, 0, 8.99, 13.49"
           stroke-linecap="round"
           stroke-linejoin="round"
           stroke-width="4"
           id="line65" /><line
           x1="729.73999"
           y1="585.32001"
           x2="733.73999"
           y2="585.32001"
           fill="none"
           stroke="#000000"
           stroke-linecap="round"
           stroke-linejoin="round"
           stroke-width="4"
           id="line66" /></g></g><g
       id="g70"><path
         d="m 754.18,572.83 v 20.27 h -1.52 v -20.27 z"
         id="path66" /><path
         d="m 759.85,578.81 h 1.32 l 0.11,2.75 c 0.74,-1.97 2.97,-3.15 4.98,-3.15 3.26,0 5.06,2.17 5.06,5.35 v 9.35 h -1.43 v -9.21 c 0,-2.4 -1.23,-4.09 -3.77,-4.09 -3.17,0 -4.83,2.63 -4.83,5.8 v 7.49 h -1.43 v -14.3 z"
         id="path67" /><path
         d="m 776.46,578.81 h 1.32 l 0.11,2.72 c 0.8,-1.89 2.92,-3.12 4.89,-3.12 1.69,0 2.95,0.54 3.92,1.37 1.66,1.4 2.4,3.6 2.4,6.15 0,2.55 -0.71,4.63 -2.26,6.06 -0.97,0.92 -2.32,1.52 -4.03,1.52 -2.09,0 -4.12,-1.17 -4.92,-3 v 8.29 h -1.43 z m 9.55,12.01 c 1.14,-1.23 1.63,-3.03 1.63,-4.86 0,-2.03 -0.57,-3.95 -1.94,-5.12 -0.71,-0.63 -1.69,-1.03 -2.95,-1.03 -1.26,0 -2.26,0.49 -3,1.17 -1.32,1.26 -1.89,3 -1.89,4.98 0,2.12 0.51,3.77 1.86,5 0.74,0.69 1.74,1.14 3.09,1.14 1.35,0 2.46,-0.49 3.2,-1.29 z"
         id="path68" /><path
         d="m 793.31,588.04 v -9.24 h 1.43 v 9.15 c 0,2.49 1.23,4.15 3.75,4.15 3.32,0 4.69,-2.66 4.69,-5.86 v -7.43 h 1.43 v 14.3 h -1.32 l -0.11,-2.69 c -0.8,1.89 -2.63,3.09 -4.78,3.09 -3.23,0 -5.09,-2.26 -5.09,-5.46 z"
         id="path69" /><path
         d="m 811.38,589.39 v -9.26 h -3.37 v -1.32 h 3.37 v -3.95 l 1.43,-0.34 v 4.29 h 4.49 v 1.32 h -4.49 v 9.06 c 0,1.57 0.49,2.77 2.57,2.77 0.77,0 1.37,-0.09 2.12,-0.26 v 1.26 c -0.71,0.23 -1.43,0.34 -2.23,0.34 -2.8,0 -3.89,-1.63 -3.89,-3.92 z"
         id="path70" /></g></g><path
     id="path32-6"
     d="M 61.799999,153 H 79.800003"
     style="fill:none;stroke:#000000;stroke-width:1;stroke-linecap:butt;stroke-linejoin:miter;stroke-miterlimit:10;stroke-dasharray:none;stroke-opacity:1"
     transform="matrix(1.3320001,0,0,1.3320001,-12.347722,-17.439416)"
     clip-path="url(#clipPath33-3)" /><text
     id="text33"
     xml:space="preserve"
     transform="translate(34.961158,192.3506)"
     clip-path="url(#clipPath34-7)"><tspan
       style="font-variant:normal;font-weight:normal;font-size:15.98px;font-family:'Times New Roman';writing-mode:lr-tb;fill:#000000;fill-opacity:1;fill-rule:nonzero;stroke:none"
       x="0 7.984375 15.96875"
       y="0"
       sodipodi:role="line"
       id="tspan33">140</tspan></text><path
     id="path35-9"
     d="m 61.799999,147.5 h 9.000004 m -9.000004,-5.39999 h 9.000004 m -9.000004,-5.5 h 9.000004 M 61.799999,131.2 h 9.000004 m -9.000004,-5.5 h 18.000004"
     style="fill:none;stroke:#000000;stroke-width:1;stroke-linecap:butt;stroke-linejoin:miter;stroke-miterlimit:10;stroke-dasharray:none;stroke-opacity:1"
     transform="matrix(1.3320001,0,0,1.3320001,-12.347722,-17.439416)"
     clip-path="url(#clipPath36-3)" /><text
     id="text36"
     xml:space="preserve"
     transform="translate(34.961158,155.987)"
     clip-path="url(#clipPath37-6)"><tspan
       style="font-variant:normal;font-weight:normal;font-size:15.98px;font-family:'Times New Roman';writing-mode:lr-tb;fill:#000000;fill-opacity:1;fill-rule:nonzero;stroke:none"
       x="0 7.984375 15.96875"
       y="0"
       sodipodi:role="line"
       id="tspan36">150</tspan></text><path
     id="path38-3"
     d="m 61.799999,120.3 h 9.000004 m -9.000004,-5.5 h 9.000004 m -9.000004,-5.4 h 9.000004 m -9.000004,-5.5 h 9.000004 m -9.000004,-5.4 h 18.000004"
     style="fill:none;stroke:#000000;stroke-width:1;stroke-linecap:butt;stroke-linejoin:miter;stroke-miterlimit:10;stroke-dasharray:none;stroke-opacity:1"
     transform="matrix(1.3320001,0,0,1.3320001,-12.347722,-17.439416)"
     clip-path="url(#clipPath39-9)" /><text
     id="text39"
     xml:space="preserve"
     transform="translate(34.961158,119.7566)"
     clip-path="url(#clipPath40-2)"><tspan
       style="font-variant:normal;font-weight:normal;font-size:15.98px;font-family:'Times New Roman';writing-mode:lr-tb;fill:#000000;fill-opacity:1;fill-rule:nonzero;stroke:none"
       x="0 7.984375 15.96875"
       y="0"
       sodipodi:role="line"
       id="tspan39">160</tspan></text><path
     id="path41"
     d="m 61.799999,93 h 9.000004 m -9.000004,-5.400002 h 9.000004 m -9.000004,-5.5 h 9.000004 m -9.000004,-5.400001 h 9.000004 m -9.000004,-5.5 h 18.000004"
     style="fill:none;stroke:#000000;stroke-width:1;stroke-linecap:butt;stroke-linejoin:miter;stroke-miterlimit:10;stroke-dasharray:none;stroke-opacity:1"
     transform="matrix(1.3320001,0,0,1.3320001,-12.347722,-17.439416)"
     clip-path="url(#clipPath42-0)" /><text
     id="text42"
     xml:space="preserve"
     transform="translate(34.961158,83.393014)"
     clip-path="url(#clipPath43-3)"><tspan
       style="font-variant:normal;font-weight:normal;font-size:15.98px;font-family:'Times New Roman';writing-mode:lr-tb;fill:#000000;fill-opacity:1;fill-rule:nonzero;stroke:none"
       x="0 7.984375 15.96875"
       y="0"
       sodipodi:role="line"
       id="tspan42">170</tspan></text><path
     id="path44"
     d="m 61.799999,65.800003 h 9.000004 m -9.000004,-5.500004 h 9.000004 m -9.000004,-5.399997 h 9.000004 m -9.000004,-5.5 h 9.000004 M 61.799999,44 h 18.000004"
     style="fill:none;stroke:#000000;stroke-width:1;stroke-linecap:butt;stroke-linejoin:miter;stroke-miterlimit:10;stroke-dasharray:none;stroke-opacity:1"
     transform="matrix(1.3320001,0,0,1.3320001,-12.347722,-17.439416)"
     clip-path="url(#clipPath45-0)" /><text
     id="text45"
     xml:space="preserve"
     transform="translate(34.961158,47.162584)"
     clip-path="url(#clipPath46-2)"><tspan
       style="font-variant:normal;font-weight:normal;font-size:15.98px;font-family:'Times New Roman';writing-mode:lr-tb;fill:#000000;fill-opacity:1;fill-rule:nonzero;stroke:none"
       x="0 7.984375 15.96875"
       y="0"
       sodipodi:role="line"
       id="tspan45">180</tspan></text><path
     id="path47-7"
     d="m 61.799999,38.5 h 9.000004 m -9.000004,-5.400002 h 9.000004 M 61.799999,27.6 h 9.000004 m -9.000004,-5.399999 h 9.000004 m -9.000004,-5.5 h 18.000004"
     style="fill:none;stroke:#000000;stroke-width:1;stroke-linecap:butt;stroke-linejoin:miter;stroke-miterlimit:10;stroke-dasharray:none;stroke-opacity:1"
     transform="matrix(1.3320001,0,0,1.3320001,-12.347722,-17.439416)"
     clip-path="url(#clipPath48-1)" /><text
     id="text48"
     xml:space="preserve"
     transform="translate(34.961158,10.798984)"
     clip-path="url(#clipPath49-7)"><tspan
       style="font-variant:normal;font-weight:normal;font-size:15.98px;font-family:'Times New Roman';writing-mode:lr-tb;fill:#000000;fill-opacity:1;fill-rule:nonzero;stroke:none"
       x="0 7.984375 15.96875"
       y="0"
       sodipodi:role="line"
       id="tspan48">190</tspan></text><path
     id="path50-4"
     d="m 61.799999,207.5 v -18 m 0,-172.799999 v 18"
     style="fill:none;stroke:#000000;stroke-width:1;stroke-linecap:butt;stroke-linejoin:miter;stroke-miterlimit:10;stroke-dasharray:none;stroke-opacity:1"
     transform="matrix(1.3320001,0,0,1.3320001,-12.347722,-17.439416)"
     clip-path="url(#clipPath51-2)" /><text
     id="text51"
     xml:space="preserve"
     transform="translate(65.985488,281.7279)"
     clip-path="url(#clipPath52-2)"><tspan
       style="font-variant:normal;font-weight:normal;font-size:15.98px;font-family:'Times New Roman';writing-mode:lr-tb;fill:#000000;fill-opacity:1;fill-rule:nonzero;stroke:none"
       x="0"
       y="0"
       id="tspan51">0</tspan></text><path
     id="path53-5"
     d="m 72.5,207.5 v -9 m 0,-181.799999 v 9 M 83.300003,207.5 v -9 m 0,-181.799999 v 9 M 94,207.5 v -9 M 94,16.700001 v 9 M 104.7,207.5 v -9 m 0,-181.799999 v 9 M 115.5,207.5 v -9 m 0,-181.799999 v 9 M 126.2,207.5 v -9 m 0,-181.799999 v 9 M 137,207.5 v -9 m 0,-181.799999 v 9 M 147.7,207.5 v -9 m 0,-181.799999 v 9 M 158.39999,207.5 v -9 m 0,-181.799999 v 9 M 169.2,207.5 v -18 m 0,-172.799999 v 18"
     style="fill:none;stroke:#000000;stroke-width:1;stroke-linecap:butt;stroke-linejoin:miter;stroke-miterlimit:10;stroke-dasharray:none;stroke-opacity:1"
     transform="matrix(1.3320001,0,0,1.3320001,-12.347722,-17.439416)"
     clip-path="url(#clipPath54-7)" /><text
     id="text54"
     xml:space="preserve"
     transform="translate(201.05791,281.7279)"
     clip-path="url(#clipPath55-9)"><tspan
       style="font-variant:normal;font-weight:normal;font-size:15.98px;font-family:'Times New Roman';writing-mode:lr-tb;fill:#000000;fill-opacity:1;fill-rule:nonzero;stroke:none"
       x="0 7.984375 15.96875"
       y="0"
       sodipodi:role="line"
       id="tspan54">500</tspan></text><path
     id="path56-2"
     d="m 179.89999,207.5 v -9 m 0,-181.799999 v 9 M 190.60001,207.5 v -9 m 0,-181.799999 v 9 M 201.39999,207.5 v -9 m 0,-181.799999 v 9 M 212.10001,207.5 v -9 m 0,-181.799999 v 9 M 222.89999,207.5 v -9 m 0,-181.799999 v 9 M 233.60001,207.5 v -9 m 0,-181.799999 v 9 M 244.3,207.5 v -9 m 0,-181.799999 v 9 M 255.10001,207.5 v -9 m 0,-181.799999 v 9 M 265.79999,207.5 v -9 m 0,-181.799999 v 9 M 276.5,207.5 v -18 m 0,-172.799999 v 18"
     style="fill:none;stroke:#000000;stroke-width:1;stroke-linecap:butt;stroke-linejoin:miter;stroke-miterlimit:10;stroke-dasharray:none;stroke-opacity:1"
     transform="matrix(1.3320001,0,0,1.3320001,-12.347722,-17.439416)"
     clip-path="url(#clipPath57-2)" /><text
     id="text57"
     xml:space="preserve"
     transform="translate(339.9815,281.7279)"
     clip-path="url(#clipPath58-9)"><tspan
       style="font-variant:normal;font-weight:normal;font-size:15.98px;font-family:'Times New Roman';writing-mode:lr-tb;fill:#000000;fill-opacity:1;fill-rule:nonzero;stroke:none"
       x="0 7.984375 15.96875 23.953125"
       y="0"
       sodipodi:role="line"
       id="tspan57">1000</tspan></text><path
     id="path59-5"
     d="m 287.29999,207.5 v -9 m 0,-181.799999 v 9 M 298,207.5 v -9 m 0,-181.799999 v 9 M 308.70001,207.5 v -9 m 0,-181.799999 v 9 M 319.5,207.5 v -9 m 0,-181.799999 v 9 M 330.20001,207.5 v -9 m 0,-181.799999 v 9 M 341,207.5 v -9 m 0,-181.799999 v 9 M 351.70001,207.5 v -9 m 0,-181.799999 v 9 M 362.39999,207.5 v -9 m 0,-181.799999 v 9 M 373.20001,207.5 v -9 m 0,-181.799999 v 9 M 383.89999,207.5 v -18 m 0,-172.799999 v 18"
     style="fill:none;stroke:#000000;stroke-width:1;stroke-linecap:butt;stroke-linejoin:miter;stroke-miterlimit:10;stroke-dasharray:none;stroke-opacity:1"
     transform="matrix(1.3320001,0,0,1.3320001,-12.347722,-17.439416)"
     clip-path="url(#clipPath60-3)" /><text
     id="text60"
     xml:space="preserve"
     transform="translate(483.03829,281.7279)"
     clip-path="url(#clipPath61-1)"><tspan
       style="font-variant:normal;font-weight:normal;font-size:15.98px;font-family:'Times New Roman';writing-mode:lr-tb;fill:#000000;fill-opacity:1;fill-rule:nonzero;stroke:none"
       x="0 7.984375 15.96875 23.953125"
       y="0"
       sodipodi:role="line"
       id="tspan60">1500</tspan></text><path
     id="path62-4"
     d="m 383.89999,192.2 h -18"
     style="fill:none;stroke:#000000;stroke-width:1;stroke-linecap:butt;stroke-linejoin:miter;stroke-miterlimit:10;stroke-dasharray:none;stroke-opacity:1"
     transform="matrix(1.3320001,0,0,1.3320001,-12.347722,-17.439416)"
     clip-path="url(#clipPath63-9)" /><text
     id="text63"
     xml:space="preserve"
     transform="translate(510.06266,244.565)"
     clip-path="url(#clipPath64-1)"><tspan
       style="font-variant:normal;font-weight:normal;font-size:15.98px;font-family:'Times New Roman';writing-mode:lr-tb;fill:#000000;fill-opacity:1;fill-rule:nonzero;stroke:none"
       x="0"
       y="0"
       id="tspan63">0</tspan></text><path
     id="path65"
     d="m 383.89999,184.60001 h -9 m 9,-7.60001 h -9 m 9,-7.7 h -9 m 9,-7.6 h -9 m 9,-7.59999 h -18"
     style="fill:none;stroke:#000000;stroke-width:1;stroke-linecap:butt;stroke-linejoin:miter;stroke-miterlimit:10;stroke-dasharray:none;stroke-opacity:1"
     transform="matrix(1.3320001,0,0,1.3320001,-12.347722,-17.439416)"
     clip-path="url(#clipPath66-4)" /><text
     id="text66"
     xml:space="preserve"
     transform="translate(510.06266,193.8158)"
     clip-path="url(#clipPath67-8)"><tspan
       style="font-variant:normal;font-weight:normal;font-size:15.98px;font-family:'Times New Roman';writing-mode:lr-tb;fill:#000000;fill-opacity:1;fill-rule:nonzero;stroke:none"
       x="0"
       y="0"
       id="tspan66">5</tspan></text><path
     id="path68-7"
     d="M 61.799999,16.700001 V 207.5 H 383.89999 V 16.700001 Z"
     style="fill:none;stroke:#000000;stroke-width:1;stroke-linecap:butt;stroke-linejoin:miter;stroke-miterlimit:10;stroke-dasharray:none;stroke-opacity:1"
     transform="matrix(1.3320001,0,0,1.3320001,-12.347722,-17.439416)"
     clip-path="url(#clipPath69-5)" /><text
     id="text69"
     xml:space="preserve"
     transform="rotate(-90,81.402681,70.307193)"
     clip-path="url(#clipPath70-3)"><tspan
       style="font-variant:normal;font-weight:normal;font-size:15.98px;font-family:'Times New Roman';writing-mode:lr-tb;fill:#000000;fill-opacity:1;fill-rule:nonzero;stroke:none"
       x="0 8.6385651 15.726257 28.147263 36.131638 43.21933 48.537048 55.624741 60.061371 68.045746 73.363464 80.451157 84.443344 89.761063 96.147003 106.79803"
       y="0"
       sodipodi:role="line"
       id="tspan69">Temperature (°C)</tspan></text><text
     id="text70"
     xml:space="preserve"
     transform="rotate(-90,397.53821,-150.08687)"
     clip-path="url(#clipPath71-1)"><tspan
       style="font-variant:normal;font-weight:normal;font-size:15.98px;font-family:'Times New Roman';writing-mode:lr-tb;fill:#000000;fill-opacity:1;fill-rule:nonzero;stroke:none"
       x="0 8.8810577 16.865433 28.397552 35.485245 40.802963 44.795151 50.112869 58.097244 73.169312"
       y="0"
       sodipodi:role="line"
       id="tspan70">Power (kW)</tspan></text><text
     id="text71"
     xml:space="preserve"
     transform="translate(257.43752,304.7713)"
     clip-path="url(#clipPath72-6)"><tspan
       style="font-variant:normal;font-weight:normal;font-size:15.98px;font-family:'Times New Roman';writing-mode:lr-tb;fill:#000000;fill-opacity:1;fill-rule:nonzero;stroke:none"
       x="0 9.1925507 13.629181 26.050186 33.137878 37.130066 42.447784 48.662186"
       y="0"
       sodipodi:role="line"
       id="tspan71">Time (s)</tspan></text><path
     id="path73-4"
     d="m 61.799999,125.7 h 1.100003 1 H 65 h 1.099998 1.099999 1 1.100006 1.099999 1.099998 1 1.099998 1.099999 1.100006 1 1.099999 H 79 h 1.099998 1 1.099999 1.100006 1 1.099999 1.099998 1.099998 1 1.099999 1.100006 1.099999 1 H 94 h 1.099998 1.099999 1 1.100006 1.099999 1.099998 1 1.1 1.1 1 1.1 1.1 1.1 1 1.1 1.1 1.1 1 1.1 1.1 1.1 1 1.1 1.1 1.1 1 1.1 1.1 1 1.1 1.1 1.09999 1 1.10001 1.10001 1.09999 1 1.1 1.09999 1.10001 1 1.10001 1.09999 1.1 1 1.09999 1.10001 1 1.10001 1.09999 1.1 1 1.09999 1.10001 1.10001 1 1.09999 1.1 1.09999 1 1.10001 1.10001 1.09999 1 1.1 1.09999 1 1.10001 1.10001 1.09999 1 1.1 1.09999 1.10001 1 1.10001 1.09999 1.1 1 1.09999 1.10001 1.10001 1 1.09999 1.1 1 1.09999 1.10001 1.10001 1 1.09999 1.1 1.09999 1 1.10001 1.10001 1.09999 1 1.1 1.09999 1.10001 1 1.10001 1.09999 1 1.1 1.09999 1.10001 1 1.10001 1.09999 1.1 1 1.09999 1.10001 1.10001 1 1.09999 1.1 l 1.09999,-68.100002 h 1 1.10001 1.10001 1 1.09999 1.1 1.09999 1 1.10001 1.10001 1.09999 1 1.1 1.09999 1.10001 1 1.10001 1.09999 1 1.1 1.09999 1.10001 1 1.10001 1.09999 1.1 1 1.09999 1.10001 1.10001 1 1.1 1.09998 1.1 1 1.10001 1.10001 1 1.1 1.09998 1.1 1 1.10001 1.10001 1.1 1 1.09998 1.1 1.10001 1 1.10001 1.1 1.09998 1 1.1 1.10001 1 1.10001 1.1 1.09998 1 1.1 1.10001 1.10001 1 1.1 1.09998 1.1 1 1.10001 1.10001 1.1 1 1.09998 1.1 1 1.10001 1.10001 1.1 1 1.09998 1.1 1.10001 1 1.10001 1.1 1.09998 1 1.1 1.10001 1.10001 1 1.1 1.09998 1 1.1 1.10001 1.10001 1 1.1 1.09998 1.1 1 1.10001 1.10001 1.1 1 1.09998 1.1 1.10001 1 1.10001 1.1 1 1.09998 1.1 1.10001 1 1.10001 1.1 1.09998 1 1.1 1.10001 1.10001 1 1.1 1.09998 1.1 1 1.10001 1.10001 1 1.1 1.09998 1.1 1 1.10001 1.10001 1.1 1 1.09998 1.1 1.10001 1 1.10001 1.1 1.09998 1 1.1"
     style="fill:none;stroke:#ff0000;stroke-width:1;stroke-linecap:butt;stroke-linejoin:miter;stroke-miterlimit:10;stroke-dasharray:none;stroke-opacity:1"
     transform="matrix(1.3320001,0,0,1.3320001,-12.347722,-17.439416)"
     clip-path="url(#clipPath74-2)" /><path
     id="path75-4"
     d="m 61.799999,192.2 h 1.100003 1 H 65 h 1.099998 1.099999 1 1.100006 1.099999 1.099998 1 1.099998 1.099999 1.100006 1 1.099999 H 79 80.099998 l 1,-30.5 h 1.099999 1.100006 1 1.099999 1.099998 1.099998 1 1.099999 1.100006 1.099999 1 H 94 h 1.099998 1.099999 1 1.100006 1.099999 L 100.5,192.2 h 1 1.1 1.1 1 1.1 1.1 1.1 1 1.1 1.1 1.1 1 1.1 1.1 1.1 1 1.1 1.1 1.1 1 1.1 1.1 1 1.1 1.1 1.09999 1 1.10001 1.10001 1.09999 1 1.1 1.09999 1.10001 1 1.10001 1.09999 1.1 1 1.09999 1.10001 1 1.10001 1.09999 1.1 1 1.09999 1.10001 1.10001 1 1.09999 1.1 1.09999 1 1.10001 1.10001 1.09999 1 1.1 1.09999 1 1.10001 1.10001 1.09999 1 1.1 l 1.09999,-30.5 h 1.10001 1 1.10001 1.09999 1.1 1 1.09999 1.10001 1.10001 1 1.09999 1.1 1 1.09999 1.10001 1.10001 1 L 191.7,192.2 h 1.1 1.09999 1 1.10001 1.10001 1.09999 1 1.1 1.09999 1.10001 1 1.10001 1.09999 1 1.1 1.09999 1.10001 1 1.10001 1.09999 1.1 1 1.09999 1.10001 1.10001 1 1.09999 1.1 1.09999 l 1,-30.5 H 225 h 1.10001 1 1.09999 1.1 1.09999 1 1.10001 1.10001 1.09999 1 1.1 1.09999 1.10001 1 1.10001 1.09999 1 1.1 1.09999 1.10001 1 1.10001 1.09999 1.1 1 1.09999 1.10001 1.10001 1 l 1.1,30.5 h 1.09998 1.1 1 1.10001 1.10001 1 1.1 1.09998 1.1 1 1.10001 1.10001 1.1 1 1.09998 1.1 1.10001 1 1.10001 1.1 1.09998 1 1.1 1.10001 1 1.10001 1.1 1.09998 1 1.1 1.10001 1.10001 1 1.1 1.09998 1.1 1 1.10001 1.10001 1.1 1 1.09998 1.1 1 1.10001 1.10001 1.1 1 1.09998 1.1 1.10001 1 1.10001 1.1 1.09998 l 1,-30.5 h 1.1 1.10001 1.10001 1 1.1 1.09998 1 1.1 1.10001 1.10001 1 1.1 1.09998 1.1 1 1.10001 1.10001 1.1 l 1,30.5 h 1.09998 1.1 1.10001 1 1.10001 1.1 1 1.09998 1.1 1.10001 1 1.10001 1.1 1.09998 1 1.1 1.10001 1.10001 1 1.1 1.09998 1.1 1 1.10001 1.10001 1 1.1 1.09998 1.1 1 1.10001 1.10001 1.1 1 1.09998 1.1 1.10001 1 1.10001 1.1 1.09998 1 1.1"
     style="fill:none;stroke:#0000ff;stroke-width:1;stroke-linecap:butt;stroke-linejoin:miter;stroke-miterlimit:10;stroke-dasharray:none;stroke-opacity:1"
     transform="matrix(1.3320001,0,0,1.3320001,-12.347722,-17.439416)"
     clip-path="url(#clipPath76-6)" /><path
     id="path77-3"
     d="m 61.799999,125.7 1.100003,0.8 1,0.9 1.099998,0.8 1.099998,0.8 1.099999,0.8 1,0.80001 1.100006,0.89999 1.099999,0.8 1.099998,0.80001 1,0.79998 1.099998,0.80001 1.099999,0.8 1.100006,0.8 1,0.80001 1.099999,0.79998 L 79,138.8 l 1.099998,0.7 1,0.8 1.099999,0.2 1.100006,-0.2 1,-0.6 1.099999,-0.9 L 86.5,137.60001 87.599998,136 l 1,-1.7 1.099999,-1.90001 1.100006,-2.09999 1.099999,-2.19999 1,-2.40001 L 94,123.3 l 1.099998,-2.6 1.099999,-2.6 1,-2.7 1.100006,-2.7 1.099999,-2.8 1.099998,-2.8 1,-2.3 1.1,-1.9 1.1,-1.5 1,-1.2 1.1,-0.899997 1.1,-0.700005 1.1,-0.5 1,-0.299995 1.1,-0.100006 1.1,0.100006 1.1,0.1 1,0.199996 1.1,0.400002 1.1,0.400002 1.1,0.5 1,0.5 1.1,0.599997 1.1,0.6 1.1,0.6 1,0.7 1.1,0.7 1.1,0.8 1,0.7 1.1,0.8 1.1,0.8 1.09999,0.8 1,0.8 1.10001,0.8 1.10001,0.8 1.09999,0.8 1,0.9 1.1,0.8 1.09999,0.8 1.10001,0.9 1,0.8 1.10001,0.8 1.09999,0.9 1.1,0.8 1,0.9 1.09999,0.8 1.10001,0.9 1,0.8 1.10001,0.8 1.09999,0.9 1.1,0.8 1,0.8 1.09999,0.9 1.10001,0.8 1.10001,0.8 1,0.9 1.09999,0.8 1.1,0.80001 1.09999,0.89999 1,0.8 1.10001,0.80001 1.10001,0.79998 1.09999,0.80001 1,0.90001 1.1,0.79998 1.09999,0.80001 1,0.8 1.10001,0.8 1.10001,0.80001 1.09999,0.79998 1,0.80001 1.1,0.8 1.09999,0.7 1.10001,0.3 1,-0.2 1.10001,-0.6 1.09999,-1 1.1,-1.2 1,-1.5 1.09999,-1.7 1.10001,-2 1.10001,-2 1,-2.3 1.09999,-2.3 1.1,-2.5 1,-2.5 1.09999,-2.6 1.10001,-2.7 1.10001,-2.8 1,-2.8 1.09999,-2.7 1.1,-2.4 1.09999,-1.9 1,-1.5 L 196,100.6 197.10001,99.699997 198.2,99 l 1,-0.400002 1.1,-0.299995 1.09999,-0.100006 H 202.5 l 1,0.100006 1.10001,0.299995 1.09999,0.300004 1,0.400001 1.1,0.5 1.09999,0.499997 1.10001,0.6 1,0.6 1.10001,0.7 1.09999,0.7 1.1,0.7 1,0.7 1.09999,0.7 1.10001,0.8 1.10001,0.8 1,0.8 1.09999,0.8 1.1,0.8 1.09999,0.8 1,0.7 1.10001,0.3 1.10001,-0.1 1,-0.6 1.09999,-0.9 1.1,-1.2 1.09999,-1.4 1,-1.7 1.10001,-1.8 1.10001,-2.1 1.09999,-2.099998 1,-2.300004 1.1,-2.400001 1.09999,-2.5 L 239,89.099998 240,86.5 241.10001,83.800003 242.2,81.099998 243.2,78.400002 244.3,75.5 245.39999,72.699997 246.5,69.900002 247.5,67 l 1.10001,-2.900002 1.09999,-2.899997 1.1,-2.900002 1,-2.899997 L 252.89999,52.5 254,49.599998 l 1.10001,-2.899997 1,-3 1.1,-2.799999 1.09998,-2.400002 1.1,-1.900002 1,-1.599998 L 261.5,33.900002 262.60001,33 l 1,-0.599998 1.1,-0.400002 1.09998,-0.200001 h 1.1 l 1,0.100001 L 269,32.200001 270.10001,32.5 l 1.1,0.5 1,0.5 1.09998,0.599998 1.1,0.700001 L 275.5,35.5 l 1,0.700001 1.10001,0.799999 1.1,0.900002 1.09998,0.799999 1,0.899997 1.1,0.900002 1.10001,0.900002 1,0.899997 1.10001,1 1.1,1 1.09998,0.900002 1,1 1.1,1 1.10001,1 1.10001,0.899997 1,1 1.1,1 1.09998,1 1.1,1 1,1 1.10001,1 1.10001,1 1.1,1 1,0.900002 1.09998,1 1.1,1 1,1 1.10001,1 1.10001,1 1.1,1 1,0.900002 1.09998,1 1.1,1 1.10001,1 1,1 1.10001,0.900001 1.1,1 1.09998,1 1,0.799995 1.1,0.5 H 319.5 l 1.10001,-0.5 1,-0.799995 1.1,-1 1.09998,-1.400001 1,-1.5 1.1,-1.800004 1.10001,-1.900001 1.10001,-2.099999 1,-2.199996 1.1,-2.300004 1.09998,-2.399997 1.1,-2.400002 1,-2.599998 L 334.5,47.599998 335.60001,45 l 1.1,-2.700001 1,-2.599998 1.09998,-2.200001 1.1,-1.700001 L 341,34.400002 342,33.299999 343.10001,32.5 l 1.1,-0.5 1,-0.299999 L 346.29999,31.6 h 1.1 l 1.10001,0.199999 1,0.299999 1.10001,0.400002 1.1,0.5 1.09998,0.5 1,0.700001 1.1,0.700001 1.10001,0.699996 1.10001,0.800004 1,0.799999 1.1,0.799999 1.09998,0.900002 1.1,0.899997 1,0.900002 1.10001,0.899997 1.10001,0.900002 1,1 1.1,0.900002 1.09998,1 1.1,1 1,1 1.10001,0.899997 1.10001,1 1.1,1 1,1 1.09998,1 1.1,1 1.10001,1 1,1 1.10001,1 1.1,1 1.09998,1 1,0.900002 1.1,1"
     style="fill:none;stroke:#00ff00;stroke-width:1;stroke-linecap:butt;stroke-linejoin:miter;stroke-miterlimit:10;stroke-dasharray:none;stroke-opacity:1"
     transform="matrix(1.3320001,0,0,1.3320001,-12.347722,-17.439416)"
     clip-path="url(#clipPath78-5)" /><path
     id="path79-0"
     d="M 61.799999,16.700001 V 207.5 H 383.89999 V 16.700001 Z"
     style="fill:none;stroke:#000000;stroke-width:1;stroke-linecap:butt;stroke-linejoin:miter;stroke-miterlimit:10;stroke-dasharray:none;stroke-opacity:1"
     transform="matrix(1.3320001,0,0,1.3320001,-12.347722,-17.439416)"
     clip-path="url(#clipPath80-4)" /></svg>
