<?xml version="1.0" encoding="UTF-8" standalone="no"?>
<svg
   id="Ebene_1"
   data-name="Ebene 1"
   viewBox="0 0 565.17283 304.05"
   version="1.1"
   sodipodi:docname="pid_control_derivative.svg"
   width="565.17285"
   height="304.04999"
   inkscape:version="1.3.2 (1:1.3.2+202311252150+091e20ef0f)"
   xmlns:inkscape="http://www.inkscape.org/namespaces/inkscape"
   xmlns:sodipodi="http://sodipodi.sourceforge.net/DTD/sodipodi-0.dtd"
   xmlns="http://www.w3.org/2000/svg"
   xmlns:svg="http://www.w3.org/2000/svg">
  <defs
     id="defs136">
    <clipPath
       clipPathUnits="userSpaceOnUse"
       id="clipPath199">
      <path
         d="M 338.54169,151.0415 H 2213.5417 v 1040.625 H 338.54169 Z"
         transform="matrix(0.24024021,0,0,0.24024021,-81.556525,-36.286243)"
         clip-rule="evenodd"
         id="path199" />
    </clipPath>
    <clipPath
       clipPathUnits="userSpaceOnUse"
       id="clipPath200">
      <path
         d="M 338.54169,151.0415 H 2213.5417 v 1040.625 H 338.54169 Z"
         transform="matrix(0.31999999,0,0,0.31999999,-155.2762,-327.6537)"
         clip-rule="evenodd"
         id="path200" />
    </clipPath>
    <clipPath
       clipPathUnits="userSpaceOnUse"
       id="clipPath202">
      <path
         d="M 338.54169,151.0415 H 2213.5417 v 1040.625 H 338.54169 Z"
         transform="matrix(0.24024021,0,0,0.24024021,-81.556525,-36.286243)"
         clip-rule="evenodd"
         id="path202" />
    </clipPath>
    <clipPath
       clipPathUnits="userSpaceOnUse"
       id="clipPath203">
      <path
         d="M 338.54169,151.0415 H 2213.5417 v 1040.625 H 338.54169 Z"
         transform="matrix(0.31999999,0,0,0.31999999,-155.2762,-281.96608)"
         clip-rule="evenodd"
         id="path203" />
    </clipPath>
    <clipPath
       clipPathUnits="userSpaceOnUse"
       id="clipPath205">
      <path
         d="M 338.54169,151.0415 H 2213.5417 v 1040.625 H 338.54169 Z"
         transform="matrix(0.24024021,0,0,0.24024021,-81.556525,-36.286243)"
         clip-rule="evenodd"
         id="path205" />
    </clipPath>
    <clipPath
       clipPathUnits="userSpaceOnUse"
       id="clipPath206">
      <path
         d="M 338.54169,151.0415 H 2213.5417 v 1040.625 H 338.54169 Z"
         transform="matrix(0.31999999,0,0,0.31999999,-155.2762,-236.41169)"
         clip-rule="evenodd"
         id="path206" />
    </clipPath>
    <clipPath
       clipPathUnits="userSpaceOnUse"
       id="clipPath208">
      <path
         d="M 338.54169,151.0415 H 2213.5417 v 1040.625 H 338.54169 Z"
         transform="matrix(0.24024021,0,0,0.24024021,-81.556525,-36.286243)"
         clip-rule="evenodd"
         id="path208" />
    </clipPath>
    <clipPath
       clipPathUnits="userSpaceOnUse"
       id="clipPath209">
      <path
         d="M 338.54169,151.0415 H 2213.5417 v 1040.625 H 338.54169 Z"
         transform="matrix(0.31999999,0,0,0.31999999,-155.2762,-190.72409)"
         clip-rule="evenodd"
         id="path209" />
    </clipPath>
    <clipPath
       clipPathUnits="userSpaceOnUse"
       id="clipPath211">
      <path
         d="M 338.54169,151.0415 H 2213.5417 v 1040.625 H 338.54169 Z"
         transform="matrix(0.24024021,0,0,0.24024021,-81.556525,-36.286243)"
         clip-rule="evenodd"
         id="path211" />
    </clipPath>
    <clipPath
       clipPathUnits="userSpaceOnUse"
       id="clipPath212">
      <path
         d="M 338.54169,151.0415 H 2213.5417 v 1040.625 H 338.54169 Z"
         transform="matrix(0.31999999,0,0,0.31999999,-155.2762,-145.03649)"
         clip-rule="evenodd"
         id="path212" />
    </clipPath>
    <clipPath
       clipPathUnits="userSpaceOnUse"
       id="clipPath214">
      <path
         d="M 338.54169,151.0415 H 2213.5417 v 1040.625 H 338.54169 Z"
         transform="matrix(0.24024021,0,0,0.24024021,-81.556525,-36.286243)"
         clip-rule="evenodd"
         id="path214" />
    </clipPath>
    <clipPath
       clipPathUnits="userSpaceOnUse"
       id="clipPath215">
      <path
         d="M 338.54169,151.0415 H 2213.5417 v 1040.625 H 338.54169 Z"
         transform="matrix(0.31999999,0,0,0.31999999,-155.2762,-99.348882)"
         clip-rule="evenodd"
         id="path215" />
    </clipPath>
    <clipPath
       clipPathUnits="userSpaceOnUse"
       id="clipPath217">
      <path
         d="M 338.54169,151.0415 H 2213.5417 v 1040.625 H 338.54169 Z"
         transform="matrix(0.24024021,0,0,0.24024021,-81.556525,-36.286243)"
         clip-rule="evenodd"
         id="path217" />
    </clipPath>
    <clipPath
       clipPathUnits="userSpaceOnUse"
       id="clipPath218">
      <path
         d="M 338.54169,151.0415 H 2213.5417 v 1040.625 H 338.54169 Z"
         transform="matrix(0.31999999,0,0,0.31999999,-230.3898,-346.0353)"
         clip-rule="evenodd"
         id="path218" />
    </clipPath>
    <clipPath
       clipPathUnits="userSpaceOnUse"
       id="clipPath220">
      <path
         d="M 338.54169,151.0415 H 2213.5417 v 1040.625 H 338.54169 Z"
         transform="matrix(0.24024021,0,0,0.24024021,-81.556525,-36.286243)"
         clip-rule="evenodd"
         id="path220" />
    </clipPath>
    <clipPath
       clipPathUnits="userSpaceOnUse"
       id="clipPath221">
      <path
         d="M 338.54169,151.0415 H 2213.5417 v 1040.625 H 338.54169 Z"
         transform="matrix(0.31999999,0,0,0.31999999,-310.4506,-346.0353)"
         clip-rule="evenodd"
         id="path221" />
    </clipPath>
    <clipPath
       clipPathUnits="userSpaceOnUse"
       id="clipPath223">
      <path
         d="M 338.54169,151.0415 H 2213.5417 v 1040.625 H 338.54169 Z"
         transform="matrix(0.24024021,0,0,0.24024021,-81.556525,-36.286243)"
         clip-rule="evenodd"
         id="path223" />
    </clipPath>
    <clipPath
       clipPathUnits="userSpaceOnUse"
       id="clipPath224">
      <path
         d="M 338.54169,151.0415 H 2213.5417 v 1040.625 H 338.54169 Z"
         transform="matrix(0.31999999,0,0,0.31999999,-398.4958,-346.0353)"
         clip-rule="evenodd"
         id="path224" />
    </clipPath>
    <clipPath
       clipPathUnits="userSpaceOnUse"
       id="clipPath226">
      <path
         d="M 338.54169,151.0415 H 2213.5417 v 1040.625 H 338.54169 Z"
         transform="matrix(0.24024021,0,0,0.24024021,-81.556525,-36.286243)"
         clip-rule="evenodd"
         id="path226" />
    </clipPath>
    <clipPath
       clipPathUnits="userSpaceOnUse"
       id="clipPath227">
      <path
         d="M 338.54169,151.0415 H 2213.5417 v 1040.625 H 338.54169 Z"
         transform="matrix(0.31999999,0,0,0.31999999,-486.541,-346.0353)"
         clip-rule="evenodd"
         id="path227-5" />
    </clipPath>
    <clipPath
       clipPathUnits="userSpaceOnUse"
       id="clipPath229">
      <path
         d="M 338.54169,151.0415 H 2213.5417 v 1040.625 H 338.54169 Z"
         transform="matrix(0.24024021,0,0,0.24024021,-81.556525,-36.286243)"
         clip-rule="evenodd"
         id="path229" />
    </clipPath>
    <clipPath
       clipPathUnits="userSpaceOnUse"
       id="clipPath230">
      <path
         d="M 338.54169,151.0415 H 2213.5417 v 1040.625 H 338.54169 Z"
         transform="matrix(0.31999999,0,0,0.31999999,-574.7194,-346.0353)"
         clip-rule="evenodd"
         id="path230" />
    </clipPath>
    <clipPath
       clipPathUnits="userSpaceOnUse"
       id="clipPath232">
      <path
         d="M 338.54169,151.0415 H 2213.5417 v 1040.625 H 338.54169 Z"
         transform="matrix(0.24024021,0,0,0.24024021,-81.556525,-36.286243)"
         clip-rule="evenodd"
         id="path232" />
    </clipPath>
    <clipPath
       clipPathUnits="userSpaceOnUse"
       id="clipPath233">
      <path
         d="M 338.54169,151.0415 H 2213.5417 v 1040.625 H 338.54169 Z"
         transform="matrix(0.31999999,0,0,0.31999999,-662.7647,-346.0353)"
         clip-rule="evenodd"
         id="path233" />
    </clipPath>
    <clipPath
       clipPathUnits="userSpaceOnUse"
       id="clipPath235">
      <path
         d="M 338.54169,151.0415 H 2213.5417 v 1040.625 H 338.54169 Z"
         transform="matrix(0.24024021,0,0,0.24024021,-81.556525,-36.286243)"
         clip-rule="evenodd"
         id="path235" />
    </clipPath>
    <clipPath
       clipPathUnits="userSpaceOnUse"
       id="clipPath236">
      <path
         d="M 338.54169,151.0415 H 2213.5417 v 1040.625 H 338.54169 Z"
         transform="matrix(0.31999999,0,0,0.31999999,-322.4193,-247.73368)"
         clip-rule="evenodd"
         id="path236" />
    </clipPath>
    <clipPath
       clipPathUnits="userSpaceOnUse"
       id="clipPath238">
      <path
         d="M 338.54169,151.0415 H 2213.5417 v 1040.625 H 338.54169 Z"
         transform="matrix(0.24024021,0,0,0.24024021,-81.556525,-36.286243)"
         clip-rule="evenodd"
         id="path238" />
    </clipPath>
    <clipPath
       clipPathUnits="userSpaceOnUse"
       id="clipPath239">
      <path
         d="M 338.54169,151.0415 H 2213.5417 v 1040.625 H 338.54169 Z"
         transform="matrix(0,0.31999999,-0.31999999,0,252.24772,-132.07648)"
         clip-rule="evenodd"
         id="path239" />
    </clipPath>
    <clipPath
       clipPathUnits="userSpaceOnUse"
       id="clipPath240">
      <path
         d="M 338.54169,151.0415 H 2213.5417 v 1040.625 H 338.54169 Z"
         transform="matrix(0.31999999,0,0,0.31999999,-405.4582,-370.54405)"
         clip-rule="evenodd"
         id="path240" />
    </clipPath>
    <clipPath
       clipPathUnits="userSpaceOnUse"
       id="clipPath242">
      <path
         d="M 338.54169,151.0415 H 2213.5417 v 1040.625 H 338.54169 Z"
         transform="matrix(0.24024021,0,0,0.24024021,-81.556525,-36.286243)"
         clip-rule="evenodd"
         id="path242" />
    </clipPath>
    <clipPath
       clipPathUnits="userSpaceOnUse"
       id="clipPath244">
      <path
         d="M 338.54169,151.0415 H 2213.5417 v 1040.625 H 338.54169 Z"
         transform="matrix(0.24024021,0,0,0.24024021,-81.556525,-36.286243)"
         clip-rule="evenodd"
         id="path244" />
    </clipPath>
    <clipPath
       clipPathUnits="userSpaceOnUse"
       id="clipPath246">
      <path
         d="M 338.54169,151.0415 H 2213.5417 v 1040.625 H 338.54169 Z"
         transform="matrix(0.24024021,0,0,0.24024021,-81.556525,-36.286243)"
         clip-rule="evenodd"
         id="path246" />
    </clipPath>
    <clipPath
       clipPathUnits="userSpaceOnUse"
       id="clipPath248">
      <path
         d="M 338.54169,151.0415 H 2213.5417 v 1040.625 H 338.54169 Z"
         transform="matrix(0.24024021,0,0,0.24024021,-81.556525,-36.286243)"
         clip-rule="evenodd"
         id="path248" />
    </clipPath>
    <clipPath
       clipPathUnits="userSpaceOnUse"
       id="clipPath250">
      <path
         d="M 338.54169,151.0415 H 2213.5417 v 1040.625 H 338.54169 Z"
         transform="matrix(0.24024021,0,0,0.24024021,-81.556525,-36.286243)"
         clip-rule="evenodd"
         id="path250" />
    </clipPath>
    <clipPath
       clipPathUnits="userSpaceOnUse"
       id="clipPath252">
      <path
         d="M 338.54169,151.0415 H 2213.5417 v 1040.625 H 338.54169 Z"
         transform="matrix(0.24024021,0,0,0.24024021,-81.556525,-36.286243)"
         clip-rule="evenodd"
         id="path252" />
    </clipPath>
  </defs>
  <sodipodi:namedview
     id="namedview136"
     pagecolor="#ffffff"
     bordercolor="#666666"
     borderopacity="1.0"
     inkscape:showpageshadow="2"
     inkscape:pageopacity="0.0"
     inkscape:pagecheckerboard="0"
     inkscape:deskcolor="#d1d1d1"
     inkscape:zoom="0.46491236"
     inkscape:cx="453.84898"
     inkscape:cy="109.6981"
     inkscape:window-width="1850"
     inkscape:window-height="1016"
     inkscape:window-x="1436"
     inkscape:window-y="27"
     inkscape:window-maximized="1"
     inkscape:current-layer="Ebene_1" />
  <g
     id="g92"
     transform="matrix(0.3800636,0,0,0.3800636,164.30039,-32.817633)">
    <path
       id="path227"
       d="m 689.77,467.39 h 43.97"
       fill="none"
       stroke="#006699"
       stroke-linecap="round"
       stroke-linejoin="round"
       stroke-width="4" />
    <path
       id="path227-2"
       data-name="path227"
       d="m 689.77,506.99 h 43.97"
       fill="none"
       stroke="#ff0000"
       stroke-linecap="round"
       stroke-linejoin="round"
       stroke-width="4" />
    <path
       id="path227-3"
       data-name="path227"
       d="m 689.77,546.6 h 43.97"
       fill="none"
       stroke="#66cc33"
       stroke-linecap="round"
       stroke-linejoin="round"
       stroke-width="4" />
    <g
       id="path227-4"
       data-name="path227">
      <g
         id="g60">
        <line
           x1="689.77002"
           y1="586.17999"
           x2="693.77002"
           y2="586.17999"
           fill="none"
           stroke="#000000"
           stroke-linecap="round"
           stroke-linejoin="round"
           stroke-width="4"
           id="line58" />
        <line
           x1="707.26001"
           y1="586.17999"
           x2="722.98999"
           y2="586.17999"
           fill="none"
           stroke="#000000"
           stroke-dasharray="0, 0, 8.99, 13.49"
           stroke-linecap="round"
           stroke-linejoin="round"
           stroke-width="4"
           id="line59" />
        <line
           x1="729.73999"
           y1="586.17999"
           x2="733.73999"
           y2="586.17999"
           fill="none"
           stroke="#000000"
           stroke-linecap="round"
           stroke-linejoin="round"
           stroke-width="4"
           id="line60" />
      </g>
    </g>
    <g
       id="g68">
      <path
         d="m 752.67,454.91 h 1.52 v 12.52 l 11.3,-12.52 h 1.83 l -7.89,8.72 8.01,11.55 h -1.74 l -7.26,-10.47 -4.23,4.66 v 5.8 h -1.52 V 454.9 Z"
         id="path60" />
      <path
         d="m 770.36,472.88 v 1.23 h -1.13 v -1.23 z m -0.13,3.49 v 8.34 h -0.85 v -8.34 z"
         id="path61" />
      <path
         d="m 793.47,463.2 v 1.26 h -12.75 v -1.26 z m 0,6.03 v 1.26 h -12.75 v -1.26 z"
         id="path62" />
      <path
         d="m 806.77,473.95 c -2.14,-1.97 -2.46,-5.55 -2.46,-8.69 0,-3.14 0.31,-6.69 2.46,-8.66 0.97,-0.89 2.32,-1.63 4.23,-1.63 1.91,0 3.29,0.71 4.23,1.63 2.12,2.03 2.46,5.55 2.46,8.66 0,3.11 -0.31,6.72 -2.46,8.69 -0.94,0.89 -2.32,1.63 -4.23,1.63 -1.91,0 -3.26,-0.74 -4.23,-1.63 z m 7.52,-0.92 c 1.86,-1.74 1.97,-5.18 1.97,-7.78 0,-2.6 -0.09,-6 -1.97,-7.75 -0.77,-0.71 -1.8,-1.17 -3.29,-1.17 -1.49,0 -2.52,0.49 -3.26,1.17 -1.89,1.74 -1.97,5.18 -1.97,7.75 0,2.57 0.09,6.03 1.97,7.78 0.74,0.69 1.8,1.17 3.26,1.17 1.46,0 2.54,-0.46 3.29,-1.17 z"
         id="path63" />
      <path
         d="m 823.55,472.61 v 2.57 h -2.52 v -2.57 z"
         id="path64" />
      <path
         d="m 824.1,460.83 v -1.6 l 5.43,-3.86 h 1.29 v 19.82 h -1.43 v -18.04 l -5.29,3.69 z"
         id="path65" />
      <path
         d="m 841.86,470.84 h 1.46 c 0.23,2.35 2.09,3.37 4.43,3.37 2.34,0 4.15,-1.03 4.15,-2.97 0,-1.26 -0.89,-2.32 -2.63,-2.54 l -2.77,-0.37 c -2.4,-0.31 -4.03,-1.46 -4.03,-3.63 0,-2.54 2.46,-4.2 5.15,-4.2 3.09,0 5.32,1.77 5.4,4.35 h -1.43 c -0.2,-2.06 -1.89,-3 -3.97,-3 -2.08,0 -3.69,1.12 -3.69,2.72 0,1.17 0.63,2.06 2.77,2.34 l 2.72,0.37 c 2.69,0.37 3.95,2.17 3.95,3.89 0,2.92 -2.63,4.43 -5.61,4.43 -3.4,0 -5.75,-1.8 -5.89,-4.75 z"
         id="path66" />
      <path
         d="m 863.61,460.24 v 0.77 h -7.74 v -0.77 z"
         id="path67" />
      <path
         d="m 864.36,457.29 v -0.93 l 3.17,-2.25 h 0.75 v 11.56 h -0.83 v -10.52 l -3.09,2.15 z"
         id="path68" />
    </g>
    <g
       id="g77">
      <path
         d="m 752.67,494.51 h 1.52 v 12.52 l 11.3,-12.52 h 1.83 l -7.89,8.72 8.01,11.55 h -1.74 l -7.26,-10.47 -4.23,4.66 v 5.8 h -1.52 V 494.5 Z"
         id="path69" />
      <path
         d="m 770.36,512.48 v 1.23 h -1.13 v -1.23 z m -0.13,3.49 v 8.34 h -0.85 v -8.34 z"
         id="path70" />
      <path
         d="m 793.47,502.8 v 1.26 h -12.75 v -1.26 z m 0,6.03 v 1.26 h -12.75 v -1.26 z"
         id="path71" />
      <path
         d="m 806.77,513.55 c -2.14,-1.97 -2.46,-5.55 -2.46,-8.69 0,-3.14 0.31,-6.69 2.46,-8.66 0.97,-0.89 2.32,-1.63 4.23,-1.63 1.91,0 3.29,0.71 4.23,1.63 2.12,2.03 2.46,5.55 2.46,8.66 0,3.11 -0.31,6.72 -2.46,8.69 -0.94,0.89 -2.32,1.63 -4.23,1.63 -1.91,0 -3.26,-0.74 -4.23,-1.63 z m 7.52,-0.92 c 1.86,-1.74 1.97,-5.18 1.97,-7.78 0,-2.6 -0.09,-6 -1.97,-7.75 -0.77,-0.71 -1.8,-1.17 -3.29,-1.17 -1.49,0 -2.52,0.49 -3.26,1.17 -1.89,1.74 -1.97,5.18 -1.97,7.75 0,2.57 0.09,6.03 1.97,7.78 0.74,0.69 1.8,1.17 3.26,1.17 1.46,0 2.54,-0.46 3.29,-1.17 z"
         id="path72" />
      <path
         d="m 823.55,512.21 v 2.57 h -2.52 v -2.57 z"
         id="path73" />
      <path
         d="m 827.59,509.04 h 1.43 c 0.14,2.8 2.09,4.78 5.09,4.78 3.17,0 4.98,-2.23 4.98,-5.23 0,-3 -1.57,-5.29 -4.75,-5.29 -1.77,0 -3.52,0.69 -4.46,2.17 h -1.69 l 0.8,-10.49 h 10.84 v 1.34 h -9.61 l -0.66,7.72 c 1.09,-1.4 3,-2.09 4.78,-2.09 4.09,0 6.18,2.86 6.18,6.63 0,3.77 -2.26,6.61 -6.41,6.61 -4.15,0 -6.43,-2.66 -6.52,-6.15 z"
         id="path74" />
      <path
         d="m 850.21,510.44 h 1.46 c 0.23,2.35 2.09,3.37 4.43,3.37 2.34,0 4.15,-1.03 4.15,-2.97 0,-1.26 -0.89,-2.32 -2.63,-2.54 l -2.77,-0.37 c -2.4,-0.31 -4.03,-1.46 -4.03,-3.63 0,-2.54 2.46,-4.2 5.15,-4.2 3.09,0 5.32,1.77 5.4,4.35 h -1.43 c -0.2,-2.06 -1.89,-3 -3.97,-3 -2.08,0 -3.69,1.12 -3.69,2.72 0,1.17 0.63,2.06 2.77,2.34 l 2.72,0.37 c 2.69,0.37 3.95,2.17 3.95,3.89 0,2.92 -2.63,4.43 -5.61,4.43 -3.4,0 -5.75,-1.8 -5.89,-4.75 z"
         id="path75" />
      <path
         d="m 871.96,499.84 v 0.77 h -7.74 v -0.77 z"
         id="path76" />
      <path
         d="m 872.71,496.89 v -0.93 l 3.17,-2.25 h 0.75 v 11.56 h -0.83 v -10.52 l -3.09,2.15 z"
         id="path77" />
    </g>
    <g
       id="g86">
      <path
         d="m 752.67,534.11 h 1.52 v 12.52 l 11.3,-12.52 h 1.83 l -7.89,8.72 8.01,11.55 h -1.74 l -7.26,-10.47 -4.23,4.66 v 5.8 h -1.52 V 534.1 Z"
         id="path78" />
      <path
         d="m 770.36,552.08 v 1.23 h -1.13 v -1.23 z m -0.13,3.49 v 8.34 h -0.85 v -8.34 z"
         id="path79" />
      <path
         d="m 793.47,542.4 v 1.26 h -12.75 v -1.26 z m 0,6.03 v 1.26 h -12.75 v -1.26 z"
         id="path80" />
      <path
         d="m 803.22,540.03 v -1.6 l 5.43,-3.86 h 1.29 v 19.82 h -1.43 v -18.04 l -5.29,3.69 z"
         id="path81" />
      <path
         d="m 817.86,551.81 v 2.57 h -2.52 v -2.57 z"
         id="path82" />
      <path
         d="m 823.67,553.16 c -2.14,-1.97 -2.46,-5.55 -2.46,-8.69 0,-3.14 0.31,-6.69 2.46,-8.66 0.97,-0.89 2.32,-1.63 4.23,-1.63 1.91,0 3.29,0.71 4.23,1.63 2.12,2.03 2.46,5.55 2.46,8.66 0,3.11 -0.31,6.72 -2.46,8.69 -0.94,0.89 -2.32,1.63 -4.23,1.63 -1.91,0 -3.26,-0.74 -4.23,-1.63 z m 7.52,-0.92 c 1.86,-1.74 1.97,-5.18 1.97,-7.78 0,-2.6 -0.09,-6 -1.97,-7.75 -0.77,-0.71 -1.8,-1.17 -3.29,-1.17 -1.49,0 -2.52,0.49 -3.26,1.17 -1.89,1.74 -1.97,5.18 -1.97,7.75 0,2.57 0.09,6.03 1.97,7.78 0.74,0.69 1.8,1.17 3.26,1.17 1.46,0 2.54,-0.46 3.29,-1.17 z"
         id="path83" />
      <path
         d="m 844.58,550.04 h 1.46 c 0.23,2.35 2.09,3.37 4.43,3.37 2.34,0 4.15,-1.03 4.15,-2.97 0,-1.26 -0.89,-2.32 -2.63,-2.54 l -2.77,-0.37 c -2.4,-0.31 -4.03,-1.46 -4.03,-3.63 0,-2.54 2.46,-4.2 5.15,-4.2 3.09,0 5.32,1.77 5.4,4.35 h -1.43 c -0.2,-2.06 -1.89,-3 -3.97,-3 -2.08,0 -3.69,1.12 -3.69,2.72 0,1.17 0.63,2.06 2.77,2.34 l 2.72,0.37 c 2.69,0.37 3.95,2.17 3.95,3.89 0,2.92 -2.63,4.43 -5.61,4.43 -3.4,0 -5.75,-1.8 -5.89,-4.75 z"
         id="path84" />
      <path
         d="m 866.33,539.44 v 0.77 h -7.74 v -0.77 z"
         id="path85" />
      <path
         d="m 867.07,536.49 v -0.93 l 3.17,-2.25 h 0.75 v 11.56 h -0.83 v -10.52 l -3.09,2.15 z"
         id="path86" />
    </g>
    <g
       id="g91">
      <path
         d="m 754.18,573.7 v 20.27 h -1.52 V 573.7 Z"
         id="path87" />
      <path
         d="m 759.85,579.67 h 1.32 l 0.11,2.75 c 0.74,-1.97 2.97,-3.15 4.98,-3.15 3.26,0 5.06,2.17 5.06,5.35 v 9.35 h -1.43 v -9.21 c 0,-2.4 -1.23,-4.09 -3.77,-4.09 -3.17,0 -4.83,2.63 -4.83,5.8 v 7.49 h -1.43 v -14.3 z"
         id="path88" />
      <path
         d="m 776.46,579.67 h 1.32 l 0.11,2.72 c 0.8,-1.89 2.92,-3.12 4.89,-3.12 1.69,0 2.95,0.54 3.92,1.37 1.66,1.4 2.4,3.6 2.4,6.15 0,2.55 -0.71,4.63 -2.26,6.06 -0.97,0.92 -2.32,1.52 -4.03,1.52 -2.09,0 -4.12,-1.17 -4.92,-3 v 8.29 h -1.43 z m 9.55,12.01 c 1.14,-1.23 1.63,-3.03 1.63,-4.86 0,-2.03 -0.57,-3.95 -1.94,-5.12 -0.71,-0.63 -1.69,-1.03 -2.95,-1.03 -1.26,0 -2.26,0.49 -3,1.17 -1.32,1.26 -1.89,3 -1.89,4.98 0,2.12 0.51,3.77 1.86,5 0.74,0.69 1.74,1.14 3.09,1.14 1.35,0 2.46,-0.49 3.2,-1.29 z"
         id="path89" />
      <path
         d="m 793.31,588.91 v -9.24 h 1.43 v 9.15 c 0,2.49 1.23,4.15 3.75,4.15 3.32,0 4.69,-2.66 4.69,-5.86 v -7.43 h 1.43 v 14.3 h -1.32 l -0.11,-2.69 c -0.8,1.89 -2.63,3.09 -4.78,3.09 -3.23,0 -5.09,-2.26 -5.09,-5.46 z"
         id="path90" />
      <path
         d="m 811.38,590.25 v -9.26 h -3.37 v -1.32 h 3.37 v -3.95 l 1.43,-0.34 v 4.29 h 4.49 v 1.32 h -4.49 v 9.06 c 0,1.57 0.49,2.77 2.57,2.77 0.77,0 1.37,-0.09 2.12,-0.26 v 1.26 c -0.71,0.23 -1.43,0.34 -2.23,0.34 -2.8,0 -3.89,-1.63 -3.89,-3.92 z"
         id="path91" />
    </g>
  </g>
  <path
     id="path198"
     d="M 61.299999,205.2 H 79.300003 M 425,205.2 h -18"
     style="fill:none;stroke:#000000;stroke-width:1;stroke-linecap:butt;stroke-linejoin:miter;stroke-miterlimit:10;stroke-dasharray:none;stroke-opacity:1"
     transform="matrix(1.3320001,0,0,1.3320001,-12.347689,-21.578403)"
     clip-path="url(#clipPath199)" />
  <text
     id="text199"
     xml:space="preserve"
     transform="translate(34.295211,257.74198)"
     clip-path="url(#clipPath200)"><tspan
       style="font-variant:normal;font-weight:normal;font-size:15.98px;font-family:'Times New Roman';writing-mode:lr-tb;fill:#000000;fill-opacity:1;fill-rule:nonzero;stroke:none"
       x="0 7.984375 15.96875"
       y="0"
       sodipodi:role="line"
       id="tspan199">168</tspan></text>
  <path
     id="path201"
     d="m 61.299999,196.60001 h 9.000004 m 354.699997,0 h -9 m -354.700001,-8.5 h 9.000004 m 354.699997,0 h -9 M 61.299999,179.5 h 9.000004 M 425,179.5 h -9 M 61.299999,170.89999 h 18.000004 m 345.699997,0 h -18"
     style="fill:none;stroke:#000000;stroke-width:1;stroke-linecap:butt;stroke-linejoin:miter;stroke-miterlimit:10;stroke-dasharray:none;stroke-opacity:1"
     transform="matrix(1.3320001,0,0,1.3320001,-12.347689,-21.578403)"
     clip-path="url(#clipPath202)" />
  <text
     id="text202"
     xml:space="preserve"
     transform="translate(34.295211,212.05438)"
     clip-path="url(#clipPath203)"><tspan
       style="font-variant:normal;font-weight:normal;font-size:15.98px;font-family:'Times New Roman';writing-mode:lr-tb;fill:#000000;fill-opacity:1;fill-rule:nonzero;stroke:none"
       x="0 7.984375 15.96875"
       y="0"
       sodipodi:role="line"
       id="tspan202">170</tspan></text>
  <path
     id="path204"
     d="m 61.299999,162.39999 h 9.000004 m 354.699997,0 h -9 M 61.299999,153.8 h 9.000004 M 425,153.8 h -9 M 61.299999,145.2 h 9.000004 M 425,145.2 h -9 M 61.299999,136.7 H 79.300003 M 425,136.7 h -18"
     style="fill:none;stroke:#000000;stroke-width:1;stroke-linecap:butt;stroke-linejoin:miter;stroke-miterlimit:10;stroke-dasharray:none;stroke-opacity:1"
     transform="matrix(1.3320001,0,0,1.3320001,-12.347689,-21.578403)"
     clip-path="url(#clipPath205)" />
  <text
     id="text205"
     xml:space="preserve"
     transform="translate(34.295211,166.49998)"
     clip-path="url(#clipPath206)"><tspan
       style="font-variant:normal;font-weight:normal;font-size:15.98px;font-family:'Times New Roman';writing-mode:lr-tb;fill:#000000;fill-opacity:1;fill-rule:nonzero;stroke:none"
       x="0 7.984375 15.96875"
       y="0"
       sodipodi:role="line"
       id="tspan205">172</tspan></text>
  <path
     id="path207"
     d="m 61.299999,128.10001 h 9.000004 m 354.699997,0 h -9 M 61.299999,119.5 h 9.000004 M 425,119.5 h -9 M 61.299999,110.9 h 9.000004 M 425,110.9 h -9 M 61.299999,102.4 H 79.300003 M 425,102.4 h -18"
     style="fill:none;stroke:#000000;stroke-width:1;stroke-linecap:butt;stroke-linejoin:miter;stroke-miterlimit:10;stroke-dasharray:none;stroke-opacity:1"
     transform="matrix(1.3320001,0,0,1.3320001,-12.347689,-21.578403)"
     clip-path="url(#clipPath208)" />
  <text
     id="text208"
     xml:space="preserve"
     transform="translate(34.295211,120.81238)"
     clip-path="url(#clipPath209)"><tspan
       style="font-variant:normal;font-weight:normal;font-size:15.98px;font-family:'Times New Roman';writing-mode:lr-tb;fill:#000000;fill-opacity:1;fill-rule:nonzero;stroke:none"
       x="0 7.984375 15.96875"
       y="0"
       sodipodi:role="line"
       id="tspan208">174</tspan></text>
  <path
     id="path210"
     d="m 61.299999,93.800003 h 9.000004 m 354.699997,0 h -9 M 61.299999,85.199997 h 9.000004 m 354.699997,0 h -9 m -354.700001,-8.5 h 9.000004 m 354.699997,0 h -9 M 61.299999,68.099998 h 18.000004 m 345.699997,0 h -18"
     style="fill:none;stroke:#000000;stroke-width:1;stroke-linecap:butt;stroke-linejoin:miter;stroke-miterlimit:10;stroke-dasharray:none;stroke-opacity:1"
     transform="matrix(1.3320001,0,0,1.3320001,-12.347689,-21.578403)"
     clip-path="url(#clipPath211)" />
  <text
     id="text211"
     xml:space="preserve"
     transform="translate(34.295211,75.124777)"
     clip-path="url(#clipPath212)"><tspan
       style="font-variant:normal;font-weight:normal;font-size:15.98px;font-family:'Times New Roman';writing-mode:lr-tb;fill:#000000;fill-opacity:1;fill-rule:nonzero;stroke:none"
       x="0 7.984375 15.96875"
       y="0"
       sodipodi:role="line"
       id="tspan211">176</tspan></text>
  <path
     id="path213"
     d="m 61.299999,59.5 h 9.000004 M 425,59.5 h -9 M 61.299999,51 h 9.000004 M 425,51 h -9 M 61.299999,42.400002 h 9.000004 m 354.699997,0 h -9 M 61.299999,33.799999 h 18.000004 m 345.699997,0 h -18"
     style="fill:none;stroke:#000000;stroke-width:1;stroke-linecap:butt;stroke-linejoin:miter;stroke-miterlimit:10;stroke-dasharray:none;stroke-opacity:1"
     transform="matrix(1.3320001,0,0,1.3320001,-12.347689,-21.578403)"
     clip-path="url(#clipPath214)" />
  <text
     id="text214"
     xml:space="preserve"
     transform="translate(34.295211,29.437197)"
     clip-path="url(#clipPath215)"><tspan
       style="font-variant:normal;font-weight:normal;font-size:15.98px;font-family:'Times New Roman';writing-mode:lr-tb;fill:#000000;fill-opacity:1;fill-rule:nonzero;stroke:none"
       x="0 7.984375 15.96875"
       y="0"
       sodipodi:role="line"
       id="tspan214">178</tspan></text>
  <path
     id="path216"
     d="m 61.299999,25.299999 h 9.000004 m 354.699997,0 h -9 M 61.299999,16.700001 h 9.000004 m 354.699997,0 h -9 M 94.400002,205.2 v -18 m 0,-170.499999 v 18"
     style="fill:none;stroke:#000000;stroke-width:1;stroke-linecap:butt;stroke-linejoin:miter;stroke-miterlimit:10;stroke-dasharray:none;stroke-opacity:1"
     transform="matrix(1.3320001,0,0,1.3320001,-12.347689,-21.578403)"
     clip-path="url(#clipPath217)" />
  <text
     id="text217"
     xml:space="preserve"
     transform="translate(109.40881,276.12358)"
     clip-path="url(#clipPath218)"><tspan
       style="font-variant:normal;font-weight:normal;font-size:15.98px;font-family:'Times New Roman';writing-mode:lr-tb;fill:#000000;fill-opacity:1;fill-rule:nonzero;stroke:none"
       x="0"
       y="0"
       id="tspan217">0</tspan></text>
  <path
     id="path219"
     d="m 107.6,205.2 v -9 m 0,-179.499999 v 9 M 120.8,205.2 v -9 m 0,-179.499999 v 9 M 134,205.2 v -9 m 0,-179.499999 v 9 M 147.3,205.2 v -9 m 0,-179.499999 v 9 M 160.5,205.2 v -18 m 0,-170.499999 v 18"
     style="fill:none;stroke:#000000;stroke-width:1;stroke-linecap:butt;stroke-linejoin:miter;stroke-miterlimit:10;stroke-dasharray:none;stroke-opacity:1"
     transform="matrix(1.3320001,0,0,1.3320001,-12.347689,-21.578403)"
     clip-path="url(#clipPath220)" />
  <text
     id="text220"
     xml:space="preserve"
     transform="translate(189.46961,276.12358)"
     clip-path="url(#clipPath221)"><tspan
       style="font-variant:normal;font-weight:normal;font-size:15.98px;font-family:'Times New Roman';writing-mode:lr-tb;fill:#000000;fill-opacity:1;fill-rule:nonzero;stroke:none"
       x="0 7.984375 15.96875"
       y="0"
       sodipodi:role="line"
       id="tspan220">100</tspan></text>
  <path
     id="path222"
     d="m 173.7,205.2 v -9 m 0,-179.499999 v 9 M 186.89999,205.2 v -9 m 0,-179.499999 v 9 M 200.2,205.2 v -9 m 0,-179.499999 v 9 M 213.39999,205.2 v -9 m 0,-179.499999 v 9 M 226.60001,205.2 v -18 m 0,-170.499999 v 18"
     style="fill:none;stroke:#000000;stroke-width:1;stroke-linecap:butt;stroke-linejoin:miter;stroke-miterlimit:10;stroke-dasharray:none;stroke-opacity:1"
     transform="matrix(1.3320001,0,0,1.3320001,-12.347689,-21.578403)"
     clip-path="url(#clipPath223)" />
  <text
     id="text223"
     xml:space="preserve"
     transform="translate(277.51481,276.12358)"
     clip-path="url(#clipPath224)"><tspan
       style="font-variant:normal;font-weight:normal;font-size:15.98px;font-family:'Times New Roman';writing-mode:lr-tb;fill:#000000;fill-opacity:1;fill-rule:nonzero;stroke:none"
       x="0 7.984375 15.96875"
       y="0"
       sodipodi:role="line"
       id="tspan223">200</tspan></text>
  <path
     id="path225"
     d="m 239.8,205.2 v -9 m 0,-179.499999 v 9 M 253.10001,205.2 v -9 m 0,-179.499999 v 9 M 266.29999,205.2 v -9 m 0,-179.499999 v 9 M 279.5,205.2 v -9 m 0,-179.499999 v 9 M 292.70001,205.2 v -18 m 0,-170.499999 v 18"
     style="fill:none;stroke:#000000;stroke-width:1;stroke-linecap:butt;stroke-linejoin:miter;stroke-miterlimit:10;stroke-dasharray:none;stroke-opacity:1"
     transform="matrix(1.3320001,0,0,1.3320001,-12.347689,-21.578403)"
     clip-path="url(#clipPath226)" />
  <text
     id="text226"
     xml:space="preserve"
     transform="translate(365.56001,276.12358)"
     clip-path="url(#clipPath227)"><tspan
       style="font-variant:normal;font-weight:normal;font-size:15.98px;font-family:'Times New Roman';writing-mode:lr-tb;fill:#000000;fill-opacity:1;fill-rule:nonzero;stroke:none"
       x="0 7.984375 15.96875"
       y="0"
       sodipodi:role="line"
       id="tspan226">300</tspan></text>
  <path
     id="path228"
     d="m 306,205.2 v -9 m 0,-179.499999 v 9 M 319.20001,205.2 v -9 m 0,-179.499999 v 9 M 332.39999,205.2 v -9 m 0,-179.499999 v 9 M 345.60001,205.2 v -9 m 0,-179.499999 v 9 M 358.89999,205.2 v -18 m 0,-170.499999 v 18"
     style="fill:none;stroke:#000000;stroke-width:1;stroke-linecap:butt;stroke-linejoin:miter;stroke-miterlimit:10;stroke-dasharray:none;stroke-opacity:1"
     transform="matrix(1.3320001,0,0,1.3320001,-12.347689,-21.578403)"
     clip-path="url(#clipPath229)" />
  <text
     id="text229"
     xml:space="preserve"
     transform="translate(453.73841,276.12358)"
     clip-path="url(#clipPath230)"><tspan
       style="font-variant:normal;font-weight:normal;font-size:15.98px;font-family:'Times New Roman';writing-mode:lr-tb;fill:#000000;fill-opacity:1;fill-rule:nonzero;stroke:none"
       x="0 7.984375 15.96875"
       y="0"
       sodipodi:role="line"
       id="tspan229">400</tspan></text>
  <path
     id="path231"
     d="m 372.10001,205.2 v -9 m 0,-179.499999 v 9 M 385.29999,205.2 v -9 m 0,-179.499999 v 9 M 398.5,205.2 v -9 m 0,-179.499999 v 9 M 411.79999,205.2 v -9 m 0,-179.499999 v 9 M 425,205.2 v -18 m 0,-170.499999 v 18"
     style="fill:none;stroke:#000000;stroke-width:1;stroke-linecap:butt;stroke-linejoin:miter;stroke-miterlimit:10;stroke-dasharray:none;stroke-opacity:1"
     transform="matrix(1.3320001,0,0,1.3320001,-12.347689,-21.578403)"
     clip-path="url(#clipPath232)" />
  <text
     id="text232"
     xml:space="preserve"
     transform="translate(541.78371,276.12358)"
     clip-path="url(#clipPath233)"><tspan
       style="font-variant:normal;font-weight:normal;font-size:15.98px;font-family:'Times New Roman';writing-mode:lr-tb;fill:#000000;fill-opacity:1;fill-rule:nonzero;stroke:none"
       x="0 7.984375 15.96875"
       y="0"
       sodipodi:role="line"
       id="tspan232">500</tspan></text>
  <path
     id="path234"
     d="M 61.299999,16.700001 V 205.2 H 425 V 16.700001 Z"
     style="fill:none;stroke:#000000;stroke-width:1;stroke-linecap:butt;stroke-linejoin:miter;stroke-miterlimit:10;stroke-dasharray:none;stroke-opacity:1"
     transform="matrix(1.3320001,0,0,1.3320001,-12.347689,-21.578403)"
     clip-path="url(#clipPath235)" />
  <text
     id="text235"
     xml:space="preserve"
     transform="translate(201.43831,177.82198)"
     clip-path="url(#clipPath236)"><tspan
       style="font-variant:normal;font-weight:normal;font-size:15.98px;font-family:'Times New Roman';writing-mode:lr-tb;fill:#000000;fill-opacity:1;fill-rule:nonzero;stroke:none"
       x="0 5.3177185 13.302094 20.389786 25.707504 32.795197 39.882889 46.09729 50.53392 58.518295 66.50267 70.494858 78.479233 85.566925 97.98793 105.97231 110.40894 118.39331"
       y="0"
       sodipodi:role="line"
       id="tspan235">Increasing damping</tspan></text>
  <path
     id="path237"
     d="M 156.60001,126.9 173.7,132.39999 161.7,119.1 m -47.5,-25.299997 59.5,38.599987"
     style="fill:none;stroke:#000000;stroke-width:1;stroke-linecap:butt;stroke-linejoin:miter;stroke-miterlimit:10;stroke-dasharray:none;stroke-opacity:1"
     transform="matrix(1.3320001,0,0,1.3320001,-12.347689,-21.578403)"
     clip-path="url(#clipPath238)" />
  <text
     id="text238"
     xml:space="preserve"
     transform="rotate(-90,96.715763,85.620275)"
     clip-path="url(#clipPath239)"><tspan
       style="font-variant:normal;font-weight:normal;font-size:15.98px;font-family:'Times New Roman';writing-mode:lr-tb;fill:#000000;fill-opacity:1;fill-rule:nonzero;stroke:none"
       x="0 8.6385651 15.726257 28.147263 36.131638 43.21933 48.537048 55.624741 60.061371 68.045746 73.363464 80.451157 84.443344 89.761063 96.147003 106.79803"
       y="0"
       sodipodi:role="line"
       id="tspan238">Temperature (°C)</tspan></text>
  <text
     id="text239"
     xml:space="preserve"
     transform="translate(284.47721,300.63238)"
     clip-path="url(#clipPath240)"><tspan
       style="font-variant:normal;font-weight:normal;font-size:15.98px;font-family:'Times New Roman';writing-mode:lr-tb;fill:#000000;fill-opacity:1;fill-rule:nonzero;stroke:none"
       x="0 9.1925507 13.629181 26.050186 33.137878 37.130066 42.447784 48.662186"
       y="0"
       sodipodi:role="line"
       id="tspan239">Time (s)</tspan></text>
  <path
     id="path241"
     d="M 61.299999,170.89999 H 63 h 1.599998 1.700005 1.599999 1.699996 1.599999 1.700005 H 74.5 76.199997 77.800003 79.5 h 1.599998 1.700005 1.599999 1.699996 1.700005 1.599999 1.699996 1.599999 L 94.400002,85.199997 H 96 97.699997 99.300003 101 h 1.6 1.7 1.6 1.7 1.6 1.7 1.6 1.7 1.7 1.6 1.7 1.6 1.7 1.6 1.7 1.6 1.70001 1.59999 1.69999 1.60001 1.7 1.6 1.7 1.7 1.6 1.7 1.60001 1.69999 1.59999 1.70002 1.59999 1.69999 1.60001 1.7 1.6 1.7 1.60001 1.69999 1.7 1.60001 1.69999 1.59999 1.70002 1.59999 1.69999 1.60001 1.7 1.6 1.7 1.60001 1.69999 1.59999 1.70002 1.59999 1.69999 1.70002 1.59999 1.69999 1.60001 1.7 1.6 1.7 1.60001 1.69999 1.59999 1.70002 1.59999 1.69999 1.60001 1.7 1.69999 1.60001 1.7 1.6 1.7 1.60001 1.69999 1.59999 1.70002 1.59999 1.69999 1.60001 1.7 1.6 1.7 1.7 1.6 1.7 1.60001 1.69999 1.59999 1.70002 1.59999 1.69999 1.60001 1.70001 1.59998 1.70001 1.60001 1.69998 1.6 1.70002 1.69998 1.6 1.70002 1.6 1.69998 1.60001 1.70001 1.59998 1.70001 1.60001 1.69998 1.6 1.70002 1.6 1.69998 1.70002 1.6 1.69998 1.60001 1.70001 1.59998 1.70001 1.60001 1.69998 1.6 1.70002 1.6 1.69998 1.60001 1.70001 1.59998 1.70001 1.70001 1.59998 1.70001 1.60001 1.69998 1.6 1.70002 1.6 1.69998 1.60001 1.70001 1.59998 1.70001 1.60001 1.69998 1.70001 1.60001 1.69998 1.6 1.70002 1.6 1.69998 1.60001 1.70001 1.59998 1.70001 1.60001 1.69998 1.6 1.70002 1.69998 1.6 1.70002 1.6 1.69998 1.60001 1.70001 1.59998 1.70001 1.60001 1.69998 1.6 1.70002 1.6 1.69998 1.60001 1.70001 1.69998 1.60001 1.70001 1.59998 1.70001 1.60001 1.69998 1.6 1.70002 1.6 1.69998 H 420 421.70001 423.29999 425"
     style="fill:none;stroke:#ff0000;stroke-width:1;stroke-linecap:butt;stroke-linejoin:miter;stroke-miterlimit:10;stroke-dasharray:none;stroke-opacity:1"
     transform="matrix(1.3320001,0,0,1.3320001,-12.347689,-21.578403)"
     clip-path="url(#clipPath242)" />
  <path
     id="path243"
     d="M 61.299999,177.8 H 63 h 1.599998 1.700005 1.599999 1.699996 1.599999 1.700005 H 74.5 76.199997 77.800003 79.5 h 1.599998 1.700005 1.599999 1.699996 1.700005 1.599999 1.699996 1.599999 1.700005 H 96 l 1.699997,-0.69999 1.600006,-1.20002 L 101,174 l 1.6,-2.2 1.7,-2.8 1.6,-2.5 1.7,-2.39999 1.6,-2.30001 1.7,-2 1.6,-2.19999 1.7,-2.10001 1.7,-2.10001 1.6,-1.79998 1.7,-1.90001 1.6,-1.7 1.7,-1.89999 1.6,-1.70002 1.7,-1.59999 1.6,-1.5 1.70001,-1.6 1.59999,-1.5 1.69999,-1.5 1.60001,-1.4 1.7,-1.40001 1.6,-1.19999 1.7,-1.4 1.7,-1.19999 1.6,-1.20002 1.7,-1.19999 1.60001,-1 1.69999,-1.2 1.59999,-1 1.70002,-1 1.59999,-0.9 1.69999,-1 1.60001,-0.9 1.7,-1 1.6,-0.9 1.7,-0.8 1.60001,-0.7 1.69999,-0.9 1.7,-0.7 1.60001,-0.8 1.69999,-0.7 1.59999,-0.7 1.70002,-0.7 1.59999,-0.7 1.69999,-0.5 1.60001,-0.7 1.7,-0.5 1.6,-0.5 1.7,-0.7 1.60001,-0.5 1.69999,-0.5 1.59999,-0.5 1.70002,-0.5 1.59999,-0.4 1.69999,-0.5 1.70002,-0.5 1.59999,-0.3 1.69999,-0.5 1.60001,-0.4 1.7,-0.3 1.6,-0.4 1.7,-0.3 1.60001,-0.4 1.69999,-0.3 1.59999,-0.3 1.70002,-0.4 1.59999,-0.3 1.69999,-0.4 1.60001,-0.3 1.7,-0.2 1.69999,-0.3 1.60001,-0.2 1.7,-0.3 1.6,-0.2 1.7,-0.400002 1.60001,-0.1 L 228.3,99.300003 229.89999,99 l 1.70002,-0.199997 1.59999,-0.200005 1.69999,-0.199996 1.60001,-0.1 1.7,-0.200005 1.6,-0.199996 1.7,-0.1 1.7,-0.200005 1.6,-0.199996 1.7,-0.200005 1.60001,-0.1 1.69999,-0.199996 1.59999,-0.200005 1.70002,-0.1 H 254.7 L 256.39999,96.399998 258,96.199997 259.70001,96 h 1.59998 L 263,95.9 l 1.60001,-0.200005 h 1.69998 l 1.6,-0.199997 h 1.70002 l 1.69998,-0.1 1.6,-0.200005 h 1.70002 l 1.6,-0.199997 h 1.69998 L 279.5,94.799999 h 1.70001 l 1.59998,-0.100006 h 1.70001 1.60001 l 1.69998,-0.199997 h 1.6 l 1.70002,-0.199997 h 1.6 1.69998 l 1.70002,-0.100006 h 1.6 1.69998 L 301,94 h 1.70001 1.59998 L 306,93.800003 h 1.60001 1.69998 1.6 l 1.70002,-0.200005 h 1.6 1.69998 1.60001 l 1.70001,-0.1 h 1.59998 1.70001 1.70001 1.59998 L 327.5,93.300001 h 1.60001 1.69998 1.6 1.70002 1.6 l 1.69998,-0.200005 H 339 h 1.70001 1.59998 1.70001 1.60001 1.69998 L 349,93 h 1.60001 1.69998 1.6 1.70002 1.6 1.69998 1.60001 1.70001 l 1.59998,-0.199997 h 1.70001 1.60001 1.69998 1.6 1.70002 1.69998 1.6 1.70002 1.6 1.69998 1.60001 1.70001 l 1.59998,-0.200005 H 387 h 1.60001 1.69998 1.6 1.70002 1.6 1.69998 1.60001 1.70001 1.69998 1.60001 1.70001 1.59998 1.70001 1.60001 1.69998 1.6 1.70002 1.6 1.69998 H 420 l 1.70001,-0.199996 h 1.59998 L 425,101.2"
     style="fill:none;stroke:#0000ff;stroke-width:1;stroke-linecap:butt;stroke-linejoin:miter;stroke-miterlimit:10;stroke-dasharray:none;stroke-opacity:1"
     transform="matrix(1.3320001,0,0,1.3320001,-12.347689,-21.578403)"
     clip-path="url(#clipPath244)" />
  <path
     id="path245"
     d="m 61.299999,177.8 h 3.299999 3.300004 3.299995 3.300003 3.300003 3.299995 3.300004 3.400001 3.299995 3.300004 l 3.299995,-0.40001 3.300003,-2.5 3.3,-4.69999 3.3,-6.59999 3.3,-8.30001 3.3,-9.69999 3.3,-10.70002 3.3,-10.19999 3.3,-8.4 3.3,-6.5 3.3,-4.8 3.3,-3.5 3.3,-2.199997 3.4,-1.700005 3.3,-1.199996 3.3,-0.900002 3.30001,-0.800003 3.29998,-0.5 3.30001,-0.599999 3.3,-0.1 3.3,-0.400002 3.30001,-0.1 3.29998,-0.199997 H 173.7 l 3.3,-0.200005 h 3.3 l 3.30001,-0.199996 h 3.29998 3.30001 3.40001 3.29998 3.30001 3.3 3.3 3.30001 3.29998 3.30001 3.3 3.3 3.30001 3.29998 3.30001 3.3 3.3 3.4 3.3 3.3 3.30001 3.29998 3.30002 3.29999 3.29999 3.30002 3.29998 3.30002 3.29999 3.29999 3.30002 3.29998 3.30002 3.4 3.29998 3.30002 3.29999 3.29999 3.30002 3.29998 3.30002 3.29999 3.29999 3.30002 3.29998 3.30002 3.29999 3.29999 3.30002 3.39999 3.29999 3.30002 3.29998 3.30002 3.29999 3.29999 3.30002 3.29998 3.30002 3.29999 3.29999 3.30002 3.29998 3.30002 3.29999 3.39999 3.30002 3.29999 3.29999 3.30002 3.29998 3.30002 H 425"
     style="fill:none;stroke:#00ff00;stroke-width:1;stroke-linecap:butt;stroke-linejoin:miter;stroke-miterlimit:10;stroke-dasharray:none;stroke-opacity:1"
     transform="matrix(1.3320001,0,0,1.3320001,-12.347689,-21.578403)"
     clip-path="url(#clipPath246)" />
  <path
     id="path247"
     d="m 61.299999,177.8 h 3.299999 3.300004 3.299995 3.300003 3.300003 3.299995 3.300004 3.400001 3.299995 3.300004 l 3.299995,-0.40001 3.300003,-2.5 3.3,-4.69999 3.3,-6.59999 3.3,-8.30001 3.3,-9.69999 3.3,-11 3.3,-12.00001 3.3,-12.3 3.3,-11.499997 3.3,-9.300003 3.3,-7.199997 3.3,-5.5 3.4,-3.700005 3.3,-2.400001 3.3,-1.199997 3.30001,-0.400002 3.29998,0.700005 3.30001,1.399994 3.3,2.100006 3.3,2.699997 3.30001,3.099998 3.29998,3.400002 3.30001,3.800003 3.3,3.599999 3.3,2.900001 3.30001,2 L 186.89999,96 190.2,96.400002 193.60001,96 196.89999,95.400002 200.2,94.300003 203.5,93.5 l 3.3,-0.900002 3.30001,-0.699996 3.29998,-0.300004 3.30001,-0.199996 h 3.3 3.3 l 3.30001,0.400001 3.29998,0.1 3.30001,0.400001 3.3,0.1 3.3,0.199996 h 3.4 3.3 3.3 3.30001 l 3.29998,-0.199996 H 259.70001 263 l 3.29999,-0.1 h 3.30002 3.29998 3.30002 3.29999 3.29999 3.30002 3.29998 l 3.30002,0.1 h 3.4 3.29998 3.30002 3.29999 3.29999 3.30002 3.29998 3.30002 3.29999 3.29999 3.30002 3.29998 3.30002 3.29999 3.29999 3.30002 3.39999 3.29999 3.30002 3.29998 3.30002 3.29999 3.29999 3.30002 3.29998 3.30002 3.29999 3.29999 3.30002 3.29998 3.30002 3.29999 3.39999 3.30002 3.29999 3.29999 3.30002 3.29998 3.30002 H 425"
     style="fill:none;stroke:#00ffff;stroke-width:1;stroke-linecap:butt;stroke-linejoin:miter;stroke-miterlimit:10;stroke-dasharray:none;stroke-opacity:1"
     transform="matrix(1.3320001,0,0,1.3320001,-12.347689,-21.578403)"
     clip-path="url(#clipPath248)" />
  <path
     id="path249"
     d="m 61.299999,177.8 h 3.299999 3.300004 3.299995 3.300003 3.300003 3.299995 3.300004 3.400001 3.299995 3.300004 l 3.299995,-0.40001 3.300003,-2.5 3.3,-4.69999 3.3,-6.59999 3.3,-8.30001 3.3,-9.69999 3.3,-11 3.3,-12.00001 3.3,-12.8 3.3,-13.8 3.3,-13.5 3.3,-12.300003 3.3,-9.999996 3.4,-7.700001 3.3,-5.799999 3.3,-4.299999 3.30001,-2.700001 3.29998,-1.600003 3.30001,-0.299999 3.3,0.299999 3.3,1.400002 3.30001,1.900002 3.29998,2.5 L 173.7,47 l 3.3,3.5 3.3,3.900002 3.30001,4.299999 3.29998,4.399997 3.30001,4.700005 3.40001,4.899994 3.29998,5.200005 3.30001,5.299995 3.3,5.300003 3.3,5.5 3.30001,5.099998 3.29998,4.100002 3.30001,3 3.3,1.2 3.3,-0.6 3.30001,-2.2 3.29998,-3.6 3.30001,-4.400002 3.3,-5 3.3,-4.799995 3.4,-4 3.3,-2.900001 3.3,-1.700005 3.30001,-0.5 L 256.39999,78 259.70001,79.199997 263,81 l 3.29999,2.5 3.30002,2.900002 3.29998,3.299995 3.30002,3.600006 3.29999,3.399994 3.29999,2.800003 3.30002,2 3.29998,0.9 3.30002,-0.4 3.4,-1.5 3.29998,-2.400002 3.30002,-2.900001 3.29999,-3.299995 3.29999,-3.200005 3.30002,-2.599999 3.29998,-1.900001 3.30002,-0.799995 H 322.5 l 3.29999,0.799995 3.30002,1.600006 L 332.39999,88 335.70001,90.699997 339,93.5 l 3.29999,2.5 3.30002,2.300003 3.39999,1.299995 3.29999,0.600002 3.30002,-0.399997 3.29998,-1.200005 3.30002,-2 3.29999,-2.400001 3.29999,-2.599999 3.30002,-2.400001 3.29998,-2.099999 3.30002,-1.299995 3.29999,-0.600006 3.29999,0.200005 3.30002,1 3.29998,1.799995 3.30002,2.200005 L 398.5,92.800003 401.89999,95 l 3.30002,1.900002 3.29999,1.400001 3.29999,0.5 h 3.30002 l 3.29998,-0.900001 3.30002,-1.5 L 425,94.5"
     style="fill:none;stroke:#ff00ff;stroke-width:1;stroke-linecap:butt;stroke-linejoin:miter;stroke-miterlimit:10;stroke-dasharray:none;stroke-opacity:1"
     transform="matrix(1.3320001,0,0,1.3320001,-12.347689,-21.578403)"
     clip-path="url(#clipPath250)" />
  <path
     id="path251"
     d="M 61.299999,16.700001 V 205.2 H 425 V 16.700001 Z"
     style="fill:none;stroke:#000000;stroke-width:1;stroke-linecap:butt;stroke-linejoin:miter;stroke-miterlimit:10;stroke-dasharray:none;stroke-opacity:1"
     transform="matrix(1.3320001,0,0,1.3320001,-12.347689,-21.578403)"
     clip-path="url(#clipPath252)" />
</svg>
