<?xml version="1.0" encoding="UTF-8" standalone="no"?>
<svg
   id="Ebene_1"
   data-name="Ebene 1"
   viewBox="0 0 551.0428 308.18888"
   version="1.1"
   sodipodi:docname="pid_control_integral.svg"
   width="551.04279"
   height="308.18887"
   inkscape:version="1.3.2 (1:1.3.2+202311252150+091e20ef0f)"
   xmlns:inkscape="http://www.inkscape.org/namespaces/inkscape"
   xmlns:sodipodi="http://sodipodi.sourceforge.net/DTD/sodipodi-0.dtd"
   xmlns="http://www.w3.org/2000/svg"
   xmlns:svg="http://www.w3.org/2000/svg"
   xmlns:ns1="http://www.iki.fi/pav/software/textext/">
  <sodipodi:namedview
     id="namedview105"
     pagecolor="#ffffff"
     bordercolor="#666666"
     borderopacity="1.0"
     inkscape:showpageshadow="2"
     inkscape:pageopacity="0.0"
     inkscape:pagecheckerboard="0"
     inkscape:deskcolor="#d1d1d1"
     inkscape:zoom="3.726487"
     inkscape:cx="481.68691"
     inkscape:cy="117.00027"
     inkscape:window-width="1850"
     inkscape:window-height="1016"
     inkscape:window-x="1436"
     inkscape:window-y="27"
     inkscape:window-maximized="1"
     inkscape:current-layer="g92" />
  <defs
     id="defs105">
    <clipPath
       clipPathUnits="userSpaceOnUse"
       id="clipPath325">
      <path
         d="M 338.54169,151.04199 H 2213.5417 V 1191.667 H 338.54169 Z"
         transform="matrix(0.24024021,0,0,0.24024021,-81.556525,-36.28636)"
         clip-rule="evenodd"
         id="path325" />
    </clipPath>
    <clipPath
       clipPathUnits="userSpaceOnUse"
       id="clipPath326">
      <path
         d="M 338.54169,151.04199 H 2213.5417 V 1191.667 H 338.54169 Z"
         transform="matrix(0.31999999,0,0,0.31999999,-155.9422,-241.34022)"
         clip-rule="evenodd"
         id="path326" />
    </clipPath>
    <clipPath
       clipPathUnits="userSpaceOnUse"
       id="clipPath328">
      <path
         d="M 338.54169,151.04199 H 2213.5417 V 1191.667 H 338.54169 Z"
         transform="matrix(0.24024021,0,0,0.24024021,-81.556525,-36.28636)"
         clip-rule="evenodd"
         id="path328" />
    </clipPath>
    <clipPath
       clipPathUnits="userSpaceOnUse"
       id="clipPath329">
      <path
         d="M 338.54169,151.04199 H 2213.5417 V 1191.667 H 338.54169 Z"
         transform="matrix(0.31999999,0,0,0.31999999,-155.9422,-186.32863)"
         clip-rule="evenodd"
         id="path329" />
    </clipPath>
    <clipPath
       clipPathUnits="userSpaceOnUse"
       id="clipPath331">
      <path
         d="M 338.54169,151.04199 H 2213.5417 V 1191.667 H 338.54169 Z"
         transform="matrix(0.24024021,0,0,0.24024021,-81.556525,-36.28636)"
         clip-rule="evenodd"
         id="path331" />
    </clipPath>
    <clipPath
       clipPathUnits="userSpaceOnUse"
       id="clipPath332">
      <path
         d="M 338.54169,151.04199 H 2213.5417 V 1191.667 H 338.54169 Z"
         transform="matrix(0.31999999,0,0,0.31999999,-155.9422,-131.45024)"
         clip-rule="evenodd"
         id="path332" />
    </clipPath>
    <clipPath
       clipPathUnits="userSpaceOnUse"
       id="clipPath334">
      <path
         d="M 338.54169,151.04199 H 2213.5417 V 1191.667 H 338.54169 Z"
         transform="matrix(0.24024021,0,0,0.24024021,-81.556525,-36.28636)"
         clip-rule="evenodd"
         id="path334" />
    </clipPath>
    <clipPath
       clipPathUnits="userSpaceOnUse"
       id="clipPath335">
      <path
         d="M 338.54169,151.04199 H 2213.5417 V 1191.667 H 338.54169 Z"
         transform="matrix(0.31999999,0,0,0.31999999,-155.9422,-76.571837)"
         clip-rule="evenodd"
         id="path335" />
    </clipPath>
    <clipPath
       clipPathUnits="userSpaceOnUse"
       id="clipPath337">
      <path
         d="M 338.54169,151.04199 H 2213.5417 V 1191.667 H 338.54169 Z"
         transform="matrix(0.24024021,0,0,0.24024021,-81.556525,-36.28636)"
         clip-rule="evenodd"
         id="path337" />
    </clipPath>
    <clipPath
       clipPathUnits="userSpaceOnUse"
       id="clipPath338">
      <path
         d="M 338.54169,151.04199 H 2213.5417 V 1191.667 H 338.54169 Z"
         transform="matrix(0.31999999,0,0,0.31999999,-186.9666,-344.96983)"
         clip-rule="evenodd"
         id="path338" />
    </clipPath>
    <clipPath
       clipPathUnits="userSpaceOnUse"
       id="clipPath340">
      <path
         d="M 338.54169,151.04199 H 2213.5417 V 1191.667 H 338.54169 Z"
         transform="matrix(0.24024021,0,0,0.24024021,-81.556525,-36.28636)"
         clip-rule="evenodd"
         id="path340" />
    </clipPath>
    <clipPath
       clipPathUnits="userSpaceOnUse"
       id="clipPath341">
      <path
         d="M 338.54169,151.04199 H 2213.5417 V 1191.667 H 338.54169 Z"
         transform="matrix(0.31999999,0,0,0.31999999,-254.4949,-344.96983)"
         clip-rule="evenodd"
         id="path341" />
    </clipPath>
    <clipPath
       clipPathUnits="userSpaceOnUse"
       id="clipPath343">
      <path
         d="M 338.54169,151.04199 H 2213.5417 V 1191.667 H 338.54169 Z"
         transform="matrix(0.24024021,0,0,0.24024021,-81.556525,-36.28636)"
         clip-rule="evenodd"
         id="path343" />
    </clipPath>
    <clipPath
       clipPathUnits="userSpaceOnUse"
       id="clipPath344">
      <path
         d="M 338.54169,151.04199 H 2213.5417 V 1191.667 H 338.54169 Z"
         transform="matrix(0.31999999,0,0,0.31999999,-322.039,-344.96983)"
         clip-rule="evenodd"
         id="path344" />
    </clipPath>
    <clipPath
       clipPathUnits="userSpaceOnUse"
       id="clipPath346">
      <path
         d="M 338.54169,151.04199 H 2213.5417 V 1191.667 H 338.54169 Z"
         transform="matrix(0.24024021,0,0,0.24024021,-81.556525,-36.28636)"
         clip-rule="evenodd"
         id="path346" />
    </clipPath>
    <clipPath
       clipPathUnits="userSpaceOnUse"
       id="clipPath347">
      <path
         d="M 338.54169,151.04199 H 2213.5417 V 1191.667 H 338.54169 Z"
         transform="matrix(0.31999999,0,0,0.31999999,-393.5674,-344.96983)"
         clip-rule="evenodd"
         id="path347" />
    </clipPath>
    <clipPath
       clipPathUnits="userSpaceOnUse"
       id="clipPath349">
      <path
         d="M 338.54169,151.04199 H 2213.5417 V 1191.667 H 338.54169 Z"
         transform="matrix(0.24024021,0,0,0.24024021,-81.556525,-36.28636)"
         clip-rule="evenodd"
         id="path349" />
    </clipPath>
    <clipPath
       clipPathUnits="userSpaceOnUse"
       id="clipPath350">
      <path
         d="M 338.54169,151.04199 H 2213.5417 V 1191.667 H 338.54169 Z"
         transform="matrix(0.31999999,0,0,0.31999999,-464.9626,-344.96983)"
         clip-rule="evenodd"
         id="path350" />
    </clipPath>
    <clipPath
       clipPathUnits="userSpaceOnUse"
       id="clipPath352">
      <path
         d="M 338.54169,151.04199 H 2213.5417 V 1191.667 H 338.54169 Z"
         transform="matrix(0.24024021,0,0,0.24024021,-81.556525,-36.28636)"
         clip-rule="evenodd"
         id="path352" />
    </clipPath>
    <clipPath
       clipPathUnits="userSpaceOnUse"
       id="clipPath353">
      <path
         d="M 338.54169,151.04199 H 2213.5417 V 1191.667 H 338.54169 Z"
         transform="matrix(0.31999999,0,0,0.31999999,-536.491,-344.96983)"
         clip-rule="evenodd"
         id="path353" />
    </clipPath>
    <clipPath
       clipPathUnits="userSpaceOnUse"
       id="clipPath355">
      <path
         d="M 338.54169,151.04199 H 2213.5417 V 1191.667 H 338.54169 Z"
         transform="matrix(0.24024021,0,0,0.24024021,-81.556525,-36.28636)"
         clip-rule="evenodd"
         id="path355" />
    </clipPath>
    <clipPath
       clipPathUnits="userSpaceOnUse"
       id="clipPath356">
      <path
         d="M 338.54169,151.04199 H 2213.5417 V 1191.667 H 338.54169 Z"
         transform="matrix(0.31999999,0,0,0.31999999,-608.0194,-344.96983)"
         clip-rule="evenodd"
         id="path356" />
    </clipPath>
    <clipPath
       clipPathUnits="userSpaceOnUse"
       id="clipPath358">
      <path
         d="M 338.54169,151.04199 H 2213.5417 V 1191.667 H 338.54169 Z"
         transform="matrix(0.24024021,0,0,0.24024021,-81.556525,-36.28636)"
         clip-rule="evenodd"
         id="path358" />
    </clipPath>
    <clipPath
       clipPathUnits="userSpaceOnUse"
       id="clipPath359">
      <path
         d="M 338.54169,151.04199 H 2213.5417 V 1191.667 H 338.54169 Z"
         transform="matrix(0.31999999,0,0,0.31999999,-631.0437,-303.94425)"
         clip-rule="evenodd"
         id="path359" />
    </clipPath>
    <clipPath
       clipPathUnits="userSpaceOnUse"
       id="clipPath361">
      <path
         d="M 338.54169,151.04199 H 2213.5417 V 1191.667 H 338.54169 Z"
         transform="matrix(0.24024021,0,0,0.24024021,-81.556525,-36.28636)"
         clip-rule="evenodd"
         id="path361" />
    </clipPath>
    <clipPath
       clipPathUnits="userSpaceOnUse"
       id="clipPath362">
      <path
         d="M 338.54169,151.04199 H 2213.5417 V 1191.667 H 338.54169 Z"
         transform="matrix(0.31999999,0,0,0.31999999,-631.0437,-254.52704)"
         clip-rule="evenodd"
         id="path362" />
    </clipPath>
    <clipPath
       clipPathUnits="userSpaceOnUse"
       id="clipPath364">
      <path
         d="M 338.54169,151.04199 H 2213.5417 V 1191.667 H 338.54169 Z"
         transform="matrix(0.24024021,0,0,0.24024021,-81.556525,-36.28636)"
         clip-rule="evenodd"
         id="path364" />
    </clipPath>
    <clipPath
       clipPathUnits="userSpaceOnUse"
       id="clipPath365">
      <path
         d="M 338.54169,151.04199 H 2213.5417 V 1191.667 H 338.54169 Z"
         transform="matrix(0,0.31999999,-0.31999999,0,209.0911,-132.0765)"
         clip-rule="evenodd"
         id="path365" />
    </clipPath>
    <clipPath
       clipPathUnits="userSpaceOnUse"
       id="clipPath366">
      <path
         d="M 338.54169,151.04199 H 2213.5417 V 1191.667 H 338.54169 Z"
         transform="matrix(0,0.31999999,-0.31999999,0,307.6298,-668.6062)"
         clip-rule="evenodd"
         id="path366" />
    </clipPath>
    <clipPath
       clipPathUnits="userSpaceOnUse"
       id="clipPath367">
      <path
         d="M 338.54169,151.04199 H 2213.5417 V 1191.667 H 338.54169 Z"
         transform="matrix(0.31999999,0,0,0.31999999,-378.4186,-370.5442)"
         clip-rule="evenodd"
         id="path367" />
    </clipPath>
    <clipPath
       clipPathUnits="userSpaceOnUse"
       id="clipPath369">
      <path
         d="M 338.54169,151.04199 H 2213.5417 V 1191.667 H 338.54169 Z"
         transform="matrix(0.24024021,0,0,0.24024021,-81.556525,-36.28636)"
         clip-rule="evenodd"
         id="path369" />
    </clipPath>
    <clipPath
       clipPathUnits="userSpaceOnUse"
       id="clipPath371">
      <path
         d="M 338.54169,151.04199 H 2213.5417 V 1191.667 H 338.54169 Z"
         transform="matrix(0.24024021,0,0,0.24024021,-81.556525,-36.28636)"
         clip-rule="evenodd"
         id="path371" />
    </clipPath>
    <clipPath
       clipPathUnits="userSpaceOnUse"
       id="clipPath373">
      <path
         d="M 338.54169,151.04199 H 2213.5417 V 1191.667 H 338.54169 Z"
         transform="matrix(0.24024021,0,0,0.24024021,-81.556525,-36.28636)"
         clip-rule="evenodd"
         id="path373" />
    </clipPath>
    <clipPath
       clipPathUnits="userSpaceOnUse"
       id="clipPath375">
      <path
         d="M 338.54169,151.04199 H 2213.5417 V 1191.667 H 338.54169 Z"
         transform="matrix(0.24024021,0,0,0.24024021,-81.556525,-36.28636)"
         clip-rule="evenodd"
         id="path375" />
    </clipPath>
    <g
       id="id-5dbe8d40-4f78-4117-a6ec-60f3bd0fa9d9">
      <symbol
         overflow="visible"
         id="id-32e2d8d9-db68-40d9-91e4-96bbf7b9367e">
        <path
           style="stroke:none"
           d=""
           id="id-e364c2d2-0627-4ab5-b884-20875c40d3a5" />
      </symbol>
      <symbol
         overflow="visible"
         id="id-414415d1-e8d1-43d1-a6e4-0b8b290c2623">
        <path
           style="stroke:none"
           d="M 5.078125,-4.03125 C 5.0625,-4.0625 5.03125,-4.140625 5.03125,-4.171875 c 0,0 0.171875,-0.140625 0.28125,-0.21875 l 1.75,-1.34375 C 8,-6.4375 8.390625,-6.46875 8.6875,-6.5 8.765625,-6.515625 8.859375,-6.515625 8.859375,-6.703125 8.859375,-6.734375 8.828125,-6.8125 8.75,-6.8125 c -0.21875,0 -0.46875,0.03125 -0.703125,0.03125 -0.359375,0 -0.75,-0.03125 -1.109375,-0.03125 -0.0625,0 -0.1875,0 -0.1875,0.203125 0,0.0625 0.046875,0.09375 0.125,0.109375 0.21875,0.015625 0.296875,0.0625 0.296875,0.203125 0,0.1875 -0.296875,0.421875 -0.359375,0.46875 L 2.9375,-2.84375 3.734375,-6.046875 C 3.8125,-6.40625 3.84375,-6.5 4.5625,-6.5 c 0.25,0 0.34375,0 0.34375,-0.203125 0,-0.078125 -0.078125,-0.109375 -0.140625,-0.109375 -0.28125,0 -1,0.03125 -1.28125,0.03125 C 3.203125,-6.78125 2.5,-6.8125 2.203125,-6.8125 2.140625,-6.8125 2,-6.8125 2,-6.625 2,-6.5 2.09375,-6.5 2.296875,-6.5 c 0.125,0 0.3125,0.015625 0.421875,0.015625 0.15625,0.03125 0.21875,0.046875 0.21875,0.171875 0,0.03125 0,0.0625 -0.03125,0.1875 L 1.5625,-0.78125 c -0.09375,0.390625 -0.109375,0.46875 -0.90625,0.46875 -0.171875,0 -0.28125,0 -0.28125,0.1875 C 0.375,0 0.5,0 0.53125,0 0.8125,0 1.515625,-0.03125 1.796875,-0.03125 2,-0.03125 2.21875,-0.015625 2.4375,-0.015625 2.65625,-0.015625 2.875,0 3.078125,0 3.15625,0 3.28125,0 3.28125,-0.203125 3.28125,-0.3125 3.1875,-0.3125 3,-0.3125 c -0.375,0 -0.640625,0 -0.640625,-0.171875 0,-0.078125 0.046875,-0.296875 0.078125,-0.4375 C 2.578125,-1.453125 2.71875,-1.96875 2.84375,-2.5 l 1.484375,-1.15625 1.15625,2.6875 c 0.125,0.265625 0.125,0.296875 0.125,0.34375 0,0.3125 -0.4375,0.3125 -0.53125,0.3125 -0.109375,0 -0.21875,0 -0.21875,0.203125 C 4.859375,0 4.984375,0 5,0 5.40625,0 5.828125,-0.03125 6.21875,-0.03125 6.4375,-0.03125 6.984375,0 7.203125,0 7.25,0 7.375,0 7.375,-0.203125 7.375,-0.3125 7.265625,-0.3125 7.171875,-0.3125 c -0.40625,0 -0.53125,-0.09375 -0.6875,-0.4375 z m 0,0"
           id="id-26bfc689-16b7-4b14-91a0-73808e3c986a" />
      </symbol>
      <symbol
         overflow="visible"
         id="id-39bfa257-52a9-482e-88b3-0855a3b8e5cf">
        <path
           style="stroke:none"
           d=""
           id="id-52bc2d89-6ef5-4ce5-8668-54e956bfee91" />
      </symbol>
      <symbol
         overflow="visible"
         id="id-e710be03-12d8-4ff1-9410-dc7f9a335294">
        <path
           style="stroke:none"
           d="M 3.984375,-4.625 C 3.984375,-4.640625 4,-4.734375 4,-4.734375 4,-4.78125 3.984375,-4.84375 3.890625,-4.84375 3.75,-4.84375 3.171875,-4.78125 3,-4.765625 c -0.046875,0 -0.15625,0.015625 -0.15625,0.15625 0,0.09375 0.109375,0.09375 0.1875,0.09375 0.328125,0 0.328125,0.0625 0.328125,0.109375 0,0.046875 0,0.09375 -0.015625,0.15625 L 2.9375,-2.65625 c -0.140625,-0.234375 -0.375,-0.421875 -0.71875,-0.421875 -0.890625,0 -1.796875,0.984375 -1.796875,1.984375 0,0.6875 0.453125,1.15625 1.0625,1.15625 0.375,0 0.703125,-0.203125 0.984375,-0.484375 C 2.59375,0 3,0.0625 3.1875,0.0625 c 0.25,0 0.421875,-0.140625 0.546875,-0.359375 0.15625,-0.28125 0.25,-0.671875 0.25,-0.703125 0,-0.09375 -0.09375,-0.09375 -0.109375,-0.09375 -0.109375,0 -0.109375,0.03125 -0.15625,0.21875 C 3.625,-0.53125 3.5,-0.125 3.203125,-0.125 3.03125,-0.125 2.96875,-0.28125 2.96875,-0.46875 c 0,-0.125 0.015625,-0.1875 0.046875,-0.28125 z M 2.5,-0.875 C 2.453125,-0.671875 2.296875,-0.53125 2.140625,-0.40625 2.078125,-0.34375 1.796875,-0.125 1.5,-0.125 c -0.265625,0 -0.515625,-0.1875 -0.515625,-0.671875 0,-0.375 0.203125,-1.140625 0.375,-1.421875 0.3125,-0.5625 0.671875,-0.65625 0.859375,-0.65625 0.484375,0 0.625,0.53125 0.625,0.609375 0,0.015625 -0.015625,0.078125 -0.015625,0.09375 z m 0,0"
           id="id-fe0fcc1c-78b6-44ad-a05c-5a36595959d0" />
      </symbol>
      <symbol
         overflow="visible"
         id="id-1ee55cbb-c84c-48a2-95fd-205860c3132f">
        <path
           style="stroke:none"
           d=""
           id="id-9db46ad3-2646-4765-a757-92bbdee0f67b" />
      </symbol>
      <symbol
         overflow="visible"
         id="id-5b0a1ab5-1584-42fb-9914-03741886d4be">
        <path
           style="stroke:none"
           d="m 6.84375,-3.265625 c 0.15625,0 0.34375,0 0.34375,-0.1875 C 7.1875,-3.65625 7,-3.65625 6.859375,-3.65625 h -5.96875 c -0.140625,0 -0.328125,0 -0.328125,0.203125 0,0.1875 0.1875,0.1875 0.328125,0.1875 z m 0.015625,1.9375 c 0.140625,0 0.328125,0 0.328125,-0.203125 0,-0.1875 -0.1875,-0.1875 -0.34375,-0.1875 H 0.890625 c -0.140625,0 -0.328125,0 -0.328125,0.1875 0,0.203125 0.1875,0.203125 0.328125,0.203125 z m 0,0"
           id="id-e532f051-1d13-495c-931b-59df9dccab99" />
      </symbol>
    </g>
  </defs>
  <g
     id="g62"
     transform="matrix(0.59075631,0,0,0.59075631,-53.231332,-179.82293)">
    <g
       id="g61">
      <g
         id="g92"
         transform="matrix(1.020394,0,0,1.020394,-3.0325802,-26.751203)">
        <path
           id="path227-2-7"
           data-name="path227"
           d="m 659.93031,529.20015 h 43.97"
           fill="none"
           stroke="#ff0000"
           stroke-linecap="round"
           stroke-linejoin="round"
           stroke-width="4" />
        <path
           id="path227-3-5"
           data-name="path227"
           d="m 659.71867,491.22759 h 43.97"
           fill="none"
           stroke="#66cc33"
           stroke-linecap="round"
           stroke-linejoin="round"
           stroke-width="4" />
        <text
           xml:space="preserve"
           style="font-style:normal;font-variant:normal;font-weight:500;font-stretch:normal;font-size:22.1188px;line-height:1.25;font-family:'CMU Serif';-inkscape-font-specification:'CMU Serif, Medium';font-variant-ligatures:normal;font-variant-caps:normal;font-variant-numeric:normal;font-variant-east-asian:normal;stroke-width:1.65892"
           x="713.06281"
           y="534.60254"
           id="text1-9"><tspan
             sodipodi:role="line"
             id="tspan1-1"
             style="font-style:normal;font-variant:normal;font-weight:500;font-stretch:normal;font-size:22.1188px;font-family:'CMU Serif';-inkscape-font-specification:'CMU Serif, Medium';font-variant-ligatures:normal;font-variant-caps:normal;font-variant-numeric:normal;font-variant-east-asian:normal;stroke-width:1.65892"
             x="713.06281"
             y="534.60254">input</tspan></text>
        <g
           transform="matrix(2.21188,0,0,2.21188,713.79273,480.212)"
           ns1:version="1.9.0"
           ns1:texconverter="pdflatex"
           ns1:pdfconverter="inkscape"
           ns1:text="$K_{i} = 0.5$"
           ns1:preamble="/home/taihu/Documents/material-robotica-movil-rosario/common/math_preamble.tex"
           ns1:scale="0.630493304220422"
           ns1:alignment="middle center"
           ns1:stroke-to-path="0"
           ns1:inkscapeversion="1.3.2"
           id="g8014"
           ns1:jacobian_sqrt="2.21188">
          <defs
             id="id-489cb834-2fa3-4d5b-a5dd-3e04b188a853">
            <g
               id="id-b0691048-1e78-48c3-8ebf-c4c31cac097c">
              <symbol
                 overflow="visible"
                 id="id-c4f12891-bffe-40f6-8046-c129c93282ab">
                <path
                   style="stroke:none"
                   d=""
                   id="id-eed47890-ff9f-42e3-b8f9-683a7862a4b4" />
              </symbol>
              <symbol
                 overflow="visible"
                 id="id-5ec618bd-1688-4b91-86e3-4fd34b445ee9">
                <path
                   style="stroke:none"
                   d="M 5.078125,-4.03125 C 5.0625,-4.0625 5.03125,-4.140625 5.03125,-4.171875 c 0,0 0.171875,-0.140625 0.28125,-0.21875 l 1.75,-1.34375 C 8,-6.4375 8.390625,-6.46875 8.6875,-6.5 8.765625,-6.515625 8.859375,-6.515625 8.859375,-6.703125 8.859375,-6.734375 8.828125,-6.8125 8.75,-6.8125 c -0.21875,0 -0.46875,0.03125 -0.703125,0.03125 -0.359375,0 -0.75,-0.03125 -1.109375,-0.03125 -0.0625,0 -0.1875,0 -0.1875,0.203125 0,0.0625 0.046875,0.09375 0.125,0.109375 0.21875,0.015625 0.296875,0.0625 0.296875,0.203125 0,0.1875 -0.296875,0.421875 -0.359375,0.46875 L 2.9375,-2.84375 3.734375,-6.046875 C 3.8125,-6.40625 3.84375,-6.5 4.5625,-6.5 c 0.25,0 0.34375,0 0.34375,-0.203125 0,-0.078125 -0.078125,-0.109375 -0.140625,-0.109375 -0.28125,0 -1,0.03125 -1.28125,0.03125 C 3.203125,-6.78125 2.5,-6.8125 2.203125,-6.8125 2.140625,-6.8125 2,-6.8125 2,-6.625 2,-6.5 2.09375,-6.5 2.296875,-6.5 c 0.125,0 0.3125,0.015625 0.421875,0.015625 0.15625,0.03125 0.21875,0.046875 0.21875,0.171875 0,0.03125 0,0.0625 -0.03125,0.1875 L 1.5625,-0.78125 c -0.09375,0.390625 -0.109375,0.46875 -0.90625,0.46875 -0.171875,0 -0.28125,0 -0.28125,0.1875 C 0.375,0 0.5,0 0.53125,0 0.8125,0 1.515625,-0.03125 1.796875,-0.03125 2,-0.03125 2.21875,-0.015625 2.4375,-0.015625 2.65625,-0.015625 2.875,0 3.078125,0 3.15625,0 3.28125,0 3.28125,-0.203125 3.28125,-0.3125 3.1875,-0.3125 3,-0.3125 c -0.375,0 -0.640625,0 -0.640625,-0.171875 0,-0.078125 0.046875,-0.296875 0.078125,-0.4375 C 2.578125,-1.453125 2.71875,-1.96875 2.84375,-2.5 l 1.484375,-1.15625 1.15625,2.6875 c 0.125,0.265625 0.125,0.296875 0.125,0.34375 0,0.3125 -0.4375,0.3125 -0.53125,0.3125 -0.109375,0 -0.21875,0 -0.21875,0.203125 C 4.859375,0 4.984375,0 5,0 5.40625,0 5.828125,-0.03125 6.21875,-0.03125 6.4375,-0.03125 6.984375,0 7.203125,0 7.25,0 7.375,0 7.375,-0.203125 7.375,-0.3125 7.265625,-0.3125 7.171875,-0.3125 c -0.40625,0 -0.53125,-0.09375 -0.6875,-0.4375 z m 0,0"
                   id="id-2998d8b9-e8e3-4a18-a397-0494f9beef61" />
              </symbol>
              <symbol
                 overflow="visible"
                 id="id-a5aa36d4-2d25-4668-831e-015106b257f6">
                <path
                   style="stroke:none"
                   d="m 1.90625,-0.53125 c 0,-0.28125 -0.234375,-0.53125 -0.515625,-0.53125 -0.296875,0 -0.53125,0.25 -0.53125,0.53125 C 0.859375,-0.234375 1.09375,0 1.390625,0 1.671875,0 1.90625,-0.234375 1.90625,-0.53125 Z m 0,0"
                   id="id-b6003bdc-99ff-4e75-b113-9907ac0eb5bd" />
              </symbol>
              <symbol
                 overflow="visible"
                 id="id-62eb1151-bdeb-4ec2-b57e-830bab1ad269">
                <path
                   style="stroke:none"
                   d=""
                   id="id-c2113ec3-da81-43c0-8124-faaaf5239c45" />
              </symbol>
              <symbol
                 overflow="visible"
                 id="id-9a64167f-3e35-467b-95be-bdd45c5b9f60">
                <path
                   style="stroke:none"
                   d="m 2.265625,-4.359375 c 0,-0.109375 -0.09375,-0.265625 -0.28125,-0.265625 -0.1875,0 -0.390625,0.1875 -0.390625,0.390625 0,0.109375 0.078125,0.265625 0.28125,0.265625 0.1875,0 0.390625,-0.203125 0.390625,-0.390625 z M 0.84375,-0.8125 c -0.03125,0.09375 -0.0625,0.171875 -0.0625,0.296875 0,0.328125 0.265625,0.578125 0.65625,0.578125 0.6875,0 1,-0.953125 1,-1.0625 0,-0.09375 -0.09375,-0.09375 -0.109375,-0.09375 -0.09375,0 -0.109375,0.046875 -0.140625,0.125 -0.15625,0.5625 -0.453125,0.84375 -0.734375,0.84375 -0.140625,0 -0.171875,-0.09375 -0.171875,-0.25 0,-0.15625 0.046875,-0.28125 0.109375,-0.4375 C 1.46875,-1 1.546875,-1.1875 1.609375,-1.375 1.671875,-1.546875 1.9375,-2.171875 1.953125,-2.265625 1.984375,-2.328125 2,-2.40625 2,-2.484375 2,-2.8125 1.71875,-3.078125 1.34375,-3.078125 0.640625,-3.078125 0.328125,-2.125 0.328125,-2 c 0,0.078125 0.09375,0.078125 0.125,0.078125 0.09375,0 0.09375,-0.03125 0.125,-0.109375 C 0.75,-2.625 1.0625,-2.875 1.3125,-2.875 c 0.109375,0 0.171875,0.046875 0.171875,0.234375 0,0.171875 -0.03125,0.265625 -0.203125,0.703125 z m 0,0"
                   id="id-73b3e6f0-23ac-4ca4-8e0d-6c244a2061f3" />
              </symbol>
              <symbol
                 overflow="visible"
                 id="id-74681c65-4c02-480e-8dc2-e38339e85810">
                <path
                   style="stroke:none"
                   d=""
                   id="id-3219731a-df9e-4325-9a80-d8ee552a3714" />
              </symbol>
              <symbol
                 overflow="visible"
                 id="id-d578209f-0c17-4d14-bac6-95258d60b923">
                <path
                   style="stroke:none"
                   d="m 6.84375,-3.265625 c 0.15625,0 0.34375,0 0.34375,-0.1875 C 7.1875,-3.65625 7,-3.65625 6.859375,-3.65625 h -5.96875 c -0.140625,0 -0.328125,0 -0.328125,0.203125 0,0.1875 0.1875,0.1875 0.328125,0.1875 z m 0.015625,1.9375 c 0.140625,0 0.328125,0 0.328125,-0.203125 0,-0.1875 -0.1875,-0.1875 -0.34375,-0.1875 H 0.890625 c -0.140625,0 -0.328125,0 -0.328125,0.1875 0,0.203125 0.1875,0.203125 0.328125,0.203125 z m 0,0"
                   id="id-a2fe5a59-d0c8-4fd3-9d79-2632b769725a" />
              </symbol>
              <symbol
                 overflow="visible"
                 id="id-55349912-8a0d-4a15-bc3b-ae58bd60f8e0">
                <path
                   style="stroke:none"
                   d="m 4.578125,-3.1875 c 0,-0.796875 -0.046875,-1.59375 -0.390625,-2.328125 -0.453125,-0.96875 -1.28125,-1.125 -1.6875,-1.125 -0.609375,0 -1.328125,0.265625 -1.75,1.1875 -0.3125,0.6875 -0.359375,1.46875 -0.359375,2.265625 0,0.75 0.03125,1.640625 0.453125,2.40625 0.421875,0.796875 1.15625,1 1.640625,1 0.53125,0 1.296875,-0.203125 1.734375,-1.15625 0.3125,-0.6875 0.359375,-1.46875 0.359375,-2.25 z M 2.484375,0 C 2.09375,0 1.5,-0.25 1.328125,-1.203125 1.21875,-1.796875 1.21875,-2.71875 1.21875,-3.3125 c 0,-0.640625 0,-1.296875 0.078125,-1.828125 0.1875,-1.1875 0.9375,-1.28125 1.1875,-1.28125 0.328125,0 0.984375,0.1875 1.171875,1.171875 0.109375,0.5625 0.109375,1.3125 0.109375,1.9375 0,0.75 0,1.421875 -0.109375,2.0625 C 3.5,-0.296875 2.9375,0 2.484375,0 Z m 0,0"
                   id="id-3806f1f0-bf75-4070-b42c-1450e699458d" />
              </symbol>
              <symbol
                 overflow="visible"
                 id="id-98078a1a-5f26-4c6d-b07b-6cca1ab71a7b">
                <path
                   style="stroke:none"
                   d="m 4.46875,-2 c 0,-1.1875 -0.8125,-2.1875 -1.890625,-2.1875 -0.46875,0 -0.90625,0.15625 -1.265625,0.515625 V -5.625 c 0.203125,0.0625 0.53125,0.125 0.84375,0.125 1.234375,0 1.9375,-0.90625 1.9375,-1.03125 0,-0.0625 -0.03125,-0.109375 -0.109375,-0.109375 0,0 -0.03125,0 -0.078125,0.03125 C 3.703125,-6.515625 3.21875,-6.3125 2.546875,-6.3125 2.15625,-6.3125 1.6875,-6.390625 1.21875,-6.59375 1.140625,-6.625 1.125,-6.625 1.109375,-6.625 1,-6.625 1,-6.546875 1,-6.390625 V -3.4375 c 0,0.171875 0,0.25 0.140625,0.25 0.078125,0 0.09375,-0.015625 0.140625,-0.078125 C 1.390625,-3.421875 1.75,-3.96875 2.5625,-3.96875 c 0.515625,0 0.765625,0.453125 0.84375,0.640625 0.15625,0.375 0.1875,0.75 0.1875,1.25 0,0.359375 0,0.953125 -0.25,1.375 C 3.109375,-0.3125 2.734375,-0.0625 2.28125,-0.0625 c -0.71875,0 -1.296875,-0.53125 -1.46875,-1.109375 0.03125,0 0.0625,0.015625 0.171875,0.015625 0.328125,0 0.5,-0.25 0.5,-0.484375 0,-0.25 -0.171875,-0.5 -0.5,-0.5 C 0.84375,-2.140625 0.5,-2.0625 0.5,-1.609375 0.5,-0.75 1.1875,0.21875 2.296875,0.21875 3.453125,0.21875 4.46875,-0.734375 4.46875,-2 Z m 0,0"
                   id="id-42fa7849-a345-40df-a4c2-51ea988b4db5" />
              </symbol>
            </g>
          </defs>
          <g
             id="id-ea016b74-d3ac-43d3-b6fc-82feaf9ebff7"
             transform="translate(-149.087,-127.953)">
            <g
               style="fill:#000000;fill-opacity:1"
               id="id-53e5f492-7905-4dbf-b39e-aa372355322a">
              <g
                 transform="translate(148.712,134.765)"
                 id="g5996">
                <path
                   style="stroke:none"
                   d="M 5.078125,-4.03125 C 5.0625,-4.0625 5.03125,-4.140625 5.03125,-4.171875 c 0,0 0.171875,-0.140625 0.28125,-0.21875 l 1.75,-1.34375 C 8,-6.4375 8.390625,-6.46875 8.6875,-6.5 8.765625,-6.515625 8.859375,-6.515625 8.859375,-6.703125 8.859375,-6.734375 8.828125,-6.8125 8.75,-6.8125 c -0.21875,0 -0.46875,0.03125 -0.703125,0.03125 -0.359375,0 -0.75,-0.03125 -1.109375,-0.03125 -0.0625,0 -0.1875,0 -0.1875,0.203125 0,0.0625 0.046875,0.09375 0.125,0.109375 0.21875,0.015625 0.296875,0.0625 0.296875,0.203125 0,0.1875 -0.296875,0.421875 -0.359375,0.46875 L 2.9375,-2.84375 3.734375,-6.046875 C 3.8125,-6.40625 3.84375,-6.5 4.5625,-6.5 c 0.25,0 0.34375,0 0.34375,-0.203125 0,-0.078125 -0.078125,-0.109375 -0.140625,-0.109375 -0.28125,0 -1,0.03125 -1.28125,0.03125 C 3.203125,-6.78125 2.5,-6.8125 2.203125,-6.8125 2.140625,-6.8125 2,-6.8125 2,-6.625 2,-6.5 2.09375,-6.5 2.296875,-6.5 c 0.125,0 0.3125,0.015625 0.421875,0.015625 0.15625,0.03125 0.21875,0.046875 0.21875,0.171875 0,0.03125 0,0.0625 -0.03125,0.1875 L 1.5625,-0.78125 c -0.09375,0.390625 -0.109375,0.46875 -0.90625,0.46875 -0.171875,0 -0.28125,0 -0.28125,0.1875 C 0.375,0 0.5,0 0.53125,0 0.8125,0 1.515625,-0.03125 1.796875,-0.03125 2,-0.03125 2.21875,-0.015625 2.4375,-0.015625 2.65625,-0.015625 2.875,0 3.078125,0 3.15625,0 3.28125,0 3.28125,-0.203125 3.28125,-0.3125 3.1875,-0.3125 3,-0.3125 c -0.375,0 -0.640625,0 -0.640625,-0.171875 0,-0.078125 0.046875,-0.296875 0.078125,-0.4375 C 2.578125,-1.453125 2.71875,-1.96875 2.84375,-2.5 l 1.484375,-1.15625 1.15625,2.6875 c 0.125,0.265625 0.125,0.296875 0.125,0.34375 0,0.3125 -0.4375,0.3125 -0.53125,0.3125 -0.109375,0 -0.21875,0 -0.21875,0.203125 C 4.859375,0 4.984375,0 5,0 5.40625,0 5.828125,-0.03125 6.21875,-0.03125 6.4375,-0.03125 6.984375,0 7.203125,0 7.25,0 7.375,0 7.375,-0.203125 7.375,-0.3125 7.265625,-0.3125 7.171875,-0.3125 c -0.40625,0 -0.53125,-0.09375 -0.6875,-0.4375 z m 0,0"
                   id="id-85ab1a77-f034-421c-9ddf-6a2e4933b437" />
              </g>
            </g>
            <g
               style="fill:#000000;fill-opacity:1"
               id="id-9e9894b2-8eca-44a0-a403-9d85d4c00698">
              <g
                 transform="translate(157.174,136.259)"
                 id="g4589">
                <path
                   style="stroke:none"
                   d="m 2.265625,-4.359375 c 0,-0.109375 -0.09375,-0.265625 -0.28125,-0.265625 -0.1875,0 -0.390625,0.1875 -0.390625,0.390625 0,0.109375 0.078125,0.265625 0.28125,0.265625 0.1875,0 0.390625,-0.203125 0.390625,-0.390625 z M 0.84375,-0.8125 c -0.03125,0.09375 -0.0625,0.171875 -0.0625,0.296875 0,0.328125 0.265625,0.578125 0.65625,0.578125 0.6875,0 1,-0.953125 1,-1.0625 0,-0.09375 -0.09375,-0.09375 -0.109375,-0.09375 -0.09375,0 -0.109375,0.046875 -0.140625,0.125 -0.15625,0.5625 -0.453125,0.84375 -0.734375,0.84375 -0.140625,0 -0.171875,-0.09375 -0.171875,-0.25 0,-0.15625 0.046875,-0.28125 0.109375,-0.4375 C 1.46875,-1 1.546875,-1.1875 1.609375,-1.375 1.671875,-1.546875 1.9375,-2.171875 1.953125,-2.265625 1.984375,-2.328125 2,-2.40625 2,-2.484375 2,-2.8125 1.71875,-3.078125 1.34375,-3.078125 0.640625,-3.078125 0.328125,-2.125 0.328125,-2 c 0,0.078125 0.09375,0.078125 0.125,0.078125 0.09375,0 0.09375,-0.03125 0.125,-0.109375 C 0.75,-2.625 1.0625,-2.875 1.3125,-2.875 c 0.109375,0 0.171875,0.046875 0.171875,0.234375 0,0.171875 -0.03125,0.265625 -0.203125,0.703125 z m 0,0"
                   id="id-ba0cca7e-15c8-4de0-a7d4-5b6304c9f1f9" />
              </g>
            </g>
            <g
               style="fill:#000000;fill-opacity:1"
               id="id-f02541ae-3456-487d-b5e1-484520f9b47b">
              <g
                 transform="translate(163.258,134.765)"
                 id="g8142">
                <path
                   style="stroke:none"
                   d="m 6.84375,-3.265625 c 0.15625,0 0.34375,0 0.34375,-0.1875 C 7.1875,-3.65625 7,-3.65625 6.859375,-3.65625 h -5.96875 c -0.140625,0 -0.328125,0 -0.328125,0.203125 0,0.1875 0.1875,0.1875 0.328125,0.1875 z m 0.015625,1.9375 c 0.140625,0 0.328125,0 0.328125,-0.203125 0,-0.1875 -0.1875,-0.1875 -0.34375,-0.1875 H 0.890625 c -0.140625,0 -0.328125,0 -0.328125,0.1875 0,0.203125 0.1875,0.203125 0.328125,0.203125 z m 0,0"
                   id="id-d70f7081-28e0-4cbd-8b89-95c5691124ef" />
              </g>
            </g>
            <g
               style="fill:#000000;fill-opacity:1"
               id="id-83d68978-6056-4f62-af46-a5d704962be8">
              <g
                 transform="translate(173.777,134.765)"
                 id="g9716">
                <path
                   style="stroke:none"
                   d="m 4.578125,-3.1875 c 0,-0.796875 -0.046875,-1.59375 -0.390625,-2.328125 -0.453125,-0.96875 -1.28125,-1.125 -1.6875,-1.125 -0.609375,0 -1.328125,0.265625 -1.75,1.1875 -0.3125,0.6875 -0.359375,1.46875 -0.359375,2.265625 0,0.75 0.03125,1.640625 0.453125,2.40625 0.421875,0.796875 1.15625,1 1.640625,1 0.53125,0 1.296875,-0.203125 1.734375,-1.15625 0.3125,-0.6875 0.359375,-1.46875 0.359375,-2.25 z M 2.484375,0 C 2.09375,0 1.5,-0.25 1.328125,-1.203125 1.21875,-1.796875 1.21875,-2.71875 1.21875,-3.3125 c 0,-0.640625 0,-1.296875 0.078125,-1.828125 0.1875,-1.1875 0.9375,-1.28125 1.1875,-1.28125 0.328125,0 0.984375,0.1875 1.171875,1.171875 0.109375,0.5625 0.109375,1.3125 0.109375,1.9375 0,0.75 0,1.421875 -0.109375,2.0625 C 3.5,-0.296875 2.9375,0 2.484375,0 Z m 0,0"
                   id="id-018a6493-a07e-4353-bea0-c589b1551bc5" />
              </g>
            </g>
            <g
               style="fill:#000000;fill-opacity:1"
               id="id-e692cf16-ec22-46bf-a7a8-742dd6aa31a2">
              <g
                 transform="translate(178.755,134.765)"
                 id="g4481">
                <path
                   style="stroke:none"
                   d="m 1.90625,-0.53125 c 0,-0.28125 -0.234375,-0.53125 -0.515625,-0.53125 -0.296875,0 -0.53125,0.25 -0.53125,0.53125 C 0.859375,-0.234375 1.09375,0 1.390625,0 1.671875,0 1.90625,-0.234375 1.90625,-0.53125 Z m 0,0"
                   id="id-6c9da316-5d2f-40e2-8604-c2a3786fd801" />
              </g>
            </g>
            <g
               style="fill:#000000;fill-opacity:1"
               id="id-82a9875b-5fd6-43d0-9280-d70fda0e002b">
              <g
                 transform="translate(181.523,134.765)"
                 id="g9637">
                <path
                   style="stroke:none"
                   d="m 4.46875,-2 c 0,-1.1875 -0.8125,-2.1875 -1.890625,-2.1875 -0.46875,0 -0.90625,0.15625 -1.265625,0.515625 V -5.625 c 0.203125,0.0625 0.53125,0.125 0.84375,0.125 1.234375,0 1.9375,-0.90625 1.9375,-1.03125 0,-0.0625 -0.03125,-0.109375 -0.109375,-0.109375 0,0 -0.03125,0 -0.078125,0.03125 C 3.703125,-6.515625 3.21875,-6.3125 2.546875,-6.3125 2.15625,-6.3125 1.6875,-6.390625 1.21875,-6.59375 1.140625,-6.625 1.125,-6.625 1.109375,-6.625 1,-6.625 1,-6.546875 1,-6.390625 V -3.4375 c 0,0.171875 0,0.25 0.140625,0.25 0.078125,0 0.09375,-0.015625 0.140625,-0.078125 C 1.390625,-3.421875 1.75,-3.96875 2.5625,-3.96875 c 0.515625,0 0.765625,0.453125 0.84375,0.640625 0.15625,0.375 0.1875,0.75 0.1875,1.25 0,0.359375 0,0.953125 -0.25,1.375 C 3.109375,-0.3125 2.734375,-0.0625 2.28125,-0.0625 c -0.71875,0 -1.296875,-0.53125 -1.46875,-1.109375 0.03125,0 0.0625,0.015625 0.171875,0.015625 0.328125,0 0.5,-0.25 0.5,-0.484375 0,-0.25 -0.171875,-0.5 -0.5,-0.5 C 0.84375,-2.140625 0.5,-2.0625 0.5,-1.609375 0.5,-0.75 1.1875,0.21875 2.296875,0.21875 3.453125,0.21875 4.46875,-0.734375 4.46875,-2 Z m 0,0"
                   id="id-75f71d1e-c23b-498a-80ba-9d2aebc984c0" />
              </g>
            </g>
          </g>
        </g>
      </g>
    </g>
  </g>
  <path
     id="path324"
     d="M 61.799999,140.39999 H 79.800003"
     style="fill:none;stroke:#000000;stroke-width:1;stroke-linecap:butt;stroke-linejoin:miter;stroke-miterlimit:10;stroke-dasharray:none;stroke-opacity:1"
     transform="matrix(1.3320001,0,0,1.3320001,-12.347722,-17.439416)"
     clip-path="url(#clipPath325)" />
  <text
     id="text325"
     xml:space="preserve"
     transform="translate(34.961178,175.56728)"
     clip-path="url(#clipPath326)"><tspan
       style="font-variant:normal;font-weight:normal;font-size:15.98px;font-family:'Times New Roman';writing-mode:lr-tb;fill:#000000;fill-opacity:1;fill-rule:nonzero;stroke:none"
       x="0 7.984375 15.96875"
       y="0"
       sodipodi:role="line"
       id="tspan325">170</tspan></text>
  <path
     id="path327"
     d="m 61.799999,132.10001 h 9.000004 M 61.799999,123.9 h 9.000004 m -9.000004,-8.3 h 9.000004 m -9.000004,-8.2 h 9.000004 m -9.000004,-8.300002 h 18.000004"
     style="fill:none;stroke:#000000;stroke-width:1;stroke-linecap:butt;stroke-linejoin:miter;stroke-miterlimit:10;stroke-dasharray:none;stroke-opacity:1"
     transform="matrix(1.3320001,0,0,1.3320001,-12.347722,-17.439416)"
     clip-path="url(#clipPath328)" />
  <text
     id="text328"
     xml:space="preserve"
     transform="translate(34.961178,120.55578)"
     clip-path="url(#clipPath329)"><tspan
       style="font-variant:normal;font-weight:normal;font-size:15.98px;font-family:'Times New Roman';writing-mode:lr-tb;fill:#000000;fill-opacity:1;fill-rule:nonzero;stroke:none"
       x="0 7.984375 15.96875"
       y="0"
       sodipodi:role="line"
       id="tspan328">172</tspan></text>
  <path
     id="path330"
     d="m 61.799999,90.900002 h 9.000004 m -9.000004,-8.200005 h 9.000004 m -9.000004,-8.299995 h 9.000004 m -9.000004,-8.200005 h 9.000004 m -9.000004,-8.299995 h 18.000004"
     style="fill:none;stroke:#000000;stroke-width:1;stroke-linecap:butt;stroke-linejoin:miter;stroke-miterlimit:10;stroke-dasharray:none;stroke-opacity:1"
     transform="matrix(1.3320001,0,0,1.3320001,-12.347722,-17.439416)"
     clip-path="url(#clipPath331)" />
  <text
     id="text331"
     xml:space="preserve"
     transform="translate(34.961178,65.677384)"
     clip-path="url(#clipPath332)"><tspan
       style="font-variant:normal;font-weight:normal;font-size:15.98px;font-family:'Times New Roman';writing-mode:lr-tb;fill:#000000;fill-opacity:1;fill-rule:nonzero;stroke:none"
       x="0 7.984375 15.96875"
       y="0"
       sodipodi:role="line"
       id="tspan331">174</tspan></text>
  <path
     id="path333"
     d="m 61.799999,49.700001 h 9.000004 m -9.000004,-8.299999 h 9.000004 m -9.000004,-8.200001 h 9.000004 M 61.799999,24.9 h 9.000004 m -9.000004,-8.199999 h 18.000004"
     style="fill:none;stroke:#000000;stroke-width:1;stroke-linecap:butt;stroke-linejoin:miter;stroke-miterlimit:10;stroke-dasharray:none;stroke-opacity:1"
     transform="matrix(1.3320001,0,0,1.3320001,-12.347722,-17.439416)"
     clip-path="url(#clipPath334)" />
  <text
     id="text334"
     xml:space="preserve"
     transform="translate(34.961178,10.798984)"
     clip-path="url(#clipPath335)"><tspan
       style="font-variant:normal;font-weight:normal;font-size:15.98px;font-family:'Times New Roman';writing-mode:lr-tb;fill:#000000;fill-opacity:1;fill-rule:nonzero;stroke:none"
       x="0 7.984375 15.96875"
       y="0"
       sodipodi:role="line"
       id="tspan334">176</tspan></text>
  <path
     id="path336"
     d="m 61.799999,202.2 v -18 m 0,-167.499999 v 18"
     style="fill:none;stroke:#000000;stroke-width:1;stroke-linecap:butt;stroke-linejoin:miter;stroke-miterlimit:10;stroke-dasharray:none;stroke-opacity:1"
     transform="matrix(1.3320001,0,0,1.3320001,-12.347722,-17.439416)"
     clip-path="url(#clipPath337)" />
  <text
     id="text337"
     xml:space="preserve"
     transform="translate(65.985581,279.19698)"
     clip-path="url(#clipPath338)"><tspan
       style="font-variant:normal;font-weight:normal;font-size:15.98px;font-family:'Times New Roman';writing-mode:lr-tb;fill:#000000;fill-opacity:1;fill-rule:nonzero;stroke:none"
       x="0"
       y="0"
       id="tspan337">0</tspan></text>
  <path
     id="path339"
     d="m 72.5,202.2 v -9 m 0,-176.499999 v 9 M 83.300003,202.2 v -9 m 0,-176.499999 v 9 M 94,202.2 v -9 M 94,16.700001 v 9 M 104.7,202.2 v -9 m 0,-176.499999 v 9 M 115.5,202.2 v -18 m 0,-167.499999 v 18"
     style="fill:none;stroke:#000000;stroke-width:1;stroke-linecap:butt;stroke-linejoin:miter;stroke-miterlimit:10;stroke-dasharray:none;stroke-opacity:1"
     transform="matrix(1.3320001,0,0,1.3320001,-12.347722,-17.439416)"
     clip-path="url(#clipPath340)" />
  <text
     id="text340"
     xml:space="preserve"
     transform="translate(133.51388,279.19698)"
     clip-path="url(#clipPath341)"><tspan
       style="font-variant:normal;font-weight:normal;font-size:15.98px;font-family:'Times New Roman';writing-mode:lr-tb;fill:#000000;fill-opacity:1;fill-rule:nonzero;stroke:none"
       x="0 7.984375"
       y="0"
       sodipodi:role="line"
       id="tspan340">50</tspan></text>
  <path
     id="path342"
     d="m 126.2,202.2 v -9 m 0,-176.499999 v 9 M 137,202.2 v -9 m 0,-176.499999 v 9 M 147.7,202.2 v -9 m 0,-176.499999 v 9 M 158.39999,202.2 v -9 m 0,-176.499999 v 9 M 169.2,202.2 v -18 m 0,-167.499999 v 18"
     style="fill:none;stroke:#000000;stroke-width:1;stroke-linecap:butt;stroke-linejoin:miter;stroke-miterlimit:10;stroke-dasharray:none;stroke-opacity:1"
     transform="matrix(1.3320001,0,0,1.3320001,-12.347722,-17.439416)"
     clip-path="url(#clipPath343)" />
  <text
     id="text343"
     xml:space="preserve"
     transform="translate(201.05798,279.19698)"
     clip-path="url(#clipPath344)"><tspan
       style="font-variant:normal;font-weight:normal;font-size:15.98px;font-family:'Times New Roman';writing-mode:lr-tb;fill:#000000;fill-opacity:1;fill-rule:nonzero;stroke:none"
       x="0 7.984375 15.96875"
       y="0"
       sodipodi:role="line"
       id="tspan343">100</tspan></text>
  <path
     id="path345"
     d="m 179.89999,202.2 v -9 m 0,-176.499999 v 9 M 190.60001,202.2 v -9 m 0,-176.499999 v 9 M 201.39999,202.2 v -9 m 0,-176.499999 v 9 M 212.10001,202.2 v -9 m 0,-176.499999 v 9 M 222.89999,202.2 v -18 m 0,-167.499999 v 18"
     style="fill:none;stroke:#000000;stroke-width:1;stroke-linecap:butt;stroke-linejoin:miter;stroke-miterlimit:10;stroke-dasharray:none;stroke-opacity:1"
     transform="matrix(1.3320001,0,0,1.3320001,-12.347722,-17.439416)"
     clip-path="url(#clipPath346)" />
  <text
     id="text346"
     xml:space="preserve"
     transform="translate(272.58638,279.19698)"
     clip-path="url(#clipPath347)"><tspan
       style="font-variant:normal;font-weight:normal;font-size:15.98px;font-family:'Times New Roman';writing-mode:lr-tb;fill:#000000;fill-opacity:1;fill-rule:nonzero;stroke:none"
       x="0 7.984375 15.96875"
       y="0"
       sodipodi:role="line"
       id="tspan346">150</tspan></text>
  <path
     id="path348"
     d="m 233.60001,202.2 v -9 m 0,-176.499999 v 9 M 244.3,202.2 v -9 m 0,-176.499999 v 9 M 255.10001,202.2 v -9 m 0,-176.499999 v 9 M 265.79999,202.2 v -9 m 0,-176.499999 v 9 M 276.5,202.2 v -18 m 0,-167.499999 v 18"
     style="fill:none;stroke:#000000;stroke-width:1;stroke-linecap:butt;stroke-linejoin:miter;stroke-miterlimit:10;stroke-dasharray:none;stroke-opacity:1"
     transform="matrix(1.3320001,0,0,1.3320001,-12.347722,-17.439416)"
     clip-path="url(#clipPath349)" />
  <text
     id="text349"
     xml:space="preserve"
     transform="translate(343.98158,279.19698)"
     clip-path="url(#clipPath350)"><tspan
       style="font-variant:normal;font-weight:normal;font-size:15.98px;font-family:'Times New Roman';writing-mode:lr-tb;fill:#000000;fill-opacity:1;fill-rule:nonzero;stroke:none"
       x="0 7.984375 15.96875"
       y="0"
       sodipodi:role="line"
       id="tspan349">200</tspan></text>
  <path
     id="path351"
     d="m 287.29999,202.2 v -9 m 0,-176.499999 v 9 M 298,202.2 v -9 m 0,-176.499999 v 9 M 308.70001,202.2 v -9 m 0,-176.499999 v 9 M 319.5,202.2 v -9 m 0,-176.499999 v 9 M 330.20001,202.2 v -18 m 0,-167.499999 v 18"
     style="fill:none;stroke:#000000;stroke-width:1;stroke-linecap:butt;stroke-linejoin:miter;stroke-miterlimit:10;stroke-dasharray:none;stroke-opacity:1"
     transform="matrix(1.3320001,0,0,1.3320001,-12.347722,-17.439416)"
     clip-path="url(#clipPath352)" />
  <text
     id="text352"
     xml:space="preserve"
     transform="translate(415.50998,279.19698)"
     clip-path="url(#clipPath353)"><tspan
       style="font-variant:normal;font-weight:normal;font-size:15.98px;font-family:'Times New Roman';writing-mode:lr-tb;fill:#000000;fill-opacity:1;fill-rule:nonzero;stroke:none"
       x="0 7.984375 15.96875"
       y="0"
       sodipodi:role="line"
       id="tspan352">250</tspan></text>
  <path
     id="path354"
     d="m 341,202.2 v -9 m 0,-176.499999 v 9 M 351.70001,202.2 v -9 m 0,-176.499999 v 9 M 362.39999,202.2 v -9 m 0,-176.499999 v 9 M 373.20001,202.2 v -9 m 0,-176.499999 v 9 M 383.89999,202.2 v -18 m 0,-167.499999 v 18"
     style="fill:none;stroke:#000000;stroke-width:1;stroke-linecap:butt;stroke-linejoin:miter;stroke-miterlimit:10;stroke-dasharray:none;stroke-opacity:1"
     transform="matrix(1.3320001,0,0,1.3320001,-12.347722,-17.439416)"
     clip-path="url(#clipPath355)" />
  <text
     id="text355"
     xml:space="preserve"
     transform="translate(487.03838,279.19698)"
     clip-path="url(#clipPath356)"><tspan
       style="font-variant:normal;font-weight:normal;font-size:15.98px;font-family:'Times New Roman';writing-mode:lr-tb;fill:#000000;fill-opacity:1;fill-rule:nonzero;stroke:none"
       x="0 7.984375 15.96875"
       y="0"
       sodipodi:role="line"
       id="tspan355">300</tspan></text>
  <path
     id="path357"
     d="m 383.89999,187.39999 h -18"
     style="fill:none;stroke:#000000;stroke-width:1;stroke-linecap:butt;stroke-linejoin:miter;stroke-miterlimit:10;stroke-dasharray:none;stroke-opacity:1"
     transform="matrix(1.3320001,0,0,1.3320001,-12.347722,-17.439416)"
     clip-path="url(#clipPath358)" />
  <text
     id="text358"
     xml:space="preserve"
     transform="translate(510.06268,238.17138)"
     clip-path="url(#clipPath359)"><tspan
       style="font-variant:normal;font-weight:normal;font-size:15.98px;font-family:'Times New Roman';writing-mode:lr-tb;fill:#000000;fill-opacity:1;fill-rule:nonzero;stroke:none"
       x="0"
       y="0"
       id="tspan358">0</tspan></text>
  <path
     id="path360"
     d="m 383.89999,179.89999 h -9 m 9,-7.39999 h -9 m 9,-7.39999 h -9 m 9,-7.40001 h -9 m 9,-7.4 h -18"
     style="fill:none;stroke:#000000;stroke-width:1;stroke-linecap:butt;stroke-linejoin:miter;stroke-miterlimit:10;stroke-dasharray:none;stroke-opacity:1"
     transform="matrix(1.3320001,0,0,1.3320001,-12.347722,-17.439416)"
     clip-path="url(#clipPath361)" />
  <text
     id="text361"
     xml:space="preserve"
     transform="translate(510.06268,188.75418)"
     clip-path="url(#clipPath362)"><tspan
       style="font-variant:normal;font-weight:normal;font-size:15.98px;font-family:'Times New Roman';writing-mode:lr-tb;fill:#000000;fill-opacity:1;fill-rule:nonzero;stroke:none"
       x="0"
       y="0"
       id="tspan361">5</tspan></text>
  <path
     id="path363"
     d="M 61.799999,16.700001 V 202.2 H 383.89999 V 16.700001 Z"
     style="fill:none;stroke:#000000;stroke-width:1;stroke-linecap:butt;stroke-linejoin:miter;stroke-miterlimit:10;stroke-dasharray:none;stroke-opacity:1"
     transform="matrix(1.3320001,0,0,1.3320001,-12.347722,-17.439416)"
     clip-path="url(#clipPath364)" />
  <text
     id="text364"
     xml:space="preserve"
     transform="rotate(-90,77.206856,66.111368)"
     clip-path="url(#clipPath365)"><tspan
       style="font-variant:normal;font-weight:normal;font-size:15.98px;font-family:'Times New Roman';writing-mode:lr-tb;fill:#000000;fill-opacity:1;fill-rule:nonzero;stroke:none"
       x="0 8.6385651 15.726257 28.147263 36.131638 43.21933 48.537048 55.624741 60.061371 68.045746 73.363464 80.451157 84.443344 89.761063 96.147003 106.79803"
       y="0"
       sodipodi:role="line"
       id="tspan364">Temperature (°C)</tspan></text>
  <text
     id="text365"
     xml:space="preserve"
     transform="rotate(-90,394.74105,-152.88413)"
     clip-path="url(#clipPath366)"><tspan
       style="font-variant:normal;font-weight:normal;font-size:15.98px;font-family:'Times New Roman';writing-mode:lr-tb;fill:#000000;fill-opacity:1;fill-rule:nonzero;stroke:none"
       x="0 8.8810577 16.865433 28.397552 35.485245 40.802963 44.795151 50.112869 58.097244 73.169312"
       y="0"
       sodipodi:role="line"
       id="tspan365">Power (kW)</tspan></text>
  <text
     id="text366"
     xml:space="preserve"
     transform="translate(257.43758,304.77128)"
     clip-path="url(#clipPath367)"><tspan
       style="font-variant:normal;font-weight:normal;font-size:15.98px;font-family:'Times New Roman';writing-mode:lr-tb;fill:#000000;fill-opacity:1;fill-rule:nonzero;stroke:none"
       x="0 9.1925507 13.629181 26.050186 33.137878 37.130066 42.447784 48.662186"
       y="0"
       sodipodi:role="line"
       id="tspan366">Time (s)</tspan></text>
  <path
     id="path368"
     d="M 61.799999,140.39999 H 63.099998 64.5 65.800003 67.199997 68.5 69.900002 71.199997 72.5 h 1.400002 1.299995 1.400001 1.300004 1.299995 1.400001 1.300004 1.400001 1.299995 H 86 87.300003 88.599998 90 91.300003 92.699997 94 95.400002 96.699997 98 99.400002 100.7 h 1.4 1.3 1.3 1.4 1.3 1.4 1.3 1.4 1.3 1.3 l 1.4,-103.099991 h 1.3 1.4 1.3 1.4 1.3 1.3 1.4 1.3 1.4 1.29999 1.30001 1.40001 1.29998 1.40001 1.30001 1.39999 1.3 1.30001 1.39999 1.3 1.4 1.3 1.39999 1.30001 1.3 1.39999 1.30001 1.40001 1.29998 1.30001 1.40001 1.29998 1.40001 1.30001 1.39999 1.3 1.30001 1.39999 1.3 1.4 1.3 1.39999 1.30001 1.3 1.39999 1.30001 1.40001 1.29998 1.30001 1.40001 1.29998 1.40001 1.30001 1.39999 1.3 1.30001 1.39999 1.3 1.4 1.3 1.39999 1.30001 1.3 1.39999 1.30001 1.40001 1.29998 1.30001 1.40001 1.29998 1.40001 1.30001 1.39999 1.3 1.30001 1.39999 1.3 1.4 1.3 1.39999 1.30001 1.3 1.39999 1.30001 1.40001 1.29998 1.30001 1.40001 1.29998 1.40001 1.30001 1.39999 1.3 1.30001 1.39999 1.3 1.4 1.3 1.3 1.4 1.3 1.39999 1.30001 1.40001 1.29998 1.30002 1.4 1.29998 1.4 1.30002 1.39999 1.29999 1.30002 1.39999 1.29999 1.40002 1.29999 1.29999 1.40002 1.29999 1.39999 1.30002 1.4 1.29998 1.30002 1.4 1.29998 1.4 1.30002 1.39999 1.29999 1.30002 1.39999 1.29999 1.40002 1.29999 1.29999 1.40002 1.29999 1.39999 1.30002 1.4 1.29998 1.30002 1.4 1.29998 1.4 1.30002 1.39999 1.29999 1.30002 1.39999 1.29999 1.40002 1.29999 1.29999 1.40002 1.29999 1.39999 1.30002 1.4 1.29998 1.30002 1.4 1.29998 1.4 1.30002 1.39999 1.29999 1.30002 1.39999 1.29999 1.40002 1.29999 1.29999 1.40002 1.29999 1.39999 1.30002 1.4 1.29998 1.30002 1.4 1.29998 1.4 1.30002 1.39999 1.29999 1.30002 1.39999 1.29999 1.40002 1.29999 1.29999 1.40002 1.29999 1.39999 1.30002 1.4 1.29998"
     style="fill:none;stroke:#ff0000;stroke-width:1;stroke-linecap:butt;stroke-linejoin:miter;stroke-miterlimit:10;stroke-dasharray:none;stroke-opacity:1"
     transform="matrix(1.3320001,0,0,1.3320001,-12.347722,-17.439416)"
     clip-path="url(#clipPath369)" />
  <path
     id="path370"
     d="M 61.799999,180.2 H 63.099998 64.5 65.800003 67.199997 68.5 69.900002 71.199997 72.5 h 1.400002 1.299995 1.400001 1.300004 1.299995 1.400001 1.300004 1.400001 1.299995 H 86 87.300003 88.599998 90 91.300003 92.699997 94 95.400002 96.699997 98 99.400002 100.7 h 1.4 1.3 1.3 1.4 1.3 1.4 1.3 1.4 1.3 1.3 1.4 l 1.3,-22.5 h 1.4 1.3 1.4 1.3 1.3 1.4 1.3 1.4 1.29999 1.30001 1.40001 1.29998 1.40001 1.30001 1.39999 1.3 1.30001 1.39999 1.3 l 1.4,1.6 1.3,3.80001 1.39999,3.39999 1.30001,3 1.3,2.60001 1.39999,2.19999 1.30001,1.80001 1.40001,1.59999 1.29998,1.3 1.30001,1.2 1.40001,0.90001 1.29998,0.69999 1.40001,0.7 1.30001,0.5 1.39999,0.3 1.3,0.30001 1.30001,0.19999 1.39999,0.2 1.3,0.10001 h 1.4 1.3 1.39999 L 173.2,184 h 1.3 l 1.39999,-0.10001 L 177.2,183.7 l 1.40001,-0.1 1.29998,-0.10001 1.30001,-0.2 1.40001,-0.1 1.29998,-0.1 1.40001,-0.20002 1.30001,-0.1 L 188,182.60001 189.3,182.5 190.60001,182.39999 192,182.2 l 1.3,-0.1 1.4,-0.10001 1.3,-0.10001 1.39999,-0.19999 1.30001,-0.1 1.3,-0.10001 1.39999,-0.10001 1.30001,-0.1 1.40001,-0.1 h 1.29998 l 1.30001,-0.1 1.40001,-0.10001 1.29998,-0.10001 H 210.8 l 1.30001,-0.1 1.39999,-0.1 h 1.3 l 1.30001,-0.1 H 217.5 l 1.3,-0.10001 h 1.4 1.3 l 1.39999,-0.10001 h 1.30001 1.3 l 1.39999,-0.1 h 1.30001 1.40001 l 1.29998,-0.1 h 1.30001 1.40001 1.29998 1.40001 l 1.30001,-0.1 H 239 h 1.3 1.30001 1.39999 1.3 1.4 1.3 l 1.3,-0.10001 h 1.4 1.3 1.39999 1.30001 1.40001 1.29998 1.30002 1.4 1.29998 1.4 1.30002 1.39999 1.29999 1.30002 1.39999 1.29999 1.40002 1.29999 1.29999 1.40002 1.29999 1.39999 1.30002 1.4 1.29998 1.30002 1.4 1.29998 l 1.4,-0.10001 h 1.30002 1.39999 1.29999 1.30002 1.39999 1.29999 1.40002 1.29999 1.29999 1.40002 1.29999 1.39999 1.30002 1.4 1.29998 1.30002 1.4 1.29998 1.4 1.30002 1.39999 1.29999 1.30002 1.39999 1.29999 1.40002 1.29999 1.29999 1.40002 1.29999 1.39999 1.30002 1.4 1.29998 1.30002 1.4 1.29998 1.4 1.30002 1.39999 1.29999 1.30002 1.39999 1.29999 1.40002 1.29999 1.29999 1.40002 1.29999 1.39999 1.30002 1.4 1.29998 1.30002 1.4 1.29998 1.4 1.30002 1.39999 1.29999 1.30002 1.39999 1.29999 1.40002 1.29999 1.29999 1.40002 1.29999 1.39999 1.30002 1.4 1.29998"
     style="fill:none;stroke:#0000ff;stroke-width:1;stroke-linecap:butt;stroke-linejoin:miter;stroke-miterlimit:10;stroke-dasharray:none;stroke-opacity:1"
     transform="matrix(1.3320001,0,0,1.3320001,-12.347722,-17.439416)"
     clip-path="url(#clipPath371)" />
  <path
     id="path372"
     d="M 61.799999,140.39999 H 63.099998 64.5 65.800003 67.199997 68.5 69.900002 71.199997 72.5 h 1.400002 1.299995 1.400001 1.300004 1.299995 1.400001 1.300004 1.400001 1.299995 H 86 87.300003 88.599998 90 91.300003 92.699997 94 95.400002 96.699997 98 99.400002 100.7 h 1.4 1.3 1.3 1.4 1.3 1.4 1.3 1.4 1.3 1.3 1.4 1.3 l 1.4,-0.19999 1.3,-0.5 1.4,-0.59999 1.3,-0.60001 1.3,-1 1.4,-1 1.3,-1.3 1.4,-1.2 1.29999,-1.7 1.30001,-1.6 1.40001,-1.7 1.29998,-2 1.40001,-2.1 1.30001,-2.1 1.39999,-2.2 1.3,-2.5 1.30001,-2.5 L 141,113 l 1.3,-2.7 1.4,-2.9 1.3,-2.9 1.39999,-2.9 L 147.7,98.699997 149,95.599998 150.39999,92.800003 151.7,89.900002 153.10001,87 l 1.29998,-2.699997 1.30001,-2.700005 1.40001,-2.400001 1.29998,-2.5 L 159.8,74.400002 161.10001,72.099998 162.5,69.900002 163.8,67.800003 165.10001,66 166.5,64.099998 167.8,62.299999 169.2,60.599998 170.5,59 l 1.39999,-1.5 1.30001,-1.400002 1.3,-1.299999 1.39999,-1.200001 1.30001,-1.199996 1.40001,-1.100003 1.29998,-1 L 181.2,49.5 l 1.40001,-1.099998 1.29998,-0.800004 1.40001,-0.799999 1.30001,-0.599998 1.39999,-0.600003 1.3,-0.899997 1.30001,-0.400002 1.39999,-0.599998 1.3,-0.600003 1.4,-0.399997 1.3,-0.400002 1.39999,-0.5 L 198.7,41.400002 200,41 201.39999,40.799999 202.7,40.400002 204.10001,40.200001 205.39999,40 206.7,39.799999 l 1.40001,-0.399997 1.29998,-0.200001 H 210.8 L 212.10001,39 213.5,38.799999 214.8,38.5 216.10001,38.299999 H 217.5 l 1.3,-0.200001 h 1.4 l 1.3,-0.199996 h 1.39999 L 224.2,37.700001 h 1.3 1.39999 L 228.2,37.5 h 1.40001 1.29998 L 232.2,37.299999 h 1.40001 1.29998 1.40001 1.30001 L 239,37.099998 h 1.3 1.30001 1.39999 1.3 1.4 1.3 1.3 1.4 l 1.3,-0.199996 h 1.39999 1.30001 1.40001 1.29998 1.30002 1.4 1.29998 1.4 1.30002 1.39999 1.29999 1.30002 1.39999 1.29999 1.40002 1.29999 1.29999 1.40002 1.29999 1.39999 1.30002 1.4 1.29998 1.30002 1.4 1.29998 1.4 1.30002 1.39999 1.29999 1.30002 1.39999 1.29999 1.40002 1.29999 1.29999 1.40002 1.29999 1.39999 1.30002 1.4 1.29998 1.30002 1.4 1.29998 1.4 1.30002 1.39999 1.29999 1.30002 1.39999 1.29999 1.40002 1.29999 1.29999 1.40002 1.29999 1.39999 1.30002 1.4 1.29998 1.30002 1.4 1.29998 1.4 1.30002 1.39999 1.29999 1.30002 1.39999 1.29999 1.40002 1.29999 1.29999 1.40002 1.29999 1.39999 1.30002 1.4 1.29998 1.30002 1.4 1.29998 1.4 1.30002 1.39999 1.29999 1.30002 1.39999 1.29999 1.40002 1.29999 1.29999 1.40002 1.29999 1.39999 1.30002 1.4 1.29998"
     style="fill:none;stroke:#00ff00;stroke-width:1;stroke-linecap:butt;stroke-linejoin:miter;stroke-miterlimit:10;stroke-dasharray:none;stroke-opacity:1"
     transform="matrix(1.3320001,0,0,1.3320001,-12.347722,-17.439416)"
     clip-path="url(#clipPath373)" />
  <path
     id="path374"
     d="M 61.799999,16.700001 V 202.2 H 383.89999 V 16.700001 Z"
     style="fill:none;stroke:#000000;stroke-width:1;stroke-linecap:butt;stroke-linejoin:miter;stroke-miterlimit:10;stroke-dasharray:none;stroke-opacity:1"
     transform="matrix(1.3320001,0,0,1.3320001,-12.347722,-17.439416)"
     clip-path="url(#clipPath375)" />
</svg>
