<?xml version="1.0" encoding="UTF-8"?>
<svg id="Ebene_1" data-name="Ebene 1" xmlns="http://www.w3.org/2000/svg" viewBox="0 0 962.42 714.49">
  <g>
    <line x1="78" y1="622.54" x2="951.79" y2="622.54" fill="none" stroke="#d9d9d9" stroke-linejoin="round" stroke-width="2"/>
    <line x1="78" y1="527.5" x2="951.79" y2="527.5" fill="none" stroke="#d9d9d9" stroke-linejoin="round" stroke-width="2"/>
    <line x1="78" y1="432.46" x2="951.79" y2="432.46" fill="none" stroke="#d9d9d9" stroke-linejoin="round" stroke-width="2"/>
    <line x1="78" y1="337.42" x2="951.79" y2="337.42" fill="none" stroke="#d9d9d9" stroke-linejoin="round" stroke-width="2"/>
    <line x1="78" y1="242.38" x2="951.79" y2="242.38" fill="none" stroke="#d9d9d9" stroke-linejoin="round" stroke-width="2"/>
    <line x1="78" y1="147.34" x2="951.79" y2="147.34" fill="none" stroke="#d9d9d9" stroke-linejoin="round" stroke-width="2"/>
    <line x1="78" y1="52.3" x2="951.79" y2="52.3" fill="none" stroke="#d9d9d9" stroke-linejoin="round" stroke-width="2"/>
    <line x1="157.41" y1="652.13" x2="157.41" y2="1" fill="none" stroke="#d9d9d9" stroke-linejoin="round" stroke-width="2"/>
    <line x1="316.29" y1="652.13" x2="316.29" y2="1" fill="none" stroke="#d9d9d9" stroke-linejoin="round" stroke-width="2"/>
    <line x1="475.16" y1="652.13" x2="475.16" y2="1" fill="none" stroke="#d9d9d9" stroke-linejoin="round" stroke-width="2"/>
    <line x1="634.04" y1="652.13" x2="634.04" y2="1" fill="none" stroke="#d9d9d9" stroke-linejoin="round" stroke-width="2"/>
    <line x1="792.92" y1="652.13" x2="792.92" y2="1" fill="none" stroke="#d9d9d9" stroke-linejoin="round" stroke-width="2"/>
  </g>
  <line x1="157.41" y1="652.13" x2="157.41" y2="644.95" fill="none" stroke="#000" stroke-linecap="round" stroke-linejoin="round" stroke-width="2"/>
  <path d="m154.15,679.84c-1.65-1.52-1.89-4.27-1.89-6.69s.24-5.15,1.89-6.67c.75-.68,1.78-1.25,3.26-1.25s2.53.55,3.26,1.25c1.63,1.56,1.89,4.27,1.89,6.67s-.24,5.17-1.89,6.69c-.73.68-1.78,1.25-3.26,1.25s-2.51-.57-3.26-1.25Zm5.79-.7c1.43-1.34,1.52-3.98,1.52-5.98s-.07-4.62-1.52-5.96c-.59-.55-1.39-.9-2.53-.9s-1.94.37-2.51.9c-1.45,1.34-1.52,3.98-1.52,5.96s.07,4.64,1.52,5.98c.57.53,1.39.9,2.51.9s1.96-.35,2.53-.9Z"/>
  <line x1="316.29" y1="652.13" x2="316.29" y2="644.95" fill="none" stroke="#000" stroke-linecap="round" stroke-linejoin="round" stroke-width="2"/>
  <path d="m311.68,679.6l6.36-6.86c1.01-1.1,1.52-2.2,1.52-3.34,0-1.8-1.23-3.1-3.32-3.1s-3.41,1.43-3.41,3.92h-1.17c0-3.08,1.87-4.97,4.58-4.97,2.51,0,4.42,1.61,4.42,4.16,0,1.36-.66,2.82-1.76,3.98l-5.96,6.36h8.12v1.06h-9.37v-1.19Z"/>
  <line x1="475.16" y1="652.13" x2="475.16" y2="644.95" fill="none" stroke="#000" stroke-linecap="round" stroke-linejoin="round" stroke-width="2"/>
  <path d="m477.27,677.2h-7.61v-1.32l6.6-10.34h1.3l-6.78,10.56h6.49v-5.04h1.12v5.04h2.27v1.1h-2.27v3.59h-1.12v-3.59Z"/>
  <line x1="634.04" y1="652.13" x2="634.04" y2="644.95" fill="none" stroke="#000" stroke-linecap="round" stroke-linejoin="round" stroke-width="2"/>
  <path d="m630.44,679.23c-1.17-1.56-1.41-3.89-1.41-6.07,0-2.33.31-4.86,1.8-6.47.73-.77,1.87-1.45,3.45-1.45,2.57,0,4.42,1.58,4.55,3.98h-1.12c-.15-1.76-1.32-2.93-3.43-2.93-3.41,0-4.11,3.67-4.11,7.3.55-1.61,2.22-2.68,4.03-2.68,3.17,0,4.99,2.05,4.99,5.06,0,2.82-1.8,5.13-4.97,5.13-1.78,0-3.06-.9-3.78-1.87Zm7.64-3.26c0-2.11-1.21-4.05-3.85-4.05-2.2,0-3.74,1.78-3.74,4s1.32,4.11,3.76,4.11c2.64,0,3.83-1.94,3.83-4.07Z"/>
  <line x1="792.92" y1="652.13" x2="792.92" y2="644.95" fill="none" stroke="#000" stroke-linecap="round" stroke-linejoin="round" stroke-width="2"/>
  <path d="m787.86,676.76c0-1.72,1.1-3.37,2.84-3.94-1.5-.55-2.49-2-2.49-3.52,0-2.55,2.09-4.07,4.71-4.07s4.71,1.52,4.71,4.07c0,1.52-.99,2.97-2.49,3.52,1.74.57,2.84,2.22,2.84,3.94,0,2.73-2.33,4.33-5.06,4.33s-5.06-1.61-5.06-4.33Zm9-.07c0-2.18-1.76-3.39-3.94-3.39s-3.94,1.21-3.94,3.39,1.76,3.39,3.94,3.39,3.94-1.21,3.94-3.39Zm-.37-7.44c0-1.96-1.61-3.04-3.56-3.04s-3.56,1.08-3.56,3.04,1.56,3.08,3.56,3.08,3.56-1.08,3.56-3.08Z"/>
  <line x1="951.79" y1="652.13" x2="951.79" y2="644.95" fill="none" stroke="#000" stroke-linecap="round" stroke-linejoin="round" stroke-width="2"/>
  <g>
    <path d="m941.78,669.74v-1.23l4.18-2.97h.99v15.25h-1.1v-13.88l-4.07,2.84Z"/>
    <path d="m952.56,679.84c-1.65-1.52-1.89-4.27-1.89-6.69s.24-5.15,1.89-6.67c.75-.68,1.78-1.25,3.26-1.25s2.53.55,3.26,1.25c1.63,1.56,1.89,4.27,1.89,6.67s-.24,5.17-1.89,6.69c-.73.68-1.78,1.25-3.26,1.25s-2.51-.57-3.26-1.25Zm5.79-.7c1.43-1.34,1.52-3.98,1.52-5.98s-.07-4.62-1.52-5.96c-.59-.55-1.39-.9-2.53-.9s-1.94.37-2.51.9c-1.45,1.34-1.52,3.98-1.52,5.96s.07,4.64,1.52,5.98c.57.53,1.39.9,2.51.9s1.96-.35,2.53-.9Z"/>
  </g>
  <line x1="85.18" y1="622.54" x2="78" y2="622.54" fill="none" stroke="#000" stroke-linecap="round" stroke-linejoin="round" stroke-width="2"/>
  <g>
    <path d="m39.43,627.7c-1.65-1.52-1.89-4.27-1.89-6.69s.24-5.15,1.89-6.67c.75-.68,1.78-1.25,3.26-1.25s2.53.55,3.26,1.25c1.63,1.56,1.89,4.27,1.89,6.67s-.24,5.17-1.89,6.69c-.73.68-1.78,1.25-3.26,1.25s-2.51-.57-3.26-1.25Zm5.79-.7c1.43-1.34,1.52-3.98,1.52-5.98s-.07-4.62-1.52-5.96c-.59-.55-1.39-.9-2.53-.9s-1.94.37-2.51.9c-1.45,1.34-1.52,3.98-1.52,5.96s.07,4.64,1.52,5.98c.57.53,1.39.9,2.51.9s1.96-.35,2.53-.9Z"/>
    <path d="m53.12,626.67v1.98h-1.94v-1.98h1.94Z"/>
    <path d="m58.35,627.7c-1.65-1.52-1.89-4.27-1.89-6.69s.24-5.15,1.89-6.67c.75-.68,1.78-1.25,3.26-1.25s2.53.55,3.26,1.25c1.63,1.56,1.89,4.27,1.89,6.67s-.24,5.17-1.89,6.69c-.73.68-1.78,1.25-3.26,1.25s-2.51-.57-3.26-1.25Zm5.79-.7c1.43-1.34,1.52-3.98,1.52-5.98s-.07-4.62-1.52-5.96c-.59-.55-1.39-.9-2.53-.9s-1.94.37-2.51.9c-1.45,1.34-1.52,3.98-1.52,5.96s.07,4.64,1.52,5.98c.57.53,1.39.9,2.51.9s1.96-.35,2.53-.9Z"/>
  </g>
  <line x1="85.18" y1="527.5" x2="78" y2="527.5" fill="none" stroke="#000" stroke-linecap="round" stroke-linejoin="round" stroke-width="2"/>
  <g>
    <path d="m40.86,532.66c-1.65-1.52-1.89-4.27-1.89-6.69s.24-5.15,1.89-6.67c.75-.68,1.78-1.25,3.26-1.25s2.53.55,3.26,1.25c1.63,1.56,1.89,4.27,1.89,6.67s-.24,5.17-1.89,6.69c-.73.68-1.78,1.25-3.26,1.25s-2.51-.57-3.26-1.25Zm5.79-.7c1.43-1.34,1.52-3.98,1.52-5.98s-.07-4.62-1.52-5.96c-.59-.55-1.39-.9-2.53-.9s-1.94.37-2.51.9c-1.45,1.34-1.52,3.98-1.52,5.96s.07,4.64,1.52,5.98c.57.53,1.39.9,2.51.9s1.96-.35,2.53-.9Z"/>
    <path d="m54.55,531.63v1.98h-1.94v-1.98h1.94Z"/>
    <path d="m57.71,532.42l6.36-6.87c1.01-1.1,1.52-2.2,1.52-3.34,0-1.8-1.23-3.1-3.32-3.1s-3.41,1.43-3.41,3.92h-1.17c0-3.08,1.87-4.97,4.58-4.97,2.51,0,4.42,1.61,4.42,4.16,0,1.36-.66,2.82-1.76,3.98l-5.96,6.36h8.12v1.06h-9.37v-1.19Z"/>
  </g>
  <line x1="85.18" y1="432.46" x2="78" y2="432.46" fill="none" stroke="#000" stroke-linecap="round" stroke-linejoin="round" stroke-width="2"/>
  <g>
    <path d="m40.29,437.62c-1.65-1.52-1.89-4.27-1.89-6.69s.24-5.15,1.89-6.67c.75-.68,1.78-1.25,3.26-1.25s2.53.55,3.26,1.25c1.63,1.56,1.89,4.27,1.89,6.67s-.24,5.17-1.89,6.69c-.73.68-1.78,1.25-3.26,1.25s-2.51-.57-3.26-1.25Zm5.79-.7c1.43-1.34,1.52-3.98,1.52-5.98s-.07-4.62-1.52-5.96c-.59-.55-1.39-.9-2.53-.9s-1.94.37-2.51.9c-1.45,1.34-1.52,3.98-1.52,5.96s.07,4.64,1.52,5.98c.57.53,1.39.9,2.51.9s1.96-.35,2.53-.9Z"/>
    <path d="m53.97,436.59v1.98h-1.94v-1.98h1.94Z"/>
    <path d="m64.14,434.98h-7.61v-1.32l6.6-10.34h1.3l-6.78,10.56h6.49v-5.04h1.12v5.04h2.27v1.1h-2.27v3.59h-1.12v-3.59Z"/>
  </g>
  <line x1="85.18" y1="337.42" x2="78" y2="337.42" fill="none" stroke="#000" stroke-linecap="round" stroke-linejoin="round" stroke-width="2"/>
  <g>
    <path d="m39.76,342.58c-1.65-1.52-1.89-4.27-1.89-6.69s.24-5.15,1.89-6.67c.75-.68,1.78-1.25,3.26-1.25s2.53.55,3.26,1.25c1.63,1.56,1.89,4.27,1.89,6.67s-.24,5.17-1.89,6.69c-.73.68-1.78,1.25-3.26,1.25s-2.51-.57-3.26-1.25Zm5.79-.7c1.43-1.34,1.52-3.98,1.52-5.98s-.07-4.62-1.52-5.96c-.59-.55-1.39-.9-2.53-.9s-1.94.37-2.51.9c-1.45,1.34-1.52,3.98-1.52,5.96s.07,4.64,1.52,5.98c.57.53,1.39.9,2.51.9s1.96-.35,2.53-.9Z"/>
    <path d="m53.45,341.55v1.98h-1.94v-1.98h1.94Z"/>
    <path d="m58.18,341.97c-1.17-1.56-1.41-3.9-1.41-6.07,0-2.33.31-4.86,1.8-6.47.73-.77,1.87-1.45,3.45-1.45,2.57,0,4.42,1.58,4.55,3.98h-1.12c-.15-1.76-1.32-2.93-3.43-2.93-3.41,0-4.11,3.67-4.11,7.31.55-1.61,2.22-2.68,4.03-2.68,3.17,0,4.99,2.05,4.99,5.06,0,2.82-1.8,5.13-4.97,5.13-1.78,0-3.06-.9-3.78-1.87Zm7.64-3.26c0-2.11-1.21-4.05-3.85-4.05-2.2,0-3.74,1.78-3.74,4s1.32,4.11,3.76,4.11c2.64,0,3.83-1.94,3.83-4.07Z"/>
  </g>
  <line x1="85.18" y1="242.38" x2="78" y2="242.38" fill="none" stroke="#000" stroke-linecap="round" stroke-linejoin="round" stroke-width="2"/>
  <g>
    <path d="m39.78,247.54c-1.65-1.52-1.89-4.27-1.89-6.69s.24-5.15,1.89-6.67c.75-.68,1.78-1.25,3.26-1.25s2.53.55,3.26,1.25c1.63,1.56,1.89,4.27,1.89,6.67s-.24,5.17-1.89,6.69c-.73.68-1.78,1.25-3.26,1.25s-2.51-.57-3.26-1.25Zm5.79-.7c1.43-1.34,1.52-3.98,1.52-5.98s-.07-4.62-1.52-5.96c-.59-.55-1.39-.9-2.53-.9s-1.94.37-2.51.9c-1.45,1.34-1.52,3.98-1.52,5.96s.07,4.64,1.52,5.98c.57.53,1.39.9,2.51.9s1.96-.35,2.53-.9Z"/>
    <path d="m53.47,246.51v1.98h-1.94v-1.98h1.94Z"/>
    <path d="m56.72,244.46c0-1.72,1.1-3.37,2.84-3.94-1.5-.55-2.49-2-2.49-3.52,0-2.55,2.09-4.07,4.71-4.07s4.71,1.52,4.71,4.07c0,1.52-.99,2.97-2.49,3.52,1.74.57,2.84,2.22,2.84,3.94,0,2.73-2.33,4.33-5.06,4.33s-5.06-1.61-5.06-4.33Zm9-.07c0-2.18-1.76-3.39-3.94-3.39s-3.94,1.21-3.94,3.39,1.76,3.39,3.94,3.39,3.94-1.21,3.94-3.39Zm-.37-7.44c0-1.96-1.61-3.04-3.56-3.04s-3.56,1.08-3.56,3.04,1.56,3.08,3.56,3.08,3.56-1.08,3.56-3.08Z"/>
  </g>
  <line x1="85.18" y1="147.34" x2="78" y2="147.34" fill="none" stroke="#000" stroke-linecap="round" stroke-linejoin="round" stroke-width="2"/>
  <g>
    <path d="m41.85,142.41v-1.23l4.18-2.97h.99v15.25h-1.1v-13.88l-4.07,2.84Z"/>
    <path d="m53.12,151.47v1.98h-1.94v-1.98h1.94Z"/>
    <path d="m58.35,152.5c-1.65-1.52-1.89-4.27-1.89-6.69s.24-5.15,1.89-6.67c.75-.68,1.78-1.25,3.26-1.25s2.53.55,3.26,1.25c1.63,1.56,1.89,4.27,1.89,6.67s-.24,5.17-1.89,6.69c-.73.68-1.78,1.25-3.26,1.25s-2.51-.57-3.26-1.25Zm5.79-.7c1.43-1.34,1.52-3.98,1.52-5.98s-.07-4.62-1.52-5.96c-.59-.55-1.39-.9-2.53-.9s-1.94.37-2.51.9c-1.45,1.34-1.52,3.98-1.52,5.96s.07,4.64,1.52,5.98c.57.53,1.39.9,2.51.9s1.96-.35,2.53-.9Z"/>
  </g>
  <line x1="85.18" y1="52.3" x2="78" y2="52.3" fill="none" stroke="#000" stroke-linecap="round" stroke-linejoin="round" stroke-width="2"/>
  <g>
    <path d="m43.28,47.36v-1.23l4.18-2.97h.99v15.25h-1.1v-13.88l-4.07,2.84Z"/>
    <path d="m54.55,56.43v1.98h-1.94v-1.98h1.94Z"/>
    <path d="m57.71,57.22l6.36-6.87c1.01-1.1,1.52-2.2,1.52-3.34,0-1.8-1.23-3.1-3.32-3.1s-3.41,1.43-3.41,3.92h-1.17c0-3.08,1.87-4.97,4.58-4.97,2.51,0,4.42,1.61,4.42,4.16,0,1.36-.66,2.82-1.76,3.98l-5.96,6.36h8.12v1.06h-9.37v-1.19Z"/>
  </g>
  <polyline points="157.41 622.54 160.03 622.28 162.66 621.55 165.28 620.35 167.91 618.74 171.4 615.99 174.9 612.61 178.4 608.68 182.78 603.06 188.02 595.45 193.27 587.06 200.27 574.95 209.02 558.8 226.51 525.23 238.76 502.2 248.38 485.01 256.25 471.75 264.12 459.33 271.12 449.06 278.12 439.53 285.11 430.77 292.11 422.77 298.24 416.39 304.36 410.57 310.48 405.31 316.6 400.57 322.73 396.34 328.85 392.58 334.97 389.28 341.97 386.03 348.97 383.28 355.97 381 362.96 379.15 370.83 377.52 378.71 376.31 387.45 375.41 397.08 374.85 407.57 374.68 419.82 374.92 434.69 375.66 455.68 377.2 517.78 381.99 543.15 383.38 569.39 384.37 598.26 385.01 633.24 385.34 684.85 385.34 914.9 384.93 950.39 384.94" fill="none" stroke="#069" stroke-linecap="round" stroke-linejoin="round" stroke-width="4"/>
  <polyline points="157.41 622.54 158.28 622.39 159.16 621.97 160.91 620.3 162.66 617.58 164.41 613.87 166.16 609.22 168.78 600.58 171.4 590.14 174.03 578.05 177.53 559.71 181.9 533.8 187.15 499.36 194.15 449.89 210.77 330.73 216.89 290.52 222.14 258.92 226.51 234.95 230.88 213.34 235.26 194.21 238.76 180.74 242.25 168.92 245.75 158.73 249.25 150.16 251.88 144.76 254.5 140.23 257.12 136.54 259.75 133.65 262.37 131.53 265 130.16 267.62 129.47 270.24 129.45 272.87 130.05 275.49 131.21 278.12 132.91 280.74 135.09 284.24 138.67 287.74 142.93 292.11 149.05 297.36 157.29 304.36 169.28 324.48 204.46 330.6 214.05 335.85 221.5 341.1 228.16 345.47 233.05 349.84 237.32 354.22 240.96 358.59 243.97 362.96 246.37 367.34 248.18 371.71 249.43 376.08 250.15 380.46 250.39 384.83 250.2 390.08 249.46 395.33 248.25 401.45 246.37 408.45 243.75 418.94 239.31 437.31 231.48 446.06 228.26 453.93 225.8 461.8 223.83 469.68 222.35 477.55 221.37 485.42 220.84 494.17 220.71 503.79 221.03 515.16 221.87 532.65 223.65 557.15 226.09 572.89 227.19 587.76 227.79 603.5 227.99 622.75 227.78 713.72 226.2 758.33 226.39 829.18 226.64 950.46 226.55" fill="none" stroke="red" stroke-linecap="round" stroke-linejoin="round" stroke-width="4"/>
  <polyline points="157.41 622.54 158.28 622.25 159.16 621.4 160.03 620 161.78 615.61 163.53 609.19 165.28 600.87 167.03 590.76 169.65 572.54 172.28 551.05 175.78 518.11 180.15 471.58 186.27 400.17 198.52 254.88 203.77 198.54 208.14 156.58 211.64 126.9 215.14 101.02 217.76 84.23 220.39 69.75 223.01 57.6 225.64 47.77 227.38 42.48 229.13 38.2 230.88 34.9 232.63 32.55 234.38 31.12 236.13 30.59 237.88 30.92 239.63 32.07 241.38 33.99 243.13 36.65 244.88 39.99 247.5 46.19 250.13 53.68 253.63 65.35 257.12 78.59 262.37 100.52 280.74 180.11 285.11 196.45 288.61 208.18 292.11 218.55 295.61 227.49 298.24 233.2 300.86 238.05 303.48 242.04 306.11 245.18 308.73 247.48 310.48 248.57 312.23 249.3 313.98 249.7 315.73 249.77 317.48 249.53 320.1 248.62 322.73 247.09 325.35 245 327.97 242.42 331.47 238.3 335.85 232.3 341.1 224.2 360.34 193.44 364.71 187.49 369.09 182.25 372.58 178.65 376.08 175.58 379.58 173.09 383.08 171.15 386.58 169.78 390.08 168.95 393.58 168.62 397.08 168.78 400.57 169.36 404.95 170.62 409.32 172.38 414.57 174.99 421.57 179.02 439.06 189.38 445.18 192.41 450.43 194.57 455.68 196.29 460.93 197.54 466.18 198.32 471.42 198.65 476.67 198.58 482.8 198.06 489.79 197.01 499.42 195.06 522.16 190.2 530.9 188.86 539.65 187.98 548.4 187.58 557.15 187.61 567.64 188.09 583.39 189.3 605.25 190.94 619.25 191.52 633.24 191.66 650.74 191.36 702.34 190.16 727.71 190.23 797.69 190.69 950.46 190.57" fill="none" stroke="#6c3" stroke-linecap="round" stroke-linejoin="round" stroke-width="4"/>
  <g>
    <line x1="79.22" y1="622.54" x2="83.22" y2="622.54" fill="none" stroke="#000" stroke-linecap="round" stroke-linejoin="round" stroke-width="4"/>
    <line x1="94.8" y1="622.54" x2="146.9" y2="622.54" fill="none" stroke="#000" stroke-dasharray="0 0 7.72 11.58" stroke-linecap="round" stroke-linejoin="round" stroke-width="4"/>
    <polyline points="152.69 622.54 156.69 622.54 156.7 618.54" fill="none" stroke="#000" stroke-linecap="round" stroke-linejoin="round" stroke-width="4"/>
    <line x1="156.72" y1="606.66" x2="157.55" y2="157.29" fill="none" stroke="#000" stroke-dasharray="0 0 7.92 11.88" stroke-linecap="round" stroke-linejoin="round" stroke-width="4"/>
    <polyline points="157.56 151.35 157.57 147.35 161.57 147.35" fill="none" stroke="#000" stroke-linecap="round" stroke-linejoin="round" stroke-width="4"/>
    <line x1="173.46" y1="147.35" x2="940.51" y2="147.35" fill="none" stroke="#000" stroke-dasharray="0 0 7.93 11.89" stroke-linecap="round" stroke-linejoin="round" stroke-width="4"/>
    <line x1="946.46" y1="147.35" x2="950.46" y2="147.35" fill="none" stroke="#000" stroke-linecap="round" stroke-linejoin="round" stroke-width="4"/>
  </g>
  <g>
    <path id="path227" d="m689.77,466.52h43.97" fill="none" stroke="#069" stroke-linecap="round" stroke-linejoin="round" stroke-width="4"/>
    <path id="path227-2" data-name="path227" d="m689.77,506.13h43.97" fill="none" stroke="red" stroke-linecap="round" stroke-linejoin="round" stroke-width="4"/>
    <g>
      <path d="m752.67,454.04h1.52v12.52l11.3-12.52h1.83l-7.89,8.72,8.01,11.55h-1.74l-7.26-10.47-4.23,4.66v5.8h-1.52v-20.27Z"/>
      <path d="m769.38,475.5h.77l.07,1.58c.47-1.1,1.7-1.82,2.85-1.82.98,0,1.72.32,2.28.8.97.82,1.4,2.1,1.4,3.59s-.42,2.7-1.32,3.54c-.57.53-1.35.88-2.35.88-1.22,0-2.4-.68-2.87-1.75v4.84h-.83v-11.66Zm5.57,7c.67-.72.95-1.77.95-2.83,0-1.18-.33-2.3-1.13-2.99-.42-.37-.98-.6-1.72-.6s-1.32.28-1.75.68c-.77.73-1.1,1.75-1.1,2.9,0,1.23.3,2.2,1.08,2.92.43.4,1.02.67,1.8.67s1.43-.28,1.87-.75Z"/>
      <path d="m799.45,462.33v1.26h-12.75v-1.26h12.75Zm0,6.03v1.26h-12.75v-1.26h12.75Z"/>
      <path d="m809.21,459.96v-1.6l5.43-3.86h1.29v19.82h-1.43v-18.04l-5.29,3.69Z"/>
      <path d="m823.85,471.74v2.57h-2.52v-2.57h2.52Z"/>
      <path d="m829.66,473.09c-2.14-1.97-2.46-5.55-2.46-8.69s.31-6.69,2.46-8.66c.97-.89,2.32-1.63,4.23-1.63s3.29.71,4.23,1.63c2.12,2.03,2.46,5.55,2.46,8.66s-.31,6.72-2.46,8.69c-.94.89-2.32,1.63-4.23,1.63s-3.26-.74-4.23-1.63Zm7.52-.92c1.86-1.74,1.97-5.18,1.97-7.78s-.09-6-1.97-7.75c-.77-.71-1.8-1.17-3.29-1.17s-2.52.49-3.26,1.17c-1.89,1.74-1.97,5.18-1.97,7.75s.09,6.03,1.97,7.78c.74.69,1.8,1.17,3.26,1.17s2.54-.46,3.29-1.17Z"/>
    </g>
    <g>
      <path d="m752.67,493.64h1.52v12.52l11.3-12.52h1.83l-7.89,8.72,8.01,11.55h-1.74l-7.26-10.47-4.23,4.66v5.8h-1.52v-20.27Z"/>
      <path d="m769.38,515.1h.77l.07,1.58c.47-1.1,1.7-1.82,2.85-1.82.98,0,1.72.32,2.28.8.97.82,1.4,2.1,1.4,3.59s-.42,2.7-1.32,3.54c-.57.53-1.35.88-2.35.88-1.22,0-2.4-.68-2.87-1.75v4.84h-.83v-11.66Zm5.57,7c.67-.72.95-1.77.95-2.83,0-1.18-.33-2.3-1.13-2.99-.42-.37-.98-.6-1.72-.6s-1.32.28-1.75.68c-.77.73-1.1,1.75-1.1,2.9,0,1.23.3,2.2,1.08,2.92.43.4,1.02.67,1.8.67s1.43-.28,1.87-.75Z"/>
      <path d="m799.45,501.93v1.26h-12.75v-1.26h12.75Zm0,6.03v1.26h-12.75v-1.26h12.75Z"/>
      <path d="m809.98,508.17h1.43c.14,2.8,2.09,4.78,5.09,4.78,3.17,0,4.98-2.23,4.98-5.23s-1.57-5.29-4.75-5.29c-1.77,0-3.52.69-4.46,2.17h-1.69l.8-10.49h10.84v1.34h-9.61l-.66,7.72c1.09-1.4,3-2.09,4.78-2.09,4.09,0,6.18,2.86,6.18,6.63s-2.26,6.61-6.41,6.61-6.43-2.66-6.52-6.15Z"/>
      <path d="m829.48,511.34v2.57h-2.52v-2.57h2.52Z"/>
      <path d="m835.29,512.69c-2.14-1.97-2.46-5.55-2.46-8.69s.31-6.69,2.46-8.66c.97-.89,2.32-1.63,4.23-1.63s3.29.71,4.23,1.63c2.12,2.03,2.46,5.55,2.46,8.66s-.31,6.72-2.46,8.69c-.94.89-2.32,1.63-4.23,1.63s-3.26-.74-4.23-1.63Zm7.52-.92c1.86-1.74,1.97-5.18,1.97-7.78s-.09-6-1.97-7.75c-.77-.71-1.8-1.17-3.29-1.17s-2.52.49-3.26,1.17c-1.89,1.74-1.97,5.18-1.97,7.75s.09,6.03,1.97,7.78c.74.69,1.8,1.17,3.26,1.17s2.54-.46,3.29-1.17Z"/>
    </g>
    <path id="path227-3" data-name="path227" d="m689.77,545.73h43.97" fill="none" stroke="#6c3" stroke-linecap="round" stroke-linejoin="round" stroke-width="4"/>
    <g>
      <path d="m752.67,533.24h1.52v12.52l11.3-12.52h1.83l-7.89,8.72,8.01,11.55h-1.74l-7.26-10.47-4.23,4.66v5.8h-1.52v-20.27Z"/>
      <path d="m769.38,554.7h.77l.07,1.58c.47-1.1,1.7-1.82,2.85-1.82.98,0,1.72.32,2.28.8.97.82,1.4,2.1,1.4,3.59s-.42,2.7-1.32,3.54c-.57.53-1.35.88-2.35.88-1.22,0-2.4-.68-2.87-1.75v4.84h-.83v-11.66Zm5.57,7c.67-.72.95-1.77.95-2.84,0-1.18-.33-2.3-1.13-2.98-.42-.37-.98-.6-1.72-.6s-1.32.28-1.75.68c-.77.73-1.1,1.75-1.1,2.9,0,1.23.3,2.2,1.08,2.92.43.4,1.02.67,1.8.67s1.43-.28,1.87-.75Z"/>
      <path d="m799.45,541.54v1.26h-12.75v-1.26h12.75Zm0,6.03v1.26h-12.75v-1.26h12.75Z"/>
      <path d="m809.21,539.16v-1.6l5.43-3.86h1.29v19.82h-1.43v-18.04l-5.29,3.69Z"/>
      <path d="m823.22,552.29c-2.14-1.97-2.46-5.55-2.46-8.69s.31-6.69,2.46-8.66c.97-.89,2.32-1.63,4.23-1.63s3.29.71,4.23,1.63c2.12,2.03,2.46,5.55,2.46,8.66s-.31,6.72-2.46,8.69c-.94.89-2.32,1.63-4.23,1.63s-3.26-.74-4.23-1.63Zm7.52-.92c1.86-1.74,1.97-5.18,1.97-7.78s-.09-6-1.97-7.75c-.77-.71-1.8-1.17-3.29-1.17s-2.52.49-3.26,1.17c-1.89,1.74-1.97,5.18-1.97,7.75s.09,6.03,1.97,7.78c.74.69,1.8,1.17,3.26,1.17s2.54-.46,3.29-1.17Z"/>
      <path d="m840.01,550.94v2.57h-2.52v-2.57h2.52Z"/>
      <path d="m845.81,552.29c-2.14-1.97-2.46-5.55-2.46-8.69s.31-6.69,2.46-8.66c.97-.89,2.32-1.63,4.23-1.63s3.29.71,4.23,1.63c2.12,2.03,2.46,5.55,2.46,8.66s-.31,6.72-2.46,8.69c-.94.89-2.32,1.63-4.23,1.63s-3.26-.74-4.23-1.63Zm7.52-.92c1.86-1.74,1.97-5.18,1.97-7.78s-.09-6-1.97-7.75c-.77-.71-1.8-1.17-3.29-1.17s-2.52.49-3.26,1.17c-1.89,1.74-1.97,5.18-1.97,7.75s.09,6.03,1.97,7.78c.74.69,1.8,1.17,3.26,1.17s2.54-.46,3.29-1.17Z"/>
    </g>
    <g id="path227-4" data-name="path227">
      <g>
        <line x1="689.77" y1="585.32" x2="693.77" y2="585.32" fill="none" stroke="#000" stroke-linecap="round" stroke-linejoin="round" stroke-width="4"/>
        <line x1="707.26" y1="585.32" x2="722.99" y2="585.32" fill="none" stroke="#000" stroke-dasharray="0 0 8.99 13.49" stroke-linecap="round" stroke-linejoin="round" stroke-width="4"/>
        <line x1="729.74" y1="585.32" x2="733.74" y2="585.32" fill="none" stroke="#000" stroke-linecap="round" stroke-linejoin="round" stroke-width="4"/>
      </g>
    </g>
    <g>
      <path d="m754.18,572.83v20.27h-1.52v-20.27h1.52Z"/>
      <path d="m759.85,578.81h1.32l.11,2.75c.74-1.97,2.97-3.15,4.98-3.15,3.26,0,5.06,2.17,5.06,5.35v9.35h-1.43v-9.21c0-2.4-1.23-4.09-3.77-4.09-3.17,0-4.83,2.63-4.83,5.8v7.49h-1.43v-14.3Z"/>
      <path d="m776.46,578.81h1.32l.11,2.72c.8-1.89,2.92-3.12,4.89-3.12,1.69,0,2.95.54,3.92,1.37,1.66,1.4,2.4,3.6,2.4,6.15s-.71,4.63-2.26,6.06c-.97.92-2.32,1.52-4.03,1.52-2.09,0-4.12-1.17-4.92-3v8.29h-1.43v-19.99Zm9.55,12.01c1.14-1.23,1.63-3.03,1.63-4.86,0-2.03-.57-3.95-1.94-5.12-.71-.63-1.69-1.03-2.95-1.03s-2.26.49-3,1.17c-1.32,1.26-1.89,3-1.89,4.98,0,2.12.51,3.77,1.86,5,.74.69,1.74,1.14,3.09,1.14s2.46-.49,3.2-1.29Z"/>
      <path d="m793.31,588.04v-9.24h1.43v9.15c0,2.49,1.23,4.15,3.75,4.15,3.32,0,4.69-2.66,4.69-5.86v-7.43h1.43v14.3h-1.32l-.11-2.69c-.8,1.89-2.63,3.09-4.78,3.09-3.23,0-5.09-2.26-5.09-5.46Z"/>
      <path d="m811.38,589.39v-9.26h-3.37v-1.32h3.37v-3.95l1.43-.34v4.29h4.49v1.32h-4.49v9.06c0,1.57.49,2.77,2.57,2.77.77,0,1.37-.09,2.12-.26v1.26c-.71.23-1.43.34-2.23.34-2.8,0-3.89-1.63-3.89-3.92Z"/>
    </g>
  </g>
  <rect x="78" y="1" width="873.79" height="651.13" fill="none" stroke="#000" stroke-linecap="round" stroke-linejoin="round" stroke-width="2"/>
  <g>
    <path d="m7.8,433.77v-1.01l2.11-.09c-1.52-.57-2.42-2.29-2.42-3.83,0-2.51,1.67-3.89,4.11-3.89h7.19v1.1h-7.08c-1.85,0-3.15.95-3.15,2.9,0,2.44,2.02,3.72,4.47,3.72h5.76v1.1H7.8Z"/>
    <path d="m17.81,420.05c-1.17,1.21-2.62,1.67-4.51,1.67s-3.34-.46-4.51-1.67c-.75-.79-1.3-1.89-1.3-3.3s.55-2.51,1.3-3.3c1.17-1.21,2.64-1.67,4.51-1.67s3.34.46,4.51,1.67c.75.79,1.3,1.89,1.3,3.3s-.55,2.51-1.3,3.3Zm-.75-5.83c-1.01-1.03-2.31-1.32-3.76-1.32s-2.75.29-3.76,1.32c-.59.59-.97,1.43-.97,2.53s.37,1.94.97,2.53c1.01,1.03,2.33,1.32,3.76,1.32s2.75-.29,3.76-1.32c.59-.59.97-1.43.97-2.53s-.37-1.94-.97-2.53Z"/>
    <path d="m7.8,408.41v-1.01l2.27-.09c-1.54-.48-2.38-1.98-2.38-3.54,0-.33,0-.7.11-1.03h1.06c-.09.35-.11.73-.11,1.08,0,2.55,2.11,3.5,4.55,3.5h5.5v1.1H7.8Z"/>
    <path d="m7.8,400.09v-1.01l2.16-.09c-1.47-.51-2.46-1.85-2.46-3.45,0-1.89.97-2.99,2.38-3.43-1.36-.59-2.38-1.78-2.38-3.63,0-2.57,1.69-3.65,4.05-3.65h7.26v1.1h-7.13c-1.94,0-3.15.75-3.15,2.66,0,2.07,1.83,3.28,4.05,3.28h6.23v1.14h-7.13c-1.94,0-3.15.84-3.15,2.66,0,2.11,1.98,3.32,4.33,3.32h5.94v1.1H7.8Z"/>
    <path d="m15.74,381.77c-1.96,0-3.17-1.5-3.32-3.7l-.29-4.05h-.97c-1.85,0-2.64,1.34-2.64,3.04s.79,3.01,2.44,3.12v1.1c-2.27-.15-3.48-1.98-3.48-4.18,0-2.51,1.23-4.18,3.76-4.18h5.43c.75,0,1.19-.11,1.19-.86,0-.09,0-.22-.02-.31h.97c.04.15.07.35.07.53,0,1.36-1.03,1.74-2.2,1.74,1.56.59,2.42,2.27,2.42,3.96,0,2.13-1.3,3.78-3.37,3.78Zm-2.02-7.75h-.57l.24,3.94c.11,1.69,1.03,2.68,2.33,2.68,1.54,0,2.38-1.19,2.38-2.75,0-2.77-2.24-3.87-4.38-3.87Z"/>
    <path d="m16.6,368.83H2.87v-1.1h13.69c.75,0,1.32-.22,1.32-1.14,0-.44-.02-.64-.07-.95h.99c.07.24.13.53.13.99,0,1.41-.73,2.2-2.33,2.2Z"/>
    <path d="m3.2,361.92h1.63v1.5h-1.63v-1.5Zm4.6.18h11v1.12H7.8v-1.12Z"/>
    <path d="m8.83,351.91v7.04h-1.03v-8.23h1.21l8.74,7.04v-7.11h1.06v8.3h-1.23l-8.73-7.04Z"/>
    <path d="m17.57,346.83c-1.06.9-2.55,1.45-4.22,1.45-1.39,0-2.75-.22-3.92-1.1-1.25-.95-1.94-2.24-1.94-3.85,0-3.04,2.42-4.86,5.35-4.86.26,0,.42,0,.73.02v8.69c2.44-.04,4.49-1.47,4.49-3.94,0-1.74-1.14-3.1-2.55-3.37v-1.14c2.07.33,3.61,2.31,3.61,4.51,0,1.58-.7,2.86-1.54,3.59Zm-4.99-7.22c-2.09.04-4.05,1.34-4.05,3.72s1.89,3.78,4.05,3.83v-7.55Z"/>
    <path d="m18.05,334.11c-1.08,1.28-2.84,1.85-4.73,1.85s-3.5-.57-4.62-1.76c-.73-.77-1.21-1.85-1.21-3.21,0-1.78.99-3.15,2.22-3.65H2.87v-1.12h15.93v1.03l-2.09.09c1.47.62,2.4,2.22,2.4,3.74,0,1.3-.42,2.29-1.06,3.04Zm-.92-5.37c-.95-1.03-2.31-1.43-3.83-1.43-1.63,0-2.9.37-3.85,1.41-.53.57-.88,1.34-.88,2.38s.37,1.87.99,2.46c.92.88,2.33,1.28,3.74,1.28,1.56,0,3.06-.44,3.94-1.5.48-.57.79-1.34.79-2.29s-.37-1.74-.9-2.31Z"/>
    <path d="m15.74,317.86c-1.96,0-3.17-1.5-3.32-3.7l-.29-4.05h-.97c-1.85,0-2.64,1.34-2.64,3.04s.79,3.01,2.44,3.12v1.1c-2.27-.15-3.48-1.98-3.48-4.18,0-2.51,1.23-4.18,3.76-4.18h5.43c.75,0,1.19-.11,1.19-.86,0-.09,0-.22-.02-.31h.97c.04.15.07.35.07.53,0,1.36-1.03,1.74-2.2,1.74,1.56.59,2.42,2.27,2.42,3.96,0,2.13-1.3,3.78-3.37,3.78Zm-2.02-7.75h-.57l.24,3.94c.11,1.69,1.03,2.68,2.33,2.68,1.54,0,2.38-1.19,2.38-2.75,0-2.77-2.24-3.87-4.38-3.87Z"/>
    <path d="m7.8,304.88v-1.01l2.16-.09c-1.47-.51-2.46-1.85-2.46-3.45,0-1.89.97-2.99,2.38-3.43-1.36-.59-2.38-1.78-2.38-3.63,0-2.57,1.69-3.65,4.05-3.65h7.26v1.1h-7.13c-1.94,0-3.15.75-3.15,2.66,0,2.07,1.83,3.28,4.05,3.28h6.23v1.14h-7.13c-1.94,0-3.15.84-3.15,2.66,0,2.11,1.98,3.32,4.33,3.32h5.94v1.1H7.8Z"/>
    <path d="m7.8,285.65v-1.01l2.09-.09c-1.45-.62-2.4-2.24-2.4-3.76,0-1.3.42-2.27,1.06-3.01,1.08-1.28,2.77-1.85,4.73-1.85s3.56.55,4.67,1.74c.7.75,1.17,1.78,1.17,3.1,0,1.61-.9,3.17-2.31,3.78h6.38v1.1H7.8Zm9.24-7.35c-.95-.88-2.33-1.25-3.74-1.25-1.56,0-3.04.44-3.94,1.5-.48.55-.79,1.3-.79,2.27s.37,1.74.9,2.31c.97,1.01,2.31,1.45,3.83,1.45,1.63,0,2.9-.4,3.85-1.43.53-.57.88-1.34.88-2.38s-.37-1.89-.99-2.46Z"/>
    <path d="m16.6,272.6H2.87v-1.1h13.69c.75,0,1.32-.22,1.32-1.14,0-.44-.02-.64-.07-.95h.99c.07.24.13.53.13.99,0,1.41-.73,2.2-2.33,2.2Z"/>
    <path d="m3.2,265.7h1.63v1.5h-1.63v-1.5Zm4.6.18h11v1.12H7.8v-1.12Z"/>
    <path d="m15.94,260.68h-7.13v2.6h-1.01v-2.6h-3.04l-.26-1.1h3.3v-3.45h1.01v3.45h6.97c1.21,0,2.13-.37,2.13-1.98,0-.59-.07-1.06-.2-1.63h.97c.18.55.26,1.1.26,1.72,0,2.16-1.25,2.99-3.01,2.99Z"/>
    <path d="m14.9,253.46h-7.11v-1.1h7.04c1.91,0,3.19-.95,3.19-2.88,0-2.55-2.05-3.61-4.51-3.61h-5.72v-1.1h11v1.01l-2.07.09c1.45.62,2.38,2.02,2.38,3.67,0,2.49-1.74,3.92-4.2,3.92Z"/>
    <path d="m18.05,239.58c-1.08,1.28-2.84,1.85-4.73,1.85s-3.5-.57-4.62-1.76c-.73-.77-1.21-1.85-1.21-3.21,0-1.78.99-3.15,2.22-3.65H2.87v-1.12h15.93v1.03l-2.09.09c1.47.62,2.4,2.22,2.4,3.74,0,1.3-.42,2.29-1.06,3.04Zm-.92-5.37c-.95-1.03-2.31-1.43-3.83-1.43-1.63,0-2.9.37-3.85,1.41-.53.57-.88,1.34-.88,2.38s.37,1.87.99,2.46c.92.88,2.33,1.28,3.74,1.28,1.56,0,3.06-.44,3.94-1.5.48-.57.79-1.34.79-2.29s-.37-1.74-.9-2.31Z"/>
    <path d="m17.57,226.89c-1.06.9-2.55,1.45-4.22,1.45-1.39,0-2.75-.22-3.92-1.1-1.25-.95-1.94-2.24-1.94-3.85,0-3.04,2.42-4.86,5.35-4.86.26,0,.42,0,.73.02v8.69c2.44-.04,4.49-1.47,4.49-3.94,0-1.74-1.14-3.1-2.55-3.37v-1.14c2.07.33,3.61,2.31,3.61,4.51,0,1.58-.7,2.86-1.54,3.59Zm-4.99-7.22c-2.09.04-4.05,1.34-4.05,3.72s1.89,3.78,4.05,3.83v-7.55Z"/>
  </g>
  <g>
    <path d="m414.23,705.05v-7.13h-2.6v-1.01h2.6v-3.04l1.1-.26v3.3h3.45v1.01h-3.45v6.97c0,1.21.37,2.13,1.98,2.13.59,0,1.06-.07,1.63-.2v.97c-.55.18-1.1.26-1.72.26-2.16,0-2.99-1.25-2.99-3.01Z"/>
    <path d="m422.87,692.31v1.63h-1.5v-1.63h1.5Zm-.18,4.6v11h-1.12v-11h1.12Z"/>
    <path d="m426.77,696.91h1.01l.09,2.16c.51-1.47,1.85-2.46,3.45-2.46,1.89,0,2.99.97,3.43,2.38.59-1.36,1.78-2.38,3.63-2.38,2.57,0,3.65,1.69,3.65,4.05v7.26h-1.1v-7.13c0-1.94-.75-3.15-2.66-3.15-2.07,0-3.28,1.83-3.28,4.05v6.23h-1.14v-7.13c0-1.94-.84-3.15-2.66-3.15-2.11,0-3.32,1.98-3.32,4.33v5.94h-1.1v-11Z"/>
    <path d="m446.7,706.68c-.9-1.06-1.45-2.55-1.45-4.22,0-1.39.22-2.75,1.1-3.92.95-1.25,2.24-1.94,3.85-1.94,3.04,0,4.86,2.42,4.86,5.35,0,.26,0,.42-.02.73h-8.69c.04,2.44,1.47,4.49,3.94,4.49,1.74,0,3.1-1.14,3.37-2.55h1.14c-.33,2.07-2.31,3.61-4.51,3.61-1.58,0-2.86-.7-3.59-1.54Zm7.22-4.99c-.04-2.09-1.34-4.05-3.72-4.05s-3.78,1.89-3.83,4.05h7.55Z"/>
    <path d="m463.09,700.8c0-3.43,1.25-7.26,3.63-9.92l.68.53c-2.16,2.77-3.28,5.79-3.28,9.39s1.12,6.62,3.28,9.4l-.68.53c-2.38-2.66-3.63-6.49-3.63-9.92Z"/>
    <path d="m468.98,704.85c0-1.96,1.5-3.17,3.7-3.32l4.05-.29v-.97c0-1.85-1.34-2.64-3.04-2.64s-3.01.79-3.12,2.44h-1.1c.15-2.27,1.98-3.48,4.18-3.48,2.51,0,4.18,1.23,4.18,3.76v5.43c0,.75.11,1.19.86,1.19.09,0,.22,0,.31-.02v.97c-.15.04-.35.07-.53.07-1.36,0-1.74-1.03-1.74-2.2-.59,1.56-2.27,2.42-3.96,2.42-2.13,0-3.78-1.3-3.78-3.37Zm7.75-2.02v-.57l-3.94.24c-1.69.11-2.68,1.03-2.68,2.33,0,1.54,1.19,2.38,2.75,2.38,2.77,0,3.87-2.24,3.87-4.38Z"/>
    <path d="m481.96,696.91h1.01l.09,2.27c.48-1.54,1.98-2.38,3.54-2.38.33,0,.7,0,1.03.11v1.06c-.35-.09-.73-.11-1.08-.11-2.55,0-3.5,2.11-3.5,4.55v5.5h-1.1v-11Z"/>
    <path d="m491.38,705.75l-.09,2.16h-1.01v-15.93h1.1v7.11c.57-1.52,2.18-2.49,3.78-2.49,1.32,0,2.35.44,3.1,1.14,1.19,1.1,1.76,2.86,1.76,4.69s-.59,3.67-1.87,4.75c-.75.64-1.72,1.03-3.01,1.03-1.52,0-3.19-.92-3.76-2.46Zm6.01.62c1.03-.92,1.5-2.38,1.5-3.96,0-1.43-.35-2.86-1.25-3.76-.59-.59-1.39-.97-2.46-.97s-1.8.33-2.38.86c-1.03.95-1.43,2.24-1.43,3.87,0,1.52.42,2.9,1.45,3.85.57.53,1.32.88,2.31.88s1.72-.29,2.27-.77Z"/>
    <path d="m504.67,692.31v1.63h-1.5v-1.63h1.5Zm-.18,4.6v11h-1.12v-11h1.12Z"/>
    <path d="m509.68,705.05v-7.13h-2.6v-1.01h2.6v-3.04l1.1-.26v3.3h3.45v1.01h-3.45v6.97c0,1.21.37,2.13,1.98,2.13.59,0,1.06-.07,1.63-.2v.97c-.55.18-1.1.26-1.72.26-2.16,0-2.99-1.25-2.99-3.01Z"/>
    <path d="m517.03,696.91h1.01l.09,2.27c.48-1.54,1.98-2.38,3.54-2.38.33,0,.7,0,1.03.11v1.06c-.35-.09-.73-.11-1.08-.11-2.55,0-3.5,2.11-3.5,4.55v5.5h-1.1v-11Z"/>
    <path d="m524.44,704.85c0-1.96,1.5-3.17,3.7-3.32l4.05-.29v-.97c0-1.85-1.34-2.64-3.04-2.64s-3.01.79-3.12,2.44h-1.1c.15-2.27,1.98-3.48,4.18-3.48,2.51,0,4.18,1.23,4.18,3.76v5.43c0,.75.11,1.19.86,1.19.09,0,.22,0,.31-.02v.97c-.15.04-.35.07-.53.07-1.36,0-1.74-1.03-1.74-2.2-.59,1.56-2.27,2.42-3.96,2.42-2.13,0-3.78-1.3-3.78-3.37Zm7.75-2.02v-.57l-3.94.24c-1.69.11-2.68,1.03-2.68,2.33,0,1.54,1.19,2.38,2.75,2.38,2.77,0,3.87-2.24,3.87-4.38Z"/>
    <path d="m537.42,696.91h1.01l.09,2.27c.48-1.54,1.98-2.38,3.54-2.38.33,0,.7,0,1.03.11v1.06c-.35-.09-.73-.11-1.08-.11-2.55,0-3.5,2.11-3.5,4.55v5.5h-1.1v-11Z"/>
    <path d="m544.4,712.2v-1.08c.4.2.88.33,1.43.33,1.06,0,1.72-.48,2.22-1.76l.64-1.61-4.49-11.18h1.21l3.81,9.77,3.67-9.77h1.17l-5.04,13.16c-.68,1.78-1.67,2.44-3.12,2.44-.7,0-1.32-.2-1.5-.31Z"/>
    <path d="m560.7,704.56h1.12c.18,1.8,1.61,2.6,3.41,2.6s3.19-.79,3.19-2.29c0-.97-.68-1.78-2.02-1.96l-2.13-.29c-1.85-.24-3.1-1.12-3.1-2.79,0-1.96,1.89-3.23,3.96-3.23,2.38,0,4.09,1.36,4.16,3.34h-1.1c-.15-1.58-1.45-2.31-3.06-2.31s-2.84.86-2.84,2.09c0,.9.48,1.58,2.13,1.8l2.09.29c2.07.29,3.04,1.67,3.04,2.99,0,2.24-2.02,3.41-4.31,3.41-2.62,0-4.42-1.39-4.53-3.65Z"/>
    <path d="m573.55,706.9c-1.17-1.17-1.58-2.62-1.58-4.49s.4-3.37,1.58-4.51c.79-.77,1.91-1.3,3.32-1.3,2.33,0,4.11,1.43,4.38,3.72h-1.17c-.24-1.52-1.5-2.64-3.21-2.64-1.08,0-1.94.35-2.53.95-1.03,1.03-1.25,2.33-1.25,3.78s.24,2.73,1.28,3.76c.59.59,1.45.95,2.53.95,1.72,0,2.97-1.12,3.21-2.64h1.14c-.29,2.27-2.07,3.72-4.38,3.72-1.41,0-2.53-.51-3.32-1.3Z"/>
    <path d="m583.51,704.85c0-1.96,1.5-3.17,3.7-3.32l4.05-.29v-.97c0-1.85-1.34-2.64-3.04-2.64s-3.01.79-3.12,2.44h-1.1c.15-2.27,1.98-3.48,4.18-3.48,2.51,0,4.18,1.23,4.18,3.76v5.43c0,.75.11,1.19.86,1.19.09,0,.22,0,.31-.02v.97c-.15.04-.35.07-.53.07-1.36,0-1.74-1.03-1.74-2.2-.59,1.56-2.27,2.42-3.96,2.42-2.13,0-3.78-1.3-3.78-3.37Zm7.75-2.02v-.57l-3.94.24c-1.69.11-2.68,1.03-2.68,2.33,0,1.54,1.19,2.38,2.75,2.38,2.77,0,3.87-2.24,3.87-4.38Z"/>
    <path d="m596.45,705.71v-13.73h1.1v13.69c0,.75.22,1.32,1.14,1.32.44,0,.64-.02.95-.07v.99c-.24.07-.53.13-.99.13-1.41,0-2.2-.73-2.2-2.33Z"/>
    <path d="m602.76,706.68c-.9-1.06-1.45-2.55-1.45-4.22,0-1.39.22-2.75,1.1-3.92.95-1.25,2.24-1.94,3.85-1.94,3.04,0,4.86,2.42,4.86,5.35,0,.26,0,.42-.02.73h-8.69c.04,2.44,1.47,4.49,3.94,4.49,1.74,0,3.1-1.14,3.37-2.55h1.14c-.33,2.07-2.31,3.61-4.51,3.61-1.58,0-2.86-.7-3.59-1.54Zm7.22-4.99c-.04-2.09-1.34-4.05-3.72-4.05s-3.78,1.89-3.83,4.05h7.55Z"/>
    <path d="m612.77,710.2c2.16-2.77,3.28-5.79,3.28-9.4s-1.12-6.62-3.28-9.39l.68-.53c2.38,2.66,3.63,6.49,3.63,9.92s-1.25,7.26-3.63,9.92l-.68-.53Z"/>
  </g>
</svg>