<?xml version="1.0" encoding="UTF-8" standalone="no"?>
<svg
   version="1.0"
   width="2127.000000pt"
   height="1734.000000pt"
   viewBox="0 0 2127.000000 1734.000000"
   preserveAspectRatio="xMidYMid meet"
   id="svg86"
   sodipodi:docname="accelerometer_mems.svg"
   inkscape:version="1.1.1 (1:1.1+202109281949+c3084ef5ed)"
   xmlns:inkscape="http://www.inkscape.org/namespaces/inkscape"
   xmlns:sodipodi="http://sodipodi.sourceforge.net/DTD/sodipodi-0.dtd"
   xmlns="http://www.w3.org/2000/svg"
   xmlns:svg="http://www.w3.org/2000/svg">
  <defs
     id="defs90" />
  <sodipodi:namedview
     id="namedview88"
     pagecolor="#ffffff"
     bordercolor="#666666"
     borderopacity="1.0"
     inkscape:pageshadow="2"
     inkscape:pageopacity="0.0"
     inkscape:pagecheckerboard="0"
     inkscape:document-units="pt"
     showgrid="false"
     inkscape:zoom="0.21990042"
     inkscape:cx="1025.4642"
     inkscape:cy="1477.9417"
     inkscape:window-width="1920"
     inkscape:window-height="1023"
     inkscape:window-x="0"
     inkscape:window-y="32"
     inkscape:window-maximized="1"
     inkscape:current-layer="g84" />
  <g
     transform="translate(0.000000,1734.000000) scale(0.100000,-0.100000)"
     fill="#000000"
     stroke="none"
     id="g84">
    <path
       d="M2560 14180 l0 -400 110 0 110 0 0 -4625 0 -4625 -110 0 -110 0 0 -395 0 -395 395 0 395 0 0 395 0 395 -110 0 -110 0 0 1725 0 1725 910 0 910 0 0 -985 0 -985 175 0 175 0 0 985 0 985 1545 0 1545 0 0 -985 0 -985 175 0 175 0 0 985 0 985 1850 0 1850 0 0 -985 0 -985 174 0 173 0 6 68 c4 37 7 480 7 985 l0 917 1605 0 1605 0 0 -985 0 -985 175 0 175 0 0 985 0 985 880 0 880 0 -2 -1722 -3 -1723 -107 -3 -108 -3 0 -394 0 -395 395 0 395 0 0 395 0 395 -110 0 -110 0 0 4625 0 4625 110 0 110 0 0 400 0 400 -395 0 -395 0 0 -400 0 -400 110 0 110 0 0 -1720 0 -1720 -880 0 -880 0 0 985 0 985 -175 0 -175 0 0 -985 0 -985 -1610 0 -1610 0 0 985 0 985 -175 0 -175 0 0 -985 0 -985 -1850 0 -1850 0 0 985 0 985 -175 0 -175 0 0 -985 0 -985 -1545 0 -1545 0 0 985 0 985 -175 0 -175 0 0 -985 0 -985 -910 0 -910 0 0 1720 0 1720 110 0 110 0 0 400 0 400 -395 0 -395 0 0 -400z m9710 -4595 l0 -235 -30 0 -30 0 0 235 0 235 30 0 30 0 0 -235z m-1126 -11 l75 -225 -31 3 c-29 3 -33 8 -53 68 l-22 65 -81 3 -81 3 -22 -71 c-21 -65 -25 -70 -51 -70 -15 0 -28 4 -28 9 0 8 116 352 141 419 7 17 16 22 43 22 l34 0 76 -226z m2354 217 c8 -4 12 -19 10 -32 -4 -33 -53 -40 -63 -9 -11 36 22 61 53 41z m-198 -76 l0 -45 40 0 c33 0 40 -3 40 -20 0 -17 -7 -20 -40 -20 l-40 0 0 -108 c0 -118 6 -132 53 -132 24 0 28 -4 25 -22 -5 -35 -66 -37 -104 -4 -28 24 -29 26 -33 145 -3 120 -3 121 -27 121 -17 0 -24 6 -24 20 0 15 7 20 25 20 22 0 25 4 25 39 0 29 5 41 18 44 39 10 42 7 42 -38z m-1822 -41 c16 -5 22 -13 20 -27 -3 -19 -9 -21 -60 -18 -50 2 -60 -1 -90 -27 -31 -28 -33 -35 -33 -92 0 -57 2 -64 34 -92 32 -28 38 -30 93 -25 52 5 58 3 58 -14 0 -37 -91 -52 -153 -25 -123 52 -125 252 -3 307 42 19 93 24 134 13z m300 0 c16 -5 22 -13 20 -27 -3 -19 -9 -21 -60 -18 -50 2 -60 -1 -90 -27 -31 -28 -33 -35 -33 -92 0 -57 2 -64 34 -92 32 -28 38 -30 93 -25 52 5 58 3 58 -14 0 -37 -91 -52 -153 -25 -123 52 -125 252 -3 307 42 19 93 24 134 13z m278 -9 c39 -16 73 -77 74 -132 l0 -33 -115 0 c-129 0 -134 -4 -95 -67 25 -42 80 -60 135 -44 30 8 41 8 47 -2 18 -29 -13 -44 -92 -46 -57 -1 -108 24 -138 69 -33 48 -29 158 7 209 41 57 109 75 177 46z m500 0 c39 -16 73 -77 74 -132 l0 -33 -115 0 c-129 0 -134 -4 -95 -67 25 -42 80 -60 135 -44 30 8 41 8 47 -2 18 -29 -13 -44 -92 -46 -57 -1 -108 24 -138 69 -33 48 -29 158 7 209 41 57 109 75 177 46z m304 -9 c0 -19 -7 -26 -30 -31 -57 -12 -70 -44 -70 -166 l0 -109 -30 0 -30 0 0 160 0 160 25 0 c21 0 25 -5 25 -32 1 -33 1 -33 14 -9 15 26 51 50 79 51 11 0 17 -8 17 -24z m215 9 c47 -23 58 -55 63 -192 l4 -123 -26 0 c-16 0 -26 5 -26 15 0 19 2 19 -45 -5 -47 -24 -76 -25 -114 -5 -67 34 -61 130 10 167 20 10 60 21 88 25 60 7 67 27 25 70 -26 26 -48 27 -121 7 -19 -5 -23 -2 -23 15 0 37 105 54 165 26z m741 -4 c97 -44 113 -206 29 -280 -116 -102 -284 1 -259 159 18 114 124 169 230 121z m375 3 c46 -24 59 -66 59 -199 l0 -115 -30 0 -30 0 0 120 c0 107 -2 122 -20 140 -28 28 -75 26 -105 -5 -24 -23 -25 -30 -25 -140 l0 -115 -30 0 -30 0 0 160 0 160 25 0 c19 0 25 -5 25 -22 0 -20 1 -20 18 -5 41 37 96 46 143 21z m-681 -154 l0 -160 -30 0 -30 0 0 160 0 160 30 0 30 0 0 -160z m-8942 -222 c33 -101 63 -176 65 -168 3 8 31 90 63 183 l59 167 37 0 c33 0 38 -3 38 -23 0 -28 18 -322 24 -384 3 -41 2 -43 -24 -43 -27 0 -27 0 -34 92 -3 50 -6 116 -6 147 0 31 -3 73 -7 95 -6 37 -8 32 -58 -110 -73 -208 -80 -224 -104 -224 -17 0 -29 27 -83 193 l-63 192 -8 -180 c-4 -99 -10 -186 -12 -192 -5 -14 -55 -18 -55 -5 0 4 7 90 15 192 8 102 15 200 15 218 0 30 2 32 38 32 l39 0 61 -182z m547 47 c47 -23 58 -55 63 -192 l4 -123 -26 0 c-16 0 -26 5 -26 15 0 19 2 19 -45 -5 -47 -24 -76 -25 -114 -5 -67 34 -61 130 10 167 20 10 60 21 88 25 60 7 67 27 25 70 -26 26 -48 27 -121 7 -19 -5 -23 -2 -23 15 0 37 105 54 165 26z m317 -3 c6 -6 8 -17 5 -26 -5 -12 -13 -13 -42 -5 -29 8 -41 7 -61 -6 -41 -27 -28 -55 41 -92 82 -44 105 -103 58 -155 -36 -40 -166 -48 -180 -12 -10 26 10 33 54 22 54 -15 96 8 91 50 -2 22 -14 32 -57 53 -29 14 -60 34 -67 44 -30 41 -9 115 40 136 26 11 104 5 118 -9z m270 0 c6 -6 8 -17 5 -26 -5 -12 -13 -13 -42 -5 -29 8 -41 7 -61 -6 -41 -27 -28 -55 41 -92 82 -44 105 -103 58 -155 -36 -40 -166 -48 -180 -12 -10 26 10 33 54 22 54 -15 96 8 91 50 -2 22 -14 32 -57 53 -29 14 -60 34 -67 44 -30 41 -9 115 40 136 26 11 104 5 118 -9z m6813 -512 l2704 0 3 69 3 70 153 -88 c85 -48 154 -91 155 -94 1 -4 -68 -47 -153 -96 l-155 -89 -3 74 -3 74 -2704 0 -2704 0 -3 -74 -3 -74 -155 89 c-85 49 -153 93 -152 97 2 4 72 46 155 95 l152 87 3 -70 3 -70 2704 0z"
       id="path2" />
    <path
       d="M10997 9637 c-15 -50 -28 -95 -27 -99 0 -12 120 -9 120 2 0 18 -54 190 -60 190 -3 0 -18 -42 -33 -93z"
       id="path4" />
    <path
       d="M11949 9625 c-21 -11 -49 -58 -49 -81 0 -2 38 -4 85 -4 84 0 85 0 85 25 0 32 -42 75 -72 75 -13 -1 -35 -7 -49 -15z"
       id="path6" />
    <path
       d="M12449 9625 c-21 -11 -49 -58 -49 -81 0 -2 38 -4 85 -4 84 0 85 0 85 25 0 32 -42 75 -72 75 -13 -1 -35 -7 -49 -15z"
       id="path8" />
    <path
       d="M12984 9496 c-50 -22 -60 -75 -19 -102 51 -33 115 9 115 76 0 39 -1 40 -32 40 -18 -1 -47 -7 -64 -14z"
       id="path10" />
    <path
       d="M13702 9625 c-83 -37 -82 -195 3 -230 30 -13 39 -13 69 -1 48 20 69 65 64 133 -7 86 -66 129 -136 98z"
       id="path12" />
    <path
       d="M5024 9166 c-50 -22 -60 -75 -19 -102 51 -33 115 9 115 76 0 39 -1 40 -32 40 -18 -1 -47 -7 -64 -14z"
       id="path14" />
    <path
       d="M833 11065 c-38 -16 -73 -68 -73 -108 0 -50 30 -85 105 -123 81 -41 95 -56 95 -100 0 -50 -41 -77 -105 -71 -27 3 -60 8 -71 12 -16 5 -23 2 -27 -14 -7 -27 18 -41 87 -48 73 -8 141 22 161 71 34 81 6 143 -83 183 -74 33 -102 59 -102 95 0 57 71 86 143 59 20 -8 27 -6 31 5 10 26 7 32 -25 43 -43 15 -97 13 -136 -4z"
       id="path16" />
    <path
       d="M18913 11065 c-38 -16 -73 -68 -73 -108 0 -50 30 -85 105 -123 81 -41 95 -56 95 -100 0 -50 -41 -77 -105 -71 -27 3 -60 8 -71 12 -16 5 -23 2 -27 -14 -7 -27 18 -41 87 -48 73 -8 141 22 161 71 34 81 6 143 -83 183 -74 33 -102 59 -102 95 0 57 71 86 143 59 20 -8 27 -6 31 5 10 26 7 32 -25 43 -43 15 -97 13 -136 -4z"
       id="path18" />
    <path
       d="M1700 11055 c-6 -8 -9 -23 -5 -35 10 -31 59 -24 63 9 6 37 -34 55 -58 26z"
       id="path20" />
    <path
       d="M19780 11055 c-6 -8 -9 -23 -5 -35 10 -31 59 -24 63 9 6 37 -34 55 -58 26z"
       id="path22" />
    <path
       d="M1220 10943 c-8 -3 -27 -17 -42 -31 l-28 -26 0 27 c0 22 -5 27 -25 27 l-25 0 0 -225 0 -225 30 0 30 0 0 80 0 79 35 -21 c62 -36 147 -11 181 53 70 137 -31 307 -156 262z m91 -69 c21 -22 24 -35 24 -95 0 -61 -3 -71 -27 -96 -38 -38 -92 -37 -124 1 -20 22 -24 38 -24 91 0 54 4 68 26 94 34 41 89 43 125 5z"
       id="path24" />
    <path
       d="M1581 10936 c-13 -7 -30 -24 -37 -37 -13 -24 -13 -24 -14 9 0 27 -4 32 -25 32 l-25 0 0 -160 0 -160 30 0 30 0 0 109 c0 122 13 154 70 166 23 5 30 12 30 31 0 27 -21 31 -59 10z"
       id="path26" />
    <path
       d="M1960 10939 c-13 -6 -33 -17 -42 -26 -17 -15 -18 -15 -18 5 0 17 -6 22 -25 22 l-25 0 0 -160 0 -160 30 0 30 0 0 115 c0 110 1 117 25 140 30 31 77 33 105 5 18 -18 20 -33 20 -140 l0 -120 30 0 30 0 0 115 c0 133 -13 175 -59 199 -34 18 -64 19 -101 5z"
       id="path28" />
    <path
       d="M2271 10928 c-51 -34 -76 -82 -75 -148 0 -126 95 -193 197 -141 l37 19 0 -37 c0 -77 -63 -113 -149 -88 -48 14 -50 14 -55 -6 -6 -25 5 -34 57 -43 99 -16 180 25 197 101 5 22 10 111 10 198 l0 157 -25 0 c-19 0 -25 -5 -25 -22 l0 -21 -24 22 c-37 35 -102 39 -145 9z m137 -54 c18 -20 22 -37 22 -89 0 -81 -27 -119 -84 -119 -55 0 -88 38 -93 106 -9 114 87 177 155 102z"
       id="path30" />
    <path
       d="M19300 10943 c-8 -3 -27 -17 -42 -31 l-28 -26 0 27 c0 22 -5 27 -25 27 l-25 0 0 -225 0 -225 30 0 30 0 0 80 0 79 35 -21 c62 -36 147 -11 181 53 70 137 -31 307 -156 262z m91 -69 c21 -22 24 -35 24 -95 0 -61 -3 -71 -27 -96 -38 -38 -92 -37 -124 1 -20 22 -24 38 -24 91 0 54 4 68 26 94 34 41 89 43 125 5z"
       id="path32" />
    <path
       d="M19661 10936 c-13 -7 -30 -24 -37 -37 -13 -24 -13 -24 -14 9 0 27 -4 32 -25 32 l-25 0 0 -160 0 -160 30 0 30 0 0 109 c0 122 13 154 70 166 23 5 30 12 30 31 0 27 -21 31 -59 10z"
       id="path34" />
    <path
       d="M20050 10939 c-13 -6 -33 -17 -42 -26 -17 -15 -18 -15 -18 5 0 17 -6 22 -25 22 l-25 0 0 -160 0 -160 30 0 30 0 0 115 c0 110 1 117 25 140 30 31 77 33 105 5 18 -18 20 -33 20 -140 l0 -120 30 0 30 0 0 115 c0 133 -13 175 -59 199 -34 18 -64 19 -101 5z"
       id="path36" />
    <path
       d="M20361 10928 c-51 -34 -76 -82 -75 -148 0 -126 95 -193 197 -141 l37 19 0 -37 c0 -77 -63 -113 -149 -88 -48 14 -50 14 -55 -6 -6 -25 5 -34 57 -43 99 -16 180 25 197 101 5 22 10 111 10 198 l0 157 -25 0 c-19 0 -25 -5 -25 -22 l0 -21 -24 22 c-37 35 -102 39 -145 9z m137 -54 c18 -20 22 -37 22 -89 0 -81 -27 -119 -84 -119 -55 0 -88 38 -93 106 -9 114 87 177 155 102z"
       id="path38" />
    <path
       d="M1700 10780 l0 -160 30 0 30 0 0 160 0 160 -30 0 -30 0 0 -160z"
       id="path40" />
    <path
       d="M19780 10780 l0 -160 30 0 30 0 0 160 0 160 -30 0 -30 0 0 -160z"
       id="path42" />
    <path
       d="M18790 10188 c-162 -263 -154 -1877 10 -2062 25 -27 30 -29 53 -19 14 7 34 27 43 45 l17 32 18 -36 c31 -61 83 -60 111 2 13 31 28 40 28 16 0 -7 10 -25 21 -40 30 -39 67 -32 95 17 l21 37 24 -37 c19 -30 31 -38 54 -38 24 0 34 7 51 39 l22 39 15 -30 c34 -65 85 -69 114 -8 l17 35 24 -41 c21 -35 28 -40 55 -37 25 2 36 12 54 43 13 22 23 35 23 28 0 -6 12 -26 26 -43 34 -40 62 -36 93 13 l25 38 18 -35 c32 -62 81 -59 115 8 12 22 18 27 21 16 3 -8 14 -28 25 -43 27 -40 64 -34 96 15 l24 38 14 -28 c34 -66 79 -68 112 -5 l18 37 16 -30 c34 -66 78 -70 113 -9 l21 37 21 -36 c25 -43 45 -53 77 -38 136 62 192 1237 89 1852 -30 180 -72 268 -121 258 -10 -2 -29 -20 -42 -41 l-24 -37 -22 37 c-17 31 -26 38 -50 38 -24 0 -35 -8 -54 -38 -24 -37 -25 -38 -34 -15 -13 35 -38 58 -63 58 -23 0 -64 -42 -64 -66 0 -24 -15 -15 -28 16 -28 62 -80 63 -111 2 l-18 -36 -16 30 c-35 67 -83 70 -116 7 l-18 -37 -16 30 c-35 68 -83 70 -114 5 l-18 -38 -20 35 c-39 69 -71 68 -112 -4 -13 -21 -23 -31 -23 -22 0 9 -12 31 -26 48 -34 40 -62 36 -93 -13 l-25 -38 -18 35 c-32 62 -81 59 -115 -8 -12 -22 -18 -27 -21 -16 -3 8 -14 27 -24 43 -32 45 -83 31 -105 -31 -9 -22 -10 -22 -33 15 -39 59 -87 55 -115 -10 l-11 -27 -25 37 c-33 53 -71 57 -99 11z m235 -68 c15 -46 15 -57 -4 -172 -11 -68 -23 -152 -27 -188 l-8 -65 -17 140 c-10 77 -23 159 -29 183 -12 47 -6 78 22 135 24 47 39 39 63 -33z m-152 5 c18 -47 18 -55 3 -145 -75 -462 -75 -1161 0 -1636 16 -99 16 -100 -6 -152 -13 -29 -28 -51 -34 -49 -34 11 -76 180 -103 418 -22 198 -26 961 -5 1159 29 276 75 465 110 458 9 -2 25 -25 35 -53z m296 0 c21 -55 21 -55 2 -167 -11 -62 -23 -149 -27 -193 l-8 -80 -13 105 c-7 58 -20 146 -29 196 -15 90 -15 93 6 143 13 28 28 51 36 51 7 0 22 -25 33 -55z m131 40 c6 -8 17 -33 24 -57 11 -37 10 -59 -5 -148 -10 -58 -21 -142 -25 -188 -4 -45 -8 -81 -9 -80 -2 2 -8 46 -14 98 -6 52 -18 138 -27 190 -16 95 -16 96 6 148 24 55 31 60 50 37z m160 -27 c22 -48 25 -95 10 -165 -6 -26 -16 -100 -24 -163 -14 -127 -13 -130 -43 80 -9 69 -17 145 -17 170 0 49 26 120 44 120 6 0 20 -19 30 -42z m150 0 c23 -52 24 -78 5 -185 -8 -46 -18 -119 -21 -163 -7 -79 -24 -102 -24 -32 0 20 -7 80 -15 132 -29 178 -29 193 -7 243 12 26 26 47 32 47 6 0 20 -19 30 -42z m152 -4 c13 -30 18 -59 15 -83 -16 -135 -40 -301 -47 -326 -8 -29 -8 -29 -9 10 -1 22 -10 101 -21 175 -11 74 -20 146 -20 160 0 32 36 110 50 110 6 0 20 -21 32 -46z m151 -10 c18 -48 18 -52 -2 -184 -11 -74 -23 -162 -27 -195 l-7 -60 -14 115 c-7 63 -19 149 -27 190 -14 78 -6 139 25 176 19 23 32 12 52 -42z m137 29 c28 -62 30 -85 10 -207 -10 -67 -22 -152 -26 -191 l-7 -70 -18 136 c-9 75 -22 161 -28 191 -10 44 -9 62 4 98 16 44 32 70 45 70 4 0 13 -12 20 -27z m150 0 c28 -62 29 -85 10 -197 -10 -61 -22 -147 -26 -191 l-8 -80 -8 65 c-5 36 -18 124 -29 196 l-21 131 22 52 c25 57 41 64 60 24z m159 -27 c19 -52 19 -59 5 -133 -8 -43 -20 -130 -27 -193 l-14 -115 -7 65 c-4 36 -15 112 -24 170 -20 130 -20 175 1 223 22 52 42 47 66 -17z m143 8 c28 -64 54 -199 75 -389 26 -229 25 -949 0 -1175 -30 -263 -71 -425 -107 -425 -8 0 -23 21 -34 47 -19 47 -19 50 -2 155 39 243 49 407 50 803 0 390 -9 555 -42 760 -9 58 -16 125 -16 150 0 49 26 120 44 120 6 0 20 -21 32 -46z m-1567 -319 c44 -397 42 -979 -7 -1358 -6 -49 -14 -85 -19 -80 -14 15 -40 311 -48 547 -7 221 0 636 14 763 24 229 32 279 40 271 2 -2 11 -66 20 -143z m444 15 c43 -360 43 -980 0 -1340 -17 -139 -24 -148 -37 -44 -30 238 -36 349 -36 714 0 365 6 476 36 714 13 104 20 95 37 -44z m158 -84 c14 -129 18 -245 18 -586 0 -341 -4 -457 -18 -586 -25 -223 -31 -241 -46 -134 -51 366 -54 1002 -5 1390 7 63 14 120 15 125 3 32 21 -71 36 -209z m137 94 c49 -373 46 -1034 -5 -1400 -15 -107 -21 -89 -46 134 -25 228 -25 950 0 1173 18 155 27 216 33 210 2 -1 10 -54 18 -117z m162 -125 c14 -130 18 -258 18 -550 1 -363 -7 -508 -36 -724 -15 -108 -21 -90 -45 121 -26 233 -26 971 0 1198 10 85 21 166 24 180 6 23 8 21 14 -15 4 -22 16 -116 25 -210z m440 70 c28 -219 28 -1028 0 -1250 -10 -82 -21 -154 -26 -158 -8 -9 -25 112 -40 298 -14 164 -19 623 -9 825 10 202 39 467 49 449 5 -8 16 -81 26 -164z m143 45 c43 -360 43 -980 0 -1340 -17 -139 -24 -148 -37 -44 -30 238 -36 349 -36 714 0 365 6 476 36 714 13 104 20 95 37 -44z m-1349 111 c0 -5 8 -73 17 -152 27 -216 26 -1049 -1 -1264 -25 -206 -27 -206 -51 -10 -23 181 -33 885 -16 1103 16 199 32 332 43 332 4 0 8 -4 8 -9z m167 -156 c26 -220 26 -1030 0 -1250 -11 -82 -22 -154 -27 -158 -8 -9 -24 104 -41 303 -15 160 -15 797 0 960 17 196 33 312 41 303 5 -4 16 -75 27 -158z m754 -130 c16 -187 16 -813 0 -985 -18 -193 -33 -302 -41 -293 -10 11 -27 151 -41 342 -23 314 1 1109 38 1216 9 27 27 -88 44 -280z m127 198 c26 -217 32 -344 32 -693 0 -201 -5 -417 -10 -480 -17 -191 -33 -311 -41 -303 -4 4 -15 69 -25 143 -22 176 -31 882 -15 1098 15 189 32 332 41 332 4 0 12 -44 18 -97z m-1098 -1473 c20 -126 19 -149 -10 -212 -7 -16 -16 -28 -20 -28 -13 0 -29 25 -45 69 -13 38 -13 53 4 154 11 62 23 148 27 192 l8 80 8 -65 c5 -36 17 -121 28 -190z m159 -72 c11 -49 9 -62 -9 -112 -12 -31 -27 -56 -34 -56 -12 0 -38 48 -51 96 -3 11 3 72 14 135 10 63 23 148 27 189 l8 75 17 -136 c9 -75 22 -161 28 -191z m145 22 c12 -63 12 -81 0 -120 -27 -89 -52 -92 -79 -11 -15 47 -15 58 -1 143 14 82 34 235 37 278 1 8 7 -37 15 -100 8 -63 20 -149 28 -190z m565 200 c6 -52 18 -137 27 -188 14 -85 14 -96 -1 -142 -9 -27 -21 -52 -26 -56 -17 -10 -38 17 -52 65 -12 40 -12 59 4 151 10 58 21 142 25 188 4 45 8 81 9 80 2 -2 8 -46 14 -98z m172 -155 c20 -127 20 -131 2 -180 -26 -70 -46 -70 -72 -1 l-21 56 20 112 c10 62 22 149 26 193 l8 80 8 -65 c5 -36 18 -124 29 -195z m158 -67 c11 -49 9 -62 -9 -112 -12 -31 -27 -56 -34 -56 -12 0 -38 48 -50 95 -3 11 0 54 8 95 8 41 20 127 27 190 l13 115 17 -136 c9 -75 22 -161 28 -191z m145 22 c14 -78 6 -139 -24 -175 -19 -23 -26 -18 -50 37 -21 48 -21 58 -11 118 12 66 40 269 42 305 1 11 7 -32 15 -95 8 -63 20 -149 28 -190z m-904 84 c11 -78 20 -155 20 -170 -1 -34 -30 -96 -48 -102 -19 -6 -55 84 -49 127 9 76 39 288 45 321 l6 35 3 -35 c2 -19 12 -99 23 -176z m291 50 c11 -82 23 -167 26 -190 6 -44 -26 -134 -47 -134 -6 0 -20 21 -32 47 -22 51 -22 65 6 248 9 55 16 120 16 144 0 77 10 38 31 -115z m-135 -101 c14 -94 15 -119 4 -157 -16 -59 -37 -78 -56 -51 -33 45 -38 90 -20 197 9 57 19 132 22 168 8 96 16 104 25 25 4 -38 15 -120 25 -182z"
       id="path44"
       style="fill:#808080" />
    <path
       d="M752 10173 c-38 -15 -80 -166 -106 -383 -70 -581 -29 -1493 76 -1683 19 -35 29 -42 53 -42 24 0 35 8 54 38 24 37 25 38 34 15 28 -76 96 -76 124 0 9 22 10 22 33 -15 39 -60 87 -55 115 10 l12 29 20 -39 c17 -33 25 -38 54 -38 28 0 37 6 54 37 l21 36 22 -39 c20 -35 27 -40 55 -37 25 2 36 11 53 41 l21 38 13 -31 c7 -17 24 -38 37 -47 21 -14 25 -14 46 0 13 9 30 30 37 47 l13 32 19 -36 c11 -21 26 -40 34 -43 29 -11 62 7 79 43 l17 37 13 -29 c26 -63 76 -71 110 -17 11 18 22 32 25 33 3 0 12 -13 22 -29 9 -16 26 -34 37 -41 18 -9 26 -7 50 17 15 16 31 35 34 43 5 11 9 12 13 3 16 -34 48 -63 69 -63 22 0 56 35 66 68 3 8 14 -2 29 -25 20 -30 31 -38 55 -38 23 0 33 7 50 37 l21 36 22 -39 c18 -32 28 -39 52 -39 39 0 61 36 89 139 49 185 74 492 75 911 0 421 -23 712 -71 910 -39 161 -100 201 -152 102 -11 -20 -20 -29 -21 -20 0 9 -12 31 -26 48 -34 40 -62 36 -93 -13 l-25 -38 -18 35 c-30 59 -83 57 -110 -4 -7 -16 -15 -30 -18 -30 -3 1 -14 15 -25 33 -16 24 -28 32 -50 32 -22 0 -34 -8 -50 -32 -11 -18 -22 -32 -25 -33 -3 0 -11 14 -19 31 -27 62 -72 61 -112 -5 l-17 -28 -17 31 c-9 18 -28 37 -42 44 -23 10 -28 8 -54 -21 -16 -18 -29 -40 -29 -50 0 -10 -10 0 -23 23 -20 35 -27 40 -57 40 -29 0 -37 -6 -56 -38 l-21 -38 -13 31 c-7 17 -24 38 -37 47 -21 14 -25 14 -46 0 -13 -9 -30 -30 -37 -47 l-13 -32 -13 30 c-28 69 -88 75 -116 12 -15 -34 -24 -38 -32 -12 -4 11 -17 29 -31 42 -21 20 -29 22 -49 12 -13 -6 -30 -24 -37 -41 -14 -32 -29 -41 -29 -18 0 6 -11 25 -23 41 -31 39 -70 31 -94 -19 -17 -36 -33 -46 -33 -21 0 7 -9 25 -21 40 -20 25 -39 30 -67 19z m58 -85 c22 -52 22 -53 6 -148 -75 -446 -75 -1190 0 -1640 15 -90 15 -97 -3 -145 -10 -28 -26 -51 -35 -53 -34 -7 -75 156 -104 408 -21 183 -30 812 -15 1036 24 340 75 594 120 594 5 0 19 -23 31 -52z m143 15 c27 -65 28 -77 8 -194 -10 -63 -23 -148 -27 -189 l-8 -75 -17 136 c-9 75 -22 161 -28 191 -11 49 -9 62 9 112 12 31 27 56 34 56 7 0 20 -17 29 -37z m136 24 c6 -8 18 -33 26 -57 13 -36 14 -54 4 -98 -6 -30 -19 -116 -29 -191 l-17 -136 -7 70 c-4 39 -16 124 -27 190 -19 121 -18 144 11 208 15 30 22 33 39 14z m167 -48 c22 -54 22 -54 3 -159 -10 -58 -21 -142 -25 -188 -4 -45 -8 -81 -10 -79 -2 1 -8 43 -14 92 -5 50 -18 135 -27 190 -16 100 -16 100 7 153 12 29 28 51 34 49 6 -2 21 -28 32 -58z m144 19 c23 -51 24 -87 5 -195 -8 -46 -18 -119 -21 -164 -8 -95 -19 -86 -28 26 -4 43 -14 115 -22 160 -9 44 -13 94 -11 112 7 40 36 103 49 103 5 0 18 -19 28 -42z m145 6 c26 -54 28 -92 10 -189 -8 -49 -18 -123 -22 -163 -6 -77 -23 -109 -23 -45 0 21 -7 83 -16 138 -28 185 -28 196 -4 248 12 26 26 47 30 47 4 0 15 -16 25 -36z m151 -1 c10 -21 18 -58 18 -83 0 -44 -27 -258 -43 -335 l-9 -40 -1 40 c-1 22 -11 103 -22 180 -12 77 -21 151 -20 163 1 31 37 112 49 112 5 0 18 -17 28 -37z m154 -15 l22 -51 -21 -136 c-11 -75 -24 -163 -28 -196 l-7 -60 -13 115 c-7 63 -20 148 -28 188 -13 65 -13 77 1 120 17 49 31 72 44 72 4 0 18 -23 30 -52z m154 -15 c14 -42 14 -55 -4 -167 -10 -66 -22 -155 -27 -196 l-7 -75 -13 115 c-7 63 -20 151 -28 196 -13 72 -13 86 0 124 30 84 51 85 79 3z m125 54 c6 -8 17 -33 26 -56 13 -38 13 -53 -5 -154 -10 -62 -22 -147 -26 -190 -4 -43 -8 -76 -9 -75 -2 2 -8 46 -14 98 -6 52 -18 138 -27 190 -16 95 -16 96 6 148 24 55 31 60 49 39z m164 -31 c24 -50 24 -68 -1 -231 -12 -77 -22 -158 -22 -179 0 -62 -8 -38 -20 59 -5 50 -18 135 -27 190 -16 100 -16 100 7 153 12 29 28 51 34 49 6 -2 19 -20 29 -41z m147 2 c26 -60 56 -215 77 -398 14 -124 17 -241 17 -585 0 -344 -3 -461 -17 -585 -21 -184 -51 -338 -78 -399 -16 -36 -21 -41 -33 -31 -8 6 -23 32 -32 56 -16 43 -16 52 0 152 72 456 72 1201 0 1617 -8 50 -13 103 -10 118 8 39 36 97 48 97 5 0 18 -19 28 -42z m-963 -403 c26 -231 26 -929 0 -1160 -10 -88 -22 -176 -26 -195 -7 -32 -9 -27 -20 50 -51 363 -54 1034 -5 1404 8 61 14 115 15 120 3 29 20 -75 36 -219z m300 -29 c21 -209 24 -862 5 -1051 -22 -212 -35 -298 -43 -284 -36 66 -63 882 -40 1216 12 165 25 289 38 348 6 29 7 29 15 -14 4 -25 15 -122 25 -215z m578 143 c49 -356 43 -1212 -11 -1462 -3 -16 -8 -27 -10 -25 -9 9 -34 264 -45 450 -13 216 -7 686 11 863 15 151 32 286 36 282 2 -2 11 -51 19 -108z m-1486 9 c6 -51 16 -147 22 -213 13 -155 13 -815 0 -970 -17 -194 -33 -307 -42 -298 -14 14 -39 286 -49 538 -11 272 0 647 25 875 22 195 27 203 44 68z m150 -8 c27 -215 33 -391 28 -786 -3 -302 -9 -446 -22 -549 -24 -194 -27 -195 -51 -5 -22 174 -32 911 -15 1117 17 199 33 325 42 316 4 -4 12 -46 18 -93z m150 -20 c43 -368 43 -985 0 -1350 -6 -52 -15 -101 -19 -109 -8 -14 -22 88 -42 289 -15 162 -15 826 0 990 19 200 34 303 42 289 4 -8 13 -57 19 -109z m146 14 c49 -350 43 -1209 -11 -1457 -3 -16 -8 -27 -10 -25 -9 9 -34 264 -45 450 -13 217 -7 685 11 868 14 146 31 272 37 266 3 -2 11 -48 18 -102z m299 -14 c48 -371 46 -1020 -5 -1390 -15 -109 -22 -90 -46 122 -26 232 -26 960 0 1188 18 152 26 204 33 198 2 -2 10 -55 18 -118z m295 28 c6 -51 16 -147 22 -213 14 -156 13 -815 0 -970 -17 -193 -33 -315 -41 -310 -8 5 -26 154 -40 330 -22 271 -11 874 21 1140 17 146 22 150 38 23z m158 -73 c27 -221 27 -1040 -1 -1260 -25 -206 -27 -206 -52 -15 -22 175 -32 911 -15 1117 17 200 33 325 42 316 4 -4 15 -75 26 -158z m148 -1 c22 -184 32 -829 16 -1056 -13 -187 -30 -337 -41 -357 -7 -14 -21 82 -42 294 -15 159 -15 813 0 985 18 197 34 304 43 288 4 -8 15 -77 24 -154z m-1255 -1416 l21 -127 -22 -51 c-24 -56 -40 -63 -59 -22 -28 61 -29 84 -10 196 10 61 22 147 26 191 l8 80 8 -70 c4 -38 17 -127 28 -197z m291 42 c25 -170 25 -178 -1 -237 -17 -38 -22 -43 -34 -33 -8 6 -23 31 -32 56 -15 41 -16 51 -1 141 9 54 21 139 27 188 13 117 13 117 17 70 2 -22 13 -105 24 -185z m749 -41 c19 -115 19 -129 5 -169 -30 -85 -52 -85 -80 -1 -14 44 -14 56 4 162 11 63 23 150 27 194 l8 80 8 -70 c4 -38 17 -127 28 -196z m291 41 c25 -169 25 -171 4 -227 -20 -51 -39 -54 -61 -10 -22 42 -23 97 -2 232 9 61 20 137 25 170 7 55 8 57 10 20 2 -22 13 -105 24 -185z m-1172 -109 c11 -51 5 -84 -23 -140 -22 -41 -38 -30 -61 39 -15 46 -15 57 4 172 11 68 23 152 27 188 l8 65 17 -138 c10 -75 22 -159 28 -186z m566 198 c7 -63 19 -148 26 -189 11 -70 10 -79 -9 -123 -11 -26 -27 -47 -35 -47 -18 0 -47 69 -47 113 0 17 7 69 14 114 8 45 18 120 22 168 4 47 8 84 10 82 2 -2 11 -55 19 -118z m166 -124 c18 -121 18 -133 3 -177 -25 -75 -40 -80 -66 -22 -26 61 -26 67 0 239 12 77 22 156 23 175 1 26 4 20 11 -25 5 -33 18 -119 29 -190z m308 -76 c10 -44 8 -57 -12 -107 -12 -31 -27 -57 -32 -57 -16 0 -49 77 -49 115 0 19 7 82 16 140 9 58 20 134 24 170 l8 65 17 -138 c10 -75 22 -160 28 -188z m-757 93 c21 -161 21 -163 2 -208 -10 -26 -23 -47 -29 -48 -20 -2 -56 87 -52 129 6 66 39 298 45 325 6 24 6 24 9 -5 2 -16 13 -103 25 -193z m128 170 c0 -20 7 -82 15 -137 28 -188 29 -196 6 -248 -12 -29 -26 -47 -34 -45 -6 3 -21 26 -31 51 -20 47 -20 48 2 204 12 87 22 173 22 191 0 20 4 31 10 27 6 -3 10 -23 10 -43z"
       id="path46"
       style="fill:#808080" />
    <path
       d="M10277 5697 c-52 -16 -103 -60 -129 -110 -31 -58 -32 -175 -2 -231 42 -82 142 -128 244 -112 55 8 72 18 65 37 -4 11 -26 14 -89 14 -70 0 -89 4 -113 21 -48 36 -68 81 -68 154 0 120 52 181 161 188 34 2 70 -1 82 -7 16 -8 21 -7 26 5 11 28 7 33 -31 43 -48 14 -98 13 -146 -2z"
       id="path48" />
    <path
       d="M12417 5697 c-52 -16 -103 -60 -129 -110 -31 -58 -32 -175 -2 -231 42 -82 142 -128 244 -112 55 8 72 18 65 37 -4 11 -26 14 -89 14 -70 0 -89 4 -113 21 -48 36 -68 81 -68 154 0 120 52 181 161 188 34 2 70 -1 82 -7 16 -8 21 -7 26 5 11 28 7 33 -31 43 -48 14 -98 13 -146 -2z"
       id="path50" />
    <path
       d="M12734 5680 c-38 -12 -58 -34 -50 -55 5 -14 9 -14 35 0 71 36 151 2 151 -65 0 -50 -33 -101 -124 -191 -47 -46 -86 -92 -86 -101 0 -16 13 -18 140 -18 l140 0 0 25 c0 25 0 25 -97 25 l-96 0 70 73 c75 77 97 112 108 168 8 45 -14 101 -49 124 -32 21 -99 28 -142 15z"
       id="path52" />
    <path
       d="M10598 5655 c-37 -20 -45 -29 -41 -45 6 -24 10 -24 43 -5 14 8 28 14 33 15 4 0 7 -83 7 -185 l0 -185 30 0 30 0 0 215 0 215 -27 0 c-16 -1 -49 -12 -75 -25z"
       id="path54" />
    <path
       d="M6245 3704 c4 -77 10 -167 14 -202 l6 -63 60 45 c33 25 63 46 66 46 4 0 206 -274 450 -609 419 -576 445 -609 464 -596 11 7 19 19 19 27 -1 8 -196 282 -434 608 -238 327 -434 599 -436 605 -3 6 20 28 51 50 31 21 58 41 61 46 3 6 -262 154 -319 178 -5 2 -6 -55 -2 -135z"
       id="path56" />
    <path
       d="M8747 3701 c-81 -43 -153 -83 -158 -88 -7 -7 9 -24 50 -53 34 -24 61 -45 61 -47 0 -2 -198 -275 -440 -607 -242 -332 -440 -609 -440 -615 0 -6 10 -15 21 -22 17 -8 24 -8 34 3 7 7 204 277 439 600 235 323 431 590 436 593 6 3 38 -14 73 -39 l64 -46 7 118 c3 64 9 154 12 200 4 46 3 82 -2 82 -5 -1 -76 -36 -157 -79z"
       id="path58" />
    <path
       d="M7290 2080 l0 -90 -32 20 c-100 61 -212 -21 -212 -154 1 -95 37 -147 112 -162 42 -8 74 1 111 32 l31 26 0 -26 c0 -21 5 -26 25 -26 l25 0 0 235 0 235 -30 0 -30 0 0 -90z m-55 -105 c42 -17 55 -46 55 -120 0 -70 -34 -115 -87 -115 -45 0 -69 14 -88 50 -33 64 -9 161 47 185 41 18 33 18 73 0z"
       id="path60" />
    <path
       d="M7940 1935 l0 -235 30 0 30 0 0 235 0 235 -30 0 -30 0 0 -235z"
       id="path62" />
    <path
       d="M5970 1925 l0 -225 30 0 30 0 0 100 0 100 85 0 c84 0 85 0 85 25 0 25 -1 25 -85 25 l-85 0 0 75 0 75 90 0 c89 0 90 0 90 25 l0 25 -120 0 -120 0 0 -225z"
       id="path64" />
    <path
       d="M6280 2135 c-6 -8 -9 -23 -5 -35 10 -31 59 -24 63 9 6 37 -34 55 -58 26z"
       id="path66" />
    <path
       d="M7598 2144 c-16 -5 -18 -25 -18 -225 l0 -219 30 0 30 0 0 88 0 87 54 2 c103 2 158 51 160 139 1 52 -20 91 -59 112 -30 15 -162 26 -197 16z m134 -44 c68 -19 90 -93 45 -146 -19 -22 -34 -28 -80 -32 l-57 -4 0 90 c0 107 8 115 92 92z"
       id="path68" />
    <path
       d="M8438 2103 c-13 -3 -18 -15 -18 -44 0 -35 -3 -39 -25 -39 -18 0 -25 -5 -25 -20 0 -14 7 -20 24 -20 24 0 24 -1 27 -121 4 -119 5 -121 33 -145 38 -33 99 -31 104 4 3 18 -1 22 -25 22 -47 0 -53 14 -53 132 l0 108 40 0 c33 0 40 3 40 20 0 17 -7 20 -40 20 l-40 0 0 45 c0 45 -3 48 -42 38z"
       id="path70" />
    <path
       d="M6794 2016 c-52 -23 -78 -71 -82 -151 -3 -60 0 -75 20 -105 30 -45 81 -70 138 -69 79 2 110 17 92 46 -6 10 -17 10 -47 2 -55 -16 -110 2 -135 44 -39 63 -34 67 95 67 l115 0 0 33 c0 17 -9 51 -20 75 -29 65 -104 89 -176 58z m111 -51 c14 -13 25 -36 25 -50 0 -25 -1 -25 -85 -25 -47 0 -85 2 -85 4 0 23 28 70 49 81 39 21 69 18 96 -10z"
       id="path72" />
    <path
       d="M8123 2019 c-24 -7 -33 -15 -33 -30 0 -17 4 -20 23 -15 73 20 95 19 121 -7 42 -43 35 -63 -25 -70 -28 -4 -68 -15 -88 -25 -71 -37 -77 -133 -10 -167 38 -20 67 -19 114 5 47 24 45 24 45 5 0 -10 10 -15 26 -15 l26 0 -4 123 c-3 70 -10 134 -18 149 -24 50 -99 70 -177 47z m137 -199 c0 -67 -64 -109 -115 -76 -61 40 -8 115 83 116 31 0 32 -1 32 -40z"
       id="path74" />
    <path
       d="M8694 2016 c-52 -23 -78 -71 -82 -151 -3 -60 0 -75 20 -105 30 -45 81 -70 138 -69 79 2 110 17 92 46 -6 10 -17 10 -47 2 -55 -16 -110 2 -135 44 -39 63 -34 67 95 67 l115 0 0 33 c0 17 -9 51 -20 75 -29 65 -104 89 -176 58z m111 -51 c14 -13 25 -36 25 -50 0 -25 -1 -25 -85 -25 -47 0 -85 2 -85 4 0 23 28 70 49 81 39 21 69 18 96 -10z"
       id="path76" />
    <path
       d="M9004 2021 c-49 -21 -70 -95 -40 -136 7 -10 38 -30 67 -44 43 -21 55 -31 57 -53 5 -42 -37 -65 -91 -50 -44 11 -64 4 -54 -22 14 -36 144 -28 180 12 47 52 24 111 -58 155 -69 37 -82 65 -41 92 20 13 32 14 61 6 29 -8 37 -7 42 5 3 9 1 20 -5 26 -14 14 -92 20 -118 9z"
       id="path78" />
    <path
       d="M6280 1860 l0 -160 30 0 30 0 0 160 0 160 -30 0 -30 0 0 -160z"
       id="path80" />
    <path
       d="M6445 1941 l55 -78 -41 -58 c-78 -112 -76 -105 -40 -105 27 0 36 8 68 60 21 33 41 60 44 60 3 0 23 -27 43 -60 34 -55 40 -60 72 -60 l35 0 -55 79 c-31 43 -56 82 -56 86 0 4 23 38 50 76 28 38 50 71 50 74 0 3 -13 5 -29 5 -26 0 -35 -9 -67 -60 -20 -33 -38 -60 -39 -60 -1 0 -19 27 -39 60 -34 54 -40 60 -71 60 l-34 0 54 -79z"
       id="path82" />
  </g>
</svg>
