<?xml version="1.0" encoding="UTF-8" standalone="no"?>
<svg
   version="1.0"
   width="1613.0002pt"
   height="1289.3118pt"
   viewBox="0 0 1613.0002 1289.3117"
   preserveAspectRatio="xMidYMid meet"
   id="svg86"
   sodipodi:docname="accelerometer_mems.svg"
   inkscape:version="1.1.1 (1:1.1+202109281949+c3084ef5ed)"
   xmlns:inkscape="http://www.inkscape.org/namespaces/inkscape"
   xmlns:sodipodi="http://sodipodi.sourceforge.net/DTD/sodipodi-0.dtd"
   xmlns="http://www.w3.org/2000/svg"
   xmlns:svg="http://www.w3.org/2000/svg">
  <defs
     id="defs90" />
  <sodipodi:namedview
     id="namedview88"
     pagecolor="#ffffff"
     bordercolor="#666666"
     borderopacity="1.0"
     inkscape:pageshadow="2"
     inkscape:pageopacity="0.0"
     inkscape:pagecheckerboard="0"
     inkscape:document-units="pt"
     showgrid="false"
     inkscape:zoom="0.1767767"
     inkscape:cx="1043.6896"
     inkscape:cy="548.71485"
     inkscape:window-width="1366"
     inkscape:window-height="731"
     inkscape:window-x="0"
     inkscape:window-y="223"
     inkscape:window-maximized="1"
     inkscape:current-layer="g84"
     fit-margin-top="0"
     fit-margin-left="0"
     fit-margin-right="0"
     fit-margin-bottom="0" />
  <g
     transform="matrix(0.1,0,0,-0.1,-255.9999,1458)"
     fill="#000000"
     stroke="none"
     id="g84">
    <path
       d="m 2560,14180 v -400 h 110 110 V 9155 4530 h -110 -110 v -395 -395 h 395 395 v 395 395 h -110 -110 v 1725 1725 h 910 910 v -985 -985 h 175 175 v 985 985 h 1545 1545 v -985 -985 h 175 175 v 985 985 h 1850 1850 v -985 -985 h 174 173 l 6,68 c 4,37 7,480 7,985 v 917 h 1605 1605 v -985 -985 h 175 175 v 985 985 h 880 880 l -2,-1722 -3,-1723 -107,-3 -108,-3 v -394 -395 h 395 395 v 395 395 h -110 -110 v 4625 4625 h 110 110 v 400 400 h -395 -395 v -400 -400 h 110 110 v -1720 -1720 h -880 -880 v 985 985 h -175 -175 v -985 -985 h -1610 -1610 v 985 985 h -175 -175 v -985 -985 H 10590 8740 v 985 985 h -175 -175 v -985 -985 H 6845 5300 v 985 985 h -175 -175 v -985 -985 h -910 -910 v 1720 1720 h 110 110 v 400 400 h -395 -395 z m 9710,-4595 v -235 h -30 -30 v 235 235 h 30 30 z m -1126,-11 75,-225 -31,3 c -29,3 -33,8 -53,68 l -22,65 -81,3 -81,3 -22,-71 c -21,-65 -25,-70 -51,-70 -15,0 -28,4 -28,9 0,8 116,352 141,419 7,17 16,22 43,22 h 34 z m 2354,217 c 8,-4 12,-19 10,-32 -4,-33 -53,-40 -63,-9 -11,36 22,61 53,41 z m -198,-76 v -45 h 40 c 33,0 40,-3 40,-20 0,-17 -7,-20 -40,-20 h -40 v -108 c 0,-118 6,-132 53,-132 24,0 28,-4 25,-22 -5,-35 -66,-37 -104,-4 -28,24 -29,26 -33,145 -3,120 -3,121 -27,121 -17,0 -24,6 -24,20 0,15 7,20 25,20 22,0 25,4 25,39 0,29 5,41 18,44 39,10 42,7 42,-38 z m -1822,-41 c 16,-5 22,-13 20,-27 -3,-19 -9,-21 -60,-18 -50,2 -60,-1 -90,-27 -31,-28 -33,-35 -33,-92 0,-57 2,-64 34,-92 32,-28 38,-30 93,-25 52,5 58,3 58,-14 0,-37 -91,-52 -153,-25 -123,52 -125,252 -3,307 42,19 93,24 134,13 z m 300,0 c 16,-5 22,-13 20,-27 -3,-19 -9,-21 -60,-18 -50,2 -60,-1 -90,-27 -31,-28 -33,-35 -33,-92 0,-57 2,-64 34,-92 32,-28 38,-30 93,-25 52,5 58,3 58,-14 0,-37 -91,-52 -153,-25 -123,52 -125,252 -3,307 42,19 93,24 134,13 z m 278,-9 c 39,-16 73,-77 74,-132 v -33 h -115 c -129,0 -134,-4 -95,-67 25,-42 80,-60 135,-44 30,8 41,8 47,-2 18,-29 -13,-44 -92,-46 -57,-1 -108,24 -138,69 -33,48 -29,158 7,209 41,57 109,75 177,46 z m 500,0 c 39,-16 73,-77 74,-132 v -33 h -115 c -129,0 -134,-4 -95,-67 25,-42 80,-60 135,-44 30,8 41,8 47,-2 18,-29 -13,-44 -92,-46 -57,-1 -108,24 -138,69 -33,48 -29,158 7,209 41,57 109,75 177,46 z m 304,-9 c 0,-19 -7,-26 -30,-31 -57,-12 -70,-44 -70,-166 v -109 h -30 -30 v 160 160 h 25 c 21,0 25,-5 25,-32 1,-33 1,-33 14,-9 15,26 51,50 79,51 11,0 17,-8 17,-24 z m 215,9 c 47,-23 58,-55 63,-192 l 4,-123 h -26 c -16,0 -26,5 -26,15 0,19 2,19 -45,-5 -47,-24 -76,-25 -114,-5 -67,34 -61,130 10,167 20,10 60,21 88,25 60,7 67,27 25,70 -26,26 -48,27 -121,7 -19,-5 -23,-2 -23,15 0,37 105,54 165,26 z m 741,-4 c 97,-44 113,-206 29,-280 -116,-102 -284,1 -259,159 18,114 124,169 230,121 z m 375,3 c 46,-24 59,-66 59,-199 v -115 h -30 -30 v 120 c 0,107 -2,122 -20,140 -28,28 -75,26 -105,-5 -24,-23 -25,-30 -25,-140 v -115 h -30 -30 v 160 160 h 25 c 19,0 25,-5 25,-22 0,-20 1,-20 18,-5 41,37 96,46 143,21 z m -681,-154 v -160 h -30 -30 v 160 160 h 30 30 z M 4568,9288 c 33,-101 63,-176 65,-168 3,8 31,90 63,183 l 59,167 h 37 c 33,0 38,-3 38,-23 0,-28 18,-322 24,-384 3,-41 2,-43 -24,-43 -27,0 -27,0 -34,92 -3,50 -6,116 -6,147 0,31 -3,73 -7,95 -6,37 -8,32 -58,-110 -73,-208 -80,-224 -104,-224 -17,0 -29,27 -83,193 l -63,192 -8,-180 c -4,-99 -10,-186 -12,-192 -5,-14 -55,-18 -55,-5 0,4 7,90 15,192 8,102 15,200 15,218 0,30 2,32 38,32 h 39 z m 547,47 c 47,-23 58,-55 63,-192 l 4,-123 h -26 c -16,0 -26,5 -26,15 0,19 2,19 -45,-5 -47,-24 -76,-25 -114,-5 -67,34 -61,130 10,167 20,10 60,21 88,25 60,7 67,27 25,70 -26,26 -48,27 -121,7 -19,-5 -23,-2 -23,15 0,37 105,54 165,26 z m 317,-3 c 6,-6 8,-17 5,-26 -5,-12 -13,-13 -42,-5 -29,8 -41,7 -61,-6 -41,-27 -28,-55 41,-92 82,-44 105,-103 58,-155 -36,-40 -166,-48 -180,-12 -10,26 10,33 54,22 54,-15 96,8 91,50 -2,22 -14,32 -57,53 -29,14 -60,34 -67,44 -30,41 -9,115 40,136 26,11 104,5 118,-9 z m 270,0 c 6,-6 8,-17 5,-26 -5,-12 -13,-13 -42,-5 -29,8 -41,7 -61,-6 -41,-27 -28,-55 41,-92 82,-44 105,-103 58,-155 -36,-40 -166,-48 -180,-12 -10,26 10,33 54,22 54,-15 96,8 91,50 -2,22 -14,32 -57,53 -29,14 -60,34 -67,44 -30,41 -9,115 40,136 26,11 104,5 118,-9 z m 6813,-512 h 2704 l 3,69 3,70 153,-88 c 85,-48 154,-91 155,-94 1,-4 -68,-47 -153,-96 l -155,-89 -3,74 -3,74 H 12515 9811 l -3,-74 -3,-74 -155,89 c -85,49 -153,93 -152,97 2,4 72,46 155,95 l 152,87 3,-70 3,-70 z"
       id="path2"
       style="fill:#0000ff" />
    <path
       d="m 10997,9637 c -15,-50 -28,-95 -27,-99 0,-12 120,-9 120,2 0,18 -54,190 -60,190 -3,0 -18,-42 -33,-93 z"
       id="path4"
       style="fill:#0000ff" />
    <path
       d="m 11949,9625 c -21,-11 -49,-58 -49,-81 0,-2 38,-4 85,-4 84,0 85,0 85,25 0,32 -42,75 -72,75 -13,-1 -35,-7 -49,-15 z"
       id="path6"
       style="fill:#0000ff" />
    <path
       d="m 12449,9625 c -21,-11 -49,-58 -49,-81 0,-2 38,-4 85,-4 84,0 85,0 85,25 0,32 -42,75 -72,75 -13,-1 -35,-7 -49,-15 z"
       id="path8"
       style="fill:#0000ff" />
    <path
       d="m 12984,9496 c -50,-22 -60,-75 -19,-102 51,-33 115,9 115,76 0,39 -1,40 -32,40 -18,-1 -47,-7 -64,-14 z"
       id="path10"
       style="fill:#0000ff" />
    <path
       d="m 13702,9625 c -83,-37 -82,-195 3,-230 30,-13 39,-13 69,-1 48,20 69,65 64,133 -7,86 -66,129 -136,98 z"
       id="path12"
       style="fill:#0000ff" />
    <path
       d="m 5024,9166 c -50,-22 -60,-75 -19,-102 51,-33 115,9 115,76 0,39 -1,40 -32,40 -18,-1 -47,-7 -64,-14 z"
       id="path14"
       style="fill:#0000ff" />
    <rect
       style="fill:#ffe680;stroke-width:7.5"
       id="rect177"
       width="441.39508"
       height="2969.8174"
       x="6819.7202"
       y="-7212.7759"
       transform="scale(1,-1)" />
    <rect
       style="fill:#d45500;stroke-width:4.38124"
       id="rect245"
       width="749.75928"
       height="860.81348"
       x="6665.5381"
       y="-4637.2461"
       transform="scale(1,-1)" />
    <rect
       style="fill:#ffe680;stroke-width:7.5"
       id="rect177-3"
       width="441.39508"
       height="2969.8174"
       x="10536.801"
       y="-7212.7759"
       transform="scale(1,-1)" />
    <rect
       style="fill:#d45500;stroke-width:4.38124"
       id="rect245-5"
       width="749.75928"
       height="860.81348"
       x="10382.618"
       y="-4637.2461"
       transform="scale(1,-1)" />
    <rect
       style="fill:#ffe680;stroke-width:7.5"
       id="rect177-3-2"
       width="441.39508"
       height="2969.8174"
       x="14253.882"
       y="-7212.7759"
       transform="scale(1,-1)" />
    <rect
       style="fill:#d45500;stroke-width:4.38124"
       id="rect245-5-9"
       width="749.75928"
       height="860.81348"
       x="14099.699"
       y="-4637.2461"
       transform="scale(1,-1)" />
    <path
       d="m 7417,3700.4326 c 4,-77 10,-167 14,-202 l 6,-63 60,45 c 33,25 63,46 66,46 4,0 206,-274 450,-609 419,-576 445,-609 464,-596 11,7 19,19 19,27 -1,8 -196,282 -434,608 -238,327 -434,599 -436,605 -3,6 20,28 51,50 31,21 58,41 61,46 3,6 -262,154 -319,178 -5,2 -6,-55 -2,-135 z"
       id="path56" />
    <path
       d="m 9919,3697.4326 c -81,-43 -153,-83 -158,-88 -7,-7 9,-24 50,-53 34,-24 61,-45 61,-47 0,-2 -198,-275 -440,-607 -242,-332 -440,-609 -440,-615 0,-6 10,-15 21,-22 17,-8 24,-8 34,3 7,7 204,277 439,600 235,323 431,590 436,593 6,3 38,-14 73,-39 l 64,-46 7,118 c 3,64 9,154 12,200 4,46 3,82 -2,82 -5,-1 -76,-36 -157,-79 z"
       id="path58" />
    <path
       d="m 8462,2076.4326 v -90 l -32,20 c -100,61 -212,-21 -212,-154 1,-95 37,-147 112,-162 42,-8 74,1 111,32 l 31,26 v -26 c 0,-21 5,-26 25,-26 h 25 v 235 235 h -30 -30 z m -55,-105 c 42,-17 55,-46 55,-120 0,-70 -34,-115 -87,-115 -45,0 -69,14 -88,50 -33,64 -9,161 47,185 41,18 33,18 73,0 z"
       id="path60" />
    <path
       d="m 9112,1931.4326 v -235 h 30 30 v 235 235 h -30 -30 z"
       id="path62" />
    <path
       d="m 7142,1921.4326 v -225 h 30 30 v 100 100 h 85 c 84,0 85,0 85,25 0,25 -1,25 -85,25 h -85 v 75 75 h 90 c 89,0 90,0 90,25 v 25 h -120 -120 z"
       id="path64" />
    <path
       d="m 7452,2131.4326 c -6,-8 -9,-23 -5,-35 10,-31 59,-24 63,9 6,37 -34,55 -58,26 z"
       id="path66" />
    <path
       d="m 8770,2140.4326 c -16,-5 -18,-25 -18,-225 v -219 h 30 30 v 88 87 l 54,2 c 103,2 158,51 160,139 1,52 -20,91 -59,112 -30,15 -162,26 -197,16 z m 134,-44 c 68,-19 90,-93 45,-146 -19,-22 -34,-28 -80,-32 l -57,-4 v 90 c 0,107 8,115 92,92 z"
       id="path68" />
    <path
       d="m 9610,2099.4326 c -13,-3 -18,-15 -18,-44 0,-35 -3,-39 -25,-39 -18,0 -25,-5 -25,-20 0,-14 7,-20 24,-20 24,0 24,-1 27,-121 4,-119 5,-121 33,-145 38,-33 99,-31 104,4 3,18 -1,22 -25,22 -47,0 -53,14 -53,132 v 108 h 40 c 33,0 40,3 40,20 0,17 -7,20 -40,20 h -40 v 45 c 0,45 -3,48 -42,38 z"
       id="path70" />
    <path
       d="m 7966,2012.4326 c -52,-23 -78,-71 -82,-151 -3,-60 0,-75 20,-105 30,-45 81,-70 138,-69 79,2 110,17 92,46 -6,10 -17,10 -47,2 -55,-16 -110,2 -135,44 -39,63 -34,67 95,67 h 115 v 33 c 0,17 -9,51 -20,75 -29,65 -104,89 -176,58 z m 111,-51 c 14,-13 25,-36 25,-50 0,-25 -1,-25 -85,-25 -47,0 -85,2 -85,4 0,23 28,70 49,81 39,21 69,18 96,-10 z"
       id="path72" />
    <path
       d="m 9295,2015.4326 c -24,-7 -33,-15 -33,-30 0,-17 4,-20 23,-15 73,20 95,19 121,-7 42,-43 35,-63 -25,-70 -28,-4 -68,-15 -88,-25 -71,-37 -77,-133 -10,-167 38,-20 67,-19 114,5 47,24 45,24 45,5 0,-10 10,-15 26,-15 h 26 l -4,123 c -3,70 -10,134 -18,149 -24,50 -99,70 -177,47 z m 137,-199 c 0,-67 -64,-109 -115,-76 -61,40 -8,115 83,116 31,0 32,-1 32,-40 z"
       id="path74" />
    <path
       d="m 9866,2012.4326 c -52,-23 -78,-71 -82,-151 -3,-60 0,-75 20,-105 30,-45 81,-70 138,-69 79,2 110,17 92,46 -6,10 -17,10 -47,2 -55,-16 -110,2 -135,44 -39,63 -34,67 95,67 h 115 v 33 c 0,17 -9,51 -20,75 -29,65 -104,89 -176,58 z m 111,-51 c 14,-13 25,-36 25,-50 0,-25 -1,-25 -85,-25 -47,0 -85,2 -85,4 0,23 28,70 49,81 39,21 69,18 96,-10 z"
       id="path76" />
    <path
       d="m 10176,2017.4326 c -49,-21 -70,-95 -40,-136 7,-10 38,-30 67,-44 43,-21 55,-31 57,-53 5,-42 -37,-65 -91,-50 -44,11 -64,4 -54,-22 14,-36 144,-28 180,12 47,52 24,111 -58,155 -69,37 -82,65 -41,92 20,13 32,14 61,6 29,-8 37,-7 42,5 3,9 1,20 -5,26 -14,14 -92,20 -118,9 z"
       id="path78" />
    <path
       d="m 7452,1856.4326 v -160 h 30 30 v 160 160 h -30 -30 z"
       id="path80" />
    <path
       d="m 7617,1937.4326 55,-78 -41,-58 c -78,-112 -76,-105 -40,-105 27,0 36,8 68,60 21,33 41,60 44,60 3,0 23,-27 43,-60 34,-55 40,-60 72,-60 h 35 l -55,79 c -31,43 -56,82 -56,86 0,4 23,38 50,76 28,38 50,71 50,74 0,3 -13,5 -29,5 -26,0 -35,-9 -67,-60 -20,-33 -38,-60 -39,-60 -1,0 -19,27 -39,60 -34,54 -40,60 -71,60 h -34 z"
       id="path82" />
    <rect
       style="fill:#ffe680;stroke-width:7.5"
       id="rect177-2"
       width="441.39508"
       height="2969.8174"
       x="-7261.1152"
       y="10758.998"
       transform="scale(-1,1)" />
    <rect
       style="fill:#d45500;stroke-width:4.38124"
       id="rect245-7"
       width="749.75928"
       height="860.81348"
       x="-7415.2974"
       y="13334.527"
       transform="scale(-1,1)" />
    <rect
       style="fill:#ffe680;stroke-width:7.5"
       id="rect177-3-9"
       width="441.39508"
       height="2969.8174"
       x="-10978.195"
       y="10758.997"
       transform="scale(-1,1)" />
    <rect
       style="fill:#d45500;stroke-width:4.38124"
       id="rect245-5-3"
       width="749.75928"
       height="860.81348"
       x="-11132.377"
       y="13334.526"
       transform="scale(-1,1)" />
    <rect
       style="fill:#ffe680;stroke-width:7.5"
       id="rect177-3-2-0"
       width="441.39508"
       height="2969.8174"
       x="-14695.277"
       y="10758.997"
       transform="scale(-1,1)" />
    <rect
       style="fill:#d45500;stroke-width:4.38124"
       id="rect245-5-9-6"
       width="749.75928"
       height="860.81348"
       x="-14849.459"
       y="13334.526"
       transform="scale(-1,1)" />
    <rect
       style="fill:#0088ff;fill-opacity:1;stroke-width:16.3808"
       id="rect4907"
       width="1451.7302"
       height="1966.4325"
       x="12800"
       y="-7980"
       transform="scale(1,-1)" />
    <path
       d="m 11389,5693.4326 c -52,-16 -103,-60 -129,-110 -31,-58 -32,-175 -2,-231 42,-82 142,-128 244,-112 55,8 72,18 65,37 -4,11 -26,14 -89,14 -70,0 -89,4 -113,21 -48,36 -68,81 -68,154 0,120 52,181 161,188 34,2 70,-1 82,-7 16,-8 21,-7 26,5 11,28 7,33 -31,43 -48,14 -98,13 -146,-2 z"
       id="path48" />
    <path
       d="m 13529,5693.4326 c -52,-16 -103,-60 -129,-110 -31,-58 -32,-175 -2,-231 42,-82 142,-128 244,-112 55,8 72,18 65,37 -4,11 -26,14 -89,14 -70,0 -89,4 -113,21 -48,36 -68,81 -68,154 0,120 52,181 161,188 34,2 70,-1 82,-7 16,-8 21,-7 26,5 11,28 7,33 -31,43 -48,14 -98,13 -146,-2 z"
       id="path50" />
    <path
       d="m 13846,5676.4326 c -38,-12 -58,-34 -50,-55 5,-14 9,-14 35,0 71,36 151,2 151,-65 0,-50 -33,-101 -124,-191 -47,-46 -86,-92 -86,-101 0,-16 13,-18 140,-18 h 140 v 25 c 0,25 0,25 -97,25 h -96 l 70,73 c 75,77 97,112 108,168 8,45 -14,101 -49,124 -32,21 -99,28 -142,15 z"
       id="path52" />
    <path
       d="m 11710,5651.4326 c -37,-20 -45,-29 -41,-45 6,-24 10,-24 43,-5 14,8 28,14 33,15 4,0 7,-83 7,-185 v -185 h 30 30 v 215 215 h -27 c -16,-1 -49,-12 -75,-25 z"
       id="path54" />
    <rect
       style="fill:#006fff;fill-opacity:0.407698;stroke-width:6.83071"
       id="rect622"
       width="1451.7308"
       height="1966.4325"
       x="10988.27"
       y="-7976.4326"
       transform="scale(1,-1)" />
    <rect
       style="fill:#d45500;stroke-width:4.33551"
       id="rect245-7-1"
       width="790.00085"
       height="800.00024"
       x="-18690"
       y="13780"
       transform="scale(-1,1)" />
    <rect
       style="fill:#d45500;stroke-width:4.33551"
       id="rect245-7-1-2"
       width="790.00085"
       height="800.00024"
       x="17900"
       y="-4540"
       transform="scale(1,-1)" />
    <rect
       style="fill:#d45500;stroke-width:4.33551"
       id="rect245-7-1-9"
       width="790.00085"
       height="800.00024"
       x="-3350.001"
       y="13780"
       transform="scale(-1,1)" />
    <rect
       style="fill:#d45500;stroke-width:4.33551"
       id="rect245-7-1-2-8"
       width="790.00085"
       height="800.00024"
       x="2559.999"
       y="-4540"
       transform="scale(1,-1)" />
  </g>
</svg>
