<?xml version="1.0" encoding="UTF-8" standalone="no"?>
<!-- Created with Inkscape (http://www.inkscape.org/) -->

<svg
   width="46.698959mm"
   height="64.426041mm"
   viewBox="0 0 46.698959 64.426041"
   version="1.1"
   id="svg9780"
   inkscape:version="1.2 (1:1.2.1+202207142221+cd75a1ee6d)"
   sodipodi:docname="camera.svg"
   xmlns:inkscape="http://www.inkscape.org/namespaces/inkscape"
   xmlns:sodipodi="http://sodipodi.sourceforge.net/DTD/sodipodi-0.dtd"
   xmlns="http://www.w3.org/2000/svg"
   xmlns:svg="http://www.w3.org/2000/svg">
  <sodipodi:namedview
     id="namedview9782"
     pagecolor="#ffffff"
     bordercolor="#666666"
     borderopacity="1.0"
     inkscape:showpageshadow="2"
     inkscape:pageopacity="0.0"
     inkscape:pagecheckerboard="0"
     inkscape:deskcolor="#d1d1d1"
     inkscape:document-units="mm"
     showgrid="false"
     inkscape:zoom="0.69004485"
     inkscape:cx="50.721341"
     inkscape:cy="142.74434"
     inkscape:window-width="1920"
     inkscape:window-height="1020"
     inkscape:window-x="0"
     inkscape:window-y="0"
     inkscape:window-maximized="1"
     inkscape:current-layer="layer1" />
  <defs
     id="defs9777">
    <linearGradient
       id="SVGID_00000036932170216505276960000000462370771767338158_"
       gradientUnits="userSpaceOnUse"
       x1="37.476501"
       y1="208.81689"
       x2="137.9964"
       y2="90.588898"
       gradientTransform="matrix(1,0,0,-1,0,438.64)">
			<stop
   offset="0.2637"
   style="stop-color:#7F7F7F"
   id="stop4985" />

			<stop
   offset="0.6264"
   style="stop-color:#5F5F5F"
   id="stop4987" />

			<stop
   offset="0.7179"
   style="stop-color:#EAEAEA"
   id="stop4989" />

			<stop
   offset="0.9939"
   style="stop-color:#636466"
   id="stop4991" />

		</linearGradient>
    <linearGradient
       id="SVGID_00000003065704546383540230000003588422942420086175_"
       gradientUnits="userSpaceOnUse"
       x1="36.735802"
       y1="206.8129"
       x2="133.6097"
       y2="54.210499"
       gradientTransform="matrix(1,0,0,-1,0,438.64)">
			<stop
   offset="0"
   style="stop-color:#8E8E8E"
   id="stop5024" />

			<stop
   offset="0.5337"
   style="stop-color:#EAEAEA"
   id="stop5026" />

			<stop
   offset="1"
   style="stop-color:#636466"
   id="stop5028" />

		</linearGradient>
    <linearGradient
       id="SVGID_00000096024813374514874320000016475560487709560980_"
       gradientUnits="userSpaceOnUse"
       x1="54.751099"
       y1="172.6097"
       x2="109.4701"
       y2="96.003601"
       gradientTransform="matrix(1,0,0,-1,0,438.64)">
			<stop
   offset="0.1963"
   style="stop-color:#4D4D4F"
   id="stop5033" />

			<stop
   offset="0.5828"
   style="stop-color:#808080"
   id="stop5035" />

			<stop
   offset="0.9939"
   style="stop-color:#4D4D4F"
   id="stop5037" />

		</linearGradient>
    <linearGradient
       id="SVGID_00000144306775261305812140000009586849790806729372_"
       gradientUnits="userSpaceOnUse"
       x1="7.6500001"
       y1="112.6329"
       x2="85.709999"
       y2="112.6329"
       gradientTransform="matrix(1,0,0,-1,0,438.64)">
			<stop
   offset="0.1963"
   style="stop-color:#4D4D4F"
   id="stop5044" />

			<stop
   offset="0.5828"
   style="stop-color:#808080"
   id="stop5046" />

			<stop
   offset="0.9939"
   style="stop-color:#4D4D4F"
   id="stop5048" />

		</linearGradient>
    <radialGradient
       id="SVGID_00000029761508646703968460000014251176185633066938_"
       cx="131.36079"
       cy="-53.098999"
       r="20.6537"
       gradientTransform="matrix(0.5777,0.8162,0.5255,-0.372,-13.9679,205.3276)"
       gradientUnits="userSpaceOnUse">
			<stop
   offset="0"
   style="stop-color:#B1BCD8"
   id="stop5057" />

			<stop
   offset="1"
   style="stop-color:#004785"
   id="stop5059" />

		</radialGradient>
  </defs>
  <g
     inkscape:label="Layer 1"
     inkscape:groupmode="layer"
     id="layer1"
     transform="translate(-97.464082,-58.397149)">
    <g
       id="g5076"
       transform="matrix(-0.26458333,0,0,0.26458333,144.16304,12.253816)">
		<polygon
   class="st51"
   points="44.1,340.3 155,403.5 155,382.7 176.4,394.9 176.4,415.7 176.4,415.7 176.4,262.1 176.4,283.4 155,271.2 155,249.9 44.1,186.6 44.1,208 22.7,195.8 22.7,307.3 44.1,319.4 "
   id="polygon4973"
   style="fill:#00441d" />

		<path
   class="st52"
   d="M 44.1,208 22.8,195.8 v -21.4 l 21.3,12.2 z M 33.4,186.3 c -2.7,-1.6 -5,-0.6 -5,2.1 0,2.7 2.2,6.2 5,7.8 2.7,1.6 4.9,0.6 4.9,-2.1 0.1,-2.8 -2.2,-6.3 -4.9,-7.8 z"
   id="path4975"
   style="fill:#be920a" />

		<path
   class="st52"
   d="M 176.4,283.4 155,271.2 v -21.4 l 21.4,12.2 z m -11.2,-22 c -2.7,-1.6 -4.9,-0.6 -4.9,2.1 0,2.7 2.2,6.2 4.9,7.8 2.7,1.6 4.9,0.6 4.9,-2.1 0,-2.7 -2.2,-6.2 -4.9,-7.8 z"
   id="path4977"
   style="fill:#be920a" />

		<path
   class="st52"
   d="M 176.4,415.7 155,403.5 v -21.4 l 21.4,12.2 z m -11.2,-22 c -2.7,-1.6 -4.9,-0.6 -4.9,2.1 0,2.7 2.2,6.2 4.9,7.8 2.7,1.5 4.9,0.6 4.9,-2.1 0,-2.8 -2.2,-6.3 -4.9,-7.8 z"
   id="path4979"
   style="fill:#be920a" />

		<polygon
   class="st53"
   points="39.9,342.4 150.9,405.6 150.9,384.8 172.2,397 172.2,417.8 172.2,417.8 172.2,264.1 172.2,285.5 150.9,273.3 150.9,252 39.9,188.7 39.9,210.1 18.6,197.9 18.6,309.4 39.9,321.5 "
   id="polygon4981"
   style="fill:#006f3b" />

		<path
   class="st54"
   d="m 162,332.7 c 0,7.1 -5.8,9.6 -12.9,5.5 -7.1,-4 -12.9,-13.1 -12.9,-20.2 0,-7.1 5.8,-9.6 12.9,-5.5 7.2,4.1 12.9,13.1 12.9,20.2 z"
   id="path4983"
   style="fill:#ffc20e" />

		
			<linearGradient
   id="linearGradient9716"
   gradientUnits="userSpaceOnUse"
   x1="37.476501"
   y1="208.81689"
   x2="137.9964"
   y2="90.588898"
   gradientTransform="matrix(1,0,0,-1,0,438.64)">
			<stop
   offset="0.2637"
   style="stop-color:#7F7F7F"
   id="stop9708" />

			<stop
   offset="0.6264"
   style="stop-color:#5F5F5F"
   id="stop9710" />

			<stop
   offset="0.7179"
   style="stop-color:#EAEAEA"
   id="stop9712" />

			<stop
   offset="0.9939"
   style="stop-color:#636466"
   id="stop9714" />

		</linearGradient>

		<path
   style="fill:url(#SVGID_00000036932170216505276960000000462370771767338158_)"
   d="M 140.8,272.2 51,221 c -2.2,-1.3 -4.2,-1.4 -5.5,-0.5 l -0.1,-0.1 -11.9,6.6 10.4,5.3 v 81.5 c 0,3.9 3.2,8.8 7,11 l 83.2,47.4 -0.4,11.3 11.1,-6.5 c 1.8,-0.3 2.9,-1.7 2.9,-4 v -89.8 c 0.1,-3.8 -3.1,-8.8 -6.9,-11 z"
   id="path4994" />

		<path
   class="st54"
   d="M 39.9,210.1 18.6,197.9 v -21.4 l 21.3,12.2 z M 29.2,188.4 c -2.7,-1.6 -5,-0.6 -5,2.1 0,2.7 2.2,6.2 5,7.8 2.8,1.6 5,0.6 5,-2.1 0,-2.7 -2.2,-6.3 -5,-7.8 z"
   id="path4996"
   style="fill:#ffc20e" />

		<path
   class="st54"
   d="M 172.2,285.5 150.8,273.3 V 252 l 21.4,12.2 z m -11.2,-22 c -2.7,-1.6 -4.9,-0.6 -4.9,2.1 0,2.7 2.2,6.2 4.9,7.8 2.7,1.6 4.9,0.6 4.9,-2.1 0.1,-2.8 -2.1,-6.3 -4.9,-7.8 z"
   id="path4998"
   style="fill:#ffc20e" />

		<path
   class="st54"
   d="M 39.9,342.4 18.6,330.2 V 308.8 L 39.9,321 Z M 29.2,320.6 c -2.7,-1.6 -5,-0.6 -5,2.1 0,2.7 2.2,6.2 5,7.8 2.8,1.6 5,0.6 5,-2.1 0,-2.7 -2.2,-6.2 -5,-7.8 z"
   id="path5000"
   style="fill:#ffc20e" />

		<path
   class="st54"
   d="m 172.2,417.8 -21.4,-12.2 v -21.4 l 21.4,12.2 z m -11.2,-22 c -2.7,-1.5 -4.9,-0.6 -4.9,2.1 0,2.7 2.2,6.2 4.9,7.8 2.7,1.6 4.9,0.6 4.9,-2.1 0.1,-2.8 -2.1,-6.3 -4.9,-7.8 z"
   id="path5002"
   style="fill:#ffc20e" />

		<path
   class="st54"
   d="m 55.8,209.1 c 0,2 -1.6,2.7 -3.6,1.5 -2,-1.2 -3.6,-3.7 -3.6,-5.6 0,-1.9 1.6,-2.7 3.6,-1.5 2,1.1 3.6,3.7 3.6,5.6 z"
   id="path5004"
   style="fill:#ffc20e" />

		<path
   class="st54"
   d="m 85.1,225.9 c 0,2 -1.6,2.7 -3.6,1.5 -2,-1.1 -3.6,-3.7 -3.6,-5.6 0,-1.9 1.6,-2.7 3.6,-1.5 2,1 3.6,3.6 3.6,5.6 z"
   id="path5006"
   style="fill:#ffc20e" />

		<path
   class="st54"
   d="m 101.5,235.2 c 0,2 -1.6,2.7 -3.6,1.5 -2,-1.2 -3.6,-3.7 -3.6,-5.6 0,-1.9 1.6,-2.7 3.6,-1.5 2,1.1 3.6,3.6 3.6,5.6 z"
   id="path5008"
   style="fill:#ffc20e" />

		<path
   class="st54"
   d="m 119,245.2 c 0,2 -1.6,2.7 -3.6,1.5 -2,-1.2 -3.6,-3.7 -3.6,-5.6 0,-1.9 1.6,-2.7 3.6,-1.5 2,1.1 3.6,3.6 3.6,5.6 z"
   id="path5010"
   style="fill:#ffc20e" />

		<path
   class="st54"
   d="m 133.9,253.7 c 0,2 -1.6,2.7 -3.6,1.5 -2,-1.1 -3.6,-3.7 -3.6,-5.6 0,-1.9 1.6,-2.7 3.6,-1.5 2,1.1 3.6,3.6 3.6,5.6 z"
   id="path5012"
   style="fill:#ffc20e" />

		<path
   class="st54"
   d="m 165.3,294.9 c 0,2 -1.6,2.7 -3.6,1.5 -2,-1.2 -3.6,-3.7 -3.6,-5.6 0,-1.9 1.6,-2.7 3.6,-1.5 2,1.1 3.6,3.7 3.6,5.6 z"
   id="path5014"
   style="fill:#ffc20e" />

		<path
   class="st54"
   d="m 165.3,320.6 c 0,2 -1.6,2.7 -3.6,1.5 -2,-1.2 -3.6,-3.7 -3.6,-5.6 0,-1.9 1.6,-2.7 3.6,-1.5 2,1.1 3.6,3.6 3.6,5.6 z"
   id="path5016"
   style="fill:#ffc20e" />

		<path
   class="st54"
   d="m 165.3,352 c 0,2 -1.6,2.7 -3.6,1.5 -2,-1.2 -3.6,-3.7 -3.6,-5.6 0,-1.9 1.6,-2.7 3.6,-1.5 2,1.1 3.6,3.6 3.6,5.6 z"
   id="path5018"
   style="fill:#ffc20e" />

		<path
   class="st54"
   d="m 76.4,351.1 c 0,2 -1.6,2.7 -3.6,1.5 -2,-1.2 -3.6,-3.7 -3.6,-5.6 0,-2 1.6,-2.7 3.6,-1.5 2,1.1 3.6,3.7 3.6,5.6 z"
   id="path5020"
   style="fill:#ffc20e" />

		<path
   class="st23"
   d="m 123.1,377.8 c 0,2 -1.6,2.7 -3.6,1.5 -2,-1.2 -3.6,-3.7 -3.6,-5.6 0,-1.9 1.6,-2.7 3.6,-1.5 2,1.1 3.6,3.6 3.6,5.6 z"
   id="path5022"
   style="fill:#ffffff" />

		
			<linearGradient
   id="linearGradient9739"
   gradientUnits="userSpaceOnUse"
   x1="36.735802"
   y1="206.8129"
   x2="133.6097"
   y2="54.210499"
   gradientTransform="matrix(1,0,0,-1,0,438.64)">
			<stop
   offset="0"
   style="stop-color:#8E8E8E"
   id="stop9733" />

			<stop
   offset="0.5337"
   style="stop-color:#EAEAEA"
   id="stop9735" />

			<stop
   offset="1"
   style="stop-color:#636466"
   id="stop9737" />

		</linearGradient>

		<path
   style="fill:url(#SVGID_00000003065704546383540230000003588422942420086175_)"
   d="m 135.3,379.8 c 0,3.9 -3.1,5.2 -7,3 L 38.5,331.6 c -3.9,-2.2 -7,-7.2 -7,-11 v -89.8 c 0,-1.9 0.8,-3.2 2.1,-3.8 1.3,-0.5 3,-0.3 5,0.8 l 89.8,51.2 c 3.9,2.2 7,7.2 7,11 z"
   id="path5031" />

		
			<linearGradient
   id="linearGradient9748"
   gradientUnits="userSpaceOnUse"
   x1="54.751099"
   y1="172.6097"
   x2="109.4701"
   y2="96.003601"
   gradientTransform="matrix(1,0,0,-1,0,438.64)">
			<stop
   offset="0.1963"
   style="stop-color:#4D4D4F"
   id="stop9742" />

			<stop
   offset="0.5828"
   style="stop-color:#808080"
   id="stop9744" />

			<stop
   offset="0.9939"
   style="stop-color:#4D4D4F"
   id="stop9746" />

		</linearGradient>

		<path
   style="fill:url(#SVGID_00000096024813374514874320000016475560487709560980_)"
   d="m 119.4,324.9 c 0,-21 -17,-47.8 -38.1,-59.8 -10.9,-6.2 -20.9,-7.6 -27.9,-4.2 v 0 l -20.4,15.5 11.2,14 c 3.7,18.5 17.9,39 35.2,49.7 l 12.8,18 19.3,-14.3 -0.1,-0.1 c 5,-3.6 8,-10 8,-18.8 z"
   id="path5040" />

		<path
   class="st58"
   d="m 100.8,338.7 c 0,21.3 -16.7,28.5 -38.1,16.4 -21,-12 -38,-38.7 -38,-59.8 0,-21.1 17,-28.3 38,-16.4 21.1,12 38.1,38.7 38.1,59.8 z"
   id="path5042"
   style="fill:#414042" />

		
			<linearGradient
   id="linearGradient9758"
   gradientUnits="userSpaceOnUse"
   x1="7.6500001"
   y1="112.6329"
   x2="85.709999"
   y2="112.6329"
   gradientTransform="matrix(1,0,0,-1,0,438.64)">
			<stop
   offset="0.1963"
   style="stop-color:#4D4D4F"
   id="stop9752" />

			<stop
   offset="0.5828"
   style="stop-color:#808080"
   id="stop9754" />

			<stop
   offset="0.9939"
   style="stop-color:#4D4D4F"
   id="stop9756" />

		</linearGradient>

		<path
   style="fill:url(#SVGID_00000144306775261305812140000009586849790806729372_)"
   d="m 85.7,334 c 0,-15.2 -12.3,-34.6 -27.6,-43.3 -8.2,-4.7 -15.6,-5.3 -20.7,-2.4 v 0 l -29.8,18.1 6.6,9.1 c 1.7,14.6 13.3,31.8 27.3,39.8 0.8,0.5 1.6,0.9 2.4,1.3 l 6.3,8.8 28.8,-17.3 c 0.2,-0.1 0.4,-0.3 0.6,-0.4 l 1,-0.7 -0.1,-0.1 c 3.4,-2.6 5.2,-7 5.2,-12.9 z"
   id="path5051" />

		<path
   class="st58"
   d="M 55.1,352.6 C 55.1,368.1 42.5,373 27.5,364.5 12.3,355.8 0,336.4 0,321.2 0,306 12.3,300.7 27.6,309.3 c 15.2,8.7 27.5,28.1 27.5,43.3 z"
   id="path5053"
   style="fill:#414042" />

		<path
   d="m 44.7,346.6 c 0,9.4 -7.7,12.7 -17.1,7.4 -9.4,-5.4 -17.1,-17.4 -17.1,-26.8 0,-9.4 7.7,-12.7 17.1,-7.4 9.4,5.4 17.1,17.4 17.1,26.8 z"
   id="path5055" />

		
			<radialGradient
   id="radialGradient9767"
   cx="131.36079"
   cy="-53.098999"
   r="20.6537"
   gradientTransform="matrix(0.5777,0.8162,0.5255,-0.372,-13.9679,205.3276)"
   gradientUnits="userSpaceOnUse">
			<stop
   offset="0"
   style="stop-color:#B1BCD8"
   id="stop9763" />

			<stop
   offset="1"
   style="stop-color:#004785"
   id="stop9765" />

		</radialGradient>

		<path
   style="fill:url(#SVGID_00000029761508646703968460000014251176185633066938_)"
   d="m 43.6,342.4 c 0,7.3 -5.9,9.8 -13.2,5.7 -7.3,-4.1 -13.2,-13.5 -13.2,-20.7 0,-7.3 5.9,-9.8 13.2,-5.7 7.3,4.1 13.2,13.4 13.2,20.7 z"
   id="path5062" />

		<polygon
   class="st52"
   points="150.9,252 172.2,264.1 176.4,262.1 155,249.9 "
   id="polygon5064"
   style="fill:#be920a" />

		<polygon
   class="st52"
   points="18.6,176.7 39.9,188.9 44.1,186.8 22.7,174.6 "
   id="polygon5066"
   style="fill:#be920a" />

		<polygon
   class="st61"
   points="172.2,264.1 172.2,285.5 176.4,283.4 176.4,262.1 "
   id="polygon5068"
   style="fill:#ad8505" />

		<polygon
   class="st61"
   points="172.3,396.6 172.3,417.9 176.5,415.8 176.5,394.5 "
   id="polygon5070"
   style="fill:#ad8505" />

		<polygon
   class="st51"
   points="172.2,285.4 172.3,396.6 176.5,394.9 176.4,283.4 "
   id="polygon5072"
   style="fill:#00441d" />

		<polygon
   class="st51"
   points="39.9,188.9 150.9,252 155,249.9 44.1,186.8 "
   id="polygon5074"
   style="fill:#00441d" />

	</g>
  </g>
</svg>
