<?xml version="1.0" encoding="UTF-8" standalone="no"?>
<!-- Created with Inkscape (http://www.inkscape.org/) -->

<svg
   version="1.1"
   id="svg2"
   xml:space="preserve"
   width="422.32455"
   height="151.17795"
   viewBox="0 0 422.32455 151.17794"
   sodipodi:docname="encoderwheel.svg"
   inkscape:version="1.1.1 (1:1.1+202109281949+c3084ef5ed)"
   xmlns:inkscape="http://www.inkscape.org/namespaces/inkscape"
   xmlns:sodipodi="http://sodipodi.sourceforge.net/DTD/sodipodi-0.dtd"
   xmlns:xlink="http://www.w3.org/1999/xlink"
   xmlns="http://www.w3.org/2000/svg"
   xmlns:svg="http://www.w3.org/2000/svg"><defs
     id="defs6"><linearGradient
       inkscape:collect="always"
       id="linearGradient4864"><stop
         style="stop-color:black;stop-opacity:1;"
         offset="0"
         id="stop4866" /><stop
         style="stop-color:black;stop-opacity:0;"
         offset="1"
         id="stop4868" /></linearGradient><linearGradient
       inkscape:collect="always"
       xlink:href="#linearGradient4864"
       id="linearGradient4870"
       x1="95.64624"
       y1="178.59329"
       x2="22.97994"
       y2="179.28865"
       gradientUnits="userSpaceOnUse"
       gradientTransform="translate(-61.37149,1.178194e-5)" /><linearGradient
       inkscape:collect="always"
       xlink:href="#linearGradient4864"
       id="linearGradient4872"
       gradientUnits="userSpaceOnUse"
       gradientTransform="translate(-70.82225,-10.58116)"
       x1="95.64624"
       y1="178.59329"
       x2="22.97994"
       y2="179.28865" /><linearGradient
       inkscape:collect="always"
       xlink:href="#linearGradient4864"
       id="linearGradient4878"
       gradientUnits="userSpaceOnUse"
       gradientTransform="translate(222.1513,63.48696)"
       x1="95.64624"
       y1="178.59329"
       x2="22.97994"
       y2="179.28865" /></defs><sodipodi:namedview
     id="namedview4"
     pagecolor="#ffffff"
     bordercolor="#666666"
     borderopacity="1.0"
     inkscape:pageshadow="2"
     inkscape:pageopacity="0.0"
     inkscape:pagecheckerboard="0"
     showgrid="false"
     inkscape:zoom="1.2808788"
     inkscape:cx="121.01067"
     inkscape:cy="41.7682"
     inkscape:window-width="1920"
     inkscape:window-height="1022"
     inkscape:window-x="1365"
     inkscape:window-y="0"
     inkscape:window-maximized="1"
     inkscape:current-layer="g9251"
     fit-margin-top="0"
     fit-margin-left="0"
     fit-margin-right="0"
     fit-margin-bottom="0" /><g
     id="g8"
     inkscape:groupmode="layer"
     inkscape:label="ink_ext_XXXXXX"
     transform="matrix(1.3333333,0,0,-1.3333333,-412.39164,967.42766)"><g
       id="g10"
       transform="scale(0.1)"><g
         id="g9251"><path
           d="m 3774.6567,6688.7903 c 0,63.41 -51.396,114.8 -114.798,114.8 -63.402,0 -114.805,-51.39 -114.805,-114.8 0,-63.4 51.403,-114.8 114.805,-114.8 63.402,0 114.798,51.4 114.798,114.8"
           style="fill:none;stroke:#000000;stroke-width:2.8346;stroke-linecap:butt;stroke-linejoin:miter;stroke-miterlimit:10;stroke-dasharray:none;stroke-opacity:1"
           id="path1476" /><path
           d="m 4225.3567,6688.7903 c 0,312.32 -253.18,565.5 -565.498,565.5 -312.317,0 -565.504,-253.18 -565.504,-565.5 0,-312.31 253.187,-565.5 565.504,-565.5 312.318,0 565.498,253.19 565.498,565.5"
           style="fill:none;stroke:#000000;stroke-width:2.8346;stroke-linecap:butt;stroke-linejoin:miter;stroke-miterlimit:10;stroke-dasharray:none;stroke-opacity:1"
           id="path1478" /><path
           d="m 4052.4467,6688.7903 c 0,216.82 -175.77,392.59 -392.588,392.59 -216.82,0 -392.594,-175.77 -392.594,-392.59 0,-216.82 175.774,-392.59 392.594,-392.59 216.818,0 392.588,175.77 392.588,392.59"
           style="fill:none;stroke:#000000;stroke-width:2.8346;stroke-linecap:butt;stroke-linejoin:miter;stroke-miterlimit:10;stroke-dasharray:none;stroke-opacity:1"
           id="path1480" /><path
           d="m 4209.7667,6688.7903 c 0,11.52 -0.36,23.04 -1.08,34.53 l -70.73,-4.45 c 0.63,-10.01 0.95,-20.05 0.95,-30.08"
           style="fill:#000000;fill-opacity:1;fill-rule:nonzero;stroke:none"
           id="path1482" /><path
           d="m 4138.8467,6696.3203 c -0.16,10.03 -0.63,20.06 -1.42,30.06 l -70.65,-5.56 c 0.67,-8.53 1.08,-17.07 1.21,-25.62"
           style="fill:#000000;fill-opacity:1;fill-rule:nonzero;stroke:none"
           id="path1484" /><path
           d="m 4205.4367,6757.7203 c -1.45,11.42 -3.25,22.8 -5.41,34.12 l -69.61,-13.28 c 1.88,-9.86 3.46,-19.77 4.71,-29.73"
           style="fill:#000000;fill-opacity:1;fill-rule:nonzero;stroke:none"
           id="path1486" /><path
           d="m 4134.1267,6756.2903 c -1.41,9.93 -3.14,19.82 -5.17,29.65 l -69.4,-14.37 c 1.73,-8.37 3.21,-16.8 4.41,-25.26"
           style="fill:#000000;fill-opacity:1;fill-rule:nonzero;stroke:none"
           id="path1488" /><path
           d="m 4192.4867,6825.5503 c -2.86,11.15 -6.07,22.22 -9.63,33.17 l -67.4,-21.9 c 3.1,-9.53 5.9,-19.17 8.4,-28.89"
           style="fill:#000000;fill-opacity:1;fill-rule:nonzero;stroke:none"
           id="path1490" /><path
           d="m 4121.9267,6815.2003 c -2.65,9.68 -5.6,19.27 -8.85,28.77 l -67.05,-22.96 c 2.77,-8.09 5.29,-16.26 7.55,-24.51"
           style="fill:#000000;fill-opacity:1;fill-rule:nonzero;stroke:none"
           id="path1492" /><path
           d="m 4171.1467,6891.2303 c -4.23,10.7 -8.81,21.28 -13.71,31.7 l -64.12,-30.17 c 4.26,-9.08 8.26,-18.29 11.95,-27.62"
           style="fill:#000000;fill-opacity:1;fill-rule:nonzero;stroke:none"
           id="path1494" /><path
           d="m 4102.4367,6872.1203 c -3.84,9.26 -7.97,18.42 -12.38,27.42 l -63.64,-31.17 c 3.76,-7.68 7.28,-15.47 10.55,-23.37"
           style="fill:#000000;fill-opacity:1;fill-rule:nonzero;stroke:none"
           id="path1496" /><path
           d="m 4141.7467,6953.7203 c -5.54,10.09 -11.41,20.01 -17.58,29.73 l -59.84,-37.97 c 5.38,-8.47 10.49,-17.12 15.32,-25.91"
           style="fill:#000000;fill-opacity:1;fill-rule:nonzero;stroke:none"
           id="path1498" /><path
           d="m 4075.9767,6926.1403 c -4.97,8.72 -10.22,17.28 -15.73,25.66 l -59.23,-38.9 c 4.69,-7.15 9.17,-14.45 13.4,-21.87"
           style="fill:#000000;fill-opacity:1;fill-rule:nonzero;stroke:none"
           id="path1500" /><path
           d="m 4104.7467,7012.0203 c -6.77,9.32 -13.83,18.43 -21.17,27.3 l -54.61,-45.17 c 6.4,-7.73 12.55,-15.66 18.45,-23.78"
           style="fill:#000000;fill-opacity:1;fill-rule:nonzero;stroke:none"
           id="path1502" /><path
           d="m 4042.9467,6976.4203 c -6.03,8.03 -12.3,15.86 -18.82,23.49 l -53.89,-46.02 c 5.56,-6.5 10.91,-13.18 16.04,-20.02"
           style="fill:#000000;fill-opacity:1;fill-rule:nonzero;stroke:none"
           id="path1504" /><path
           d="m 4060.7267,7065.2403 c -7.88,8.39 -16.04,16.54 -24.43,24.42 l -48.51,-51.66 c 7.31,-6.86 14.41,-13.96 21.28,-21.28"
           style="fill:#000000;fill-opacity:1;fill-rule:nonzero;stroke:none"
           id="path1506" /><path
           d="m 4003.8767,7022.1703 c -6.98,7.2 -14.19,14.19 -21.62,20.94 l -47.69,-52.41 c 6.32,-5.75 12.47,-11.71 18.42,-17.85"
           style="fill:#000000;fill-opacity:1;fill-rule:nonzero;stroke:none"
           id="path1508" /><path
           d="m 4010.3867,7112.5103 c -8.88,7.34 -17.98,14.4 -27.3,21.17 l -41.65,-57.33 c 8.11,-5.9 16.05,-12.05 23.78,-18.45"
           style="fill:#000000;fill-opacity:1;fill-rule:nonzero;stroke:none"
           id="path1510" /><path
           d="m 3959.3767,7062.6603 c -7.83,6.27 -15.86,12.3 -24.06,18.06 l -40.75,-57.97 c 6.99,-4.92 13.83,-10.05 20.5,-15.4"
           style="fill:#000000;fill-opacity:1;fill-rule:nonzero;stroke:none"
           id="path1512" /><path
           d="m 3954.5167,7153.1003 c -9.72,6.17 -19.64,12.04 -29.74,17.58 l -34.14,-62.09 c 8.79,-4.84 17.44,-9.95 25.91,-15.32"
           style="fill:#000000;fill-opacity:1;fill-rule:nonzero;stroke:none"
           id="path1514" /><path
           d="m 3910.1567,7097.2503 c -8.55,5.24 -17.27,10.22 -26.14,14.91 l -33.16,-62.63 c 7.56,-4 14.99,-8.24 22.28,-12.71"
           style="fill:#000000;fill-opacity:1;fill-rule:nonzero;stroke:none"
           id="path1516" /><path
           d="m 3893.9967,7186.3703 c -10.42,4.9 -21,9.48 -31.7,13.72 l -26.09,-65.89 c 9.33,-3.69 18.54,-7.68 27.62,-11.95"
           style="fill:#000000;fill-opacity:1;fill-rule:nonzero;stroke:none"
           id="path1518" /><path
           d="m 3856.9867,7125.4003 c -9.14,4.13 -18.41,7.97 -27.8,11.51 l -25.05,-66.28 c 8,-3.02 15.91,-6.3 23.69,-9.82"
           style="fill:#000000;fill-opacity:1;fill-rule:nonzero;stroke:none"
           id="path1520" /><path
           d="m 3829.7867,7211.7903 c -10.95,3.56 -22.02,6.77 -33.17,9.64 l -17.63,-68.64 c 9.72,-2.49 19.36,-5.3 28.9,-8.39"
           style="fill:#000000;fill-opacity:1;fill-rule:nonzero;stroke:none"
           id="path1522" /><path
           d="m 3800.7167,7146.6603 c -9.59,2.95 -19.27,5.6 -29.03,7.94 l -16.54,-68.9 c 8.31,-2 16.56,-4.26 24.73,-6.77"
           style="fill:#000000;fill-opacity:1;fill-rule:nonzero;stroke:none"
           id="path1524" /><path
           d="m 3762.8967,7228.9703 c -11.31,2.15 -22.69,3.96 -34.116,5.4 l -8.883,-70.31 c 9.953,-1.25 19.869,-2.82 29.719,-4.7"
           style="fill:#000000;fill-opacity:1;fill-rule:nonzero;stroke:none"
           id="path1526" /><path
           d="m 3742.2167,7160.7103 c -9.882,1.72 -19.819,3.14 -29.792,4.24 l -7.777,-70.44 c 8.496,-0.94 16.965,-2.15 25.387,-3.61"
           style="fill:#000000;fill-opacity:1;fill-rule:nonzero;stroke:none"
           id="path1528" /><path
           d="m 3694.3857,7237.6203 c -11.492,0.72 -23.011,1.08 -34.527,1.08 v -70.86 c 10.031,0 20.066,-0.32 30.078,-0.94"
           style="fill:#000000;fill-opacity:1;fill-rule:nonzero;stroke:none"
           id="path1530" /><path
           d="m 3682.4247,7167.3103 c -7.515,0.35 -15.043,0.53 -22.566,0.53 -2.508,0 -5.024,-0.02 -7.527,-0.06 l 1.113,-70.86 c 2.137,0.03 4.277,0.05 6.414,0.05 6.41,0 12.824,-0.15 19.226,-0.45"
           style="fill:#000000;fill-opacity:1;fill-rule:nonzero;stroke:none"
           id="path1532" /><path
           d="m 3625.3277,7237.6203 c -11.493,-0.72 -22.969,-1.81 -34.395,-3.25 l 8.883,-70.31 c 9.953,1.26 19.949,2.21 29.961,2.84"
           style="fill:#000000;fill-opacity:1;fill-rule:nonzero;stroke:none"
           id="path1534" /><path
           d="m 3622.2727,7166.3603 c -10,-0.78 -19.981,-1.89 -29.914,-3.3 l 9.984,-70.16 c 8.461,1.21 16.965,2.15 25.489,2.82"
           style="fill:#000000;fill-opacity:1;fill-rule:nonzero;stroke:none"
           id="path1536" /><path
           d="m 3556.8117,7228.9703 c -11.309,-2.16 -22.559,-4.68 -33.711,-7.54 l 17.621,-68.64 c 9.719,2.49 19.516,4.69 29.371,6.57"
           style="fill:#000000;fill-opacity:1;fill-rule:nonzero;stroke:none"
           id="path1538" /><path
           d="m 3562.7137,7157.8903 c -9.824,-2.04 -19.586,-4.39 -29.265,-7.03 l 18.699,-68.35 c 8.246,2.25 16.566,4.25 24.934,5.98"
           style="fill:#000000;fill-opacity:1;fill-rule:nonzero;stroke:none"
           id="path1540" /><path
           d="m 3489.9247,7211.7903 c -10.953,-3.56 -21.797,-7.47 -32.504,-11.7 l 26.086,-65.89 c 9.328,3.69 18.778,7.1 28.317,10.2"
           style="fill:#000000;fill-opacity:1;fill-rule:nonzero;stroke:none"
           id="path1542" /><path
           d="m 3504.6867,7142.0103 c -9.492,-3.24 -18.887,-6.79 -28.152,-10.63 l 27.117,-65.48 c 7.898,3.27 15.902,6.3 23.988,9.07"
           style="fill:#000000;fill-opacity:1;fill-rule:nonzero;stroke:none"
           id="path1544" /><path
           d="m 3425.7137,7186.3703 c -10.422,-4.9 -20.687,-10.14 -30.781,-15.69 l 34.141,-62.09 c 8.789,4.83 17.738,9.39 26.816,13.66"
           style="fill:#000000;fill-opacity:1;fill-rule:nonzero;stroke:none"
           id="path1546" /><path
           d="m 3449.1047,7118.9903 c -9.008,-4.41 -17.883,-9.11 -26.598,-14.08 l 35.114,-61.56 c 7.421,4.24 14.984,8.24 22.66,12"
           style="fill:#000000;fill-opacity:1;fill-rule:nonzero;stroke:none"
           id="path1548" /><path
           d="m 3365.1987,7153.1003 c -9.723,-6.17 -19.254,-12.65 -28.571,-19.42 l 41.653,-57.33 c 8.117,5.9 16.422,11.54 24.89,16.92"
           style="fill:#000000;fill-opacity:1;fill-rule:nonzero;stroke:none"
           id="path1550" /><path
           d="m 3396.8507,7089.1803 c -8.387,-5.5 -16.601,-11.28 -24.625,-17.3 l 42.551,-56.67 c 6.836,5.13 13.836,10.05 20.98,14.74"
           style="fill:#000000;fill-opacity:1;fill-rule:nonzero;stroke:none"
           id="path1552" /><path
           d="m 3309.3317,7112.5103 c -8.875,-7.34 -17.52,-14.97 -25.915,-22.85 l 48.508,-51.66 c 7.313,6.87 14.848,13.51 22.575,19.9"
           style="fill:#000000;fill-opacity:1;fill-rule:nonzero;stroke:none"
           id="path1554" /><path
           d="m 3348.7417,7053.0603 c -7.629,-6.51 -15.055,-13.27 -22.258,-20.25 l 49.312,-50.89 c 6.141,5.94 12.469,11.71 18.969,17.26"
           style="fill:#000000;fill-opacity:1;fill-rule:nonzero;stroke:none"
           id="path1556" /><path
           d="m 3258.9877,7065.2403 c -7.883,-8.4 -15.504,-17.04 -22.844,-25.92 l 54.602,-45.17 c 6.39,7.73 13.035,15.26 19.902,22.57"
           style="fill:#000000;fill-opacity:1;fill-rule:nonzero;stroke:none"
           id="path1558" /><path
           d="m 3305.5387,7011.2003 c -6.75,-7.42 -13.274,-15.06 -19.543,-22.89 l 55.304,-44.31 c 5.344,6.68 10.903,13.18 16.653,19.5"
           style="fill:#000000;fill-opacity:1;fill-rule:nonzero;stroke:none"
           id="path1560" /><path
           d="m 3214.9677,7012.0203 c -6.765,-9.31 -13.246,-18.84 -19.418,-28.57 l 59.832,-37.97 c 5.375,8.47 11.024,16.77 16.918,24.89"
           style="fill:#000000;fill-opacity:1;fill-rule:nonzero;stroke:none"
           id="path1562" /><path
           d="m 3267.9247,6964.2503 c -5.765,-8.21 -11.281,-16.6 -16.523,-25.16 l 60.422,-37.02 c 4.465,7.29 9.164,14.44 14.078,21.43"
           style="fill:#000000;fill-opacity:1;fill-rule:nonzero;stroke:none"
           id="path1564" /><path
           d="m 3177.9637,6953.7203 c -5.547,-10.1 -10.781,-20.36 -15.683,-30.79 l 64.121,-30.17 c 4.269,9.08 8.832,18.03 13.664,26.81"
           style="fill:#000000;fill-opacity:1;fill-rule:nonzero;stroke:none"
           id="path1566" /><path
           d="m 3236.4917,6912.9503 c -4.692,-8.86 -9.11,-17.88 -13.239,-27.02 l 64.586,-29.16 c 3.516,7.79 7.282,15.47 11.282,23.02"
           style="fill:#000000;fill-opacity:1;fill-rule:nonzero;stroke:none"
           id="path1568" /><path
           d="m 3148.5617,6891.2303 c -4.238,-10.71 -8.145,-21.55 -11.703,-32.51 l 67.398,-21.9 c 3.098,9.55 6.5,18.99 10.192,28.32"
           style="fill:#000000;fill-opacity:1;fill-rule:nonzero;stroke:none"
           id="path1570" /><path
           d="m 3211.7337,6858.1303 c -3.543,-9.39 -6.797,-18.89 -9.746,-28.48 l 67.73,-20.84 c 2.512,8.18 5.289,16.27 8.309,24.26"
           style="fill:#000000;fill-opacity:1;fill-rule:nonzero;stroke:none"
           id="path1572" /><path
           d="m 3127.2217,6825.5503 c -2.863,-11.15 -5.379,-22.4 -7.535,-33.71 l 69.609,-13.28 c 1.879,9.85 4.071,19.65 6.563,29.37"
           style="fill:#000000;fill-opacity:1;fill-rule:nonzero;stroke:none"
           id="path1574" /><path
           d="m 3194.0457,6800.6303 c -2.339,-9.76 -4.379,-19.59 -6.101,-29.48 l 69.808,-12.18 c 1.465,8.42 3.204,16.8 5.2,25.11"
           style="fill:#000000;fill-opacity:1;fill-rule:nonzero;stroke:none"
           id="path1576" /><path
           d="m 3114.2807,6757.7203 c -1.442,-11.43 -2.528,-22.9 -3.25,-34.4 l 70.722,-4.45 c 0.629,10.02 1.579,20.01 2.832,29.96"
           style="fill:#000000;fill-opacity:1;fill-rule:nonzero;stroke:none"
           id="path1578" /><path
           d="m 3183.7027,6741.3603 c -1.098,-9.97 -1.891,-19.98 -2.36,-30 l 70.785,-3.34 c 0.403,8.54 1.079,17.07 2.012,25.56"
           style="fill:#000000;fill-opacity:1;fill-rule:nonzero;stroke:none"
           id="path1580" /><path
           d="m 3109.9447,6688.7903 v 0 c 0,-11.51 0.363,-23.03 1.086,-34.53 l 70.722,4.45 c -0.628,10.02 -0.945,20.05 -0.945,30.08 v 0"
           style="fill:#000000;fill-opacity:1;fill-rule:nonzero;stroke:none"
           id="path1582" /><path
           d="m 3180.8707,6681.2703 c 0.152,-10.03 0.629,-20.06 1.414,-30.06 l 70.648,5.56 c -0.668,8.52 -1.078,17.06 -1.207,25.61"
           style="fill:#000000;fill-opacity:1;fill-rule:nonzero;stroke:none"
           id="path1584" /><path
           d="m 3114.2807,6619.8703 c 1.441,-11.42 3.25,-22.81 5.402,-34.12 l 69.613,13.28 c -1.879,9.85 -3.457,19.77 -4.711,29.72"
           style="fill:#000000;fill-opacity:1;fill-rule:nonzero;stroke:none"
           id="path1586" /><path
           d="m 3185.5887,6621.2903 c 1.411,-9.93 3.141,-19.82 5.172,-29.64 l 69.395,14.37 c -1.731,8.37 -3.207,16.8 -4.41,25.26"
           style="fill:#000000;fill-opacity:1;fill-rule:nonzero;stroke:none"
           id="path1588" /><path
           d="m 3127.2217,6552.0403 c 2.863,-11.16 6.078,-22.23 9.637,-33.18 l 67.398,21.9 c -3.097,9.54 -5.902,19.18 -8.398,28.9"
           style="fill:#000000;fill-opacity:1;fill-rule:nonzero;stroke:none"
           id="path1590" /><path
           d="m 3197.7887,6562.3803 c 2.644,-9.67 5.601,-19.27 8.847,-28.76 l 67.047,22.95 c -2.769,8.09 -5.289,16.27 -7.543,24.51"
           style="fill:#000000;fill-opacity:1;fill-rule:nonzero;stroke:none"
           id="path1592" /><path
           d="m 3148.5617,6486.3603 c 4.238,-10.71 8.816,-21.29 13.719,-31.71 l 64.121,30.17 c -4.27,9.08 -8.262,18.29 -11.953,27.62"
           style="fill:#000000;fill-opacity:1;fill-rule:nonzero;stroke:none"
           id="path1594" /><path
           d="m 3217.2727,6505.4703 c 3.84,-9.27 7.973,-18.42 12.387,-27.43 l 63.636,31.18 c -3.757,7.67 -7.281,15.47 -10.55,23.37"
           style="fill:#000000;fill-opacity:1;fill-rule:nonzero;stroke:none"
           id="path1596" /><path
           d="m 3177.9637,6423.8703 c 5.547,-10.09 11.414,-20.01 17.586,-29.74 l 59.832,37.98 c -5.375,8.46 -10.484,17.11 -15.316,25.9"
           style="fill:#000000;fill-opacity:1;fill-rule:nonzero;stroke:none"
           id="path1598" /><path
           d="m 3243.7417,6451.4503 c 4.968,-8.72 10.215,-17.28 15.722,-25.66 l 59.231,38.9 c -4.692,7.15 -9.164,14.44 -13.399,21.87"
           style="fill:#000000;fill-opacity:1;fill-rule:nonzero;stroke:none"
           id="path1600" /><path
           d="m 3214.9677,6365.5603 c 6.766,-9.31 13.832,-18.42 21.172,-27.29 l 54.606,45.17 c -6.395,7.72 -12.551,15.66 -18.446,23.78"
           style="fill:#000000;fill-opacity:1;fill-rule:nonzero;stroke:none"
           id="path1602" /><path
           d="m 3276.7687,6401.1603 c 6.023,-8.02 12.301,-15.85 18.816,-23.48 l 53.887,46.02 c -5.551,6.5 -10.902,13.18 -16.031,20.01"
           style="fill:#000000;fill-opacity:1;fill-rule:nonzero;stroke:none"
           id="path1604" /><path
           d="m 3258.9877,6312.3503 c 7.883,-8.39 16.035,-16.54 24.429,-24.43 l 48.508,51.66 c -7.312,6.87 -14.41,13.97 -21.277,21.28"
           style="fill:#000000;fill-opacity:1;fill-rule:nonzero;stroke:none"
           id="path1606" /><path
           d="m 3315.8387,6355.4203 c 6.981,-7.2 14.192,-14.2 21.614,-20.95 l 47.691,52.42 c -6.32,5.75 -12.469,11.7 -18.414,17.85"
           style="fill:#000000;fill-opacity:1;fill-rule:nonzero;stroke:none"
           id="path1608" /><path
           d="m 3309.3277,6265.0803 c 8.875,-7.34 17.98,-14.41 27.297,-21.18 l 41.656,57.34 c -8.117,5.89 -16.051,12.05 -23.781,18.44"
           style="fill:#000000;fill-opacity:1;fill-rule:nonzero;stroke:none"
           id="path1610" /><path
           d="m 3360.3347,6314.9303 c 7.829,-6.27 15.86,-12.3 24.067,-18.07 l 40.746,57.98 c -6.992,4.91 -13.832,10.05 -20.504,15.4"
           style="fill:#000000;fill-opacity:1;fill-rule:nonzero;stroke:none"
           id="path1612" /><path
           d="m 3365.1987,6224.4903 c 9.722,-6.17 19.64,-12.04 29.734,-17.59 l 34.141,62.1 c -8.789,4.83 -17.434,9.95 -25.903,15.32"
           style="fill:#000000;fill-opacity:1;fill-rule:nonzero;stroke:none"
           id="path1614" /><path
           d="m 3409.5537,6280.3403 c 8.555,-5.24 17.274,-10.22 26.141,-14.91 l 33.16,62.63 c -7.555,4 -14.984,8.23 -22.273,12.7"
           style="fill:#000000;fill-opacity:1;fill-rule:nonzero;stroke:none"
           id="path1616" /><path
           d="m 3425.7137,6191.2203 c 10.422,-4.91 21,-9.48 31.707,-13.72 l 26.086,65.89 c -9.328,3.69 -18.543,7.68 -27.621,11.95"
           style="fill:#000000;fill-opacity:1;fill-rule:nonzero;stroke:none"
           id="path1618" /><path
           d="m 3462.7217,6252.1903 c 9.141,-4.13 18.418,-7.97 27.805,-11.52 l 25.047,66.29 c -7.996,3.02 -15.903,6.3 -23.692,9.81"
           style="fill:#000000;fill-opacity:1;fill-rule:nonzero;stroke:none"
           id="path1620" /><path
           d="m 3489.9247,6165.7903 c 10.95,-3.55 22.02,-6.77 33.172,-9.63 l 17.625,68.63 c -9.719,2.5 -19.359,5.3 -28.898,8.4"
           style="fill:#000000;fill-opacity:1;fill-rule:nonzero;stroke:none"
           id="path1622" /><path
           d="m 3518.9957,6230.9203 c 9.589,-2.95 19.273,-5.6 29.031,-7.94 l 16.543,68.91 c -8.313,1.99 -16.567,4.25 -24.735,6.76"
           style="fill:#000000;fill-opacity:1;fill-rule:nonzero;stroke:none"
           id="path1624" /><path
           d="m 3556.8117,6148.6203 c 11.313,-2.15 22.695,-3.96 34.121,-5.4 l 8.883,70.3 c -9.953,1.26 -19.871,2.83 -29.723,4.71"
           style="fill:#000000;fill-opacity:1;fill-rule:nonzero;stroke:none"
           id="path1626" /><path
           d="m 3577.4957,6216.8803 c 9.882,-1.72 19.82,-3.14 29.793,-4.24 l 7.777,70.43 c -8.496,0.94 -16.965,2.15 -25.387,3.62"
           style="fill:#000000;fill-opacity:1;fill-rule:nonzero;stroke:none"
           id="path1628" /><path
           d="m 3625.3277,6139.9703 c 11.492,-0.73 23.011,-1.09 34.527,-1.09 v 70.87 c -10.031,0 -20.066,0.31 -30.078,0.94"
           style="fill:#000000;fill-opacity:1;fill-rule:nonzero;stroke:none"
           id="path1630" /><path
           d="m 3637.2887,6210.2803 c 7.515,-0.35 15.043,-0.53 22.57,-0.53 2.504,0 5.019,0.02 7.523,0.06 l -1.113,70.85 c -2.137,-0.03 -4.277,-0.05 -6.41,-0.05 -6.41,0 -12.828,0.15 -19.231,0.45"
           style="fill:#000000;fill-opacity:1;fill-rule:nonzero;stroke:none"
           id="path1632" /><path
           d="m 3694.3857,6139.9703 c 11.492,0.72 22.969,1.8 34.395,3.25 l -8.883,70.3 c -9.953,-1.25 -19.949,-2.2 -29.961,-2.83"
           style="fill:#000000;fill-opacity:1;fill-rule:nonzero;stroke:none"
           id="path1634" /><path
           d="m 3697.4407,6211.2203 c 10,0.79 19.98,1.89 29.914,3.3 l -9.984,70.16 c -8.461,-1.2 -16.965,-2.14 -25.489,-2.81"
           style="fill:#000000;fill-opacity:1;fill-rule:nonzero;stroke:none"
           id="path1636" /><path
           d="m 3762.8967,6148.6203 c 11.31,2.16 22.56,4.67 33.72,7.54 l -17.63,68.63 c -9.71,-2.49 -19.51,-4.68 -29.37,-6.56"
           style="fill:#000000;fill-opacity:1;fill-rule:nonzero;stroke:none"
           id="path1638" /><path
           d="m 3756.9967,6219.7003 c 9.83,2.03 19.59,4.38 29.27,7.02 l -18.7,68.36 c -8.25,-2.26 -16.57,-4.26 -24.93,-5.99"
           style="fill:#000000;fill-opacity:1;fill-rule:nonzero;stroke:none"
           id="path1640" /><path
           d="m 3829.7867,6165.7903 c 10.95,3.56 21.8,7.47 32.51,11.71 l -26.09,65.88 c -9.33,-3.69 -18.77,-7.09 -28.32,-10.19"
           style="fill:#000000;fill-opacity:1;fill-rule:nonzero;stroke:none"
           id="path1642" /><path
           d="m 3815.0267,6235.5703 c 9.49,3.25 18.89,6.8 28.15,10.64 l -27.11,65.47 c -7.9,-3.27 -15.91,-6.3 -23.99,-9.06"
           style="fill:#000000;fill-opacity:1;fill-rule:nonzero;stroke:none"
           id="path1644" /><path
           d="m 3893.9967,6191.2203 c 10.42,4.9 20.69,10.13 30.78,15.68 l -34.14,62.1 c -8.79,-4.83 -17.74,-9.39 -26.81,-13.66"
           style="fill:#000000;fill-opacity:1;fill-rule:nonzero;stroke:none"
           id="path1646" /><path
           d="m 3870.6067,6258.5903 c 9.01,4.42 17.88,9.12 26.6,14.09 l -35.11,61.55 c -7.43,-4.23 -14.99,-8.24 -22.66,-11.99"
           style="fill:#000000;fill-opacity:1;fill-rule:nonzero;stroke:none"
           id="path1648" /><path
           d="m 3954.5167,6224.4903 c 9.72,6.17 19.25,12.65 28.57,19.41 l -41.65,57.34 c -8.12,-5.9 -16.43,-11.54 -24.89,-16.92"
           style="fill:#000000;fill-opacity:1;fill-rule:nonzero;stroke:none"
           id="path1650" /><path
           d="m 3922.8667,6288.4003 c 8.38,5.51 16.6,11.28 24.62,17.3 l -42.55,56.68 c -6.84,-5.14 -13.84,-10.06 -20.98,-14.75"
           style="fill:#000000;fill-opacity:1;fill-rule:nonzero;stroke:none"
           id="path1652" /><path
           d="m 4010.3867,6265.0803 c 8.87,7.34 17.51,14.96 25.91,22.84 l -48.51,51.66 c -7.31,-6.86 -14.85,-13.51 -22.57,-19.9"
           style="fill:#000000;fill-opacity:1;fill-rule:nonzero;stroke:none"
           id="path1654" /><path
           d="m 3970.9767,6324.5203 c 7.62,6.52 15.05,13.27 22.26,20.25 l -49.32,50.89 c -6.14,-5.94 -12.47,-11.7 -18.97,-17.25"
           style="fill:#000000;fill-opacity:1;fill-rule:nonzero;stroke:none"
           id="path1656" /><path
           d="m 4060.7267,6312.3503 c 7.88,8.4 15.51,17.04 22.85,25.92 l -54.61,45.17 c -6.39,-7.73 -13.03,-15.26 -19.9,-22.58"
           style="fill:#000000;fill-opacity:1;fill-rule:nonzero;stroke:none"
           id="path1658" /><path
           d="m 4014.1767,6366.3903 c 6.75,7.42 13.27,15.05 19.55,22.88 l -55.31,44.31 c -5.35,-6.67 -10.91,-13.18 -16.66,-19.5"
           style="fill:#000000;fill-opacity:1;fill-rule:nonzero;stroke:none"
           id="path1660" /><path
           d="m 4104.7467,6365.5603 c 6.76,9.32 13.24,18.85 19.42,28.57 l -59.84,37.98 c -5.37,-8.47 -11.01,-16.78 -16.91,-24.89"
           style="fill:#000000;fill-opacity:1;fill-rule:nonzero;stroke:none"
           id="path1662" /><path
           d="m 4051.7867,6413.3403 c 5.77,8.2 11.28,16.6 16.53,25.15 l -60.43,37.03 c -4.46,-7.29 -9.16,-14.44 -14.07,-21.43"
           style="fill:#000000;fill-opacity:1;fill-rule:nonzero;stroke:none"
           id="path1664" /><path
           d="m 4141.7467,6423.8703 c 5.55,10.1 10.78,20.36 15.69,30.78 l -64.12,30.17 c -4.27,-9.07 -8.84,-18.02 -13.67,-26.81"
           style="fill:#000000;fill-opacity:1;fill-rule:nonzero;stroke:none"
           id="path1666" /><path
           d="m 4083.2267,6464.6303 c 4.69,8.87 9.11,17.89 13.24,27.03 l -64.59,29.16 c -3.52,-7.79 -7.28,-15.47 -11.28,-23.03"
           style="fill:#000000;fill-opacity:1;fill-rule:nonzero;stroke:none"
           id="path1668" /><path
           d="m 4171.1467,6486.3603 c 4.24,10.7 8.15,21.55 11.71,32.5 l -67.4,21.9 c -3.1,-9.54 -6.5,-18.99 -10.19,-28.32"
           style="fill:#000000;fill-opacity:1;fill-rule:nonzero;stroke:none"
           id="path1670" /><path
           d="m 4107.9767,6519.4603 c 3.55,9.38 6.8,18.88 9.75,28.47 l -67.73,20.84 c -2.51,-8.17 -5.29,-16.27 -8.31,-24.26"
           style="fill:#000000;fill-opacity:1;fill-rule:nonzero;stroke:none"
           id="path1672" /><path
           d="m 4192.4867,6552.0403 c 2.87,11.15 5.39,22.4 7.54,33.71 l -69.61,13.28 c -1.88,-9.86 -4.07,-19.65 -6.56,-29.37"
           style="fill:#000000;fill-opacity:1;fill-rule:nonzero;stroke:none"
           id="path1674" /><path
           d="m 4125.6667,6576.9603 c 2.34,9.76 4.38,19.59 6.11,29.47 l -69.82,12.18 c -1.46,-8.42 -3.2,-16.79 -5.2,-25.11"
           style="fill:#000000;fill-opacity:1;fill-rule:nonzero;stroke:none"
           id="path1676" /><path
           d="m 4205.4367,6619.8703 c 1.44,11.43 2.53,22.9 3.25,34.39 l -70.73,4.45 c -0.63,-10.01 -1.57,-20.01 -2.83,-29.96"
           style="fill:#000000;fill-opacity:1;fill-rule:nonzero;stroke:none"
           id="path1678" /><path
           d="m 4136.0067,6636.2203 c 1.1,9.98 1.89,19.98 2.37,30.01 l -70.79,3.33 c -0.4,-8.54 -1.08,-17.06 -2.01,-25.56"
           style="fill:#000000;fill-opacity:1;fill-rule:nonzero;stroke:none"
           id="path1680" /><path
           d="m 3701.6911,7078.3119 c -8.1993,0.9125 -16.4375,1.5678 -24.6744,1.9613 l -6.7346,-140.1451 c 5.3039,-0.2583 10.6001,-0.6767 15.8876,-1.2648"
           style="fill:#000000;fill-opacity:1;fill-rule:nonzero;stroke:none"
           id="path1682" /><path
           d="m 3913.5567,6688.7903 c 0,140.11 -113.59,253.7 -253.698,253.7 -140.109,0 -253.699,-113.59 -253.699,-253.7 0,-140.11 113.59,-253.7 253.699,-253.7 140.108,0 253.698,113.59 253.698,253.7"
           style="fill:none;stroke:#000000;stroke-width:5.6692;stroke-linecap:butt;stroke-linejoin:miter;stroke-miterlimit:10;stroke-dasharray:none;stroke-opacity:1"
           id="path1684" /><path
           d="m 3868.6267,6688.7903 c 0,115.3 -93.47,208.77 -208.768,208.77 -115.297,0 -208.77,-93.47 -208.77,-208.77 0,-115.29 93.473,-208.77 208.77,-208.77 115.298,0 208.768,93.48 208.768,208.77"
           style="fill:none;stroke:#000000;stroke-width:2.8346;stroke-linecap:butt;stroke-linejoin:miter;stroke-miterlimit:10;stroke-dasharray:none;stroke-opacity:1"
           id="path1836" /><path
           d="m 3451.0887,6688.7903 h 417.538"
           style="fill:none;stroke:#000000;stroke-width:2.8346;stroke-linecap:butt;stroke-linejoin:miter;stroke-miterlimit:10;stroke-dasharray:none;stroke-opacity:1"
           id="path1838" /><path
           d="m 3659.8587,6897.5603 v -417.54"
           style="fill:none;stroke:#000000;stroke-width:2.8346;stroke-linecap:butt;stroke-linejoin:miter;stroke-miterlimit:10;stroke-dasharray:none;stroke-opacity:1"
           id="path1840" /></g><g
         id="g9393"
         transform="matrix(3.2449285,0,0,-3.2449285,4592.432,7028.8299)"><g
           inkscape:label="Layer 1"
           id="layer1" /><g
           id="g9595"
           transform="translate(-85.985715,19.347705)"><path
             style="fill:none;fill-rule:evenodd;stroke:#ff0000;stroke-width:2.5;stroke-linecap:butt;stroke-linejoin:miter;stroke-miterlimit:4;stroke-dasharray:10, 10;stroke-dashoffset:0;stroke-opacity:0.627451"
             d="M 560,0 V 200"
             id="path3717" /><path
             id="path3715"
             d="M 520,0 V 200"
             style="fill:none;fill-rule:evenodd;stroke:#ff0000;stroke-width:2.5;stroke-linecap:butt;stroke-linejoin:miter;stroke-miterlimit:4;stroke-dasharray:10, 10;stroke-dashoffset:0;stroke-opacity:0.627451" /><path
             style="fill:none;fill-rule:evenodd;stroke:#ff0000;stroke-width:2.5;stroke-linecap:butt;stroke-linejoin:miter;stroke-miterlimit:4;stroke-dasharray:10, 10;stroke-dashoffset:0;stroke-opacity:0.627451"
             d="M 480,0 V 200"
             id="path3711" /><path
             id="path3713"
             d="M 440,0 V 200"
             style="fill:none;fill-rule:evenodd;stroke:#ff0000;stroke-width:2.5;stroke-linecap:butt;stroke-linejoin:miter;stroke-miterlimit:4;stroke-dasharray:10, 10;stroke-dashoffset:0;stroke-opacity:0.627451" /><path
             id="path3709"
             d="M 400,0 V 200"
             style="fill:none;fill-rule:evenodd;stroke:#ff0000;stroke-width:2.5;stroke-linecap:butt;stroke-linejoin:miter;stroke-miterlimit:4;stroke-dasharray:10, 10;stroke-dashoffset:0;stroke-opacity:0.627451" /><path
             style="fill:none;fill-rule:evenodd;stroke:#ff0000;stroke-width:2.5;stroke-linecap:butt;stroke-linejoin:miter;stroke-miterlimit:4;stroke-dasharray:10, 10;stroke-dashoffset:0;stroke-opacity:0.627451"
             d="M 360,0 V 200"
             id="path3707" /><path
             id="path3705"
             d="M 320,0 V 200"
             style="fill:none;fill-rule:evenodd;stroke:#ff0000;stroke-width:2.5;stroke-linecap:butt;stroke-linejoin:miter;stroke-miterlimit:4;stroke-dasharray:10, 10;stroke-dashoffset:0;stroke-opacity:0.627451" /><path
             style="fill:none;fill-rule:evenodd;stroke:#ff0000;stroke-width:2.5;stroke-linecap:butt;stroke-linejoin:miter;stroke-miterlimit:4;stroke-dasharray:10, 10;stroke-dashoffset:0;stroke-opacity:0.627451"
             d="M 280,0 V 200"
             id="path3703" /><path
             id="path3701"
             d="M 240,0 V 200"
             style="fill:none;fill-rule:evenodd;stroke:#ff0000;stroke-width:2.5;stroke-linecap:butt;stroke-linejoin:miter;stroke-miterlimit:4;stroke-dasharray:10, 10;stroke-dashoffset:0;stroke-opacity:0.627451" /><path
             style="fill:none;fill-rule:evenodd;stroke:#ff0000;stroke-width:2.5;stroke-linecap:butt;stroke-linejoin:miter;stroke-miterlimit:4;stroke-dasharray:10, 10;stroke-dashoffset:0;stroke-opacity:0.627451"
             d="M 200,0 V 200"
             id="path3699" /><path
             style="fill:none;fill-rule:evenodd;stroke:#ff0000;stroke-width:2.5;stroke-linecap:butt;stroke-linejoin:miter;stroke-miterlimit:4;stroke-dasharray:10, 10;stroke-dashoffset:0;stroke-opacity:0.627451"
             d="M 120,0 V 200"
             id="path2810" /><path
             id="path3697"
             d="M 160,0 V 200"
             style="fill:none;fill-rule:evenodd;stroke:#ff0000;stroke-width:2.5;stroke-linecap:butt;stroke-linejoin:miter;stroke-miterlimit:4;stroke-dasharray:10, 10;stroke-dashoffset:0;stroke-opacity:0.627451" /><path
             style="fill:none;fill-rule:evenodd;stroke:#000000;stroke-width:3;stroke-linecap:butt;stroke-linejoin:miter;stroke-miterlimit:4;stroke-dasharray:none;stroke-opacity:1"
             d="m 80,120 h 40 V 80 h 80 v 40 h 80 V 80 h 80 v 40 h 80 V 80 h 80 v 40 h 80"
             id="path2804" /><path
             style="fill:none;fill-rule:evenodd;stroke:#000000;stroke-width:3;stroke-linecap:butt;stroke-linejoin:miter;stroke-miterlimit:4;stroke-dasharray:none;stroke-opacity:1"
             d="m 80,60 h 80 V 20 h 80 v 40 h 80 V 20 h 80 v 40 h 80 V 20 h 80 v 40 h 40"
             id="path2808" /><path
             style="fill:none;fill-rule:evenodd;stroke:#000000;stroke-width:3;stroke-linecap:butt;stroke-linejoin:miter;stroke-miterlimit:4;stroke-dasharray:none;stroke-opacity:1"
             d="M 85.361318,0 H 200 v -40 h 80 V 0 h 80 238.81702"
             id="path2808-9"
             sodipodi:nodetypes="ccccccc" /><text
             xml:space="preserve"
             style="font-style:normal;font-variant:normal;font-weight:normal;font-stretch:normal;line-height:0%;font-family:'Bitstream Vera Sans';text-align:start;writing-mode:lr-tb;text-anchor:start"
             x="88.036499"
             y="179.68268"
             id="text3857"
             transform="scale(1.058116,0.945076)"><tspan
               sodipodi:role="line"
               id="tspan3859"
               x="88.036499"
               y="179.68268"
               style="font-size:20px;line-height:1.25"><tspan
                 x="88.036499"
                 y="179.68268"
                 style="font-style:normal;font-variant:normal;font-weight:normal;font-stretch:normal;font-size:20px;line-height:125%;font-family:'Bitstream Vera Sans';text-align:start;writing-mode:lr-tb;text-anchor:start"
                 id="tspan3861">1</tspan></tspan></text><text
             xml:space="preserve"
             style="font-style:normal;font-variant:normal;font-weight:normal;font-stretch:normal;line-height:0%;font-family:'Bitstream Vera Sans';text-align:start;writing-mode:lr-tb;text-anchor:start"
             x="125.83955"
             y="179.68268"
             id="text3863"
             transform="scale(1.058116,0.945076)"><tspan
               sodipodi:role="line"
               id="tspan3865"
               x="125.83955"
               y="179.68268"
               style="font-size:20px;line-height:1.25"><tspan
                 x="125.83955"
                 y="179.68268"
                 style="font-style:normal;font-variant:normal;font-weight:normal;font-stretch:normal;font-size:20px;line-height:125%;font-family:'Bitstream Vera Sans';text-align:start;writing-mode:lr-tb;text-anchor:start"
                 id="tspan3867">2</tspan></tspan></text><text
             xml:space="preserve"
             style="font-style:normal;font-variant:normal;font-weight:normal;font-stretch:normal;line-height:0%;font-family:'Bitstream Vera Sans';text-align:start;writing-mode:lr-tb;text-anchor:start"
             x="163.64258"
             y="179.68268"
             id="text3869"
             transform="scale(1.058116,0.945076)"><tspan
               sodipodi:role="line"
               id="tspan3871"
               x="163.64258"
               y="179.68268"
               style="font-size:20px;line-height:1.25"><tspan
                 x="163.64258"
                 y="179.68268"
                 style="font-style:normal;font-variant:normal;font-weight:normal;font-stretch:normal;font-size:20px;line-height:125%;font-family:'Bitstream Vera Sans';text-align:start;writing-mode:lr-tb;text-anchor:start"
                 id="tspan3873">3</tspan></tspan></text><text
             xml:space="preserve"
             style="font-style:normal;font-variant:normal;font-weight:normal;font-stretch:normal;line-height:0%;font-family:'Bitstream Vera Sans';text-align:start;writing-mode:lr-tb;text-anchor:start"
             x="201.44563"
             y="179.68268"
             id="text3875"
             transform="scale(1.058116,0.945076)"><tspan
               sodipodi:role="line"
               id="tspan3877"
               x="201.44563"
               y="179.68268"
               style="font-size:20px;line-height:1.25"><tspan
                 x="201.44563"
                 y="179.68268"
                 style="font-style:normal;font-variant:normal;font-weight:normal;font-stretch:normal;font-size:20px;line-height:125%;font-family:'Bitstream Vera Sans';text-align:start;writing-mode:lr-tb;text-anchor:start"
                 id="tspan3879">4</tspan></tspan></text><text
             xml:space="preserve"
             style="font-style:normal;font-variant:normal;font-weight:normal;font-stretch:normal;line-height:0%;font-family:'Bitstream Vera Sans';text-align:start;writing-mode:lr-tb;text-anchor:start"
             x="239.24869"
             y="179.68268"
             id="text3881"
             transform="scale(1.058116,0.945076)"><tspan
               sodipodi:role="line"
               id="tspan3883"
               x="239.24869"
               y="179.68268"
               style="font-size:20px;line-height:1.25"><tspan
                 x="239.24869"
                 y="179.68268"
                 style="font-style:normal;font-variant:normal;font-weight:normal;font-stretch:normal;font-size:20px;line-height:125%;font-family:'Bitstream Vera Sans';text-align:start;writing-mode:lr-tb;text-anchor:start"
                 id="tspan3885">1</tspan></tspan></text><text
             xml:space="preserve"
             style="font-style:normal;font-variant:normal;font-weight:normal;font-stretch:normal;line-height:0%;font-family:'Bitstream Vera Sans';text-align:start;writing-mode:lr-tb;text-anchor:start"
             x="277.05176"
             y="179.68268"
             id="text3887"
             transform="scale(1.058116,0.945076)"><tspan
               sodipodi:role="line"
               id="tspan3889"
               x="277.05176"
               y="179.68268"
               style="font-size:20px;line-height:1.25"><tspan
                 x="277.05176"
                 y="179.68268"
                 style="font-style:normal;font-variant:normal;font-weight:normal;font-stretch:normal;font-size:20px;line-height:125%;font-family:'Bitstream Vera Sans';text-align:start;writing-mode:lr-tb;text-anchor:start"
                 id="tspan3891">2</tspan></tspan></text><text
             xml:space="preserve"
             style="font-style:normal;font-variant:normal;font-weight:normal;font-stretch:normal;line-height:0%;font-family:'Bitstream Vera Sans';text-align:start;writing-mode:lr-tb;text-anchor:start"
             x="314.8548"
             y="179.68268"
             id="text3893"
             transform="scale(1.058116,0.945076)"><tspan
               sodipodi:role="line"
               id="tspan3895"
               x="314.8548"
               y="179.68268"
               style="font-size:20px;line-height:1.25"><tspan
                 x="314.8548"
                 y="179.68268"
                 style="font-style:normal;font-variant:normal;font-weight:normal;font-stretch:normal;font-size:20px;line-height:125%;font-family:'Bitstream Vera Sans';text-align:start;writing-mode:lr-tb;text-anchor:start"
                 id="tspan3897">3</tspan></tspan></text><text
             xml:space="preserve"
             style="font-style:normal;font-variant:normal;font-weight:normal;font-stretch:normal;line-height:0%;font-family:'Bitstream Vera Sans';text-align:start;writing-mode:lr-tb;text-anchor:start"
             x="352.65784"
             y="179.68268"
             id="text3899"
             transform="scale(1.058116,0.945076)"><tspan
               sodipodi:role="line"
               id="tspan3901"
               x="352.65784"
               y="179.68268"
               style="font-size:20px;line-height:1.25"><tspan
                 x="352.65784"
                 y="179.68268"
                 style="font-style:normal;font-variant:normal;font-weight:normal;font-stretch:normal;font-size:20px;line-height:125%;font-family:'Bitstream Vera Sans';text-align:start;writing-mode:lr-tb;text-anchor:start"
                 id="tspan3903">4</tspan></tspan></text><text
             xml:space="preserve"
             style="font-style:normal;font-variant:normal;font-weight:normal;font-stretch:normal;line-height:0%;font-family:'Bitstream Vera Sans';text-align:start;writing-mode:lr-tb;text-anchor:start"
             x="390.46088"
             y="179.68268"
             id="text3905"
             transform="scale(1.058116,0.945076)"><tspan
               sodipodi:role="line"
               id="tspan3907"
               x="390.46088"
               y="179.68268"
               style="font-size:20px;line-height:1.25"><tspan
                 x="390.46088"
                 y="179.68268"
                 style="font-style:normal;font-variant:normal;font-weight:normal;font-stretch:normal;font-size:20px;line-height:125%;font-family:'Bitstream Vera Sans';text-align:start;writing-mode:lr-tb;text-anchor:start"
                 id="tspan3909">1</tspan></tspan></text><text
             xml:space="preserve"
             style="font-style:normal;font-variant:normal;font-weight:normal;font-stretch:normal;line-height:0%;font-family:'Bitstream Vera Sans';text-align:start;writing-mode:lr-tb;text-anchor:start"
             x="428.26392"
             y="179.68268"
             id="text3911"
             transform="scale(1.058116,0.945076)"><tspan
               sodipodi:role="line"
               id="tspan3913"
               x="428.26392"
               y="179.68268"
               style="font-size:20px;line-height:1.25"><tspan
                 x="428.26392"
                 y="179.68268"
                 style="font-style:normal;font-variant:normal;font-weight:normal;font-stretch:normal;font-size:20px;line-height:125%;font-family:'Bitstream Vera Sans';text-align:start;writing-mode:lr-tb;text-anchor:start"
                 id="tspan3915">2</tspan></tspan></text><text
             xml:space="preserve"
             style="font-style:normal;font-variant:normal;font-weight:normal;font-stretch:normal;line-height:0%;font-family:'Bitstream Vera Sans';text-align:start;writing-mode:lr-tb;text-anchor:start"
             x="466.06699"
             y="179.68268"
             id="text3917"
             transform="scale(1.058116,0.945076)"><tspan
               sodipodi:role="line"
               id="tspan3919"
               x="466.06699"
               y="179.68268"
               style="font-size:20px;line-height:1.25"><tspan
                 x="466.06699"
                 y="179.68268"
                 style="font-style:normal;font-variant:normal;font-weight:normal;font-stretch:normal;font-size:20px;line-height:125%;font-family:'Bitstream Vera Sans';text-align:start;writing-mode:lr-tb;text-anchor:start"
                 id="tspan3921">3</tspan></tspan></text><text
             xml:space="preserve"
             style="font-style:normal;font-variant:normal;font-weight:normal;font-stretch:normal;line-height:0%;font-family:'Bitstream Vera Sans';text-align:start;writing-mode:lr-tb;text-anchor:start"
             x="503.87003"
             y="179.68268"
             id="text3923"
             transform="scale(1.058116,0.945076)"><tspan
               sodipodi:role="line"
               id="tspan3925"
               x="503.87003"
               y="179.68268"
               style="font-size:20px;line-height:1.25"><tspan
                 x="503.87003"
                 y="179.68268"
                 style="font-style:normal;font-variant:normal;font-weight:normal;font-stretch:normal;font-size:20px;line-height:125%;font-family:'Bitstream Vera Sans';text-align:start;writing-mode:lr-tb;text-anchor:start"
                 id="tspan3927">4</tspan></tspan></text><text
             xml:space="preserve"
             style="font-style:normal;font-variant:normal;font-weight:normal;font-stretch:normal;line-height:0%;font-family:'Bitstream Vera Sans';text-align:start;writing-mode:lr-tb;text-anchor:start"
             x="541.67303"
             y="179.68268"
             id="text3929"
             transform="scale(1.058116,0.945076)"><tspan
               sodipodi:role="line"
               id="tspan3931"
               x="541.67303"
               y="179.68268"
               style="font-size:20px;line-height:1.25"><tspan
                 x="541.67303"
                 y="179.68268"
                 style="font-style:normal;font-variant:normal;font-weight:normal;font-stretch:normal;font-size:20px;line-height:125%;font-family:'Bitstream Vera Sans';text-align:start;writing-mode:lr-tb;text-anchor:start"
                 id="tspan3933">1</tspan></tspan></text><text
             xml:space="preserve"
             style="line-height:0%"
             x="18.368202"
             y="63.749554"
             id="text3935"
             transform="scale(1.062493,0.941183)"><tspan
               sodipodi:role="line"
               id="tspan3937"
               x="18.368202"
               y="63.749554"
               style="font-size:58.2983px;line-height:1.25"><tspan
                 x="18.368202"
                 y="63.749554"
                 id="tspan3939">A</tspan></tspan></text><text
             xml:space="preserve"
             style="line-height:0%"
             x="18.368202"
             y="127.49911"
             id="text4852"
             transform="scale(1.062493,0.941183)"><tspan
               sodipodi:role="line"
               id="tspan4854"
               x="18.368202"
               y="127.49911"
               style="font-size:58.2983px;line-height:1.25"><tspan
                 x="18.368202"
                 y="127.49911"
                 id="tspan4856">B</tspan></tspan></text><text
             transform="scale(1.058116,0.945076)"
             id="text4858"
             y="179.87971"
             x="9.4507599"
             style="line-height:0%;fill:url(#linearGradient4872);fill-opacity:1"
             xml:space="preserve"><tspan
               y="179.87971"
               x="9.4507599"
               id="tspan4860"
               sodipodi:role="line"
               style="font-size:20px;line-height:1.25;fill:url(#linearGradient4872);fill-opacity:1">Phase</tspan></text></g><text
           xml:space="preserve"
           style="line-height:0%"
           x="-51.762821"
           y="20.556793"
           id="text3935-2"
           transform="scale(1.0624928,0.94118284)"><tspan
             sodipodi:role="line"
             id="tspan3937-0"
             x="-51.762821"
             y="20.556793"
             style="font-size:58.2983px;line-height:1.25">I<tspan
   x="-51.762821"
   y="20.556793"
   id="tspan3939-5" /></tspan></text></g></g></g></svg>
