<?xml version="1.0" encoding="UTF-8"?> <svg xmlns="http://www.w3.org/2000/svg" xmlns:xlink="http://www.w3.org/1999/xlink" width="572.31" height="262.43" viewBox="0 0 572.31 262.43"><defs><linearGradient id="linear-gradient" x1="349.72" y1="79.38" x2="353.28" y2="95.23" gradientUnits="userSpaceOnUse"><stop offset="0.35" stop-color="#939598"></stop><stop offset="0.56" stop-color="#838588"></stop><stop offset="0.97" stop-color="#5b5c5e"></stop><stop offset="1" stop-color="#58595b"></stop></linearGradient><linearGradient id="linear-gradient-2" x1="187.61" y1="116.88" x2="191.15" y2="132.65" xlink:href="#linear-gradient"></linearGradient></defs><g id="Layer_2" data-name="Layer 2"><g id="Precession"><path d="M282.28,111.28,417.19,80.11a10.18,10.18,0,0,0,7.63-12.21l-.06-.26A7.56,7.56,0,0,0,415.7,62L275.42,94.4Z" stroke="#000" stroke-miterlimit="10" fill="url(#linear-gradient)"></path><path d="M324.47,194.38a45.33,45.33,0,0,0,16.53-12c14.39-16.65,23.71-41.54,23.71-76.89,0-50.65-40.37-105-90.18-105L232.89,8.44,282,207l20.78-5.17A133.65,133.65,0,0,0,323.08,195Z" fill="#bcbec0" stroke="#000" stroke-miterlimit="10"></path><path d="M326.06,79.09c13.24,54.47,3.57,106.34-34.79,124.08C238,227.79,189,176.62,180.19,137.83,168.4,85.65,177.65,33.68,215,13.75,253.29-6.7,312.74,24.29,326.06,79.09Z" fill="#808285" stroke="#000" stroke-miterlimit="10"></path><path d="M302.34,110c2.84,30.08-5.47,56.21-27.21,66.27-36.82,17.05-71-18.85-77.14-46-8.31-36.49-2.05-72.78,23.75-86.6,24.57-13.16,61.89,4.7,74.63,38-11.87-28.47-44.75-43.29-66.73-31.6-23.5,12.51-29.46,44.87-22.21,77.3,5.39,24.11,36.06,55.81,69.59,40.33C296.43,158.79,304.26,136.16,302.34,110Z" fill="#58595b"></path><path d="M296.37,81.71a65.27,65.27,0,0,1,2.5,8A140.16,140.16,0,0,1,302.34,110c2.84,30.08-5.47,56.21-27.21,66.27-36.82,17.05-71-18.85-77.14-46-8.31-36.49-2.05-72.78,23.75-86.6C246.31,30.57,283.63,48.43,296.37,81.71Z" fill="none" stroke="#000" stroke-miterlimit="10"></path><path d="M296.37,81.71a56.81,56.81,0,0,1,2.86,8.73,121.32,121.32,0,0,1,3.11,19.6c1.92,26.12-5.91,48.75-25.32,57.7-33.53,15.48-64.2-16.22-69.59-40.33-7.25-32.43-1.29-64.79,22.21-77.3C251.62,38.42,284.5,53.24,296.37,81.71Z" fill="none" stroke="#000" stroke-miterlimit="10"></path><path d="M298.87,89.71c9.33,38.1,2.78,74.32-23.74,86.6-36.83,17.05-71-18.85-77.14-46-8.31-36.49-2.06-72.79,23.74-86.6C248.21,29.55,289.49,51.38,298.87,89.71Z" fill="none" stroke="#000" stroke-miterlimit="10"></path><path d="M244.82,101.47,122.93,129.63l4,17.54L249.05,119a4.63,4.63,0,0,0,3-2.2,10.88,10.88,0,0,0,1.38-7.58,11,11,0,0,0-5.13-7.16A4.54,4.54,0,0,0,244.82,101.47Z" stroke="#000" stroke-miterlimit="10" fill="url(#linear-gradient-2)"></path><ellipse cx="124.71" cy="138.51" rx="7.53" ry="9.29" fill="#58595b" stroke="#000" stroke-miterlimit="10"></ellipse><path d="M126.48,150.15c13,39.22,43.47,66.27,76.86,68.34,18.64,1.15,33.86-5.76,42.84-11.05" fill="none" stroke="#939598" stroke-miterlimit="10" stroke-width="1.5"></path><line x1="255.77" y1="113.21" x2="331.53" y2="124.5" fill="none" stroke="#e6e7e8" stroke-miterlimit="10" stroke-width="1.5"></line><line x1="247.53" y1="121.21" x2="247.53" y2="207.32" fill="none" stroke="#e6e7e8" stroke-miterlimit="10" stroke-width="1.5"></line><text transform="translate(97.16 18.15)" font-size="16" font-family="OpenSans-Semibold, Open Sans" font-weight="600">Applied<tspan x="8.15" y="18">Force</tspan></text><text transform="translate(5.98 221.91)" font-size="16" font-family="OpenSans-Semibold, Open Sans" font-weight="600">The Reaction of the<tspan x="4.11" y="18">Applied Force is at</tspan><tspan x="-5.98" y="36">this Point on the Rim</tspan></text><text transform="translate(388.17 198.85)" font-size="16" font-family="OpenSans-Semibold, Open Sans" font-weight="600">This Point will Move, i.e.<tspan x="0.89" y="18">Precess in the Direction</tspan><tspan x="43.68" y="36">of the Arrow</tspan></text><line x1="123.65" y1="39.32" x2="123.65" y2="117.67" fill="none" stroke="#000" stroke-miterlimit="10"></line><polygon points="123.65 124.73 119.59 114.79 123.65 117.15 127.72 114.79 123.65 124.73"></polygon><path d="M255.14,147.1a33.8,33.8,0,0,0,21-21.36" fill="none" stroke="#000" stroke-miterlimit="10"></path><path d="M249.3,148.62a29.93,29.93,0,0,1,9.49,2.35l-2.9-4.14.41-5A30.31,30.31,0,0,1,249.3,148.62Z"></path><polygon points="277.65 118.85 279.29 129.47 275.88 126.23 271.38 127.58 277.65 118.85"></polygon><text transform="translate(265.55 155.32)" font-size="16" font-family="OpenSans, Open Sans">90°</text><path d="M219.76,28.67a42.84,42.84,0,0,1,32.58-4.47" fill="none" stroke="#000" stroke-miterlimit="10"></path><path d="M185.06,79.68c-.45,3-.83,6.27-1.05,9.76-.09,1.31-.15,2.59-.19,3.85" fill="none" stroke="#000" stroke-miterlimit="10"></path><polygon points="181 91.3 183.89 102.15 186.81 91.31 181 91.3"></polygon><path d="M187.49,77,192,78c-.06.49-.09.74-.14,1.23L181,77.06c.14-1.35.23-2,.44-3.34a4.93,4.93,0,0,1,1.33-3,2.53,2.53,0,0,1,2.48-.36,3.33,3.33,0,0,1,2.39,3.06c2.15-.69,3.23-1,5.39-1.5-.13.56-.19.84-.31,1.4-2,.49-3,.76-4.93,1.39C187.68,75.6,187.61,76.06,187.49,77Zm-1.07-.23c.09-.73.14-1.09.25-1.81a3.55,3.55,0,0,0-.17-2.17,2.19,2.19,0,0,0-1.44-1.08,1.65,1.65,0,0,0-1.65.26,3.56,3.56,0,0,0-.85,2.1c-.12.72-.17,1.08-.26,1.8Z"></path><path d="M191.66,62.37a5.16,5.16,0,0,1,2.59,2.18,3.64,3.64,0,0,1,.2,2.94,3.44,3.44,0,0,1-1,1.59,3.38,3.38,0,0,1-1.76.74,5.44,5.44,0,0,1-2.3-.27,4.7,4.7,0,0,1-2.75-2,3.83,3.83,0,0,1-.23-3.2,3.31,3.31,0,0,1,2-2.27A4.25,4.25,0,0,1,191.66,62.37Zm-2,5.92a4,4,0,0,0,2.47.21,2,2,0,0,0,1.31-1.42,2.26,2.26,0,0,0-.21-2,4.26,4.26,0,0,0-2-1.52,3.63,3.63,0,0,0-2.45-.33,2.12,2.12,0,0,0-1.39,1.53,2.33,2.33,0,0,0,.21,2.11A3.94,3.94,0,0,0,189.69,68.29Z"></path><path d="M196.51,59.5a3.34,3.34,0,0,0,.22-.57,3.17,3.17,0,0,0,.12-.46l.85.46a1.8,1.8,0,0,1-.1.58,4.81,4.81,0,0,1-.23.62c-.64,1.33-1.69,1.66-3.23.92l-4.51-2.14L189.16,60l-.55-.25c0-.54,0-.81,0-1.36l-1.39-1.28.32-.7,1.74.86c.41-.9.63-1.35,1.08-2.24l.87.47c-.44.87-.66,1.32-1.07,2.21l4.43,2.19a1.77,1.77,0,0,0,1.18.21A1.1,1.1,0,0,0,196.51,59.5Z"></path><path d="M200.89,53.57l-1.13-.45,0,0a3.6,3.6,0,0,1,.29,1.55,3.5,3.5,0,0,1-.5,1.36,2.26,2.26,0,0,1-3.34.93c-1.48-.82-1.68-2.44-.37-4.74l.7-1.19-.44-.29a2.07,2.07,0,0,0-1.45-.43,1.72,1.72,0,0,0-1.12.9,5.33,5.33,0,0,0-.64,2.39l-1-.14A5.44,5.44,0,0,1,192,52a5.76,5.76,0,0,1,.61-1.39,3.11,3.11,0,0,1,1.77-1.55,2.7,2.7,0,0,1,2.18.58l4.76,3.19Zm-2.15,1.76a2.39,2.39,0,0,0,.35-1.81,2.6,2.6,0,0,0-1.2-1.53l-.63-.41c-.25.42-.37.64-.61,1.07a4,4,0,0,0-.67,2,1.44,1.44,0,0,0,.81,1.21,1.38,1.38,0,0,0,1.1.19A1.54,1.54,0,0,0,198.74,55.33Z"></path><path d="M203.54,48.4a4,4,0,0,0,.34-.5,2.29,2.29,0,0,0,.21-.41l.76.6a1.93,1.93,0,0,1-.22.53,3.09,3.09,0,0,1-.37.55c-.92,1.16-2,1.26-3.43.26l-4.05-2.92c-.29.39-.43.58-.71,1l-.51-.35c.11-.52.17-.78.29-1.3-.45-.59-.68-.89-1.12-1.49.18-.25.28-.37.46-.61l1.56,1.16c.61-.79.92-1.17,1.56-1.93l.77.61c-.63.75-.94,1.13-1.53,1.91l4,2.95a1.77,1.77,0,0,0,1.14.43A1.15,1.15,0,0,0,203.54,48.4Z"></path><path d="M197.64,40.25a.78.78,0,0,1-.34-.58.82.82,0,0,1,.22-.55.89.89,0,0,1,.54-.28.88.88,0,0,1,.64.24.8.8,0,0,1,.32.59.71.71,0,0,1-.21.54.78.78,0,0,1-.53.28A.85.85,0,0,1,197.64,40.25Zm9.05,5.86-.78.87-6.45-5.36.87-1Z"></path><path d="M210.62,36.79a4.62,4.62,0,0,1,1.37,3,3.31,3.31,0,0,1-1.23,2.56,3.67,3.67,0,0,1-1.73.88,3.88,3.88,0,0,1-2-.15,5.76,5.76,0,0,1-2-1.24,4.29,4.29,0,0,1-1.62-2.87,3.41,3.41,0,0,1,1.31-2.79,3.74,3.74,0,0,1,3-1A4.67,4.67,0,0,1,210.62,36.79Zm-4.71,4.12a4.29,4.29,0,0,0,2.22,1.25,2.21,2.21,0,0,0,1.9-.61,2,2,0,0,0,.77-1.77,4.94,4.94,0,0,0-3.34-3.52,2.39,2.39,0,0,0-2,.68,2.07,2.07,0,0,0-.82,1.86A3.68,3.68,0,0,0,205.91,40.91Z"></path><path d="M219.56,35.63c-1.26-1.73-1.89-2.59-3.14-4.32a2.2,2.2,0,0,0-1.31-1,2.09,2.09,0,0,0-1.58.41,2.28,2.28,0,0,0-1.23,1.66,3.25,3.25,0,0,0,1,2.15L216,37.93l-1,.7-5.38-6.33.87-.63.9.75.05,0a2.33,2.33,0,0,1,.34-1.38A3.53,3.53,0,0,1,213,29.83a3.58,3.58,0,0,1,2.48-.69,3.18,3.18,0,0,1,2,1.47L220.6,35Z"></path><line x1="369.18" y1="116.5" x2="428.65" y2="102.91" fill="none" stroke="#000" stroke-miterlimit="10"></line><polygon points="435.54 101.34 426.74 107.52 428.14 103.03 424.93 99.6 435.54 101.34"></polygon><polyline points="149.42 237.91 225.18 237.91 240.14 218.22" fill="none" stroke="#000" stroke-miterlimit="10"></polyline><polygon points="243.22 222.39 244.48 212.5 235.28 216.36 243.22 222.39"></polygon><polyline points="380.95 207.79 307.77 132.03 321.71 128.9" fill="none" stroke="#000" stroke-miterlimit="10"></polyline><polygon points="321.38 134.08 328.71 127.32 319.19 124.35 321.38 134.08"></polygon></g></g></svg> 