<?xml version="1.0" encoding="UTF-8" standalone="no"?>
<!-- Created with Inkscape (http://www.inkscape.org/) -->

<svg
   width="38.133091mm"
   height="44.642487mm"
   viewBox="0 0 38.133091 44.642487"
   version="1.1"
   id="svg11960"
   inkscape:version="1.2 (1:1.2+202206011327+fc4e4096c5)"
   sodipodi:docname="lidar_range.svg"
   xmlns:inkscape="http://www.inkscape.org/namespaces/inkscape"
   xmlns:sodipodi="http://sodipodi.sourceforge.net/DTD/sodipodi-0.dtd"
   xmlns="http://www.w3.org/2000/svg"
   xmlns:svg="http://www.w3.org/2000/svg">
  <sodipodi:namedview
     id="namedview11962"
     pagecolor="#ffffff"
     bordercolor="#666666"
     borderopacity="1.0"
     inkscape:showpageshadow="2"
     inkscape:pageopacity="0.0"
     inkscape:pagecheckerboard="0"
     inkscape:deskcolor="#d1d1d1"
     inkscape:document-units="mm"
     showgrid="false"
     inkscape:zoom="2.3786088"
     inkscape:cx="-0.84082763"
     inkscape:cy="67.686624"
     inkscape:window-width="1920"
     inkscape:window-height="1023"
     inkscape:window-x="0"
     inkscape:window-y="0"
     inkscape:window-maximized="1"
     inkscape:current-layer="g3676" />
  <defs
     id="defs11957">
    <clipPath
       clipPathUnits="userSpaceOnUse"
       id="clipPath3674">
      <path
         d="M 0,0 H 232.72 V 166.50999 H 0 Z"
         id="path3672" />
    </clipPath>
  </defs>
  <g
     inkscape:label="Layer 1"
     inkscape:groupmode="layer"
     id="layer1"
     transform="translate(-71.997749,-107.30164)">
    <g
       id="g3664"
       transform="matrix(0.35277777,0,0,0.35277777,71.997723,107.29818)">
      <g
         id="g3666"
         transform="matrix(0.760063,0,0,-0.76006,0,126.55752)">
        <g
           id="g3668">
          <g
             id="g3670"
             clip-path="url(#clipPath3674)">
            <g
               id="g3676"
               transform="scale(0.1)">
              <path
                 d="m 611.961,835.285 c 0,-4.629 0.957,-57.574 -35.344,-101.769 -45.101,-54.934 -96.902,-55.571 -96.902,-55.571 0,0 -131.973,0 -157.567,0 -25.589,0 -29.14,27.41 -29.14,27.41 l -0.031,129.93 v 0.02 l 0.031,129.941 c 0,0 3.551,27.41 29.14,27.41 25.594,0 157.567,0 157.567,0 0,0 51.801,-0.644 96.902,-55.57 36.301,-44.207 35.344,-97.152 35.344,-101.781"
                 style="fill:#bcbdc0;fill-opacity:1;fill-rule:nonzero;stroke:none"
                 id="path3958" />
              <path
                 d="m 608.387,835.285 0.004,-1.051 c 0.023,-8.543 -0.907,-57.57 -34.536,-98.449 -22.132,-26.945 -45.773,-40.465 -63.867,-47.312 -9.043,-3.418 -16.699,-5.157 -22.054,-6.043 -2.68,-0.442 -4.786,-0.668 -6.2,-0.785 l -1.589,-0.106 -0.473,-0.019 0.043,-3.575 v 3.575 c 0,0 -32.992,0 -69.188,0 -36.191,0 -75.582,0 -88.379,0 -11.414,0.074 -17.312,5.8 -21.097,11.96 -1.832,3.075 -2.981,6.223 -3.649,8.575 -0.336,1.172 -0.55,2.148 -0.683,2.812 l -0.133,0.746 -0.031,0.203 -3.547,-0.461 h 3.574 l -0.031,129.93 v 0.02 l 0.031,129.941 h -3.574 l 3.547,-0.461 0.031,0.203 c 0.184,1.219 1.41,7.582 5.187,13.282 3.856,5.703 9.653,10.746 20.375,10.812 25.594,0 157.567,0 157.567,0 v 3.574 l -0.043,-3.574 0.473,-0.019 c 5.281,-0.266 52.261,-3.778 93.71,-54.247 33.629,-40.89 34.559,-89.914 34.536,-98.457 l -0.004,-1.054 h 7.148 l 0.004,1.054 c -0.023,9.172 -0.824,59.899 -36.16,102.993 -46.008,56.027 -99.059,56.894 -99.617,56.878 h -0.028 -0.019 c 0,0 -32.992,0 -69.188,0 -36.191,0 -75.582,0 -88.379,0 -14.175,0.071 -22.847,-7.906 -27.238,-15.449 -4.484,-7.562 -5.398,-14.804 -5.445,-15.078 l -0.031,-0.226 -0.032,-130.168 v -0.024 l 0.032,-130.16 0.031,-0.227 c 0.047,-0.273 0.961,-7.515 5.445,-15.078 4.391,-7.543 13.063,-15.519 27.238,-15.449 25.594,0 157.567,0 157.567,0 h 0.019 0.028 c 0.558,-0.012 53.609,0.844 99.621,56.879 35.332,43.082 36.133,93.813 36.156,102.984 l -0.004,1.051 h -7.148"
                 style="fill:#231f20;fill-opacity:1;fill-rule:nonzero;stroke:none"
                 id="path3960" />
              <path
                 d="M 592.223,835.031 6.10156,1421.15 c -1.39453,1.4 -3.65625,1.4 -5.05468,0 -1.394536,-1.39 -1.394536,-3.66 0,-5.05 L 587.164,829.977 c 1.399,-1.399 3.66,-1.399 5.059,0 1.394,1.394 1.394,3.66 0,5.054"
                 style="fill:#fee7dc;fill-opacity:1;fill-rule:nonzero;stroke:none"
                 id="path3962" />
              <path
                 d="M 592.43,834.801 59.625,1469.78 c -1.2695,1.51 -3.5234,1.7 -5.0352,0.44 -1.5117,-1.27 -1.7109,-3.52 -0.4414,-5.04 L 586.953,830.207 c 1.27,-1.512 3.524,-1.711 5.039,-0.441 1.512,1.269 1.707,3.523 0.438,5.035"
                 style="fill:#fee7dc;fill-opacity:1;fill-rule:nonzero;stroke:none"
                 id="path3964" />
              <path
                 d="M 592.621,834.555 117.188,1513.55 c -1.133,1.62 -3.36,2.01 -4.977,0.88 -1.621,-1.14 -2.012,-3.36 -0.879,-4.98 L 586.766,830.453 c 1.132,-1.617 3.359,-2.012 4.976,-0.879 1.617,1.133 2.012,3.364 0.879,4.981"
                 style="fill:#fee7dc;fill-opacity:1;fill-rule:nonzero;stroke:none"
                 id="path3966" />
              <path
                 d="M 592.789,834.289 178.34,1552.14 c -0.985,1.71 -3.172,2.3 -4.883,1.31 -1.707,-0.99 -2.293,-3.18 -1.309,-4.88 l 414.45,-717.855 c 0.988,-1.707 3.172,-2.293 4.882,-1.309 1.711,0.989 2.297,3.176 1.309,4.883"
                 style="fill:#fdddcf;fill-opacity:1;fill-rule:nonzero;stroke:none"
                 id="path3968" />
              <path
                 d="M 592.934,834.016 242.625,1585.25 c -0.832,1.79 -2.961,2.56 -4.75,1.73 -1.789,-0.84 -2.562,-2.96 -1.73,-4.75 L 586.453,830.992 c 0.836,-1.789 2.961,-2.562 4.75,-1.73 1.789,0.836 2.563,2.965 1.731,4.754"
                 style="fill:#fdddcf;fill-opacity:1;fill-rule:nonzero;stroke:none"
                 id="path3970" />
              <path
                 d="M 593.051,833.727 309.555,1612.63 c -0.672,1.86 -2.727,2.82 -4.582,2.14 -1.856,-0.68 -2.809,-2.73 -2.137,-4.58 L 586.332,831.281 c 0.676,-1.855 2.727,-2.812 4.582,-2.136 1.856,0.675 2.813,2.726 2.137,4.582"
                 style="fill:#fdddcf;fill-opacity:1;fill-rule:nonzero;stroke:none"
                 id="path3972" />
              <path
                 d="m 593.145,833.43 -214.532,800.65 c -0.511,1.91 -2.472,3.04 -4.379,2.53 -1.906,-0.51 -3.039,-2.47 -2.527,-4.38 L 586.242,831.578 c 0.508,-1.906 2.469,-3.039 4.375,-2.527 1.906,0.512 3.039,2.469 2.528,4.379"
                 style="fill:#fdddcf;fill-opacity:1;fill-rule:nonzero;stroke:none"
                 id="path3974" />
              <path
                 d="M 593.215,833.125 449.281,1649.43 c -0.343,1.95 -2.199,3.25 -4.14,2.9 -1.946,-0.34 -3.243,-2.2 -2.903,-4.14 L 586.172,831.883 c 0.344,-1.945 2.199,-3.242 4.141,-2.899 1.945,0.34 3.242,2.196 2.902,4.141"
                 style="fill:#fcd3c1;fill-opacity:1;fill-rule:nonzero;stroke:none"
                 id="path3976" />
              <path
                 d="m 593.254,832.816 -72.238,825.734 c -0.172,1.97 -1.907,3.43 -3.875,3.25 -1.965,-0.17 -3.422,-1.9 -3.25,-3.87 l 72.242,-825.739 c 0.172,-1.964 1.906,-3.421 3.871,-3.25 1.969,0.172 3.422,1.907 3.25,3.875"
                 style="fill:#fcd3c1;fill-opacity:1;fill-rule:nonzero;stroke:none"
                 id="path3978" />
              <path
                 d="M 593.27,832.504 V 1661.4 c 0,1.97 -1.602,3.57 -3.579,3.57 -1.972,0 -3.574,-1.6 -3.574,-3.57 V 832.504 c 0,-1.977 1.602,-3.574 3.574,-3.574 1.977,0 3.579,1.597 3.579,3.574"
                 style="fill:#fcd3c1;fill-opacity:1;fill-rule:nonzero;stroke:none"
                 id="path3980" />
              <path
                 d="M 593.254,832.191 665.5,1657.93 c 0.172,1.97 -1.285,3.7 -3.25,3.87 -1.969,0.18 -3.699,-1.28 -3.871,-3.25 L 586.133,832.816 c -0.172,-1.968 1.281,-3.703 3.25,-3.875 1.965,-0.171 3.699,1.286 3.871,3.25"
                 style="fill:#fbc8b4;fill-opacity:1;fill-rule:nonzero;stroke:none"
                 id="path3982" />
              <path
                 d="m 593.215,831.883 143.937,816.307 c 0.34,1.94 -0.957,3.8 -2.902,4.14 -1.941,0.35 -3.797,-0.95 -4.141,-2.9 L 586.172,833.125 c -0.344,-1.945 0.957,-3.801 2.898,-4.141 1.946,-0.343 3.801,0.954 4.145,2.899"
                 style="fill:#fbc8b4;fill-opacity:1;fill-rule:nonzero;stroke:none"
                 id="path3984" />
              <path
                 d="m 593.145,831.578 214.539,800.652 c 0.511,1.91 -0.621,3.87 -2.528,4.38 -1.906,0.51 -3.867,-0.62 -4.379,-2.53 L 586.242,833.43 c -0.512,-1.91 0.621,-3.867 2.524,-4.379 1.91,-0.512 3.871,0.621 4.379,2.527"
                 style="fill:#fbc8b4;fill-opacity:1;fill-rule:nonzero;stroke:none"
                 id="path3986" />
              <path
                 d="m 593.051,831.281 283.504,778.909 c 0.675,1.85 -0.282,3.9 -2.137,4.58 -1.855,0.68 -3.906,-0.28 -4.582,-2.14 L 586.332,833.727 c -0.672,-1.856 0.285,-3.907 2.137,-4.582 1.855,-0.676 3.906,0.281 4.582,2.136"
                 style="fill:#fbc8b4;fill-opacity:1;fill-rule:nonzero;stroke:none"
                 id="path3988" />
              <path
                 d="m 592.934,830.992 350.312,751.238 c 0.832,1.79 0.059,3.91 -1.73,4.75 -1.789,0.83 -3.914,0.06 -4.75,-1.73 L 586.453,834.016 c -0.836,-1.789 -0.058,-3.918 1.731,-4.754 1.789,-0.832 3.914,-0.059 4.75,1.73"
                 style="fill:#fbbea7;fill-opacity:1;fill-rule:nonzero;stroke:none"
                 id="path3990" />
              <path
                 d="m 592.789,830.715 414.461,717.855 c 0.98,1.7 0.39,3.89 -1.32,4.88 -1.7,0.98 -3.89,0.4 -4.88,-1.31 L 586.598,834.289 c -0.989,-1.707 -0.403,-3.894 1.308,-4.883 1.707,-0.984 3.895,-0.398 4.883,1.309"
                 style="fill:#fbbea7;fill-opacity:1;fill-rule:nonzero;stroke:none"
                 id="path3992" />
              <path
                 d="m 592.621,830.453 475.439,678.997 c 1.13,1.62 0.74,3.84 -0.88,4.98 -1.62,1.13 -3.84,0.74 -4.98,-0.88 L 586.766,834.555 c -1.133,-1.617 -0.739,-3.848 0.875,-4.981 1.621,-1.133 3.847,-0.738 4.98,0.879"
                 style="fill:#fbbea7;fill-opacity:1;fill-rule:nonzero;stroke:none"
                 id="path3994" />
              <path
                 d="m 592.43,830.207 532.8,634.973 c 1.27,1.52 1.07,3.77 -0.44,5.04 -1.5,1.26 -3.77,1.07 -5.02,-0.44 L 586.953,834.801 c -1.269,-1.512 -1.07,-3.77 0.442,-5.035 1.511,-1.27 3.765,-1.071 5.035,0.441"
                 style="fill:#fab49b;fill-opacity:1;fill-rule:nonzero;stroke:none"
                 id="path3996" />
              <path
                 d="M 592.223,829.977 1178.34,1416.1 c 1.4,1.39 1.4,3.66 0,5.05 -1.39,1.4 -3.66,1.4 -5.05,0 L 587.164,835.031 c -1.394,-1.394 -1.394,-3.66 0,-5.054 1.399,-1.399 3.66,-1.399 5.059,0"
                 style="fill:#fab49b;fill-opacity:1;fill-rule:nonzero;stroke:none"
                 id="path3998" />
              <path
                 d="m 591.992,829.766 634.968,532.804 c 1.52,1.27 1.72,3.52 0.45,5.04 -1.27,1.51 -3.52,1.71 -5.04,0.44 L 587.395,835.242 c -1.512,-1.269 -1.711,-3.523 -0.442,-5.035 1.27,-1.512 3.524,-1.711 5.039,-0.441"
                 style="fill:#fab49b;fill-opacity:1;fill-rule:nonzero;stroke:none"
                 id="path4000" />
              <path
                 d="m 591.742,829.574 678.998,475.436 c 1.61,1.13 2.01,3.37 0.87,4.98 -1.13,1.62 -3.36,2.01 -4.97,0.88 L 587.641,835.43 c -1.614,-1.129 -2.008,-3.36 -0.875,-4.977 1.132,-1.617 3.359,-2.012 4.976,-0.879"
                 style="fill:#f9aa8f;fill-opacity:1;fill-rule:nonzero;stroke:none"
                 id="path4002" />
              <path
                 d="m 591.48,829.406 717.85,414.454 c 1.71,0.98 2.3,3.17 1.31,4.88 -0.99,1.71 -3.17,2.3 -4.88,1.31 L 587.906,835.598 c -1.711,-0.985 -2.297,-3.172 -1.308,-4.883 0.988,-1.707 3.172,-2.293 4.882,-1.309"
                 style="fill:#f9aa8f;fill-opacity:1;fill-rule:nonzero;stroke:none"
                 id="path4004" />
              <path
                 d="m 591.203,829.262 751.247,350.308 c 1.78,0.83 2.57,2.96 1.73,4.75 -0.83,1.79 -2.97,2.56 -4.75,1.73 L 588.184,835.742 c -1.789,-0.832 -2.567,-2.961 -1.731,-4.75 0.836,-1.789 2.961,-2.562 4.75,-1.73"
                 style="fill:#f9aa8f;fill-opacity:1;fill-rule:nonzero;stroke:none"
                 id="path4006" />
              <path
                 d="m 590.914,829.145 778.906,283.495 c 1.86,0.68 2.81,2.73 2.14,4.59 -0.67,1.85 -2.73,2.81 -4.58,2.13 L 588.469,835.863 c -1.852,-0.675 -2.809,-2.726 -2.137,-4.582 0.676,-1.855 2.727,-2.812 4.582,-2.136"
                 style="fill:#f8a084;fill-opacity:1;fill-rule:nonzero;stroke:none"
                 id="path4008" />
              <path
                 d="m 590.617,829.051 800.653,214.529 c 1.91,0.51 3.04,2.47 2.53,4.38 -0.51,1.91 -2.47,3.04 -4.38,2.53 L 588.766,835.957 c -1.903,-0.512 -3.036,-2.473 -2.524,-4.379 0.508,-1.906 2.469,-3.039 4.375,-2.527"
                 style="fill:#f8a084;fill-opacity:1;fill-rule:nonzero;stroke:none"
                 id="path4010" />
              <path
                 d="m 590.313,828.984 816.307,143.934 c 1.94,0.34 3.24,2.195 2.9,4.141 -0.34,1.941 -2.2,3.242 -4.14,2.898 L 589.07,836.023 c -1.941,-0.343 -3.242,-2.195 -2.898,-4.14 0.344,-1.945 2.199,-3.242 4.141,-2.899"
                 style="fill:#f8a084;fill-opacity:1;fill-rule:nonzero;stroke:none"
                 id="path4012" />
              <path
                 d="m 590.004,828.941 825.746,72.243 c 1.97,0.171 3.43,1.906 3.25,3.871 -0.17,1.965 -1.9,3.422 -3.87,3.25 L 589.383,836.066 c -1.969,-0.175 -3.422,-1.91 -3.25,-3.875 0.172,-1.964 1.906,-3.421 3.871,-3.25"
                 style="fill:#f69679;fill-opacity:1;fill-rule:nonzero;stroke:none"
                 id="path4014" />
              <path
                 d="M 589.691,828.93 H 1418.6 c 1.97,0 3.57,1.597 3.57,3.574 0,1.973 -1.6,3.574 -3.57,3.574 H 589.691 c -1.972,0 -3.574,-1.601 -3.574,-3.574 0,-1.977 1.602,-3.574 3.574,-3.574"
                 style="fill:#f69679;fill-opacity:1;fill-rule:nonzero;stroke:none"
                 id="path4016" />
              <path
                 d="m 589.383,828.941 825.747,-72.25 c 1.97,-0.171 3.7,1.286 3.87,3.25 0.18,1.969 -1.28,3.704 -3.25,3.875 l -825.746,72.25 c -1.965,0.172 -3.699,-1.285 -3.871,-3.25 -0.172,-1.968 1.281,-3.703 3.25,-3.875"
                 style="fill:#f69679;fill-opacity:1;fill-rule:nonzero;stroke:none"
                 id="path4018" />
              <path
                 d="m 589.07,828.984 816.31,-143.945 c 1.94,-0.34 3.8,0.957 4.14,2.899 0.34,1.945 -0.96,3.8 -2.9,4.144 L 590.313,836.023 c -1.942,0.344 -3.797,-0.957 -4.141,-2.898 -0.344,-1.945 0.957,-3.801 2.898,-4.141"
                 style="fill:#f69679;fill-opacity:1;fill-rule:nonzero;stroke:none"
                 id="path4020" />
              <path
                 d="M 588.766,829.051 1389.42,614.504 c 1.91,-0.512 3.87,0.629 4.38,2.531 0.51,1.906 -0.62,3.867 -2.53,4.379 L 590.617,835.957 c -1.906,0.508 -3.867,-0.621 -4.375,-2.527 -0.512,-1.91 0.621,-3.867 2.524,-4.379"
                 style="fill:#f68d70;fill-opacity:1;fill-rule:nonzero;stroke:none"
                 id="path4022" />
              <path
                 d="M 588.469,829.145 1367.38,545.641 c 1.85,-0.672 3.91,0.277 4.58,2.136 0.67,1.864 -0.28,3.911 -2.14,4.582 L 590.914,835.863 c -1.855,0.676 -3.906,-0.281 -4.582,-2.136 -0.672,-1.856 0.285,-3.907 2.137,-4.582"
                 style="fill:#f68d70;fill-opacity:1;fill-rule:nonzero;stroke:none"
                 id="path4024" />
              <path
                 d="M 588.184,829.262 1339.43,478.953 c 1.78,-0.84 3.92,-0.058 4.75,1.731 0.84,1.793 0.05,3.91 -1.73,4.75 L 591.203,835.742 c -1.789,0.836 -3.914,0.063 -4.75,-1.726 -0.836,-1.789 -0.058,-3.918 1.731,-4.754"
                 style="fill:#f68d70;fill-opacity:1;fill-rule:nonzero;stroke:none"
                 id="path4026" />
              <path
                 d="M 587.906,829.406 1305.76,414.949 c 1.71,-0.988 3.89,-0.398 4.88,1.313 0.99,1.707 0.4,3.898 -1.31,4.879 L 591.48,835.598 c -1.71,0.988 -3.894,0.402 -4.882,-1.309 -0.989,-1.707 -0.403,-3.894 1.308,-4.883"
                 style="fill:#f58466;fill-opacity:1;fill-rule:nonzero;stroke:none"
                 id="path4028" />
              <path
                 d="M 587.641,829.574 1266.64,354.137 c 1.61,-1.133 3.84,-0.742 4.97,0.879 1.14,1.621 0.74,3.847 -0.87,4.98 L 591.742,835.43 c -1.617,1.133 -3.844,0.742 -4.976,-0.875 -1.133,-1.617 -0.739,-3.848 0.875,-4.981"
                 style="fill:#f58466;fill-opacity:1;fill-rule:nonzero;stroke:none"
                 id="path4030" />
              <path
                 d="M 587.395,829.766 1222.37,296.961 c 1.52,-1.27 3.77,-1.07 5.04,0.441 1.27,1.508 1.07,3.77 -0.45,5.028 L 591.992,835.242 c -1.515,1.27 -3.769,1.071 -5.039,-0.441 -1.269,-1.512 -1.07,-3.77 0.442,-5.035"
                 style="fill:#f58466;fill-opacity:1;fill-rule:nonzero;stroke:none"
                 id="path4032" />
              <path
                 d="M 587.164,829.977 1173.29,243.855 c 1.39,-1.402 3.66,-1.402 5.05,0 1.4,1.391 1.4,3.661 0,5.051 L 592.223,835.031 c -1.399,1.395 -3.66,1.395 -5.059,0 -1.394,-1.394 -1.394,-3.66 0,-5.054"
                 style="fill:#f47a5c;fill-opacity:1;fill-rule:nonzero;stroke:none"
                 id="path4034" />
              <path
                 d="M 586.953,830.207 1119.77,195.23 c 1.25,-1.511 3.52,-1.71 5.02,-0.441 1.51,1.27 1.71,3.52 0.44,5.039 l -532.8,634.973 c -1.27,1.512 -3.524,1.711 -5.035,0.441 -1.512,-1.269 -1.711,-3.523 -0.442,-5.035"
                 style="fill:#f47a5c;fill-opacity:1;fill-rule:nonzero;stroke:none"
                 id="path4036" />
              <path
                 d="m 586.766,830.453 475.434,-679 c 1.14,-1.609 3.36,-2.012 4.98,-0.871 1.62,1.129 2.01,3.359 0.88,4.981 L 592.621,834.555 c -1.133,1.617 -3.359,2.008 -4.98,0.875 -1.614,-1.129 -2.008,-3.36 -0.875,-4.977"
                 style="fill:#f47a5c;fill-opacity:1;fill-rule:nonzero;stroke:none"
                 id="path4038" />
              <path
                 d="M 586.598,830.715 1001.05,112.867 c 0.99,-1.711 3.18,-2.301 4.88,-1.312 1.71,0.992 2.3,3.179 1.32,4.89 L 592.789,834.289 c -0.988,1.711 -3.176,2.297 -4.883,1.309 -1.711,-0.985 -2.297,-3.172 -1.308,-4.883"
                 style="fill:#f37153;fill-opacity:1;fill-rule:nonzero;stroke:none"
                 id="path4040" />
              <path
                 d="M 586.453,830.992 936.766,79.75 c 0.836,-1.793 2.961,-2.5625 4.75,-1.7305 1.789,0.8282 2.562,2.961 1.73,4.75 L 592.934,834.016 c -0.836,1.789 -2.961,2.562 -4.75,1.726 -1.789,-0.832 -2.567,-2.961 -1.731,-4.75"
                 style="fill:#f37153;fill-opacity:1;fill-rule:nonzero;stroke:none"
                 id="path4042" />
              <path
                 d="M 586.332,831.281 869.836,52.3594 c 0.676,-1.8477 2.727,-2.8086 4.582,-2.1367 1.855,0.6796 2.812,2.7265 2.137,4.5898 L 593.051,833.727 c -0.676,1.855 -2.727,2.812 -4.582,2.136 -1.852,-0.675 -2.809,-2.726 -2.137,-4.582"
                 style="fill:#f37153;fill-opacity:1;fill-rule:nonzero;stroke:none"
                 id="path4044" />
              <path
                 d="M 586.242,831.578 800.777,30.9219 c 0.512,-1.9102 2.473,-3.0391 4.379,-2.5274 1.907,0.5078 3.039,2.4688 2.528,4.3789 L 593.145,833.43 c -0.508,1.906 -2.469,3.035 -4.379,2.527 -1.903,-0.512 -3.036,-2.473 -2.524,-4.379"
                 style="fill:#f26649;fill-opacity:1;fill-rule:nonzero;stroke:none"
                 id="path4046" />
              <path
                 d="M 586.172,831.883 730.109,15.5742 c 0.344,-1.9414 2.2,-3.2383 4.141,-2.8984 1.945,0.3398 3.242,2.1992 2.902,4.1367 L 593.215,833.125 c -0.344,1.941 -2.199,3.242 -4.145,2.898 -1.941,-0.343 -3.242,-2.195 -2.898,-4.14"
                 style="fill:#f26649;fill-opacity:1;fill-rule:nonzero;stroke:none"
                 id="path4048" />
              <path
                 d="M 586.133,832.191 658.379,6.44531 c 0.172,-1.96875 1.902,-3.42968 3.871,-3.25 1.965,0.16797 3.422,1.89844 3.25,3.8711 L 593.254,832.816 c -0.172,1.965 -1.906,3.422 -3.871,3.25 -1.969,-0.175 -3.422,-1.91 -3.25,-3.875"
                 style="fill:#f26649;fill-opacity:1;fill-rule:nonzero;stroke:none"
                 id="path4050" />
              <path
                 d="M 586.117,832.504 V 3.59375 c 0,-1.96875 1.602,-3.5664062 3.574,-3.5664062 1.977,0 3.579,1.5976562 3.579,3.5664062 V 832.504 c 0,1.973 -1.602,3.574 -3.579,3.574 -1.972,0 -3.574,-1.601 -3.574,-3.574"
                 style="fill:#f15b40;fill-opacity:1;fill-rule:nonzero;stroke:none"
                 id="path4052" />
              <path
                 d="M 586.133,832.816 513.891,7.06641 c -0.172,-1.97266 1.285,-3.70313 3.25,-3.8711 1.968,-0.17968 3.703,1.28125 3.875,3.25 L 593.254,832.191 c 0.172,1.965 -1.281,3.7 -3.25,3.875 -1.965,0.172 -3.699,-1.285 -3.871,-3.25"
                 style="fill:#f15b40;fill-opacity:1;fill-rule:nonzero;stroke:none"
                 id="path4054" />
              <path
                 d="M 586.172,833.125 442.238,16.8125 c -0.34,-1.9375 0.957,-3.7969 2.903,-4.1367 1.941,-0.3399 3.797,0.957 4.14,2.8984 L 593.215,831.883 c 0.34,1.945 -0.957,3.797 -2.902,4.14 -1.942,0.344 -3.797,-0.957 -4.141,-2.898"
                 style="fill:#f15b40;fill-opacity:1;fill-rule:nonzero;stroke:none"
                 id="path4056" />
              <path
                 d="M 586.242,833.43 371.707,32.7734 c -0.512,-1.9101 0.621,-3.8711 2.527,-4.3789 1.907,-0.5117 3.868,0.6172 4.379,2.5274 L 593.145,831.578 c 0.511,1.906 -0.622,3.867 -2.528,4.379 -1.906,0.508 -3.867,-0.621 -4.375,-2.527"
                 style="fill:#f04e37;fill-opacity:1;fill-rule:nonzero;stroke:none"
                 id="path4058" />
              <path
                 d="M 586.332,833.727 302.836,54.8125 c -0.672,-1.8633 0.281,-3.9102 2.137,-4.5898 1.855,-0.6719 3.906,0.289 4.582,2.1367 L 593.051,831.281 c 0.676,1.856 -0.281,3.907 -2.133,4.582 -1.859,0.676 -3.91,-0.281 -4.586,-2.136"
                 style="fill:#f04e37;fill-opacity:1;fill-rule:nonzero;stroke:none"
                 id="path4060" />
              <path
                 d="M 586.453,834.016 236.145,82.7695 c -0.832,-1.789 -0.059,-3.9218 1.73,-4.75 1.789,-0.832 3.918,-0.0625 4.75,1.7305 l 350.309,751.242 c 0.832,1.789 0.058,3.918 -1.731,4.75 -1.789,0.836 -3.914,0.063 -4.75,-1.726"
                 style="fill:#ef402f;fill-opacity:1;fill-rule:nonzero;stroke:none"
                 id="path4062" />
              <path
                 d="M 586.598,834.289 172.148,116.445 c -0.984,-1.711 -0.398,-3.898 1.309,-4.89 1.711,-0.989 3.898,-0.399 4.883,1.312 l 414.449,717.848 c 0.988,1.711 0.402,3.898 -1.309,4.883 -1.71,0.988 -3.894,0.402 -4.882,-1.309"
                 style="fill:#ee3229;fill-opacity:1;fill-rule:nonzero;stroke:none"
                 id="path4064" />
              <path
                 d="M 586.766,834.555 111.332,155.563 c -1.133,-1.622 -0.742,-3.852 0.879,-4.981 1.617,-1.141 3.844,-0.738 4.977,0.871 l 475.433,679 c 1.133,1.617 0.738,3.848 -0.879,4.981 -1.617,1.129 -3.844,0.738 -4.976,-0.879"
                 style="fill:#ed1c24;fill-opacity:1;fill-rule:nonzero;stroke:none"
                 id="path4066" />
              <path
                 d="M 586.953,834.801 54.1484,199.828 c -1.2695,-1.519 -1.0703,-3.769 0.4414,-5.039 1.5118,-1.269 3.7657,-1.07 5.0352,0.441 L 592.43,830.207 c 1.269,1.512 1.074,3.766 -0.438,5.035 -1.515,1.27 -3.769,1.071 -5.039,-0.441"
                 style="fill:#ed1c24;fill-opacity:1;fill-rule:nonzero;stroke:none"
                 id="path4068" />
              <path
                 d="M 587.164,835.031 1.04688,248.906 c -1.394536,-1.39 -1.394536,-3.66 0,-5.051 1.39843,-1.402 3.66015,-1.402 5.05468,0 L 592.223,829.977 c 1.394,1.394 1.394,3.66 0,5.054 -1.399,1.395 -3.66,1.395 -5.059,0"
                 style="fill:#ed1c24;fill-opacity:1;fill-rule:nonzero;stroke:none"
                 id="path4070" />
              <path
                 d="m 452.469,973.352 c 77.336,0 140.027,-62.692 140.027,-140.02 0,-77.336 -62.691,-140.027 -140.027,-140.027 -77.332,0 -140.024,62.691 -140.024,140.027 0,77.328 62.692,140.02 140.024,140.02"
                 style="fill:#231f20;fill-opacity:1;fill-rule:nonzero;stroke:none"
                 id="path4072" />
              <path
                 d="m 452.469,973.352 v -3.575 c 37.691,-0.004 71.781,-15.269 96.488,-39.964 24.695,-24.704 39.961,-58.793 39.965,-96.481 -0.004,-37.691 -15.27,-71.781 -39.965,-96.484 -24.707,-24.7 -58.797,-39.965 -96.488,-39.969 -37.692,0.004 -71.781,15.269 -96.485,39.969 -24.699,24.703 -39.961,58.793 -39.964,96.484 0.003,37.688 15.265,71.777 39.964,96.481 24.704,24.695 58.793,39.96 96.485,39.964 v 3.575 3.574 C 373.16,976.922 308.875,912.637 308.871,833.332 308.875,754.02 373.16,689.734 452.469,689.73 c 79.312,0.004 143.597,64.29 143.601,143.602 -0.004,79.305 -64.289,143.59 -143.601,143.594 v -3.574"
                 style="fill:#231f20;fill-opacity:1;fill-rule:nonzero;stroke:none"
                 id="path4074" />
              <path
                 d="m 645.043,599.793 -15.277,26.031 -8.707,49.383 c 1.851,2.008 3.664,4.047 5.441,6.125 l 21.246,-79.297 c -0.898,-0.762 -1.797,-1.5 -2.703,-2.242 m 8.715,7.43 -21.68,80.918 c 1.461,1.863 2.891,3.75 4.293,5.668 l 27.922,-76.715 c -3.434,-3.379 -6.941,-6.668 -10.535,-9.871 m 16.094,15.5 -28.477,78.234 c 1.133,1.691 2.238,3.398 3.324,5.125 l 34.239,-73.422 c -2.95,-3.387 -5.985,-6.707 -9.086,-9.937 m 14.175,15.937 -34.89,74.824 c 0.859,1.504 1.699,3.012 2.523,4.543 l 40.129,-69.507 c -2.516,-3.348 -5.101,-6.637 -7.762,-9.86 m -64.64,4.852 -11.133,18.968 c 2.269,2.071 4.492,4.192 6.668,6.36 l 4.465,-25.328 m 77.015,11.316 -40.859,70.77 c 0.641,1.308 1.262,2.625 1.875,3.949 L 702.965,664.5 c -2.125,-3.27 -4.313,-6.488 -6.563,-9.672 m 10.696,16.238 -46.321,66.153 c 0.461,1.121 0.918,2.25 1.364,3.383 l 50.453,-60.125 c -1.774,-3.176 -3.61,-6.317 -5.496,-9.411 m 9.152,16.176 -51.246,61.071 c 0.332,0.949 0.652,1.898 0.973,2.851 l 54.824,-54.824 c -1.465,-3.067 -2.985,-6.102 -4.551,-9.098 m 7.742,16.02 -55.613,55.613 c 0.226,0.785 0.453,1.582 0.672,2.371 l 58.66,-49.219 c -1.191,-2.949 -2.434,-5.871 -3.719,-8.765 m 6.457,15.801 -59.418,49.859 c 0.153,0.648 0.305,1.293 0.453,1.949 l 61.957,-43.387 c -0.953,-2.828 -1.953,-5.636 -2.992,-8.421 m 5.293,15.539 -62.668,43.882 c 0.098,0.524 0.196,1.055 0.293,1.582 l 64.735,-37.375 c -0.747,-2.714 -1.536,-5.41 -2.36,-8.089 m 4.235,15.261 -65.375,37.746 c 0.062,0.422 0.121,0.848 0.179,1.27 l 67.008,-31.242 c -0.57,-2.606 -1.172,-5.199 -1.812,-7.774 m 3.281,14.977 -67.57,31.508 c 0.035,0.336 0.07,0.675 0.105,1.011 l 68.789,-25.035 c -0.406,-2.508 -0.852,-5.008 -1.324,-7.484 m 2.406,14.699 -69.269,25.211 c 0.015,0.27 0.035,0.539 0.05,0.805 l 70.121,-18.789 c -0.121,-1.055 -0.242,-2.11 -0.371,-3.164 -0.168,-1.36 -0.343,-2.711 -0.531,-4.063 m 1.613,14.438 -70.519,18.898 c 0.008,0.215 0.012,0.43 0.015,0.645 l 71.02,-12.524 c -0.145,-2.336 -0.316,-4.676 -0.516,-7.019 m 0.864,14.214 -71.325,12.579 c -0.003,0.175 -0.003,0.347 -0.007,0.523 l 71.496,-6.254 c -0.028,-2.281 -0.082,-4.559 -0.164,-6.848 m 0.152,14.024 -71.707,6.273 c -0.008,0.145 -0.016,0.297 -0.023,0.442 h 71.554 c 0.086,-2.235 0.145,-4.473 0.176,-6.715 m -0.539,13.863 h -71.672 c -0.012,0.133 -0.023,0.258 -0.035,0.391 l 71.207,6.23 c 0.191,-2.199 0.359,-4.41 0.5,-6.621 m -72.445,7.504 c -0.016,0.129 -0.032,0.25 -0.047,0.379 l 70.461,12.426 c 0.3,-2.192 0.574,-4.371 0.82,-6.574 l -71.234,-6.231 m -1.043,7.465 c -0.024,0.133 -0.043,0.262 -0.067,0.398 l 69.317,18.575 c 0.41,-2.184 0.789,-4.368 1.148,-6.563 l -70.398,-12.41 m -1.325,7.465 c -0.027,0.148 -0.058,0.304 -0.089,0.457 l 67.761,24.66 c 0.524,-2.188 1.02,-4.379 1.492,-6.586 l -69.164,-18.531 m -1.613,7.508 c -0.043,0.183 -0.086,0.363 -0.129,0.546 l 65.797,30.68 c 0.645,-2.203 1.266,-4.426 1.859,-6.648 L 671.328,866.02 m -1.93,7.593 c -0.062,0.223 -0.125,0.45 -0.187,0.672 l 63.406,36.606 c 0.781,-2.235 1.535,-4.485 2.258,-6.746 l -65.477,-30.532 m -2.281,7.719 c -0.086,0.281 -0.176,0.559 -0.265,0.836 l 60.578,42.418 c 0.929,-2.277 1.832,-4.57 2.703,-6.871 l -63.016,-36.383 m -2.664,7.883 c -0.125,0.348 -0.25,0.687 -0.379,1.039 l 57.305,48.078 c 1.098,-2.324 2.164,-4.66 3.199,-7.019 l -60.125,-42.098 m -3.101,8.082 c -0.176,0.43 -0.352,0.851 -0.528,1.281 l 53.563,53.563 c 1.289,-2.379 2.535,-4.77 3.758,-7.188 l -56.793,-47.656 m -3.606,8.316 c -0.238,0.524 -0.48,1.047 -0.726,1.567 l 49.351,58.816 c 1.504,-2.433 2.965,-4.887 4.391,-7.367 l -53.016,-53.016 m -4.172,8.582 c -0.328,0.633 -0.656,1.266 -0.988,1.895 l 44.656,63.777 c 1.742,-2.484 3.449,-5 5.11,-7.543 l -48.778,-58.129 m -4.836,8.864 c -0.441,0.761 -0.879,1.511 -1.328,2.265 l 39.485,68.391 c 2.019,-2.539 3.988,-5.102 5.921,-7.707 l -44.078,-62.949 m -5.601,9.164 c -0.574,0.89 -1.164,1.785 -1.754,2.668 l 33.84,72.569 c 2.324,-2.57 4.601,-5.18 6.832,-7.831 l -38.918,-67.406 m -6.481,9.453 c -0.758,1.043 -1.519,2.074 -2.293,3.101 L 662.105,1021 c 2.668,-2.57 5.297,-5.21 7.86,-7.89 l -33.309,-71.434 m -7.492,9.722 c -0.973,1.184 -1.969,2.375 -2.965,3.54 l 21.242,79.272 c 3.063,-2.56 6.051,-5.18 8.997,-7.88 l -27.274,-74.932 m -8.652,9.93 c -1.246,1.34 -2.496,2.656 -3.774,3.965 l 14.395,81.627 c 3.476,-2.51 6.887,-5.09 10.238,-7.75 l -20.859,-77.842 m -9.961,10.047 c -1.559,1.469 -3.137,2.91 -4.738,4.336 l 7.277,83.199 c 3.926,-2.39 7.789,-4.89 11.578,-7.46 l -14.117,-80.075 m -11.418,10.02 c -1.926,1.57 -3.883,3.113 -5.863,4.613 v 83.932 c 4.406,-2.23 8.734,-4.55 12.996,-6.99 l -7.133,-81.555 m -13.016,9.804 c -2.34,1.629 -4.719,3.207 -7.133,4.742 l -7.332,83.779 c 4.903,-1.97 9.715,-4.07 14.465,-6.3 v -82.221 m -14.715,9.341 c -2.8,1.61 -5.644,3.17 -8.531,4.66 l -14.59,82.75 c 5.391,-1.63 10.711,-3.43 15.946,-5.36 l 7.175,-82.05 m -16.476,8.56 c -3.289,1.53 -6.629,2.97 -10.012,4.33 l -14.266,53.24 6.313,24.46 c 1.23,-0.32 2.453,-0.64 3.672,-0.97 l 14.293,-81.06 m -18.246,7.44 c -3.789,1.34 -7.621,2.58 -11.516,3.71 l -3.801,10.45 5.653,21.9 9.664,-36.06"
                 style="fill:#bcbdc0;fill-opacity:1;fill-rule:nonzero;stroke:none"
                 id="path4082" />
              <path
                 d="m 525.164,1020.25 c -2.008,0.57 -4.031,1.13 -6.07,1.65 l 2.269,8.8 3.801,-10.45"
                 style="fill:#bba69d;fill-opacity:1;fill-rule:nonzero;stroke:none"
                 id="path4084" />
              <path
                 d="m 544.914,1013.43 c -2.715,1.09 -5.461,2.13 -8.234,3.11 l -9.664,36.06 3.632,14.07 14.266,-53.24"
                 style="fill:#bba69d;fill-opacity:1;fill-rule:nonzero;stroke:none"
                 id="path4086" />
              <path
                 d="m 562.871,1005.2 c -2.613,1.35 -5.266,2.66 -7.945,3.9 l -14.293,81.06 c 2.57,-0.71 5.113,-1.44 7.648,-2.21 l 14.59,-82.75"
                 style="fill:#bb9e93;fill-opacity:1;fill-rule:nonzero;stroke:none"
                 id="path4088" />
              <path
                 d="m 578.984,995.941 c -2.496,1.586 -5.011,3.114 -7.582,4.599 l -7.175,82.05 c 2.492,-0.92 4.972,-1.88 7.425,-2.87 l 7.332,-83.779"
                 style="fill:#bb9e93;fill-opacity:1;fill-rule:nonzero;stroke:none"
                 id="path4090" />
              <path
                 d="m 593.27,986.008 c -2.344,1.777 -4.731,3.512 -7.153,5.191 v 82.221 c 2.399,-1.13 4.789,-2.29 7.153,-3.48 v -83.932"
                 style="fill:#bb9e93;fill-opacity:1;fill-rule:nonzero;stroke:none"
                 id="path4092" />
              <path
                 d="m 605.813,975.711 c -2.184,1.937 -4.415,3.836 -6.68,5.684 l 7.133,81.555 c 2.297,-1.32 4.574,-2.66 6.824,-4.04 l -7.277,-83.199"
                 style="fill:#ba9689;fill-opacity:1;fill-rule:nonzero;stroke:none"
                 id="path4094" />
              <path
                 d="m 616.738,965.293 c -2.019,2.066 -4.086,4.098 -6.187,6.082 l 14.117,80.075 c 2.18,-1.48 4.328,-2.99 6.465,-4.53 l -14.395,-81.627"
                 style="fill:#ba9689;fill-opacity:1;fill-rule:nonzero;stroke:none"
                 id="path4096" />
              <path
                 d="m 626.199,954.938 c -1.851,2.167 -3.75,4.296 -5.687,6.39 l 20.859,77.842 c 2.043,-1.62 4.078,-3.28 6.07,-4.96 l -21.242,-79.272"
                 style="fill:#ba9689;fill-opacity:1;fill-rule:nonzero;stroke:none"
                 id="path4098" />
              <path
                 d="m 634.363,944.777 c -1.691,2.243 -3.422,4.45 -5.199,6.621 l 27.274,74.932 c 1.914,-1.75 3.804,-3.52 5.667,-5.33 l -27.742,-76.223"
                 style="fill:#ba9689;fill-opacity:1;fill-rule:nonzero;stroke:none"
                 id="path4100" />
              <path
                 d="m 641.383,934.891 c -1.531,2.293 -3.106,4.554 -4.727,6.785 l 33.309,71.434 c 1.781,-1.87 3.527,-3.74 5.258,-5.65 l -33.84,-72.569"
                 style="fill:#ba8f7f;fill-opacity:1;fill-rule:nonzero;stroke:none"
                 id="path4102" />
              <path
                 d="m 647.41,925.324 c -1.379,2.328 -2.805,4.629 -4.273,6.899 l 38.918,67.406 c 1.636,-1.945 3.258,-3.926 4.84,-5.914 L 647.41,925.324"
                 style="fill:#ba8f7f;fill-opacity:1;fill-rule:nonzero;stroke:none"
                 id="path4104" />
              <path
                 d="m 652.586,916.09 c -1.238,2.348 -2.523,4.672 -3.848,6.969 l 44.078,62.949 c 1.5,-2.024 2.981,-4.074 4.426,-6.141 L 652.586,916.09"
                 style="fill:#ba8f7f;fill-opacity:1;fill-rule:nonzero;stroke:none"
                 id="path4106" />
              <path
                 d="m 657.02,907.18 c -1.106,2.359 -2.254,4.699 -3.446,7.015 l 48.778,58.129 c 1.367,-2.09 2.707,-4.199 4.019,-6.328 L 657.02,907.18"
                 style="fill:#b98776;fill-opacity:1;fill-rule:nonzero;stroke:none"
                 id="path4108" />
              <path
                 d="m 660.824,898.578 c -0.984,2.363 -2.011,4.711 -3.078,7.035 l 53.016,53.016 c 1.234,-2.145 2.445,-4.313 3.625,-6.488 l -53.563,-53.563"
                 style="fill:#b98776;fill-opacity:1;fill-rule:nonzero;stroke:none"
                 id="path4110" />
              <path
                 d="m 664.074,890.254 c -0.863,2.363 -1.773,4.719 -2.722,7.043 l 56.793,47.656 c 1.105,-2.191 2.183,-4.398 3.234,-6.621 l -57.305,-48.078"
                 style="fill:#b98776;fill-opacity:1;fill-rule:nonzero;stroke:none"
                 id="path4112" />
              <path
                 d="m 666.852,882.168 c -0.758,2.367 -1.559,4.715 -2.399,7.047 l 60.125,42.098 c 0.977,-2.227 1.93,-4.473 2.852,-6.727 l -60.578,-42.418"
                 style="fill:#b87f6c;fill-opacity:1;fill-rule:nonzero;stroke:none"
                 id="path4114" />
              <path
                 d="m 669.211,874.285 c -0.656,2.363 -1.356,4.715 -2.094,7.047 l 63.016,36.383 c 0.855,-2.262 1.683,-4.539 2.484,-6.824 l -63.406,-36.606"
                 style="fill:#b87f6c;fill-opacity:1;fill-rule:nonzero;stroke:none"
                 id="path4116" />
              <path
                 d="m 671.199,866.566 c -0.558,2.36 -1.16,4.715 -1.801,7.047 l 65.477,30.532 c 0.738,-2.293 1.441,-4.582 2.121,-6.899 l -65.797,-30.68"
                 style="fill:#b87f6c;fill-opacity:1;fill-rule:nonzero;stroke:none"
                 id="path4118" />
              <path
                 d="m 672.852,858.969 c -0.469,2.367 -0.973,4.711 -1.524,7.051 l 67.527,24.578 c 0.614,-2.309 1.204,-4.637 1.758,-6.969 l -67.761,-24.66"
                 style="fill:#b77763;fill-opacity:1;fill-rule:nonzero;stroke:none"
                 id="path4120" />
              <path
                 d="m 674.199,851.445 c -0.379,2.364 -0.797,4.723 -1.258,7.067 l 69.164,18.531 c 0.5,-2.328 0.973,-4.68 1.411,-7.023 l -69.317,-18.575"
                 style="fill:#b77763;fill-opacity:1;fill-rule:nonzero;stroke:none"
                 id="path4122" />
              <path
                 d="m 675.262,843.961 c -0.293,2.371 -0.625,4.734 -0.996,7.086 l 70.398,12.41 c 0.383,-2.348 0.734,-4.707 1.059,-7.07 l -70.461,-12.426"
                 style="fill:#b77763;fill-opacity:1;fill-rule:nonzero;stroke:none"
                 id="path4124" />
              <path
                 d="m 676.047,836.469 c -0.203,2.379 -0.453,4.754 -0.738,7.113 l 71.234,6.231 c 0.266,-2.364 0.504,-4.735 0.711,-7.114 l -71.207,-6.23"
                 style="fill:#b7705a;fill-opacity:1;fill-rule:nonzero;stroke:none"
                 id="path4126" />
              <path
                 d="m 748.117,828.93 h -71.554 c -0.118,2.39 -0.282,4.773 -0.481,7.148 h 71.672 c 0.152,-2.375 0.273,-4.762 0.363,-7.148"
                 style="fill:#b7705a;fill-opacity:1;fill-rule:nonzero;stroke:none"
                 id="path4128" />
              <path
                 d="m 748.305,815.039 -71.496,6.254 c -0.032,2.402 -0.11,4.809 -0.223,7.195 l 71.707,-6.273 c 0.02,-1.305 0.027,-2.613 0.027,-3.922 0,-1.082 -0.004,-2.168 -0.015,-3.254"
                 style="fill:#b7705a;fill-opacity:1;fill-rule:nonzero;stroke:none"
                 id="path4130" />
              <path
                 d="m 747.793,800.996 -71.02,12.524 c 0.036,1.593 0.055,3.187 0.055,4.773 0,0.828 -0.004,1.652 -0.012,2.477 l 71.325,-12.579 c -0.086,-2.394 -0.2,-4.793 -0.348,-7.195"
                 style="fill:#b7705a;fill-opacity:1;fill-rule:nonzero;stroke:none"
                 id="path4132" />
              <path
                 d="m 746.566,786.766 -70.121,18.789 c 0.149,2.449 0.25,4.886 0.313,7.32 l 70.519,-18.898 c -0.207,-2.399 -0.445,-4.805 -0.711,-7.211"
                 style="fill:#b66953;fill-opacity:1;fill-rule:nonzero;stroke:none"
                 id="path4134" />
              <path
                 d="m 744.582,772.324 -68.789,25.035 c 0.242,2.473 0.445,4.934 0.602,7.391 l 69.269,-25.211 c -0.328,-2.418 -0.691,-4.824 -1.082,-7.215"
                 style="fill:#b66953;fill-opacity:1;fill-rule:nonzero;stroke:none"
                 id="path4136" />
              <path
                 d="m 741.789,757.637 -67.008,31.242 c 0.16,1.141 0.309,2.285 0.449,3.434 0.168,1.347 0.321,2.691 0.458,4.035 l 67.57,-31.508 c -0.461,-2.418 -0.949,-4.813 -1.469,-7.203"
                 style="fill:#b66953;fill-opacity:1;fill-rule:nonzero;stroke:none"
                 id="path4138" />
              <path
                 d="m 738.102,742.691 -64.735,37.375 c 0.453,2.497 0.867,5.008 1.235,7.543 l 65.375,-37.746 c -0.594,-2.406 -1.219,-4.797 -1.875,-7.172"
                 style="fill:#b5624b;fill-opacity:1;fill-rule:nonzero;stroke:none"
                 id="path4140" />
              <path
                 d="m 733.441,727.484 -61.957,43.387 c 0.575,2.52 1.102,5.055 1.59,7.613 l 62.668,-43.882 c -0.738,-2.387 -1.504,-4.758 -2.301,-7.118"
                 style="fill:#b5624b;fill-opacity:1;fill-rule:nonzero;stroke:none"
                 id="path4142" />
              <path
                 d="m 727.711,712.027 -58.66,49.219 c 0.707,2.535 1.367,5.098 1.98,7.676 l 59.418,-49.859 c -0.883,-2.36 -1.797,-4.708 -2.738,-7.036"
                 style="fill:#b5624b;fill-opacity:1;fill-rule:nonzero;stroke:none"
                 id="path4144" />
              <path
                 d="m 720.801,696.34 -54.824,54.824 c 0.847,2.547 1.648,5.117 2.402,7.711 l 55.613,-55.613 c -1.035,-2.328 -2.097,-4.629 -3.191,-6.922"
                 style="fill:#b55a43;fill-opacity:1;fill-rule:nonzero;stroke:none"
                 id="path4146" />
              <path
                 d="m 712.594,680.477 -50.453,60.125 c 1.004,2.543 1.957,5.113 2.863,7.711 l 51.246,-61.071 c -1.191,-2.277 -2.41,-4.531 -3.656,-6.765"
                 style="fill:#b55a43;fill-opacity:1;fill-rule:nonzero;stroke:none"
                 id="path4148" />
              <path
                 d="m 702.965,664.5 -45.547,65.047 c 1.168,2.531 2.289,5.086 3.359,7.672 l 46.321,-66.153 c -1.348,-2.211 -2.727,-4.398 -4.133,-6.566"
                 style="fill:#b55a43;fill-opacity:1;fill-rule:nonzero;stroke:none"
                 id="path4150" />
              <path
                 d="m 691.789,648.52 -40.129,69.507 c 1.34,2.489 2.637,5.016 3.883,7.571 l 40.859,-70.77 c -1.507,-2.129 -3.05,-4.226 -4.613,-6.308"
                 style="fill:#b4533c;fill-opacity:1;fill-rule:nonzero;stroke:none"
                 id="path4152" />
              <path
                 d="m 678.938,632.66 -34.239,73.422 c 1.528,2.43 3.008,4.902 4.438,7.402 l 34.89,-74.824 c -1.672,-2.027 -3.363,-4.027 -5.089,-6"
                 style="fill:#b4533c;fill-opacity:1;fill-rule:nonzero;stroke:none"
                 id="path4154" />
              <path
                 d="m 664.293,617.094 -27.922,76.715 c 1.715,2.343 3.383,4.726 5.004,7.148 l 28.477,-78.234 c -1.829,-1.899 -3.68,-3.782 -5.559,-5.629"
                 style="fill:#b4533c;fill-opacity:1;fill-rule:nonzero;stroke:none"
                 id="path4156" />
              <path
                 d="M 647.746,602.035 626.5,681.332 c 1.902,2.227 3.766,4.5 5.578,6.809 l 21.68,-80.918 c -1.981,-1.758 -3.985,-3.489 -6.012,-5.188"
                 style="fill:#b34b34;fill-opacity:1;fill-rule:nonzero;stroke:none"
                 id="path4158" />
              <path
                 d="m 629.766,625.824 -10.379,17.688 -4.465,25.328 c 2.086,2.078 4.137,4.203 6.137,6.367 l 8.707,-49.383"
                 style="fill:#b34b34;fill-opacity:1;fill-rule:nonzero;stroke:none"
                 id="path4160" />
              <path
                 d="m 670.754,555.98 -3.508,0.907 -2.5,9.332 6.008,-10.239 m -11.465,2.977 -18.586,4.852 -10.937,62.015 15.277,-26.031 6.082,-10.367 8.164,-30.469 m -26.199,6.832 -16.86,4.399 -8.089,92.492 0.113,-0.2 11.133,-18.968 13.703,-77.723 m -24.203,6.309 -15.617,4.07 V 688.02 l 6.437,-10.969 9.18,-104.953"
                 style="fill:#bcbdc0;fill-opacity:1;fill-rule:nonzero;stroke:none"
                 id="path4162" />
              <path
                 d="m 667.246,556.887 -7.957,2.07 -8.164,30.469 13.621,-23.207 2.5,-9.332"
                 style="fill:#b34b34;fill-opacity:1;fill-rule:nonzero;stroke:none"
                 id="path4164" />
              <path
                 d="m 640.703,563.809 -7.613,1.98 -13.703,77.723 10.379,-17.688 10.937,-62.015"
                 style="fill:#b34b34;fill-opacity:1;fill-rule:nonzero;stroke:none"
                 id="path4166" />
              <path
                 d="m 616.23,570.188 -7.343,1.91 -9.18,104.953 8.434,-14.371 8.089,-92.492"
                 style="fill:#b34b34;fill-opacity:1;fill-rule:nonzero;stroke:none"
                 id="path4168" />
              <path
                 d="m 586.117,578.035 -14.762,3.84 10.516,120.207 0.965,3.711 3.281,-5.586 V 578.035 m -21.777,5.672 -12.43,3.238 19.153,73.594 -6.723,-76.832"
                 style="fill:#bcbdc0;fill-opacity:1;fill-rule:nonzero;stroke:none"
                 id="path4170" />
              <path
                 d="m 593.27,576.168 -7.153,1.867 V 700.207 L 593.27,688.02 V 576.168"
                 style="fill:#b3422d;fill-opacity:1;fill-rule:nonzero;stroke:none"
                 id="path4172" />
              <path
                 d="m 571.355,581.875 -7.015,1.832 6.723,76.832 10.808,41.543 -10.516,-120.207"
                 style="fill:#b3422d;fill-opacity:1;fill-rule:nonzero;stroke:none"
                 id="path4174" />
            </g>
          </g>
        </g>
      </g>
    </g>
  </g>
</svg>
