<?xml version="1.0" encoding="UTF-8" standalone="no"?>
<!-- Created with Inkscape (http://www.inkscape.org/) -->

<svg
   width="82.99942mm"
   height="69.566963mm"
   viewBox="0 0 82.99942 69.566963"
   version="1.1"
   id="svg3313"
   inkscape:version="1.2 (1:1.2+202206011327+fc4e4096c5)"
   sodipodi:docname="lidar_range2.svg"
   xmlns:inkscape="http://www.inkscape.org/namespaces/inkscape"
   xmlns:sodipodi="http://sodipodi.sourceforge.net/DTD/sodipodi-0.dtd"
   xmlns="http://www.w3.org/2000/svg"
   xmlns:svg="http://www.w3.org/2000/svg">
  <sodipodi:namedview
     id="namedview3315"
     pagecolor="#ffffff"
     bordercolor="#666666"
     borderopacity="1.0"
     inkscape:showpageshadow="2"
     inkscape:pageopacity="0.0"
     inkscape:pagecheckerboard="0"
     inkscape:deskcolor="#d1d1d1"
     inkscape:document-units="mm"
     showgrid="false"
     inkscape:zoom="2.3786088"
     inkscape:cx="88.707315"
     inkscape:cy="136.63449"
     inkscape:window-width="1920"
     inkscape:window-height="1023"
     inkscape:window-x="0"
     inkscape:window-y="0"
     inkscape:window-maximized="1"
     inkscape:current-layer="g177" />
  <defs
     id="defs3310" />
  <g
     inkscape:label="Layer 1"
     inkscape:groupmode="layer"
     id="layer1"
     transform="translate(-67.97148,-126.18285)">
    <path
       d="M 138.35999,187.22923 H 74.24171"
       style="fill:none;stroke:#a7a9ac;stroke-width:0.141374;stroke-linecap:butt;stroke-linejoin:miter;stroke-miterlimit:4;stroke-dasharray:none;stroke-opacity:1"
       id="path95" />
    <path
       d="M 138.35999,179.21408 H 74.24171"
       style="fill:none;stroke:#a7a9ac;stroke-width:0.141374;stroke-linecap:butt;stroke-linejoin:miter;stroke-miterlimit:4;stroke-dasharray:none;stroke-opacity:1"
       id="path97" />
    <path
       d="M 138.35999,171.19928 H 74.24171"
       style="fill:none;stroke:#a7a9ac;stroke-width:0.141374;stroke-linecap:butt;stroke-linejoin:miter;stroke-miterlimit:4;stroke-dasharray:none;stroke-opacity:1"
       id="path99" />
    <path
       d="M 138.35999,163.18413 H 74.24171"
       style="fill:none;stroke:#a7a9ac;stroke-width:0.141374;stroke-linecap:butt;stroke-linejoin:miter;stroke-miterlimit:4;stroke-dasharray:none;stroke-opacity:1"
       id="path101" />
    <path
       d="M 138.35999,155.16863 H 74.24171"
       style="fill:none;stroke:#a7a9ac;stroke-width:0.141374;stroke-linecap:butt;stroke-linejoin:miter;stroke-miterlimit:4;stroke-dasharray:none;stroke-opacity:1"
       id="path103" />
    <path
       d="M 138.35999,147.15383 H 74.24171"
       style="fill:none;stroke:#a7a9ac;stroke-width:0.141374;stroke-linecap:butt;stroke-linejoin:miter;stroke-miterlimit:4;stroke-dasharray:none;stroke-opacity:1"
       id="path105" />
    <path
       d="M 138.35999,139.13868 H 74.24171"
       style="fill:none;stroke:#a7a9ac;stroke-width:0.141374;stroke-linecap:butt;stroke-linejoin:miter;stroke-miterlimit:4;stroke-dasharray:none;stroke-opacity:1"
       id="path107" />
    <path
       d="M 138.35999,131.12353 H 74.24171"
       style="fill:none;stroke:#a7a9ac;stroke-width:0.141374;stroke-linecap:butt;stroke-linejoin:miter;stroke-miterlimit:4;stroke-dasharray:none;stroke-opacity:1"
       id="path109" />
    <path
       d="m 78.24935,127.1163 v 64.12047"
       style="fill:none;stroke:#a7a9ac;stroke-width:0.141374;stroke-linecap:butt;stroke-linejoin:miter;stroke-miterlimit:4;stroke-dasharray:none;stroke-opacity:1"
       id="path111" />
    <path
       d="m 86.26418,127.1163 v 64.12047"
       style="fill:none;stroke:#a7a9ac;stroke-width:0.141374;stroke-linecap:butt;stroke-linejoin:miter;stroke-miterlimit:4;stroke-dasharray:none;stroke-opacity:1"
       id="path113" />
    <path
       d="m 94.27901,127.1163 v 64.12047"
       style="fill:none;stroke:#a7a9ac;stroke-width:0.141374;stroke-linecap:butt;stroke-linejoin:miter;stroke-miterlimit:4;stroke-dasharray:none;stroke-opacity:1"
       id="path115" />
    <path
       d="m 102.29388,127.1163 v 64.12047"
       style="fill:none;stroke:#a7a9ac;stroke-width:0.141374;stroke-linecap:butt;stroke-linejoin:miter;stroke-miterlimit:4;stroke-dasharray:none;stroke-opacity:1"
       id="path117" />
    <path
       d="m 110.30842,127.1163 v 64.12047"
       style="fill:none;stroke:#a7a9ac;stroke-width:0.141374;stroke-linecap:butt;stroke-linejoin:miter;stroke-miterlimit:4;stroke-dasharray:none;stroke-opacity:1"
       id="path119" />
    <path
       d="m 118.32336,127.1163 v 64.12047"
       style="fill:none;stroke:#a7a9ac;stroke-width:0.141374;stroke-linecap:butt;stroke-linejoin:miter;stroke-miterlimit:4;stroke-dasharray:none;stroke-opacity:1"
       id="path121" />
    <path
       d="m 126.33865,127.1163 v 64.12047"
       style="fill:none;stroke:#a7a9ac;stroke-width:0.141374;stroke-linecap:butt;stroke-linejoin:miter;stroke-miterlimit:4;stroke-dasharray:none;stroke-opacity:1"
       id="path123" />
    <path
       d="m 134.35358,127.1163 v 64.12047"
       style="fill:none;stroke:#a7a9ac;stroke-width:0.141374;stroke-linecap:butt;stroke-linejoin:miter;stroke-miterlimit:4;stroke-dasharray:none;stroke-opacity:1"
       id="path125" />
    <path
       d="M 138.35999,183.22201 H 74.24171"
       style="fill:none;stroke:#231f20;stroke-width:0.141374;stroke-linecap:butt;stroke-linejoin:miter;stroke-miterlimit:4;stroke-dasharray:none;stroke-opacity:1"
       id="path127" />
    <path
       d="M 138.35999,175.20686 H 74.24171"
       style="fill:none;stroke:#231f20;stroke-width:0.141374;stroke-linecap:butt;stroke-linejoin:miter;stroke-miterlimit:4;stroke-dasharray:none;stroke-opacity:1"
       id="path129" />
    <path
       d="M 138.35999,167.19135 H 74.24171"
       style="fill:none;stroke:#231f20;stroke-width:0.141374;stroke-linecap:butt;stroke-linejoin:miter;stroke-miterlimit:4;stroke-dasharray:none;stroke-opacity:1"
       id="path131" />
    <path
       d="M 138.35999,159.17656 H 74.24171"
       style="fill:none;stroke:#231f20;stroke-width:0.141374;stroke-linecap:butt;stroke-linejoin:miter;stroke-miterlimit:4;stroke-dasharray:none;stroke-opacity:1"
       id="path133" />
    <path
       d="M 138.35999,151.1614 H 74.24171"
       style="fill:none;stroke:#231f20;stroke-width:0.141374;stroke-linecap:butt;stroke-linejoin:miter;stroke-miterlimit:4;stroke-dasharray:none;stroke-opacity:1"
       id="path135" />
    <path
       d="M 138.35999,143.14625 H 74.24171"
       style="fill:none;stroke:#231f20;stroke-width:0.141374;stroke-linecap:butt;stroke-linejoin:miter;stroke-miterlimit:4;stroke-dasharray:none;stroke-opacity:1"
       id="path137" />
    <path
       d="M 138.35999,135.1311 H 74.24171"
       style="fill:none;stroke:#231f20;stroke-width:0.141374;stroke-linecap:butt;stroke-linejoin:miter;stroke-miterlimit:4;stroke-dasharray:none;stroke-opacity:1"
       id="path139" />
    <path
       d="m 82.25654,127.1163 v 64.12047"
       style="fill:none;stroke:#231f20;stroke-width:0.141374;stroke-linecap:butt;stroke-linejoin:miter;stroke-miterlimit:4;stroke-dasharray:none;stroke-opacity:1"
       id="path141" />
    <path
       d="m 90.2714,127.1163 v 64.12047"
       style="fill:none;stroke:#231f20;stroke-width:0.141374;stroke-linecap:butt;stroke-linejoin:miter;stroke-miterlimit:4;stroke-dasharray:none;stroke-opacity:1"
       id="path143" />
    <path
       d="m 98.28651,127.1163 v 64.12047"
       style="fill:none;stroke:#231f20;stroke-width:0.141374;stroke-linecap:butt;stroke-linejoin:miter;stroke-miterlimit:4;stroke-dasharray:none;stroke-opacity:1"
       id="path145" />
    <path
       d="m 106.30166,127.1163 v 64.12047"
       style="fill:none;stroke:#231f20;stroke-width:0.141374;stroke-linecap:butt;stroke-linejoin:miter;stroke-miterlimit:4;stroke-dasharray:none;stroke-opacity:1"
       id="path147" />
    <path
       d="m 114.31624,127.1163 v 64.12047"
       style="fill:none;stroke:#231f20;stroke-width:0.141374;stroke-linecap:butt;stroke-linejoin:miter;stroke-miterlimit:4;stroke-dasharray:none;stroke-opacity:1"
       id="path149" />
    <path
       d="m 122.33118,127.1163 v 64.12047"
       style="fill:none;stroke:#231f20;stroke-width:0.141374;stroke-linecap:butt;stroke-linejoin:miter;stroke-miterlimit:4;stroke-dasharray:none;stroke-opacity:1"
       id="path151" />
    <path
       d="m 130.34576,127.1163 v 64.12047"
       style="fill:none;stroke:#231f20;stroke-width:0.141374;stroke-linecap:butt;stroke-linejoin:miter;stroke-miterlimit:4;stroke-dasharray:none;stroke-opacity:1"
       id="path153" />
    <path
       d="M 74.24171,191.23677 V 127.1163 h 64.11828 v 64.12047 H 95.61195 Z"
       style="fill:none;stroke:#231f20;stroke-width:0.141374;stroke-linecap:butt;stroke-linejoin:miter;stroke-miterlimit:4;stroke-dasharray:none;stroke-opacity:1"
       id="path155" />
    <path
       d="m 87.38877,141.85269 c 4.6888,-5.1163 11.42608,-8.32405 18.91289,-8.32405 14.1638,0 25.64688,11.48268 25.64688,25.64827 0,14.16488 -11.48308,25.64792 -25.64688,25.64792 -7.48363,0 -14.21882,-3.20529 -18.90734,-8.31769 l 0.001,-0.001 18.90553,-17.32422 -18.90553,-17.32422"
       style="fill:#f15f66;fill-opacity:1;fill-rule:nonzero;stroke:none;stroke-width:0.0353428"
       id="path157" />
    <path
       d="m 87.38877,141.85269 c 4.6888,-5.1163 11.42608,-8.32405 18.91289,-8.32405 14.1638,0 25.64688,11.48268 25.64688,25.64827 0,14.16488 -11.48308,25.64792 -25.64688,25.64792 -7.48363,0 -14.21882,-3.20529 -18.90734,-8.31769 l 0.001,-0.001 18.90553,-17.32422 -18.90553,-17.32422"
       style="fill:none;stroke:#231f20;stroke-width:0.141374;stroke-linecap:round;stroke-linejoin:miter;stroke-miterlimit:4;stroke-dasharray:none;stroke-opacity:1"
       id="path159" />
    <path
       d="m 85.60826,137.93418 c 5.34348,-5.20607 12.64387,-8.41312 20.69269,-8.41312 16.37764,0 29.6547,13.27742 29.6547,29.65585 0,16.37808 -13.27706,29.65549 -29.6547,29.65549 -8.04508,0 -15.34232,-3.20422 -20.68523,-8.40604"
       style="fill:none;stroke:#231f20;stroke-width:0.141374;stroke-linecap:round;stroke-linejoin:miter;stroke-miterlimit:4;stroke-dasharray:none;stroke-opacity:1"
       id="path161" />
    <path
       d="m 86.92201,138.11372 -1.05776,-0.41882 -0.43295,-1.05181 -0.99775,2.5023 2.48846,-1.03167"
       style="fill:#231f20;fill-opacity:1;fill-rule:nonzero;stroke:none;stroke-width:0.0353428"
       id="path163" />
    <path
       d="m 86.92851,180.24575 -1.05751,0.41882 -0.43281,1.05217 -0.99828,-2.50195 2.4886,1.03096"
       style="fill:#231f20;fill-opacity:1;fill-rule:nonzero;stroke:none;stroke-width:0.0353428"
       id="path165" />
    <path
       d="m 83.04195,180.50128 23.25264,-21.32543 c 0,3.5e-4 -23.25264,-21.32084 -23.25264,-21.32084"
       style="fill:none;stroke:#231f20;stroke-width:0.141374;stroke-linecap:round;stroke-linejoin:miter;stroke-miterlimit:4;stroke-dasharray:none;stroke-opacity:1"
       id="path175" />
    <g
       id="g177"
       transform="matrix(0.3534234,0,0,-0.3534329,67.97148,225.98032)">
      <text
         xml:space="preserve"
         transform="matrix(1,0,0,-1,4.69141,277.038)"
         style="font-style:normal;font-variant:normal;font-weight:normal;font-stretch:normal;font-size:8.00017px;font-family:'CMU Serif';-inkscape-font-specification:'CMU Serif, Normal';font-variant-ligatures:normal;font-variant-caps:normal;font-variant-numeric:normal;font-variant-east-asian:normal;writing-mode:lr-tb;fill:#231f20;fill-opacity:1;fill-rule:nonzero;stroke:none"
         id="text183"><tspan
           x="0 4.6915097"
           y="0"
           sodipodi:role="line"
           id="tspan179">80</tspan><tspan
           x="-4.6914101 -0.00331038 4.6847892"
           y="158.808"
           sodipodi:role="line"
           id="tspan181">–60</tspan></text>
    </g>
    <path
       d="m 131.18585,138.90011 h -7.38973 v -3.50393 h 7.38973 v 3.50393"
       style="fill:#ffffff;fill-opacity:1;fill-rule:nonzero;stroke:none;stroke-width:0.0353428"
       id="path185" />
    <g
       id="g187"
       transform="matrix(0.3534234,0,0,-0.3534329,67.97148,225.98032)">
      <text
         xml:space="preserve"
         transform="matrix(1,0,0,-1,159.025,248.588)"
         style="font-style:normal;font-variant:normal;font-weight:normal;font-stretch:normal;font-size:8.00017px;font-family:'CMU Serif';-inkscape-font-specification:'CMU Serif, Normal';font-variant-ligatures:normal;font-variant-caps:normal;font-variant-numeric:normal;font-variant-east-asian:normal;writing-mode:lr-tb;fill:#231f20;fill-opacity:1;fill-rule:nonzero;stroke:none"
         id="text191"><tspan
           x="0 4.6880994 9.3761988 14.064299"
           y="0"
           sodipodi:role="line"
           id="tspan189">275°</tspan></text>
    </g>
    <path
       d="m 103.12152,161.12256 v 0.0558 h 0.0152 v 0.37429 l 0.004,0.0173 0.0111,0.0106 0.0172,0.01 0.0159,0.004 h 1.04701 l 0.25977,-0.004 0.26153,-0.01 0.26154,-0.0187 0.15798,-0.0152 v -0.002 l 0.13006,0.0208 0.1297,0.0117 0.12971,0.004 v 0.006 h 0.007 0.0463 l 0.38311,0.002 h 0.0442 l 0.008,-0.0555 0.13006,-0.0304 0.12936,-0.0403 0.1297,-0.0477 0.12971,-0.0573 0.13006,-0.0668 0.12971,-0.0763 0.1297,-0.0919 0.12971,-0.10462 0.12971,-0.12017 0.11804,-0.12971 0.10143,-0.13006 0.0884,-0.12971 0.0739,-0.12794 0.0675,-0.12971 0.0548,-0.12971 0.0456,-0.13006 0.0385,-0.12971 0.029,-0.12971 0.0226,-0.12971 0.0152,-0.12971 0.006,-0.13007 v -0.12971 l -0.008,-0.12971 -0.0159,-0.12971 -0.0202,-0.12794 -0.0304,-0.12971 -0.0392,-0.12971 -0.0477,-0.12971 -0.0551,-0.12971 -0.0668,-0.12971 -0.0756,-0.13006 -0.0901,-0.12971 -0.10108,-0.12971 -0.12052,-0.12971 -0.1297,-0.12052 -0.12971,-0.10285 -0.13006,-0.088 -0.12935,-0.0763 -0.13006,-0.0668 -0.12936,-0.0555 -0.13006,-0.0474 -0.1297,-0.0403 -0.11805,-0.0269 v -0.0512 h -0.008 -0.0442 -0.38382 -0.0456 -0.007 v 0.002 l -0.12794,0.005 -0.12971,0.0113 -0.1297,0.0194 -0.006,0.002 -0.26083,-0.0226 -0.26153,-0.0173 -0.26154,-0.008 -0.1548,-0.002 v 0.002 l -1.05115,0.002 v -0.002 l -0.0152,0.004 -0.0173,0.0113 -0.01,0.0173 -0.002,0.0134 v 0.002 0.37217 h -0.0152 v 0.008 0.0438 0.38171 0.0456 0.006 h 0.0131 v 0.0438 2.72356 0.0459 h -0.0131 v 0.005 0.0459 0.37959"
       style="fill:#a7a9ac;fill-opacity:1;fill-rule:nonzero;stroke:none;stroke-width:0.0353428"
       id="path193" />
    <path
       d="m 103.12152,161.12256 v 0.0558 h 0.0152 v 0.37429 l 0.004,0.0173 0.0111,0.0106 0.0172,0.01 0.0159,0.004 h 1.04701 l 0.25977,-0.004 0.26153,-0.01 0.26154,-0.0187 0.15798,-0.0152 v -0.002 l 0.13006,0.0208 0.1297,0.0117 0.12971,0.004 v 0.006 h 0.007 0.0463 l 0.38311,0.002 h 0.0442 l 0.008,-0.0555 0.13006,-0.0304 0.12936,-0.0403 0.1297,-0.0477 0.12971,-0.0573 0.13006,-0.0668 0.12971,-0.0763 0.1297,-0.0919 0.12971,-0.10462 0.12971,-0.12017 0.11804,-0.12971 0.10143,-0.13006 0.0884,-0.12971 0.0739,-0.12794 0.0675,-0.12971 0.0548,-0.12971 0.0456,-0.13006 0.0385,-0.12971 0.029,-0.12971 0.0226,-0.12971 0.0152,-0.12971 0.006,-0.13007 v -0.12971 l -0.008,-0.12971 -0.0159,-0.12971 -0.0202,-0.12794 -0.0304,-0.12971 -0.0392,-0.12971 -0.0477,-0.12971 -0.0551,-0.12971 -0.0668,-0.12971 -0.0756,-0.13006 -0.0901,-0.12971 -0.10108,-0.12971 -0.12052,-0.12971 -0.1297,-0.12052 -0.12971,-0.10285 -0.13006,-0.088 -0.12935,-0.0763 -0.13006,-0.0668 -0.12936,-0.0555 -0.13006,-0.0474 -0.1297,-0.0403 -0.11805,-0.0269 v -0.0512 h -0.008 -0.0442 -0.38382 -0.0456 -0.007 v 0.002 l -0.12794,0.005 -0.12971,0.0113 -0.1297,0.0194 -0.006,0.002 -0.26083,-0.0226 -0.26153,-0.0173 -0.26154,-0.008 -0.1548,-0.002 v 0.002 l -1.05115,0.002 v -0.002 l -0.0152,0.004 -0.0173,0.0113 -0.01,0.0173 -0.002,0.0134 v 0.002 0.37217 h -0.0152 v 0.008 0.0438 0.38171 0.0456 0.006 h 0.0131 v 0.0438 2.72356 0.0459 h -0.0131 v 0.005 0.0459 0.37959"
       style="fill:none;stroke:#231f20;stroke-width:0.141374;stroke-linecap:round;stroke-linejoin:round;stroke-miterlimit:2.6131;stroke-dasharray:none;stroke-opacity:1"
       id="path195" />
    <path
       d="m 103.46296,159.28294 0.004,0.12617 0.0117,0.12583 0.0194,0.12617 0.0262,0.12582 0.0346,0.12406 0.0442,0.12582 0.053,0.12618 0.0615,0.12582 0.0725,0.12617 0.0876,0.12583 0.10072,0.12582 0.11699,0.12617 0.12546,0.11416 0.12617,0.0976 0.12582,0.0841 0.12617,0.0703 0.12582,0.0633 0.12617,0.0495 0.12441,0.0421 0.12547,0.0322 0.12652,0.0251 0.12547,0.0187 0.12581,0.01 0.12618,0.002 0.12582,-0.004 0.12617,-0.0134 0.12546,-0.0212 0.12653,-0.0265 0.12582,-0.0364 0.12617,-0.0456 0.12547,-0.0537 0.12652,-0.0668 0.12547,-0.0742 0.12617,-0.088 0.12617,-0.10496 0.12441,-0.12017 0.11203,-0.12582 0.0944,-0.12406 0.0795,-0.12582 0.0725,-0.12618 0.0572,-0.12582 0.0498,-0.12617 0.0399,-0.12583 0.0329,-0.12617 0.0223,-0.12582 0.0173,-0.12618 0.009,-0.12582 v -0.12582 l -0.005,-0.12618 -0.0155,-0.12582 -0.0208,-0.12618 -0.0304,-0.12582 -0.036,-0.12617 -0.0481,-0.12583 -0.0573,-0.12617 -0.0643,-0.12582 -0.0792,-0.12406 -0.0912,-0.12582 -0.10673,-0.12618 -0.12229,-0.1237 -0.12652,-0.10709 -0.12547,-0.0933 -0.12582,-0.0802 -0.12405,-0.0672 -0.12652,-0.0573 -0.12547,-0.0474 -0.12653,-0.0382 -0.12546,-0.0307 -0.12653,-0.0226 -0.12546,-0.0155 -0.12547,-0.008 h -0.12714 l -0.12547,0.008 -0.12652,0.0173 -0.12547,0.023 -0.12652,0.0304 -0.12547,0.0382 -0.12653,0.0495 -0.12546,0.0572 -0.12617,0.0689 -0.12441,0.0802 -0.12546,0.0937 -0.12582,0.11027 -0.12229,0.12229 -0.10496,0.12582 -0.0894,0.12618 -0.0767,0.12582 -0.065,0.12617 -0.0573,0.12583 -0.0456,0.12617 -0.0364,0.12582 -0.0304,0.12618 -0.0215,0.12582 -0.0131,0.12582 -0.006,0.12618 v 0.036"
       style="fill:#a7a9ac;fill-opacity:1;fill-rule:nonzero;stroke:none;stroke-width:0.0353428"
       id="path197" />
    <path
       d="m 103.46296,159.28294 0.004,0.12617 0.0117,0.12583 0.0194,0.12617 0.0262,0.12582 0.0346,0.12406 0.0442,0.12582 0.053,0.12618 0.0615,0.12582 0.0725,0.12617 0.0876,0.12583 0.10072,0.12582 0.11699,0.12617 0.12546,0.11416 0.12617,0.0976 0.12582,0.0841 0.12617,0.0703 0.12582,0.0633 0.12617,0.0495 0.12441,0.0421 0.12547,0.0322 0.12652,0.0251 0.12547,0.0187 0.12581,0.01 0.12618,0.002 0.12582,-0.004 0.12617,-0.0134 0.12546,-0.0212 0.12653,-0.0265 0.12582,-0.0364 0.12617,-0.0456 0.12547,-0.0537 0.12652,-0.0668 0.12547,-0.0742 0.12617,-0.088 0.12617,-0.10496 0.12441,-0.12017 0.11203,-0.12582 0.0944,-0.12406 0.0795,-0.12582 0.0725,-0.12618 0.0572,-0.12582 0.0498,-0.12617 0.0399,-0.12583 0.0329,-0.12617 0.0223,-0.12582 0.0173,-0.12618 0.009,-0.12582 v -0.12582 l -0.005,-0.12618 -0.0155,-0.12582 -0.0208,-0.12618 -0.0304,-0.12582 -0.036,-0.12617 -0.0481,-0.12583 -0.0573,-0.12617 -0.0643,-0.12582 -0.0792,-0.12406 -0.0912,-0.12582 -0.10673,-0.12618 -0.12229,-0.1237 -0.12652,-0.10709 -0.12547,-0.0933 -0.12582,-0.0802 -0.12405,-0.0672 -0.12652,-0.0573 -0.12547,-0.0474 -0.12653,-0.0382 -0.12546,-0.0307 -0.12653,-0.0226 -0.12546,-0.0155 -0.12547,-0.008 h -0.12714 l -0.12547,0.008 -0.12652,0.0173 -0.12547,0.023 -0.12652,0.0304 -0.12547,0.0382 -0.12653,0.0495 -0.12546,0.0572 -0.12617,0.0689 -0.12441,0.0802 -0.12546,0.0937 -0.12582,0.11027 -0.12229,0.12229 -0.10496,0.12582 -0.0894,0.12618 -0.0767,0.12582 -0.065,0.12617 -0.0573,0.12583 -0.0456,0.12617 -0.0364,0.12582 -0.0304,0.12618 -0.0215,0.12582 -0.0131,0.12582 -0.006,0.12618 v 0.036"
       style="fill:none;stroke:#231f20;stroke-width:0.141374;stroke-linecap:round;stroke-linejoin:round;stroke-miterlimit:2.6131;stroke-dasharray:none;stroke-opacity:1"
       id="path199" />
    <g
       id="g201"
       transform="matrix(0.3534234,0,0,-0.3534329,67.97148,225.98032)">
      <text
         xml:space="preserve"
         transform="matrix(1,0,0,-1,194.472,87.534)"
         style="font-style:normal;font-variant:normal;font-weight:normal;font-stretch:normal;font-size:8.00017px;font-family:'CMU Serif';-inkscape-font-specification:'CMU Serif, Normal';font-variant-ligatures:normal;font-variant-caps:normal;font-variant-numeric:normal;font-variant-east-asian:normal;writing-mode:lr-tb;fill:#231f20;fill-opacity:1;fill-rule:nonzero;stroke:none"
         id="text207"><tspan
           x="0 4.6915174"
           y="0"
           sodipodi:role="line"
           id="tspan203">80 (metros)</tspan><tspan
           x="-186.041 -181.35291 -176.66479"
           y="0.56406301"
           sodipodi:role="line"
           id="tspan205">–80</tspan></text>
    </g>
    <g
       id="g41"
       transform="matrix(0.3534234,0,0,-0.3534329,112.77299,340.69298)" />
  </g>
</svg>
