<?xml version="1.0" encoding="UTF-8" standalone="no"?>
<svg
   id="Layer_1"
   viewBox="0 0 381.85999 211.94"
   version="1.1"
   sodipodi:docname="pinhole_camera_virtual_image.svg"
   width="381.85999"
   height="211.94"
   inkscape:version="1.3 (1:1.3+202307231459+0e150ed6c4)"
   xmlns:inkscape="http://www.inkscape.org/namespaces/inkscape"
   xmlns:sodipodi="http://sodipodi.sourceforge.net/DTD/sodipodi-0.dtd"
   xmlns="http://www.w3.org/2000/svg"
   xmlns:svg="http://www.w3.org/2000/svg">
  <sodipodi:namedview
     id="namedview148"
     pagecolor="#ffffff"
     bordercolor="#666666"
     borderopacity="1.0"
     inkscape:showpageshadow="2"
     inkscape:pageopacity="0.0"
     inkscape:pagecheckerboard="0"
     inkscape:deskcolor="#d1d1d1"
     inkscape:zoom="2.2756098"
     inkscape:cx="180.39121"
     inkscape:cy="108.54234"
     inkscape:window-width="1850"
     inkscape:window-height="1016"
     inkscape:window-x="1436"
     inkscape:window-y="27"
     inkscape:window-maximized="1"
     inkscape:current-layer="Layer_1" />
  <style
     id="style1">text[font-family=&quot;'DejaVuSans'&quot;] {font-family: 'DejaVu Sans', Ariel, Helvetica, sans-serif; font-style: normal; font-weight: normal;}&#10;</style>
  <defs
     id="defs2">
    <style
       id="style2">.cls-1{stroke:#595a5c;}.cls-1,.cls-2,.cls-3,.cls-4,.cls-5,.cls-6,.cls-7{fill:none;}.cls-1,.cls-5{stroke-width:4px;}.cls-8{fill:#a7a9ac;}.cls-9{fill:#019547;}.cls-2,.cls-10,.cls-4,.cls-6,.cls-11{stroke-width:2px;}.cls-2,.cls-11{stroke:#764d2a;}.cls-12{isolation:isolate;opacity:.6;}.cls-12,.cls-10{fill:#f2f2f2;}.cls-13{fill:#2a3c90;}.cls-14,.cls-11{fill:#764d2a;}.cls-10,.cls-4{stroke:#2075bc;}.cls-3{stroke:#a7a9ac;stroke-miterlimit:10;}.cls-15{opacity:.48;}.cls-5{stroke:#bdbec0;}.cls-6{stroke:#2a3c90;}.cls-7{stroke:#f89521;}.cls-16{fill:#231f20;}.cls-17{opacity:.23;}</style>
  </defs>
  <g
     id="g9"
     transform="translate(-23.17,-5.88)">
    <path
       class="cls-16"
       d="m 24.59,143.53 h 4.13 v 1 h -5.55 v -1 c 0.45,-0.46 1.06,-1.09 1.84,-1.87 0.78,-0.78 1.26,-1.29 1.46,-1.51 0.38,-0.43 0.64,-0.79 0.79,-1.08 0.15,-0.29 0.23,-0.58 0.23,-0.87 0,-0.46 -0.16,-0.84 -0.49,-1.14 -0.33,-0.3 -0.75,-0.44 -1.27,-0.44 -0.37,0 -0.76,0.06 -1.17,0.19 -0.41,0.13 -0.85,0.32 -1.32,0.59 v -1.2 c 0.48,-0.19 0.92,-0.34 1.34,-0.43 0.42,-0.09 0.79,-0.15 1.14,-0.15 0.91,0 1.63,0.23 2.17,0.68 0.54,0.45 0.81,1.06 0.81,1.82 0,0.36 -0.07,0.7 -0.2,1.02 -0.13,0.32 -0.38,0.7 -0.74,1.14 -0.1,0.11 -0.41,0.44 -0.93,0.98 -0.52,0.54 -1.26,1.3 -2.21,2.27 z"
       id="path2" />
    <path
       class="cls-16"
       d="m 30.51,140.76 h 3.16 v 0.96 h -3.16 z"
       id="path3" />
    <path
       class="cls-16"
       d="m 35.43,135.78 h 2.43 c 1.7,0 2.94,0.35 3.73,1.06 0.79,0.71 1.19,1.81 1.19,3.31 0,1.5 -0.4,2.62 -1.2,3.32 -0.8,0.7 -2.04,1.06 -3.73,1.06 h -2.43 v -8.75 z m 1.18,0.97 v 6.8 h 1.43 c 1.21,0 2.09,-0.27 2.65,-0.82 0.56,-0.55 0.84,-1.41 0.84,-2.59 0,-1.18 -0.28,-2.03 -0.84,-2.58 -0.56,-0.55 -1.44,-0.82 -2.65,-0.82 h -1.43 z"
       id="path4" />
    <path
       class="cls-16"
       d="m 48.44,135.41 h 1.08 v 1.37 h -1.08 z m 0,2.55 h 1.08 v 6.56 h -1.08 z"
       id="path5" />
    <path
       class="cls-16"
       d="m 56.88,139.22 c 0.27,-0.48 0.59,-0.84 0.97,-1.07 0.38,-0.23 0.82,-0.35 1.32,-0.35 0.68,0 1.21,0.24 1.58,0.72 0.37,0.48 0.56,1.16 0.56,2.04 v 3.96 h -1.08 v -3.93 c 0,-0.63 -0.11,-1.1 -0.33,-1.4 -0.22,-0.3 -0.56,-0.46 -1.02,-0.46 -0.56,0 -1,0.19 -1.32,0.56 -0.32,0.37 -0.49,0.88 -0.49,1.52 v 3.71 h -1.08 v -3.93 c 0,-0.63 -0.11,-1.1 -0.33,-1.4 -0.22,-0.3 -0.57,-0.45 -1.03,-0.45 -0.55,0 -0.99,0.19 -1.31,0.56 -0.32,0.37 -0.49,0.88 -0.49,1.51 v 3.71 h -1.08 v -6.56 h 1.08 v 1.02 c 0.25,-0.4 0.54,-0.7 0.88,-0.89 0.34,-0.19 0.75,-0.29 1.22,-0.29 0.47,0 0.88,0.12 1.22,0.36 0.34,0.24 0.58,0.59 0.74,1.05 z"
       id="path6" />
    <path
       class="cls-16"
       d="m 68.6,140.78 v 3.74 h -1.08 v -1 c -0.25,0.4 -0.55,0.69 -0.92,0.88 -0.37,0.19 -0.82,0.28 -1.35,0.28 -0.67,0 -1.21,-0.19 -1.6,-0.57 -0.39,-0.38 -0.59,-0.88 -0.59,-1.51 0,-0.74 0.25,-1.29 0.74,-1.67 0.49,-0.38 1.23,-0.56 2.21,-0.56 h 1.51 v -0.11 c 0,-0.5 -0.16,-0.88 -0.49,-1.15 -0.33,-0.27 -0.78,-0.41 -1.37,-0.41 -0.38,0 -0.74,0.04 -1.1,0.13 -0.36,0.09 -0.7,0.22 -1.03,0.4 v -1 c 0.39,-0.15 0.78,-0.27 1.15,-0.34 0.37,-0.07 0.73,-0.11 1.08,-0.11 0.95,0 1.66,0.25 2.13,0.74 0.47,0.49 0.7,1.24 0.7,2.24 z m -2.15,0.45 c -0.87,0 -1.47,0.1 -1.81,0.3 -0.34,0.2 -0.5,0.54 -0.5,1.02 0,0.38 0.13,0.69 0.38,0.91 0.25,0.22 0.59,0.34 1.03,0.34 0.6,0 1.08,-0.21 1.44,-0.64 0.36,-0.43 0.54,-0.99 0.54,-1.69 v -0.24 h -1.07 z"
       id="path7" />
    <path
       class="cls-16"
       d="m 76.21,143.71 c 0,1.12 -0.25,1.95 -0.74,2.49 -0.49,0.54 -1.26,0.82 -2.28,0.82 -0.38,0 -0.74,-0.03 -1.07,-0.08 -0.33,-0.05 -0.66,-0.14 -0.98,-0.26 v -1.05 c 0.32,0.17 0.63,0.3 0.94,0.38 0.31,0.08 0.62,0.12 0.94,0.12 0.71,0 1.24,-0.18 1.59,-0.55 0.35,-0.37 0.53,-0.93 0.53,-1.67 v -0.53 c -0.22,0.39 -0.51,0.68 -0.86,0.87 -0.35,0.19 -0.76,0.29 -1.25,0.29 -0.8,0 -1.45,-0.31 -1.95,-0.92 -0.5,-0.61 -0.74,-1.43 -0.74,-2.44 0,-1.01 0.25,-1.83 0.74,-2.44 0.49,-0.61 1.14,-0.92 1.95,-0.92 0.48,0 0.9,0.1 1.25,0.29 0.35,0.19 0.63,0.48 0.86,0.87 v -1 h 1.08 v 5.75 z m -1.08,-2.54 c 0,-0.78 -0.16,-1.39 -0.48,-1.82 -0.32,-0.43 -0.77,-0.64 -1.36,-0.64 -0.59,0 -1.03,0.21 -1.35,0.64 -0.32,0.43 -0.48,1.04 -0.48,1.82 0,0.78 0.16,1.38 0.48,1.81 0.32,0.43 0.77,0.64 1.35,0.64 0.58,0 1.03,-0.21 1.36,-0.64 0.33,-0.43 0.48,-1.03 0.48,-1.81 z"
       id="path8" />
    <path
       class="cls-16"
       d="m 84.05,140.98 v 0.53 h -4.96 c 0.05,0.74 0.27,1.31 0.67,1.7 0.4,0.39 0.96,0.58 1.67,0.58 0.41,0 0.82,-0.05 1.2,-0.15 0.38,-0.1 0.77,-0.25 1.16,-0.46 v 1.02 c -0.39,0.16 -0.78,0.29 -1.19,0.38 -0.41,0.09 -0.82,0.13 -1.24,0.13 -1.05,0 -1.88,-0.3 -2.49,-0.91 -0.61,-0.61 -0.92,-1.43 -0.92,-2.47 0,-1.04 0.29,-1.93 0.87,-2.56 0.58,-0.63 1.36,-0.95 2.35,-0.95 0.88,0 1.58,0.28 2.09,0.85 0.51,0.57 0.77,1.34 0.77,2.32 z m -1.08,-0.32 c 0,-0.59 -0.17,-1.06 -0.5,-1.41 -0.33,-0.35 -0.75,-0.53 -1.28,-0.53 -0.6,0 -1.08,0.17 -1.44,0.51 -0.36,0.34 -0.57,0.82 -0.62,1.44 h 3.84 z"
       id="path9" />
  </g>
  <polyline
     class="cls-4"
     points="102.22 159.98 102.22 105.88 155.72 85.08 155.72 139.38"
     id="polyline9"
     transform="translate(-23.17,-5.88)" />
  <line
     class="cls-4"
     x1="132.55"
     x2="183.95"
     y1="133.29999"
     y2="161.79999"
     id="line9" />
  <path
     class="cls-6"
     d="m 161.15,125.8 c 0,2.3 -1.9,4.2 -4.2,4.2 -2.3,0 -4.2,-1.9 -4.2,-4.2 0,-2.3 1.9,-4.2 4.2,-4.2 2.3,0 4.2,1.9 4.2,4.2 z"
     id="path10" />
  <g
     id="g33"
     transform="translate(-23.17,-5.88)">
    <path
       class="cls-9"
       d="m 347.12,82.28 c 0,9.2 -9.6,16.7 -21.4,16.7 -11.8,0 -21.4,-7.5 -21.4,-16.7 0,-9.2 9.6,-16.7 21.4,-16.7 11.8,0 21.4,7.5 21.4,16.7 z"
       id="path11" />
    <path
       class="cls-9"
       d="m 344.72,72.38 c 0,9.7 -8.5,17.5 -19.1,17.5 -10.6,0 -19.1,-7.8 -19.1,-17.5 0,-9.7 8.5,-17.5 19.1,-17.5 10.6,0 19.1,7.8 19.1,17.5 z"
       id="path12" />
    <path
       class="cls-9"
       d="m 350.92,66.98 c 0,7.7 -7.8,14 -17.5,14 -9.7,0 -17.5,-6.3 -17.5,-14 0,-7.7 7.8,-14 17.5,-14 9.6,0 17.5,6.3 17.5,14 z"
       id="path13" />
    <path
       class="cls-9"
       d="m 357.92,72.38 c 0,8.2 -5.9,14.9 -13.2,14.9 -7.3,0 -13.2,-6.7 -13.2,-14.9 0,-8.2 5.9,-14.9 13.2,-14.9 7.3,0 13.2,6.7 13.2,14.9 z"
       id="path14" />
    <path
       class="cls-9"
       d="m 360.92,82.28 c 0,7.5 -10.1,13.6 -22.6,13.6 -12.5,0 -22.6,-6.1 -22.6,-13.6 0,-7.5 10.1,-13.6 22.6,-13.6 12.5,0 22.6,6.1 22.6,13.6 z"
       id="path15" />
    <path
       class="cls-9"
       d="m 335.12,90.78 c 0,7.7 -6,13.9 -13.5,13.9 -7.5,0 -13.5,-6.2 -13.5,-13.9 0,-7.7 6,-13.9 13.5,-13.9 7.5,-0.1 13.5,6.2 13.5,13.9 z"
       id="path16" />
    <path
       class="cls-9"
       d="m 359.82,87.28 c 0,7.5 -6.1,13.6 -13.7,13.6 -7.6,0 -13.7,-6.1 -13.7,-13.6 0,-7.5 6.1,-13.6 13.7,-13.6 7.6,0.1 13.7,6.1 13.7,13.6 z"
       id="path17" />
    <g
       id="g32">
      <path
         class="cls-2"
         d="m 329.12,106.58 c 0,18.5 -4.2,33.4 -9.3,33.4"
         id="path18" />
      <rect
         class="cls-11"
         height="33.400002"
         width="7.9000001"
         x="329.12"
         y="106.58"
         id="rect18" />
      <path
         class="cls-2"
         d="m 336.12,105.98 c 0,18.5 4.2,33.4 9.3,33.4"
         id="path19" />
      <rect
         class="cls-14"
         height="5.5999999"
         width="15.7"
         x="325.01999"
         y="134.38"
         id="rect19" />
      <rect
         class="cls-14"
         height="5.5999999"
         width="13.2"
         x="326.62"
         y="129.88"
         id="rect20" />
      <rect
         class="cls-14"
         height="1.2"
         width="20.4"
         x="322.82001"
         y="138.28"
         id="rect21" />
      <rect
         class="cls-14"
         height="1.2"
         width="19"
         x="323.12"
         y="137.08"
         id="rect22" />
      <rect
         class="cls-14"
         height="1.2"
         width="14.8"
         x="324.12"
         y="136.17999"
         id="rect23" />
      <rect
         class="cls-14"
         height="2.2"
         width="1.5"
         x="339.82001"
         y="135.38"
         id="rect24" />
      <rect
         class="cls-14"
         height="3.7"
         width="0.60000002"
         x="326.01999"
         y="131.67999"
         id="rect25" />
      <g
         id="g26">
        <rect
           class="cls-14"
           height="1.9"
           width="0.89999998"
           x="325.72"
           y="133.58"
           id="rect26" />
        <path
           class="cls-14"
           d="m 326.62,133.88 h -0.9 l 1.5,1.5 v -1.8 l -1.5,1.5 h 0.9 l -1.5,-1.5 v 1.8 c 0,0.4 0.2,0.8 0.4,1.1 0.1,0.1 0.3,0.2 0.5,0.3 0.2,0.1 0.4,0.1 0.6,0.1 0.4,0 0.8,-0.1 1.1,-0.4 0.3,-0.3 0.4,-0.7 0.4,-1.1 v -1.8 c 0,-0.8 -0.7,-1.5 -1.5,-1.5 h -0.9 c -0.8,0 -1.5,0.7 -1.5,1.5 v 1.8 c 0,0.8 0.7,1.5 1.5,1.5 h 0.9 c 0.4,0 0.8,-0.2 1.1,-0.4 0.1,-0.1 0.2,-0.3 0.3,-0.5 0.1,-0.2 0.1,-0.4 0.1,-0.6 0,-0.4 -0.1,-0.8 -0.4,-1.1 -0.4,-0.2 -0.7,-0.4 -1.1,-0.4 z"
           id="path26" />
      </g>
      <path
         class="cls-14"
         d="m 326.62,123.78 v 0.5 c 0,0.2 0.1,-0.3 0,-0.2 0,0.3 -0.1,0.5 -0.1,0.8 -0.1,0.6 -0.2,1.1 -0.3,1.7 -0.2,1.3 -0.4,2.7 0.3,4 0.3,0.5 0.9,0.8 1.5,0.7 0.6,-0.1 1,-0.5 1.2,-1.1 0.1,-0.2 -0.2,0.4 -0.1,0.1 0,-0.1 0.1,-0.1 0.1,-0.2 0.1,-0.1 0.1,-0.2 0.2,-0.4 0.2,-0.4 0.4,-0.8 0.4,-1.2 0.1,-0.8 -0.7,-1.5 -1.5,-1.5 -0.9,0 -1.4,0.7 -1.5,1.5 0,-0.4 0.1,-0.4 0,-0.3 0,0.2 0.2,-0.4 0.1,-0.2 -0.1,0.1 -0.1,0.2 -0.2,0.3 -0.2,0.3 -0.3,0.6 -0.4,0.9 0.9,-0.1 1.8,-0.2 2.7,-0.4 -0.2,-0.3 0.1,0.3 0,0 l -0.1,-0.3 c 0,0 0,0.5 0,0.2 v -1.2 c 0,-0.1 0,-0.3 0,0 0,0.3 0,0 0,0 v -0.2 c 0,-0.1 0,-0.3 0.1,-0.4 0.2,-1.1 0.5,-2.2 0.5,-3.3 0,-0.8 -0.7,-1.5 -1.5,-1.5 -0.7,0.3 -1.3,0.9 -1.4,1.7 z"
         id="path27" />
      <path
         class="cls-14"
         d="m 336.22,128.88 0.1,0.1 c -0.1,-0.1 -0.2,-0.2 -0.2,-0.3 0.1,0.2 0.3,0.4 0.3,0.6 -0.1,-0.1 -0.1,-0.2 -0.2,-0.4 0.3,0.6 0.4,1.3 0.5,1.9 0.1,0.4 0.4,0.7 0.7,0.9 0.3,0.2 0.8,0.3 1.2,0.2 0.4,-0.1 0.7,-0.3 0.9,-0.7 0.2,-0.4 0.3,-0.8 0.2,-1.2 -0.1,-0.5 -0.2,-0.9 -0.3,-1.4 -0.1,-0.3 -0.2,-0.6 -0.4,-1 -0.2,-0.3 -0.4,-0.6 -0.6,-0.9 -0.2,-0.3 -0.7,-0.4 -1.1,-0.4 -0.4,0 -0.8,0.2 -1.1,0.4 -0.3,0.3 -0.5,0.7 -0.4,1.1 0,0.1 0,0.3 0.1,0.4 0,0.3 0.1,0.5 0.3,0.7 z"
         id="path28" />
      <path
         class="cls-14"
         d="m 325.32,136.28 c -0.1,0 -0.2,0.1 -0.4,0.1 0.2,0 0.3,-0.1 0.4,-0.1 -0.2,0.1 -0.5,0.1 -0.7,0.1 -0.2,0 -0.4,0 -0.6,0.1 -0.2,0.1 -0.3,0.2 -0.5,0.3 -0.1,0.1 -0.2,0.3 -0.3,0.5 -0.1,0.2 -0.1,0.4 -0.1,0.6 0,0.1 0,0.3 0.1,0.4 0.1,0.3 0.2,0.5 0.4,0.7 0.1,0.1 0.2,0.2 0.3,0.2 0.2,0.1 0.5,0.2 0.8,0.2 h 0.6 c 0.2,0 0.4,0 0.7,-0.1 0.1,0 0.2,0 0.3,-0.1 0.2,0 0.4,-0.1 0.5,-0.3 0.2,-0.1 0.3,-0.2 0.4,-0.4 0.1,-0.2 0.2,-0.4 0.2,-0.6 v -0.6 c -0.1,-0.1 -0.1,-0.2 -0.2,-0.4 -0.1,-0.2 -0.3,-0.4 -0.5,-0.5 -0.1,-0.1 -0.2,-0.1 -0.4,-0.2 -0.5,0 -0.8,0 -1,0.1 z"
         id="path29" />
      <path
         class="cls-14"
         d="m 322.02,141.08 c 7,0 14,0.1 21,0.1 1.9,0 1.9,-3 0,-3 -7,0 -14,-0.1 -21,-0.1 -2,0 -2,3 0,3 z"
         id="path30" />
      <path
         class="cls-14"
         d="m 339.02,137.38 c 0.3,0.7 0.9,1.2 1.2,1.9 0.1,0.2 0.2,0.3 0.4,0.4 0.1,0.1 0.3,0.2 0.5,0.3 0.2,0.1 0.4,0.1 0.6,0 0.2,0 0.4,-0.1 0.6,-0.2 0.3,-0.2 0.6,-0.5 0.7,-0.9 0,-0.1 0,-0.3 0.1,-0.4 0,-0.3 -0.1,-0.5 -0.2,-0.8 -0.3,-0.7 -0.9,-1.2 -1.2,-1.9 -0.1,-0.2 -0.2,-0.3 -0.4,-0.4 -0.1,-0.1 -0.3,-0.2 -0.5,-0.3 -0.2,-0.1 -0.4,-0.1 -0.6,0 -0.2,0 -0.4,0.1 -0.6,0.2 -0.3,0.2 -0.6,0.5 -0.7,0.9 0,0.1 0,0.3 -0.1,0.4 0,0.3 0,0.5 0.2,0.8 z"
         id="path31" />
      <path
         class="cls-14"
         d="m 342.62,141.48 h 1.5 c 0.2,0 0.4,0 0.6,-0.1 0.2,-0.1 0.3,-0.2 0.5,-0.3 0.1,-0.1 0.2,-0.3 0.3,-0.5 0.1,-0.2 0.1,-0.4 0.1,-0.6 0,-0.1 0,-0.3 -0.1,-0.4 -0.1,-0.3 -0.2,-0.5 -0.4,-0.7 -0.3,-0.3 -0.7,-0.4 -1.1,-0.4 h -1.5 c -0.2,0 -0.4,0 -0.6,0.1 -0.2,0.1 -0.3,0.2 -0.5,0.3 -0.1,0.1 -0.2,0.3 -0.3,0.5 -0.1,0.2 -0.1,0.4 -0.1,0.6 0,0.1 0,0.3 0.1,0.4 0.1,0.3 0.2,0.5 0.4,0.7 0.4,0.2 0.7,0.4 1.1,0.4 z"
         id="path32" />
    </g>
    <ellipse
       class="cls-9"
       cx="335.12"
       cy="94.580002"
       rx="16.200001"
       ry="13.6"
       id="ellipse32" />
  </g>
  <polygon
     class="cls-10"
     points="214.82,134.28 268.22,154.98 268.22,100.78 214.82,80.08 "
     id="polygon33"
     transform="translate(-23.17,-5.88)" />
  <g
     class="cls-17"
     id="g55"
     transform="translate(-23.17,-5.88)">
    <path
       class="cls-9"
       d="m 231.82,112.78 c 0,3.2 3.3,5.8 7.4,5.8 4.1,0 7.4,-2.6 7.4,-5.8 0,-3.2 -3.3,-5.8 -7.4,-5.8 -4.1,0 -7.4,2.6 -7.4,5.8 z"
       id="path33" />
    <path
       class="cls-9"
       d="m 232.62,109.38 c 0,3.4 2.9,6.1 6.6,6.1 3.7,0 6.6,-2.7 6.6,-6.1 0,-3.4 -2.9,-6.1 -6.6,-6.1 -3.6,0 -6.6,2.7 -6.6,6.1 z"
       id="path34" />
    <path
       class="cls-9"
       d="m 230.52,107.48 c 0,2.7 2.7,4.9 6,4.9 3.3,0 6,-2.2 6,-4.9 0,-2.7 -2.7,-4.9 -6,-4.9 -3.3,0 -6,2.2 -6,4.9 z"
       id="path35" />
    <path
       class="cls-9"
       d="m 228.12,109.38 c 0,2.9 2,5.2 4.5,5.2 2.5,0 4.5,-2.3 4.5,-5.2 0,-2.9 -2,-5.2 -4.5,-5.2 -2.5,0 -4.5,2.3 -4.5,5.2 z"
       id="path36" />
    <path
       class="cls-9"
       d="m 227.12,112.78 c 0,2.6 3.5,4.7 7.7,4.7 4.2,0 7.7,-2.1 7.7,-4.7 0,-2.6 -3.5,-4.7 -7.7,-4.7 -4.2,0 -7.7,2.1 -7.7,4.7 z"
       id="path37" />
    <path
       class="cls-9"
       d="m 235.92,115.78 c 0,2.7 2.1,4.8 4.6,4.8 2.5,0 4.6,-2.2 4.6,-4.8 0,-2.6 -2.1,-4.8 -4.6,-4.8 -2.5,-0.1 -4.6,2.1 -4.6,4.8 z"
       id="path38" />
    <path
       class="cls-9"
       d="m 227.42,114.58 c 0,2.6 2.1,4.7 4.7,4.7 2.6,0 4.7,-2.1 4.7,-4.7 0,-2.6 -2.1,-4.7 -4.7,-4.7 -2.6,0 -4.7,2.1 -4.7,4.7 z"
       id="path39" />
    <g
       id="g54">
      <path
         class="cls-2"
         d="m 238.02,121.28 c 0,6.4 1.4,11.6 3.2,11.6"
         id="path40" />
      <rect
         class="cls-11"
         height="11.6"
         width="2.7"
         x="235.32001"
         y="121.28"
         id="rect40" />
      <path
         class="cls-2"
         d="m 235.62,121.08 c 0,6.4 -1.4,11.6 -3.2,11.6"
         id="path41" />
      <rect
         class="cls-14"
         height="1.9"
         width="5.4000001"
         x="234.02"
         y="130.98"
         id="rect41" />
      <rect
         class="cls-14"
         height="1.9"
         width="4.5"
         x="234.32001"
         y="129.38"
         id="rect42" />
      <rect
         class="cls-14"
         height="0.40000001"
         width="7"
         x="233.22"
         y="132.28"
         id="rect43" />
      <rect
         class="cls-14"
         height="0.40000001"
         width="6.5"
         x="233.52"
         y="131.88"
         id="rect44" />
      <rect
         class="cls-14"
         height="0.40000001"
         width="5.0999999"
         x="234.62"
         y="131.58"
         id="rect45" />
      <rect
         class="cls-14"
         height="0.80000001"
         width="0.5"
         x="233.82001"
         y="131.28"
         id="rect46" />
      <rect
         class="cls-14"
         height="1.3"
         width="0.2"
         x="238.92"
         y="129.98"
         id="rect47" />
      <g
         id="g48">
        <rect
           class="cls-14"
           height="0.69999999"
           width="0.30000001"
           x="238.92"
           y="130.67999"
           id="rect48" />
        <path
           class="cls-14"
           d="m 238.92,132.78 h 0.3 c 0.2,0 0.4,0 0.6,-0.1 0.2,-0.1 0.3,-0.2 0.5,-0.3 0.1,-0.1 0.2,-0.2 0.2,-0.3 0.1,-0.2 0.2,-0.5 0.2,-0.8 v -0.7 c 0,-0.2 0,-0.4 -0.1,-0.6 -0.1,-0.2 -0.2,-0.3 -0.3,-0.5 -0.1,-0.1 -0.2,-0.2 -0.3,-0.2 -0.2,-0.1 -0.5,-0.2 -0.8,-0.2 h -0.3 c -0.2,0 -0.4,0 -0.6,0.1 -0.2,0.1 -0.3,0.2 -0.5,0.3 -0.1,0.1 -0.2,0.2 -0.2,0.3 -0.1,0.2 -0.2,0.5 -0.2,0.8 v 0.7 c 0,0.2 0,0.4 0.1,0.6 0.1,0.2 0.2,0.3 0.3,0.5 0.1,0.1 0.3,0.2 0.5,0.3 0.2,0.1 0.3,0.1 0.6,0.1 0.1,0 0.3,0 0.4,-0.1 0.3,-0.1 0.5,-0.2 0.7,-0.4 0.1,-0.1 0.2,-0.2 0.2,-0.3 0.1,-0.2 0.2,-0.5 0.2,-0.8 v -0.7 l -1.5,1.5 h 0.3 l -1.5,-1.5 v 0.7 l 1.5,-1.5 h -0.3 c -0.2,0 -0.4,0 -0.6,0.1 -0.2,0.1 -0.3,0.2 -0.5,0.3 -0.1,0.1 -0.2,0.3 -0.3,0.5 -0.1,0.2 -0.1,0.4 -0.1,0.6 0,0.1 0,0.3 0.1,0.4 0.1,0.3 0.2,0.5 0.4,0.7 0.1,0.1 0.2,0.2 0.3,0.2 0.1,0.3 0.4,0.3 0.7,0.3 z"
           id="path48" />
      </g>
      <path
         class="cls-14"
         d="m 236.82,127.28 c 0,0.6 0.2,1.1 0.3,1.7 0,-0.1 0,-0.3 -0.1,-0.4 v 0.5 c 0,-0.1 0,-0.3 0.1,-0.4 q 0,0.1 -0.1,0.2 c 0.1,-0.1 0.1,-0.2 0.2,-0.4 v 0 c 0.9,0.1 1.8,0.2 2.7,0.4 -0.1,-0.3 -0.2,-0.5 -0.3,-0.7 0.1,0.1 0.1,0.2 0.2,0.4 v -0.1 c 0,0.1 0,0.3 0.1,0.4 v 0 c 0,-0.2 0,-0.4 -0.1,-0.6 -0.1,-0.2 -0.2,-0.3 -0.3,-0.5 -0.1,-0.1 -0.3,-0.2 -0.5,-0.3 -0.2,-0.1 -0.4,-0.1 -0.6,-0.1 -0.4,0 -0.8,0.1 -1.1,0.4 -0.3,0.3 -0.5,0.7 -0.4,1.1 0,0.1 0,0.3 0.1,0.5 0.1,0.2 0.1,0.3 0.2,0.4 0,0.1 0.1,0.2 0.1,0.2 -0.1,-0.1 -0.1,-0.2 -0.2,-0.4 v 0 c 0.1,0.2 0.2,0.5 0.4,0.7 0.1,0.1 0.2,0.2 0.3,0.2 0.2,0.1 0.4,0.2 0.6,0.2 h 0.4 c 0.1,0 0.3,0 0.4,-0.1 0.1,0 0.2,-0.1 0.3,-0.2 0.2,-0.1 0.3,-0.2 0.4,-0.4 0.2,-0.4 0.3,-0.7 0.3,-1.1 0,-0.3 0,-0.6 -0.1,-0.9 -0.1,-0.3 -0.1,-0.7 -0.2,-1 0,0.1 0,0.3 0.1,0.4 v -0.2 c 0,-0.4 -0.2,-0.8 -0.4,-1.1 -0.1,-0.1 -0.3,-0.2 -0.5,-0.3 -0.2,-0.1 -0.4,-0.1 -0.6,-0.1 -0.4,0 -0.8,0.1 -1.1,0.4 -0.4,0.4 -0.6,0.8 -0.6,1.2 z"
         id="path49" />
      <path
         class="cls-14"
         d="m 234.12,127.58 c -0.1,0.1 -0.2,0.2 -0.3,0.3 v 0.1 c 0,0 0,0.1 -0.1,0.1 -0.1,0.1 -0.1,0.3 -0.2,0.4 v 0.2 c 0,0.2 -0.1,0.3 -0.1,0.5 -0.1,0.2 -0.1,0.4 0,0.6 0,0.2 0.1,0.4 0.2,0.6 0.1,0.2 0.2,0.3 0.4,0.4 0.1,0.1 0.3,0.2 0.5,0.3 0.1,0 0.3,0 0.4,0.1 0.3,0 0.5,-0.1 0.8,-0.2 0.1,-0.1 0.2,-0.2 0.3,-0.2 0.2,-0.2 0.3,-0.4 0.4,-0.7 0.1,-0.2 0.1,-0.4 0.2,-0.7 -0.1,0.1 -0.1,0.2 -0.2,0.4 0,-0.1 0.1,-0.1 0.1,-0.2 -0.1,0.1 -0.2,0.2 -0.2,0.3 v 0 c 0.1,-0.1 0.2,-0.3 0.3,-0.5 0.1,-0.2 0.1,-0.4 0.1,-0.6 0,-0.2 0,-0.4 -0.1,-0.6 -0.1,-0.2 -0.2,-0.3 -0.3,-0.5 -0.1,-0.1 -0.2,-0.2 -0.3,-0.2 -0.2,-0.1 -0.5,-0.2 -0.8,-0.2 -0.1,0 -0.3,0 -0.4,0.1 -0.3,-0.1 -0.5,0 -0.7,0.2 z"
         id="path50" />
      <path
         class="cls-14"
         d="m 238.82,133.58 v 0 c 0.3,0.1 0.4,0.1 0.6,0.1 h 0.2 c 0.2,0 0.4,0 0.6,-0.1 0.2,-0.1 0.3,-0.2 0.5,-0.3 0.1,-0.1 0.2,-0.3 0.3,-0.5 0.1,-0.2 0.1,-0.4 0.1,-0.6 0,-0.1 0,-0.3 -0.1,-0.4 -0.1,-0.3 -0.2,-0.5 -0.4,-0.7 -0.1,-0.1 -0.2,-0.2 -0.3,-0.2 -0.2,-0.1 -0.5,-0.2 -0.8,-0.2 h -0.3 c 0.1,0 0.3,0 0.4,0.1 h -0.1 c -0.2,-0.1 -0.4,-0.1 -0.6,0 -0.2,0 -0.4,0.1 -0.6,0.2 -0.2,0.1 -0.3,0.2 -0.4,0.4 -0.1,0.1 -0.2,0.3 -0.3,0.5 0,0.1 0,0.3 -0.1,0.4 0,0.3 0.1,0.5 0.2,0.8 0.1,0.1 0.2,0.2 0.2,0.3 0.4,0 0.6,0.1 0.9,0.2 z"
         id="path51" />
      <path
         class="cls-14"
         d="m 240.42,131.28 h -7.2 c -0.8,0 -1.5,0.7 -1.5,1.5 0,0.8 0.7,1.5 1.5,1.5 h 7.2 c 0.8,0 1.5,-0.7 1.5,-1.5 0,-0.8 -0.6,-1.5 -1.5,-1.5 z"
         id="path52" />
      <path
         class="cls-14"
         d="m 232.92,130.98 c -0.1,0.2 -0.3,0.4 -0.4,0.7 -0.1,0.2 -0.2,0.4 -0.2,0.6 v 0.6 c 0,0.2 0.1,0.4 0.3,0.5 0.1,0.2 0.2,0.3 0.4,0.4 0.1,0.1 0.2,0.1 0.4,0.2 0.3,0.1 0.5,0.1 0.8,0 0.1,-0.1 0.2,-0.1 0.4,-0.2 0.2,-0.1 0.4,-0.3 0.5,-0.5 0.1,-0.2 0.3,-0.4 0.4,-0.7 0.1,-0.2 0.2,-0.4 0.2,-0.6 v -0.6 c 0,-0.2 -0.1,-0.4 -0.3,-0.5 -0.1,-0.2 -0.2,-0.3 -0.4,-0.4 -0.1,-0.1 -0.2,-0.1 -0.4,-0.2 -0.3,-0.1 -0.5,-0.1 -0.8,0 -0.1,0.1 -0.2,0.1 -0.4,0.2 -0.2,0.1 -0.4,0.3 -0.5,0.5 z"
         id="path53" />
      <path
         class="cls-14"
         d="m 233.32,131.38 h -0.5 c -0.2,0 -0.4,0 -0.6,0.1 -0.2,0.1 -0.3,0.2 -0.5,0.3 -0.1,0.1 -0.2,0.3 -0.3,0.5 -0.1,0.2 -0.1,0.4 -0.1,0.6 0,0.1 0,0.3 0.1,0.4 0.1,0.3 0.2,0.5 0.4,0.7 0.1,0.1 0.2,0.2 0.3,0.2 0.2,0.1 0.5,0.2 0.8,0.2 h 0.5 c 0.2,0 0.4,0 0.6,-0.1 0.2,-0.1 0.3,-0.2 0.5,-0.3 0.1,-0.1 0.2,-0.3 0.3,-0.5 0.1,-0.2 0.1,-0.4 0.1,-0.6 0,-0.1 0,-0.3 -0.1,-0.4 -0.1,-0.3 -0.2,-0.5 -0.4,-0.7 -0.1,-0.1 -0.2,-0.2 -0.3,-0.2 -0.2,-0.1 -0.5,-0.2 -0.8,-0.2 z"
         id="path54" />
    </g>
    <path
       class="cls-9"
       d="m 230.42,117.08 c 0,2.6 2.5,4.7 5.5,4.7 3,0 5.6,-2.1 5.6,-4.7 0,-2.6 -2.5,-4.7 -5.6,-4.7 -3.1,0 -5.5,2.1 -5.5,4.7 z"
       id="path55" />
  </g>
  <line
     class="cls-7"
     x1="301.75"
     x2="103.95"
     y1="47.099998"
     y2="154.09999"
     id="line55" />
  <line
     class="cls-7"
     x1="101.05"
     x2="299.04999"
     y1="121.3"
     y2="136.2"
     id="line56" />
  <line
     class="cls-4"
     x1="218.35001"
     x2="231.85001"
     y1="84.600006"
     y2="89.900002"
     id="line57" />
  <line
     class="cls-4"
     x1="245.05"
     x2="245.05"
     y1="124.9"
     y2="137.59999"
     id="line58" />
  <polygon
     class="cls-4"
     points="152.82,133.88 206.32,113.08 206.32,167.28 152.82,187.98 "
     id="polygon58"
     transform="translate(-23.17,-5.88)" />
  <line
     class="cls-4"
     x1="78.349998"
     x2="129.65001"
     y1="154.09999"
     y2="182.5"
     id="line59" />
  <line
     class="cls-4"
     x1="78.349998"
     x2="129.65001"
     y1="100.10001"
     y2="128.59999"
     id="line60" />
  <line
     class="cls-4"
     x1="132.85001"
     x2="184.25"
     y1="78.700005"
     y2="107.2"
     id="line61" />
  <path
     class="cls-13"
     d="m 159.45,123.6 c 0.1,0.1 0.2,0.2 0.2,0.3 0,0 0,-0.1 -0.1,-0.1 0.1,0.2 0.2,0.5 0.3,0.7 0,0.2 0.2,0.2 0.4,0.2 h 0.3 c 0.1,0 0.3,0 0.4,-0.1 0.2,-0.1 0.5,-0.2 0.6,-0.3 0.1,-0.1 0.3,-0.2 0.2,-0.4 -0.1,-0.4 -0.3,-0.8 -0.6,-1.1 q -0.1,-0.1 -0.2,-0.1 h -0.7 c -0.1,0 -0.3,0.1 -0.4,0.1 -0.1,0 -0.1,0.1 -0.2,0.1 -0.1,0.1 -0.2,0.1 -0.3,0.2 0,0 0,0.1 -0.1,0.1 0.1,0.3 0.1,0.4 0.2,0.4 z"
     id="path61" />
  <path
     class="cls-13"
     d="m 160.05,125.8 c 0.1,0.2 0.1,0.5 0.1,0.7 v -0.1 c 0,0.2 0,0.5 -0.1,0.7 0,0 0,-0.1 0.1,-0.1 0,0.1 -0.1,0.2 -0.1,0.2 -0.1,0.1 -0.1,0.3 0,0.4 0.1,0.1 0.4,0.2 0.5,0.2 0.3,0 0.5,0 0.8,-0.1 0.2,-0.1 0.4,-0.2 0.5,-0.4 0.4,-0.6 0.4,-1.4 0.2,-2 -0.1,-0.2 -0.2,-0.2 -0.4,-0.3 -0.2,-0.1 -0.5,0 -0.7,0 -0.2,0.1 -0.5,0.2 -0.6,0.3 -0.2,0.2 -0.3,0.3 -0.3,0.5 z"
     id="path62" />
  <polygon
     class="cls-12"
     points="103.82,160.58 151.42,186.18 153.22,135.08 104.42,108.88 "
     id="polygon62"
     transform="translate(-23.17,-5.88)" />
  <g
     class="cls-15"
     id="g85"
     transform="translate(-23.17,-5.88)">
    <path
       class="cls-9"
       d="m 130.82,150.58 c 0,-3.4 -3.5,-6.1 -7.8,-6.1 -4.3,0 -7.8,2.7 -7.8,6.1 0,3.4 3.5,6.1 7.8,6.1 4.3,0 7.8,-2.7 7.8,-6.1 z"
       id="path63" />
    <path
       class="cls-9"
       d="m 129.92,154.18 c 0,-3.5 -3.1,-6.4 -7,-6.4 -3.9,0 -7,2.9 -7,6.4 0,3.5 3.1,6.4 7,6.4 3.9,0 7,-2.8 7,-6.4 z"
       id="path64" />
    <path
       class="cls-9"
       d="m 132.12,156.18 c 0,-2.8 -2.9,-5.1 -6.4,-5.1 -3.5,0 -6.4,2.3 -6.4,5.1 0,2.8 2.9,5.1 6.4,5.1 3.5,0 6.4,-2.3 6.4,-5.1 z"
       id="path65" />
    <path
       class="cls-9"
       d="m 134.72,154.18 c 0,-3 -2.2,-5.4 -4.8,-5.4 -2.6,0 -4.8,2.4 -4.8,5.4 0,3 2.2,5.4 4.8,5.4 2.7,0.1 4.8,-2.4 4.8,-5.4 z"
       id="path66" />
    <path
       class="cls-9"
       d="m 135.82,150.58 c 0,-2.7 -3.7,-5 -8.2,-5 -4.5,0 -8.2,2.2 -8.2,5 0,2.8 3.7,5 8.2,5 4.5,0 8.2,-2.2 8.2,-5 z"
       id="path67" />
    <path
       class="cls-9"
       d="m 126.42,147.58 c 0,-2.8 -2.2,-5.1 -4.9,-5.1 -2.7,0 -4.9,2.3 -4.9,5.1 0,2.8 2.2,5.1 4.9,5.1 2.7,-0.1 4.9,-2.3 4.9,-5.1 z"
       id="path68" />
    <path
       class="cls-9"
       d="m 135.42,148.78 c 0,-2.7 -2.2,-5 -5,-5 -2.8,0 -5,2.2 -5,5 0,2.8 2.2,5 5,5 2.8,-0.1 5,-2.3 5,-5 z"
       id="path69" />
    <g
       id="g84">
      <path
         class="cls-2"
         d="m 124.22,141.78 c 0,-6.7 -1.5,-12.2 -3.4,-12.2"
         id="path70" />
      <rect
         class="cls-11"
         height="12.2"
         width="2.9000001"
         x="124.22"
         y="129.58"
         id="rect70" />
      <path
         class="cls-2"
         d="m 126.82,141.98 c 0,-6.7 1.5,-12.2 3.4,-12.2"
         id="path71" />
      <rect
         class="cls-14"
         height="2"
         width="5.6999998"
         x="122.72"
         y="129.58"
         id="rect71" />
      <rect
         class="cls-14"
         height="2"
         width="4.8000002"
         x="123.32"
         y="131.28"
         id="rect72" />
      <rect
         class="cls-14"
         height="0.40000001"
         width="7.4000001"
         x="121.92"
         y="129.78"
         id="rect73" />
      <rect
         class="cls-14"
         height="0.40000001"
         width="6.9000001"
         x="122.02"
         y="130.28"
         id="rect74" />
      <rect
         class="cls-14"
         height="0.40000001"
         width="5.4000001"
         x="122.42"
         y="130.48"
         id="rect75" />
      <rect
         class="cls-14"
         height="0.80000001"
         width="0.60000002"
         x="128.12"
         y="130.48"
         id="rect76" />
      <rect
         class="cls-14"
         height="1.4"
         width="0.2"
         x="123.12"
         y="131.28"
         id="rect77" />
      <g
         id="g78">
        <rect
           class="cls-14"
           height="0.69999999"
           width="0.30000001"
           x="123.02"
           y="131.28"
           id="rect78" />
        <path
           class="cls-14"
           d="m 123.32,129.78 h -0.3 c -0.2,0 -0.4,0 -0.6,0.1 -0.2,0.1 -0.3,0.2 -0.5,0.3 -0.1,0.1 -0.2,0.2 -0.2,0.3 -0.1,0.2 -0.2,0.5 -0.2,0.8 v 0.7 c 0,0.2 0,0.4 0.1,0.6 0.1,0.2 0.2,0.3 0.3,0.5 0.1,0.1 0.2,0.2 0.3,0.2 0.2,0.1 0.5,0.2 0.8,0.2 h 0.3 c 0.2,0 0.4,0 0.6,-0.1 0.2,-0.1 0.3,-0.2 0.5,-0.3 0.1,-0.1 0.2,-0.2 0.2,-0.3 0.1,-0.2 0.2,-0.5 0.2,-0.8 v -0.7 c 0,-0.2 0,-0.4 -0.1,-0.6 -0.1,-0.2 -0.2,-0.3 -0.3,-0.5 -0.1,-0.1 -0.3,-0.2 -0.5,-0.3 -0.2,-0.1 -0.4,-0.1 -0.6,-0.1 -0.1,0 -0.3,0 -0.4,0.1 -0.3,0.1 -0.5,0.2 -0.7,0.4 -0.1,0.1 -0.2,0.2 -0.2,0.3 -0.1,0.2 -0.2,0.5 -0.2,0.8 v 0.7 l 1.5,-1.5 h -0.3 l 1.5,1.5 v -0.7 l -1.5,1.5 h 0.3 c 0.2,0 0.4,0 0.6,-0.1 0.2,-0.1 0.3,-0.2 0.5,-0.3 0.1,-0.1 0.2,-0.3 0.3,-0.5 0.1,-0.2 0.1,-0.4 0.1,-0.6 0,-0.1 0,-0.3 -0.1,-0.4 -0.1,-0.3 -0.2,-0.5 -0.4,-0.7 -0.1,-0.1 -0.2,-0.2 -0.3,-0.2 -0.2,-0.3 -0.4,-0.3 -0.7,-0.3 z"
           id="path78" />
      </g>
      <path
         class="cls-14"
         d="m 125.42,135.48 c 0,-0.6 -0.2,-1.2 -0.3,-1.8 0,0.1 0,0.3 0.1,0.4 v -0.6 c 0,0.1 0,0.3 -0.1,0.4 q 0,-0.1 0.1,-0.2 c -0.1,0.1 -0.1,0.2 -0.2,0.4 v -0.1 c -0.9,-0.1 -1.8,-0.2 -2.7,-0.4 0.1,0.3 0.2,0.5 0.3,0.7 -0.1,-0.1 -0.1,-0.2 -0.2,-0.4 v 0.1 c 0,-0.1 0,-0.3 -0.1,-0.4 v 0 c 0,0.2 0,0.4 0.1,0.6 0.1,0.2 0.2,0.3 0.3,0.5 0.3,0.3 0.7,0.5 1.1,0.4 0.4,0 0.8,-0.1 1.1,-0.4 0.3,-0.3 0.5,-0.7 0.4,-1.1 0,-0.2 0,-0.3 -0.1,-0.5 -0.1,-0.2 -0.1,-0.3 -0.2,-0.5 0,-0.1 -0.1,-0.2 -0.1,-0.3 0.1,0.1 0.1,0.2 0.2,0.4 v 0 c -0.1,-0.2 -0.2,-0.5 -0.4,-0.7 -0.1,-0.1 -0.2,-0.2 -0.3,-0.2 -0.2,-0.1 -0.4,-0.2 -0.6,-0.2 h -0.4 c -0.1,0 -0.3,0 -0.4,0.1 -0.1,0 -0.2,0.1 -0.3,0.2 -0.2,0.1 -0.3,0.2 -0.4,0.4 -0.2,0.4 -0.3,0.7 -0.3,1.1 0,0.3 0,0.6 0.1,0.9 0.1,0.4 0.2,0.7 0.2,1.1 0,-0.1 0,-0.3 -0.1,-0.4 v 0.2 c 0,0.4 0.2,0.8 0.4,1.1 0.3,0.3 0.7,0.5 1.1,0.4 0.4,0 0.8,-0.1 1.1,-0.4 0.4,0 0.6,-0.4 0.6,-0.8 z"
         id="path79" />
      <path
         class="cls-14"
         d="m 128.22,135.08 0.3,-0.3 v -0.1 c 0,0 0,-0.1 0.1,-0.1 0.1,-0.1 0.1,-0.3 0.2,-0.4 v -0.2 c 0,-0.2 0.1,-0.3 0.1,-0.5 0.1,-0.2 0.1,-0.4 0,-0.6 0,-0.2 -0.1,-0.4 -0.2,-0.6 -0.1,-0.2 -0.2,-0.3 -0.4,-0.4 -0.1,-0.1 -0.3,-0.2 -0.5,-0.3 -0.1,0 -0.3,0 -0.4,-0.1 -0.3,0 -0.5,0.1 -0.8,0.2 -0.1,0.1 -0.2,0.2 -0.3,0.2 -0.2,0.2 -0.3,0.4 -0.4,0.7 -0.1,0.2 -0.1,0.5 -0.2,0.7 0.1,-0.1 0.1,-0.2 0.2,-0.4 0,0.1 -0.1,0.1 -0.1,0.2 0.1,-0.1 0.2,-0.2 0.2,-0.3 v 0 c -0.1,0.1 -0.2,0.3 -0.3,0.5 -0.1,0.2 -0.1,0.4 -0.1,0.6 0,0.2 0,0.4 0.1,0.6 0.1,0.2 0.2,0.3 0.3,0.5 0.1,0.1 0.2,0.2 0.3,0.2 0.2,0.1 0.5,0.2 0.8,0.2 0.1,0 0.3,0 0.4,-0.1 0.3,0.1 0.6,0 0.7,-0.2 z"
         id="path80" />
      <path
         class="cls-14"
         d="m 123.42,128.98 h -0.1 c -0.2,0 -0.3,-0.1 -0.5,-0.1 h -0.2 c -0.2,0 -0.4,0 -0.6,0.1 -0.2,0.1 -0.3,0.2 -0.5,0.3 -0.1,0.1 -0.2,0.3 -0.3,0.5 -0.1,0.2 -0.1,0.4 -0.1,0.6 0,0.1 0,0.3 0.1,0.4 0.1,0.3 0.2,0.5 0.4,0.7 0.1,0.1 0.2,0.2 0.3,0.2 0.2,0.1 0.5,0.2 0.8,0.2 h 0.3 c -0.1,0 -0.3,0 -0.4,-0.1 h 0.1 c 0.2,0.1 0.4,0.1 0.6,0 0.2,0 0.4,-0.1 0.6,-0.2 0.2,-0.1 0.3,-0.2 0.4,-0.4 0.1,-0.1 0.2,-0.3 0.3,-0.5 0,-0.1 0,-0.3 0.1,-0.4 0,-0.3 -0.1,-0.5 -0.2,-0.8 -0.1,-0.1 -0.2,-0.2 -0.2,-0.3 -0.5,0 -0.7,-0.2 -0.9,-0.2 z"
         id="path81" />
      <path
         class="cls-14"
         d="m 121.62,131.18 h 7.7 c 0.8,0 1.5,-0.7 1.5,-1.5 0,-0.8 -0.7,-1.5 -1.5,-1.5 h -7.7 c -0.8,0 -1.5,0.7 -1.5,1.5 0,0.8 0.7,1.5 1.5,1.5 z"
         id="path82" />
      <path
         class="cls-14"
         d="m 129.62,131.58 c 0.1,-0.2 0.3,-0.4 0.4,-0.7 0.1,-0.2 0.2,-0.4 0.2,-0.6 v -0.6 c 0,-0.2 -0.1,-0.4 -0.3,-0.5 -0.1,-0.2 -0.2,-0.3 -0.4,-0.4 -0.1,-0.1 -0.2,-0.1 -0.4,-0.2 -0.3,-0.1 -0.5,-0.1 -0.8,0 -0.1,0.1 -0.2,0.1 -0.4,0.2 -0.2,0.1 -0.4,0.3 -0.5,0.5 -0.1,0.2 -0.3,0.4 -0.4,0.7 -0.1,0.2 -0.2,0.4 -0.2,0.6 v 0.6 c 0,0.2 0.1,0.4 0.3,0.5 0.1,0.2 0.2,0.3 0.4,0.4 0.1,0.1 0.2,0.1 0.4,0.2 0.3,0.1 0.5,0.1 0.8,0 0.1,-0.1 0.2,-0.1 0.4,-0.2 0.2,-0.1 0.3,-0.3 0.5,-0.5 z"
         id="path83" />
      <path
         class="cls-14"
         d="m 129.12,131.08 h 0.5 c 0.2,0 0.4,0 0.6,-0.1 0.2,-0.1 0.3,-0.2 0.5,-0.3 0.1,-0.1 0.2,-0.3 0.3,-0.5 0.1,-0.2 0.1,-0.4 0.1,-0.6 0,-0.1 0,-0.3 -0.1,-0.4 -0.1,-0.3 -0.2,-0.5 -0.4,-0.7 -0.1,-0.1 -0.2,-0.2 -0.3,-0.2 -0.2,-0.1 -0.5,-0.2 -0.8,-0.2 h -0.5 c -0.2,0 -0.4,0 -0.6,0.1 -0.2,0.1 -0.3,0.2 -0.5,0.3 -0.1,0.1 -0.2,0.3 -0.3,0.5 -0.1,0.2 -0.1,0.4 -0.1,0.6 0,0.1 0,0.3 0.1,0.4 0.1,0.3 0.2,0.5 0.4,0.7 0.1,0.1 0.2,0.2 0.3,0.2 0.3,0.1 0.6,0.2 0.8,0.2 z"
         id="path84" />
    </g>
    <path
       class="cls-9"
       d="m 132.32,146.08 c 0,-2.7 -2.6,-5 -5.9,-5 -3.3,0 -5.9,2.2 -5.9,5 0,2.8 2.6,5 5.9,5 3.3,0 5.9,-2.2 5.9,-5 z"
       id="path85" />
  </g>
  <g
     id="g87"
     transform="translate(-23.17,-5.88)">
    <line
       class="cls-5"
       x1="210.13"
       x2="257.09"
       y1="174.17"
       y2="153.77"
       id="line85" />
    <line
       class="cls-5"
       x1="208.7"
       x2="212.24001"
       y1="170.3"
       y2="178.27"
       id="line86" />
    <line
       class="cls-5"
       x1="255.28"
       x2="258.73001"
       y1="149.58"
       y2="157.55"
       id="line87" />
  </g>
  <g
     id="g90"
     transform="translate(-23.17,-5.88)">
    <line
       class="cls-1"
       x1="163.16"
       x2="210.22"
       y1="194.67999"
       y2="174.38"
       id="line88" />
    <line
       class="cls-1"
       x1="161.83"
       x2="165.37"
       y1="190.81"
       y2="198.88"
       id="line89" />
    <line
       class="cls-1"
       x1="208.31"
       x2="211.85001"
       y1="170.09"
       y2="178.14999"
       id="line90" />
  </g>
  <g
     id="g91"
     transform="translate(-23.17,-5.88)">
    <line
       class="cls-3"
       x1="71.889999"
       x2="106.86"
       y1="152.58"
       y2="152.58"
       id="line91" />
    <polygon
       class="cls-8"
       points="104.05,148.87 112.83,152.58 104.05,156.28 105.63,152.58 "
       id="polygon91" />
  </g>
  <g
     id="g92"
     transform="translate(-23.17,-5.88)">
    <line
       class="cls-3"
       x1="102.91"
       x2="102.91"
       y1="60.41"
       y2="95.379997"
       id="line92" />
    <polygon
       class="cls-8"
       points="106.62,92.57 102.91,101.35 99.21,92.57 102.91,94.15 "
       id="polygon92" />
  </g>
  <g
     id="g101"
     transform="translate(-23.17,-5.88)">
    <path
       class="cls-16"
       d="m 53.67,46.13 h 1.18 v 8.75 h -1.18 z"
       id="path92" />
    <path
       class="cls-16"
       d="m 62.27,49.58 c 0.27,-0.48 0.59,-0.84 0.97,-1.07 0.38,-0.23 0.82,-0.35 1.32,-0.35 0.68,0 1.21,0.24 1.58,0.72 0.37,0.48 0.56,1.16 0.56,2.04 v 3.96 h -1.08 v -3.93 c 0,-0.63 -0.11,-1.1 -0.33,-1.4 -0.22,-0.3 -0.56,-0.46 -1.02,-0.46 -0.56,0 -1,0.19 -1.32,0.56 -0.32,0.37 -0.49,0.88 -0.49,1.52 v 3.71 h -1.08 v -3.93 c 0,-0.63 -0.11,-1.1 -0.33,-1.4 -0.22,-0.3 -0.57,-0.45 -1.03,-0.45 -0.55,0 -0.99,0.19 -1.31,0.56 -0.32,0.37 -0.49,0.88 -0.49,1.51 v 3.71 h -1.08 v -6.56 h 1.08 v 1.02 c 0.25,-0.4 0.54,-0.7 0.88,-0.89 0.34,-0.19 0.75,-0.29 1.22,-0.29 0.47,0 0.88,0.12 1.22,0.36 0.34,0.24 0.58,0.59 0.74,1.05 z"
       id="path93" />
    <path
       class="cls-16"
       d="m 73.99,51.14 v 3.74 h -1.08 v -1 c -0.25,0.4 -0.55,0.69 -0.92,0.88 -0.37,0.19 -0.82,0.28 -1.35,0.28 -0.67,0 -1.21,-0.19 -1.6,-0.57 -0.39,-0.38 -0.59,-0.88 -0.59,-1.51 0,-0.74 0.25,-1.29 0.74,-1.67 0.49,-0.38 1.23,-0.56 2.21,-0.56 h 1.51 v -0.11 c 0,-0.5 -0.16,-0.88 -0.49,-1.15 -0.33,-0.27 -0.78,-0.41 -1.37,-0.41 -0.38,0 -0.74,0.04 -1.1,0.13 -0.36,0.09 -0.7,0.22 -1.03,0.4 v -1 c 0.39,-0.15 0.78,-0.27 1.15,-0.34 0.37,-0.07 0.73,-0.11 1.08,-0.11 0.95,0 1.66,0.25 2.13,0.74 0.47,0.49 0.7,1.24 0.7,2.24 z m -2.15,0.45 c -0.87,0 -1.47,0.1 -1.81,0.3 -0.34,0.2 -0.5,0.54 -0.5,1.02 0,0.38 0.13,0.69 0.38,0.91 0.25,0.22 0.59,0.34 1.03,0.34 0.6,0 1.08,-0.21 1.44,-0.64 0.36,-0.43 0.54,-0.99 0.54,-1.69 v -0.24 h -1.07 z"
       id="path94" />
    <path
       class="cls-16"
       d="m 81.6,54.07 c 0,1.12 -0.25,1.95 -0.74,2.49 -0.49,0.54 -1.26,0.82 -2.28,0.82 -0.38,0 -0.74,-0.03 -1.07,-0.08 -0.33,-0.05 -0.66,-0.14 -0.98,-0.26 v -1.05 c 0.32,0.17 0.63,0.3 0.94,0.38 0.31,0.08 0.62,0.12 0.94,0.12 0.71,0 1.24,-0.18 1.59,-0.55 0.35,-0.37 0.53,-0.93 0.53,-1.67 v -0.53 c -0.22,0.39 -0.51,0.68 -0.86,0.87 -0.35,0.19 -0.76,0.29 -1.25,0.29 -0.8,0 -1.45,-0.31 -1.95,-0.92 -0.5,-0.61 -0.74,-1.43 -0.74,-2.44 0,-1.01 0.25,-1.83 0.74,-2.44 0.49,-0.61 1.14,-0.92 1.95,-0.92 0.48,0 0.9,0.1 1.25,0.29 0.35,0.19 0.63,0.48 0.86,0.87 v -1 h 1.08 v 5.75 z m -1.08,-2.54 c 0,-0.78 -0.16,-1.39 -0.48,-1.82 -0.32,-0.43 -0.77,-0.64 -1.36,-0.64 -0.59,0 -1.03,0.21 -1.35,0.64 -0.32,0.43 -0.48,1.04 -0.48,1.82 0,0.78 0.16,1.38 0.48,1.81 0.32,0.43 0.77,0.64 1.35,0.64 0.58,0 1.03,-0.21 1.36,-0.64 0.33,-0.43 0.48,-1.03 0.48,-1.81 z"
       id="path95" />
    <path
       class="cls-16"
       d="m 89.44,51.33 v 0.53 h -4.96 c 0.05,0.74 0.27,1.31 0.67,1.7 0.4,0.39 0.96,0.58 1.67,0.58 0.41,0 0.82,-0.05 1.2,-0.15 0.38,-0.1 0.77,-0.25 1.16,-0.46 v 1.02 c -0.39,0.16 -0.78,0.29 -1.19,0.38 -0.41,0.09 -0.82,0.13 -1.24,0.13 -1.05,0 -1.88,-0.3 -2.49,-0.91 -0.61,-0.61 -0.92,-1.43 -0.92,-2.47 0,-1.04 0.29,-1.93 0.87,-2.56 0.58,-0.63 1.36,-0.95 2.35,-0.95 0.88,0 1.58,0.28 2.09,0.85 0.51,0.57 0.77,1.34 0.77,2.32 z m -1.08,-0.32 c 0,-0.59 -0.17,-1.06 -0.5,-1.41 -0.33,-0.35 -0.75,-0.53 -1.28,-0.53 -0.6,0 -1.08,0.17 -1.44,0.51 -0.36,0.34 -0.57,0.82 -0.62,1.44 h 3.84 z"
       id="path96" />
    <path
       class="cls-16"
       d="m 96.07,53.9 v 3.48 h -1.08 v -9.06 h 1.08 v 1 c 0.23,-0.39 0.51,-0.68 0.86,-0.87 0.35,-0.19 0.76,-0.28 1.24,-0.28 0.8,0 1.44,0.32 1.94,0.95 0.5,0.63 0.75,1.46 0.75,2.5 0,1.04 -0.25,1.86 -0.75,2.5 -0.5,0.64 -1.15,0.95 -1.94,0.95 -0.48,0 -0.89,-0.09 -1.24,-0.28 -0.35,-0.19 -0.63,-0.48 -0.86,-0.87 z m 3.67,-2.29 c 0,-0.79 -0.16,-1.42 -0.49,-1.87 -0.33,-0.45 -0.77,-0.68 -1.34,-0.68 -0.57,0 -1.02,0.23 -1.34,0.68 -0.32,0.45 -0.49,1.07 -0.49,1.87 0,0.8 0.16,1.42 0.49,1.87 0.33,0.45 0.77,0.68 1.34,0.68 0.57,0 1.02,-0.23 1.34,-0.68 0.32,-0.45 0.49,-1.07 0.49,-1.87 z"
       id="path97" />
    <path
       class="cls-16"
       d="m 102.64,45.76 h 1.08 v 9.12 h -1.08 z"
       id="path98" />
    <path
       class="cls-16"
       d="m 111.11,51.14 v 3.74 h -1.08 v -1 c -0.25,0.4 -0.55,0.69 -0.92,0.88 -0.37,0.19 -0.82,0.28 -1.35,0.28 -0.67,0 -1.21,-0.19 -1.6,-0.57 -0.39,-0.38 -0.59,-0.88 -0.59,-1.51 0,-0.74 0.25,-1.29 0.74,-1.67 0.49,-0.38 1.23,-0.56 2.21,-0.56 h 1.51 v -0.11 c 0,-0.5 -0.16,-0.88 -0.49,-1.15 -0.33,-0.27 -0.78,-0.41 -1.37,-0.41 -0.38,0 -0.74,0.04 -1.1,0.13 -0.36,0.09 -0.7,0.22 -1.03,0.4 v -1 c 0.39,-0.15 0.78,-0.27 1.15,-0.34 0.37,-0.07 0.73,-0.11 1.08,-0.11 0.95,0 1.66,0.25 2.13,0.74 0.47,0.49 0.7,1.24 0.7,2.24 z m -2.15,0.45 c -0.87,0 -1.47,0.1 -1.81,0.3 -0.34,0.2 -0.5,0.54 -0.5,1.02 0,0.38 0.13,0.69 0.38,0.91 0.25,0.22 0.59,0.34 1.03,0.34 0.6,0 1.08,-0.21 1.44,-0.64 0.36,-0.43 0.54,-0.99 0.54,-1.69 v -0.24 h -1.07 z"
       id="path99" />
    <path
       class="cls-16"
       d="m 118.78,50.92 v 3.96 h -1.08 v -3.93 c 0,-0.62 -0.12,-1.09 -0.36,-1.39 -0.24,-0.3 -0.61,-0.46 -1.09,-0.46 -0.58,0 -1.04,0.19 -1.38,0.56 -0.34,0.37 -0.5,0.88 -0.5,1.52 v 3.71 h -1.08 v -6.56 h 1.08 v 1.02 c 0.26,-0.39 0.56,-0.69 0.91,-0.88 0.35,-0.19 0.75,-0.29 1.21,-0.29 0.75,0 1.32,0.23 1.71,0.7 0.39,0.47 0.58,1.15 0.58,2.06 z"
       id="path100" />
    <path
       class="cls-16"
       d="m 126.55,51.33 v 0.53 h -4.96 c 0.05,0.74 0.27,1.31 0.67,1.7 0.4,0.39 0.96,0.58 1.67,0.58 0.41,0 0.82,-0.05 1.2,-0.15 0.38,-0.1 0.77,-0.25 1.16,-0.46 v 1.02 c -0.39,0.16 -0.78,0.29 -1.19,0.38 -0.41,0.09 -0.82,0.13 -1.24,0.13 -1.05,0 -1.88,-0.3 -2.49,-0.91 -0.61,-0.61 -0.92,-1.43 -0.92,-2.47 0,-1.04 0.29,-1.93 0.87,-2.56 0.58,-0.63 1.36,-0.95 2.35,-0.95 0.88,0 1.58,0.28 2.09,0.85 0.51,0.57 0.77,1.34 0.77,2.32 z m -1.08,-0.32 c 0,-0.59 -0.17,-1.06 -0.5,-1.41 -0.33,-0.35 -0.75,-0.53 -1.28,-0.53 -0.6,0 -1.08,0.17 -1.44,0.51 -0.36,0.34 -0.57,0.82 -0.62,1.44 h 3.84 z"
       id="path101" />
  </g>
  <g
     id="g102"
     transform="translate(-23.17,-5.88)">
    <line
       class="cls-3"
       x1="180.66"
       x2="180.66"
       y1="59.380001"
       y2="113.48"
       id="line101" />
    <polygon
       class="cls-8"
       points="184.36,110.67 180.66,119.45 176.96,110.67 180.66,112.25 "
       id="polygon101" />
  </g>
  <g
     id="g111"
     transform="translate(-23.17,-5.88)">
    <path
       class="cls-16"
       d="m 147.24,46.13 h 5.03 v 1 h -3.84 v 2.58 h 3.47 v 1 h -3.47 v 4.18 h -1.18 v -8.75 z"
       id="path102" />
    <path
       class="cls-16"
       d="m 156.21,48.16 c 0.94,0 1.67,0.3 2.21,0.91 0.54,0.61 0.8,1.45 0.8,2.53 0,1.08 -0.27,1.92 -0.8,2.53 -0.53,0.61 -1.27,0.92 -2.21,0.92 -0.94,0 -1.68,-0.31 -2.21,-0.92 -0.53,-0.61 -0.8,-1.45 -0.8,-2.53 0,-1.08 0.27,-1.92 0.8,-2.53 0.53,-0.61 1.27,-0.91 2.21,-0.91 z m 0,0.91 c -0.58,0 -1.04,0.23 -1.37,0.68 -0.33,0.45 -0.5,1.07 -0.5,1.85 0,0.78 0.17,1.4 0.5,1.85 0.33,0.45 0.79,0.68 1.37,0.68 0.58,0 1.03,-0.23 1.37,-0.68 0.34,-0.45 0.5,-1.07 0.5,-1.85 0,-0.78 -0.17,-1.39 -0.5,-1.85 -0.33,-0.46 -0.79,-0.68 -1.37,-0.68 z"
       id="path103" />
    <path
       class="cls-16"
       d="m 165.74,48.57 v 1.01 c -0.3,-0.17 -0.61,-0.29 -0.92,-0.38 -0.31,-0.09 -0.62,-0.13 -0.93,-0.13 -0.7,0 -1.24,0.22 -1.63,0.67 -0.39,0.45 -0.58,1.07 -0.58,1.87 0,0.8 0.19,1.42 0.58,1.87 0.39,0.45 0.93,0.67 1.63,0.67 0.31,0 0.62,-0.04 0.93,-0.13 0.31,-0.09 0.61,-0.21 0.92,-0.38 v 1 c -0.3,0.14 -0.61,0.25 -0.93,0.32 -0.32,0.07 -0.67,0.11 -1.03,0.11 -0.99,0 -1.77,-0.31 -2.36,-0.93 -0.59,-0.62 -0.87,-1.46 -0.87,-2.51 0,-1.05 0.29,-1.91 0.88,-2.53 0.59,-0.62 1.39,-0.92 2.42,-0.92 0.33,0 0.66,0.03 0.97,0.1 0.31,0.07 0.62,0.17 0.92,0.31 z"
       id="path104" />
    <path
       class="cls-16"
       d="m 172.74,51.14 v 3.74 h -1.08 v -1 c -0.25,0.4 -0.55,0.69 -0.92,0.88 -0.37,0.19 -0.82,0.28 -1.35,0.28 -0.67,0 -1.21,-0.19 -1.6,-0.57 -0.39,-0.38 -0.59,-0.88 -0.59,-1.51 0,-0.74 0.25,-1.29 0.74,-1.67 0.49,-0.38 1.23,-0.56 2.21,-0.56 h 1.51 v -0.11 c 0,-0.5 -0.16,-0.88 -0.49,-1.15 -0.33,-0.27 -0.78,-0.41 -1.37,-0.41 -0.38,0 -0.74,0.04 -1.1,0.13 -0.36,0.09 -0.7,0.22 -1.03,0.4 v -1 c 0.39,-0.15 0.78,-0.27 1.15,-0.34 0.37,-0.07 0.73,-0.11 1.08,-0.11 0.95,0 1.66,0.25 2.13,0.74 0.47,0.49 0.7,1.24 0.7,2.24 z m -2.15,0.45 c -0.87,0 -1.47,0.1 -1.81,0.3 -0.34,0.2 -0.5,0.54 -0.5,1.02 0,0.38 0.13,0.69 0.38,0.91 0.25,0.22 0.59,0.34 1.03,0.34 0.6,0 1.08,-0.21 1.44,-0.64 0.36,-0.43 0.54,-0.99 0.54,-1.69 v -0.24 h -1.07 z"
       id="path105" />
    <path
       class="cls-16"
       d="m 174.96,45.76 h 1.08 v 9.12 h -1.08 z"
       id="path106" />
    <path
       class="cls-16"
       d="m 183.16,53.9 v 3.48 h -1.08 v -9.06 h 1.08 v 1 c 0.23,-0.39 0.51,-0.68 0.86,-0.87 0.35,-0.19 0.76,-0.28 1.24,-0.28 0.8,0 1.44,0.32 1.94,0.95 0.5,0.63 0.75,1.46 0.75,2.5 0,1.04 -0.25,1.86 -0.75,2.5 -0.5,0.64 -1.15,0.95 -1.94,0.95 -0.48,0 -0.89,-0.09 -1.24,-0.28 -0.35,-0.19 -0.63,-0.48 -0.86,-0.87 z m 3.67,-2.29 c 0,-0.79 -0.16,-1.42 -0.49,-1.87 -0.33,-0.45 -0.77,-0.68 -1.34,-0.68 -0.57,0 -1.02,0.23 -1.34,0.68 -0.32,0.45 -0.49,1.07 -0.49,1.87 0,0.8 0.16,1.42 0.49,1.87 0.33,0.45 0.77,0.68 1.34,0.68 0.57,0 1.02,-0.23 1.34,-0.68 0.32,-0.45 0.49,-1.07 0.49,-1.87 z"
       id="path107" />
    <path
       class="cls-16"
       d="m 192.27,48.16 c 0.94,0 1.67,0.3 2.21,0.91 0.54,0.61 0.8,1.45 0.8,2.53 0,1.08 -0.27,1.92 -0.8,2.53 -0.53,0.61 -1.27,0.92 -2.21,0.92 -0.94,0 -1.68,-0.31 -2.21,-0.92 -0.53,-0.61 -0.8,-1.45 -0.8,-2.53 0,-1.08 0.27,-1.92 0.8,-2.53 0.53,-0.61 1.27,-0.91 2.21,-0.91 z m 0,0.91 c -0.58,0 -1.04,0.23 -1.37,0.68 -0.33,0.45 -0.5,1.07 -0.5,1.85 0,0.78 0.17,1.4 0.5,1.85 0.33,0.45 0.79,0.68 1.37,0.68 0.58,0 1.03,-0.23 1.37,-0.68 0.34,-0.45 0.5,-1.07 0.5,-1.85 0,-0.78 -0.17,-1.39 -0.5,-1.85 -0.33,-0.46 -0.79,-0.68 -1.37,-0.68 z"
       id="path108" />
    <path
       class="cls-16"
       d="m 197.07,45.76 h 1.08 v 1.37 h -1.08 z m 0,2.55 h 1.08 v 6.56 h -1.08 z"
       id="path109" />
    <path
       class="cls-16"
       d="m 205.86,50.92 v 3.96 h -1.08 v -3.93 c 0,-0.62 -0.12,-1.09 -0.36,-1.39 -0.24,-0.3 -0.61,-0.46 -1.09,-0.46 -0.58,0 -1.04,0.19 -1.38,0.56 -0.34,0.37 -0.5,0.88 -0.5,1.52 v 3.71 h -1.08 v -6.56 h 1.08 v 1.02 c 0.26,-0.39 0.56,-0.69 0.91,-0.88 0.35,-0.19 0.75,-0.29 1.21,-0.29 0.75,0 1.32,0.23 1.71,0.7 0.39,0.47 0.58,1.15 0.58,2.06 z"
       id="path110" />
    <path
       class="cls-16"
       d="m 209.08,46.45 v 1.86 h 2.22 v 0.84 h -2.22 v 3.56 c 0,0.54 0.07,0.88 0.22,1.03 0.15,0.15 0.44,0.23 0.89,0.23 h 1.11 v 0.9 h -1.11 c -0.83,0 -1.41,-0.16 -1.72,-0.47 C 208.16,54.09 208,53.52 208,52.7 v -3.56 h -0.79 V 48.3 H 208 v -1.86 h 1.08 z"
       id="path111" />
  </g>
  <g
     id="g112"
     transform="translate(-23.17,-5.88)">
    <line
       class="cls-3"
       x1="231.23"
       x2="231.23"
       y1="23.85"
       y2="77.949997"
       id="line111" />
    <polygon
       class="cls-8"
       points="234.93,75.14 231.23,83.92 227.53,75.14 231.23,76.71 "
       id="polygon111" />
  </g>
  <g
     id="g128"
     transform="translate(-23.17,-5.88)">
    <path
       class="cls-16"
       d="m 187.49,15 -3.34,-8.75 h 1.24 l 2.77,7.37 2.78,-7.37 h 1.23 L 188.84,15 h -1.34 z"
       id="path112" />
    <path
       class="cls-16"
       d="m 193.13,5.88 h 1.08 v 1.37 h -1.08 z m 0,2.55 h 1.08 v 6.56 h -1.08 z"
       id="path113" />
    <path
       class="cls-16"
       d="m 200.27,9.44 c -0.12,-0.07 -0.25,-0.12 -0.4,-0.16 -0.15,-0.04 -0.3,-0.05 -0.47,-0.05 -0.61,0 -1.08,0.2 -1.4,0.59 -0.32,0.39 -0.49,0.97 -0.49,1.71 v 3.46 h -1.08 V 8.43 h 1.08 v 1.02 c 0.23,-0.4 0.52,-0.69 0.88,-0.89 0.36,-0.2 0.8,-0.29 1.32,-0.29 0.07,0 0.16,0 0.25,0.01 0.09,0.01 0.19,0.02 0.3,0.04 v 1.11 z"
       id="path114" />
    <path
       class="cls-16"
       d="m 202.46,6.57 v 1.86 h 2.22 v 0.84 h -2.22 v 3.56 c 0,0.54 0.07,0.88 0.22,1.03 0.15,0.15 0.44,0.23 0.89,0.23 h 1.11 v 0.9 h -1.11 c -0.83,0 -1.41,-0.16 -1.72,-0.47 -0.31,-0.31 -0.47,-0.88 -0.47,-1.7 V 9.26 h -0.79 V 8.42 h 0.79 V 6.56 h 1.08 z"
       id="path115" />
    <path
       class="cls-16"
       d="M 205.99,12.41 V 8.44 h 1.08 v 3.93 c 0,0.62 0.12,1.09 0.36,1.4 0.24,0.31 0.61,0.47 1.09,0.47 0.58,0 1.04,-0.19 1.38,-0.56 0.34,-0.37 0.51,-0.88 0.51,-1.52 V 8.44 h 1.08 V 15 h -1.08 v -1.01 c -0.26,0.4 -0.57,0.69 -0.91,0.89 -0.34,0.2 -0.75,0.29 -1.2,0.29 -0.75,0 -1.33,-0.23 -1.72,-0.7 -0.39,-0.47 -0.59,-1.15 -0.59,-2.06 z"
       id="path116" />
    <path
       class="cls-16"
       d="m 218.84,11.25 v 3.74 h -1.08 v -1 c -0.25,0.4 -0.55,0.69 -0.92,0.88 -0.37,0.19 -0.82,0.28 -1.35,0.28 -0.67,0 -1.21,-0.19 -1.6,-0.57 -0.39,-0.38 -0.59,-0.88 -0.59,-1.51 0,-0.74 0.25,-1.29 0.74,-1.67 0.49,-0.38 1.23,-0.56 2.21,-0.56 h 1.51 v -0.11 c 0,-0.5 -0.16,-0.88 -0.49,-1.15 -0.33,-0.27 -0.78,-0.41 -1.37,-0.41 -0.38,0 -0.74,0.04 -1.1,0.13 -0.36,0.09 -0.7,0.22 -1.03,0.4 v -1 c 0.39,-0.15 0.78,-0.27 1.15,-0.34 0.37,-0.07 0.73,-0.11 1.08,-0.11 0.95,0 1.66,0.25 2.13,0.74 0.47,0.49 0.7,1.24 0.7,2.24 z m -2.15,0.45 c -0.87,0 -1.47,0.1 -1.81,0.3 -0.34,0.2 -0.5,0.54 -0.5,1.02 0,0.38 0.13,0.69 0.38,0.91 0.25,0.22 0.59,0.34 1.03,0.34 0.6,0 1.08,-0.21 1.44,-0.64 0.36,-0.43 0.54,-0.99 0.54,-1.69 V 11.7 h -1.07 z"
       id="path117" />
    <path
       class="cls-16"
       d="m 221.06,5.88 h 1.08 V 15 h -1.08 z"
       id="path118" />
    <path
       class="cls-16"
       d="m 228.21,5.88 h 1.08 v 1.37 h -1.08 z m 0,2.55 h 1.08 v 6.56 h -1.08 z"
       id="path119" />
    <path
       class="cls-16"
       d="m 236.65,9.69 c 0.27,-0.48 0.59,-0.84 0.97,-1.07 0.38,-0.23 0.82,-0.35 1.32,-0.35 0.68,0 1.21,0.24 1.58,0.72 0.37,0.48 0.56,1.16 0.56,2.04 v 3.96 H 240 v -3.93 c 0,-0.63 -0.11,-1.1 -0.33,-1.4 -0.22,-0.3 -0.56,-0.46 -1.02,-0.46 -0.56,0 -1,0.19 -1.32,0.56 -0.32,0.37 -0.49,0.88 -0.49,1.52 v 3.71 h -1.08 v -3.93 c 0,-0.63 -0.11,-1.1 -0.33,-1.4 -0.22,-0.3 -0.57,-0.45 -1.03,-0.45 -0.55,0 -0.99,0.19 -1.31,0.56 -0.32,0.37 -0.49,0.88 -0.49,1.51 v 3.71 h -1.08 V 8.43 h 1.08 v 1.02 c 0.25,-0.4 0.54,-0.7 0.88,-0.89 0.34,-0.19 0.75,-0.29 1.22,-0.29 0.47,0 0.88,0.12 1.22,0.36 0.34,0.24 0.58,0.59 0.74,1.05 z"
       id="path120" />
    <path
       class="cls-16"
       d="m 248.37,11.25 v 3.74 h -1.08 v -1 c -0.25,0.4 -0.55,0.69 -0.92,0.88 -0.37,0.19 -0.82,0.28 -1.35,0.28 -0.67,0 -1.21,-0.19 -1.6,-0.57 -0.39,-0.38 -0.59,-0.88 -0.59,-1.51 0,-0.74 0.25,-1.29 0.74,-1.67 0.49,-0.38 1.23,-0.56 2.21,-0.56 h 1.51 v -0.11 c 0,-0.5 -0.16,-0.88 -0.49,-1.15 -0.33,-0.27 -0.78,-0.41 -1.37,-0.41 -0.38,0 -0.74,0.04 -1.1,0.13 -0.36,0.09 -0.7,0.22 -1.03,0.4 v -1 c 0.39,-0.15 0.78,-0.27 1.15,-0.34 0.37,-0.07 0.73,-0.11 1.08,-0.11 0.95,0 1.66,0.25 2.13,0.74 0.47,0.49 0.7,1.24 0.7,2.24 z m -2.15,0.45 c -0.87,0 -1.47,0.1 -1.81,0.3 -0.34,0.2 -0.5,0.54 -0.5,1.02 0,0.38 0.13,0.69 0.38,0.91 0.25,0.22 0.59,0.34 1.03,0.34 0.6,0 1.08,-0.21 1.44,-0.64 0.36,-0.43 0.54,-0.99 0.54,-1.69 V 11.7 h -1.07 z"
       id="path121" />
    <path
       class="cls-16"
       d="m 255.98,14.18 c 0,1.12 -0.25,1.95 -0.74,2.49 -0.49,0.54 -1.26,0.82 -2.28,0.82 -0.38,0 -0.74,-0.03 -1.07,-0.08 -0.33,-0.05 -0.66,-0.14 -0.98,-0.26 V 16.1 c 0.32,0.17 0.63,0.3 0.94,0.38 0.31,0.08 0.62,0.12 0.94,0.12 0.71,0 1.24,-0.18 1.59,-0.55 0.35,-0.37 0.53,-0.93 0.53,-1.67 v -0.53 c -0.22,0.39 -0.51,0.68 -0.86,0.87 -0.35,0.19 -0.76,0.29 -1.25,0.29 -0.8,0 -1.45,-0.31 -1.95,-0.92 -0.5,-0.61 -0.74,-1.43 -0.74,-2.44 0,-1.01 0.25,-1.83 0.74,-2.44 0.49,-0.61 1.14,-0.92 1.95,-0.92 0.48,0 0.9,0.1 1.25,0.29 0.35,0.19 0.63,0.48 0.86,0.87 v -1 h 1.08 v 5.75 z m -1.08,-2.54 c 0,-0.78 -0.16,-1.39 -0.48,-1.82 -0.32,-0.43 -0.77,-0.64 -1.36,-0.64 -0.59,0 -1.03,0.21 -1.35,0.64 -0.32,0.43 -0.48,1.04 -0.48,1.82 0,0.78 0.16,1.38 0.48,1.81 0.32,0.43 0.77,0.64 1.35,0.64 0.58,0 1.03,-0.21 1.36,-0.64 0.33,-0.43 0.48,-1.03 0.48,-1.81 z"
       id="path122" />
    <path
       class="cls-16"
       d="m 263.82,11.45 v 0.53 h -4.96 c 0.05,0.74 0.27,1.31 0.67,1.7 0.4,0.39 0.96,0.58 1.67,0.58 0.41,0 0.82,-0.05 1.2,-0.15 0.38,-0.1 0.77,-0.25 1.16,-0.46 v 1.02 c -0.39,0.16 -0.78,0.29 -1.19,0.38 -0.41,0.09 -0.82,0.13 -1.24,0.13 -1.05,0 -1.88,-0.3 -2.49,-0.91 -0.61,-0.61 -0.92,-1.43 -0.92,-2.47 0,-1.04 0.29,-1.93 0.87,-2.56 0.58,-0.63 1.36,-0.95 2.35,-0.95 0.88,0 1.58,0.28 2.09,0.85 0.51,0.57 0.77,1.34 0.77,2.32 z m -1.08,-0.32 c 0,-0.59 -0.17,-1.06 -0.5,-1.41 -0.33,-0.35 -0.75,-0.53 -1.28,-0.53 -0.6,0 -1.08,0.17 -1.44,0.51 -0.36,0.34 -0.57,0.82 -0.62,1.44 h 3.84 z"
       id="path123" />
    <path
       class="cls-16"
       d="m 270.44,14.01 v 3.48 h -1.08 V 8.44 h 1.08 v 1 c 0.23,-0.39 0.51,-0.68 0.86,-0.87 0.35,-0.19 0.76,-0.28 1.24,-0.28 0.8,0 1.44,0.32 1.94,0.95 0.5,0.63 0.75,1.46 0.75,2.5 0,1.04 -0.25,1.86 -0.75,2.5 -0.5,0.64 -1.15,0.95 -1.94,0.95 -0.48,0 -0.89,-0.09 -1.24,-0.28 -0.35,-0.19 -0.63,-0.48 -0.86,-0.87 z m 3.67,-2.29 c 0,-0.79 -0.16,-1.42 -0.49,-1.87 -0.33,-0.45 -0.77,-0.68 -1.34,-0.68 -0.57,0 -1.02,0.23 -1.34,0.68 -0.32,0.45 -0.49,1.07 -0.49,1.87 0,0.8 0.16,1.42 0.49,1.87 0.33,0.45 0.77,0.68 1.34,0.68 0.57,0 1.02,-0.23 1.34,-0.68 0.32,-0.45 0.49,-1.07 0.49,-1.87 z"
       id="path124" />
    <path
       class="cls-16"
       d="m 277.02,5.88 h 1.08 V 15 h -1.08 z"
       id="path125" />
    <path
       class="cls-16"
       d="m 285.49,11.25 v 3.74 h -1.08 v -1 c -0.25,0.4 -0.55,0.69 -0.92,0.88 -0.37,0.19 -0.82,0.28 -1.35,0.28 -0.67,0 -1.21,-0.19 -1.6,-0.57 -0.39,-0.38 -0.59,-0.88 -0.59,-1.51 0,-0.74 0.25,-1.29 0.74,-1.67 0.49,-0.38 1.23,-0.56 2.21,-0.56 h 1.51 v -0.11 c 0,-0.5 -0.16,-0.88 -0.49,-1.15 -0.33,-0.27 -0.78,-0.41 -1.37,-0.41 -0.38,0 -0.74,0.04 -1.1,0.13 -0.36,0.09 -0.7,0.22 -1.03,0.4 v -1 c 0.39,-0.15 0.78,-0.27 1.15,-0.34 0.37,-0.07 0.73,-0.11 1.08,-0.11 0.95,0 1.66,0.25 2.13,0.74 0.47,0.49 0.7,1.24 0.7,2.24 z m -2.15,0.45 c -0.87,0 -1.47,0.1 -1.81,0.3 -0.34,0.2 -0.5,0.54 -0.5,1.02 0,0.38 0.13,0.69 0.38,0.91 0.25,0.22 0.59,0.34 1.03,0.34 0.6,0 1.08,-0.21 1.44,-0.64 0.36,-0.43 0.54,-0.99 0.54,-1.69 V 11.7 h -1.07 z"
       id="path126" />
    <path
       class="cls-16"
       d="M 293.16,11.04 V 15 h -1.08 v -3.93 c 0,-0.62 -0.12,-1.09 -0.36,-1.39 -0.24,-0.3 -0.61,-0.46 -1.09,-0.46 -0.58,0 -1.04,0.19 -1.38,0.56 -0.34,0.37 -0.5,0.88 -0.5,1.52 v 3.71 h -1.08 V 8.45 h 1.08 v 1.02 c 0.26,-0.39 0.56,-0.69 0.91,-0.88 0.35,-0.19 0.75,-0.29 1.21,-0.29 0.75,0 1.32,0.23 1.71,0.7 0.39,0.47 0.58,1.15 0.58,2.06 z"
       id="path127" />
    <path
       class="cls-16"
       d="m 300.92,11.45 v 0.53 h -4.96 c 0.05,0.74 0.27,1.31 0.67,1.7 0.4,0.39 0.96,0.58 1.67,0.58 0.41,0 0.82,-0.05 1.2,-0.15 0.38,-0.1 0.77,-0.25 1.16,-0.46 v 1.02 c -0.39,0.16 -0.78,0.29 -1.19,0.38 -0.41,0.09 -0.82,0.13 -1.24,0.13 -1.05,0 -1.88,-0.3 -2.49,-0.91 -0.61,-0.61 -0.92,-1.43 -0.92,-2.47 0,-1.04 0.29,-1.93 0.87,-2.56 0.58,-0.63 1.36,-0.95 2.35,-0.95 0.88,0 1.58,0.28 2.09,0.85 0.51,0.57 0.77,1.34 0.77,2.32 z m -1.08,-0.32 c 0,-0.59 -0.17,-1.06 -0.5,-1.41 -0.33,-0.35 -0.75,-0.53 -1.28,-0.53 -0.6,0 -1.08,0.17 -1.44,0.51 -0.36,0.34 -0.57,0.82 -0.62,1.44 h 3.84 z"
       id="path128" />
  </g>
  <g
     id="g137"
     transform="translate(-23.17,-5.88)">
    <path
       class="cls-16"
       d="m 348.19,116.36 c 0.57,0.12 1.01,0.37 1.33,0.76 0.32,0.39 0.48,0.86 0.48,1.42 0,0.86 -0.3,1.53 -0.89,2 -0.59,0.47 -1.44,0.71 -2.53,0.71 -0.37,0 -0.75,-0.04 -1.13,-0.11 -0.38,-0.07 -0.79,-0.18 -1.2,-0.33 v -1.14 c 0.33,0.19 0.69,0.34 1.08,0.43 0.39,0.09 0.8,0.15 1.22,0.15 0.74,0 1.31,-0.15 1.7,-0.44 0.39,-0.29 0.58,-0.72 0.58,-1.28 0,-0.52 -0.18,-0.92 -0.54,-1.21 -0.36,-0.29 -0.86,-0.44 -1.51,-0.44 h -1.02 v -0.97 h 1.07 c 0.58,0 1.03,-0.12 1.34,-0.35 0.31,-0.23 0.46,-0.57 0.46,-1 0,-0.43 -0.16,-0.79 -0.48,-1.03 -0.32,-0.24 -0.77,-0.36 -1.37,-0.36 -0.32,0 -0.67,0.04 -1.04,0.11 -0.37,0.07 -0.78,0.18 -1.22,0.33 v -1.05 c 0.45,-0.12 0.87,-0.22 1.26,-0.28 0.39,-0.06 0.76,-0.09 1.11,-0.09 0.9,0 1.61,0.2 2.13,0.61 0.52,0.41 0.79,0.96 0.79,1.66 0,0.48 -0.14,0.89 -0.42,1.23 -0.28,0.34 -0.67,0.57 -1.18,0.69 z"
       id="path129" />
    <path
       class="cls-16"
       d="m 351.54,117.31 h 3.16 v 0.96 h -3.16 z"
       id="path130" />
    <path
       class="cls-16"
       d="m 356.46,112.33 h 2.43 c 1.7,0 2.94,0.35 3.73,1.06 0.79,0.71 1.19,1.81 1.19,3.31 0,1.5 -0.4,2.62 -1.2,3.32 -0.8,0.7 -2.04,1.06 -3.73,1.06 h -2.43 v -8.75 z m 1.18,0.97 v 6.8 h 1.43 c 1.21,0 2.09,-0.27 2.65,-0.82 0.56,-0.55 0.84,-1.41 0.84,-2.59 0,-1.18 -0.28,-2.03 -0.84,-2.58 -0.56,-0.55 -1.44,-0.82 -2.65,-0.82 h -1.43 z"
       id="path131" />
    <path
       class="cls-16"
       d="m 372.01,114.36 c 0.94,0 1.67,0.3 2.21,0.91 0.54,0.61 0.8,1.45 0.8,2.53 0,1.08 -0.27,1.92 -0.8,2.53 -0.53,0.61 -1.27,0.92 -2.21,0.92 -0.94,0 -1.68,-0.31 -2.21,-0.92 -0.53,-0.61 -0.8,-1.45 -0.8,-2.53 0,-1.08 0.27,-1.92 0.8,-2.53 0.53,-0.61 1.27,-0.91 2.21,-0.91 z m 0,0.91 c -0.58,0 -1.04,0.23 -1.37,0.68 -0.33,0.45 -0.5,1.07 -0.5,1.85 0,0.78 0.17,1.4 0.5,1.85 0.33,0.45 0.79,0.68 1.37,0.68 0.58,0 1.03,-0.23 1.37,-0.68 0.34,-0.45 0.5,-1.07 0.5,-1.85 0,-0.78 -0.17,-1.39 -0.5,-1.85 -0.33,-0.46 -0.79,-0.68 -1.37,-0.68 z"
       id="path132" />
    <path
       class="cls-16"
       d="m 377.85,115.51 c 0.23,-0.39 0.51,-0.68 0.86,-0.87 0.35,-0.19 0.76,-0.28 1.24,-0.28 0.8,0 1.44,0.32 1.94,0.95 0.5,0.63 0.75,1.46 0.75,2.5 0,1.04 -0.25,1.86 -0.75,2.5 -0.5,0.64 -1.15,0.95 -1.94,0.95 -0.48,0 -0.89,-0.09 -1.24,-0.28 -0.35,-0.19 -0.63,-0.48 -0.86,-0.87 v 0.98 h -1.08 v -9.12 h 1.08 v 3.55 z m 3.67,2.29 c 0,-0.79 -0.16,-1.42 -0.49,-1.87 -0.33,-0.45 -0.77,-0.68 -1.34,-0.68 -0.57,0 -1.02,0.23 -1.34,0.68 -0.32,0.45 -0.49,1.07 -0.49,1.87 0,0.8 0.16,1.42 0.49,1.87 0.33,0.45 0.77,0.68 1.34,0.68 0.57,0 1.02,-0.23 1.34,-0.68 0.32,-0.45 0.49,-1.07 0.49,-1.87 z"
       id="path133" />
    <path
       class="cls-16"
       d="m 384.43,114.52 h 1.08 v 6.68 c 0,0.84 -0.16,1.44 -0.48,1.82 -0.32,0.38 -0.83,0.56 -1.54,0.56 h -0.41 v -0.91 h 0.29 c 0.41,0 0.69,-0.09 0.84,-0.28 0.15,-0.19 0.22,-0.58 0.22,-1.18 v -6.68 z m 0,-2.55 h 1.08 v 1.37 h -1.08 z"
       id="path134" />
    <path
       class="cls-16"
       d="m 393.38,117.53 v 0.53 h -4.96 c 0.05,0.74 0.27,1.31 0.67,1.7 0.4,0.39 0.96,0.58 1.67,0.58 0.41,0 0.82,-0.05 1.2,-0.15 0.38,-0.1 0.77,-0.25 1.16,-0.46 v 1.02 c -0.39,0.16 -0.78,0.29 -1.19,0.38 -0.41,0.09 -0.82,0.13 -1.24,0.13 -1.05,0 -1.88,-0.3 -2.49,-0.91 -0.61,-0.61 -0.92,-1.43 -0.92,-2.47 0,-1.04 0.29,-1.93 0.87,-2.56 0.58,-0.63 1.36,-0.95 2.35,-0.95 0.88,0 1.58,0.28 2.09,0.85 0.51,0.57 0.77,1.34 0.77,2.32 z m -1.08,-0.32 c 0,-0.59 -0.17,-1.06 -0.5,-1.41 -0.33,-0.35 -0.75,-0.53 -1.28,-0.53 -0.6,0 -1.08,0.17 -1.44,0.51 -0.36,0.34 -0.57,0.82 -0.62,1.44 h 3.84 z"
       id="path135" />
    <path
       class="cls-16"
       d="m 399.87,114.77 v 1.01 c -0.3,-0.17 -0.61,-0.29 -0.92,-0.38 -0.31,-0.09 -0.62,-0.13 -0.93,-0.13 -0.7,0 -1.24,0.22 -1.63,0.67 -0.39,0.45 -0.58,1.07 -0.58,1.87 0,0.8 0.19,1.42 0.58,1.87 0.39,0.45 0.93,0.67 1.63,0.67 0.31,0 0.62,-0.04 0.93,-0.13 0.31,-0.09 0.61,-0.21 0.92,-0.38 v 1 c -0.3,0.14 -0.61,0.25 -0.93,0.32 -0.32,0.07 -0.67,0.11 -1.03,0.11 -0.99,0 -1.77,-0.31 -2.36,-0.93 -0.59,-0.62 -0.87,-1.46 -0.87,-2.51 0,-1.05 0.29,-1.91 0.88,-2.53 0.59,-0.62 1.39,-0.92 2.42,-0.92 0.33,0 0.66,0.03 0.97,0.1 0.31,0.07 0.62,0.17 0.92,0.31 z"
       id="path136" />
    <path
       class="cls-16"
       d="m 402.81,112.65 v 1.86 h 2.22 v 0.84 h -2.22 v 3.56 c 0,0.54 0.07,0.88 0.22,1.03 0.15,0.15 0.44,0.23 0.89,0.23 h 1.11 v 0.9 h -1.11 c -0.83,0 -1.41,-0.16 -1.72,-0.47 -0.31,-0.31 -0.47,-0.88 -0.47,-1.7 v -3.56 h -0.79 v -0.84 h 0.79 v -1.86 h 1.08 z"
       id="path137" />
  </g>
  <g
     id="g148"
     transform="translate(-23.17,-5.88)">
    <path
       class="cls-16"
       d="m 180.27,196.19 4.54,-2.17 0.43,0.9 -3.47,1.66 1.11,2.33 3.13,-1.49 0.43,0.9 -3.13,1.49 1.8,3.77 -1.07,0.51 z"
       id="path138" />
    <path
       class="cls-16"
       d="m 189.24,194.16 c 0.85,-0.4 1.64,-0.45 2.39,-0.13 0.75,0.32 1.35,0.97 1.82,1.94 0.46,0.97 0.58,1.85 0.36,2.63 -0.22,0.78 -0.75,1.38 -1.6,1.78 -0.85,0.41 -1.65,0.45 -2.39,0.12 -0.75,-0.32 -1.35,-0.97 -1.81,-1.94 -0.46,-0.97 -0.59,-1.85 -0.37,-2.63 0.22,-0.78 0.75,-1.37 1.6,-1.78 z m 0.39,0.83 c -0.52,0.25 -0.84,0.65 -0.95,1.2 -0.11,0.55 0,1.18 0.34,1.89 0.34,0.71 0.75,1.19 1.25,1.46 0.5,0.26 1.01,0.27 1.53,0.02 0.52,-0.25 0.83,-0.65 0.94,-1.2 0.11,-0.55 0,-1.18 -0.34,-1.89 -0.33,-0.7 -0.75,-1.19 -1.25,-1.45 -0.5,-0.27 -1.01,-0.28 -1.53,-0.03 z"
       id="path139" />
    <path
       class="cls-16"
       d="m 198.01,190.42 0.43,0.91 c -0.35,-0.02 -0.68,0 -0.99,0.05 -0.31,0.06 -0.61,0.15 -0.89,0.29 -0.63,0.3 -1.03,0.73 -1.18,1.3 -0.16,0.57 -0.06,1.21 0.28,1.93 0.35,0.72 0.79,1.2 1.33,1.43 0.54,0.23 1.12,0.2 1.76,-0.1 0.28,-0.13 0.54,-0.31 0.78,-0.51 0.24,-0.2 0.46,-0.45 0.67,-0.74 l 0.43,0.9 c -0.21,0.26 -0.45,0.49 -0.71,0.69 -0.26,0.2 -0.55,0.38 -0.88,0.54 -0.89,0.43 -1.73,0.48 -2.53,0.17 -0.79,-0.31 -1.42,-0.94 -1.87,-1.89 -0.46,-0.97 -0.56,-1.85 -0.29,-2.66 0.27,-0.81 0.86,-1.43 1.78,-1.87 0.3,-0.14 0.61,-0.25 0.92,-0.33 0.32,-0.08 0.64,-0.11 0.96,-0.12 z"
       id="path140" />
    <path
       class="cls-16"
       d="m 205.44,189.72 1.61,3.38 -0.97,0.46 -0.43,-0.9 c -0.05,0.46 -0.2,0.86 -0.45,1.19 -0.25,0.33 -0.61,0.61 -1.09,0.84 -0.61,0.29 -1.17,0.35 -1.69,0.18 -0.52,-0.17 -0.92,-0.54 -1.19,-1.11 -0.32,-0.67 -0.34,-1.27 -0.05,-1.83 0.28,-0.55 0.87,-1.04 1.75,-1.46 l 1.36,-0.65 -0.05,-0.1 c -0.21,-0.45 -0.53,-0.72 -0.94,-0.83 -0.41,-0.11 -0.88,-0.03 -1.42,0.22 -0.34,0.16 -0.65,0.36 -0.93,0.59 -0.28,0.23 -0.53,0.5 -0.75,0.81 l -0.43,-0.9 c 0.29,-0.31 0.59,-0.58 0.89,-0.8 0.3,-0.22 0.61,-0.42 0.93,-0.57 0.86,-0.41 1.6,-0.49 2.24,-0.25 0.63,0.24 1.17,0.81 1.6,1.72 z m -1.75,1.33 c -0.79,0.38 -1.29,0.73 -1.51,1.05 -0.22,0.33 -0.22,0.7 -0.02,1.14 0.17,0.35 0.41,0.56 0.73,0.66 0.32,0.09 0.68,0.05 1.07,-0.14 0.54,-0.26 0.88,-0.66 1.03,-1.19 0.14,-0.54 0.06,-1.12 -0.24,-1.76 l -0.1,-0.22 -0.97,0.46 z"
       id="path141" />
    <path
       class="cls-16"
       d="m 205.13,183.92 0.97,-0.46 3.93,8.23 -0.97,0.46 z"
       id="path142" />
    <path
       class="cls-16"
       d="m 184.77,209.59 0.97,-0.46 3.93,8.23 -0.97,0.46 z"
       id="path143" />
    <path
       class="cls-16"
       d="m 195.24,210.76 0.23,0.48 -4.47,2.14 c 0.36,0.65 0.81,1.06 1.34,1.24 0.53,0.18 1.12,0.11 1.76,-0.19 0.37,-0.18 0.71,-0.4 1.02,-0.66 0.31,-0.26 0.59,-0.56 0.85,-0.91 l 0.44,0.92 c -0.28,0.31 -0.58,0.6 -0.91,0.85 -0.33,0.25 -0.68,0.47 -1.06,0.65 -0.95,0.45 -1.82,0.53 -2.64,0.25 -0.81,-0.29 -1.45,-0.9 -1.89,-1.84 -0.46,-0.97 -0.57,-1.86 -0.32,-2.68 0.25,-0.82 0.82,-1.44 1.71,-1.87 0.8,-0.38 1.55,-0.42 2.26,-0.13 0.71,0.29 1.27,0.88 1.69,1.76 z m -1.11,0.18 c -0.26,-0.53 -0.61,-0.88 -1.06,-1.06 -0.44,-0.18 -0.9,-0.15 -1.38,0.08 -0.54,0.26 -0.9,0.62 -1.08,1.08 -0.18,0.46 -0.16,0.98 0.05,1.56 z"
       id="path144" />
    <path
       class="cls-16"
       d="m 201.59,207.28 1.71,3.57 -0.97,0.46 -1.69,-3.54 c -0.27,-0.56 -0.58,-0.93 -0.93,-1.1 -0.35,-0.17 -0.75,-0.16 -1.18,0.05 -0.53,0.25 -0.86,0.62 -1,1.1 -0.14,0.48 -0.08,1.01 0.2,1.59 l 1.6,3.35 -0.98,0.47 -2.83,-5.92 0.98,-0.47 0.44,0.92 c 0.06,-0.47 0.21,-0.86 0.44,-1.19 0.23,-0.33 0.55,-0.59 0.97,-0.79 0.68,-0.32 1.3,-0.36 1.85,-0.1 0.55,0.25 1.02,0.79 1.41,1.61 z"
       id="path145" />
    <path
       class="cls-16"
       d="m 209.75,206.87 c 0.48,1.01 0.62,1.87 0.4,2.57 -0.22,0.7 -0.78,1.28 -1.71,1.72 -0.34,0.16 -0.68,0.29 -1,0.38 -0.32,0.09 -0.66,0.16 -1,0.19 l -0.45,-0.95 c 0.36,0.02 0.7,0 1.01,-0.06 0.31,-0.06 0.61,-0.16 0.9,-0.29 0.64,-0.3 1.04,-0.7 1.19,-1.18 0.15,-0.48 0.08,-1.06 -0.24,-1.74 l -0.23,-0.48 c -0.03,0.45 -0.17,0.83 -0.4,1.15 -0.23,0.32 -0.57,0.59 -1,0.8 -0.73,0.35 -1.44,0.35 -2.15,0 -0.71,-0.34 -1.28,-0.97 -1.72,-1.88 -0.44,-0.92 -0.57,-1.76 -0.39,-2.52 0.18,-0.77 0.63,-1.32 1.36,-1.67 0.44,-0.21 0.85,-0.3 1.25,-0.28 0.4,0.02 0.78,0.16 1.14,0.41 l -0.43,-0.9 0.97,-0.46 2.48,5.19 z m -2.07,-1.83 c -0.34,-0.71 -0.74,-1.18 -1.22,-1.43 -0.48,-0.25 -0.98,-0.25 -1.5,0 -0.52,0.25 -0.83,0.64 -0.94,1.16 -0.11,0.53 0,1.14 0.35,1.85 0.33,0.7 0.74,1.18 1.22,1.43 0.48,0.25 0.98,0.25 1.5,0 0.53,-0.25 0.84,-0.64 0.95,-1.17 0.11,-0.53 0,-1.14 -0.34,-1.84 z"
       id="path146" />
    <path
       class="cls-16"
       d="m 209.44,198.58 0.8,1.68 2,-0.96 0.36,0.76 -2,0.96 1.53,3.21 c 0.23,0.48 0.45,0.76 0.64,0.84 0.2,0.07 0.5,0.01 0.9,-0.18 l 1,-0.48 0.39,0.81 -1,0.48 c -0.75,0.36 -1.34,0.47 -1.75,0.32 -0.42,-0.14 -0.81,-0.59 -1.16,-1.33 l -1.53,-3.21 -0.71,0.34 -0.36,-0.76 0.71,-0.34 -0.8,-1.68 0.98,-0.47 z"
       id="path147" />
    <path
       class="cls-16"
       d="m 219.57,198.69 1.71,3.57 -0.97,0.46 -1.69,-3.54 c -0.27,-0.56 -0.58,-0.93 -0.93,-1.1 -0.35,-0.17 -0.75,-0.16 -1.18,0.05 -0.53,0.25 -0.86,0.62 -1,1.1 -0.14,0.48 -0.08,1.01 0.2,1.59 l 1.6,3.35 -0.98,0.47 -3.93,-8.23 0.98,-0.47 1.54,3.23 c 0.06,-0.47 0.21,-0.86 0.44,-1.19 0.23,-0.33 0.55,-0.59 0.97,-0.79 0.68,-0.32 1.29,-0.36 1.85,-0.11 0.55,0.25 1.02,0.79 1.41,1.61 z"
       id="path148" />
  </g>
</svg>
