<?xml version="1.0" encoding="UTF-8" standalone="no"?>
<!-- Created with Inkscape (http://www.inkscape.org/) -->

<svg
   width="127.00004mm"
   height="141.17278mm"
   viewBox="0 0 127.00004 141.17278"
   version="1.1"
   id="svg788"
   inkscape:version="1.2 (1:1.2+202206011327+fc4e4096c5)"
   sodipodi:docname="sensors_table.svg"
   xmlns:inkscape="http://www.inkscape.org/namespaces/inkscape"
   xmlns:sodipodi="http://sodipodi.sourceforge.net/DTD/sodipodi-0.dtd"
   xmlns="http://www.w3.org/2000/svg"
   xmlns:svg="http://www.w3.org/2000/svg">
  <sodipodi:namedview
     id="namedview790"
     pagecolor="#ffffff"
     bordercolor="#666666"
     borderopacity="1.0"
     inkscape:showpageshadow="2"
     inkscape:pageopacity="0.0"
     inkscape:pagecheckerboard="0"
     inkscape:deskcolor="#d1d1d1"
     inkscape:document-units="mm"
     showgrid="false"
     inkscape:zoom="1.1893044"
     inkscape:cx="235.43174"
     inkscape:cy="248.88498"
     inkscape:window-width="1920"
     inkscape:window-height="1023"
     inkscape:window-x="0"
     inkscape:window-y="0"
     inkscape:window-maximized="1"
     inkscape:current-layer="layer1" />
  <defs
     id="defs785" />
  <g
     inkscape:label="Layer 1"
     inkscape:groupmode="layer"
     id="layer1"
     transform="translate(-51.258073,-69.624686)">
    <g
       id="g1441">
      <path
         d="m 51.258073,79.932853 h 52.916667 v -10.2235 H 51.258073 Z"
         style="fill:#c0c0c0;fill-opacity:1;fill-rule:nonzero;stroke:none;stroke-width:0.352778"
         id="path45" />
      <text
         xml:space="preserve"
         style="font-variant:normal;font-weight:normal;font-stretch:normal;font-size:3.175px;font-family:'Times New Roman';-inkscape-font-specification:TimesNewRomanPSMT;writing-mode:lr-tb;fill:#000000;fill-opacity:1;fill-rule:nonzero;stroke:none;stroke-width:0.352778"
         id="text51"
         x="63.936909"
         y="73.942688"><tspan
           x="63.936909 66.233696 67.631966 69.223915 70.638062 71.699776 73.098045 73.985146 74.768417 76.182564 77.050606 78.464752 79.691574 80.931091 81.799133 82.860855 83.747948 85.146217 86.563538 87.431587 88.321854 89.913803"
           y="73.942688"
           sodipodi:role="line"
           id="tspan47"
           style="stroke-width:0.352778">General classification</tspan><tspan
           x="69.8424 70.897774 71.778519 73.364113 74.949707 75.830452 77.238251 78.646042 79.526787 80.331017 81.897568 83.146606 84.554398"
           y="77.117683"
           sodipodi:role="line"
           id="tspan49"
           style="stroke-width:0.352778">(typical use)</tspan></text>
      <path
         d="m 104.17474,79.932853 h 44.45 v -10.2235 h -44.45 z"
         style="fill:#c0c0c0;fill-opacity:1;fill-rule:nonzero;stroke:none;stroke-width:0.352778"
         id="path53" />
      <text
         xml:space="preserve"
         style="font-variant:normal;font-weight:normal;font-stretch:normal;font-size:3.175px;font-family:'Times New Roman';-inkscape-font-specification:TimesNewRomanPSMT;writing-mode:lr-tb;fill:#000000;fill-opacity:1;fill-rule:nonzero;stroke:none;stroke-width:0.352778"
         id="text59"
         x="122.08173"
         y="73.942688"><tspan
           x="122.08173 123.84576 125.25419 126.84043 128.07423 129.66046"
           y="73.942688"
           sodipodi:role="line"
           id="tspan55"
           style="stroke-width:0.352778">Sensor</tspan><tspan
           x="117.02396 118.78037 120.20023 121.77883 123.02724 124.60586 125.65424 126.45847 128.21489 129.7935 131.01968 131.89345 133.31331"
           y="77.117683"
           sodipodi:role="line"
           id="tspan57"
           style="stroke-width:0.352778">Sensor System</tspan></text>
      <path
         d="m 148.62474,79.932853 h 14.81667 v -10.2235 h -14.81667 z"
         style="fill:#c0c0c0;fill-opacity:1;fill-rule:nonzero;stroke:none;stroke-width:0.352778"
         id="path61" />
      <text
         xml:space="preserve"
         style="font-variant:normal;font-weight:normal;font-stretch:normal;font-size:3.175px;font-family:'Times New Roman';-inkscape-font-specification:TimesNewRomanPSMT;writing-mode:lr-tb;fill:#000000;fill-opacity:1;fill-rule:nonzero;stroke:none;stroke-width:0.352778"
         id="text67"
         x="152.37125"
         y="73.942688"><tspan
           x="152.37125 154.14352 156.23965 157.04388 158.63837 159.70264"
           y="73.942688"
           sodipodi:role="line"
           id="tspan63"
           style="stroke-width:0.352778">PC or </tspan><tspan
           x="154.00002 155.94788"
           y="77.117683"
           sodipodi:role="line"
           id="tspan65"
           style="stroke-width:0.352778">EC</tspan></text>
      <path
         d="m 163.44141,79.932853 h 14.81666 v -10.2235 h -14.81666 z"
         style="fill:#c0c0c0;fill-opacity:1;fill-rule:nonzero;stroke:none;stroke-width:0.352778"
         id="path69" />
      <text
         xml:space="preserve"
         style="font-variant:normal;font-weight:normal;font-stretch:normal;font-size:3.175px;font-family:'Times New Roman';-inkscape-font-specification:TimesNewRomanPSMT;writing-mode:lr-tb;fill:#000000;fill-opacity:1;fill-rule:nonzero;stroke:none;stroke-width:0.352778"
         id="text269"
         x="166.72224"
         y="75.530182"><tspan
           x="166.72224 169.0184 169.80168 171.39299 172.45407 173.23734"
           y="75.530182"
           sodipodi:role="line"
           id="tspan71"
           style="stroke-width:0.352778">A or P</tspan><tspan
           x="53.374744 55.089237 56.486233 57.895939 58.778591 59.661236 60.543888 61.953594 62.757816 63.992893 65.402596 66.990089 68.225159 69.81266 70.850891"
           y="83.467682"
           sodipodi:role="line"
           id="tspan73"
           style="stroke-width:0.352778">Tactile sensors</tspan><tspan
           x="53.374744 54.431698 56.018879 57.428265 58.310596 59.719975 61.12936 62.011692 62.894032 64.481201 66.06839 66.851662 68.438843 69.495796 70.279068 71.866257 73.453438 75.040627 76.275375 77.157707 78.567093 79.976479 80.85881 81.642075 83.051468 84.638641 86.20359 87.092285 88.501663 89.911041 90.793381 91.576653 93.163841 94.220795"
           y="87.341187"
           sodipodi:role="line"
           id="tspan75"
           style="stroke-width:0.352778">(detection of physical contact or </tspan><tspan
           x="53.374744 54.77174 55.66074 57.254589 58.480137 59.896191 61.46146 62.877514 64.103058 65.34449 66.211266 67.015488 68.241035 69.638039 71.054085 72.647942 73.711555 74.578331 75.467339 77.061188 77.843193 79.084618 81.383316 82.250092 83.139091 84.555145 86.120415 87.536461 88.762016"
           y="91.236908"
           sodipodi:role="line"
           id="tspan77"
           style="stroke-width:0.352778">closeness; security switches)</tspan><tspan
           x="106.29247 108.40797 109.99325 111.57851 112.45895 113.86642 115.2739 116.15432 116.9376 118.17045 120.46058 121.34101 122.23096 123.64352 125.20847 126.62104 127.85897 128.65558 129.43886 131.02921 132.61957 135.09258 136.68294 138.09549 139.15562"
           y="83.467682"
           sodipodi:role="line"
           id="tspan79"
           style="stroke-width:0.352778">Contact switches, bumpers</tspan><tspan
           x="106.29247 108.58894 110.18056 111.06734 111.93507 113.3489 114.74685 115.63363 116.41691 118.00852 119.42236 120.48376 121.51977 122.40653 123.82037 124.88177"
           y="87.341187"
           sodipodi:role="line"
           id="tspan81"
           style="stroke-width:0.352778">Optical barriers</tspan><tspan
           x="106.29247 108.5829 110.1685 111.7541 113.16189 114.74749 116.33308 117.21383 118.62162 120.02941 120.91016 121.71439 123.29998 124.35535 125.94094 127.5075 128.38824 130.85649 131.73723 132.61798 134.20357 134.98558 136.21875 137.62654 139.21214 140.44531 142.0309 143.08627"
           y="91.236908"
           sodipodi:role="line"
           id="tspan83"
           style="stroke-width:0.352778">Noncontact proximity sensors</tspan><tspan
           x="150.74246 152.66905"
           y="83.467682"
           sodipodi:role="line"
           id="tspan85"
           style="stroke-width:0.352778">EC</tspan><tspan
           x="150.74246 152.66905"
           y="87.341187"
           sodipodi:role="line"
           id="tspan87"
           style="stroke-width:0.352778">EC</tspan><tspan
           x="150.74246 152.66905"
           y="91.236908"
           sodipodi:role="line"
           id="tspan89"
           style="stroke-width:0.352778">EC</tspan><tspan
           x="165.5602"
           y="83.467682"
           id="tspan91"
           style="stroke-width:0.352778">P</tspan><tspan
           x="165.5602"
           y="87.341187"
           id="tspan93"
           style="stroke-width:0.352778">A</tspan><tspan
           x="165.5602"
           y="91.236908"
           id="tspan95"
           style="stroke-width:0.352778">A</tspan><tspan
           x="53.377918 56.373203 57.958813 59.366604 60.774403 61.65514 62.535885 65.00412 66.589714 67.470467 69.056061 70.111435 70.915657 72.148834 73.556625 75.14222 76.375389 77.960983 78.997307"
           y="96.866188"
           sodipodi:role="line"
           id="tspan97"
           style="stroke-width:0.352778">Wheel/motor sensors</tspan><tspan
           x="53.377918 54.440273 56.737698 58.33028 59.729183 61.143963 62.012646 62.900379 65.375603 66.942787 67.830513 69.423096 70.485443 71.268715 72.508873 74.07605 75.490829 76.87291 78.461052 79.265274 80.675606 82.263741 83.851883 84.656105 86.222015 87.810158 89.04586 89.929146 90.812431 91.695717 93.261627 94.849762"
           y="100.76191"
           sodipodi:role="line"
           id="tspan99"
           style="stroke-width:0.352778">(wheel/motor speed and position)</tspan><tspan
           x="106.29563 108.41177 109.46746 111.05337 112.28686 113.87278 114.65604 116.06416 117.65006 119.05819 120.6441 122.23 123.63811 124.69381"
           y="96.866188"
           sodipodi:role="line"
           id="tspan101"
           style="stroke-width:0.352778">Brush encoders</tspan><tspan
           x="106.29563 108.06444 109.65542 110.54156 111.93888 113.52987 114.41601 115.2831 116.87092 119.34457 120.74189 121.62803 123.02535 124.08611"
           y="100.76191"
           sodipodi:role="line"
           id="tspan103"
           style="stroke-width:0.352778">Potentiometers</tspan><tspan
           x="106.29563 108.0619 109.65034 111.23879 112.64944 114.23789 115.29612 116.88457 118.1206 118.91531 119.69859 120.75681 122.16746 123.4035 124.99194 125.87554 127.44176 128.85243 129.91066"
           y="104.63541"
           sodipodi:role="line"
           id="tspan105"
           style="stroke-width:0.352778">Synchros, resolvers</tspan><tspan
           x="106.29563 108.59244 110.18438 111.07146 111.93952 113.35366 114.75193 115.63903 116.42229 117.83645 119.42838 120.82665 122.4186 124.01055 125.42469 126.46101"
           y="108.50891"
           sodipodi:role="line"
           id="tspan107"
           style="stroke-width:0.352778">Optical encoders</tspan><tspan
           x="106.29563 109.1106 110.52854 112.09573 113.68195 115.09673 115.96542 116.85314 118.26792 119.0512 120.46598 122.03316 123.44794 125.04052 126.63309 128.02884 129.09119"
           y="112.40463"
           sodipodi:role="line"
           id="tspan109"
           style="stroke-width:0.352778">Magnetic encoders</tspan><tspan
           x="106.29563 107.35673 108.94804 110.53934 112.10525 113.51876 114.40522 115.27264 116.86077 118.27428 119.05755 120.47106 122.03696 123.45048 125.04179 126.63309 128.03075 129.09183"
           y="116.27813"
           sodipodi:role="line"
           id="tspan111"
           style="stroke-width:0.352778">Inductive encoders</tspan><tspan
           x="106.29563 108.41177 109.81988 111.4058 112.81391 114.22202 115.10308 115.98415 116.86521 118.45112 119.85923 120.64251 122.05062 123.63653 125.04464 126.63056 128.21648 129.62459 130.68028"
           y="120.15163"
           sodipodi:role="line"
           id="tspan113"
           style="stroke-width:0.352778">Capacitive encoders</tspan><tspan
           x="150.74564 152.50204"
           y="96.869362"
           sodipodi:role="line"
           id="tspan115"
           style="stroke-width:0.352778">PC</tspan><tspan
           x="150.74564 152.50204"
           y="100.76508"
           sodipodi:role="line"
           id="tspan117"
           style="stroke-width:0.352778">PC</tspan><tspan
           x="150.74564 152.50204"
           y="104.63858"
           sodipodi:role="line"
           id="tspan119"
           style="stroke-width:0.352778">PC</tspan><tspan
           x="150.74564 152.50204"
           y="108.51208"
           sodipodi:role="line"
           id="tspan121"
           style="stroke-width:0.352778">PC</tspan><tspan
           x="150.74564 152.50204"
           y="112.40781"
           sodipodi:role="line"
           id="tspan123"
           style="stroke-width:0.352778">PC</tspan><tspan
           x="150.74564 152.50204"
           y="116.28131"
           sodipodi:role="line"
           id="tspan125"
           style="stroke-width:0.352778">PC</tspan><tspan
           x="150.74564 152.50204"
           y="120.15481"
           sodipodi:role="line"
           id="tspan127"
           style="stroke-width:0.352778">PC</tspan><tspan
           x="165.56337"
           y="96.872536"
           id="tspan129"
           style="stroke-width:0.352778">P</tspan><tspan
           x="165.56337"
           y="100.76826"
           id="tspan131"
           style="stroke-width:0.352778">P</tspan><tspan
           x="165.56337"
           y="104.64176"
           id="tspan133"
           style="stroke-width:0.352778">A</tspan><tspan
           x="165.56337"
           y="108.51526"
           id="tspan135"
           style="stroke-width:0.352778">A</tspan><tspan
           x="165.56337"
           y="112.41098"
           id="tspan137"
           style="stroke-width:0.352778">A</tspan><tspan
           x="165.56337"
           y="116.28448"
           id="tspan139"
           style="stroke-width:0.352778">A</tspan><tspan
           x="165.56337"
           y="120.15798"
           id="tspan141"
           style="stroke-width:0.352778">A</tspan><tspan
           x="53.381084 55.671215 57.078693 58.486172 60.071453 60.951878 62.537159 64.122429 64.926651 66.159508 67.566986 69.152267 70.385117 71.970398 73.006393"
           y="125.80949"
           sodipodi:role="line"
           id="tspan143"
           style="stroke-width:0.352778">Heading sensors</tspan><tspan
           x="53.381084 54.438053 56.025227 57.063137 57.951824 59.361202 60.926159 61.808491 63.217876 64.100204 64.982536 66.569717 68.156906 68.938904 70.526085 71.583038 72.365044 73.247375 74.834564 76.243942 77.048172 78.105125 79.692307 81.279495 82.844452 83.726784 84.531013 85.413345 87.000526 87.804756 88.842651 90.261566 91.143906 92.553284 93.435616 94.317947 95.905136 97.492317 98.296547 99.178871 100.76605"
           y="129.68298"
           sodipodi:role="line"
           id="tspan145"
           style="stroke-width:0.352778">(orientation of the robot in relation to </tspan><tspan
           x="53.381084 54.788883 55.593121 56.648479 57.529232 59.114826 60.522617 62.108212 62.890217 63.945591 65.353378 66.408745 67.816536 68.87191 70.279709 71.865303 73.273094 74.680893 75.485115 76.521439 77.579979 78.987778 81.456024 82.863823"
           y="133.5787"
           sodipodi:role="line"
           id="tspan147"
           style="stroke-width:0.352778">a fixed reference frame)</tspan><tspan
           x="106.29881 108.41399 109.99895 112.46656 114.05152 115.45869 116.69122"
           y="125.80949"
           sodipodi:role="line"
           id="tspan149"
           style="stroke-width:0.352778">Compass</tspan><tspan
           x="106.29881 108.58926 110.17486 111.23022 112.81582 114.04899 115.45678 117.04238 118.62797 120.03576"
           y="129.68298"
           sodipodi:role="line"
           id="tspan151"
           style="stroke-width:0.352778">Gyroscopes</tspan><tspan
           x="106.29881 107.35005 108.93153 110.33518 111.22451 112.10113 113.68259 115.26406 117.74087 119.14454 120.03387 121.43752 122.48878"
           y="133.5787"
           sodipodi:role="line"
           id="tspan153"
           style="stroke-width:0.352778">Inclinometers</tspan><tspan
           x="150.74881 152.67542"
           y="125.80949"
           sodipodi:role="line"
           id="tspan155"
           style="stroke-width:0.352778">EC</tspan><tspan
           x="150.74881 152.50523"
           y="129.68298"
           sodipodi:role="line"
           id="tspan157"
           style="stroke-width:0.352778">PC</tspan><tspan
           x="150.74881 152.67542"
           y="133.5787"
           sodipodi:role="line"
           id="tspan159"
           style="stroke-width:0.352778">EC</tspan><tspan
           x="165.56654"
           y="125.80949"
           id="tspan161"
           style="stroke-width:0.352778">P</tspan><tspan
           x="165.56654"
           y="129.68298"
           id="tspan163"
           style="stroke-width:0.352778">P</tspan><tspan
           x="165.56654 167.85889 168.74155"
           y="133.5787"
           sodipodi:role="line"
           id="tspan165"
           style="stroke-width:0.352778">A/P</tspan><tspan
           x="53.384258 55.67535 57.083775 58.492207 59.900639 60.782009 62.190441 63.227406 64.645348 65.526733 66.408104 67.994339 69.580566 70.384804 71.618599 73.027031 74.613258 75.847069 77.433304 106.32738 108.61848 110.02689 111.43533 112.84376 113.72514 115.13357 116.18957 117.75675 120.22562 121.63406 122.51543 123.92387 150.76152 152.5192 165.57988"
           y="139.20799"
           sodipodi:role="line"
           id="tspan167"
           style="stroke-width:0.352778">Acceleration sensorAccelerometerPCP</tspan><tspan
           x="53.384258 55.675022 56.730717 58.316624 59.902546 61.469402 63.055309 63.859539 65.44545 66.853569 68.261673 69.669785 71.255699 72.841621"
           y="144.8595"
           sodipodi:role="line"
           id="tspan169"
           style="stroke-width:0.352778">Ground beacons</tspan><tspan
           x="53.384258 54.440594 55.322292 56.908833 58.317585 59.72633 60.608021 61.489719 62.898472 64.307213 65.188911 66.07061 67.657158 69.243698 70.026978 70.908676 72.495224 73.28199 74.691689 75.47496 76.532234 77.414886 78.980156 80.399384 81.986885 82.770157 83.827431 85.237137 86.294403 87.704102 88.761383 90.171082 91.758575 93.168282 94.577988"
           y="148.73299"
           sodipodi:role="line"
           id="tspan171"
           style="stroke-width:0.352778">(localization in a fixed reference </tspan><tspan
           x="53.384258 54.438366 55.492466 56.898991 59.365971 60.772495"
           y="152.62871"
           sodipodi:role="line"
           id="tspan173"
           style="stroke-width:0.352778">frame)</tspan><tspan
           x="106.30199 108.5864 110.34376"
           y="144.8595"
           sodipodi:role="line"
           id="tspan175"
           style="stroke-width:0.352778">GPS</tspan><tspan
           x="106.30199 108.59434 110.00404 110.88668 111.76934 113.35683 114.76653 115.57076 117.15826 118.72353 119.60619 120.48884 121.89854 123.30824 124.19088 124.97099 126.55659 127.61195 128.39523 130.51105 132.27444 133.07994 134.66554 136.07333 137.48112 138.88892 140.47452 142.0601"
           y="148.73299"
           sodipodi:role="line"
           id="tspan177"
           style="stroke-width:0.352778">Active optical or RF beacons</tspan><tspan
           x="106.30199 108.59338 110.00213 110.88383 111.76553 113.35207 114.76081 115.56506 117.15159 118.03329 118.91499 119.97132 121.38006 122.61419 124.18168 125.76823 126.64993 128.05869 128.8629 130.44945 131.8582 133.26695 134.6757 136.26224 137.84879"
           y="152.62871"
           sodipodi:role="line"
           id="tspan179"
           style="stroke-width:0.352778">Active ultrasonic beacons</tspan><tspan
           x="106.30199 108.4178 109.8256 110.88097 111.76171 113.16952 114.57731 115.45805 116.3388 117.92439 119.33219 120.11546 121.70106 123.10885 124.51664 125.92443 127.51003 129.09564"
           y="156.50221"
           sodipodi:role="line"
           id="tspan181"
           style="stroke-width:0.352778">Reflective beacons</tspan><tspan
           x="150.752 152.67859"
           y="144.8595"
           sodipodi:role="line"
           id="tspan183"
           style="stroke-width:0.352778">EC</tspan><tspan
           x="150.752 152.67859"
           y="148.73299"
           sodipodi:role="line"
           id="tspan185"
           style="stroke-width:0.352778">EC</tspan><tspan
           x="150.752 152.67859"
           y="152.62871"
           sodipodi:role="line"
           id="tspan187"
           style="stroke-width:0.352778">EC</tspan><tspan
           x="150.752 152.67859"
           y="156.50221"
           sodipodi:role="line"
           id="tspan189"
           style="stroke-width:0.352778">EC</tspan><tspan
           x="165.56972"
           y="144.8595"
           id="tspan191"
           style="stroke-width:0.352778">A</tspan><tspan
           x="165.56972"
           y="148.73299"
           id="tspan193"
           style="stroke-width:0.352778">A</tspan><tspan
           x="165.56972"
           y="152.62871"
           id="tspan195"
           style="stroke-width:0.352778">A</tspan><tspan
           x="165.56972"
           y="156.50221"
           id="tspan197"
           style="stroke-width:0.352778">A</tspan><tspan
           x="53.38744 55.676296 57.082508 57.961666 58.840816 60.424831 61.831036 62.635258 63.673168 65.092072 66.676079 68.260094 69.139252 70.723251"
           y="162.15372"
           sodipodi:role="line"
           id="tspan199"
           style="stroke-width:0.352778">Active ranging</tspan><tspan
           x="53.38744 54.445354 55.503262 56.913601 57.9715 58.854794 60.265133 61.675465 62.558743 63.442036 65.030167 65.913445 66.796738 68.172134 68.966522 69.749794 70.633087 71.516365 73.987152 75.358437 76.41571 78.003212 79.060486 80.11776 81.175034 82.057686 82.940331 84.527832 86.115334 86.997986 87.791733 88.575012 89.984711 91.572212 93.159706 93.942978 95.530487 96.94017 98.527687"
           y="166.02721"
           sodipodi:role="line"
           id="tspan201"
           style="stroke-width:0.352778">(reflectivity, time-of-flight, and geo-</tspan><tspan
           x="53.38744 55.843304 57.260944 58.129299 59.18816 60.075573 61.474163 62.278393 63.165806 64.202438 65.089851 66.504311 68.096581 69.663445 71.255699 72.143112 73.541702 74.429115 75.316521 76.908791 78.501053"
           y="169.9007"
           sodipodi:role="line"
           id="tspan203"
           style="stroke-width:0.352778">metric triangulation)</tspan><tspan
           x="106.30516 108.42162 109.83004 110.88605 111.76743 113.17587 114.58428 115.46568 116.34705 117.93328 118.81466 119.69604 121.28226 122.08649 123.3203 124.72874 126.31496 127.54877 129.11595 130.17514"
           y="162.15372"
           sodipodi:role="line"
           id="tspan205"
           style="stroke-width:0.352778">Reflectivity sensors</tspan><tspan
           x="106.30516 108.59624 109.47762 110.359 111.415 112.82343 114.05724 115.64347 117.2297 118.11108 119.51951 120.30247 121.53628 122.94469 124.53094 125.76473 127.35096"
           y="166.02721"
           sodipodi:role="line"
           id="tspan207"
           style="stroke-width:0.352778">Ultrasonic sensor</tspan><tspan
           x="106.30516 108.24445 109.65351 110.88796 112.29702 113.35366 114.13694 115.19357 116.60264 118.18951 119.77636 121.18543 122.24207 123.12409 124.71096 126.29781 127.70689"
           y="169.9007"
           sodipodi:role="line"
           id="tspan209"
           style="stroke-width:0.352778">Laser rangefinder</tspan><tspan
           x="106.30516 108.59656 110.1831 111.0648 111.9465 113.35525 114.764 115.6457 116.42896 117.31066 118.36698 119.24868 120.65743 122.24398 123.83053 125.41708 126.29877 127.70751 128.58922 129.47092 131.05746 132.64401 133.42729 134.48361 136.07016 138.36156"
           y="173.79643"
           sodipodi:role="line"
           id="tspan211"
           style="stroke-width:0.352778">Optical triangulation (1D)</tspan><tspan
           x="106.30516 107.99902 108.88961 109.94529 111.53121 112.93932 113.82038 115.4063 116.46198 117.87009 119.45602 120.26025 121.1413 122.02236 123.60827 125.19419 126.07525 126.87948 127.93516 129.52109 131.81184"
           y="177.66994"
           sodipodi:role="line"
           id="tspan213"
           style="stroke-width:0.352778">Structured light (2D)</tspan><tspan
           x="150.75517 152.68176"
           y="162.15372"
           sodipodi:role="line"
           id="tspan215"
           style="stroke-width:0.352778">EC</tspan><tspan
           x="150.75517 152.68176"
           y="166.02721"
           sodipodi:role="line"
           id="tspan217"
           style="stroke-width:0.352778">EC</tspan><tspan
           x="150.75517 152.68176"
           y="169.9007"
           sodipodi:role="line"
           id="tspan219"
           style="stroke-width:0.352778">EC</tspan><tspan
           x="150.75517 152.68176"
           y="173.79643"
           sodipodi:role="line"
           id="tspan221"
           style="stroke-width:0.352778">EC</tspan><tspan
           x="150.75517 152.68176"
           y="177.66994"
           sodipodi:role="line"
           id="tspan223"
           style="stroke-width:0.352778">EC</tspan><tspan
           x="165.57289"
           y="162.15372"
           id="tspan225"
           style="stroke-width:0.352778">A</tspan><tspan
           x="165.57289"
           y="166.02721"
           id="tspan227"
           style="stroke-width:0.352778">A</tspan><tspan
           x="165.57289"
           y="169.9007"
           id="tspan229"
           style="stroke-width:0.352778">A</tspan><tspan
           x="165.57289"
           y="173.79643"
           id="tspan231"
           style="stroke-width:0.352778">A</tspan><tspan
           x="165.57289"
           y="177.66994"
           id="tspan233"
           style="stroke-width:0.352778">A</tspan><tspan
           x="53.390614 56.211918 57.798153 58.679539 59.560909 61.147137 62.733372 63.61475 64.848557 66.434784 67.843216 69.251648 70.837875 71.62114 72.85495 74.263374 75.849609 77.083412 78.669647 79.725647"
           y="183.32143"
           sodipodi:role="line"
           id="tspan235"
           style="stroke-width:0.352778">Motion/speed sensors</tspan><tspan
           x="53.390614 54.447254 55.681698 57.268566 58.677631 60.086697 61.673557 62.456821 63.51347 64.922531 65.80455 67.213615 68.095619 68.977646 70.564507 71.973572 72.779068 73.661079 75.225723 76.031219 77.08786 77.969872 79.55674 80.965805 82.552673 83.335938 84.922806 85.979446 86.762711 89.232231 90.819107 92.405968 93.287987 94.874847 96.4617"
           y="187.19493"
           sodipodi:role="line"
           id="tspan237"
           style="stroke-width:0.352778">(speed relative to fixed or moving </tspan><tspan
           x="53.390614 54.975574 56.560535 57.440647 58.847805 60.254963 61.135082 62.367603"
           y="191.06844"
           sodipodi:role="line"
           id="tspan239"
           style="stroke-width:0.352778">objects)</tspan><tspan
           x="106.30833 108.59941 110.18565 111.77187 113.3581 114.23948 115.64791 116.70393 117.48719 118.54321 119.95162 121.51881 122.93676"
           y="183.32143"
           sodipodi:role="line"
           id="tspan241"
           style="stroke-width:0.352778">Doppler radar</tspan><tspan
           x="106.30833 108.59846 110.18374 111.76902 113.35429 114.23472 115.6422 116.69726 117.48052 118.71337 120.29865 121.88393 123.46922"
           y="187.19493"
           sodipodi:role="line"
           id="tspan243"
           style="stroke-width:0.352778">Doppler sound</tspan><tspan
           x="150.75835 152.68494"
           y="183.32143"
           sodipodi:role="line"
           id="tspan245"
           style="stroke-width:0.352778">EC</tspan><tspan
           x="150.75835 152.68494"
           y="187.19493"
           sodipodi:role="line"
           id="tspan247"
           style="stroke-width:0.352778">EC</tspan><tspan
           x="165.57607"
           y="183.32143"
           id="tspan249"
           style="stroke-width:0.352778">A</tspan><tspan
           x="165.57607"
           y="187.19493"
           id="tspan251"
           style="stroke-width:0.352778">A</tspan><tspan
           x="53.393787 55.487072 56.377018 57.609875 58.490299 60.075573 61.660854 62.465084 63.697933 65.105408 66.671638 67.920364 69.505646 70.541641"
           y="196.71992"
           sodipodi:role="line"
           id="tspan253"
           style="stroke-width:0.352778">Vision sensors</tspan><tspan
           x="53.393787 54.452335 56.041111 56.925022 58.161373 59.750141 61.161114 62.045025 62.828304 63.886852 65.297821 66.886589 68.475357 69.359276 70.948044 72.536812 73.331833 74.115112 76.408722 77.997498 79.564041 80.454308 81.865288 82.901596 83.785515 86.256935 87.667908 89.256683 90.667641 91.450928 92.861893 94.428436 95.839401 96.723328 98.289871"
           y="200.59343"
           sodipodi:role="line"
           id="tspan255"
           style="stroke-width:0.352778">(visual ranging, whole-image analy-</tspan><tspan
           x="53.393787 54.628864 55.511509 56.746586 57.54034 58.344563 59.579639 60.989346 62.576839 65.046997 66.456696 68.021965 68.904617 70.314316 71.19696 72.07962 73.667114 75.254616 76.04837 76.852592 78.41787 80.005363 80.888016 82.297714 83.70742 84.590065 85.372063 86.429344 87.839043 89.248741 90.836243 92.423744 94.011246 94.89389 95.776543 96.659195 98.246696 99.811966"
           y="204.48917"
           sodipodi:role="line"
           id="tspan257"
           style="stroke-width:0.352778">sis, segmentation, object recognition)</tspan><tspan
           x="106.3115 108.42734 110.54314 112.8336 113.71433 115.83016 118.65083 120.94128 122.70467 123.48794 124.89574 126.30354 128.77179 130.17958 131.2159 132.63322 133.68858 134.92177"
           y="196.71992"
           sodipodi:role="line"
           id="tspan259"
           style="stroke-width:0.352778">CCD/CMOS camera(s)</tspan><tspan
           x="106.3115 108.40733 109.29665 110.52886 112.1135 113.52035 114.40014 115.18342 116.23783 117.64468 119.22932 120.81396 121.69375 123.27839 124.86303 125.66853 127.23412 128.65367 130.06052 131.64516 133.052 134.63664 136.04349"
           y="200.59343"
           sodipodi:role="line"
           id="tspan261"
           style="stroke-width:0.352778">Visual ranging packages</tspan><tspan
           x="106.3115 108.60831 110.20025 111.08735 112.48562 113.89976 114.7678 115.57203 116.44007 117.49862 118.91277 120.31104 121.90298 122.79008 124.38203 125.97398 126.75597 128.34792 129.74619 131.16034 132.75229 134.15056 135.73932 137.15347"
           y="204.48917"
           sodipodi:role="line"
           id="tspan263"
           style="stroke-width:0.352778">Object tracking packages</tspan><tspan
           x="150.76152 152.68811 165.57797"
           y="196.71992"
           sodipodi:role="line"
           id="tspan265"
           style="stroke-width:0.352778">ECP</tspan><tspan
           x="53.393787 55.683605 56.474812 57.279041 58.686199 60.093357 60.973461 61.85358 63.438534 64.845695 65.725807 66.530029 67.927666 68.731575 69.51358 71.098541 72.505699 73.738235 74.970772 75.850876 77.435837 78.83506 79.716438 80.499718 82.263741 83.145126 85.436203 86.228683 87.011955 88.59819 90.006615 91.240417 92.474228 93.355606 94.941833 96.350266 97.231644 98.640076 100.04851 100.92989 101.81126 103.39749 104.80592 105.6873 106.49281 108.25684 110.37328 111.16576 111.97126 113.55749 114.6135 116.18069 117.76057 118.81562 119.69604 121.28132 122.68879 124.09628 125.68156 126.56197 127.44241 129.02769 130.43517 131.3156 132.11983 134.05753 136.17303 136.96455 137.76878 139.17625 140.76154 141.64197 143.04944 144.10449 145.68977 147.09724 148.50473 150.09001 150.97043 151.85086 153.43614 154.84361 155.63515"
           y="210.11844"
           sodipodi:role="line"
           id="tspan267"
           style="stroke-width:0.352778">A, active; P, passive; P/A, passive/active; PC, proprioceptive; EC, exteroceptive. </tspan></text>
      <path
         d="m 51.258073,206.50952 h 0.08467 V 69.79402 h -0.08467 z"
         style="fill:#000000;fill-opacity:1;fill-rule:nonzero;stroke:none;stroke-width:0.352778"
         id="path271" />
      <path
         d="m 104.09008,206.67885 h 0.16933 V 69.624686 h -0.16933 z"
         style="fill:#000000;fill-opacity:1;fill-rule:nonzero;stroke:none;stroke-width:0.352778"
         id="path273" />
      <path
         d="m 148.54007,206.67885 h 0.16934 V 69.624686 h -0.16934 z"
         style="fill:#000000;fill-opacity:1;fill-rule:nonzero;stroke:none;stroke-width:0.352778"
         id="path275" />
      <path
         d="m 163.35674,206.67885 h 0.16933 V 69.624686 h -0.16933 z"
         style="fill:#000000;fill-opacity:1;fill-rule:nonzero;stroke:none;stroke-width:0.352778"
         id="path277" />
      <path
         d="m 178.17341,206.50952 h 0.0847 V 69.79402 h -0.0847 z"
         style="fill:#000000;fill-opacity:1;fill-rule:nonzero;stroke:none;stroke-width:0.352778"
         id="path279" />
      <path
         d="M 51.258073,69.79402 H 178.25807 V 69.624686 H 51.258073 Z"
         style="fill:#000000;fill-opacity:1;fill-rule:nonzero;stroke:none;stroke-width:0.352778"
         id="path281" />
      <path
         d="M 51.258073,80.017519 H 178.25807 V 79.848186 H 51.258073 Z"
         style="fill:#000000;fill-opacity:1;fill-rule:nonzero;stroke:none;stroke-width:0.352778"
         id="path283" />
      <path
         d="M 51.258073,93.437186 H 178.25807 V 93.267852 H 51.258073 Z"
         style="fill:#000000;fill-opacity:1;fill-rule:nonzero;stroke:none;stroke-width:0.352778"
         id="path285" />
      <path
         d="M 51.258073,122.35085 H 178.25807 v -0.16933 H 51.258073 Z"
         style="fill:#000000;fill-opacity:1;fill-rule:nonzero;stroke:none;stroke-width:0.352778"
         id="path287" />
      <path
         d="M 51.258073,135.77052 H 178.25807 v -0.16933 H 51.258073 Z"
         style="fill:#000000;fill-opacity:1;fill-rule:nonzero;stroke:none;stroke-width:0.352778"
         id="path289" />
      <path
         d="M 51.258073,141.40085 H 178.25807 v -0.16933 H 51.258073 Z"
         style="fill:#000000;fill-opacity:1;fill-rule:nonzero;stroke:none;stroke-width:0.352778"
         id="path291" />
      <path
         d="M 51.258073,158.69402 H 178.25807 v -0.16933 H 51.258073 Z"
         style="fill:#000000;fill-opacity:1;fill-rule:nonzero;stroke:none;stroke-width:0.352778"
         id="path293" />
      <path
         d="M 51.258073,179.86068 H 178.25807 v -0.16933 H 51.258073 Z"
         style="fill:#000000;fill-opacity:1;fill-rule:nonzero;stroke:none;stroke-width:0.352778"
         id="path295" />
      <path
         d="M 51.258073,193.25918 H 178.25807 v -0.16933 H 51.258073 Z"
         style="fill:#000000;fill-opacity:1;fill-rule:nonzero;stroke:none;stroke-width:0.352778"
         id="path297" />
      <path
         d="M 51.258073,206.67885 H 178.25807 v -0.16933 H 51.258073 Z"
         style="fill:#000000;fill-opacity:1;fill-rule:nonzero;stroke:none;stroke-width:0.352778"
         id="path299" />
    </g>
  </g>
</svg>
