<?xml version="1.0" encoding="UTF-8" standalone="no"?>
<!-- Created with Inkscape (http://www.inkscape.org/) -->

<svg
   id="svg3390"
   version="1.1"
   inkscape:version="1.2.1 (1:1.2.1+202210291243+9c6d41e410)"
   xml:space="preserve"
   width="1052.3625"
   height="744.09497"
   viewBox="0 0 1052.3625 744.09497"
   sodipodi:docname="Cifasis_curvas.svg"
   inkscape:export-filename="/home/pablo/Imágenes/cifasis/logos/Cifasis_curvas.png"
   inkscape:export-xdpi="90"
   inkscape:export-ydpi="90"
   xmlns:inkscape="http://www.inkscape.org/namespaces/inkscape"
   xmlns:sodipodi="http://sodipodi.sourceforge.net/DTD/sodipodi-0.dtd"
   xmlns="http://www.w3.org/2000/svg"
   xmlns:svg="http://www.w3.org/2000/svg"
   xmlns:rdf="http://www.w3.org/1999/02/22-rdf-syntax-ns#"
   xmlns:cc="http://creativecommons.org/ns#"
   xmlns:dc="http://purl.org/dc/elements/1.1/"><metadata
     id="metadata3396"><rdf:RDF><cc:Work
         rdf:about=""><dc:format>image/svg+xml</dc:format><dc:type
           rdf:resource="http://purl.org/dc/dcmitype/StillImage" /></cc:Work></rdf:RDF></metadata><defs
     id="defs3394"><clipPath
       clipPathUnits="userSpaceOnUse"
       id="clipPath3404"><path
         d="m 0,595.276 841.89,0 L 841.89,0 0,0 0,595.276 Z"
         id="path3406"
         inkscape:connector-curvature="0" /></clipPath></defs><sodipodi:namedview
     pagecolor="#ffffff"
     bordercolor="#666666"
     borderopacity="1"
     objecttolerance="10"
     gridtolerance="10"
     guidetolerance="10"
     inkscape:pageopacity="0"
     inkscape:pageshadow="2"
     inkscape:window-width="1846"
     inkscape:window-height="1016"
     id="namedview3392"
     showgrid="false"
     inkscape:zoom="1.0833318"
     inkscape:cx="460.1545"
     inkscape:cy="325.38508"
     inkscape:window-x="1440"
     inkscape:window-y="27"
     inkscape:window-maximized="1"
     inkscape:current-layer="g3398"
     inkscape:showpageshadow="2"
     inkscape:pagecheckerboard="0"
     inkscape:deskcolor="#d1d1d1" /><g
     id="g3398"
     inkscape:groupmode="layer"
     inkscape:label="Cifasis_curvas"
     transform="matrix(1.25,0,0,-1.25,0,744.095)"><g
       id="g3400"><g
         id="g3402"
         clip-path="url(#clipPath3404)"><path
           d="m 55.341,216.79 720.216,0"
           style="fill:none;stroke:#1a171b;stroke-width:0.708;stroke-linecap:butt;stroke-linejoin:miter;stroke-miterlimit:10;stroke-dasharray:none;stroke-opacity:1"
           id="path3408"
           inkscape:connector-curvature="0" /><path
           d="M 459.513,348.475 437.927,316.95 c -42.097,25.305 -93.538,48.229 -139.96,30.766 -12.383,-5.006 -15.842,-6.434 -24.328,-12.114 -0.13,-0.076 -1.466,-1.061 -1.621,-1.166 -0.098,-0.077 -7.814,5.536 -7.814,5.536 0,0 1.631,1.434 1.934,1.709 30.805,28.048 67.112,48.819 118.975,39.41 29.408,-5.212 55.033,-18.102 74.4,-32.616"
           style="fill:#0092dd;fill-opacity:1;fill-rule:nonzero;stroke:none"
           id="path3410"
           inkscape:connector-curvature="0" /><path
           d="m 145.403,379.62 c 39.123,-0.865 73.574,-23.161 104.325,-45.166 31.316,-22.413 65.702,-43.075 102.97,-53.756 18.747,-5.368 38.801,-7.833 58.022,-3.502 -13.235,-13.737 -29.285,-22.909 -47.999,-26.852 -18.813,-3.973 -38.644,-3.832 -57.407,0.307 -18.724,4.119 -35.776,11.338 -52.819,20.103 -17.272,8.88 -33.731,21.368 -48.97,33.247 -22.728,17.724 -47.388,35.291 -75.403,43.404 -13.998,4.057 -28.262,5.438 -42.316,0.653 -6.445,-2.202 -12.972,-5.313 -17.819,-10.165 -2.225,-2.231 -4.207,-5.186 -5.734,-7.955 -0.801,-1.458 -2.662,-6.545 -2.708,-7.178 -0.099,0.215 0.046,2.284 0.329,4.306 0.321,2.461 0.996,4.872 1.805,7.223 1.54,4.475 3.821,8.604 6.658,12.386 5.628,7.5 13.065,13.488 20.99,18.379 16.729,10.315 36.483,15 56.076,14.566"
           style="fill:#0092dd;fill-opacity:1;fill-rule:nonzero;stroke:none"
           id="path3412"
           inkscape:connector-curvature="0" /><path
           d="m 102.057,427.633 c -5.767,-1.425 -11.109,-2.137 -16.063,-2.137 -8.145,0 -14.621,2.038 -19.404,6.107 -4.781,4.082 -7.192,9.614 -7.192,16.556 0,6.776 2.379,12.241 7.164,16.366 4.738,4.104 11.033,6.141 18.894,6.141 5.786,0 11.16,-0.555 16.079,-1.689 l 1.064,-8.498 -2.662,0 -0.122,0.511 c -0.564,2.546 -2.044,4.525 -4.498,5.895 -2.432,1.394 -5.608,2.092 -9.525,2.092 -5.382,0 -9.781,-1.939 -13.234,-5.867 -3.477,-3.901 -5.199,-8.881 -5.199,-14.937 0,-6.258 1.75,-11.325 5.325,-15.187 3.588,-3.885 8.262,-5.776 14.048,-5.776 7.79,0 12.322,2.707 13.552,8.22 l 0.135,0.475 2.716,0 -1.078,-8.272 z"
           style="fill:#1a171b;fill-opacity:1;fill-rule:nonzero;stroke:none"
           id="path3414"
           inkscape:connector-curvature="0" /><path
           d="m 164.396,430.724 c 4.819,4.191 7.261,9.649 7.261,16.262 0,3.408 -0.824,6.712 -2.475,9.865 -1.639,3.213 -3.815,5.818 -6.633,7.877 -4.341,3.234 -9.959,4.872 -16.815,4.872 -7.621,0 -13.823,-2.117 -18.668,-6.32 -4.841,-4.258 -7.274,-9.67 -7.274,-16.294 0,-6.613 2.433,-12.071 7.274,-16.262 4.845,-4.249 11.047,-6.328 18.668,-6.328 7.556,0 13.816,2.079 18.662,6.328 m -31.463,1.247 c -3.351,3.902 -4.991,8.916 -4.991,15.015 0,6.11 1.64,11.099 5.008,15.012 3.345,3.917 7.585,5.883 12.784,5.883 5.153,0 9.402,-1.966 12.75,-5.883 3.349,-3.913 5.026,-8.902 5.026,-15.012 0,-6.099 -1.677,-11.113 -5.026,-15.015 -3.348,-3.915 -7.597,-5.86 -12.75,-5.86 -5.199,0 -9.492,1.945 -12.801,5.86"
           style="fill:#1a171b;fill-opacity:1;fill-rule:nonzero;stroke:none"
           id="path3416"
           inkscape:connector-curvature="0" /><path
           d="m 200.686,458.613 0,-25.63 c 0,-2.295 0.377,-3.775 1.121,-4.483 0.753,-0.722 2.319,-1.066 4.754,-1.066 l 0.646,0 0,-1.746 -16.771,0 0,1.746 0.402,0 c 2.4,0 3.958,0.344 4.698,1.066 0.737,0.708 1.09,2.188 1.09,4.483 l 0,29.313 -1.044,1.04 c -2.045,2.138 -3.928,3.205 -5.666,3.205 l -0.603,0 0,1.738 10.378,0 32.127,-31.31 0,24.021 c 0,2.308 -0.426,3.811 -1.151,4.525 -0.768,0.706 -2.378,1.026 -4.843,1.026 l -0.522,0 0,1.738 16.752,0 0,-1.738 -0.619,0 c -2.393,0 -3.981,-0.32 -4.747,-1.026 -0.749,-0.714 -1.126,-2.217 -1.126,-4.525 l -0.076,-36.594 -34.8,34.217 z"
           style="fill:#1a171b;fill-opacity:1;fill-rule:nonzero;stroke:none"
           id="path3418"
           inkscape:connector-curvature="0" /><path
           d="m 280.842,425.689 -20.081,0 0,1.743 0.533,0 c 2.424,0 4.039,0.347 4.806,1.067 0.76,0.711 1.113,2.189 1.113,4.485 l 0,28.005 c 0,2.306 -0.353,3.814 -1.113,4.526 -0.767,0.705 -2.382,1.023 -4.806,1.023 l -0.533,0 0,1.74 20.081,0 0,-1.74 -0.525,0 c -2.456,0 -4.046,-0.318 -4.818,-1.023 -0.796,-0.712 -1.166,-2.22 -1.166,-4.526 l 0,-28.005 c 0,-2.296 0.37,-3.774 1.166,-4.485 0.772,-0.72 2.362,-1.067 4.818,-1.067 l 0.525,0 0,-1.743 z"
           style="fill:#1a171b;fill-opacity:1;fill-rule:nonzero;stroke:none"
           id="path3420"
           inkscape:connector-curvature="0" /><path
           d="m 341.817,426.509 c -5.77,-1.411 -11.082,-2.113 -16.02,-2.113 -8.196,0 -14.658,2.032 -19.429,6.127 -4.785,4.057 -7.182,9.574 -7.182,16.548 0,6.778 2.397,12.242 7.131,16.351 4.748,4.106 11.078,6.18 18.883,6.18 5.824,0 11.186,-0.599 16.115,-1.721 l 1.098,-8.519 -2.735,0 -0.089,0.545 c -0.547,2.503 -2.068,4.496 -4.49,5.877 -2.467,1.38 -5.625,2.097 -9.549,2.097 -5.352,0 -9.777,-1.967 -13.239,-5.883 -3.484,-3.899 -5.227,-8.855 -5.227,-14.927 0,-6.257 1.785,-11.322 5.387,-15.19 3.572,-3.892 8.249,-5.797 14.016,-5.797 7.798,0 12.329,2.763 13.612,8.232 l 0.075,0.491 2.729,0 -1.086,-8.298 z"
           style="fill:#1a171b;fill-opacity:1;fill-rule:nonzero;stroke:none"
           id="path3422"
           inkscape:connector-curvature="0" /><path
           d="m 373.301,447.138 0,-14.35 c 0,-1.848 1.003,-3.119 2.982,-3.863 1.964,-0.724 5.425,-1.076 10.419,-1.076 l 1.46,0 c 2.189,0 3.794,0.409 4.837,1.253 1.027,0.877 1.766,2.401 2.205,4.556 l 0.111,0.519 2.705,0 -1.067,-9.282 c -4.466,0.268 -7.769,0.351 -9.948,0.351 -2.276,0 -5.006,0.092 -8.109,0.245 -3.082,0.161 -4.948,0.197 -5.595,0.197 l -13.622,0 0,1.746 0.659,0 c 2.318,0 3.862,0.366 4.669,1.111 0.799,0.736 1.191,2.22 1.191,4.439 l 0,28.008 c 0,2.325 -0.375,3.827 -1.092,4.525 -0.74,0.706 -2.321,1.024 -4.768,1.024 l -0.659,0 0,1.74 35.932,0 1.094,-7.88 -2.727,0 -0.08,0.591 c -0.434,2.387 -1.335,3.855 -2.664,4.352 -1.299,0.545 -4.795,0.811 -10.366,0.811 l -7.567,0 0,-17.301 8.136,0 c 3.746,0 6.135,0.261 7.191,0.735 1.036,0.494 1.547,1.643 1.547,3.454 l 0,0.489 2.767,0 0,-11.044 -2.767,0 0,0.418 c 0,1.587 -0.424,2.748 -1.299,3.45 -0.686,0.509 -3.175,0.782 -7.439,0.782 l -8.136,0 z"
           style="fill:#1a171b;fill-opacity:1;fill-rule:nonzero;stroke:none"
           id="path3424"
           inkscape:connector-curvature="0" /><path
           d="m 431.808,466.154 -5.533,0 c -4.179,0 -7.049,-0.446 -8.634,-1.288 -1.574,-0.889 -2.63,-2.572 -3.099,-5.142 l -0.106,-0.557 -2.863,0 1.314,9.91 c 6.039,-0.512 12.342,-0.798 18.921,-0.798 l 7.292,0 c 6.618,0 12.924,0.286 18.938,0.798 l 1.339,-9.91 -2.856,0 -0.125,0.557 c -0.487,2.57 -1.542,4.253 -3.116,5.142 -1.599,0.842 -4.489,1.288 -8.633,1.288 l -5.547,0 0,-33.171 c 0,-2.295 0.48,-3.817 1.392,-4.483 0.905,-0.724 2.788,-1.066 5.74,-1.066 l 0.543,0 0,-1.743 -22.603,0 0,1.743 0.523,0 c 2.967,0 4.891,0.342 5.779,1.066 0.89,0.666 1.334,2.188 1.334,4.483 l 0,33.171 z"
           style="fill:#1a171b;fill-opacity:1;fill-rule:nonzero;stroke:none"
           id="path3426"
           inkscape:connector-curvature="0" /><path
           d="m 387.957,338.413 c -2.696,-2.759 -17.28,-17.839 -26.867,-27.823 1.782,7.163 8.413,33.297 8.568,33.929 -0.578,0.155 -1.149,0.296 -1.719,0.436 -0.942,-2.082 -11.451,-25.282 -14.466,-31.972 l -1.208,35.722 c -0.782,0.105 -1.561,0.197 -2.341,0.286 l -7.125,-34.129 -14.679,35.323 -1.509,-0.147 8.27,-40.746 -33.957,35.65 c -0.388,-0.183 -0.709,-0.268 -1.107,-0.449 l 24.649,-37.75 -37.267,18.127 -0.614,-0.836 0.067,-0.047 -0.116,-0.011 -0.218,-0.301 38.148,-27.395 c 5.624,-2.865 10.916,-5.266 15.887,-7.058 7.644,-2.771 17.383,-5.833 28.031,-8.105 4.387,-0.931 14.534,-2.107 14.534,-2.107 l 36.303,10.029 1.175,1.7 -38.568,-3.954 44.067,25.291 -0.657,0.852 c -0.009,-0.004 -8.931,-3.118 -19.952,-7.324 -9.741,-3.716 -21.117,-7.913 -29.327,-10.459 l 33.066,30.882 -0.821,0.562 c -0.017,-0.011 -34.287,-20.976 -41.546,-25.523 3.49,6.323 22.527,35.619 22.907,36.33 0.188,0.348 -1.112,0.791 -1.608,1.017"
           style="fill:#ffc726;fill-opacity:1;fill-rule:nonzero;stroke:none"
           id="path3428"
           inkscape:connector-curvature="0" /><path
           d="m 216.416,289.421 c -7.593,-7.654 -20.512,-16.476 -28.995,-20.684 -10.5,-5.21 -21.049,-9.89 -36.991,-12.57 -9.138,-1.555 -20.769,-2.183 -30.095,-1.362 -18.056,1.599 -37.783,8.666 -50.682,25.181 -7.188,9.209 -10.905,21.014 -10.14,32.8 0.689,10.777 9.212,20.818 17.765,25.404 -3.449,-4.86 -4.175,-13.536 -3.046,-19.158 1.561,-7.717 6.039,-15.234 9.856,-19.1 7.758,-7.879 15.772,-13.373 29.639,-17.528 16.227,-4.871 26.641,-5.665 40.005,-4.501 21.846,1.897 30.298,4.895 40.981,9.036 4.59,1.788 8.469,4.946 12.133,7.047 6.485,-3.254 9.584,-4.548 9.57,-4.565"
           style="fill:#0092dd;fill-opacity:1;fill-rule:nonzero;stroke:none"
           id="path3430"
           inkscape:connector-curvature="0" /><path
           d="m 92.002,126.744 c -4.985,-1.618 -9.608,-2.424 -13.872,-2.424 -7.069,0 -12.672,2.25 -16.817,6.761 -4.146,4.507 -6.216,10.595 -6.216,18.255 0,7.502 2.061,13.521 6.186,18.059 4.121,4.538 9.578,6.809 16.362,6.809 5.024,0 9.668,-0.638 13.935,-1.911 l 0.94,-9.371 -2.277,0 -0.089,0.546 c -0.478,2.81 -1.782,4.99 -3.907,6.536 -2.126,1.548 -4.888,2.319 -8.281,2.319 -4.669,0 -8.511,-2.153 -11.527,-6.455 -3.011,-4.305 -4.518,-9.799 -4.518,-16.487 0,-6.931 1.544,-12.525 4.628,-16.79 3.09,-4.261 7.131,-6.391 12.126,-6.391 6.736,0 10.655,3.05 11.749,9.155 l 0.094,0.516 2.334,0 -0.85,-9.127 z"
           style="fill:#1a171b;fill-opacity:1;fill-rule:nonzero;stroke:none"
           id="path3432"
           inkscape:connector-curvature="0" /><path
           d="m 196.909,125.743 -17.407,0 0,1.879 0.484,0 c 2.123,0 3.513,0.394 4.168,1.169 0.66,0.779 0.989,2.428 0.989,4.958 l 0,31.053 c 0,2.521 -0.329,4.17 -0.989,4.951 -0.655,0.783 -2.045,1.176 -4.168,1.176 l -0.484,0 0,1.881 17.407,0 0,-1.881 -0.455,0 c -2.122,0 -3.517,-0.393 -4.186,-1.176 -0.666,-0.781 -0.999,-2.43 -0.999,-4.951 l 0,-31.053 c 0,-2.506 0.333,-4.155 0.999,-4.943 0.669,-0.786 2.064,-1.184 4.186,-1.184 l 0.455,0 0,-1.879 z"
           style="fill:#1a171b;fill-opacity:1;fill-rule:nonzero;stroke:none"
           id="path3434"
           inkscape:connector-curvature="0" /><path
           d="m 293.994,148.549 0,-14.8 c 0,-2.628 0.374,-4.306 1.12,-5.033 0.749,-0.729 2.487,-1.094 5.218,-1.094 l 0.485,0 0,-1.879 -18.59,0 0,1.879 0.544,0 c 2.106,0 3.479,0.398 4.125,1.184 0.649,0.788 0.971,2.437 0.971,4.943 l 0,30.966 c 0,2.597 -0.317,4.282 -0.956,5.056 -0.633,0.772 -2.017,1.158 -4.14,1.158 l -0.544,0 0,1.881 30.9,0 0.94,-8.705 -2.333,0 -0.09,0.637 c -0.381,2.647 -1.138,4.266 -2.277,4.853 -1.132,0.587 -4.098,0.882 -8.898,0.882 l -6.475,0 0,-20.019 7.065,0 c 3.154,0 5.175,0.279 6.064,0.842 0.892,0.556 1.336,1.833 1.336,3.825 l 0,0.52 2.334,0 0,-12.283 -2.334,0 0,0.457 c 0,1.79 -0.376,3.073 -1.121,3.846 -0.568,0.591 -2.658,0.884 -6.279,0.884 l -7.065,0 z"
           style="fill:#1a171b;fill-opacity:1;fill-rule:nonzero;stroke:none"
           id="path3436"
           inkscape:connector-curvature="0" /><path
           d="m 409.831,142.907 18.465,0 -9.429,22.198 -9.036,-22.198 z m -0.879,-2.335 -2.828,-7.005 c -0.831,-1.985 -1.245,-3.237 -1.245,-3.76 0,-1.237 1.041,-1.941 3.124,-2.123 l 0.483,-0.062 0,-1.879 -11.551,0 0,1.879 0.484,0 c 1.212,0 2.215,0.432 3.001,1.287 0.788,0.862 1.669,2.484 2.641,4.872 l 16.631,40.423 1.893,0 17.218,-40.427 c 1.072,-2.506 1.922,-4.157 2.548,-4.959 0.625,-0.798 1.382,-1.196 2.273,-1.196 l 0.395,0 0,-1.879 -13.895,0 0,1.879 0.519,0 c 1.234,0 2.062,0.122 2.486,0.365 0.425,0.242 0.637,0.716 0.637,1.425 0,0.585 -0.486,2.043 -1.456,4.369 l -2.847,6.791 -20.511,0 z"
           style="fill:#1a171b;fill-opacity:1;fill-rule:nonzero;stroke:none"
           id="path3438"
           inkscape:connector-curvature="0" /><path
           d="m 527.854,126.229 -0.667,10.341 2.334,0 0.092,-0.487 c 0.603,-3.164 1.863,-5.604 3.78,-7.312 1.916,-1.719 4.344,-2.577 7.285,-2.577 2.662,0 4.945,0.911 6.848,2.718 1.906,1.812 2.86,3.994 2.86,6.541 0,3.214 -2.448,6.506 -7.341,9.861 l -4.651,3.216 c -4.51,3.116 -7.466,5.537 -8.867,7.269 -1.397,1.727 -2.097,3.82 -2.097,6.269 0,3.639 1.466,6.572 4.396,8.799 2.934,2.223 6.797,3.337 11.593,3.337 3.747,0 7.565,-0.667 11.455,-2.001 l 1.002,-8.825 -2.427,0 -0.151,0.484 c -1.611,5.642 -5.294,8.461 -11.05,8.461 -2.572,0 -4.709,-0.78 -6.399,-2.338 -1.691,-1.559 -2.536,-3.528 -2.536,-5.915 0,-3.017 2.094,-5.969 6.283,-8.861 l 6.708,-4.612 c 4.186,-2.894 6.935,-5.189 8.245,-6.896 1.306,-1.708 1.963,-3.844 1.963,-6.412 0,-3.959 -1.508,-7.112 -4.518,-9.456 -3.015,-2.345 -7.062,-3.518 -12.139,-3.518 -4.232,0 -8.232,0.639 -12.001,1.914"
           style="fill:#1a171b;fill-opacity:1;fill-rule:nonzero;stroke:none"
           id="path3440"
           inkscape:connector-curvature="0" /><path
           d="m 660.51,125.743 -17.406,0 0,1.879 0.484,0 c 2.124,0 3.514,0.394 4.169,1.169 0.66,0.779 0.987,2.428 0.987,4.958 l 0,31.053 c 0,2.521 -0.327,4.17 -0.987,4.951 -0.655,0.783 -2.045,1.176 -4.169,1.176 l -0.484,0 0,1.881 17.406,0 0,-1.881 -0.453,0 c -2.124,0 -3.518,-0.393 -4.187,-1.176 -0.666,-0.781 -1,-2.43 -1,-4.951 l 0,-31.053 c 0,-2.506 0.334,-4.155 1,-4.943 0.669,-0.786 2.063,-1.184 4.187,-1.184 l 0.453,0 0,-1.879 z"
           style="fill:#1a171b;fill-opacity:1;fill-rule:nonzero;stroke:none"
           id="path3442"
           inkscape:connector-curvature="0" /><path
           d="m 746.706,126.229 -0.668,10.341 2.335,0 0.093,-0.487 c 0.602,-3.164 1.862,-5.604 3.778,-7.312 1.916,-1.719 4.345,-2.577 7.287,-2.577 2.66,0 4.944,0.911 6.849,2.718 1.904,1.812 2.855,3.994 2.855,6.541 0,3.214 -2.446,6.506 -7.339,9.861 l -4.651,3.216 c -4.51,3.116 -7.466,5.537 -8.866,7.269 -1.397,1.727 -2.098,3.82 -2.098,6.269 0,3.639 1.466,6.572 4.397,8.799 2.932,2.223 6.797,3.337 11.593,3.337 3.747,0 7.564,-0.667 11.455,-2.001 l 1.001,-8.825 -2.426,0 -0.153,0.484 c -1.609,5.642 -5.293,8.461 -11.048,8.461 -2.575,0 -4.708,-0.78 -6.4,-2.338 -1.689,-1.559 -2.536,-3.528 -2.536,-5.915 0,-3.017 2.096,-5.969 6.283,-8.861 l 6.708,-4.612 c 4.188,-2.894 6.935,-5.189 8.246,-6.896 1.306,-1.708 1.962,-3.844 1.962,-6.412 0,-3.959 -1.508,-7.112 -4.517,-9.456 -3.014,-2.345 -7.061,-3.518 -12.14,-3.518 -4.231,0 -8.231,0.639 -12,1.914"
           style="fill:#1a171b;fill-opacity:1;fill-rule:nonzero;stroke:none"
           id="path3444"
           inkscape:connector-curvature="0" /><path
           d="m 670.839,343.302 c 12.983,15.055 5.7,26.573 -2.78,35.172 -1.252,1.266 -2.008,0.7 -1.064,-0.708 5.139,-7.605 8.456,-15.366 6.953,-23.476 -0.778,-4.195 -2.829,-8.699 -6.027,-11.753 -8.601,-8.215 -22.126,-3.966 -28.65,4.703 -2.794,3.715 -4.499,8.258 -4.416,13.017 0.1,5.726 2.839,9.937 6.515,13.972 1.734,1.893 3.482,3.822 4.788,6.368 1.83,3.585 1.125,8.049 2.362,11.761 0.758,1.404 0.979,0.151 1.283,-1.395 0.427,-2.209 1.152,-4.338 1.911,-6.453 1.623,-4.559 3.437,-8.982 1.957,-13.839 -1.331,-4.369 -4.641,-6.471 -6.686,-10.9 -1.61,-3.949 -1.276,-9.913 3.987,-14.745 1.491,-1.369 2.412,-0.993 1.811,-0.203 -2.749,3.635 -3.414,7.918 -2.17,11.53 1.087,3.176 3.684,5.062 5.848,7.446 3.218,3.558 4.923,7.07 2.491,13.775 -2.125,6.247 -6.812,11.783 -7.401,19.086 -0.361,4.492 0.765,9.183 4.196,12.276 2.072,1.866 3.849,1.137 3.802,-0.817 -0.136,-5.635 2.803,-12.257 5.71,-17.045 2.827,-4.663 6.793,-8.328 9.96,-12.726 6.013,-8.349 9.595,-19.023 2.87,-29.365 -4.554,-7.001 -11.83,-10.994 -7.25,-5.681 m 59.515,-49.393 c 2.082,2.151 4.835,1.576 8.266,-1.731 3.424,-3.315 4.09,-6.052 1.995,-8.221 -1.053,-1.095 -2.259,-1.483 -3.616,-1.175 -1.356,0.306 -2.89,1.295 -4.603,2.945 -3.429,3.308 -4.114,6.038 -2.042,8.182 m -2.532,2.436 c 1.085,1.126 2.212,1.904 3.387,2.343 1.175,0.444 2.354,0.594 3.547,0.461 1.192,-0.135 2.374,-0.525 3.557,-1.176 1.177,-0.64 2.326,-1.497 3.427,-2.564 1.107,-1.067 2.008,-2.189 2.708,-3.352 0.7,-1.169 1.145,-2.355 1.323,-3.546 0.188,-1.194 0.078,-2.385 -0.32,-3.576 -0.403,-1.185 -1.144,-2.34 -2.222,-3.459 -1.086,-1.123 -2.21,-1.9 -3.385,-2.343 -1.176,-0.442 -2.361,-0.591 -3.557,-0.453 -1.201,0.146 -2.392,0.546 -3.589,1.202 -1.191,0.661 -2.342,1.524 -3.446,2.592 -1.108,1.069 -2.002,2.182 -2.686,3.335 -0.688,1.158 -1.125,2.329 -1.297,3.518 -0.181,1.18 -0.065,2.368 0.338,3.556 0.393,1.191 1.136,2.348 2.215,3.462 m 26.898,-0.759 -16.761,12.18 c -0.515,-0.51 -0.977,-1.051 -1.396,-1.628 -0.398,-0.543 -0.761,-1.145 -1.098,-1.8 l 16.764,-12.183 c 0.523,0.525 0.988,1.065 1.393,1.626 0.405,0.558 0.772,1.162 1.098,1.805 m 1.251,30.707 1.674,4.599 7.326,-5.331 -9,0.732 z m 13.873,-0.145 -17.236,13.235 c -0.344,-0.612 -0.639,-1.254 -0.879,-1.919 -0.218,-0.592 -0.389,-1.239 -0.516,-1.926 l 3.495,-2.529 -2.349,-6.449 -4.294,0.336 c -0.342,-0.603 -0.64,-1.261 -0.893,-1.944 -0.254,-0.703 -0.46,-1.442 -0.623,-2.223 l 21.684,-0.996 c 0.211,0.398 0.386,0.762 0.538,1.096 0.152,0.333 0.296,0.681 0.429,1.039 0.148,0.415 0.272,0.801 0.371,1.153 0.099,0.354 0.189,0.73 0.273,1.127 m -6.865,20.691 c 0.347,0.607 0.709,1.144 1.087,1.61 0.373,0.469 0.794,0.843 1.26,1.14 0.463,0.296 0.995,0.496 1.596,0.606 0.603,0.11 1.303,0.102 2.099,-0.022 0.967,-0.155 1.793,-0.458 2.483,-0.907 0.688,-0.451 1.235,-1.018 1.637,-1.704 0.409,-0.683 0.672,-1.474 0.795,-2.372 0.125,-0.892 0.097,-1.872 -0.072,-2.933 -0.154,-0.971 -0.385,-1.864 -0.683,-2.679 -0.308,-0.815 -0.695,-1.663 -1.163,-2.543 -1.081,0.289 -2.116,0.761 -3.1,1.425 0.154,0.265 0.319,0.537 0.477,0.814 0.164,0.276 0.306,0.575 0.433,0.894 0.129,0.316 0.254,0.683 0.364,1.092 0.113,0.413 0.214,0.881 0.296,1.414 0.054,0.323 0.075,0.653 0.068,0.994 0,0.343 -0.059,0.658 -0.166,0.946 -0.114,0.291 -0.3,0.543 -0.564,0.762 -0.267,0.215 -0.643,0.366 -1.116,0.439 -0.379,0.061 -0.708,0.045 -0.983,-0.045 -0.281,-0.097 -0.529,-0.24 -0.741,-0.442 -0.217,-0.197 -0.41,-0.428 -0.574,-0.693 -0.174,-0.263 -0.336,-0.531 -0.493,-0.8 l -0.928,-1.603 c -0.401,-0.679 -0.796,-1.285 -1.189,-1.824 -0.403,-0.539 -0.854,-0.98 -1.362,-1.316 -0.514,-0.338 -1.103,-0.569 -1.775,-0.696 -0.673,-0.128 -1.474,-0.116 -2.404,0.03 -0.967,0.15 -1.822,0.467 -2.562,0.943 -0.743,0.48 -1.345,1.094 -1.809,1.85 -0.462,0.757 -0.781,1.644 -0.949,2.673 -0.168,1.028 -0.15,2.179 0.053,3.45 0.1,0.626 0.206,1.182 0.322,1.668 0.114,0.49 0.25,0.951 0.412,1.38 0.154,0.433 0.334,0.856 0.535,1.273 0.198,0.415 0.432,0.848 0.7,1.288 0.54,-0.143 1.094,-0.339 1.67,-0.584 0.574,-0.246 1.147,-0.523 1.722,-0.828 -0.452,-0.742 -0.809,-1.456 -1.082,-2.133 -0.274,-0.679 -0.472,-1.412 -0.594,-2.212 -0.196,-1.194 -0.121,-2.171 0.219,-2.922 0.34,-0.752 0.958,-1.202 1.874,-1.345 0.453,-0.074 0.842,-0.054 1.172,0.062 0.328,0.109 0.619,0.276 0.868,0.502 0.254,0.223 0.472,0.486 0.662,0.784 0.199,0.3 0.388,0.611 0.574,0.93 l 0.931,1.634 z m -5.317,16.356 c 0,-2.977 2.382,-4.465 7.148,-4.465 2.377,0 4.164,0.358 5.357,1.081 1.188,0.723 1.783,1.837 1.783,3.356 0,3.015 -2.379,4.523 -7.14,4.523 -4.766,0 -7.148,-1.497 -7.148,-4.495 m -3.516,0 c 0,1.556 0.271,2.904 0.806,4.035 0.538,1.132 1.283,2.066 2.232,2.794 0.948,0.732 2.073,1.274 3.369,1.63 1.3,0.356 2.718,0.533 4.257,0.533 1.534,0 2.961,-0.177 4.276,-0.533 1.315,-0.356 2.453,-0.898 3.413,-1.63 0.963,-0.728 1.712,-1.662 2.252,-2.794 0.535,-1.131 0.806,-2.479 0.806,-4.035 0,-1.554 -0.271,-2.901 -0.806,-4.03 -0.54,-1.141 -1.289,-2.07 -2.252,-2.801 -0.96,-0.725 -2.098,-1.271 -3.413,-1.626 -1.315,-0.36 -2.742,-0.534 -4.276,-0.534 -1.539,0 -2.957,0.174 -4.257,0.534 -1.296,0.355 -2.421,0.901 -3.369,1.626 -0.949,0.731 -1.694,1.66 -2.232,2.801 -0.425,0.892 -0.678,1.911 -0.776,3.066 l 0,0.002 c 0,0.294 -0.007,0.58 -0.03,0.861 l 0,0.101 z m 6.922,52.076 5.338,-10.477 c -0.464,-0.368 -0.956,-0.68 -1.486,-0.954 -0.567,-0.289 -1.135,-0.505 -1.696,-0.669 l -3.432,6.724 -4.002,-2.035 2.72,-5.341 c -0.496,-0.385 -1,-0.703 -1.512,-0.967 -0.55,-0.281 -1.114,-0.501 -1.699,-0.668 l -2.721,5.341 -4.88,-2.489 3.52,-6.906 c -0.46,-0.361 -0.956,-0.681 -1.482,-0.951 -0.569,-0.291 -1.136,-0.512 -1.702,-0.669 l -5.429,10.654 18.463,9.407 z m -23.589,4.609 11.187,8.43 c 0.195,-0.195 0.402,-0.43 0.619,-0.704 0.224,-0.278 0.417,-0.524 0.577,-0.738 0.486,-0.647 0.86,-1.322 1.117,-2.031 0.258,-0.709 0.339,-1.447 0.239,-2.212 -0.09,-0.771 -0.405,-1.564 -0.948,-2.383 -0.541,-0.814 -1.362,-1.635 -2.465,-2.471 -1.137,-0.852 -2.16,-1.422 -3.081,-1.705 -0.916,-0.285 -1.759,-0.363 -2.527,-0.245 -0.759,0.121 -1.455,0.426 -2.073,0.911 -0.617,0.487 -1.189,1.082 -1.724,1.788 -0.232,0.305 -0.42,0.573 -0.563,0.798 -0.149,0.224 -0.264,0.416 -0.358,0.562 m 11.33,13.842 -16.543,-12.467 c 0.404,-0.706 0.833,-1.405 1.275,-2.105 0.44,-0.701 0.96,-1.444 1.55,-2.222 2.277,-3.027 4.679,-4.786 7.2,-5.294 2.521,-0.506 5.23,0.334 8.135,2.522 2.88,2.171 4.474,4.559 4.779,7.158 0.302,2.594 -0.639,5.344 -2.823,8.245 -0.645,0.854 -1.266,1.619 -1.85,2.286 -0.59,0.663 -1.157,1.289 -1.723,1.877 m -17.732,16.724 c 0.625,-0.359 1.193,-0.743 1.699,-1.154 0.523,-0.421 1.031,-0.909 1.527,-1.458 l -10.755,-13.279 5.574,-4.516 c -0.158,-0.291 -0.32,-0.56 -0.5,-0.8 -0.17,-0.245 -0.34,-0.471 -0.512,-0.679 -0.192,-0.241 -0.386,-0.47 -0.59,-0.689 -0.205,-0.221 -0.429,-0.437 -0.678,-0.656 l -8.806,7.128 13.041,16.103 z m -15.207,-4.719 -4.241,2.449 6.523,6.284 -2.282,-8.733 z m 2.552,13.637 -16.029,-14.672 c 0.544,-0.445 1.121,-0.849 1.738,-1.206 0.552,-0.318 1.151,-0.598 1.814,-0.843 l 3.093,3.003 5.939,-3.426 -1.077,-4.17 c 0.541,-0.449 1.129,-0.853 1.76,-1.22 0.651,-0.372 1.34,-0.708 2.081,-1.002 l 4.745,21.191 c -0.353,0.264 -0.677,0.507 -0.98,0.714 -0.304,0.205 -0.617,0.409 -0.952,0.595 -0.383,0.226 -0.74,0.415 -1.074,0.567 -0.324,0.161 -0.682,0.317 -1.058,0.469 m -23.979,10.589 c 0.595,-0.092 1.153,-0.233 1.654,-0.42 0.54,-0.195 1.081,-0.451 1.618,-0.771 l 3.016,-15.143 4.516,12.402 c 0.687,-0.128 1.333,-0.303 1.924,-0.514 0.56,-0.207 1.082,-0.46 1.569,-0.757 l -7.091,-19.47 c -0.618,0.102 -1.157,0.24 -1.626,0.412 -0.507,0.18 -1.038,0.434 -1.593,0.763 l -3.077,15.133 -4.506,-12.375 c -0.617,0.1 -1.223,0.262 -1.819,0.479 -0.594,0.218 -1.157,0.477 -1.676,0.79 l 7.091,19.471 z m -17.38,-14.115 c 2.938,-0.462 4.784,1.655 5.528,6.361 0.373,2.352 0.298,4.172 -0.229,5.461 -0.527,1.288 -1.535,2.053 -3.034,2.288 -2.978,0.474 -4.84,-1.639 -5.59,-6.35 -0.744,-4.706 0.367,-7.292 3.325,-7.76 m -0.551,-3.473 c -1.536,0.242 -2.824,0.721 -3.86,1.427 -1.03,0.711 -1.839,1.592 -2.41,2.645 -0.572,1.054 -0.933,2.25 -1.082,3.584 -0.145,1.333 -0.102,2.765 0.141,4.28 0.241,1.519 0.637,2.903 1.196,4.148 0.56,1.245 1.267,2.284 2.141,3.117 0.874,0.832 1.909,1.428 3.113,1.78 1.205,0.354 2.573,0.409 4.113,0.168 1.533,-0.241 2.818,-0.723 3.852,-1.429 1.039,-0.709 1.842,-1.592 2.417,-2.66 0.569,-1.061 0.927,-2.267 1.07,-3.624 0.149,-1.355 0.099,-2.795 -0.143,-4.31 -0.24,-1.517 -0.637,-2.892 -1.192,-4.114 -0.551,-1.228 -1.263,-2.253 -2.133,-3.075 -0.872,-0.827 -1.909,-1.417 -3.109,-1.77 -1.206,-0.353 -2.576,-0.409 -4.114,-0.167 m -14.401,22.329 c 0.716,0.087 1.418,0.118 2.109,0.098 0.693,-0.025 1.402,-0.107 2.126,-0.245 l -0.724,-20.712 c -0.731,-0.086 -1.434,-0.12 -2.105,-0.096 -0.712,0.022 -1.421,0.106 -2.13,0.247 l 0.724,20.708 z m -3.927,-16.538 c -0.645,-0.299 -1.231,-0.525 -1.756,-0.678 -0.527,-0.152 -1.139,-0.262 -1.845,-0.337 -3.958,-0.417 -6.182,1.707 -6.669,6.365 -0.244,2.354 0.059,4.175 0.919,5.474 0.856,1.298 2.205,2.041 4.042,2.235 0.704,0.073 1.319,0.09 1.843,0.049 0.535,-0.04 1.139,-0.145 1.825,-0.299 0.177,0.577 0.328,1.148 0.465,1.716 0.125,0.558 0.189,1.132 0.168,1.71 -0.941,0.266 -1.798,0.418 -2.587,0.455 -0.783,0.03 -1.635,0 -2.553,-0.099 -1.546,-0.164 -2.903,-0.573 -4.058,-1.236 -1.159,-0.66 -2.101,-1.517 -2.829,-2.559 -0.734,-1.043 -1.247,-2.241 -1.549,-3.596 -0.302,-1.355 -0.374,-2.794 -0.215,-4.324 0.16,-1.527 0.523,-2.923 1.08,-4.176 0.556,-1.254 1.296,-2.309 2.225,-3.17 0.932,-0.861 2.04,-1.485 3.317,-1.883 1.279,-0.398 2.729,-0.509 4.351,-0.339 0.921,0.096 1.768,0.245 2.547,0.444 0.781,0.195 1.65,0.531 2.605,0.994 -0.145,0.566 -0.315,1.123 -0.538,1.67 -0.221,0.545 -0.485,1.075 -0.788,1.584 m -22.298,0.316 -4.422,7.862 -0.33,-9.051 4.752,1.189 z m -7.637,11.577 c 0.375,0.153 0.739,0.289 1.087,0.404 0.346,0.118 0.734,0.227 1.163,0.334 0.374,0.092 0.74,0.168 1.103,0.232 0.362,0.061 0.76,0.115 1.203,0.168 l 11.302,-18.536 c -0.736,-0.305 -1.467,-0.545 -2.195,-0.726 -0.705,-0.177 -1.412,-0.293 -2.111,-0.347 l -2.123,3.747 -6.658,-1.665 -0.135,-4.307 c -0.646,-0.282 -1.276,-0.493 -1.885,-0.649 -0.695,-0.175 -1.393,-0.286 -2.085,-0.345 l 1.334,21.69 z m -24.706,-10.606 c 0.484,0.364 0.964,0.663 1.449,0.901 0.519,0.25 1.081,0.463 1.679,0.626 l 12.988,-8.35 -5.781,11.862 c 0.57,0.407 1.145,0.748 1.707,1.028 0.535,0.259 1.08,0.464 1.631,0.601 l 9.082,-18.623 c -0.502,-0.374 -0.977,-0.67 -1.423,-0.885 -0.485,-0.239 -1.042,-0.442 -1.66,-0.615 l -13.024,8.298 5.772,-11.838 c -0.5,-0.369 -1.035,-0.698 -1.609,-0.977 -0.568,-0.274 -1.143,-0.493 -1.731,-0.652 l -9.08,18.624 z m -9.483,-28.962 -9.189,10.57 c 0.184,0.203 0.404,0.426 0.664,0.668 0.261,0.238 0.495,0.447 0.696,0.625 0.611,0.53 1.26,0.948 1.95,1.256 0.688,0.301 1.416,0.439 2.194,0.393 0.77,-0.038 1.582,-0.299 2.432,-0.783 0.854,-0.48 1.731,-1.241 2.641,-2.286 0.933,-1.07 1.572,-2.058 1.917,-2.95 0.344,-0.901 0.485,-1.731 0.418,-2.505 -0.068,-0.77 -0.323,-1.482 -0.763,-2.134 -0.437,-0.646 -0.993,-1.265 -1.662,-1.842 -0.286,-0.253 -0.54,-0.461 -0.754,-0.619 -0.221,-0.164 -0.396,-0.294 -0.544,-0.393 m -14.591,10.335 c 0.546,0.599 1.131,1.217 1.747,1.851 0.624,0.628 1.346,1.298 2.156,2.003 2.741,2.379 5.415,3.512 8.028,3.388 2.613,-0.12 5.107,-1.542 7.476,-4.265 2.386,-2.742 3.408,-5.39 3.078,-7.941 -0.331,-2.551 -1.919,-5.065 -4.774,-7.553 -0.742,-0.644 -1.449,-1.205 -2.108,-1.697 -0.672,-0.491 -1.343,-0.965 -2.011,-1.423 l -13.592,15.637 z m 2.737,-16.843 -3.018,-3.864 -5.31,7.335 8.328,-3.471 z m -13.144,4.423 12.298,-17.917 c 0.519,0.474 0.992,0.994 1.43,1.554 0.389,0.496 0.753,1.055 1.086,1.671 l -2.538,3.488 4.221,5.407 3.979,-1.649 c 0.517,0.471 1,0.997 1.448,1.572 0.464,0.591 0.889,1.232 1.283,1.923 l -20.316,7.648 c -0.32,-0.313 -0.603,-0.608 -0.849,-0.872 -0.248,-0.271 -0.488,-0.556 -0.725,-0.859 -0.273,-0.347 -0.51,-0.677 -0.709,-0.984 -0.206,-0.306 -0.407,-0.632 -0.608,-0.982 m 3.795,-27.981 c 0.091,0.148 0.207,0.339 0.342,0.571 0.135,0.237 0.283,0.522 0.452,0.867 0.386,0.793 0.659,1.58 0.811,2.345 0.152,0.773 0.11,1.525 -0.133,2.265 -0.236,0.733 -0.693,1.446 -1.362,2.139 -0.666,0.689 -1.642,1.344 -2.916,1.969 -1.24,0.603 -2.355,0.962 -3.325,1.075 -0.97,0.11 -1.819,0.03 -2.552,-0.232 -0.729,-0.265 -1.346,-0.669 -1.859,-1.225 -0.518,-0.551 -0.948,-1.189 -1.302,-1.914 -0.12,-0.24 -0.253,-0.522 -0.4,-0.85 -0.144,-0.319 -0.26,-0.606 -0.343,-0.872 l 12.587,-6.138 z m -17.469,3.809 c 0.26,0.771 0.559,1.563 0.883,2.387 0.327,0.827 0.729,1.721 1.197,2.689 1.595,3.264 3.618,5.346 6.068,6.257 2.45,0.911 5.302,0.574 8.55,-1.009 3.262,-1.595 5.244,-3.628 5.937,-6.1 0.69,-2.479 0.21,-5.421 -1.447,-8.82 -0.43,-0.881 -0.857,-1.68 -1.279,-2.391 -0.421,-0.712 -0.851,-1.412 -1.292,-2.091 l -18.617,9.078 z m -3.207,-9.614 19.816,-6.054 c 0.32,0.646 0.583,1.307 0.789,1.986 0.196,0.645 0.347,1.331 0.447,2.062 l -19.809,6.058 c -0.325,-0.666 -0.586,-1.327 -0.794,-1.986 -0.198,-0.665 -0.351,-1.351 -0.449,-2.066 m 7.712,-14.589 c -0.372,-0.595 -0.751,-1.118 -1.145,-1.569 -0.39,-0.452 -0.827,-0.819 -1.296,-1.098 -0.476,-0.28 -1.014,-0.464 -1.621,-0.547 -0.606,-0.095 -1.301,-0.059 -2.096,0.092 -0.959,0.189 -1.781,0.517 -2.448,0.994 -0.672,0.468 -1.198,1.059 -1.582,1.758 -0.386,0.701 -0.617,1.503 -0.706,2.4 -0.091,0.895 -0.032,1.873 0.173,2.928 0.191,0.962 0.447,1.846 0.781,2.654 0.33,0.808 0.747,1.64 1.249,2.503 1.073,-0.323 2.086,-0.841 3.049,-1.533 -0.167,-0.262 -0.339,-0.525 -0.513,-0.795 -0.168,-0.274 -0.322,-0.565 -0.46,-0.878 -0.137,-0.32 -0.273,-0.68 -0.396,-1.082 -0.133,-0.41 -0.249,-0.875 -0.349,-1.402 -0.065,-0.323 -0.098,-0.654 -0.104,-0.991 -0.011,-0.342 0.036,-0.658 0.137,-0.953 0.1,-0.292 0.282,-0.552 0.538,-0.781 0.257,-0.227 0.625,-0.383 1.094,-0.477 0.379,-0.071 0.706,-0.065 0.986,0.01 0.283,0.089 0.537,0.222 0.756,0.413 0.225,0.193 0.423,0.417 0.603,0.675 0.176,0.262 0.35,0.523 0.518,0.782 l 0.981,1.573 c 0.421,0.66 0.844,1.253 1.258,1.781 0.413,0.522 0.879,0.946 1.405,1.268 0.52,0.318 1.119,0.53 1.798,0.634 0.673,0.105 1.47,0.063 2.395,-0.119 0.962,-0.183 1.807,-0.526 2.528,-1.029 0.728,-0.503 1.306,-1.14 1.743,-1.912 0.44,-0.768 0.725,-1.672 0.857,-2.704 0.13,-1.033 0.075,-2.185 -0.169,-3.444 -0.122,-0.628 -0.248,-1.175 -0.379,-1.66 -0.14,-0.482 -0.287,-0.937 -0.457,-1.364 -0.171,-0.427 -0.371,-0.85 -0.584,-1.253 -0.216,-0.41 -0.467,-0.827 -0.747,-1.262 -0.533,0.16 -1.083,0.372 -1.65,0.644 -0.566,0.262 -1.125,0.558 -1.69,0.887 0.47,0.728 0.86,1.424 1.158,2.09 0.289,0.67 0.517,1.395 0.674,2.187 0.227,1.193 0.186,2.169 -0.125,2.932 -0.311,0.765 -0.916,1.236 -1.823,1.411 -0.453,0.091 -0.843,0.083 -1.18,-0.019 -0.33,-0.105 -0.628,-0.259 -0.881,-0.474 -0.261,-0.215 -0.488,-0.467 -0.694,-0.76 -0.204,-0.293 -0.404,-0.598 -0.6,-0.911 l -0.986,-1.599 z m -11.472,-37.937 -1.23,11.691 c 0.563,0.181 1.141,0.297 1.731,0.359 0.629,0.064 1.24,0.076 1.825,0.019 l 0.788,-7.506 4.472,0.469 -0.629,5.961 c 0.602,0.176 1.183,0.294 1.76,0.356 0.611,0.065 1.218,0.068 1.825,0.017 l 0.626,-5.959 5.441,0.571 -0.807,7.709 c 0.562,0.175 1.138,0.297 1.731,0.356 0.635,0.07 1.24,0.073 1.825,0.019 l 1.245,-11.893 -20.603,-2.169 z m 5.93,-22.045 17.876,12.397 c -0.075,0.44 -0.15,0.839 -0.23,1.195 -0.077,0.358 -0.171,0.719 -0.286,1.086 -0.125,0.406 -0.255,0.782 -0.393,1.132 -0.136,0.346 -0.292,0.708 -0.462,1.079 l -21.768,0.334 c 0.055,-0.383 0.126,-0.746 0.209,-1.094 0.092,-0.342 0.18,-0.687 0.281,-1.018 0.113,-0.345 0.226,-0.687 0.348,-1.018 0.118,-0.336 0.263,-0.681 0.435,-1.029 l 16.961,0.391 -14.298,-9.102 c 0.122,-0.803 0.292,-1.555 0.502,-2.255 0.099,-0.31 0.226,-0.663 0.386,-1.059 0.16,-0.388 0.309,-0.742 0.439,-1.039 m 3.089,-6.857 c -0.396,0.608 -0.732,1.223 -1.013,1.852 -0.281,0.629 -0.519,1.308 -0.712,2.019 l 18.929,8.429 c 0.403,-0.622 0.736,-1.236 1.015,-1.851 0.29,-0.65 0.523,-1.325 0.704,-2.02 l -18.923,-8.429 z m 9.907,-17.917 17.759,10.674 c -0.208,0.569 -0.476,1.123 -0.798,1.665 -0.334,0.547 -0.701,1.056 -1.115,1.519 l -11.29,-6.78 7.13,13.698 c -0.22,0.603 -0.479,1.133 -0.755,1.594 -0.255,0.428 -0.59,0.879 -1.01,1.345 l -17.756,-10.673 c 0.189,-0.536 0.434,-1.059 0.741,-1.571 0.325,-0.543 0.717,-1.08 1.172,-1.613 l 11.311,6.794 -7.183,-13.663 c 0.213,-0.585 0.472,-1.126 0.774,-1.621 0.272,-0.457 0.614,-0.915 1.02,-1.368 m 131.942,-30.422 c -1.257,-0.879 -1.226,-1.656 -1.226,-3.38 l 0,-14.941 c 0,-1.001 0.268,-2.238 2.257,-0.751 l 18.21,13.629 c 1.861,1.392 1.533,2.03 1.533,4.337 l 0,13.205 c 0,2.353 0.116,2.377 -1.917,0.97 l -18.857,-13.069 z m -14.224,59.745 12.322,-3.061 c 1.885,-0.401 2.779,-0.878 0.963,-1.832 -4.221,-2.213 -8.148,-4.282 -12.73,-6.571 -1.201,-0.599 -1.615,-0.701 -2.982,-0.701 l -23.925,0 -0.894,0 -23.923,0 c -1.369,0 -1.787,0.102 -2.989,0.701 -4.576,2.289 -8.651,4.426 -12.863,6.642 -1.82,0.951 -0.928,1.428 0.953,1.835 l 12.472,2.987 c 12.797,-6.823 40.796,-6.823 53.596,0 m -6.704,8.232 c 0.44,0.17 0.652,-2.012 0.02,-2.287 -5.381,-2.309 -12.638,-3.47 -19.917,-3.464 l -0.196,0 -0.199,0 c -7.279,-0.006 -14.535,1.155 -19.917,3.464 -0.64,0.275 -0.42,2.457 0.022,2.287 6.139,-2.349 13.123,-3.526 20.094,-3.509 6.965,-0.017 13.949,1.16 20.093,3.509 m 2.1,5.231 c -6.783,-2.769 -14.497,-4.155 -22.193,-4.142 -7.702,-0.013 -15.412,1.373 -22.196,4.142 -0.484,0.195 -0.727,-2.381 -0.027,-2.698 5.95,-2.723 13.965,-4.089 22.005,-4.077 l 0.218,0 0.214,0 c 8.039,-0.012 16.058,1.354 21.999,4.077 0.705,0.317 0.464,2.893 -0.02,2.698 m 2.596,-7.753 c -7.574,-3.22 -16.192,-4.834 -24.789,-4.819 -8.604,-0.015 -17.221,1.599 -24.796,4.819 -0.54,0.232 -0.812,-2.766 -0.024,-3.138 6.639,-3.168 15.594,-4.757 24.575,-4.751 l 0.245,0.003 0.242,-0.003 c 8.981,-0.006 17.933,1.583 24.581,4.751 0.782,0.372 0.508,3.37 -0.034,3.138 m 5.893,-52.219 17.15,10.575 c 3.625,-1.5 7.216,-3.066 10.814,-4.623 2.187,-0.943 0.643,-2.139 -0.787,-3.083 -4.545,-2.991 -7.31,-5.092 -11.461,-7.874 -10.75,-7.208 -7.337,-6.084 -19.639,-6.084 -17.828,-0.002 -35.661,-0.002 -53.492,0 -12.302,0 -8.887,-1.124 -19.64,6.084 -4.152,2.782 -6.915,4.883 -11.46,7.874 -1.425,0.944 -2.975,2.14 -0.786,3.083 3.601,1.557 7.191,3.123 10.813,4.623 l 17.145,-10.575 c 2.038,-1.329 3.786,-1.02 6.068,-1.02 l 49.211,0 c 2.289,0 4.03,-0.309 6.064,1.02 m -26.752,21.877 0,-3.764 c 1.524,-1.255 2.498,-3.16 2.498,-5.288 0,-3.772 -3.06,-6.832 -6.839,-6.832 -3.776,0 -6.835,3.06 -6.835,6.832 0,2.128 0.976,4.033 2.498,5.288 l 0,3.764 c -3.365,-1.616 -5.694,-5.06 -5.694,-9.052 0,-5.537 4.49,-10.024 10.031,-10.024 5.542,0 10.032,4.487 10.032,10.024 0,3.992 -2.326,7.436 -5.691,9.052 m -53.72,13.857 c 3.506,0 6.348,-2.846 6.348,-6.347 0,-1.299 -0.39,-2.508 -1.062,-3.512 -0.17,-0.264 -0.369,-0.512 -0.578,-0.741 -0.714,-0.795 -0.591,-0.549 -0.591,0.346 l 0,4.077 c 0,2.266 -1.851,4.118 -4.117,4.118 -2.261,0 -4.121,-1.852 -4.121,-4.118 l 0,-3.674 c 0,-1.29 0.127,-1.676 -0.861,-0.423 -0.291,0.369 -0.55,0.773 -0.755,1.21 -0.389,0.818 -0.607,1.74 -0.607,2.717 0,3.501 2.839,6.347 6.344,6.347 m 1.523,-4.688 c 0.386,-0.39 0.626,-0.926 0.632,-1.513 l -0.006,0 0,-0.008 0,-11.458 0,-0.009 0.006,0 c 0,-0.587 -0.249,-1.125 -0.637,-1.514 -0.841,-0.842 -2.198,-0.842 -3.038,0 -0.393,0.389 -0.641,0.927 -0.641,1.514 l 0.015,0 0,0.009 0,11.458 0,0.008 -0.015,0 c 0,0.587 0.252,1.123 0.643,1.516 0.844,0.841 2.198,0.839 3.041,-0.003 m 17.481,1.558 -11.637,6.135 c -1.149,0.608 -2.063,0.206 -2.063,-0.923 l 0,-1.357 c 2.1,-1.604 3.459,-4.131 3.459,-6.977 0,-2.847 -1.359,-5.374 -3.459,-6.972 l 0,-0.722 c 0,-1.134 0.958,-2.542 2.063,-3.213 l 11.637,-7.008 c 1.115,-0.667 2.069,-0.214 2.069,0.927 l 0,16.905 c 0,1.131 -0.916,2.596 -2.069,3.205 m 79.758,3.13 c 3.502,0 6.344,-2.846 6.344,-6.347 0,-0.977 -0.218,-1.899 -0.606,-2.717 -0.204,-0.437 -0.46,-0.841 -0.752,-1.21 -0.994,-1.253 -0.865,-0.867 -0.865,0.423 l 0,3.674 c 0,2.266 -1.86,4.118 -4.121,4.118 -2.266,0 -4.12,-1.852 -4.12,-4.118 l 0,-4.077 c 0,-0.895 0.126,-1.141 -0.594,-0.346 -0.209,0.229 -0.397,0.477 -0.575,0.741 -0.672,1.004 -1.06,2.213 -1.06,3.512 0,3.501 2.843,6.347 6.349,6.347 m -1.521,-4.688 c -0.39,-0.39 -0.634,-0.926 -0.634,-1.513 l 0.003,0 0,-0.008 0,-11.458 0,-0.009 -0.003,0 c 0,-0.587 0.248,-1.125 0.634,-1.514 0.849,-0.842 2.199,-0.842 3.038,0 0.391,0.389 0.637,0.927 0.637,1.514 l -0.005,0 0,0.009 0,11.458 0,0.008 0.005,0 c 0,0.587 -0.246,1.123 -0.637,1.516 -0.843,0.841 -2.2,0.839 -3.038,-0.003 m -17.485,1.558 c -1.15,-0.609 -2.067,-2.074 -2.067,-3.205 l 0,-16.905 c 0,-1.141 0.954,-1.594 2.067,-0.927 l 11.635,7.008 c 1.108,0.671 2.067,2.079 2.067,3.213 l 0,0.722 c -2.104,1.598 -3.462,4.125 -3.462,6.972 0,2.846 1.358,5.373 3.462,6.977 l 0,1.357 c 0,1.129 -0.915,1.531 -2.067,0.923 l -11.635,-6.135 z m -24.216,-30.537 c 1.756,0.988 3.249,2.388 4.343,4.075 l 14.734,0 c 1.28,0 1.977,-0.103 3.061,0.568 l 12.719,7.951 c 0.243,-0.165 0.933,-2.369 0.073,-4.588 l -12.302,-7.52 c -1.241,-0.558 -2.164,-0.436 -3.478,-0.477 -6.381,-0.009 -12.769,-0.009 -19.15,-0.009 m -47.247,8.006 c -0.862,2.219 -0.171,4.423 0.07,4.588 l 12.726,-7.951 c 1.081,-0.671 1.776,-0.568 3.054,-0.568 l 14.828,0 c 1.099,-1.682 2.585,-3.082 4.345,-4.072 l -19.247,0.006 c -1.308,0.041 -2.236,-0.081 -3.481,0.477 l -12.295,7.52 z m 17.097,20.939 c -0.59,0 -1.074,-0.482 -1.074,-1.075 l 0,-19.293 c 0,-0.59 0.484,-1.072 1.074,-1.072 l 4.459,0 7.564,0 c -0.3,1.072 -0.46,2.2 -0.46,3.37 0,5.35 3.368,9.918 8.098,11.691 0.012,0.143 0.028,0.291 0.05,0.437 0.336,2.155 2.003,4.102 4.302,4.094 2.134,-0.009 3.699,-1.702 4.168,-3.654 0.071,-0.284 0.106,-0.561 0.127,-0.839 4.787,-1.74 8.204,-6.337 8.204,-11.729 0,-1.17 -0.162,-2.298 -0.462,-3.37 l 7.034,0 4.895,0 c 0.593,0 1.077,0.482 1.077,1.072 l 0,19.293 c 0,0.593 -0.484,1.075 -1.077,1.075 l -47.979,0 z m 27.36,-21.44 c 0.801,0.852 1.29,1.995 1.29,3.253 0,0.893 -0.248,1.729 -0.673,2.443 -0.232,-0.605 -0.564,-1.142 -0.978,-1.594 -1.669,-1.822 -4.359,-1.822 -6.023,-0.003 -0.448,0.497 -0.807,1.101 -1.038,1.773 -0.493,-0.75 -0.792,-1.649 -0.792,-2.619 0,-1.258 0.5,-2.401 1.298,-3.253 l 6.916,0 z m -38.001,-24.481 70.114,0 c 0.544,0 0.992,-0.453 0.992,-0.999 l 0,-17.911 c 0,-0.543 -0.452,-1.001 -0.992,-1.001 l -70.114,0 c -0.541,0 -0.993,0.453 -0.993,1.001 l 0,17.911 c 0,0.552 0.446,0.999 0.993,0.999 m -5.95,1.673 -18.854,13.069 c -2.032,1.407 -1.923,1.383 -1.923,-0.97 l 0,-13.205 c 0,-2.307 -0.327,-2.945 1.539,-4.337 l 18.21,-13.629 c 1.987,-1.487 2.257,-0.25 2.257,0.751 l 0,14.941 c 0,1.724 0.027,2.501 -1.229,3.38 m -59.671,98.19 c 0,2.535 -0.408,4.906 -3.49,5.065 -1.208,0.062 -2.115,-0.238 -2.713,-0.899 -0.604,-0.661 -0.932,-1.539 -0.993,-2.631 -0.021,-0.424 -0.013,-0.805 0.026,-1.157 l 7.17,-0.378 z m 2.624,1.728 0,-1.865 7.675,-0.397 c 0.024,-0.351 0.036,-0.699 0.052,-1.044 0.004,-0.345 0.004,-0.684 -0.016,-1.011 -0.012,-0.322 -0.04,-0.671 -0.087,-1.033 -0.031,-0.362 -0.09,-0.738 -0.168,-1.113 l -20.691,1.08 c -0.053,0.851 -0.092,1.647 -0.125,2.387 -0.021,0.741 -0.016,1.566 0.033,2.467 0.056,1.059 0.205,2.093 0.451,3.109 0.245,1.015 0.631,1.921 1.165,2.723 0.535,0.797 1.23,1.429 2.089,1.894 0.867,0.467 1.939,0.661 3.222,0.596 0.768,-0.041 1.443,-0.172 2.015,-0.391 0.573,-0.226 1.077,-0.497 1.503,-0.816 0.423,-0.323 0.783,-0.661 1.086,-1.026 0.299,-0.361 0.535,-0.699 0.708,-1.016 l 0.292,-0.505 9.011,4.575 c 0.02,-0.386 0.034,-0.792 0.056,-1.212 0.012,-0.427 0.008,-0.862 -0.016,-1.302 -0.033,-0.732 -0.131,-1.443 -0.284,-2.149 l -7.971,-3.951 z m 201.357,20.808 c 0.697,-2.44 1.737,-4.609 4.74,-3.916 1.179,0.269 1.965,0.8 2.37,1.6 0.402,0.806 0.477,1.74 0.233,2.807 -0.095,0.41 -0.205,0.779 -0.338,1.101 l -7.005,-1.592 z m -2.048,-2.375 -0.507,1.794 -7.493,-1.708 c -0.119,0.329 -0.227,0.658 -0.33,0.984 -0.103,0.333 -0.193,0.659 -0.267,0.978 -0.075,0.318 -0.142,0.657 -0.204,1.018 -0.063,0.361 -0.11,0.735 -0.138,1.123 l 20.203,4.597 c 0.282,-0.804 0.535,-1.559 0.767,-2.262 0.225,-0.708 0.448,-1.501 0.645,-2.379 0.237,-1.03 0.373,-2.069 0.413,-3.116 0.041,-1.045 -0.087,-2.025 -0.38,-2.936 -0.298,-0.916 -0.787,-1.714 -1.493,-2.394 -0.701,-0.683 -1.683,-1.167 -2.936,-1.455 -0.751,-0.166 -1.432,-0.23 -2.045,-0.166 -0.614,0.056 -1.169,0.184 -1.67,0.373 -0.494,0.193 -0.935,0.417 -1.321,0.691 -0.388,0.263 -0.709,0.522 -0.959,0.782 l -0.419,0.41 -7.425,-6.863 c -0.119,0.37 -0.247,0.75 -0.382,1.154 -0.129,0.407 -0.244,0.819 -0.342,1.248 -0.162,0.717 -0.265,1.428 -0.312,2.151 l 6.595,5.976 z m -6.476,-70.526 c -1.126,-2.263 -1.811,-4.574 0.876,-6.078 1.057,-0.595 1.999,-0.731 2.832,-0.406 0.837,0.324 1.517,0.962 2.057,1.92 0.207,0.367 0.372,0.714 0.491,1.043 l -6.256,3.521 z m -3.113,-0.372 0.827,1.665 -6.699,3.774 c 0.135,0.323 0.276,0.636 0.421,0.951 0.147,0.318 0.296,0.617 0.456,0.899 0.159,0.285 0.343,0.585 0.536,0.895 0.197,0.305 0.413,0.614 0.653,0.918 l 18.051,-10.166 c -0.334,-0.785 -0.648,-1.513 -0.956,-2.19 -0.303,-0.679 -0.676,-1.412 -1.12,-2.197 -0.517,-0.922 -1.114,-1.784 -1.783,-2.586 -0.675,-0.799 -1.425,-1.44 -2.259,-1.92 -0.832,-0.48 -1.736,-0.737 -2.716,-0.766 -0.977,-0.039 -2.025,0.263 -3.15,0.895 -0.667,0.379 -1.213,0.791 -1.627,1.251 -0.417,0.453 -0.744,0.918 -0.98,1.395 -0.24,0.478 -0.414,0.943 -0.519,1.4 -0.107,0.457 -0.171,0.863 -0.183,1.225 l -0.038,0.585 -10.106,-0.096 c 0.153,0.356 0.318,0.728 0.492,1.116 0.174,0.382 0.367,0.772 0.588,1.154 0.356,0.638 0.758,1.234 1.21,1.801 l 8.902,-0.003 z m -92.069,-7.286 0,0 c 1.282,0 2.333,-1.11 2.333,-2.467 l 0,-7.388 c 0,-1.35 -1.051,-2.46 -2.333,-2.46 -1.282,0 -2.327,1.11 -2.327,2.46 l 0,7.388 c 0,1.357 1.045,2.467 2.327,2.467 M 581.81,278.501 c -0.291,0.234 -0.557,0.471 -0.803,0.716 -0.241,0.243 -0.491,0.5 -0.733,0.772 -0.22,0.243 -0.439,0.499 -0.66,0.769 -0.213,0.271 -0.419,0.562 -0.626,0.871 l 7.991,7.193 c 0.874,0.781 1.591,1.487 2.154,2.11 0.562,0.623 0.952,1.216 1.192,1.772 0.229,0.56 0.287,1.101 0.165,1.624 -0.122,0.524 -0.435,1.065 -0.933,1.621 -0.499,0.557 -0.998,0.921 -1.506,1.087 -0.5,0.172 -1.039,0.167 -1.621,-0.007 -0.579,-0.173 -1.209,-0.502 -1.889,-1 -0.678,-0.497 -1.449,-1.133 -2.326,-1.92 l -7.986,-7.198 c -0.301,0.255 -0.573,0.497 -0.821,0.743 -0.242,0.244 -0.472,0.488 -0.69,0.73 -0.236,0.26 -0.459,0.523 -0.688,0.804 -0.22,0.277 -0.428,0.569 -0.636,0.877 l 8.653,7.791 c 1.042,0.938 2.074,1.709 3.092,2.316 1.016,0.606 2.031,0.964 3.046,1.078 1.014,0.109 2.019,-0.057 3.023,-0.499 1.007,-0.439 2.016,-1.229 3.048,-2.37 1.028,-1.142 1.709,-2.235 2.043,-3.281 0.332,-1.041 0.39,-2.068 0.178,-3.06 -0.22,-0.996 -0.685,-1.968 -1.394,-2.916 -0.707,-0.948 -1.586,-1.893 -2.625,-2.829 l -8.648,-7.794 z m 159.401,75.374 4.635,1.346 -4.546,1.589 -0.089,-2.935 z m -8.426,35.759 c -0.167,0.429 -0.267,0.887 -0.209,1.342 0.044,0.423 0.196,0.803 0.442,1.153 0.27,0.395 0.636,0.725 1.037,0.997 0.476,0.333 1.008,0.601 1.554,0.813 0.545,0.212 1.115,0.378 1.698,0.46 0.471,0.066 0.964,0.071 1.428,-0.037 0.413,-0.089 0.78,-0.273 1.103,-0.549 0.348,-0.299 0.59,-0.701 0.755,-1.127 0.165,-0.424 0.259,-0.88 0.205,-1.332 -0.05,-0.421 -0.198,-0.806 -0.435,-1.156 -0.266,-0.401 -0.629,-0.727 -1.026,-1.002 -0.48,-0.332 -1.012,-0.599 -1.559,-0.81 -0.546,-0.214 -1.116,-0.378 -1.7,-0.46 -0.475,-0.065 -0.965,-0.069 -1.436,0.043 -0.411,0.089 -0.787,0.27 -1.107,0.548 -0.349,0.296 -0.589,0.694 -0.75,1.117 m -57.845,46.66 c 0.453,-0.06 0.913,-0.046 1.342,0.11 0.401,0.153 0.737,0.393 1.019,0.706 0.324,0.355 0.562,0.789 0.733,1.239 0.209,0.55 0.341,1.127 0.421,1.708 0.078,0.582 0.103,1.174 0.044,1.758 -0.044,0.475 -0.156,0.952 -0.378,1.381 -0.192,0.378 -0.453,0.695 -0.796,0.939 -0.373,0.269 -0.815,0.407 -1.267,0.467 -0.45,0.059 -0.92,0.045 -1.353,-0.113 -0.395,-0.144 -0.736,-0.382 -1.014,-0.694 -0.324,-0.359 -0.553,-0.788 -0.725,-1.233 -0.213,-0.552 -0.341,-1.131 -0.422,-1.708 -0.079,-0.58 -0.104,-1.174 -0.04,-1.756 0.043,-0.48 0.154,-0.958 0.369,-1.395 0.182,-0.378 0.445,-0.695 0.793,-0.943 0.373,-0.267 0.817,-0.405 1.274,-0.466 m -83.705,-45.24 c 0.193,0.415 0.314,0.864 0.286,1.318 -0.027,0.428 -0.153,0.816 -0.376,1.183 -0.246,0.414 -0.591,0.766 -0.969,1.061 -0.462,0.362 -0.977,0.656 -1.511,0.899 -0.532,0.245 -1.091,0.445 -1.668,0.561 -0.469,0.094 -0.957,0.124 -1.43,0.04 -0.414,-0.073 -0.794,-0.235 -1.129,-0.485 -0.366,-0.28 -0.627,-0.665 -0.818,-1.076 -0.193,-0.415 -0.314,-0.864 -0.287,-1.326 0.022,-0.421 0.149,-0.814 0.37,-1.173 0.247,-0.411 0.59,-0.76 0.966,-1.055 0.462,-0.362 0.977,-0.655 1.51,-0.9 0.535,-0.246 1.092,-0.444 1.668,-0.56 0.468,-0.09 0.963,-0.127 1.436,-0.048 0.419,0.064 0.799,0.223 1.137,0.483 0.362,0.276 0.629,0.663 0.815,1.078 m 147.453,-66.515 -2.043,-4.059 0.201,-0.144 c 0.071,-0.045 0.142,-0.09 0.216,-0.136 0.068,-0.039 0.149,-0.081 0.223,-0.118 0.077,-0.04 0.154,-0.076 0.233,-0.11 0.071,-0.031 0.15,-0.063 0.229,-0.085 l 0.231,-0.07 2.737,5.457 -9.827,4.936 -2.799,-5.571 0.189,-0.142 c 0.073,-0.056 0.147,-0.098 0.225,-0.141 0.071,-0.043 0.145,-0.085 0.22,-0.122 0.079,-0.037 0.15,-0.073 0.231,-0.11 0.071,-0.027 0.149,-0.056 0.227,-0.082 l 0.23,-0.073 2.099,4.178 3.212,-1.614 -1.633,-3.252 0.187,-0.142 c 0.07,-0.051 0.144,-0.097 0.221,-0.14 0.074,-0.043 0.149,-0.086 0.227,-0.122 0.076,-0.037 0.15,-0.073 0.23,-0.107 0.073,-0.035 0.15,-0.062 0.224,-0.088 l 0.231,-0.074 1.635,3.256 2.644,-1.325 z m 3.444,8.632 0.973,2.579 0.234,-0.048 c 0.083,-0.015 0.161,-0.036 0.236,-0.059 0.078,-0.026 0.165,-0.051 0.243,-0.085 0.079,-0.03 0.153,-0.063 0.228,-0.093 0.076,-0.035 0.154,-0.072 0.228,-0.112 l 0.202,-0.122 -2.496,-6.615 -0.231,0.04 c -0.074,0.011 -0.152,0.034 -0.229,0.059 -0.082,0.025 -0.16,0.051 -0.237,0.078 -0.081,0.032 -0.164,0.065 -0.238,0.1 -0.076,0.034 -0.153,0.07 -0.232,0.116 l -0.202,0.118 0.97,2.578 -8.883,3.351 0.055,0.236 c 0.013,0.088 0.042,0.167 0.06,0.249 0.031,0.091 0.062,0.178 0.1,0.265 0.03,0.09 0.066,0.184 0.108,0.274 0.035,0.078 0.075,0.161 0.118,0.234 l 0.122,0.205 8.871,-3.348 z m -3.776,9.212 7.8,-1.326 -0.004,-0.242 c -0.003,-0.086 -0.006,-0.167 -0.017,-0.255 -0.009,-0.083 -0.022,-0.178 -0.038,-0.262 -0.018,-0.091 -0.036,-0.181 -0.056,-0.269 -0.021,-0.09 -0.041,-0.177 -0.069,-0.262 l -0.079,-0.225 -10.751,1.832 0,0.236 c 0,0.1 0.008,0.199 0.019,0.291 0.012,0.105 0.028,0.207 0.048,0.307 0.015,0.094 0.033,0.188 0.054,0.28 0.021,0.1 0.044,0.189 0.071,0.281 l 0.041,0.132 8.515,3.15 -7.736,1.313 0.007,0.243 c 0,0.085 0.011,0.166 0.016,0.252 0.011,0.089 0.022,0.179 0.039,0.27 0.015,0.097 0.036,0.191 0.055,0.285 0.022,0.081 0.041,0.164 0.068,0.24 l 0.078,0.229 10.766,-1.834 -0.011,-0.246 c 0,-0.099 -0.017,-0.199 -0.025,-0.295 -0.014,-0.098 -0.027,-0.195 -0.043,-0.289 -0.015,-0.097 -0.035,-0.191 -0.057,-0.286 -0.018,-0.097 -0.044,-0.189 -0.073,-0.283 l -0.039,-0.132 -8.579,-3.135 z m 1.35,11.059 0.112,3.879 -2.602,0.893 -0.019,0.18 c -0.011,0.092 -0.013,0.197 -0.017,0.294 -0.002,0.098 -0.002,0.2 0,0.302 0.004,0.101 0.008,0.205 0.023,0.311 10e-4,0.085 0.011,0.179 0.029,0.264 l 0.064,0.328 10.801,-3.958 0.018,-0.172 c 0.01,-0.105 0.016,-0.206 0.016,-0.307 0.002,-0.11 0.002,-0.218 0,-0.334 -0.006,-0.11 -0.011,-0.22 -0.019,-0.333 -0.008,-0.098 -0.015,-0.198 -0.034,-0.294 l -0.028,-0.176 -11.015,-3.321 -0.047,0.326 c -0.011,0.094 -0.011,0.191 -0.011,0.283 -0.002,0.105 -0.002,0.212 0,0.32 0,0.092 0.005,0.194 0.015,0.29 0.007,0.087 0.019,0.179 0.028,0.265 l 0.031,0.178 2.655,0.782 z m 6.936,11.482 -0.113,2.746 0.234,0.051 c 0.078,0.024 0.158,0.031 0.24,0.041 0.086,0.008 0.173,0.013 0.26,0.015 0.082,0.003 0.165,0.003 0.248,0.003 0.078,-0.003 0.162,-0.003 0.244,-0.01 l 0.243,-0.028 0.287,-7.079 -0.231,-0.047 c -0.078,-0.02 -0.155,-0.028 -0.232,-0.036 -0.084,-0.012 -0.171,-0.017 -0.254,-0.021 l -0.255,0 c -0.084,0 -0.168,0.004 -0.258,0.015 l -0.237,0.03 -0.109,2.753 -9.484,-0.388 -0.047,0.243 c -0.014,0.086 -0.025,0.17 -0.036,0.258 -0.006,0.089 -0.017,0.18 -0.017,0.274 -0.003,0.101 -0.003,0.2 -0.003,0.299 0.003,0.085 0.003,0.173 0.014,0.26 l 0.033,0.234 9.473,0.387 z m 0.601,7.78 c 0.024,-0.085 0.047,-0.175 0.067,-0.259 0.019,-0.091 0.035,-0.182 0.049,-0.268 0.017,-0.096 0.029,-0.187 0.041,-0.281 0.005,-0.081 0.012,-0.166 0.015,-0.253 l 0.008,-0.245 -10.778,-1.771 -0.076,0.235 c -0.025,0.078 -0.046,0.16 -0.065,0.245 -0.018,0.09 -0.035,0.183 -0.052,0.273 -0.016,0.099 -0.032,0.196 -0.044,0.294 -0.004,0.088 -0.013,0.173 -0.013,0.258 l 0.002,0.242 10.775,1.77 0.071,-0.24 z m -15.839,16.397 c 0.255,-0.655 0.617,-1.26 1.133,-1.734 0.475,-0.435 1.026,-0.742 1.65,-0.906 0.644,-0.174 1.324,-0.204 1.987,-0.132 0.754,0.084 1.486,0.281 2.192,0.556 0.7,0.271 1.372,0.624 1.982,1.072 0.532,0.398 1.009,0.872 1.365,1.44 0.35,0.545 0.54,1.144 0.596,1.781 0.06,0.703 -0.083,1.398 -0.336,2.047 -0.26,0.649 -0.616,1.254 -1.137,1.728 -0.473,0.438 -1.023,0.745 -1.645,0.909 -0.649,0.175 -1.315,0.202 -1.987,0.133 -0.745,-0.083 -1.476,-0.28 -2.18,-0.555 -0.706,-0.273 -1.378,-0.626 -1.984,-1.074 -0.54,-0.397 -1.019,-0.876 -1.378,-1.44 -0.342,-0.549 -0.538,-1.147 -0.597,-1.787 -0.063,-0.697 0.09,-1.394 0.339,-2.038 m -1.11,7.292 c -0.083,-0.142 -0.165,-0.282 -0.26,-0.415 -0.094,-0.139 -0.197,-0.266 -0.319,-0.382 l -0.157,-0.148 -0.19,0.111 c -0.37,0.22 -0.712,0.52 -1.011,0.834 -0.345,0.364 -0.656,0.759 -0.92,1.183 -0.374,0.592 -0.647,1.233 -0.785,1.92 -0.117,0.647 -0.101,1.304 0.064,1.936 0.174,0.669 0.501,1.27 0.93,1.812 0.491,0.624 1.121,1.145 1.798,1.568 0.688,0.434 1.437,0.794 2.234,0.993 0.677,0.167 1.384,0.229 2.078,0.119 0.658,-0.105 1.274,-0.356 1.825,-0.735 0.588,-0.41 1.061,-0.943 1.439,-1.544 0.283,-0.444 0.554,-0.923 0.734,-1.414 0.103,-0.288 0.224,-0.59 0.298,-0.886 l 0.057,-0.23 -0.213,-0.102 c -0.142,-0.07 -0.295,-0.138 -0.452,-0.183 -0.153,-0.042 -0.308,-0.07 -0.462,-0.102 l -0.258,-0.044 -0.064,0.254 c -0.042,0.126 -0.075,0.25 -0.109,0.38 -0.037,0.137 -0.09,0.269 -0.143,0.399 -0.069,0.169 -0.149,0.339 -0.231,0.502 -0.114,0.219 -0.243,0.429 -0.375,0.635 -0.259,0.416 -0.586,0.777 -0.999,1.047 -0.389,0.255 -0.81,0.399 -1.263,0.451 -0.509,0.059 -1.023,-0.006 -1.515,-0.142 -0.606,-0.167 -1.177,-0.449 -1.709,-0.785 -0.522,-0.33 -1.026,-0.734 -1.418,-1.219 -0.301,-0.39 -0.547,-0.827 -0.671,-1.311 -0.11,-0.434 -0.128,-0.878 -0.032,-1.318 0.094,-0.465 0.28,-0.9 0.533,-1.301 0.214,-0.337 0.456,-0.65 0.734,-0.927 0.217,-0.212 0.46,-0.42 0.718,-0.567 l 0.258,-0.141 -0.144,-0.248 z m -8.878,17.354 6.702,2.017 0.118,-0.107 c 0.081,-0.068 0.15,-0.149 0.221,-0.229 0.074,-0.084 0.155,-0.176 0.232,-0.264 0.073,-0.091 0.144,-0.181 0.209,-0.275 0.066,-0.081 0.127,-0.17 0.183,-0.262 l 0.123,-0.204 -8.107,-7.328 -0.194,0.175 c -0.062,0.057 -0.121,0.122 -0.179,0.184 -0.063,0.065 -0.123,0.135 -0.185,0.205 -0.06,0.077 -0.123,0.158 -0.175,0.235 -0.055,0.071 -0.105,0.145 -0.149,0.22 l -0.113,0.197 5.863,5.252 -5.95,-1.723 -0.11,0.075 c -0.083,0.053 -0.15,0.118 -0.209,0.193 -0.047,0.052 -0.087,0.103 -0.133,0.156 -0.126,0.16 -0.005,0.006 -0.121,0.149 -0.06,0.073 -0.105,0.153 -0.14,0.234 l -0.062,0.128 2.888,5.484 -6.331,-4.709 -0.17,0.159 c -0.064,0.06 -0.122,0.119 -0.182,0.183 -0.061,0.065 -0.121,0.14 -0.181,0.21 -0.066,0.079 -0.122,0.155 -0.181,0.237 -0.051,0.067 -0.104,0.138 -0.145,0.218 l -0.125,0.216 8.776,6.502 0.172,-0.15 c 0.075,-0.067 0.145,-0.146 0.214,-0.226 0.082,-0.09 0.163,-0.18 0.238,-0.273 0.074,-0.093 0.147,-0.186 0.22,-0.282 0.063,-0.083 0.127,-0.171 0.181,-0.257 l 0.086,-0.142 -3.284,-6.198 z m -6.373,12.816 3.535,-2.828 0.178,0.143 c 0.07,0.057 0.133,0.126 0.191,0.195 l 0.165,0.189 c 0.053,0.071 0.104,0.138 0.155,0.206 0.046,0.068 0.09,0.135 0.129,0.207 l 0.118,0.211 -4.776,3.813 -6.867,-8.587 4.872,-3.896 0.179,0.16 c 0.064,0.058 0.124,0.116 0.185,0.183 0.056,0.065 0.107,0.129 0.163,0.196 0.049,0.066 0.102,0.127 0.152,0.201 0.046,0.065 0.091,0.136 0.127,0.203 l 0.123,0.211 -3.649,2.92 2.247,2.809 2.844,-2.279 0.183,0.168 c 0.058,0.053 0.118,0.118 0.177,0.177 0.055,0.067 0.109,0.132 0.161,0.197 0.052,0.068 0.107,0.134 0.154,0.204 0.047,0.062 0.086,0.126 0.13,0.195 l 0.127,0.212 -2.851,2.28 1.848,2.31 z m -9.534,-0.562 3.794,6.942 0.232,-0.087 c 0.075,-0.032 0.153,-0.063 0.225,-0.097 0.083,-0.037 0.166,-0.081 0.244,-0.123 0.075,-0.043 0.156,-0.092 0.23,-0.134 0.078,-0.05 0.15,-0.098 0.221,-0.152 l 0.201,-0.146 -5.241,-9.573 -0.225,0.075 c -0.089,0.029 -0.18,0.073 -0.266,0.113 -0.093,0.048 -0.187,0.097 -0.278,0.146 -0.085,0.046 -0.165,0.091 -0.246,0.145 -0.084,0.048 -0.17,0.101 -0.248,0.164 l -0.103,0.081 -0.204,9.068 -3.762,-6.882 -0.229,0.082 c -0.08,0.028 -0.154,0.062 -0.228,0.099 -0.082,0.036 -0.166,0.079 -0.243,0.118 -0.088,0.051 -0.171,0.098 -0.259,0.152 -0.068,0.046 -0.139,0.088 -0.202,0.141 l -0.19,0.15 5.239,9.574 0.225,-0.086 c 0.094,-0.033 0.189,-0.075 0.277,-0.124 0.088,-0.038 0.175,-0.084 0.264,-0.132 0.083,-0.046 0.162,-0.097 0.245,-0.144 0.081,-0.048 0.162,-0.101 0.241,-0.155 l 0.113,-0.083 0.173,-9.132 z m -6.497,12.467 -0.24,0.07 -4.555,-9.912 0.192,-0.138 c 0.07,-0.05 0.15,-0.092 0.228,-0.13 0.087,-0.051 0.176,-0.092 0.267,-0.135 0.082,-0.04 0.168,-0.071 0.252,-0.108 0.081,-0.03 0.164,-0.059 0.246,-0.084 l 0.237,-0.072 4.554,9.924 -0.204,0.135 c -0.071,0.043 -0.146,0.088 -0.221,0.131 -0.083,0.038 -0.165,0.079 -0.252,0.119 -0.08,0.039 -0.165,0.073 -0.248,0.108 -0.09,0.035 -0.172,0.067 -0.256,0.092 m -10.833,-2.379 4.798,5.1 0.152,-0.033 c 0.102,-0.024 0.212,-0.054 0.308,-0.089 0.113,-0.035 0.223,-0.076 0.327,-0.118 0.112,-0.035 0.219,-0.082 0.32,-0.13 0.1,-0.035 0.198,-0.081 0.292,-0.132 l 0.209,-0.113 -3.356,-10.409 -0.26,0.063 c -0.079,0.016 -0.165,0.039 -0.243,0.061 -0.087,0.032 -0.175,0.062 -0.265,0.096 -0.094,0.031 -0.181,0.071 -0.272,0.11 -0.08,0.034 -0.161,0.071 -0.237,0.115 l -0.196,0.114 2.453,7.482 -4.289,-4.472 -0.131,0.011 c -0.101,0.009 -0.194,0.03 -0.283,0.065 -0.193,0.067 0.007,-0.003 -0.193,0.067 -0.058,0.025 -0.115,0.048 -0.185,0.07 -0.075,0.032 -0.156,0.076 -0.228,0.132 l -0.115,0.078 -0.247,6.196 -3.129,-7.243 -0.231,0.053 c -0.076,0.016 -0.162,0.039 -0.242,0.066 -0.089,0.027 -0.177,0.059 -0.259,0.093 -0.095,0.032 -0.193,0.07 -0.282,0.112 -0.077,0.034 -0.155,0.071 -0.229,0.113 l -0.221,0.123 4.352,10.02 0.218,-0.04 c 0.105,-0.017 0.208,-0.054 0.305,-0.086 0.112,-0.041 0.229,-0.078 0.339,-0.119 0.111,-0.046 0.221,-0.091 0.334,-0.134 0.096,-0.038 0.195,-0.083 0.287,-0.135 l 0.146,-0.076 0.253,-7.011 z m -13.44,-1.261 c -0.687,0.094 -1.365,0.302 -1.947,0.695 -0.534,0.356 -0.961,0.818 -1.271,1.384 -0.322,0.588 -0.509,1.239 -0.594,1.902 -0.1,0.752 -0.078,1.511 0.022,2.261 0.105,0.745 0.28,1.487 0.575,2.177 0.263,0.613 0.61,1.19 1.076,1.669 0.447,0.466 0.979,0.795 1.588,1 0.669,0.222 1.375,0.248 2.068,0.153 0.694,-0.092 1.368,-0.301 1.954,-0.693 0.535,-0.358 0.957,-0.821 1.269,-1.383 0.322,-0.59 0.506,-1.237 0.592,-1.894 0.1,-0.748 0.079,-1.508 -0.018,-2.255 -0.099,-0.746 -0.285,-1.49 -0.578,-2.187 -0.258,-0.615 -0.608,-1.196 -1.076,-1.676 -0.445,-0.464 -0.983,-0.797 -1.592,-1 -0.662,-0.223 -1.375,-0.245 -2.068,-0.153 m -13.716,7.751 4.568,0.022 -0.025,4.403 0.244,0.038 c 0.083,0.01 0.17,0.019 0.259,0.024 0.088,0.003 0.184,0.009 0.273,0.009 0.091,0 0.184,-0.003 0.275,-0.006 0.091,-0.003 0.182,-0.011 0.273,-0.022 l 0.24,-0.032 0.069,-10.916 -0.236,-0.042 c -0.082,-0.015 -0.175,-0.019 -0.26,-0.028 -0.1,-0.007 -0.195,-0.01 -0.294,-0.01 -0.099,0 -0.186,0 -0.28,0.003 -0.085,0.007 -0.174,0.018 -0.259,0.026 l -0.236,0.041 -0.031,5.032 -4.569,-0.024 0.028,-5.04 -0.245,-0.038 c -0.087,-0.014 -0.17,-0.019 -0.256,-0.028 -0.091,-0.002 -0.182,-0.008 -0.275,-0.008 -0.092,0 -0.197,0.004 -0.299,0.008 -0.083,0 -0.165,0.009 -0.249,0.02 l -0.242,0.035 -0.063,10.926 0.246,0.032 c 0.088,0.011 0.175,0.021 0.268,0.027 0.091,0.008 0.184,0.008 0.277,0.008 0.093,0 0.187,0 0.276,-0.006 0.088,-0.002 0.176,-0.011 0.259,-0.023 l 0.243,-0.036 0.021,-4.395 z m -13.747,1.715 0.432,-2.925 3.601,0.528 0.071,-0.219 c 0.028,-0.083 0.05,-0.161 0.066,-0.244 0.016,-0.081 0.033,-0.165 0.04,-0.251 0.016,-0.084 0.028,-0.167 0.032,-0.253 0.011,-0.086 0.012,-0.173 0.011,-0.257 l -0.007,-0.239 -3.602,-0.53 0.527,-3.557 4.621,0.678 0.072,-0.231 c 0.027,-0.08 0.044,-0.156 0.059,-0.234 0.016,-0.083 0.034,-0.164 0.045,-0.25 0.017,-0.081 0.022,-0.169 0.027,-0.25 0.009,-0.087 0.018,-0.176 0.018,-0.26 l -0.009,-0.239 -6.173,-0.908 -1.594,10.883 6.041,0.881 0.074,-0.219 c 0.028,-0.083 0.044,-0.161 0.063,-0.244 0.019,-0.082 0.033,-0.166 0.047,-0.251 0.012,-0.081 0.023,-0.167 0.028,-0.25 0.008,-0.088 0.012,-0.175 0.011,-0.264 l -0.007,-0.234 -4.494,-0.661 z m -20.051,-6.086 4.195,1.725 -0.05,0.237 c -0.021,0.079 -0.049,0.161 -0.077,0.24 -0.026,0.081 -0.054,0.164 -0.088,0.242 -0.033,0.08 -0.068,0.156 -0.104,0.232 -0.035,0.07 -0.073,0.144 -0.117,0.213 l -0.127,0.202 -5.65,-2.318 4.179,-10.171 5.766,2.366 -0.048,0.234 c -0.017,0.085 -0.043,0.169 -0.072,0.254 -0.027,0.077 -0.061,0.155 -0.094,0.234 -0.027,0.08 -0.061,0.156 -0.1,0.234 -0.032,0.069 -0.072,0.136 -0.11,0.207 l -0.121,0.212 -4.335,-1.776 -1.37,3.326 3.377,1.385 -0.059,0.237 c -0.017,0.083 -0.044,0.161 -0.072,0.241 -0.028,0.082 -0.055,0.161 -0.089,0.237 -0.033,0.081 -0.065,0.16 -0.104,0.24 -0.038,0.071 -0.071,0.141 -0.116,0.211 l -0.127,0.199 -3.369,-1.382 -1.118,2.739 z m -13.433,-15.429 -8.532,3.259 -0.115,-0.074 c -0.083,-0.053 -0.159,-0.104 -0.24,-0.16 -0.072,-0.06 -0.149,-0.119 -0.224,-0.179 -0.078,-0.064 -0.15,-0.125 -0.224,-0.195 -0.074,-0.064 -0.151,-0.135 -0.218,-0.208 l -0.161,-0.181 6.914,-8.444 0.213,0.121 c 0.072,0.043 0.139,0.094 0.205,0.142 0.086,0.059 0.157,0.116 0.233,0.179 0.07,0.059 0.137,0.115 0.205,0.18 0.058,0.05 0.116,0.113 0.177,0.175 l 0.157,0.18 -4.967,6.067 8.488,-3.21 0.118,0.074 c 0.083,0.048 0.16,0.103 0.238,0.16 0.077,0.057 0.153,0.116 0.226,0.181 0.082,0.063 0.159,0.133 0.236,0.203 0.072,0.063 0.147,0.13 0.209,0.206 l 0.15,0.175 -6.918,8.442 -0.203,-0.127 c -0.075,-0.046 -0.149,-0.097 -0.221,-0.147 -0.068,-0.055 -0.14,-0.112 -0.212,-0.167 -0.072,-0.056 -0.138,-0.116 -0.204,-0.179 -0.06,-0.053 -0.124,-0.111 -0.176,-0.177 l -0.166,-0.181 5.012,-6.115 z m -14.153,-2.071 -0.149,-0.198 7.899,-7.541 0.192,0.144 c 0.067,0.052 0.135,0.109 0.196,0.17 0.069,0.065 0.142,0.135 0.212,0.206 0.064,0.067 0.124,0.138 0.185,0.212 0.055,0.065 0.111,0.129 0.159,0.2 l 0.142,0.201 -7.899,7.541 -0.196,-0.153 c -0.064,-0.055 -0.13,-0.113 -0.19,-0.17 -0.071,-0.065 -0.133,-0.13 -0.199,-0.195 -0.067,-0.067 -0.127,-0.137 -0.186,-0.208 -0.056,-0.069 -0.117,-0.136 -0.166,-0.209 m -4.119,-6.802 2.274,-1.888 2.251,2.713 0.208,-0.122 c 0.066,-0.041 0.135,-0.083 0.198,-0.132 0.07,-0.049 0.136,-0.104 0.2,-0.158 0.068,-0.053 0.134,-0.107 0.194,-0.166 0.064,-0.059 0.129,-0.118 0.176,-0.183 l 0.162,-0.182 -2.251,-2.715 3.877,-3.213 -0.124,-0.212 c -0.043,-0.073 -0.09,-0.144 -0.146,-0.213 -0.056,-0.075 -0.11,-0.146 -0.169,-0.221 -0.062,-0.074 -0.133,-0.151 -0.199,-0.224 -0.056,-0.061 -0.12,-0.129 -0.19,-0.185 l -0.181,-0.148 -8.425,6.988 3.604,4.347 0.211,-0.124 c 0.066,-0.04 0.131,-0.086 0.199,-0.133 0.071,-0.051 0.137,-0.104 0.197,-0.157 0.07,-0.055 0.133,-0.112 0.193,-0.171 0.062,-0.059 0.122,-0.116 0.177,-0.175 l 0.165,-0.18 -2.601,-3.146 z m 0.575,-9.803 -9.127,-0.011 -0.089,-0.113 c -0.057,-0.078 -0.111,-0.159 -0.162,-0.237 -0.05,-0.083 -0.096,-0.164 -0.147,-0.246 -0.049,-0.085 -0.093,-0.174 -0.14,-0.26 -0.048,-0.09 -0.088,-0.181 -0.126,-0.278 l -0.087,-0.225 9.483,-5.4 0.147,0.187 c 0.053,0.063 0.102,0.132 0.146,0.199 0.055,0.089 0.102,0.17 0.153,0.255 0.046,0.076 0.09,0.154 0.129,0.24 0.033,0.073 0.072,0.146 0.098,0.226 l 0.092,0.227 -6.816,3.882 9.069,0.048 0.084,0.108 c 0.058,0.07 0.114,0.155 0.166,0.237 0.053,0.083 0.101,0.166 0.152,0.248 0.051,0.091 0.095,0.181 0.141,0.274 0.047,0.081 0.085,0.167 0.124,0.254 l 0.088,0.228 -9.487,5.408 -0.152,-0.192 c -0.055,-0.068 -0.104,-0.145 -0.154,-0.221 -0.047,-0.076 -0.094,-0.152 -0.138,-0.229 -0.047,-0.073 -0.086,-0.157 -0.126,-0.24 -0.039,-0.073 -0.071,-0.148 -0.103,-0.226 l -0.09,-0.228 6.872,-3.915 z m -3.514,-13.668 c -0.289,-0.631 -0.685,-1.216 -1.229,-1.659 -0.502,-0.407 -1.071,-0.68 -1.7,-0.811 -0.653,-0.137 -1.331,-0.124 -1.99,-0.017 -0.745,0.13 -1.467,0.377 -2.157,0.69 -0.682,0.309 -1.335,0.703 -1.912,1.185 -0.518,0.427 -0.961,0.932 -1.284,1.517 -0.31,0.563 -0.472,1.171 -0.492,1.815 -0.019,0.7 0.165,1.386 0.457,2.021 0.294,0.633 0.691,1.217 1.237,1.659 0.495,0.407 1.064,0.682 1.695,0.811 0.659,0.138 1.325,0.124 1.987,0.014 0.74,-0.124 1.462,-0.367 2.145,-0.678 0.684,-0.316 1.346,-0.708 1.923,-1.189 0.515,-0.431 0.961,-0.933 1.287,-1.52 0.314,-0.568 0.473,-1.172 0.489,-1.815 0.018,-0.701 -0.165,-1.39 -0.456,-2.023 m 135.411,-74.58 3.994,-5.755 -0.066,-0.147 c -0.037,-0.09 -0.091,-0.188 -0.149,-0.277 -0.058,-0.102 -0.121,-0.197 -0.182,-0.297 -0.064,-0.097 -0.126,-0.197 -0.193,-0.288 -0.06,-0.086 -0.123,-0.177 -0.193,-0.254 l -0.149,-0.181 -9.489,5.45 0.11,0.235 c 0.036,0.081 0.078,0.154 0.115,0.228 0.052,0.081 0.102,0.16 0.148,0.234 0.051,0.087 0.11,0.172 0.166,0.254 0.052,0.068 0.103,0.132 0.159,0.195 l 0.154,0.171 6.807,-3.951 -3.479,5.124 0.041,0.129 c 0.028,0.093 0.065,0.175 0.115,0.259 0.039,0.061 0.075,0.116 0.115,0.17 0.031,0.059 0.068,0.113 0.103,0.166 0.051,0.083 0.113,0.151 0.18,0.213 l 0.105,0.084 6.101,-1.049 -6.43,4.561 0.095,0.218 c 0.038,0.076 0.077,0.152 0.118,0.225 0.047,0.083 0.094,0.161 0.144,0.241 0.052,0.087 0.112,0.166 0.168,0.251 0.049,0.067 0.1,0.135 0.156,0.2 l 0.173,0.183 8.894,-6.331 -0.087,-0.209 c -0.04,-0.093 -0.097,-0.189 -0.146,-0.28 -0.062,-0.101 -0.125,-0.204 -0.188,-0.303 -0.063,-0.1 -0.13,-0.199 -0.201,-0.299 -0.058,-0.087 -0.122,-0.174 -0.193,-0.251 l -0.099,-0.128 -6.917,1.209 z m -89.084,121.139 -0.855,-0.28 1.175,-4.011 -0.221,-0.104 c -0.083,-0.039 -0.171,-0.074 -0.259,-0.103 -0.088,-0.031 -0.172,-0.055 -0.26,-0.084 -0.093,-0.025 -0.174,-0.048 -0.27,-0.071 -0.088,-0.018 -0.171,-0.037 -0.256,-0.047 l -0.239,-0.028 -3.088,10.527 0.242,0.095 c 0.172,0.065 0.349,0.139 0.518,0.207 0.149,0.056 0.292,0.113 0.437,0.176 0.148,0.056 0.303,0.112 0.461,0.165 0.188,0.06 0.373,0.115 0.562,0.17 0.46,0.138 0.933,0.222 1.413,0.257 0.48,0.036 0.948,-0.009 1.412,-0.154 0.463,-0.143 0.866,-0.395 1.213,-0.741 0.402,-0.409 0.656,-0.944 0.81,-1.489 0.11,-0.374 0.15,-0.768 0.106,-1.159 -0.05,-0.358 -0.144,-0.703 -0.298,-1.034 -0.15,-0.325 -0.355,-0.625 -0.591,-0.891 -0.177,-0.198 -0.363,-0.385 -0.566,-0.555 l 4.514,-3.429 -0.397,-0.209 c -0.1,-0.05 -0.209,-0.096 -0.32,-0.13 -0.093,-0.025 -0.181,-0.054 -0.275,-0.079 -0.095,-0.027 -0.183,-0.054 -0.276,-0.082 -0.113,-0.034 -0.22,-0.051 -0.336,-0.061 l -0.105,-0.006 -4.251,3.15 z m -1.203,0.889 c 0.668,0.189 1.036,0.433 1.57,0.898 0.229,0.195 0.432,0.411 0.598,0.661 0.148,0.225 0.26,0.469 0.308,0.734 0.061,0.282 0.027,0.57 -0.048,0.845 -0.165,0.541 -0.448,1.024 -0.988,1.25 -0.569,0.243 -1.204,0.172 -1.782,0.003 -0.175,-0.051 -0.346,-0.108 -0.523,-0.17 -0.111,-0.04 -0.221,-0.083 -0.33,-0.124 l 1.195,-4.097 z m -17.202,-7.462 2.679,1.737 2.844,-4.287 -0.082,-0.156 c -0.111,-0.198 -0.249,-0.384 -0.407,-0.553 -0.177,-0.193 -0.353,-0.37 -0.547,-0.543 -0.206,-0.18 -0.418,-0.352 -0.629,-0.519 -0.22,-0.163 -0.441,-0.325 -0.666,-0.475 -0.585,-0.383 -1.218,-0.672 -1.903,-0.826 -0.653,-0.153 -1.312,-0.165 -1.968,-0.021 -0.686,0.148 -1.311,0.458 -1.869,0.869 -0.656,0.475 -1.19,1.108 -1.641,1.781 -0.449,0.687 -0.821,1.436 -1.013,2.234 -0.169,0.692 -0.224,1.403 -0.11,2.112 0.107,0.667 0.348,1.282 0.729,1.844 0.386,0.579 0.889,1.056 1.467,1.436 0.436,0.289 0.91,0.569 1.389,0.76 0.321,0.127 0.651,0.256 0.989,0.353 l 0.219,0.067 0.111,-0.215 c 0.071,-0.143 0.142,-0.299 0.193,-0.453 0.055,-0.159 0.094,-0.325 0.121,-0.484 l 0.056,-0.273 -0.271,-0.059 c -0.271,-0.062 -0.547,-0.162 -0.82,-0.261 -0.389,-0.146 -0.785,-0.383 -1.144,-0.617 -0.402,-0.266 -0.755,-0.599 -1.014,-1.011 -0.253,-0.396 -0.405,-0.829 -0.461,-1.295 -0.06,-0.517 0,-1.037 0.137,-1.536 0.165,-0.608 0.452,-1.177 0.794,-1.697 0.335,-0.517 0.746,-1.015 1.252,-1.381 0.395,-0.291 0.842,-0.522 1.328,-0.628 0.447,-0.097 0.892,-0.097 1.334,0.005 0.467,0.11 0.911,0.304 1.312,0.567 0.292,0.195 0.584,0.398 0.855,0.626 0.137,0.108 0.264,0.229 0.374,0.356 l -1.559,2.368 -1.396,-0.868 -0.683,1.043 z m 120.136,-51.343 0.822,-3.085 -4.958,-1.381 -0.122,0.127 c -0.153,0.17 -0.287,0.363 -0.402,0.559 -0.125,0.23 -0.238,0.46 -0.345,0.693 -0.111,0.247 -0.206,0.504 -0.303,0.757 -0.089,0.258 -0.17,0.524 -0.24,0.784 -0.185,0.675 -0.264,1.366 -0.207,2.063 0.064,0.666 0.259,1.299 0.599,1.881 0.343,0.6 0.84,1.098 1.403,1.507 0.659,0.477 1.425,0.79 2.202,1.006 0.795,0.217 1.615,0.336 2.437,0.272 0.712,-0.052 1.406,-0.217 2.043,-0.547 0.598,-0.31 1.112,-0.728 1.531,-1.261 0.428,-0.549 0.724,-1.172 0.909,-1.842 0.138,-0.502 0.26,-1.038 0.294,-1.555 0.019,-0.347 0.04,-0.7 0.031,-1.047 l -0.012,-0.235 -0.23,-0.033 c -0.162,-0.029 -0.333,-0.045 -0.497,-0.045 -0.162,0 -0.33,0.013 -0.495,0.032 l -0.277,0.033 0.028,0.272 c 0.025,0.28 0.011,0.574 0.004,0.854 -0.016,0.425 -0.119,0.875 -0.229,1.287 -0.129,0.466 -0.341,0.903 -0.652,1.282 -0.296,0.361 -0.661,0.636 -1.088,0.833 -0.47,0.22 -0.987,0.318 -1.502,0.347 -0.629,0.033 -1.259,-0.065 -1.859,-0.229 -0.595,-0.164 -1.198,-0.404 -1.695,-0.761 -0.405,-0.292 -0.763,-0.642 -1.015,-1.068 -0.232,-0.396 -0.367,-0.822 -0.406,-1.276 -0.038,-0.48 0.009,-0.954 0.133,-1.42 0.093,-0.339 0.198,-0.684 0.324,-1.01 0.068,-0.16 0.146,-0.318 0.23,-0.467 l 2.734,0.752 -0.393,1.597 1.203,0.324 z m -152.318,5.432 c 0.162,0.034 0.324,0.069 0.482,0.09 0.163,0.029 0.331,0.038 0.496,0.026 l 0.222,-0.012 0.044,-0.214 c 0.087,-0.425 0.103,-0.872 0.082,-1.308 -0.031,-0.498 -0.116,-0.992 -0.243,-1.474 -0.176,-0.681 -0.457,-1.323 -0.871,-1.888 -0.391,-0.533 -0.871,-0.962 -1.455,-1.274 -0.606,-0.327 -1.274,-0.498 -1.959,-0.555 -0.796,-0.068 -1.602,0.043 -2.375,0.245 -0.782,0.204 -1.561,0.506 -2.246,0.956 -0.589,0.383 -1.112,0.857 -1.51,1.439 -0.374,0.559 -0.605,1.171 -0.701,1.837 -0.102,0.706 -0.037,1.418 0.139,2.109 0.137,0.506 0.303,1.029 0.539,1.495 0.134,0.272 0.283,0.563 0.447,0.824 l 0.122,0.194 0.217,-0.082 c 0.15,-0.059 0.308,-0.123 0.445,-0.209 0.138,-0.078 0.271,-0.172 0.398,-0.27 l 0.2,-0.156 -0.134,-0.22 c -0.066,-0.113 -0.138,-0.227 -0.205,-0.336 -0.078,-0.124 -0.142,-0.248 -0.197,-0.375 -0.077,-0.167 -0.145,-0.342 -0.204,-0.515 -0.087,-0.234 -0.156,-0.468 -0.216,-0.705 -0.123,-0.474 -0.166,-0.96 -0.083,-1.445 0.08,-0.455 0.26,-0.864 0.535,-1.231 0.304,-0.412 0.7,-0.746 1.137,-1.013 0.535,-0.325 1.133,-0.554 1.73,-0.713 0.607,-0.157 1.244,-0.253 1.864,-0.2 0.496,0.04 0.982,0.156 1.419,0.396 0.395,0.216 0.725,0.505 0.989,0.878 0.271,0.383 0.465,0.819 0.582,1.278 0.101,0.382 0.17,0.773 0.177,1.167 0.016,0.301 -0.004,0.624 -0.075,0.92 l -0.065,0.274 0.273,0.067 z m 29.019,-30.051 -6.729,-4.054 1.772,-7.628 c 0.013,-0.342 -0.419,-0.68 -0.73,-0.409 -5.965,5.157 0.049,-0.044 -5.914,5.111 -2.263,-1.349 -4.494,-2.813 -6.791,-4.102 -0.38,-0.157 -0.791,0.202 -0.63,0.579 l 3.139,7.258 c -2.038,1.774 -4.214,3.459 -6.194,5.311 -0.339,0.324 -0.047,0.781 0.355,0.749 2.978,-0.224 5.217,-0.582 8.056,-0.837 1.048,2.462 1.959,5.008 3.1,7.423 0.159,0.377 0.728,0.307 0.82,-0.057 0.616,-2.593 1.136,-5.273 1.735,-7.857 l 7.816,-0.697 c 0.413,-0.105 0.556,-0.566 0.195,-0.79"
           style="fill:#1a171b;fill-opacity:1;fill-rule:evenodd;stroke:none"
           id="path3446"
           inkscape:connector-curvature="0" /></g></g></g></svg>
