<?xml version="1.0" encoding="UTF-8" standalone="no"?>
<!-- Created with Inkscape (http://www.inkscape.org/) -->

<svg
   width="107.10332mm"
   height="40.470669mm"
   viewBox="0 0 107.10332 40.470669"
   version="1.1"
   id="svg1097"
   inkscape:version="1.2 (1:1.2+202206011326+fc4e4096c5)"
   sodipodi:docname="drawing.svg"
   xmlns:inkscape="http://www.inkscape.org/namespaces/inkscape"
   xmlns:sodipodi="http://sodipodi.sourceforge.net/DTD/sodipodi-0.dtd"
   xmlns="http://www.w3.org/2000/svg"
   xmlns:svg="http://www.w3.org/2000/svg">
  <sodipodi:namedview
     id="namedview1099"
     pagecolor="#ffffff"
     bordercolor="#666666"
     borderopacity="1.0"
     inkscape:showpageshadow="2"
     inkscape:pageopacity="0.0"
     inkscape:pagecheckerboard="0"
     inkscape:deskcolor="#d1d1d1"
     inkscape:document-units="mm"
     showgrid="false"
     inkscape:zoom="1.3651157"
     inkscape:cx="90.102252"
     inkscape:cy="36.260662"
     inkscape:window-width="1920"
     inkscape:window-height="1020"
     inkscape:window-x="0"
     inkscape:window-y="0"
     inkscape:window-maximized="1"
     inkscape:current-layer="layer1" />
  <defs
     id="defs1094">
    <clipPath
       clipPathUnits="userSpaceOnUse"
       id="clipPath447">
      <path
         d="M 1.43e-5,0 H 959.64001 V 540 H 1.43e-5 Z"
         clip-rule="evenodd"
         id="path445" />
    </clipPath>
    <clipPath
       clipPathUnits="userSpaceOnUse"
       id="clipPath461">
      <path
         d="M 1.43e-5,0 H 959.64001 V 540 H 1.43e-5 Z"
         clip-rule="evenodd"
         id="path459" />
    </clipPath>
    <clipPath
       clipPathUnits="userSpaceOnUse"
       id="clipPath475">
      <path
         d="M 1.43e-5,0 H 959.64001 V 540 H 1.43e-5 Z"
         clip-rule="evenodd"
         id="path473" />
    </clipPath>
    <clipPath
       clipPathUnits="userSpaceOnUse"
       id="clipPath489">
      <path
         d="M 1.43e-5,0 H 959.64001 V 540 H 1.43e-5 Z"
         clip-rule="evenodd"
         id="path487" />
    </clipPath>
    <clipPath
       clipPathUnits="userSpaceOnUse"
       id="clipPath501">
      <path
         d="M 1.43e-5,0 H 959.64001 V 540 H 1.43e-5 Z"
         clip-rule="evenodd"
         id="path499" />
    </clipPath>
    <clipPath
       clipPathUnits="userSpaceOnUse"
       id="clipPath513">
      <path
         d="M -1.434e-5,540 H 959.64 V 6.1035e-5 L -4.8831e-5,1.2207e-4"
         clip-rule="evenodd"
         id="path511" />
    </clipPath>
    <clipPath
       clipPathUnits="userSpaceOnUse"
       id="clipPath531">
      <path
         d="M -2.3469e-5,540 H 959.64 V 1.8311e-4 L -3.6727e-5,1.2207e-4"
         clip-rule="evenodd"
         id="path529" />
    </clipPath>
    <clipPath
       clipPathUnits="userSpaceOnUse"
       id="clipPath541">
      <path
         d="M -1.7259e-5,540 H 959.64 V 6.1035e-5 L -5.1749e-5,1.2207e-4"
         clip-rule="evenodd"
         id="path539" />
    </clipPath>
  </defs>
  <g
     inkscape:label="Layer 1"
     inkscape:groupmode="layer"
     id="layer1"
     transform="translate(-73.554267,-121.97229)">
    <path
       d="M 73.554267,133.95262 H 105.55827 V 121.97229 H 73.554267 Z"
       style="fill:#1269b0;fill-opacity:1;fill-rule:evenodd;stroke:none;stroke-width:0.352778"
       id="path439" />
    <g
       id="g441"
       transform="matrix(0.35277777,0,0,-0.35277777,21.018601,183.69429)">
      <g
         id="g443"
         clip-path="url(#clipPath447)">
        <text
           xml:space="preserve"
           transform="matrix(1,0,0,-1,172.82,151.18)"
           style="font-variant:normal;font-weight:normal;font-size:18px;font-family:Arial;-inkscape-font-specification:ArialMT;writing-mode:lr-tb;fill:#ffffff;fill-opacity:1;fill-rule:nonzero;stroke:none"
           id="text451"><tspan
             x="0 12.996 22.914 32.922001"
             y="0"
             sodipodi:role="line"
             id="tspan449">Node</tspan></text>
      </g>
    </g>
    <path
       d="M 73.554267,147.96496 H 105.55827 V 135.94229 H 73.554267 Z"
       style="fill:#1269b0;fill-opacity:1;fill-rule:evenodd;stroke:none;stroke-width:0.352778"
       id="path453" />
    <g
       id="g455"
       transform="matrix(0.35277777,0,0,-0.35277777,21.018601,183.69429)">
      <g
         id="g457"
         clip-path="url(#clipPath461)">
        <text
           xml:space="preserve"
           transform="matrix(1,0,0,-1,172.82,111.48)"
           style="font-variant:normal;font-weight:normal;font-size:18px;font-family:Arial;-inkscape-font-specification:ArialMT;writing-mode:lr-tb;fill:#ffffff;fill-opacity:1;fill-rule:nonzero;stroke:none"
           id="text465"><tspan
             x="0 12.996 22.914 32.922001"
             y="0"
             sodipodi:role="line"
             id="tspan463">Node</tspan></text>
      </g>
    </g>
    <path
       d="M 73.554267,162.44296 H 105.55827 V 150.46262 H 73.554267 Z"
       style="fill:#1269b0;fill-opacity:1;fill-rule:evenodd;stroke:none;stroke-width:0.352778"
       id="path467" />
    <g
       id="g469"
       transform="matrix(0.35277777,0,0,-0.35277777,21.018601,183.69429)">
      <g
         id="g471"
         clip-path="url(#clipPath475)">
        <text
           xml:space="preserve"
           transform="matrix(1,0,0,-1,172.82,70.392)"
           style="font-variant:normal;font-weight:normal;font-size:18px;font-family:Arial;-inkscape-font-specification:ArialMT;writing-mode:lr-tb;fill:#ffffff;fill-opacity:1;fill-rule:nonzero;stroke:none"
           id="text479"><tspan
             x="0 12.996 22.914 32.922001"
             y="0"
             sodipodi:role="line"
             id="tspan477">Node</tspan></text>
      </g>
    </g>
    <path
       d="m 151.55343,146.92779 h 28.74433 v -10.16 h -28.74433 z"
       style="fill:none;stroke:#1269b0;stroke-width:0.719667;stroke-linecap:round;stroke-linejoin:round;stroke-miterlimit:10;stroke-dasharray:none;stroke-opacity:1"
       id="path481" />
    <g
       id="g483"
       transform="matrix(0.35277777,0,0,-0.35277777,21.018601,183.69429)">
      <g
         id="g485"
         clip-path="url(#clipPath489)">
        <text
           xml:space="preserve"
           transform="matrix(1,0,0,-1,403.22,111.84)"
           style="font-variant:normal;font-weight:normal;font-size:18px;font-family:Arial;-inkscape-font-specification:ArialMT;writing-mode:lr-tb;fill:#000000;fill-opacity:1;fill-rule:nonzero;stroke:none"
           id="text493"><tspan
             x="0"
             y="0"
             id="tspan491">/</tspan></text>
      </g>
    </g>
    <g
       id="g495"
       transform="matrix(0.35277777,0,0,-0.35277777,21.018601,183.69429)">
      <g
         id="g497"
         clip-path="url(#clipPath501)">
        <text
           xml:space="preserve"
           transform="matrix(1,0,0,-1,408.26,111.84)"
           style="font-variant:normal;font-weight:normal;font-size:18px;font-family:Arial;-inkscape-font-specification:ArialMT;writing-mode:lr-tb;fill:#000000;fill-opacity:1;fill-rule:nonzero;stroke:none"
           id="text505"><tspan
             x="0 5.04"
             y="0"
             sodipodi:role="line"
             id="tspan503">tf</tspan></text>
      </g>
    </g>
    <g
       id="g507"
       transform="matrix(0.35277777,0,0,-0.35277777,21.018601,183.69429)">
      <g
         id="g509"
         clip-path="url(#clipPath513)">
        <path
           d="m 279,156.22 2.9,9.63 1.27,-0.39 -2.55,-8.49 4.74,-1.42 -0.34,-1.14 z m 9.87,6.05 0.41,1.36 1.18,-0.36 -0.41,-1.36 z m -2.49,-8.27 2.1,6.97 1.18,-0.35 -2.1,-6.97 z m 3.14,1.33 1.22,-0.17 c -0.08,-0.49 0,-0.9 0.22,-1.24 0.23,-0.34 0.61,-0.59 1.15,-0.75 0.54,-0.17 0.98,-0.18 1.31,-0.04 0.32,0.15 0.53,0.37 0.62,0.66 0.08,0.27 0.03,0.52 -0.15,0.74 -0.14,0.15 -0.5,0.41 -1.09,0.76 -0.8,0.48 -1.35,0.85 -1.63,1.11 -0.29,0.26 -0.48,0.56 -0.57,0.9 -0.08,0.33 -0.08,0.67 0.03,1.01 0.09,0.31 0.25,0.58 0.47,0.8 0.22,0.22 0.48,0.38 0.78,0.48 0.22,0.08 0.51,0.12 0.85,0.12 0.35,0 0.7,-0.06 1.07,-0.16 0.54,-0.17 1,-0.39 1.37,-0.67 0.36,-0.29 0.6,-0.59 0.72,-0.92 0.12,-0.33 0.14,-0.73 0.08,-1.2 l -1.2,0.19 c 0.06,0.37 -0.01,0.7 -0.2,0.98 -0.19,0.27 -0.52,0.48 -0.98,0.62 -0.54,0.16 -0.96,0.19 -1.24,0.08 -0.29,-0.11 -0.47,-0.29 -0.54,-0.53 -0.05,-0.15 -0.04,-0.3 0.02,-0.45 0.06,-0.16 0.18,-0.31 0.36,-0.46 0.1,-0.07 0.42,-0.28 0.95,-0.61 0.77,-0.48 1.3,-0.83 1.59,-1.08 0.28,-0.24 0.48,-0.52 0.59,-0.85 0.1,-0.33 0.1,-0.69 -0.02,-1.1 -0.12,-0.39 -0.35,-0.73 -0.68,-1.01 -0.34,-0.27 -0.75,-0.44 -1.24,-0.5 -0.49,-0.06 -1.01,-0.01 -1.56,0.15 -0.9,0.28 -1.54,0.67 -1.9,1.19 -0.36,0.52 -0.5,1.17 -0.4,1.95 z m 9.52,-3.98 -0.14,-1.1 c -0.36,0.03 -0.67,0.09 -0.93,0.16 -0.43,0.13 -0.74,0.3 -0.93,0.51 -0.2,0.21 -0.31,0.43 -0.34,0.68 -0.03,0.25 0.06,0.73 0.27,1.44 l 1.21,4.01 -0.87,0.26 0.28,0.92 0.87,-0.26 0.52,1.73 1.38,0.35 -0.73,-2.43 1.19,-0.36 -0.28,-0.92 -1.19,0.36 -1.22,-4.08 c -0.1,-0.33 -0.15,-0.56 -0.14,-0.67 0.02,-0.1 0.06,-0.2 0.14,-0.29 0.08,-0.08 0.2,-0.15 0.38,-0.2 0.13,-0.04 0.31,-0.08 0.53,-0.11 z m 6.34,-0.62 1.18,-0.51 c -0.41,-0.66 -0.93,-1.11 -1.57,-1.34 -0.64,-0.24 -1.37,-0.24 -2.18,0.01 -1.02,0.3 -1.73,0.86 -2.14,1.67 -0.41,0.81 -0.44,1.78 -0.1,2.91 0.35,1.17 0.93,1.99 1.73,2.46 0.8,0.46 1.68,0.55 2.64,0.26 0.93,-0.28 1.6,-0.82 2,-1.64 0.4,-0.81 0.43,-1.79 0.08,-2.94 -0.02,-0.07 -0.06,-0.18 -0.1,-0.31 l -5.2,1.56 c -0.19,-0.78 -0.15,-1.43 0.12,-1.96 0.27,-0.52 0.69,-0.87 1.27,-1.04 0.44,-0.13 0.84,-0.13 1.22,0 0.37,0.14 0.72,0.43 1.05,0.87 z m -3.3,3.08 3.89,-1.17 c 0.12,0.6 0.11,1.09 -0.05,1.45 -0.24,0.57 -0.66,0.95 -1.26,1.13 -0.54,0.16 -1.05,0.12 -1.53,-0.14 -0.48,-0.25 -0.83,-0.67 -1.05,-1.27 z m 5.32,-6.13 2.1,6.97 1.06,-0.32 -0.29,-0.99 c 0.74,0.61 1.59,0.77 2.56,0.48 0.42,-0.13 0.78,-0.32 1.09,-0.58 0.31,-0.25 0.51,-0.53 0.61,-0.83 0.1,-0.3 0.14,-0.62 0.11,-0.98 -0.02,-0.23 -0.12,-0.62 -0.28,-1.17 l -1.29,-4.29 -1.18,0.36 1.27,4.24 c 0.15,0.48 0.21,0.85 0.19,1.12 -0.02,0.27 -0.13,0.51 -0.32,0.72 -0.19,0.21 -0.44,0.37 -0.76,0.46 -0.5,0.15 -0.98,0.12 -1.44,-0.09 -0.47,-0.21 -0.83,-0.76 -1.1,-1.65 l -1.15,-3.81 z m 9.97,6.01 0.4,1.36 1.19,-0.35 -0.41,-1.36 z m -2.49,-8.26 2.1,6.97 1.18,-0.36 -2.1,-6.97 z m 2.98,-0.9 2.1,6.97 1.06,-0.32 -0.3,-0.99 c 0.75,0.61 1.6,0.77 2.57,0.48 0.42,-0.12 0.78,-0.32 1.09,-0.57 0.3,-0.26 0.51,-0.54 0.61,-0.83 0.1,-0.3 0.14,-0.63 0.1,-0.99 -0.02,-0.23 -0.11,-0.62 -0.28,-1.17 l -1.28,-4.28 -1.19,0.35 1.28,4.24 c 0.14,0.48 0.21,0.86 0.19,1.12 -0.02,0.27 -0.13,0.51 -0.32,0.72 -0.19,0.22 -0.45,0.37 -0.76,0.46 -0.5,0.16 -0.99,0.13 -1.45,-0.08 -0.46,-0.21 -0.82,-0.76 -1.09,-1.66 l -1.15,-3.8 z m 7.08,-2.76 1.1,-0.51 c -0.06,-0.37 -0.01,-0.67 0.16,-0.9 0.23,-0.31 0.6,-0.54 1.11,-0.69 0.54,-0.16 1,-0.18 1.36,-0.05 0.37,0.13 0.66,0.37 0.88,0.73 0.14,0.23 0.32,0.72 0.54,1.5 -0.7,-0.46 -1.43,-0.57 -2.2,-0.34 -0.96,0.29 -1.6,0.86 -1.91,1.71 -0.32,0.85 -0.33,1.76 -0.04,2.73 0.2,0.66 0.5,1.24 0.91,1.73 0.41,0.49 0.89,0.82 1.44,0.99 0.55,0.17 1.13,0.16 1.75,-0.03 0.82,-0.25 1.4,-0.78 1.74,-1.61 l 0.25,0.84 1.09,-0.33 -1.81,-6.02 c -0.33,-1.09 -0.67,-1.82 -1.03,-2.21 -0.36,-0.39 -0.82,-0.64 -1.37,-0.76 -0.56,-0.12 -1.19,-0.07 -1.89,0.14 -0.83,0.25 -1.45,0.64 -1.85,1.17 -0.4,0.53 -0.48,1.16 -0.23,1.91 z m 2.24,3.9 c -0.28,-0.92 -0.3,-1.64 -0.06,-2.17 0.24,-0.53 0.63,-0.88 1.18,-1.04 0.54,-0.17 1.06,-0.09 1.55,0.21 0.49,0.31 0.87,0.91 1.14,1.8 0.26,0.86 0.26,1.56 0.02,2.11 -0.25,0.54 -0.64,0.9 -1.18,1.06 -0.52,0.16 -1.03,0.08 -1.53,-0.24 -0.5,-0.32 -0.87,-0.89 -1.12,-1.73 z"
           style="fill:#000000;fill-opacity:1;fill-rule:nonzero;stroke:none"
           id="path515" />
      </g>
    </g>
    <path
       d="m 151.7404,139.78757 -44.41825,0.127 v 0.35278 l 44.41825,-0.127 z m -44.069,-0.75847 -2.11313,1.06539 2.12019,1.05127 z"
       style="fill:#000000;fill-opacity:1;fill-rule:nonzero;stroke:none;stroke-width:0.352778"
       id="path517" />
    <path
       d="m 150.35046,144.02443 -44.41825,0.127 v 0.35278 l 44.41825,-0.127 z m -0.34925,1.23825 2.11314,-1.06539 -2.1202,-1.05128 z"
       style="fill:#000000;fill-opacity:1;fill-rule:nonzero;stroke:none;stroke-width:0.352778"
       id="path519" />
    <path
       d="m 151.68396,140.04157 -44.48881,-13.41261 0.10231,-0.33867 44.48528,13.41261 z m -44.40414,-12.46717 -1.72155,-1.62278 2.33186,-0.40216 z"
       style="fill:#000000;fill-opacity:1;fill-rule:nonzero;stroke:none;stroke-width:0.352778"
       id="path521" />
    <path
       d="m 149.82835,140.33085 -44.49233,14.1418 0.10583,0.3362 44.49586,-14.14286 z m 0.0388,1.28411 1.69686,-1.651 -2.33891,-0.36689 z"
       style="fill:#000000;fill-opacity:1;fill-rule:nonzero;stroke:none;stroke-width:0.352778"
       id="path523" />
    <g
       id="g525"
       transform="matrix(0.35277777,0,0,-0.35277777,21.018601,183.69429)">
      <g
         id="g527"
         clip-path="url(#clipPath531)">
        <path
           d="m 258.74,149.39 92.73,-27.9 -6.98,-23.208 -92.73,27.898 z"
           style="fill:#ffffff;fill-opacity:1;fill-rule:evenodd;stroke:none"
           id="path533" />
      </g>
    </g>
    <g
       id="g535"
       transform="matrix(0.35277777,0,0,-0.35277777,21.018601,183.69429)">
      <g
         id="g537"
         clip-path="url(#clipPath541)">
        <path
           d="m 261.94,130.51 2.9,9.62 3.61,-1.09 c 0.73,-0.22 1.29,-0.49 1.68,-0.82 0.38,-0.33 0.64,-0.73 0.77,-1.21 0.13,-0.48 0.13,-0.95 0,-1.39 -0.13,-0.41 -0.36,-0.76 -0.69,-1.06 -0.33,-0.3 -0.76,-0.49 -1.27,-0.57 0.53,-0.35 0.89,-0.78 1.08,-1.28 0.19,-0.51 0.2,-1.04 0.03,-1.6 -0.14,-0.45 -0.36,-0.84 -0.67,-1.17 -0.3,-0.33 -0.63,-0.56 -0.97,-0.69 -0.35,-0.12 -0.74,-0.17 -1.2,-0.15 -0.45,0.02 -0.99,0.12 -1.6,0.3 z m 2.95,5.19 2.08,-0.62 c 0.57,-0.17 0.98,-0.26 1.25,-0.26 0.35,0 0.65,0.09 0.88,0.26 0.23,0.18 0.4,0.43 0.5,0.77 0.09,0.32 0.1,0.62 0.02,0.91 -0.08,0.29 -0.25,0.52 -0.51,0.7 -0.25,0.17 -0.73,0.36 -1.42,0.57 l -1.92,0.58 z m -1.33,-4.44 2.39,-0.72 c 0.41,-0.13 0.71,-0.2 0.88,-0.22 0.31,-0.03 0.58,-0.02 0.82,0.04 0.23,0.07 0.45,0.2 0.64,0.39 0.2,0.2 0.35,0.45 0.44,0.76 0.11,0.36 0.11,0.7 0,1.02 -0.1,0.32 -0.3,0.58 -0.59,0.78 -0.3,0.21 -0.75,0.4 -1.36,0.59 l -2.23,0.67 z m 7.23,-3.42 2.1,6.97 1.06,-0.32 -0.31,-1.05 c 0.42,0.41 0.76,0.66 1.04,0.75 0.28,0.09 0.55,0.09 0.83,0.01 0.4,-0.12 0.77,-0.37 1.1,-0.75 l -0.74,-0.97 c -0.23,0.26 -0.5,0.43 -0.79,0.51 -0.25,0.08 -0.51,0.07 -0.76,-0.02 -0.25,-0.09 -0.47,-0.26 -0.64,-0.51 -0.25,-0.38 -0.46,-0.82 -0.61,-1.32 l -1.1,-3.65 z m 5.11,2.27 c 0.38,1.29 1.03,2.14 1.94,2.54 0.75,0.34 1.56,0.38 2.42,0.12 0.96,-0.29 1.65,-0.84 2.07,-1.65 0.42,-0.81 0.46,-1.77 0.13,-2.88 -0.27,-0.9 -0.62,-1.56 -1.04,-1.99 -0.43,-0.44 -0.94,-0.72 -1.54,-0.85 -0.6,-0.13 -1.2,-0.1 -1.81,0.08 -0.98,0.3 -1.67,0.85 -2.09,1.65 -0.41,0.81 -0.44,1.8 -0.08,2.98 z m 1.21,-0.37 c -0.27,-0.89 -0.27,-1.62 -0.02,-2.18 0.26,-0.56 0.68,-0.93 1.27,-1.11 0.59,-0.17 1.14,-0.1 1.67,0.23 0.52,0.33 0.92,0.95 1.2,1.87 0.25,0.86 0.26,1.57 0,2.13 -0.26,0.57 -0.68,0.94 -1.26,1.11 -0.59,0.18 -1.15,0.1 -1.67,-0.22 -0.53,-0.32 -0.92,-0.93 -1.19,-1.83 z m 10.45,-6.01 c -0.55,-0.24 -1.05,-0.37 -1.5,-0.4 -0.45,-0.03 -0.9,0.02 -1.37,0.16 -0.76,0.23 -1.3,0.59 -1.6,1.09 -0.29,0.5 -0.36,1.04 -0.18,1.62 0.1,0.34 0.27,0.63 0.51,0.87 0.24,0.23 0.52,0.4 0.82,0.49 0.3,0.1 0.62,0.14 0.96,0.13 0.26,0 0.62,-0.05 1.11,-0.13 0.99,-0.18 1.73,-0.25 2.23,-0.23 0.05,0.16 0.08,0.26 0.1,0.31 0.14,0.48 0.13,0.85 -0.03,1.11 -0.22,0.36 -0.63,0.63 -1.23,0.81 -0.55,0.17 -0.99,0.19 -1.32,0.08 -0.32,-0.12 -0.62,-0.4 -0.89,-0.86 l -1.11,0.51 c 0.25,0.46 0.55,0.81 0.88,1.04 0.33,0.23 0.75,0.36 1.25,0.39 0.51,0.02 1.06,-0.05 1.66,-0.23 0.59,-0.18 1.06,-0.4 1.39,-0.65 0.33,-0.25 0.55,-0.51 0.66,-0.78 0.11,-0.26 0.15,-0.57 0.12,-0.91 -0.02,-0.21 -0.11,-0.58 -0.27,-1.11 l -0.47,-1.57 c -0.33,-1.1 -0.51,-1.8 -0.55,-2.11 -0.04,-0.31 -0.02,-0.62 0.05,-0.93 l -1.24,0.37 c -0.05,0.29 -0.04,0.6 0.02,0.93 z m 0.7,2.67 c -0.48,-0.04 -1.17,0 -2.06,0.14 -0.51,0.07 -0.88,0.1 -1.11,0.07 -0.22,-0.03 -0.42,-0.11 -0.58,-0.24 -0.16,-0.14 -0.27,-0.31 -0.33,-0.51 -0.1,-0.32 -0.06,-0.62 0.12,-0.9 0.18,-0.28 0.49,-0.49 0.95,-0.63 0.46,-0.14 0.89,-0.16 1.31,-0.07 0.41,0.1 0.75,0.29 1.02,0.59 0.21,0.22 0.39,0.6 0.55,1.12 z m 6.49,-5.76 0.26,0.88 c -0.65,-0.56 -1.4,-0.71 -2.26,-0.46 -0.55,0.17 -1.02,0.48 -1.39,0.93 -0.38,0.44 -0.61,0.98 -0.7,1.6 -0.09,0.63 -0.03,1.3 0.19,2.01 0.2,0.7 0.51,1.3 0.91,1.79 0.41,0.5 0.88,0.83 1.44,0.99 0.55,0.16 1.12,0.16 1.69,-0.01 0.42,-0.13 0.77,-0.33 1.04,-0.61 0.28,-0.27 0.48,-0.58 0.6,-0.93 l 1.04,3.45 1.17,-0.35 -2.9,-9.62 z m -2.69,4.6 c -0.27,-0.89 -0.28,-1.62 -0.04,-2.17 0.25,-0.56 0.62,-0.91 1.14,-1.07 0.51,-0.15 1.01,-0.07 1.5,0.24 0.49,0.31 0.86,0.9 1.13,1.77 0.28,0.95 0.31,1.71 0.08,2.27 -0.24,0.55 -0.62,0.91 -1.16,1.08 -0.53,0.15 -1.03,0.07 -1.51,-0.25 -0.48,-0.32 -0.86,-0.95 -1.14,-1.87 z m 10.95,-4.31 1.12,-0.5 c -0.37,-0.76 -0.88,-1.29 -1.54,-1.58 -0.66,-0.3 -1.37,-0.33 -2.13,-0.1 -0.96,0.28 -1.63,0.83 -2.02,1.62 -0.39,0.8 -0.42,1.78 -0.07,2.95 0.23,0.75 0.55,1.37 0.97,1.86 0.42,0.49 0.93,0.8 1.52,0.93 0.6,0.13 1.2,0.1 1.8,-0.08 0.75,-0.23 1.31,-0.6 1.68,-1.13 0.37,-0.53 0.51,-1.17 0.44,-1.91 l -1.21,0.17 c 0.04,0.5 -0.05,0.91 -0.26,1.23 -0.21,0.32 -0.51,0.54 -0.9,0.66 -0.6,0.17 -1.14,0.11 -1.64,-0.21 -0.5,-0.31 -0.89,-0.93 -1.17,-1.86 -0.28,-0.93 -0.31,-1.67 -0.08,-2.2 0.23,-0.53 0.64,-0.88 1.22,-1.06 0.46,-0.14 0.89,-0.11 1.29,0.08 0.39,0.19 0.72,0.57 0.98,1.13 z m 6.27,-3.73 c -0.55,-0.24 -1.05,-0.38 -1.5,-0.41 -0.45,-0.03 -0.91,0.03 -1.37,0.17 -0.77,0.23 -1.3,0.59 -1.6,1.09 -0.3,0.5 -0.36,1.04 -0.18,1.62 0.1,0.34 0.27,0.63 0.51,0.86 0.24,0.24 0.51,0.4 0.82,0.5 0.3,0.09 0.62,0.14 0.96,0.13 0.25,-0.01 0.62,-0.05 1.11,-0.14 0.99,-0.17 1.73,-0.25 2.23,-0.23 0.05,0.17 0.08,0.27 0.1,0.31 0.14,0.48 0.13,0.86 -0.03,1.12 -0.22,0.36 -0.63,0.63 -1.23,0.81 -0.55,0.16 -0.99,0.19 -1.32,0.07 -0.32,-0.11 -0.62,-0.4 -0.9,-0.85 l -1.1,0.5 c 0.25,0.46 0.54,0.81 0.88,1.04 0.33,0.23 0.75,0.36 1.25,0.39 0.51,0.03 1.06,-0.05 1.66,-0.23 0.59,-0.18 1.05,-0.39 1.38,-0.64 0.33,-0.26 0.56,-0.52 0.67,-0.78 0.11,-0.27 0.15,-0.57 0.12,-0.91 -0.02,-0.22 -0.11,-0.59 -0.27,-1.11 L 311,118.93 c -0.33,-1.1 -0.52,-1.8 -0.55,-2.1 -0.04,-0.31 -0.02,-0.62 0.04,-0.93 l -1.23,0.37 c -0.05,0.28 -0.04,0.59 0.02,0.93 z m 0.7,2.67 c -0.48,-0.05 -1.17,0 -2.07,0.13 -0.5,0.08 -0.87,0.1 -1.1,0.08 -0.23,-0.03 -0.42,-0.11 -0.58,-0.25 -0.16,-0.13 -0.27,-0.3 -0.33,-0.51 -0.1,-0.31 -0.06,-0.61 0.12,-0.89 0.17,-0.29 0.49,-0.5 0.95,-0.63 0.46,-0.14 0.89,-0.16 1.3,-0.07 0.42,0.09 0.76,0.29 1.03,0.58 0.21,0.23 0.39,0.61 0.55,1.13 z m 2.12,-2.18 1.22,-0.17 c -0.07,-0.49 0,-0.9 0.23,-1.24 0.22,-0.34 0.6,-0.59 1.14,-0.76 0.54,-0.16 0.98,-0.17 1.31,-0.03 0.33,0.14 0.54,0.36 0.63,0.66 0.08,0.27 0.02,0.51 -0.16,0.74 -0.13,0.15 -0.5,0.4 -1.09,0.76 -0.8,0.48 -1.34,0.85 -1.63,1.11 -0.29,0.26 -0.48,0.56 -0.56,0.89 -0.09,0.34 -0.08,0.67 0.02,1.02 0.09,0.31 0.25,0.57 0.47,0.79 0.22,0.23 0.48,0.39 0.78,0.49 0.23,0.08 0.51,0.12 0.86,0.12 0.34,0 0.7,-0.06 1.06,-0.17 0.55,-0.16 1,-0.39 1.37,-0.67 0.37,-0.28 0.61,-0.58 0.72,-0.91 0.12,-0.33 0.15,-0.73 0.08,-1.21 l -1.2,0.19 c 0.06,0.38 -0.01,0.7 -0.2,0.98 -0.19,0.28 -0.52,0.49 -0.98,0.62 -0.54,0.17 -0.95,0.19 -1.24,0.09 -0.29,-0.11 -0.47,-0.29 -0.54,-0.53 -0.04,-0.15 -0.04,-0.31 0.02,-0.46 0.06,-0.15 0.18,-0.3 0.36,-0.45 0.11,-0.08 0.42,-0.28 0.95,-0.61 0.77,-0.48 1.3,-0.84 1.59,-1.08 0.29,-0.24 0.48,-0.53 0.59,-0.85 0.11,-0.33 0.1,-0.7 -0.02,-1.1 -0.12,-0.39 -0.35,-0.73 -0.68,-1.01 -0.34,-0.28 -0.75,-0.45 -1.24,-0.51 -0.49,-0.06 -1.01,0 -1.56,0.16 -0.9,0.27 -1.54,0.67 -1.9,1.19 -0.36,0.52 -0.49,1.17 -0.4,1.95 z m 9.52,-3.99 -0.14,-1.09 c -0.36,0.03 -0.66,0.08 -0.93,0.16 -0.43,0.13 -0.74,0.3 -0.93,0.51 -0.2,0.2 -0.31,0.43 -0.34,0.68 -0.03,0.25 0.06,0.73 0.27,1.44 l 1.21,4.01 -0.87,0.26 0.28,0.92 0.87,-0.26 0.52,1.73 1.39,0.35 -0.74,-2.43 1.19,-0.36 -0.28,-0.92 -1.18,0.36 -1.23,-4.08 c -0.1,-0.34 -0.15,-0.56 -0.13,-0.67 0.01,-0.11 0.05,-0.2 0.13,-0.29 0.08,-0.09 0.2,-0.15 0.38,-0.21 0.13,-0.04 0.31,-0.07 0.53,-0.11 z m 3.27,6.88 0.41,1.36 1.18,-0.36 -0.4,-1.36 z m -2.48,-8.27 2.09,6.98 1.19,-0.36 -2.1,-6.97 z m 2.98,-0.89 2.1,6.97 1.06,-0.32 -0.3,-0.99 c 0.74,0.61 1.6,0.77 2.57,0.48 0.42,-0.13 0.78,-0.32 1.09,-0.58 0.3,-0.25 0.51,-0.53 0.61,-0.83 0.1,-0.3 0.13,-0.62 0.1,-0.98 -0.02,-0.23 -0.11,-0.62 -0.28,-1.17 l -1.29,-4.29 -1.18,0.36 1.28,4.24 c 0.14,0.48 0.21,0.85 0.19,1.12 -0.03,0.27 -0.13,0.51 -0.32,0.72 -0.19,0.21 -0.45,0.37 -0.76,0.46 -0.51,0.15 -0.99,0.12 -1.45,-0.09 -0.46,-0.21 -0.83,-0.76 -1.09,-1.65 l -1.15,-3.81 z m 7.08,-2.76 1.09,-0.52 c -0.05,-0.37 0,-0.67 0.17,-0.89 0.23,-0.31 0.6,-0.54 1.1,-0.69 0.55,-0.17 1.01,-0.19 1.37,-0.06 0.36,0.13 0.66,0.38 0.88,0.74 0.13,0.22 0.32,0.72 0.54,1.49 -0.7,-0.45 -1.43,-0.56 -2.2,-0.33 -0.96,0.29 -1.6,0.86 -1.92,1.71 -0.31,0.85 -0.33,1.75 -0.03,2.72 0.2,0.67 0.5,1.24 0.91,1.73 0.41,0.49 0.89,0.82 1.44,0.99 0.55,0.17 1.13,0.16 1.75,-0.02 0.82,-0.25 1.4,-0.79 1.73,-1.61 l 0.26,0.84 1.09,-0.33 -1.82,-6.03 c -0.32,-1.08 -0.66,-1.82 -1.02,-2.2 -0.36,-0.39 -0.82,-0.64 -1.38,-0.76 -0.55,-0.12 -1.18,-0.07 -1.88,0.14 -0.83,0.25 -1.45,0.64 -1.85,1.16 -0.4,0.53 -0.48,1.17 -0.23,1.92 z m 2.24,3.89 c -0.28,-0.91 -0.3,-1.64 -0.06,-2.16 0.23,-0.53 0.63,-0.88 1.17,-1.05 0.55,-0.16 1.06,-0.09 1.56,0.22 0.49,0.31 0.87,0.91 1.14,1.8 0.26,0.85 0.26,1.55 0.01,2.1 -0.24,0.55 -0.64,0.9 -1.17,1.06 -0.52,0.16 -1.04,0.08 -1.53,-0.23 -0.5,-0.32 -0.87,-0.9 -1.12,-1.74 z"
           style="fill:#000000;fill-opacity:1;fill-rule:nonzero;stroke:none"
           id="path543" />
      </g>
    </g>
    <path
       d="m 149.82482,143.71399 -44.48528,-13.41262 0.10231,-0.33513 44.48528,13.41261 z m 0.0176,-1.28412 1.72155,1.62631 -2.33186,0.40217 z"
       style="fill:#000000;fill-opacity:1;fill-rule:nonzero;stroke:none;stroke-width:0.352778"
       id="path545" />
    <path
       d="m 151.08776,144.05971 -44.49586,14.14321 0.10937,0.3362 44.49233,-14.14427 z m -44.4253,13.19565 -1.69686,1.64994 2.33892,0.36724 z"
       style="fill:#000000;fill-opacity:1;fill-rule:nonzero;stroke:none;stroke-width:0.352778"
       id="path547" />
  </g>
</svg>
