<?xml version="1.0" encoding="UTF-8" standalone="no"?>
<!-- Created with Inkscape (http://www.inkscape.org/) -->

<svg
   width="10.143343mm"
   height="24.527039mm"
   viewBox="0 0 10.143343 24.527039"
   version="1.1"
   id="svg1"
   inkscape:version="1.4.2 (1:1.4.2+202505120737+ebf0e940d0)"
   sodipodi:docname="barberpole_optical_flow.svg"
   xmlns:inkscape="http://www.inkscape.org/namespaces/inkscape"
   xmlns:sodipodi="http://sodipodi.sourceforge.net/DTD/sodipodi-0.dtd"
   xmlns="http://www.w3.org/2000/svg"
   xmlns:svg="http://www.w3.org/2000/svg">
  <sodipodi:namedview
     id="namedview1"
     pagecolor="#ffffff"
     bordercolor="#666666"
     borderopacity="1.0"
     inkscape:showpageshadow="2"
     inkscape:pageopacity="0.0"
     inkscape:pagecheckerboard="0"
     inkscape:deskcolor="#d1d1d1"
     inkscape:document-units="mm"
     inkscape:zoom="3.3903174"
     inkscape:cx="-7.6688985"
     inkscape:cy="35.542395"
     inkscape:window-width="1920"
     inkscape:window-height="986"
     inkscape:window-x="0"
     inkscape:window-y="32"
     inkscape:window-maximized="1"
     inkscape:current-layer="layer2" />
  <defs
     id="defs1">
    <clipPath
       clipPathUnits="userSpaceOnUse"
       id="clipPath1194">
      <path
         d="M 310.1803,525.1188 H 554.4511 V 708.4827 H 310.1803 Z"
         id="path1194" />
    </clipPath>
    <clipPath
       clipPathUnits="userSpaceOnUse"
       id="clipPath1196">
      <path
         d="M 310.1803,525.1188 H 554.4511 V 708.4827 H 310.1803 Z"
         id="path1196" />
    </clipPath>
    <clipPath
       clipPathUnits="userSpaceOnUse"
       id="clipPath1198">
      <path
         d="M 310.1803,525.1188 H 554.4511 V 708.4827 H 310.1803 Z"
         transform="matrix(37433.864,0,0,-37401.046,-18520046,24124250)"
         id="path1198" />
    </clipPath>
    <clipPath
       clipPathUnits="userSpaceOnUse"
       id="clipPath1200">
      <path
         d="M 310.1803,525.1188 H 554.4511 V 708.4827 H 310.1803 Z"
         id="path1200" />
    </clipPath>
    <clipPath
       clipPathUnits="userSpaceOnUse"
       id="clipPath1202">
      <path
         d="M 310.1803,525.1188 H 554.4511 V 708.4827 H 310.1803 Z"
         id="path1202" />
    </clipPath>
    <clipPath
       clipPathUnits="userSpaceOnUse"
       id="clipPath1204">
      <path
         d="M 310.1803,525.1188 H 554.4511 V 708.4827 H 310.1803 Z"
         id="path1204" />
    </clipPath>
    <clipPath
       clipPathUnits="userSpaceOnUse"
       id="clipPath1206">
      <path
         d="M 310.1803,525.1188 H 554.4511 V 708.4827 H 310.1803 Z"
         id="path1206" />
    </clipPath>
    <clipPath
       clipPathUnits="userSpaceOnUse"
       id="clipPath1208">
      <path
         d="M 310.1803,525.1188 H 554.4511 V 708.4827 H 310.1803 Z"
         id="path1208" />
    </clipPath>
    <clipPath
       clipPathUnits="userSpaceOnUse"
       id="clipPath1210">
      <path
         d="M 310.1803,525.1188 H 554.4511 V 708.4827 H 310.1803 Z"
         id="path1210" />
    </clipPath>
    <clipPath
       clipPathUnits="userSpaceOnUse"
       id="clipPath1212">
      <path
         d="M 310.1803,525.1188 H 554.4511 V 708.4827 H 310.1803 Z"
         id="path1212" />
    </clipPath>
    <clipPath
       clipPathUnits="userSpaceOnUse"
       id="clipPath1214">
      <path
         d="M 310.1803,525.1188 H 554.4511 V 708.4827 H 310.1803 Z"
         id="path1214" />
    </clipPath>
    <clipPath
       clipPathUnits="userSpaceOnUse"
       id="clipPath1216">
      <path
         d="M 310.1803,525.1188 H 554.4511 V 708.4827 H 310.1803 Z"
         id="path1216" />
    </clipPath>
    <clipPath
       clipPathUnits="userSpaceOnUse"
       id="clipPath1218">
      <path
         d="M 310.1803,525.1188 H 554.4511 V 708.4827 H 310.1803 Z"
         id="path1218" />
    </clipPath>
    <clipPath
       clipPathUnits="userSpaceOnUse"
       id="clipPath1220">
      <path
         d="M 310.1803,525.1188 H 554.4511 V 708.4827 H 310.1803 Z"
         id="path1220" />
    </clipPath>
    <clipPath
       clipPathUnits="userSpaceOnUse"
       id="clipPath1222">
      <path
         d="M 310.1803,525.1188 H 554.4511 V 708.4827 H 310.1803 Z"
         id="path1222" />
    </clipPath>
    <clipPath
       clipPathUnits="userSpaceOnUse"
       id="clipPath1224">
      <path
         d="M 310.1803,525.1188 H 554.4511 V 708.4827 H 310.1803 Z"
         id="path1224" />
    </clipPath>
    <clipPath
       clipPathUnits="userSpaceOnUse"
       id="clipPath1226">
      <path
         d="M 310.1803,525.1188 H 554.4511 V 708.4827 H 310.1803 Z"
         id="path1226" />
    </clipPath>
    <clipPath
       clipPathUnits="userSpaceOnUse"
       id="clipPath1228">
      <path
         d="M 310.1803,525.1188 H 554.4511 V 708.4827 H 310.1803 Z"
         id="path1228" />
    </clipPath>
    <clipPath
       clipPathUnits="userSpaceOnUse"
       id="clipPath1230">
      <path
         d="M 310.1803,525.1188 H 554.4511 V 708.4827 H 310.1803 Z"
         id="path1230" />
    </clipPath>
    <clipPath
       clipPathUnits="userSpaceOnUse"
       id="clipPath1232">
      <path
         d="M 310.1803,525.1188 H 554.4511 V 708.4827 H 310.1803 Z"
         id="path1232" />
    </clipPath>
    <clipPath
       clipPathUnits="userSpaceOnUse"
       id="clipPath1234">
      <path
         d="M 310.1803,525.1188 H 554.4511 V 708.4827 H 310.1803 Z"
         id="path1234" />
    </clipPath>
    <clipPath
       clipPathUnits="userSpaceOnUse"
       id="clipPath1236">
      <path
         d="M 310.1803,525.1188 H 554.4511 V 708.4827 H 310.1803 Z"
         id="path1236" />
    </clipPath>
    <clipPath
       clipPathUnits="userSpaceOnUse"
       id="clipPath1238">
      <path
         d="M 310.1803,525.1188 H 554.4511 V 708.4827 H 310.1803 Z"
         id="path1238" />
    </clipPath>
    <clipPath
       clipPathUnits="userSpaceOnUse"
       id="clipPath1240">
      <path
         d="M 310.1803,525.1188 H 554.4511 V 708.4827 H 310.1803 Z"
         id="path1240" />
    </clipPath>
    <clipPath
       clipPathUnits="userSpaceOnUse"
       id="clipPath1242">
      <path
         d="M 310.1803,525.1188 H 554.4511 V 708.4827 H 310.1803 Z"
         id="path1242" />
    </clipPath>
    <clipPath
       clipPathUnits="userSpaceOnUse"
       id="clipPath1244">
      <path
         d="M 310.1803,525.1188 H 554.4511 V 708.4827 H 310.1803 Z"
         id="path1244" />
    </clipPath>
    <clipPath
       clipPathUnits="userSpaceOnUse"
       id="clipPath1246">
      <path
         d="M 310.1803,525.1188 H 554.4511 V 708.4827 H 310.1803 Z"
         id="path1246" />
    </clipPath>
    <clipPath
       clipPathUnits="userSpaceOnUse"
       id="clipPath1248">
      <path
         d="M 310.1803,525.1188 H 554.4511 V 708.4827 H 310.1803 Z"
         id="path1248" />
    </clipPath>
    <clipPath
       clipPathUnits="userSpaceOnUse"
       id="clipPath1250">
      <path
         d="M 310.1803,525.1188 H 554.4511 V 708.4827 H 310.1803 Z"
         id="path1250" />
    </clipPath>
    <clipPath
       clipPathUnits="userSpaceOnUse"
       id="clipPath1252">
      <path
         d="M 310.1803,525.1188 H 554.4511 V 708.4827 H 310.1803 Z"
         id="path1252" />
    </clipPath>
    <clipPath
       clipPathUnits="userSpaceOnUse"
       id="clipPath1254">
      <path
         d="M 310.1803,525.1188 H 554.4511 V 708.4827 H 310.1803 Z"
         id="path1254" />
    </clipPath>
    <clipPath
       clipPathUnits="userSpaceOnUse"
       id="clipPath1256">
      <path
         d="M 310.1803,525.1188 H 554.4511 V 708.4827 H 310.1803 Z"
         id="path1256" />
    </clipPath>
    <clipPath
       clipPathUnits="userSpaceOnUse"
       id="clipPath1258">
      <path
         d="M 310.1803,525.1188 H 554.4511 V 708.4827 H 310.1803 Z"
         id="path1258" />
    </clipPath>
    <clipPath
       clipPathUnits="userSpaceOnUse"
       id="clipPath1260">
      <path
         d="M 310.1803,525.1188 H 554.4511 V 708.4827 H 310.1803 Z"
         id="path1260" />
    </clipPath>
    <clipPath
       clipPathUnits="userSpaceOnUse"
       id="clipPath1262">
      <path
         d="M 310.1803,525.1188 H 554.4511 V 708.4827 H 310.1803 Z"
         id="path1262" />
    </clipPath>
    <clipPath
       clipPathUnits="userSpaceOnUse"
       id="clipPath1264">
      <path
         d="M 310.1803,525.1188 H 554.4511 V 708.4827 H 310.1803 Z"
         id="path1264" />
    </clipPath>
    <clipPath
       clipPathUnits="userSpaceOnUse"
       id="clipPath1266">
      <path
         d="M 310.1803,525.1188 H 554.4511 V 708.4827 H 310.1803 Z"
         id="path1266" />
    </clipPath>
    <clipPath
       clipPathUnits="userSpaceOnUse"
       id="clipPath1268">
      <path
         d="M 310.1803,525.1188 H 554.4511 V 708.4827 H 310.1803 Z"
         id="path1268" />
    </clipPath>
    <clipPath
       clipPathUnits="userSpaceOnUse"
       id="clipPath1270">
      <path
         d="M 310.1803,525.1188 H 554.4511 V 708.4827 H 310.1803 Z"
         id="path1270" />
    </clipPath>
    <clipPath
       clipPathUnits="userSpaceOnUse"
       id="clipPath1272">
      <path
         d="M 310.1803,525.1188 H 554.4511 V 708.4827 H 310.1803 Z"
         id="path1272" />
    </clipPath>
    <clipPath
       clipPathUnits="userSpaceOnUse"
       id="clipPath1274">
      <path
         d="M 310.1803,525.1188 H 554.4511 V 708.4827 H 310.1803 Z"
         id="path1274" />
    </clipPath>
    <clipPath
       clipPathUnits="userSpaceOnUse"
       id="clipPath1276">
      <path
         d="M 310.1803,525.1188 H 554.4511 V 708.4827 H 310.1803 Z"
         id="path1276" />
    </clipPath>
    <clipPath
       clipPathUnits="userSpaceOnUse"
       id="clipPath1278">
      <path
         d="M 310.1803,525.1188 H 554.4511 V 708.4827 H 310.1803 Z"
         id="path1278" />
    </clipPath>
    <clipPath
       clipPathUnits="userSpaceOnUse"
       id="clipPath1280">
      <path
         d="M 310.1803,525.1188 H 554.4511 V 708.4827 H 310.1803 Z"
         id="path1280" />
    </clipPath>
    <clipPath
       clipPathUnits="userSpaceOnUse"
       id="clipPath1282">
      <path
         d="M 310.1803,525.1188 H 554.4511 V 708.4827 H 310.1803 Z"
         id="path1282" />
    </clipPath>
    <clipPath
       clipPathUnits="userSpaceOnUse"
       id="clipPath1284">
      <path
         d="M 310.1803,525.1188 H 554.4511 V 708.4827 H 310.1803 Z"
         id="path1284" />
    </clipPath>
    <clipPath
       clipPathUnits="userSpaceOnUse"
       id="clipPath1286">
      <path
         d="M 310.1803,525.1188 H 554.4511 V 708.4827 H 310.1803 Z"
         id="path1286" />
    </clipPath>
    <clipPath
       clipPathUnits="userSpaceOnUse"
       id="clipPath1288">
      <path
         d="M 310.1803,525.1188 H 554.4511 V 708.4827 H 310.1803 Z"
         id="path1288" />
    </clipPath>
    <clipPath
       clipPathUnits="userSpaceOnUse"
       id="clipPath1290">
      <path
         d="M 310.1803,525.1188 H 554.4511 V 708.4827 H 310.1803 Z"
         id="path1290" />
    </clipPath>
    <clipPath
       clipPathUnits="userSpaceOnUse"
       id="clipPath1292">
      <path
         d="M 310.1803,525.1188 H 554.4511 V 708.4827 H 310.1803 Z"
         id="path1292" />
    </clipPath>
    <clipPath
       clipPathUnits="userSpaceOnUse"
       id="clipPath1294">
      <path
         d="M 310.1803,525.1188 H 554.4511 V 708.4827 H 310.1803 Z"
         transform="matrix(37433.864,0,0,-37401.046,-15876725,24124250)"
         id="path1294" />
    </clipPath>
    <clipPath
       clipPathUnits="userSpaceOnUse"
       id="clipPath1296">
      <path
         d="M 310.1803,525.1188 H 554.4511 V 708.4827 H 310.1803 Z"
         id="path1296" />
    </clipPath>
    <clipPath
       clipPathUnits="userSpaceOnUse"
       id="clipPath1298">
      <path
         d="M 310.1803,525.1188 H 554.4511 V 708.4827 H 310.1803 Z"
         id="path1298" />
    </clipPath>
    <clipPath
       clipPathUnits="userSpaceOnUse"
       id="clipPath1300">
      <path
         d="M 310.1803,525.1188 H 554.4511 V 708.4827 H 310.1803 Z"
         id="path1300" />
    </clipPath>
    <clipPath
       clipPathUnits="userSpaceOnUse"
       id="clipPath1302">
      <path
         d="M 310.1803,525.1188 H 554.4511 V 708.4827 H 310.1803 Z"
         id="path1302" />
    </clipPath>
    <clipPath
       clipPathUnits="userSpaceOnUse"
       id="clipPath1304">
      <path
         d="M 310.1803,525.1188 H 554.4511 V 708.4827 H 310.1803 Z"
         id="path1304" />
    </clipPath>
    <clipPath
       clipPathUnits="userSpaceOnUse"
       id="clipPath1306">
      <path
         d="M 310.1803,525.1188 H 554.4511 V 708.4827 H 310.1803 Z"
         id="path1306" />
    </clipPath>
    <clipPath
       clipPathUnits="userSpaceOnUse"
       id="clipPath1308">
      <path
         d="M 310.1803,525.1188 H 554.4511 V 708.4827 H 310.1803 Z"
         id="path1308" />
    </clipPath>
    <clipPath
       clipPathUnits="userSpaceOnUse"
       id="clipPath1310">
      <path
         d="M 310.1803,525.1188 H 554.4511 V 708.4827 H 310.1803 Z"
         id="path1310" />
    </clipPath>
    <clipPath
       clipPathUnits="userSpaceOnUse"
       id="clipPath1312">
      <path
         d="M 310.1803,525.1188 H 554.4511 V 708.4827 H 310.1803 Z"
         id="path1312" />
    </clipPath>
    <clipPath
       clipPathUnits="userSpaceOnUse"
       id="clipPath1314">
      <path
         d="M 310.1803,525.1188 H 554.4511 V 708.4827 H 310.1803 Z"
         id="path1314" />
    </clipPath>
    <clipPath
       clipPathUnits="userSpaceOnUse"
       id="clipPath1316">
      <path
         d="M 310.1803,525.1188 H 554.4511 V 708.4827 H 310.1803 Z"
         id="path1316" />
    </clipPath>
    <clipPath
       clipPathUnits="userSpaceOnUse"
       id="clipPath1318">
      <path
         d="M 310.1803,525.1188 H 554.4511 V 708.4827 H 310.1803 Z"
         id="path1318" />
    </clipPath>
    <clipPath
       clipPathUnits="userSpaceOnUse"
       id="clipPath1320">
      <path
         d="M 310.1803,525.1188 H 554.4511 V 708.4827 H 310.1803 Z"
         id="path1320" />
    </clipPath>
    <clipPath
       clipPathUnits="userSpaceOnUse"
       id="clipPath1322">
      <path
         d="M 310.1803,525.1188 H 554.4511 V 708.4827 H 310.1803 Z"
         id="path1322" />
    </clipPath>
    <clipPath
       clipPathUnits="userSpaceOnUse"
       id="clipPath1324">
      <path
         d="M 310.1803,525.1188 H 554.4511 V 708.4827 H 310.1803 Z"
         id="path1324" />
    </clipPath>
    <clipPath
       clipPathUnits="userSpaceOnUse"
       id="clipPath1326">
      <path
         d="M 310.1803,525.1188 H 554.4511 V 708.4827 H 310.1803 Z"
         id="path1326" />
    </clipPath>
    <clipPath
       clipPathUnits="userSpaceOnUse"
       id="clipPath1328">
      <path
         d="M 310.1803,525.1188 H 554.4511 V 708.4827 H 310.1803 Z"
         id="path1328" />
    </clipPath>
    <clipPath
       clipPathUnits="userSpaceOnUse"
       id="clipPath1330">
      <path
         d="M 310.1803,525.1188 H 554.4511 V 708.4827 H 310.1803 Z"
         id="path1330" />
    </clipPath>
    <clipPath
       clipPathUnits="userSpaceOnUse"
       id="clipPath1332">
      <path
         d="M 310.1803,525.1188 H 554.4511 V 708.4827 H 310.1803 Z"
         id="path1332" />
    </clipPath>
    <clipPath
       clipPathUnits="userSpaceOnUse"
       id="clipPath1334">
      <path
         d="M 310.1803,525.1188 H 554.4511 V 708.4827 H 310.1803 Z"
         id="path1334" />
    </clipPath>
    <clipPath
       clipPathUnits="userSpaceOnUse"
       id="clipPath1336">
      <path
         d="M 310.1803,525.1188 H 554.4511 V 708.4827 H 310.1803 Z"
         id="path1336" />
    </clipPath>
    <clipPath
       clipPathUnits="userSpaceOnUse"
       id="clipPath1338">
      <path
         d="M 310.1803,525.1188 H 554.4511 V 708.4827 H 310.1803 Z"
         id="path1338" />
    </clipPath>
    <clipPath
       clipPathUnits="userSpaceOnUse"
       id="clipPath1340">
      <path
         d="M 310.1803,525.1188 H 554.4511 V 708.4827 H 310.1803 Z"
         id="path1340" />
    </clipPath>
    <clipPath
       clipPathUnits="userSpaceOnUse"
       id="clipPath1342">
      <path
         d="M 310.1803,525.1188 H 554.4511 V 708.4827 H 310.1803 Z"
         id="path1342" />
    </clipPath>
    <clipPath
       clipPathUnits="userSpaceOnUse"
       id="clipPath1344">
      <path
         d="M 310.1803,525.1188 H 554.4511 V 708.4827 H 310.1803 Z"
         id="path1344" />
    </clipPath>
    <clipPath
       clipPathUnits="userSpaceOnUse"
       id="clipPath1346">
      <path
         d="M 310.1803,525.1188 H 554.4511 V 708.4827 H 310.1803 Z"
         id="path1346" />
    </clipPath>
    <clipPath
       clipPathUnits="userSpaceOnUse"
       id="clipPath1348">
      <path
         d="M 310.1803,525.1188 H 554.4511 V 708.4827 H 310.1803 Z"
         id="path1348" />
    </clipPath>
    <clipPath
       clipPathUnits="userSpaceOnUse"
       id="clipPath1350">
      <path
         d="M 310.1803,525.1188 H 554.4511 V 708.4827 H 310.1803 Z"
         id="path1350" />
    </clipPath>
    <clipPath
       clipPathUnits="userSpaceOnUse"
       id="clipPath1352">
      <path
         d="M 310.1803,525.1188 H 554.4511 V 708.4827 H 310.1803 Z"
         id="path1352" />
    </clipPath>
    <clipPath
       clipPathUnits="userSpaceOnUse"
       id="clipPath1354">
      <path
         d="M 310.1803,525.1188 H 554.4511 V 708.4827 H 310.1803 Z"
         id="path1354" />
    </clipPath>
    <clipPath
       clipPathUnits="userSpaceOnUse"
       id="clipPath1356">
      <path
         d="M 310.1803,525.1188 H 554.4511 V 708.4827 H 310.1803 Z"
         id="path1356" />
    </clipPath>
    <clipPath
       clipPathUnits="userSpaceOnUse"
       id="clipPath1358">
      <path
         d="M 310.1803,525.1188 H 554.4511 V 708.4827 H 310.1803 Z"
         id="path1358" />
    </clipPath>
    <clipPath
       clipPathUnits="userSpaceOnUse"
       id="clipPath1360">
      <path
         d="M 310.1803,525.1188 H 554.4511 V 708.4827 H 310.1803 Z"
         id="path1360" />
    </clipPath>
    <clipPath
       clipPathUnits="userSpaceOnUse"
       id="clipPath1362">
      <path
         d="M 310.1803,525.1188 H 554.4511 V 708.4827 H 310.1803 Z"
         id="path1362" />
    </clipPath>
    <clipPath
       clipPathUnits="userSpaceOnUse"
       id="clipPath1364">
      <path
         d="M 310.1803,525.1188 H 554.4511 V 708.4827 H 310.1803 Z"
         id="path1364" />
    </clipPath>
    <clipPath
       clipPathUnits="userSpaceOnUse"
       id="clipPath1366">
      <path
         d="M 310.1803,525.1188 H 554.4511 V 708.4827 H 310.1803 Z"
         id="path1366" />
    </clipPath>
    <clipPath
       clipPathUnits="userSpaceOnUse"
       id="clipPath1368">
      <path
         d="M 310.1803,525.1188 H 554.4511 V 708.4827 H 310.1803 Z"
         id="path1368" />
    </clipPath>
    <clipPath
       clipPathUnits="userSpaceOnUse"
       id="clipPath1370">
      <path
         d="M 310.1803,525.1188 H 554.4511 V 708.4827 H 310.1803 Z"
         id="path1370" />
    </clipPath>
    <clipPath
       clipPathUnits="userSpaceOnUse"
       id="clipPath1372">
      <path
         d="M 310.1803,525.1188 H 554.4511 V 708.4827 H 310.1803 Z"
         id="path1372" />
    </clipPath>
    <clipPath
       clipPathUnits="userSpaceOnUse"
       id="clipPath1374">
      <path
         d="M 310.1803,525.1188 H 554.4511 V 708.4827 H 310.1803 Z"
         id="path1374" />
    </clipPath>
    <clipPath
       clipPathUnits="userSpaceOnUse"
       id="clipPath1376">
      <path
         d="M 310.1803,525.1188 H 554.4511 V 708.4827 H 310.1803 Z"
         id="path1376" />
    </clipPath>
    <clipPath
       clipPathUnits="userSpaceOnUse"
       id="clipPath1378">
      <path
         d="M 310.1803,525.1188 H 554.4511 V 708.4827 H 310.1803 Z"
         id="path1378" />
    </clipPath>
    <clipPath
       clipPathUnits="userSpaceOnUse"
       id="clipPath1380">
      <path
         d="M 310.1803,525.1188 H 554.4511 V 708.4827 H 310.1803 Z"
         id="path1380" />
    </clipPath>
    <clipPath
       clipPathUnits="userSpaceOnUse"
       id="clipPath1382">
      <path
         d="M 310.1803,525.1188 H 554.4511 V 708.4827 H 310.1803 Z"
         id="path1382" />
    </clipPath>
    <clipPath
       clipPathUnits="userSpaceOnUse"
       id="clipPath1384">
      <path
         d="M 310.1803,525.1188 H 554.4511 V 708.4827 H 310.1803 Z"
         id="path1384" />
    </clipPath>
    <clipPath
       clipPathUnits="userSpaceOnUse"
       id="clipPath1386">
      <path
         d="M 310.1803,525.1188 H 554.4511 V 708.4827 H 310.1803 Z"
         id="path1386" />
    </clipPath>
    <clipPath
       clipPathUnits="userSpaceOnUse"
       id="clipPath1388">
      <path
         d="M 310.1803,525.1188 H 554.4511 V 708.4827 H 310.1803 Z"
         id="path1388" />
    </clipPath>
    <clipPath
       clipPathUnits="userSpaceOnUse"
       id="clipPath1390">
      <path
         d="M 310.1803,525.1188 H 554.4511 V 708.4827 H 310.1803 Z"
         id="path1390" />
    </clipPath>
    <clipPath
       clipPathUnits="userSpaceOnUse"
       id="clipPath1392">
      <path
         d="M 310.1803,525.1188 H 554.4511 V 708.4827 H 310.1803 Z"
         id="path1392" />
    </clipPath>
    <clipPath
       clipPathUnits="userSpaceOnUse"
       id="clipPath1394">
      <path
         d="M 310.1803,525.1188 H 554.4511 V 708.4827 H 310.1803 Z"
         id="path1394" />
    </clipPath>
    <clipPath
       clipPathUnits="userSpaceOnUse"
       id="clipPath1396">
      <path
         d="M 310.1803,525.1188 H 554.4511 V 708.4827 H 310.1803 Z"
         id="path1396" />
    </clipPath>
    <clipPath
       clipPathUnits="userSpaceOnUse"
       id="clipPath1398">
      <path
         d="M 310.1803,525.1188 H 554.4511 V 708.4827 H 310.1803 Z"
         id="path1398" />
    </clipPath>
    <clipPath
       clipPathUnits="userSpaceOnUse"
       id="clipPath1400">
      <path
         d="M 310.1803,525.1188 H 554.4511 V 708.4827 H 310.1803 Z"
         id="path1400" />
    </clipPath>
    <clipPath
       clipPathUnits="userSpaceOnUse"
       id="clipPath1402">
      <path
         d="M 310.1803,525.1188 H 554.4511 V 708.4827 H 310.1803 Z"
         id="path1402" />
    </clipPath>
    <clipPath
       clipPathUnits="userSpaceOnUse"
       id="clipPath1404">
      <path
         d="M 310.1803,525.1188 H 554.4511 V 708.4827 H 310.1803 Z"
         id="path1404" />
    </clipPath>
    <clipPath
       clipPathUnits="userSpaceOnUse"
       id="clipPath1406">
      <path
         d="M 310.1803,525.1188 H 554.4511 V 708.4827 H 310.1803 Z"
         id="path1406" />
    </clipPath>
    <clipPath
       clipPathUnits="userSpaceOnUse"
       id="clipPath1408">
      <path
         d="M 310.1803,525.1188 H 554.4511 V 708.4827 H 310.1803 Z"
         id="path1408" />
    </clipPath>
    <clipPath
       clipPathUnits="userSpaceOnUse"
       id="clipPath1410">
      <path
         d="M 310.1803,525.1188 H 554.4511 V 708.4827 H 310.1803 Z"
         id="path1410" />
    </clipPath>
    <clipPath
       clipPathUnits="userSpaceOnUse"
       id="clipPath1412">
      <path
         d="M 310.1803,525.1188 H 554.4511 V 708.4827 H 310.1803 Z"
         id="path1412" />
    </clipPath>
    <clipPath
       clipPathUnits="userSpaceOnUse"
       id="clipPath1414">
      <path
         d="M 310.1803,525.1188 H 554.4511 V 708.4827 H 310.1803 Z"
         id="path1414" />
    </clipPath>
    <clipPath
       clipPathUnits="userSpaceOnUse"
       id="clipPath1416">
      <path
         d="M 310.1803,525.1188 H 554.4511 V 708.4827 H 310.1803 Z"
         id="path1416" />
    </clipPath>
    <clipPath
       clipPathUnits="userSpaceOnUse"
       id="clipPath1418">
      <path
         d="M 310.1803,525.1188 H 554.4511 V 708.4827 H 310.1803 Z"
         id="path1418" />
    </clipPath>
    <clipPath
       clipPathUnits="userSpaceOnUse"
       id="clipPath1420">
      <path
         d="M 310.1803,525.1188 H 554.4511 V 708.4827 H 310.1803 Z"
         id="path1420" />
    </clipPath>
    <clipPath
       clipPathUnits="userSpaceOnUse"
       id="clipPath1422">
      <path
         d="M 310.1803,525.1188 H 554.4511 V 708.4827 H 310.1803 Z"
         id="path1422" />
    </clipPath>
    <clipPath
       clipPathUnits="userSpaceOnUse"
       id="clipPath1424">
      <path
         d="M 310.1803,525.1188 H 554.4511 V 708.4827 H 310.1803 Z"
         id="path1424" />
    </clipPath>
    <clipPath
       clipPathUnits="userSpaceOnUse"
       id="clipPath1426">
      <path
         d="M 310.1803,525.1188 H 554.4511 V 708.4827 H 310.1803 Z"
         id="path1426" />
    </clipPath>
    <clipPath
       clipPathUnits="userSpaceOnUse"
       id="clipPath1428">
      <path
         d="M 310.1803,525.1188 H 554.4511 V 708.4827 H 310.1803 Z"
         id="path1428" />
    </clipPath>
    <clipPath
       clipPathUnits="userSpaceOnUse"
       id="clipPath1430">
      <path
         d="M 310.1803,525.1188 H 554.4511 V 708.4827 H 310.1803 Z"
         id="path1430" />
    </clipPath>
    <clipPath
       clipPathUnits="userSpaceOnUse"
       id="clipPath1432">
      <path
         d="M 310.1803,525.1188 H 554.4511 V 708.4827 H 310.1803 Z"
         id="path1432" />
    </clipPath>
    <clipPath
       clipPathUnits="userSpaceOnUse"
       id="clipPath1434">
      <path
         d="M 310.1803,525.1188 H 554.4511 V 708.4827 H 310.1803 Z"
         id="path1434" />
    </clipPath>
    <clipPath
       clipPathUnits="userSpaceOnUse"
       id="clipPath1436">
      <path
         d="M 310.1803,525.1188 H 554.4511 V 708.4827 H 310.1803 Z"
         id="path1436" />
    </clipPath>
    <clipPath
       clipPathUnits="userSpaceOnUse"
       id="clipPath1438">
      <path
         d="M 310.1803,525.1188 H 554.4511 V 708.4827 H 310.1803 Z"
         id="path1438" />
    </clipPath>
    <clipPath
       clipPathUnits="userSpaceOnUse"
       id="clipPath1440">
      <path
         d="M 310.1803,525.1188 H 554.4511 V 708.4827 H 310.1803 Z"
         id="path1440" />
    </clipPath>
    <clipPath
       clipPathUnits="userSpaceOnUse"
       id="clipPath1442">
      <path
         d="M 310.1803,525.1188 H 554.4511 V 708.4827 H 310.1803 Z"
         id="path1442" />
    </clipPath>
    <clipPath
       clipPathUnits="userSpaceOnUse"
       id="clipPath1444">
      <path
         d="M 310.1803,525.1188 H 554.4511 V 708.4827 H 310.1803 Z"
         id="path1444" />
    </clipPath>
    <clipPath
       clipPathUnits="userSpaceOnUse"
       id="clipPath1446">
      <path
         d="M 310.1803,525.1188 H 554.4511 V 708.4827 H 310.1803 Z"
         id="path1446" />
    </clipPath>
    <clipPath
       clipPathUnits="userSpaceOnUse"
       id="clipPath1448">
      <path
         d="M 310.1803,525.1188 H 554.4511 V 708.4827 H 310.1803 Z"
         id="path1448" />
    </clipPath>
    <clipPath
       clipPathUnits="userSpaceOnUse"
       id="clipPath1450">
      <path
         d="M 310.1803,525.1188 H 554.4511 V 708.4827 H 310.1803 Z"
         id="path1450" />
    </clipPath>
    <clipPath
       clipPathUnits="userSpaceOnUse"
       id="clipPath1452">
      <path
         d="M 310.1803,525.1188 H 554.4511 V 708.4827 H 310.1803 Z"
         id="path1452" />
    </clipPath>
    <clipPath
       clipPathUnits="userSpaceOnUse"
       id="clipPath1454">
      <path
         d="M 310.1803,525.1188 H 554.4511 V 708.4827 H 310.1803 Z"
         id="path1454" />
    </clipPath>
    <clipPath
       clipPathUnits="userSpaceOnUse"
       id="clipPath1456">
      <path
         d="M 310.1803,525.1188 H 554.4511 V 708.4827 H 310.1803 Z"
         id="path1456" />
    </clipPath>
    <clipPath
       clipPathUnits="userSpaceOnUse"
       id="clipPath1458">
      <path
         d="M 310.1803,525.1188 H 554.4511 V 708.4827 H 310.1803 Z"
         id="path1458" />
    </clipPath>
    <clipPath
       clipPathUnits="userSpaceOnUse"
       id="clipPath1460">
      <path
         d="M 310.1803,525.1188 H 554.4511 V 708.4827 H 310.1803 Z"
         id="path1460" />
    </clipPath>
    <clipPath
       clipPathUnits="userSpaceOnUse"
       id="clipPath1462">
      <path
         d="M 310.1803,525.1188 H 554.4511 V 708.4827 H 310.1803 Z"
         id="path1462" />
    </clipPath>
    <clipPath
       clipPathUnits="userSpaceOnUse"
       id="clipPath1464">
      <path
         d="M 310.1803,525.1188 H 554.4511 V 708.4827 H 310.1803 Z"
         id="path1464" />
    </clipPath>
    <clipPath
       clipPathUnits="userSpaceOnUse"
       id="clipPath1466">
      <path
         d="M 310.1803,525.1188 H 554.4511 V 708.4827 H 310.1803 Z"
         id="path1466" />
    </clipPath>
    <clipPath
       clipPathUnits="userSpaceOnUse"
       id="clipPath1468">
      <path
         d="M 310.1803,525.1188 H 554.4511 V 708.4827 H 310.1803 Z"
         id="path1468" />
    </clipPath>
    <clipPath
       clipPathUnits="userSpaceOnUse"
       id="clipPath1470">
      <path
         d="M 310.1803,525.1188 H 554.4511 V 708.4827 H 310.1803 Z"
         id="path1470" />
    </clipPath>
    <clipPath
       clipPathUnits="userSpaceOnUse"
       id="clipPath1472">
      <path
         d="M 310.1803,525.1188 H 554.4511 V 708.4827 H 310.1803 Z"
         id="path1472" />
    </clipPath>
    <clipPath
       clipPathUnits="userSpaceOnUse"
       id="clipPath1474">
      <path
         d="M 310.1803,525.1188 H 554.4511 V 708.4827 H 310.1803 Z"
         id="path1474" />
    </clipPath>
    <clipPath
       clipPathUnits="userSpaceOnUse"
       id="clipPath1475">
      <path
         d="M 310.1803,525.1188 H 554.4511 V 708.4827 H 310.1803 Z"
         transform="matrix(13.134329,0,0,-13.122813,-5526.7859,7403.9252)"
         id="path1475" />
    </clipPath>
    <clipPath
       clipPathUnits="userSpaceOnUse"
       id="clipPath1476">
      <path
         d="M 310.1803,525.1188 H 554.4511 V 708.4827 H 310.1803 Z"
         transform="matrix(13.134329,0,0,-13.122813,-6439.8772,7403.9252)"
         id="path1476" />
    </clipPath>
  </defs>
  <g
     inkscape:groupmode="layer"
     id="layer2"
     inkscape:label="background"
     sodipodi:insensitive="true"
     style="display:none">
    <path
       id="path1195"
       d="m 494.7404,641.7827 c 0,1.7854 6.3796,3.2327 14.2492,3.2327 7.8696,0 14.2492,-1.4473 14.2492,-3.2327 0,-1.7854 -6.3796,-3.2327 -14.2492,-3.2327 -7.8696,0 -14.2492,1.4473 -14.2492,3.2327 z"
       style="fill:#9b9b9b;fill-opacity:1;fill-rule:nonzero;stroke:none"
       transform="matrix(0.35277777,0,0,-0.35277777,-174.48851,227.59202)"
       clip-path="url(#clipPath1196)" />
    <path
       id="path1193"
       d="m 494.7404,641.7827 c 0,-1.7854 6.3796,-3.2327 14.2492,-3.2327 7.8696,0 14.2492,1.4473 14.2492,3.2327 l -10e-5,-62.8053 c 0,-1.7854 -6.3796,-3.2328 -14.2492,-3.2328 -7.8696,0 -14.2491,1.4474 -14.2491,3.2328 z"
       style="fill:#595959;fill-opacity:1;fill-rule:nonzero;stroke:none"
       transform="matrix(0.35277777,0,0,-0.35277777,-174.48851,227.59202)"
       clip-path="url(#clipPath1194)" />
  </g>
  <g
     inkscape:label="Layer 1"
     inkscape:groupmode="layer"
     id="layer1"
     transform="translate(-147.01484,-86.51875)">
    <path
       id="path1197"
       d="m 1066800,120906.8 c 0,66775 -238812,120906.9 -533401.4,120906.9 C 238809.1,241813.7 -2.833338,187681.8 -2.833338,120906.8 -2.833338,54131.83 238809.1,0 533398.6,0 827988,0 1066800,54131.83 1066800,120906.8 V 2469893 c 0,66775 -238812,120907 -533401.4,120907 C 238809.1,2590800 -2.833338,2536668 -2.833338,2469893 L 0,120906.8"
       style="fill:none;stroke:#000000;stroke-width:9525;stroke-linecap:butt;stroke-linejoin:round;stroke-miterlimit:10;stroke-dasharray:none;stroke-opacity:1"
       transform="matrix(9.4240277e-6,0,0,9.432297e-6,147.05975,86.563671)"
       clip-path="url(#clipPath1198)" />
    <path
       id="path1199"
       d="m 497.0305,634.8285 v -6.7488 h -0.5089 v 6.7488 z m 0.4241,-6.4092 -0.6785,-2.0374 -0.6786,2.0374 z"
       style="fill:#000000;fill-opacity:1;fill-rule:nonzero;stroke:none"
       transform="matrix(0.35277776,0,0,-0.35277776,-27.473674,314.11077)"
       clip-path="url(#clipPath1200)" />
    <path
       id="path1201"
       d="m 500.0542,634.8285 v -6.7488 h -0.5089 v 6.7488 z m 0.4241,-6.4092 -0.6785,-2.0374 -0.6786,2.0374 z"
       style="fill:#000000;fill-opacity:1;fill-rule:nonzero;stroke:none"
       transform="matrix(0.35277776,0,0,-0.35277776,-27.473674,314.11077)"
       clip-path="url(#clipPath1202)" />
    <path
       id="path1203"
       d="m 503.1266,634.8285 v -6.7488 h -0.5088 l -10e-5,6.7488 z m 0.4241,-6.4092 -0.6785,-2.0374 -0.6785,2.0374 z"
       style="fill:#000000;fill-opacity:1;fill-rule:nonzero;stroke:none"
       transform="matrix(0.35277776,0,0,-0.35277776,-27.473674,314.11077)"
       clip-path="url(#clipPath1204)" />
    <path
       id="path1205"
       d="m 506.1503,634.8285 10e-5,-6.7488 h -0.5089 l -1e-4,6.7488 z m 0.4242,-6.4092 -0.6786,-2.0374 -0.6785,2.0374 z"
       style="fill:#000000;fill-opacity:1;fill-rule:nonzero;stroke:none"
       transform="matrix(0.35277776,0,0,-0.35277776,-27.473674,314.11077)"
       clip-path="url(#clipPath1206)" />
    <path
       id="path1207"
       d="m 509.2229,634.8285 v -6.7488 h -0.5089 l -10e-5,6.7488 z m 0.424,-6.4092 -0.6785,-2.0374 -0.6785,2.0374 z"
       style="fill:#000000;fill-opacity:1;fill-rule:nonzero;stroke:none"
       transform="matrix(0.35277776,0,0,-0.35277776,-27.473674,314.11077)"
       clip-path="url(#clipPath1208)" />
    <path
       id="path1209"
       d="m 512.2465,634.8285 v -6.7488 h -0.5089 v 6.7488 z m 0.4241,-6.4092 -0.6785,-2.0374 -0.6785,2.0374 z"
       style="fill:#000000;fill-opacity:1;fill-rule:nonzero;stroke:none"
       transform="matrix(0.35277776,0,0,-0.35277776,-27.473674,314.11077)"
       clip-path="url(#clipPath1210)" />
    <path
       id="path1211"
       d="m 515.319,634.8285 v -6.7488 h -0.5089 v 6.7488 z m 0.4241,-6.4092 -0.6785,-2.0374 -0.6786,2.0374 z"
       style="fill:#000000;fill-opacity:1;fill-rule:nonzero;stroke:none"
       transform="matrix(0.35277776,0,0,-0.35277776,-27.473674,314.11077)"
       clip-path="url(#clipPath1212)" />
    <path
       id="path1213"
       d="m 518.3427,634.8285 v -6.7488 h -0.5089 v 6.7488 z m 0.4241,-6.4092 -0.6785,-2.0374 -0.6786,2.0374 z"
       style="fill:#000000;fill-opacity:1;fill-rule:nonzero;stroke:none"
       transform="matrix(0.35277776,0,0,-0.35277776,-27.473674,314.11077)"
       clip-path="url(#clipPath1214)" />
    <path
       id="path1215"
       d="m 521.4152,634.8285 v -6.7488 h -0.5089 v 6.7488 z m 0.4241,-6.4092 -0.6785,-2.0374 -0.6786,2.0374 z"
       style="fill:#000000;fill-opacity:1;fill-rule:nonzero;stroke:none"
       transform="matrix(0.35277776,0,0,-0.35277776,-27.473674,314.11077)"
       clip-path="url(#clipPath1216)" />
    <path
       id="path1217"
       d="m 497.0305,623.623 v -6.7488 l -0.5089,-10e-5 v 6.7489 z m 0.4241,-6.4093 -0.6785,-2.0374 -0.6786,2.0374 z"
       style="fill:#000000;fill-opacity:1;fill-rule:nonzero;stroke:none"
       transform="matrix(0.35277776,0,0,-0.35277776,-27.473674,314.11077)"
       clip-path="url(#clipPath1218)" />
    <path
       id="path1219"
       d="m 500.0542,623.623 v -6.7488 l -0.5089,-10e-5 v 6.7489 z m 0.4241,-6.4093 -0.6785,-2.0374 -0.6786,2.0374 z"
       style="fill:#000000;fill-opacity:1;fill-rule:nonzero;stroke:none"
       transform="matrix(0.35277776,0,0,-0.35277776,-27.473674,314.11077)"
       clip-path="url(#clipPath1220)" />
    <path
       id="path1221"
       d="m 503.1266,623.623 v -6.7488 l -0.5088,-10e-5 -10e-5,6.7489 z m 0.4241,-6.4093 -0.6785,-2.0374 -0.6785,2.0374 z"
       style="fill:#000000;fill-opacity:1;fill-rule:nonzero;stroke:none"
       transform="matrix(0.35277776,0,0,-0.35277776,-27.473674,314.11077)"
       clip-path="url(#clipPath1222)" />
    <path
       id="path1223"
       d="m 506.1503,623.623 10e-5,-6.7488 -0.5089,-10e-5 -1e-4,6.7489 z m 0.4242,-6.4093 -0.6786,-2.0374 -0.6785,2.0374 z"
       style="fill:#000000;fill-opacity:1;fill-rule:nonzero;stroke:none"
       transform="matrix(0.35277776,0,0,-0.35277776,-27.473674,314.11077)"
       clip-path="url(#clipPath1224)" />
    <path
       id="path1225"
       d="m 509.2229,623.623 v -6.7488 l -0.5089,-10e-5 -10e-5,6.7489 z m 0.424,-6.4093 -0.6785,-2.0374 -0.6785,2.0374 z"
       style="fill:#000000;fill-opacity:1;fill-rule:nonzero;stroke:none"
       transform="matrix(0.35277776,0,0,-0.35277776,-27.473674,314.11077)"
       clip-path="url(#clipPath1226)" />
    <path
       id="path1227"
       d="m 512.2465,623.623 v -6.7488 l -0.5089,-10e-5 v 6.7489 z m 0.4241,-6.4093 -0.6785,-2.0374 -0.6785,2.0374 z"
       style="fill:#000000;fill-opacity:1;fill-rule:nonzero;stroke:none"
       transform="matrix(0.35277776,0,0,-0.35277776,-27.473674,314.11077)"
       clip-path="url(#clipPath1228)" />
    <path
       id="path1229"
       d="m 515.319,623.623 v -6.7488 l -0.5089,-10e-5 v 6.7489 z m 0.4241,-6.4093 -0.6785,-2.0374 -0.6786,2.0374 z"
       style="fill:#000000;fill-opacity:1;fill-rule:nonzero;stroke:none"
       transform="matrix(0.35277776,0,0,-0.35277776,-27.473674,314.11077)"
       clip-path="url(#clipPath1230)" />
    <path
       id="path1231"
       d="m 518.3427,623.623 v -6.7488 l -0.5089,-10e-5 v 6.7489 z m 0.4241,-6.4093 -0.6785,-2.0374 -0.6786,2.0374 z"
       style="fill:#000000;fill-opacity:1;fill-rule:nonzero;stroke:none"
       transform="matrix(0.35277776,0,0,-0.35277776,-27.473674,314.11077)"
       clip-path="url(#clipPath1232)" />
    <path
       id="path1233"
       d="m 521.4152,623.623 v -6.7488 l -0.5089,-10e-5 v 6.7489 z m 0.4241,-6.4093 -0.6785,-2.0374 -0.6786,2.0374 z"
       style="fill:#000000;fill-opacity:1;fill-rule:nonzero;stroke:none"
       transform="matrix(0.35277776,0,0,-0.35277776,-27.473674,314.11077)"
       clip-path="url(#clipPath1234)" />
    <path
       id="path1235"
       d="m 497.0305,612.4174 v -6.7488 h -0.5089 v 6.7488 z m 0.4241,-6.4093 -0.6785,-2.0373 -0.6786,2.0373 z"
       style="fill:#000000;fill-opacity:1;fill-rule:nonzero;stroke:none"
       transform="matrix(0.35277776,0,0,-0.35277776,-27.473674,314.11077)"
       clip-path="url(#clipPath1236)" />
    <path
       id="path1237"
       d="m 500.0542,612.4174 v -6.7488 h -0.5089 v 6.7488 z m 0.4241,-6.4093 -0.6785,-2.0373 -0.6786,2.0373 z"
       style="fill:#000000;fill-opacity:1;fill-rule:nonzero;stroke:none"
       transform="matrix(0.35277776,0,0,-0.35277776,-27.473674,314.11077)"
       clip-path="url(#clipPath1238)" />
    <path
       id="path1239"
       d="m 503.1266,612.4174 v -6.7488 h -0.5088 l -10e-5,6.7488 z m 0.4241,-6.4093 -0.6785,-2.0373 -0.6785,2.0373 z"
       style="fill:#000000;fill-opacity:1;fill-rule:nonzero;stroke:none"
       transform="matrix(0.35277776,0,0,-0.35277776,-27.473674,314.11077)"
       clip-path="url(#clipPath1240)" />
    <path
       id="path1241"
       d="m 506.1503,612.4174 10e-5,-6.7488 h -0.5089 l -1e-4,6.7488 z m 0.4242,-6.4093 -0.6786,-2.0373 -0.6785,2.0373 z"
       style="fill:#000000;fill-opacity:1;fill-rule:nonzero;stroke:none"
       transform="matrix(0.35277776,0,0,-0.35277776,-27.473674,314.11077)"
       clip-path="url(#clipPath1242)" />
    <path
       id="path1243"
       d="m 509.2229,612.4174 v -6.7488 h -0.5089 l -10e-5,6.7488 z m 0.424,-6.4093 -0.6785,-2.0373 -0.6785,2.0373 z"
       style="fill:#000000;fill-opacity:1;fill-rule:nonzero;stroke:none"
       transform="matrix(0.35277776,0,0,-0.35277776,-27.473674,314.11077)"
       clip-path="url(#clipPath1244)" />
    <path
       id="path1245"
       d="m 512.2465,612.4174 v -6.7488 h -0.5089 v 6.7488 z m 0.4241,-6.4093 -0.6785,-2.0373 -0.6785,2.0373 z"
       style="fill:#000000;fill-opacity:1;fill-rule:nonzero;stroke:none"
       transform="matrix(0.35277776,0,0,-0.35277776,-27.473674,314.11077)"
       clip-path="url(#clipPath1246)" />
    <path
       id="path1247"
       d="m 515.319,612.4174 v -6.7488 h -0.5089 v 6.7488 z m 0.4241,-6.4093 -0.6785,-2.0373 -0.6786,2.0373 z"
       style="fill:#000000;fill-opacity:1;fill-rule:nonzero;stroke:none"
       transform="matrix(0.35277776,0,0,-0.35277776,-27.473674,314.11077)"
       clip-path="url(#clipPath1248)" />
    <path
       id="path1249"
       d="m 518.3427,612.4174 v -6.7488 h -0.5089 v 6.7488 z m 0.4241,-6.4093 -0.6785,-2.0373 -0.6786,2.0373 z"
       style="fill:#000000;fill-opacity:1;fill-rule:nonzero;stroke:none"
       transform="matrix(0.35277776,0,0,-0.35277776,-27.473674,314.11077)"
       clip-path="url(#clipPath1250)" />
    <path
       id="path1251"
       d="m 521.4152,612.4174 v -6.7488 h -0.5089 v 6.7488 z m 0.4241,-6.4093 -0.6785,-2.0373 -0.6786,2.0373 z"
       style="fill:#000000;fill-opacity:1;fill-rule:nonzero;stroke:none"
       transform="matrix(0.35277776,0,0,-0.35277776,-27.473674,314.11077)"
       clip-path="url(#clipPath1252)" />
    <path
       id="path1253"
       d="m 497.0305,601.2118 v -6.7488 h -0.5089 v 6.7488 z m 0.4241,-6.4092 -0.6785,-2.0374 -0.6786,2.0374 z"
       style="fill:#000000;fill-opacity:1;fill-rule:nonzero;stroke:none"
       transform="matrix(0.35277776,0,0,-0.35277776,-27.473674,314.11077)"
       clip-path="url(#clipPath1254)" />
    <path
       id="path1255"
       d="m 500.0542,601.2118 v -6.7488 h -0.5089 v 6.7488 z m 0.4241,-6.4092 -0.6785,-2.0374 -0.6786,2.0374 z"
       style="fill:#000000;fill-opacity:1;fill-rule:nonzero;stroke:none"
       transform="matrix(0.35277776,0,0,-0.35277776,-27.473674,314.11077)"
       clip-path="url(#clipPath1256)" />
    <path
       id="path1257"
       d="m 503.1266,601.2118 v -6.7488 h -0.5088 l -10e-5,6.7488 z m 0.4241,-6.4092 -0.6785,-2.0374 -0.6785,2.0374 z"
       style="fill:#000000;fill-opacity:1;fill-rule:nonzero;stroke:none"
       transform="matrix(0.35277776,0,0,-0.35277776,-27.473674,314.11077)"
       clip-path="url(#clipPath1258)" />
    <path
       id="path1259"
       d="m 506.1503,601.2118 10e-5,-6.7488 h -0.5089 l -1e-4,6.7488 z m 0.4242,-6.4092 -0.6786,-2.0374 -0.6785,2.0374 z"
       style="fill:#000000;fill-opacity:1;fill-rule:nonzero;stroke:none"
       transform="matrix(0.35277776,0,0,-0.35277776,-27.473674,314.11077)"
       clip-path="url(#clipPath1260)" />
    <path
       id="path1261"
       d="m 509.2229,601.2118 v -6.7488 h -0.5089 l -10e-5,6.7488 z m 0.424,-6.4092 -0.6785,-2.0374 -0.6785,2.0374 z"
       style="fill:#000000;fill-opacity:1;fill-rule:nonzero;stroke:none"
       transform="matrix(0.35277776,0,0,-0.35277776,-27.473674,314.11077)"
       clip-path="url(#clipPath1262)" />
    <path
       id="path1263"
       d="m 512.2465,601.2118 v -6.7488 h -0.5089 v 6.7488 z m 0.4241,-6.4092 -0.6785,-2.0374 -0.6785,2.0374 z"
       style="fill:#000000;fill-opacity:1;fill-rule:nonzero;stroke:none"
       transform="matrix(0.35277776,0,0,-0.35277776,-27.473674,314.11077)"
       clip-path="url(#clipPath1264)" />
    <path
       id="path1265"
       d="m 515.319,601.2118 v -6.7488 h -0.5089 v 6.7488 z m 0.4241,-6.4092 -0.6785,-2.0374 -0.6786,2.0374 z"
       style="fill:#000000;fill-opacity:1;fill-rule:nonzero;stroke:none"
       transform="matrix(0.35277776,0,0,-0.35277776,-27.473674,314.11077)"
       clip-path="url(#clipPath1266)" />
    <path
       id="path1267"
       d="m 518.3427,601.2118 v -6.7488 h -0.5089 v 6.7488 z m 0.4241,-6.4092 -0.6785,-2.0374 -0.6786,2.0374 z"
       style="fill:#000000;fill-opacity:1;fill-rule:nonzero;stroke:none"
       transform="matrix(0.35277776,0,0,-0.35277776,-27.473674,314.11077)"
       clip-path="url(#clipPath1268)" />
    <path
       id="path1269"
       d="m 521.4152,601.2118 v -6.7488 h -0.5089 v 6.7488 z m 0.4241,-6.4092 -0.6785,-2.0374 -0.6786,2.0374 z"
       style="fill:#000000;fill-opacity:1;fill-rule:nonzero;stroke:none"
       transform="matrix(0.35277776,0,0,-0.35277776,-27.473674,314.11077)"
       clip-path="url(#clipPath1270)" />
    <path
       id="path1271"
       d="m 497.0305,590.0063 v -6.7489 h -0.5089 v 6.7489 z m 0.4241,-6.4093 -0.6785,-2.0374 -0.6786,2.0374 z"
       style="fill:#000000;fill-opacity:1;fill-rule:nonzero;stroke:none"
       transform="matrix(0.35277776,0,0,-0.35277776,-27.473674,314.11077)"
       clip-path="url(#clipPath1272)" />
    <path
       id="path1273"
       d="m 500.0595,590.0063 v -6.7489 h -0.5089 v 6.7489 z m 0.424,-6.4093 -0.6785,-2.0374 -0.6785,2.0374 z"
       style="fill:#000000;fill-opacity:1;fill-rule:nonzero;stroke:none"
       transform="matrix(0.35277776,0,0,-0.35277776,-27.473674,314.11077)"
       clip-path="url(#clipPath1274)" />
    <path
       id="path1275"
       d="m 503.1372,590.0063 10e-5,-6.7489 h -0.5089 v 6.7489 z m 0.4242,-6.4093 -0.6786,-2.0374 -0.6785,2.0374 z"
       style="fill:#000000;fill-opacity:1;fill-rule:nonzero;stroke:none"
       transform="matrix(0.35277776,0,0,-0.35277776,-27.473674,314.11077)"
       clip-path="url(#clipPath1276)" />
    <path
       id="path1277"
       d="m 506.1662,590.0063 v -6.7489 h -0.5088 l -10e-5,6.7489 z m 0.4241,-6.4093 -0.6785,-2.0374 -0.6786,2.0374 z"
       style="fill:#000000;fill-opacity:1;fill-rule:nonzero;stroke:none"
       transform="matrix(0.35277776,0,0,-0.35277776,-27.473674,314.11077)"
       clip-path="url(#clipPath1278)" />
    <path
       id="path1279"
       d="m 509.244,590.0063 v -6.7489 h -0.5089 v 6.7489 z m 0.4241,-6.4093 -0.6785,-2.0374 -0.6785,2.0374 z"
       style="fill:#000000;fill-opacity:1;fill-rule:nonzero;stroke:none"
       transform="matrix(0.35277776,0,0,-0.35277776,-27.473674,314.11077)"
       clip-path="url(#clipPath1280)" />
    <path
       id="path1281"
       d="m 512.273,590.0063 v -6.7489 h -0.5089 v 6.7489 z m 0.4241,-6.4093 -0.6785,-2.0374 -0.6786,2.0374 z"
       style="fill:#000000;fill-opacity:1;fill-rule:nonzero;stroke:none"
       transform="matrix(0.35277776,0,0,-0.35277776,-27.473674,314.11077)"
       clip-path="url(#clipPath1282)" />
    <path
       id="path1283"
       d="m 515.3508,590.0063 v -6.7489 h -0.5089 v 6.7489 z m 0.4241,-6.4093 -0.6785,-2.0374 -0.6786,2.0374 z"
       style="fill:#000000;fill-opacity:1;fill-rule:nonzero;stroke:none"
       transform="matrix(0.35277776,0,0,-0.35277776,-27.473674,314.11077)"
       clip-path="url(#clipPath1284)" />
    <path
       id="path1285"
       d="m 518.3798,590.0063 v -6.7489 h -0.5089 v 6.7489 z m 0.4241,-6.4093 -0.6785,-2.0374 -0.6786,2.0374 z"
       style="fill:#000000;fill-opacity:1;fill-rule:nonzero;stroke:none"
       transform="matrix(0.35277776,0,0,-0.35277776,-27.473674,314.11077)"
       clip-path="url(#clipPath1286)" />
    <path
       id="path1287"
       d="m 521.4576,590.0063 v -6.7489 h -0.5089 v 6.7489 z m 0.4241,-6.4093 -0.6786,-2.0374 -0.6785,2.0374 z"
       style="fill:#000000;fill-opacity:1;fill-rule:nonzero;stroke:none"
       transform="matrix(0.35277776,0,0,-0.35277776,-27.473674,314.11077)"
       clip-path="url(#clipPath1288)" />
  </g>
</svg>
