<?xml version="1.0" encoding="UTF-8" standalone="no"?>
<!-- Created with Inkscape (http://www.inkscape.org/) -->

<svg
   width="53.57283mm"
   height="78.464828mm"
   viewBox="0 0 53.57283 78.464828"
   version="1.1"
   id="svg1"
   inkscape:version="1.4.2 (1:1.4.2+202505120737+ebf0e940d0)"
   sodipodi:docname="klt_tracking.svg"
   xmlns:inkscape="http://www.inkscape.org/namespaces/inkscape"
   xmlns:sodipodi="http://sodipodi.sourceforge.net/DTD/sodipodi-0.dtd"
   xmlns="http://www.w3.org/2000/svg"
   xmlns:svg="http://www.w3.org/2000/svg"
   xmlns:ns2="http://www.iki.fi/pav/software/textext/">
  <sodipodi:namedview
     id="namedview1"
     pagecolor="#ffffff"
     bordercolor="#000000"
     borderopacity="0.25"
     inkscape:showpageshadow="2"
     inkscape:pageopacity="0.0"
     inkscape:pagecheckerboard="0"
     inkscape:deskcolor="#d1d1d1"
     inkscape:document-units="mm"
     inkscape:zoom="2.1593938"
     inkscape:cx="118.78334"
     inkscape:cy="153.9784"
     inkscape:window-width="1920"
     inkscape:window-height="1043"
     inkscape:window-x="0"
     inkscape:window-y="0"
     inkscape:window-maximized="1"
     inkscape:current-layer="svg1" />
  <defs
     id="defs1">
    <clipPath
       clipPathUnits="userSpaceOnUse"
       id="clipPath302">
      <path
         d="M 0,0 H 960 V 540 H 0 Z"
         transform="translate(-83.160002,-279.21001)"
         id="path302" />
    </clipPath>
    <clipPath
       clipPathUnits="userSpaceOnUse"
       id="clipPath308">
      <path
         d="M 0,0 H 960 V 540 H 0 Z"
         transform="translate(-97.170002,-147.48)"
         id="path308" />
    </clipPath>
    <clipPath
       clipPathUnits="userSpaceOnUse"
       id="clipPath313">
      <path
         d="M 0,0 H 960 V 540 H 0 Z"
         transform="translate(-83.160002,-162.57)"
         id="path313" />
    </clipPath>
    <g
       id="id-aec56285-5e0c-4f45-8eaf-291c6290b595-8">
      <g
         id="id-c11844e9-4469-49f1-b18e-bcab2dbd202e-8">
        <path
           d="M 3.734375,-6.046875 C 3.8125,-6.40625 3.84375,-6.5 4.640625,-6.5 c 0.234375,0 0.3125,0 0.3125,-0.1875 0,-0.125 -0.109375,-0.125 -0.140625,-0.125 -0.296875,0 -1.03125,0.03125 -1.328125,0.03125 -0.296875,0 -1.015625,-0.03125 -1.328125,-0.03125 -0.0625,0 -0.1875,0 -0.1875,0.203125 C 1.96875,-6.5 2.046875,-6.5 2.25,-6.5 c 0.40625,0 0.6875,0 0.6875,0.1875 0,0.046875 0,0.078125 -0.03125,0.15625 l -1.34375,5.375 c -0.09375,0.375 -0.109375,0.46875 -0.90625,0.46875 -0.234375,0 -0.3125,0 -0.3125,0.203125 C 0.34375,0 0.453125,0 0.484375,0 0.78125,0 1.5,-0.03125 1.796875,-0.03125 2.09375,-0.03125 2.828125,0 3.125,0 c 0.078125,0 0.203125,0 0.203125,-0.1875 0,-0.125 -0.078125,-0.125 -0.296875,-0.125 -0.1875,0 -0.234375,0 -0.421875,-0.015625 -0.21875,-0.015625 -0.25,-0.0625 -0.25,-0.171875 0,-0.078125 0.015625,-0.15625 0.03125,-0.234375 z m 0,0"
           id="id-c94d07d8-60ba-4d12-89f2-91baab921307-4" />
      </g>
      <g
         id="id-1340f889-6793-41b7-913c-cc966a828053-3">
        <path
           d="M 3.59375,-2.21875 C 3.59375,-2.984375 3.5,-3.546875 3.1875,-4.03125 2.96875,-4.34375 2.53125,-4.625 1.984375,-4.625 c -1.625,0 -1.625,1.90625 -1.625,2.40625 0,0.5 0,2.359375 1.625,2.359375 1.609375,0 1.609375,-1.859375 1.609375,-2.359375 z M 1.984375,-0.0625 c -0.328125,0 -0.75,-0.1875 -0.890625,-0.75 C 1,-1.21875 1,-1.796875 1,-2.3125 1,-2.828125 1,-3.359375 1.09375,-3.734375 1.25,-4.28125 1.6875,-4.4375 1.984375,-4.4375 c 0.375,0 0.734375,0.234375 0.859375,0.640625 0.109375,0.375 0.125,0.875 0.125,1.484375 0,0.515625 0,1.03125 -0.09375,1.46875 -0.140625,0.640625 -0.609375,0.78125 -0.890625,0.78125 z m 0,0"
           id="id-6e7f16f3-3da9-49ae-953f-da0d4a0b35ca-1" />
      </g>
    </g>
  </defs>
  <g
     inkscape:label="Layer 1"
     inkscape:groupmode="layer"
     id="layer1"
     transform="translate(-103.98114,-62.970832)">
    <g
       id="g300"
       transform="matrix(0.26458333,0,0,0.26458333,-4727.4798,-12.65767)">
      <path
         id="path300"
         d="m 66.39,299.67 h 41.04 V 258.69 H 66.39 Z"
         style="fill:none;stroke:#ff0000;stroke-width:1.02;stroke-linecap:butt;stroke-linejoin:miter;stroke-miterlimit:8;stroke-dasharray:none;stroke-opacity:1"
         transform="matrix(1.3333333,0,0,-1.3333333,18200,720)" />
    </g>
    <g
       id="g301"
       transform="matrix(0.26458333,0,0,0.26458333,-4727.4798,-12.65767)">
      <path
         id="path301"
         d="M 0,0 C 0,2.038 1.665,3.69 3.72,3.69 5.774,3.69 7.44,2.038 7.44,0 7.44,-2.038 5.774,-3.69 3.72,-3.69 1.665,-3.69 0,-2.038 0,0"
         style="fill:#ff0000;fill-opacity:1;fill-rule:evenodd;stroke:none"
         transform="matrix(1.3333333,0,0,-1.3333333,18310.88,347.72)"
         clip-path="url(#clipPath302)" />
    </g>
    <g
       id="g302"
       transform="matrix(0.26458333,0,0,0.26458333,-4727.4798,-12.65767)">
      <path
         id="path303"
         d="M 45.99,325.11 H 196.83 V 220.23 H 45.99 Z"
         style="fill:none;stroke:#000000;stroke-width:1.02;stroke-linecap:butt;stroke-linejoin:miter;stroke-miterlimit:8;stroke-dasharray:none;stroke-opacity:1"
         transform="matrix(1.3333333,0,0,-1.3333333,18200,720)" />
    </g>
    <g
       id="g305"
       transform="matrix(0.26458333,0,0,0.26458333,-4727.4798,-12.65767)">
      <path
         id="path305"
         d="M 45.99,208.59 H 196.83 V 103.71 H 45.99 Z"
         style="fill:none;stroke:#000000;stroke-width:1.02;stroke-linecap:butt;stroke-linejoin:miter;stroke-miterlimit:8;stroke-dasharray:none;stroke-opacity:1"
         transform="matrix(1.3333333,0,0,-1.3333333,18200,720)" />
    </g>
    <g
       id="g306"
       transform="matrix(0.26458333,0,0,0.26458333,-4727.4798,-12.65767)">
      <path
         id="path306"
         d="m 80.37,168.03 h 40.98 V 126.99 H 80.37 Z"
         style="fill:none;stroke:#41719c;stroke-width:1.02;stroke-linecap:butt;stroke-linejoin:miter;stroke-miterlimit:8;stroke-dasharray:none;stroke-opacity:1"
         transform="matrix(1.3333333,0,0,-1.3333333,18200,720)" />
    </g>
    <g
       id="g307"
       transform="matrix(0.26458333,0,0,0.26458333,-4727.4798,-12.65767)">
      <path
         id="path307"
         d="M 0,0 C 0,2.038 1.652,3.69 3.69,3.69 5.728,3.69 7.38,2.038 7.38,0 7.38,-2.038 5.728,-3.69 3.69,-3.69 1.652,-3.69 0,-2.038 0,0"
         style="fill:#5b9bd5;fill-opacity:1;fill-rule:evenodd;stroke:#41719c;stroke-width:1.02;stroke-linecap:butt;stroke-linejoin:miter;stroke-miterlimit:8;stroke-dasharray:none;stroke-opacity:1"
         transform="matrix(1.3333333,0,0,-1.3333333,18329.56,523.36)"
         clip-path="url(#clipPath308)" />
    </g>
    <g
       id="g308"
       transform="matrix(0.26458333,0,0,0.26458333,-4727.4798,-12.65767)">
      <path
         id="path309"
         d="M 0,0 7.191,-8.842"
         style="fill:none;stroke:#5b9bd5;stroke-width:1;stroke-linecap:butt;stroke-linejoin:miter;stroke-miterlimit:8;stroke-dasharray:none;stroke-opacity:1"
         transform="matrix(1.3333333,0,0,-1.3333333,18316.96,503.36)" />
      <path
         id="path310"
         d="m 0,0 1.458,-6.548 -6.113,2.762 z"
         style="fill:#5b9bd5;fill-opacity:1;fill-rule:evenodd;stroke:none"
         transform="matrix(1.3333333,0,0,-1.3333333,18328.811,511.5908)" />
    </g>
    <g
       id="g310"
       transform="matrix(0.26458333,0,0,0.26458333,-4727.4798,-12.65767)">
      <path
         id="path311"
         d="m 66.39,183.03 h 41.04 V 141.99 H 66.39 Z"
         style="fill:none;stroke:#ff0000;stroke-width:1.02;stroke-linecap:butt;stroke-linejoin:miter;stroke-miterlimit:8;stroke-dasharray:none;stroke-opacity:1"
         transform="matrix(1.3333333,0,0,-1.3333333,18200,720)" />
    </g>
    <g
       id="g311"
       transform="matrix(0.26458333,0,0,0.26458333,-4727.4798,-12.65767)">
      <path
         id="path312"
         d="M 0,0 C 0,2.038 1.665,3.69 3.72,3.69 5.774,3.69 7.44,2.038 7.44,0 7.44,-2.038 5.774,-3.69 3.72,-3.69 1.665,-3.69 0,-2.038 0,0"
         style="fill:#ff0000;fill-opacity:1;fill-rule:evenodd;stroke:none"
         transform="matrix(1.3333333,0,0,-1.3333333,18310.88,503.24)"
         clip-path="url(#clipPath313)" />
    </g>
    <text
       id="text315"
       xml:space="preserve"
       x="125.90187"
       y="71.140388"
       style="font-size:4.23333px;stroke-width:0.352778"><tspan
         id="tspan315"
         style="font-variant:normal;font-weight:normal;font-stretch:normal;font-size:4.23333px;font-family:Cabin;writing-mode:lr-tb;fill:#000000;fill-opacity:1;fill-rule:nonzero;stroke:none;stroke-width:0.352778"
         x="125.90187"
         dx="0 0 0.1397 0.7196666 0.084666662"
         y="71.140388">(𝑥,𝑦)</tspan><tspan
         id="tspan316"
         style="font-variant:normal;font-weight:normal;font-stretch:normal;font-size:4.23333px;font-family:Cabin;writing-mode:lr-tb;fill:#000000;fill-opacity:1;fill-rule:nonzero;stroke:none;stroke-width:0.352778"
         x="125.97807"
         dx="0 0 0.1397 0.7196666 0.084666662"
         y="112.29262">(𝑥,𝑦)</tspan><tspan
         id="tspan317"
         style="font-variant:normal;font-weight:normal;font-stretch:normal;font-size:4.23333px;font-family:Cabin;writing-mode:lr-tb;fill:#000000;fill-opacity:1;fill-rule:nonzero;stroke:none;stroke-width:0.352778"
         x="131.54491"
         dx="0 0 1.0710332 0.96519995 0.0889 0.7196666 1.0371666 0.94403332 0.11006666"
         y="119.02785">(𝑥+𝑢,𝑦+𝑣)</tspan></text>
  </g>
  <g
     transform="matrix(0.352778,0,0,0.352778,46.262482,3.3185568)"
     ns2:version="1.10.2"
     ns2:texconverter="pdflatex"
     ns2:pdfconverter="inkscape"
     ns2:text="$I_{0}$"
     ns2:preamble="/home/taihu/Documents/material-robotica-movil-rosario/common/math_preamble.tex"
     ns2:scale="1.0"
     ns2:alignment="middle center"
     ns2:stroke-to-path="0"
     ns2:inkscapeversion="1.4.2"
     ns2:jacobian_sqrt="0.352778"
     id="g3">
    <defs
       id="id-7578ea0a-3206-4dfc-aeaa-b7f55ccd6555">
      <g
         id="id-aec56285-5e0c-4f45-8eaf-291c6290b595">
        <g
           id="id-c11844e9-4469-49f1-b18e-bcab2dbd202e">
          <path
             d="M 3.734375,-6.046875 C 3.8125,-6.40625 3.84375,-6.5 4.640625,-6.5 c 0.234375,0 0.3125,0 0.3125,-0.1875 0,-0.125 -0.109375,-0.125 -0.140625,-0.125 -0.296875,0 -1.03125,0.03125 -1.328125,0.03125 -0.296875,0 -1.015625,-0.03125 -1.328125,-0.03125 -0.0625,0 -0.1875,0 -0.1875,0.203125 C 1.96875,-6.5 2.046875,-6.5 2.25,-6.5 c 0.40625,0 0.6875,0 0.6875,0.1875 0,0.046875 0,0.078125 -0.03125,0.15625 l -1.34375,5.375 c -0.09375,0.375 -0.109375,0.46875 -0.90625,0.46875 -0.234375,0 -0.3125,0 -0.3125,0.203125 C 0.34375,0 0.453125,0 0.484375,0 0.78125,0 1.5,-0.03125 1.796875,-0.03125 2.09375,-0.03125 2.828125,0 3.125,0 c 0.078125,0 0.203125,0 0.203125,-0.1875 0,-0.125 -0.078125,-0.125 -0.296875,-0.125 -0.1875,0 -0.234375,0 -0.421875,-0.015625 -0.21875,-0.015625 -0.25,-0.0625 -0.25,-0.171875 0,-0.078125 0.015625,-0.15625 0.03125,-0.234375 z m 0,0"
             id="id-c94d07d8-60ba-4d12-89f2-91baab921307" />
        </g>
        <g
           id="id-1340f889-6793-41b7-913c-cc966a828053">
          <path
             d="M 3.59375,-2.21875 C 3.59375,-2.984375 3.5,-3.546875 3.1875,-4.03125 2.96875,-4.34375 2.53125,-4.625 1.984375,-4.625 c -1.625,0 -1.625,1.90625 -1.625,2.40625 0,0.5 0,2.359375 1.625,2.359375 1.609375,0 1.609375,-1.859375 1.609375,-2.359375 z M 1.984375,-0.0625 c -0.328125,0 -0.75,-0.1875 -0.890625,-0.75 C 1,-1.21875 1,-1.796875 1,-2.3125 1,-2.828125 1,-3.359375 1.09375,-3.734375 1.25,-4.28125 1.6875,-4.4375 1.984375,-4.4375 c 0.375,0 0.734375,0.234375 0.859375,0.640625 0.109375,0.375 0.125,0.875 0.125,1.484375 0,0.515625 0,1.03125 -0.09375,1.46875 -0.140625,0.640625 -0.609375,0.78125 -0.890625,0.78125 z m 0,0"
             id="id-6e7f16f3-3da9-49ae-953f-da0d4a0b35ca" />
        </g>
      </g>
    </defs>
    <g
       fill="#000000"
       fill-opacity="1"
       id="id-aeb7119d-0b25-4021-804d-729bdece8679"
       transform="translate(-149.056,-127.953)">
      <g
         transform="translate(148.712,134.765)"
         id="g1">
        <path
           d="M 3.734375,-6.046875 C 3.8125,-6.40625 3.84375,-6.5 4.640625,-6.5 c 0.234375,0 0.3125,0 0.3125,-0.1875 0,-0.125 -0.109375,-0.125 -0.140625,-0.125 -0.296875,0 -1.03125,0.03125 -1.328125,0.03125 -0.296875,0 -1.015625,-0.03125 -1.328125,-0.03125 -0.0625,0 -0.1875,0 -0.1875,0.203125 C 1.96875,-6.5 2.046875,-6.5 2.25,-6.5 c 0.40625,0 0.6875,0 0.6875,0.1875 0,0.046875 0,0.078125 -0.03125,0.15625 l -1.34375,5.375 c -0.09375,0.375 -0.109375,0.46875 -0.90625,0.46875 -0.234375,0 -0.3125,0 -0.3125,0.203125 C 0.34375,0 0.453125,0 0.484375,0 0.78125,0 1.5,-0.03125 1.796875,-0.03125 2.09375,-0.03125 2.828125,0 3.125,0 c 0.078125,0 0.203125,0 0.203125,-0.1875 0,-0.125 -0.078125,-0.125 -0.296875,-0.125 -0.1875,0 -0.234375,0 -0.421875,-0.015625 -0.21875,-0.015625 -0.25,-0.0625 -0.25,-0.171875 0,-0.078125 0.015625,-0.15625 0.03125,-0.234375 z m 0,0"
           id="id-a08955e7-e410-45d0-8d0d-3129ad515e0e" />
      </g>
    </g>
    <g
       fill="#000000"
       fill-opacity="1"
       id="id-c94122f6-0370-4904-b99b-b713ef61e1d7"
       transform="translate(-149.056,-127.953)">
      <g
         transform="translate(153.092,136.259)"
         id="g2">
        <path
           d="M 3.59375,-2.21875 C 3.59375,-2.984375 3.5,-3.546875 3.1875,-4.03125 2.96875,-4.34375 2.53125,-4.625 1.984375,-4.625 c -1.625,0 -1.625,1.90625 -1.625,2.40625 0,0.5 0,2.359375 1.625,2.359375 1.609375,0 1.609375,-1.859375 1.609375,-2.359375 z M 1.984375,-0.0625 c -0.328125,0 -0.75,-0.1875 -0.890625,-0.75 C 1,-1.21875 1,-1.796875 1,-2.3125 1,-2.828125 1,-3.359375 1.09375,-3.734375 1.25,-4.28125 1.6875,-4.4375 1.984375,-4.4375 c 0.375,0 0.734375,0.234375 0.859375,0.640625 0.109375,0.375 0.125,0.875 0.125,1.484375 0,0.515625 0,1.03125 -0.09375,1.46875 -0.140625,0.640625 -0.609375,0.78125 -0.890625,0.78125 z m 0,0"
           id="id-c6764bf5-b7c6-4d6d-9122-47854002c32b" />
      </g>
    </g>
  </g>
  <g
     transform="matrix(0.352778,0,0,0.352778,46.77831,44.219524)"
     ns2:version="1.10.2"
     ns2:texconverter="pdflatex"
     ns2:pdfconverter="inkscape"
     ns2:text="$I_{1}$"
     ns2:preamble="/home/taihu/Documents/material-robotica-movil-rosario/common/math_preamble.tex"
     ns2:scale="1.0"
     ns2:alignment="middle center"
     ns2:stroke-to-path="0"
     ns2:inkscapeversion="1.4.2"
     ns2:jacobian_sqrt="0.352778"
     id="g9">
    <defs
       id="id-3335a37e-b793-4071-97f7-623fad314e8e">
      <g
         id="id-bda18c02-80c4-4458-9e4f-2713273b0bda">
        <g
           id="id-67dfa94b-1378-4ec9-90f9-27fa1f7d9b86">
          <path
             d="M 3.734375,-6.046875 C 3.8125,-6.40625 3.84375,-6.5 4.640625,-6.5 c 0.234375,0 0.3125,0 0.3125,-0.1875 0,-0.125 -0.109375,-0.125 -0.140625,-0.125 -0.296875,0 -1.03125,0.03125 -1.328125,0.03125 -0.296875,0 -1.015625,-0.03125 -1.328125,-0.03125 -0.0625,0 -0.1875,0 -0.1875,0.203125 C 1.96875,-6.5 2.046875,-6.5 2.25,-6.5 c 0.40625,0 0.6875,0 0.6875,0.1875 0,0.046875 0,0.078125 -0.03125,0.15625 l -1.34375,5.375 c -0.09375,0.375 -0.109375,0.46875 -0.90625,0.46875 -0.234375,0 -0.3125,0 -0.3125,0.203125 C 0.34375,0 0.453125,0 0.484375,0 0.78125,0 1.5,-0.03125 1.796875,-0.03125 2.09375,-0.03125 2.828125,0 3.125,0 c 0.078125,0 0.203125,0 0.203125,-0.1875 0,-0.125 -0.078125,-0.125 -0.296875,-0.125 -0.1875,0 -0.234375,0 -0.421875,-0.015625 -0.21875,-0.015625 -0.25,-0.0625 -0.25,-0.171875 0,-0.078125 0.015625,-0.15625 0.03125,-0.234375 z m 0,0"
             id="id-af7da6a4-02dc-46ac-82eb-aa9915c5ca35" />
        </g>
        <g
           id="id-97180a53-5b19-4d11-81f4-90f841af42d7">
          <path
             d="m 2.328125,-4.4375 c 0,-0.1875 0,-0.1875 -0.203125,-0.1875 -0.453125,0.4375 -1.078125,0.4375 -1.359375,0.4375 v 0.25 c 0.15625,0 0.625,0 1,-0.1875 v 3.546875 c 0,0.234375 0,0.328125 -0.6875,0.328125 H 0.8125 V 0 c 0.125,0 0.984375,-0.03125 1.234375,-0.03125 0.21875,0 1.09375,0.03125 1.25,0.03125 V -0.25 H 3.03125 c -0.703125,0 -0.703125,-0.09375 -0.703125,-0.328125 z m 0,0"
             id="id-e8b0316d-08e9-4c67-a3f1-96002a8556b9" />
        </g>
      </g>
    </defs>
    <g
       fill="#000000"
       fill-opacity="1"
       id="id-31e02658-cc22-418a-939a-5589046dfbf0"
       transform="translate(-149.056,-127.953)">
      <g
         transform="translate(148.712,134.765)"
         id="g7">
        <path
           d="M 3.734375,-6.046875 C 3.8125,-6.40625 3.84375,-6.5 4.640625,-6.5 c 0.234375,0 0.3125,0 0.3125,-0.1875 0,-0.125 -0.109375,-0.125 -0.140625,-0.125 -0.296875,0 -1.03125,0.03125 -1.328125,0.03125 -0.296875,0 -1.015625,-0.03125 -1.328125,-0.03125 -0.0625,0 -0.1875,0 -0.1875,0.203125 C 1.96875,-6.5 2.046875,-6.5 2.25,-6.5 c 0.40625,0 0.6875,0 0.6875,0.1875 0,0.046875 0,0.078125 -0.03125,0.15625 l -1.34375,5.375 c -0.09375,0.375 -0.109375,0.46875 -0.90625,0.46875 -0.234375,0 -0.3125,0 -0.3125,0.203125 C 0.34375,0 0.453125,0 0.484375,0 0.78125,0 1.5,-0.03125 1.796875,-0.03125 2.09375,-0.03125 2.828125,0 3.125,0 c 0.078125,0 0.203125,0 0.203125,-0.1875 0,-0.125 -0.078125,-0.125 -0.296875,-0.125 -0.1875,0 -0.234375,0 -0.421875,-0.015625 -0.21875,-0.015625 -0.25,-0.0625 -0.25,-0.171875 0,-0.078125 0.015625,-0.15625 0.03125,-0.234375 z m 0,0"
           id="id-b6c25719-8ed4-4327-9061-6d8856a4f52a" />
      </g>
    </g>
    <g
       fill="#000000"
       fill-opacity="1"
       id="id-e61a8157-eb50-47b1-8ef0-14e1fa269746"
       transform="translate(-149.056,-127.953)">
      <g
         transform="translate(153.092,136.259)"
         id="g8">
        <path
           d="m 2.328125,-4.4375 c 0,-0.1875 0,-0.1875 -0.203125,-0.1875 -0.453125,0.4375 -1.078125,0.4375 -1.359375,0.4375 v 0.25 c 0.15625,0 0.625,0 1,-0.1875 v 3.546875 c 0,0.234375 0,0.328125 -0.6875,0.328125 H 0.8125 V 0 c 0.125,0 0.984375,-0.03125 1.234375,-0.03125 0.21875,0 1.09375,0.03125 1.25,0.03125 V -0.25 H 3.03125 c -0.703125,0 -0.703125,-0.09375 -0.703125,-0.328125 z m 0,0"
           id="id-83f0a327-a556-4ad3-a166-5bc7fa66bb91" />
      </g>
    </g>
  </g>
</svg>
