<?xml version="1.0" encoding="UTF-8" standalone="no"?>
<!-- Created with Serif DrawPlus 11, 0, 3, 23 (Feb 25, 14:12:55) (http://www.serif.com) -->

<svg
   version="1.1"
   width="94.371109"
   height="147.334"
   id="svg26"
   sodipodi:docname="axis_angle_vector.svg"
   inkscape:version="1.1 (1:1.1+202105261517+ce6663b3b7)"
   xmlns:inkscape="http://www.inkscape.org/namespaces/inkscape"
   xmlns:sodipodi="http://sodipodi.sourceforge.net/DTD/sodipodi-0.dtd"
   xmlns="http://www.w3.org/2000/svg"
   xmlns:svg="http://www.w3.org/2000/svg">
  <defs
     id="defs30" />
  <sodipodi:namedview
     id="namedview28"
     pagecolor="#ffffff"
     bordercolor="#666666"
     borderopacity="1.0"
     inkscape:pageshadow="2"
     inkscape:pageopacity="0.0"
     inkscape:pagecheckerboard="0"
     showgrid="false"
     fit-margin-top="0"
     fit-margin-left="0"
     fit-margin-right="0"
     fit-margin-bottom="0"
     inkscape:zoom="4.961128"
     inkscape:cx="46.763559"
     inkscape:cy="71.455524"
     inkscape:window-width="1920"
     inkscape:window-height="1022"
     inkscape:window-x="1365"
     inkscape:window-y="0"
     inkscape:window-maximized="1"
     inkscape:current-layer="svg26" />
  <g
     id="dp_group001"
     transform="translate(-101.225,-361.963)">
    <text
       id="dp_text001"
       transform="matrix(1.03503,0,0,1,128.398,442.979)"
       xml:space="preserve"
       fill="#2a04e8"
       font-family="Arial"
       font-size="14px"
       font-weight="700"
       x="0"
       y="0">e</text>
    <text
       id="dp_text002"
       transform="matrix(1.03919,0,0,1,128.078,442.979)"
       xml:space="preserve"
       fill="#2a04e8"
       font-family="'MathematicalPi 4'"
       font-size="14px"
       font-weight="400"
       font-style="italic"
       x="8.1546698"
       y="0"> </text>
    <path
       id="dp_path004"
       fill="#e14f06"
       fill-rule="evenodd"
       d="m 158.755,487.245 c 0.432,-0.009 0.866,-0.156 1.302,-0.44 0.423,-0.269 0.826,-0.636 1.21,-1.093 0.782,-0.96 1.389,-2.061 1.821,-3.304 0.208,-0.615 0.356,-1.209 0.445,-1.787 0.075,-0.574 0.072,-1.094 -0.009,-1.556 -0.069,-0.46 -0.225,-0.83 -0.46,-1.105 -0.248,-0.273 -0.585,-0.408 -1.015,-0.408 -0.42,0 -0.842,0.135 -1.265,0.408 -0.425,0.275 -0.835,0.645 -1.227,1.105 -0.805,0.974 -1.421,2.087 -1.846,3.343 -0.423,1.243 -0.562,2.344 -0.412,3.304 0.08,0.457 0.241,0.824 0.478,1.093 0.236,0.284 0.559,0.431 0.978,0.44 z m 2.961,-4.824 -0.289,0.848 c -0.371,1.096 -0.768,1.968 -1.191,2.615 -0.443,0.672 -0.899,1.012 -1.367,1.023 -0.444,-0.011 -0.657,-0.351 -0.638,-1.023 -0.004,-0.647 0.181,-1.519 0.552,-2.615 l 0.289,-0.848 z m -2.46,-0.541 0.348,-1.024 c 0.265,-0.785 0.603,-1.467 1.009,-2.044 0.208,-0.281 0.424,-0.508 0.647,-0.679 0.22,-0.161 0.445,-0.242 0.673,-0.242 0.247,0 0.424,0.081 0.536,0.242 0.108,0.171 0.168,0.398 0.186,0.679 -0.004,0.577 -0.14,1.259 -0.406,2.044 l -0.35,1.024 z" />
    <path
       id="dp_path005"
       fill="none"
       fill-rule="evenodd"
       stroke="#e16806"
       stroke-width="2"
       d="m 104.563,423.537 c 7.465,-13.07 30.585,-15.156 51.64,-4.657 21.053,10.497 32.068,29.604 24.604,42.675 -3.904,6.832 -12.083,10.664 -22.01,11.265" />
    <g
       id="dp_group006">
      <text
         id="dp_text003"
         transform="matrix(1.04016,0,0,1,170.681,371.675)"
         xml:space="preserve"
         fill="#058510"
         font-family="Arial"
         font-size="14px"
         font-weight="400"
         x="0"
         y="0">=</text>
      <text
         id="dp_text004"
         transform="matrix(1.03858,0,0,1,170.349,371.675)"
         xml:space="preserve"
         fill="#058510"
         font-family="Arial"
         font-size="14px"
         font-weight="400"
         x="8.6079998"
         y="0">  </text>
      <text
         id="dp_text005"
         transform="matrix(1.03503,0,0,1,170.094,371.675)"
         xml:space="preserve"
         fill="#058510"
         font-family="Arial"
         font-size="14px"
         font-weight="700"
         x="16.76"
         y="0">e</text>
      <text
         id="dp_text006"
         transform="matrix(1.03919,0,0,1,169.705,371.675)"
         xml:space="preserve"
         fill="#058510"
         font-family="'MathematicalPi 4'"
         font-size="14px"
         font-weight="400"
         font-style="italic"
         x="24.9147"
         y="0"> </text>
      <path
         id="dp_path011"
         fill="#058510"
         fill-rule="evenodd"
         d="m 182.212,372.148 c 0.432,-0.009 0.867,-0.156 1.303,-0.44 0.422,-0.271 0.826,-0.636 1.209,-1.093 0.783,-0.96 1.389,-2.062 1.821,-3.304 0.208,-0.616 0.356,-1.21 0.446,-1.787 0.074,-0.576 0.072,-1.095 -0.01,-1.556 -0.069,-0.461 -0.225,-0.831 -0.46,-1.105 -0.248,-0.275 -0.585,-0.408 -1.014,-0.408 -0.42,0 -0.843,0.133 -1.266,0.408 -0.425,0.274 -0.834,0.644 -1.226,1.105 -0.806,0.973 -1.422,2.087 -1.847,3.343 -0.423,1.242 -0.56,2.344 -0.412,3.304 0.08,0.457 0.241,0.822 0.479,1.093 0.236,0.284 0.558,0.431 0.977,0.44 z m 2.961,-4.824 -0.289,0.847 c -0.371,1.097 -0.768,1.969 -1.189,2.616 -0.443,0.672 -0.9,1.012 -1.368,1.022 -0.444,-0.01 -0.658,-0.35 -0.639,-1.022 -0.004,-0.647 0.181,-1.519 0.552,-2.616 l 0.289,-0.847 z m -2.46,-0.541 0.348,-1.024 c 0.266,-0.786 0.603,-1.467 1.01,-2.044 0.208,-0.282 0.424,-0.508 0.646,-0.679 0.22,-0.161 0.446,-0.244 0.674,-0.244 0.246,0 0.424,0.083 0.536,0.244 0.108,0.171 0.168,0.397 0.185,0.679 -0.004,0.577 -0.14,1.258 -0.405,2.044 l -0.351,1.024 z" />
      <path
         id="dp_path012"
         fill="#058510"
         fill-rule="evenodd"
         d="m 166.244,361.963 c -0.989,0.009 -1.961,0.472 -2.912,1.388 -0.959,0.912 -1.705,2.108 -2.237,3.589 -0.512,1.479 -0.61,2.669 -0.292,3.577 0.305,0.916 0.949,1.383 1.929,1.402 1.012,-0.019 1.995,-0.486 2.945,-1.402 0.94,-0.908 1.678,-2.098 2.212,-3.577 0.51,-1.481 0.615,-2.677 0.318,-3.589 -0.306,-0.916 -0.959,-1.379 -1.963,-1.388 z m -2.912,5.046 h 2.268 l -0.496,1.406 c -0.237,0.697 -0.536,1.382 -0.897,2.057 -0.183,0.319 -0.386,0.573 -0.606,0.761 -0.228,0.222 -0.476,0.334 -0.746,0.334 -0.244,0 -0.406,-0.112 -0.482,-0.334 -0.082,-0.188 -0.105,-0.442 -0.066,-0.761 0.097,-0.675 0.274,-1.36 0.529,-2.057 z m 0.495,-1.398 c 0.28,-0.824 0.614,-1.571 1,-2.242 0.113,-0.161 0.221,-0.31 0.329,-0.444 0.095,-0.129 0.196,-0.238 0.301,-0.326 0.219,-0.19 0.439,-0.284 0.663,-0.284 0.244,0 0.411,0.094 0.499,0.284 0.085,0.189 0.108,0.448 0.064,0.77 -0.103,0.671 -0.299,1.418 -0.588,2.242 l -0.288,0.81 h -2.268 z" />
    </g>
    <g
       id="dp_group013">
      <g
         id="dp_group014">
        <path
           id="dp_path015"
           fill="#058510"
           fill-rule="evenodd"
           d="m 173.433,384.727 2.34,1.277 4.682,2.555 0.537,-14.898 -12.24,8.51 z" />
        <path
           id="dp_path016"
           fill="#058510"
           d="m 173.433,384.727 -67.304,123.293 2.342,1.277 67.304,-123.293 z" />
      </g>
    </g>
    <g
       id="dp_group017">
      <g
         id="dp_group018">
        <path
           id="dp_path019"
           fill="#2a04e8"
           fill-rule="evenodd"
           d="m 136.161,452.284 2.348,1.265 4.695,2.531 0.456,-14.9 -12.193,8.575 z" />
        <path
           id="dp_path020"
           fill="#2a04e8"
           d="m 136.163,452.285 -30.036,55.742 2.346,1.264 30.036,-55.742 z" />
      </g>
    </g>
    <g
       id="dp_group021">
      <g
         id="dp_group022">
        <path
           id="dp_path023"
           fill="#e16806"
           fill-rule="evenodd"
           d="m 148.853,471.372 -0.09,1.999 -0.179,3.996 10.213,-4.547 -9.765,-5.444 z" />
        <path
           id="dp_path024"
           fill="#e16806"
           d="m 148.855,471.373 -0.207,-0.009 -0.409,-0.06 -0.458,-0.071 -0.457,-0.074 -0.456,-0.079 -0.46,-0.084 -0.46,-0.087 -0.461,-0.09 -0.46,-0.094 -0.463,-0.1 -0.464,-0.102 -0.463,-0.108 -0.465,-0.11 -0.464,-0.116 -0.465,-0.118 -0.468,-0.124 -0.467,-0.127 -0.467,-0.131 -0.469,-0.134 -0.465,-0.139 -0.47,-0.145 -0.469,-0.147 -0.468,-0.151 -0.469,-0.156 -0.47,-0.16 -0.468,-0.164 -0.47,-0.168 -0.47,-0.17 -0.469,-0.176 -0.467,-0.179 -0.469,-0.185 -0.471,-0.19 -0.466,-0.19 -0.468,-0.198 -0.47,-0.201 -0.468,-0.204 -0.466,-0.208 -0.466,-0.212 -0.466,-0.219 -0.467,-0.221 -0.464,-0.224 -0.465,-0.231 -0.484,-0.244 -0.482,-0.246 -0.476,-0.25 -0.473,-0.253 -0.471,-0.257 -0.465,-0.259 -0.463,-0.261 -0.457,-0.264 -0.455,-0.267 -0.449,-0.269 -0.447,-0.274 -0.442,-0.274 -0.438,-0.278 -0.437,-0.281 -0.429,-0.283 -0.427,-0.285 -0.423,-0.288 -0.418,-0.289 -0.415,-0.294 -0.411,-0.293 -0.405,-0.297 -0.401,-0.299 -0.399,-0.303 -0.393,-0.302 -0.39,-0.304 -0.385,-0.31 -0.381,-0.308 -0.376,-0.312 -0.372,-0.314 -0.37,-0.315 -0.362,-0.315 -0.359,-0.32 -0.355,-0.318 -0.349,-0.324 -0.347,-0.324 -0.341,-0.326 -0.337,-0.326 -0.331,-0.328 -0.328,-0.331 -0.323,-0.331 -0.318,-0.333 -0.315,-0.333 -0.309,-0.335 -0.304,-0.337 -0.299,-0.336 -0.295,-0.34 -0.29,-0.34 -0.286,-0.342 -0.28,-0.341 -0.274,-0.343 -0.272,-0.345 -0.267,-0.344 -0.26,-0.345 -0.256,-0.347 -0.251,-0.348 -0.246,-0.348 -0.243,-0.348 -0.235,-0.348 -0.232,-0.351 -0.225,-0.349 -0.22,-0.351 -0.216,-0.353 -0.212,-0.352 -0.205,-0.351 -0.2,-0.352 -0.195,-0.353 -0.192,-0.353 -0.184,-0.352 -0.18,-0.352 -0.173,-0.354 -0.17,-0.354 -0.164,-0.351 -0.157,-0.355 -0.153,-0.352 -0.147,-0.353 -0.143,-0.353 -0.138,-0.354 -0.131,-0.349 -0.124,-0.352 -0.121,-0.352 -0.115,-0.352 -0.111,-0.352 -0.104,-0.347 -0.097,-0.35 -0.093,-0.351 -0.088,-0.348 -0.082,-0.345 -0.076,-0.347 -0.069,-0.348 -0.065,-0.344 -0.059,-0.344 -0.055,-0.345 -0.048,-0.343 -0.041,-0.341 -0.037,-0.34 -0.031,-0.34 -0.025,-0.34 -0.019,-0.335 -0.013,-0.336 -0.008,-0.337 -0.002,-0.336 0.003,-0.332 0.011,-0.331 0.014,-0.331 0.022,-0.326 0.028,-0.33 0.033,-0.326 0.039,-0.323 0.045,-0.324 0.051,-0.323 0.057,-0.318 0.063,-0.319 0.069,-0.316 0.075,-0.316 0.081,-0.315 0.087,-0.31 0.093,-0.311 0.099,-0.309 0.105,-0.306 0.112,-0.304 0.119,-0.306 0.122,-0.302 0.131,-0.298 0.136,-0.298 0.143,-0.294 0.15,-0.296 0.155,-0.292 0.168,-0.298 -1.747,-0.976 -0.176,0.319 -0.173,0.327 -0.167,0.328 -0.161,0.332 -0.152,0.334 -0.147,0.336 -0.138,0.339 -0.132,0.339 -0.126,0.341 -0.118,0.345 -0.112,0.347 -0.104,0.348 -0.098,0.351 -0.089,0.349 -0.085,0.351 -0.078,0.356 -0.07,0.356 -0.063,0.358 -0.056,0.358 -0.051,0.358 -0.044,0.363 -0.036,0.361 -0.03,0.364 -0.024,0.367 -0.018,0.365 -0.01,0.366 -0.006,0.369 0.004,0.368 0.008,0.367 0.014,0.37 0.021,0.372 0.028,0.372 0.033,0.372 0.04,0.375 0.047,0.373 0.053,0.375 0.058,0.372 0.064,0.376 0.07,0.376 0.078,0.375 0.081,0.376 0.089,0.377 0.094,0.377 0.101,0.375 0.105,0.377 0.112,0.379 0.119,0.376 0.123,0.376 0.129,0.379 0.135,0.376 0.141,0.378 0.147,0.378 0.15,0.374 0.158,0.378 0.164,0.376 0.168,0.376 0.174,0.377 0.18,0.373 0.184,0.375 0.191,0.376 0.197,0.373 0.2,0.372 0.206,0.372 0.213,0.374 0.216,0.372 0.223,0.37 0.226,0.37 0.234,0.369 0.238,0.371 0.243,0.366 0.248,0.367 0.253,0.367 0.258,0.364 0.264,0.364 0.266,0.362 0.276,0.364 0.278,0.36 0.282,0.359 0.288,0.359 0.294,0.357 0.298,0.357 0.302,0.354 0.308,0.353 0.312,0.352 0.317,0.351 0.323,0.35 0.325,0.347 0.332,0.347 0.336,0.344 0.339,0.341 0.346,0.344 0.351,0.337 0.352,0.339 0.36,0.335 0.363,0.334 0.368,0.332 0.372,0.331 0.378,0.331 0.38,0.325 0.386,0.323 0.389,0.322 0.395,0.322 0.398,0.317 0.403,0.317 0.407,0.314 0.412,0.31 0.414,0.31 0.422,0.308 0.424,0.304 0.428,0.301 0.432,0.3 0.436,0.296 0.44,0.296 0.445,0.291 0.448,0.289 0.453,0.288 0.456,0.283 0.46,0.281 0.466,0.277 0.468,0.278 0.473,0.272 0.476,0.269 0.479,0.267 0.484,0.262 0.486,0.262 0.492,0.257 0.495,0.255 0.5,0.252 0.479,0.236 0.48,0.232 0.477,0.226 0.48,0.224 0.481,0.22 0.483,0.216 0.481,0.21 0.48,0.206 0.484,0.203 0.483,0.199 0.481,0.192 0.483,0.19 0.485,0.187 0.486,0.181 0.482,0.176 0.482,0.174 0.486,0.169 0.483,0.163 0.483,0.161 0.484,0.156 0.482,0.152 0.483,0.148 0.484,0.144 0.483,0.14 0.482,0.136 0.483,0.129 0.479,0.127 0.481,0.124 0.483,0.119 0.478,0.114 0.479,0.111 0.48,0.105 0.476,0.103 0.479,0.099 0.477,0.093 0.473,0.089 0.476,0.087 0.475,0.081 0.473,0.078 0.471,0.073 0.516,0.076 0.305,0.015 z" />
      </g>
    </g>
  </g>
</svg>
