<?xml version="1.0" encoding="UTF-8" standalone="no"?>
<!-- Created with Inkscape (http://www.inkscape.org/) -->

<svg
   width="63.686615mm"
   height="48.040573mm"
   viewBox="0 0 63.686615 48.040573"
   version="1.1"
   id="svg5"
   inkscape:version="1.1 (1:1.1+202105261517+ce6663b3b7)"
   sodipodi:docname="rotation.svg"
   xmlns:inkscape="http://www.inkscape.org/namespaces/inkscape"
   xmlns:sodipodi="http://sodipodi.sourceforge.net/DTD/sodipodi-0.dtd"
   xmlns="http://www.w3.org/2000/svg"
   xmlns:svg="http://www.w3.org/2000/svg">
  <sodipodi:namedview
     id="namedview7"
     pagecolor="#ffffff"
     bordercolor="#666666"
     borderopacity="1.0"
     inkscape:pageshadow="2"
     inkscape:pageopacity="0.0"
     inkscape:pagecheckerboard="0"
     inkscape:document-units="mm"
     showgrid="false"
     fit-margin-top="0"
     fit-margin-left="0"
     fit-margin-right="0"
     fit-margin-bottom="0"
     inkscape:zoom="1.2220607"
     inkscape:cx="121.10692"
     inkscape:cy="117.01547"
     inkscape:window-width="1920"
     inkscape:window-height="881"
     inkscape:window-x="1365"
     inkscape:window-y="0"
     inkscape:window-maximized="1"
     inkscape:current-layer="g830" />
  <defs
     id="defs2" />
  <g
     inkscape:label="Layer 1"
     inkscape:groupmode="layer"
     id="layer1"
     transform="translate(-75.929826,-196.95662)">
    <g
       id="g830"
       inkscape:label="Peter Corke - Robotics, Vision and Control_ Fundamental Algorithms In MATLAB 2ed"
       transform="matrix(0.35277777,0,0,-0.35277777,-6.1215006,257.95012)">
      <g
         id="g3751"
         transform="translate(-82.496383,29.387232)">
        <g
           id="g2034"
           transform="matrix(1.00044,0,0,0.99957,16.867826,-132.01329)">
          <g
             id="g2036"
             transform="translate(355.42401,167.45399)">
            <path
               d="m 0,0 106.831,0.177 m -5.723,2.241 6.135,-2.241 -6.135,-2.242 M -0.177,0 v 92.908997 m -2.242,-5.722001 2.242,6.135003 2.242,-6.135003"
               style="fill:none;stroke:#2e3192;stroke-width:1.238;stroke-linecap:butt;stroke-linejoin:miter;stroke-miterlimit:2.613;stroke-dasharray:none;stroke-opacity:1"
               id="path2038" />
          </g>
        </g>
        <g
           id="g2040"
           transform="matrix(1.00044,0,0,0.99957,16.867826,-132.01329)">
          <g
             id="g2042"
             transform="translate(435.88599,212.58099)">
            <path
               d="M 0,0 -80.461998,-46.424999 -125.059,33.388"
               style="fill:none;stroke:#ed1c24;stroke-width:1.238;stroke-linecap:butt;stroke-linejoin:miter;stroke-miterlimit:2.613;stroke-dasharray:none;stroke-opacity:1"
               id="path2044" />
          </g>
        </g>
        <g
           id="g2046"
           transform="translate(16.867826,-132.01329)">
          <g
             id="g2048"
             transform="translate(436.42999,212.72501)">
            <path
               d="m 0,0 -4.19,-5.013 0.885,3.126 -3.128,0.766 z"
               style="fill:#ed1c24;fill-opacity:1;fill-rule:evenodd;stroke:#ed1c24;stroke-width:0.929;stroke-linecap:butt;stroke-linejoin:miter;stroke-miterlimit:2.613;stroke-dasharray:none;stroke-opacity:1"
               id="path2050" />
          </g>
        </g>
        <g
           id="g2052"
           transform="translate(16.867826,-132.01329)">
          <g
             id="g2054"
             transform="translate(310.72699,246.27499)">
            <path
               d="M 0,0 4.9569998,-4.304 1.888,-3.361 1.062,-6.486 Z"
               style="fill:#ed1c24;fill-opacity:1;fill-rule:evenodd;stroke:#ed1c24;stroke-width:0.929;stroke-linecap:butt;stroke-linejoin:miter;stroke-miterlimit:2.613;stroke-dasharray:none;stroke-opacity:1"
               id="path2056" />
          </g>
        </g>
        <g
           id="g2058"
           transform="translate(16.867826,-132.01329)">
          <g
             id="g2060"
             transform="translate(471.72101,166.379)">
            <path
               d="m 0,0 c -0.118,-0.118 -0.177,-0.177 -0.354,-0.354 -0.295,-0.472 -0.472,-0.59 -0.649,-0.59 -0.236,0 -0.354,0.177 -0.472,0.59 0,0.118 -0.059,0.177 -0.059,0.236 -0.355,1.474 -0.531,2.181 -0.531,2.358 0.649,1.18 1.18,1.8279998 1.475,1.8279998 0.059,0 0.177,-0.059 0.354,-0.1179998 C -0.059,3.832 0,3.773 0.118,3.773 c 0.354,0 0.531,0.2359998 0.531,0.531 0,0.295 -0.236,0.531 -0.59,0.531 -0.649,0 -1.239,-0.531 -2.242,-2.064 l -0.178,0.825 c -0.177,0.944 -0.354,1.239 -0.767,1.239 -0.295,0 -0.767,-0.118 -1.711,-0.413 l -0.1179998,-0.059 0.059,-0.2360001 C -4.367,4.304 -4.249,4.304 -4.072,4.304 c 0.354,0 0.413,-0.1180001 0.649,-1.002 l 0.413,-1.828 -1.18,-1.71 c -0.295,-0.413 -0.59,-0.708 -0.7669998,-0.708 -0.118,0 -0.236,0.059 -0.4130001,0.177 -0.178,0.059 -0.3540001,0.118 -0.4720001,0.118 -0.236,0 -0.473,-0.236 -0.473,-0.531 0,-0.353 0.295,-0.589 0.709,-0.589 0.4720002,0 0.6490002,0.118 1.416,1.002 0.354,0.472 0.708,0.885 1.298,1.71 l 0.413,-1.71 c 0.236,-0.766 0.414,-1.002 0.886,-1.002 0.531,0 0.944,0.353 1.77,1.651 L 0,0"
               style="fill:#2e3192;fill-opacity:1;fill-rule:evenodd;stroke:none"
               id="path2062" />
          </g>
        </g>
        <g
           id="g2064"
           transform="translate(16.867826,-132.01329)">
          <g
             id="g2066"
             transform="translate(478.74399,169.681)">
            <path
               d="m 0,0 h -1.476 v -0.177 c 0.473,-0.059 0.65,-0.177 0.65,-0.413 0,-0.177 -0.177,-0.649 -0.532,-1.297 L -3.6,-5.7199998 -4.367,-0.885 c 0,0 0,0.059 0,0.118 0,0.413 0.177,0.472 0.8260001,0.59 V 0 H -6.138 v -0.177 c 0.591,-0.118 0.6490002,-0.118 0.8850002,-1.474 L -4.367,-7.3119998 h 0.236 L -0.059,-0.649 C -0.04,-0.617 -0.02,-0.586 0,-0.558 V 0"
               style="fill:#2e3192;fill-opacity:1;fill-rule:evenodd;stroke:none"
               id="path2068" />
          </g>
        </g>
        <g
           id="g2070"
           transform="translate(16.867826,-132.01329)">
          <g
             id="g2072"
             transform="translate(352.15601,274.93201)">
            <path
               d="m 0,0 c 0.236,0.059 0.295,0.059 0.472,0.059 0.826,0 1.062,-0.354 1.711,-2.89 C 2.478,-3.774 2.832,-5.543 2.832,-5.7789998 2.832,-6.0149999 2.714,-6.251 2.478,-6.486 2.065,-7.076 1.77,-7.4889998 1.593,-7.6659999 1.298,-7.96 1.121,-8.078 0.885,-8.078 c -0.059,0 -0.177,0 -0.354,0.118 -0.177,0.176 -0.354,0.2940001 -0.531,0.2940001 -0.295,0 -0.531,-0.2940001 -0.531,-0.5890001 0,-0.354 0.294,-0.649 0.708,-0.649 0.944,0 2.891,2.182 4.485,5.13 1.003,1.769 1.416,2.83 1.416,3.538 0,0.471 -0.413,0.825 -0.8260001,0.825 C 4.8979998,0.589 4.662,0.353 4.662,0.059 4.662,-0.177 4.78,-0.354 5.0749998,-0.531 5.3699999,-0.708 5.488,-0.826 5.488,-1.003 c 0,-0.589 -0.5900002,-1.769 -1.83,-3.833 L 3.364,-3.125 C 3.186,-1.828 2.3599999,0.589 2.124,0.589 H 2.065 c 0,0 -0.059,0 -0.118,0 C 1.77,0.589 1.239,0.471 0.472,0.353 0.413,0.295 0.236,0.295 0,0.235 V 0"
               style="fill:#2e3192;fill-opacity:1;fill-rule:evenodd;stroke:none"
               id="path2074" />
          </g>
        </g>
        <g
           id="g2076"
           transform="translate(16.867826,-132.01329)">
          <g
             id="g2078"
             transform="translate(365.43399,273.92899)">
            <path
               d="m 0,0 h -2.066 v -0.177 c 0.532,-0.058 0.709,-0.176 0.709,-0.353 0,-0.236 -0.177,-0.649 -0.59,-1.298 L -4.19,-5.7189999 -4.8979998,-0.884 c 0,0.059 0,0.118 0,0.177 0,0.354 0.1769998,0.472 0.8259998,0.53 V 0 h -2.597 v -0.177 c 0.59,-0.058 0.65,-0.118 0.826,-1.474 l 0.9450002,-5.6009999 H -4.662 L -0.649,-0.589 c 0.236,0.294 0.354,0.412 0.649,0.412 V 0"
               style="fill:#2e3192;fill-opacity:1;fill-rule:evenodd;stroke:none"
               id="path2080" />
          </g>
        </g>
        <g
           id="g2082"
           transform="translate(16.867826,-132.01329)">
          <g
             id="g2084"
             transform="translate(413.17801,167.853)">
            <path
               d="M 0,0 C -0.059,9.257 -2.184,18.337999 -6.256,26.593"
               style="fill:none;stroke:#231f20;stroke-width:0.619;stroke-linecap:butt;stroke-linejoin:miter;stroke-miterlimit:2.613;stroke-dasharray:none;stroke-opacity:1"
               id="path2086" />
          </g>
        </g>
        <g
           id="g2088"
           transform="translate(16.867826,-132.01329)">
          <g
             id="g2090"
             transform="translate(406.25201,195.54201)">
            <path
               d="M 0,0 4.781,-4.54 0.768,-6.545 0,0"
               style="fill:#231f20;fill-opacity:1;fill-rule:evenodd;stroke:none"
               id="path2092" />
          </g>
        </g>
        <g
           id="g2094"
           transform="translate(16.867826,-132.01329)">
          <g
             id="g2096"
             transform="translate(418.548,185.689)">
            <path
               d="m 0,0 c -0.59,0 -1.239,-0.235 -1.888,-0.707 -1.122,-0.826 -2.007,-2.417 -2.42,-4.481 -0.354,-1.8869998 -0.177,-3.4199998 0.531,-4.246 0.472,-0.5299997 1.062,-0.884 1.711,-0.884 0.591,0 1.181,0.236 1.83,0.7080003 1.18,0.8249999 2.007,2.3579998 2.42,4.3629997 0.4129999,2.005 0.236,3.538 -0.473,4.363 C 1.239,-0.353 0.649,0 0,0 Z M 0.59,-5.5419998 C 0.236,-7.1929998 -0.118,-8.137 -0.708,-8.9029999 -1.062,-9.375 -1.593,-9.7279997 -1.948,-9.7279997 c -0.4119999,0 -0.767,0.3529997 -0.944,0.8249998 -0.295,0.7659999 -0.295,1.7100001 0.059,3.3610001 z M -2.715,-4.717 c 0.3550001,1.593 0.767,2.595 1.299,3.361 0.354,0.413 0.944,0.767 1.298,0.767 0.354,0 0.767,-0.354 0.944,-0.767 0.236,-0.766 0.236,-1.768 -0.059,-3.361 h -3.482"
               style="fill:#231f20;fill-opacity:1;fill-rule:evenodd;stroke:none"
               id="path2098" />
          </g>
        </g>
        <g
           id="g2100"
           transform="translate(16.867826,-132.01329)">
          <g
             id="g2102"
             transform="translate(355.578,167.558)">
            <path
               d="M 0,0 H 81.323997"
               style="fill:none;stroke:#f47216;stroke-width:0.929;stroke-linecap:square;stroke-linejoin:miter;stroke-miterlimit:2.613;stroke-dasharray:1.857, 2.786;stroke-dashoffset:0;stroke-opacity:1"
               id="path2104" />
          </g>
        </g>
        <g
           id="g2106"
           transform="translate(16.867826,-132.01329)">
          <g
             id="g2108"
             transform="translate(437.315,167.558)">
            <path
               d="M 0,0 -6.138,-2.241 -3.777,0 -6.138,2.241 Z"
               style="fill:#f47216;fill-opacity:1;fill-rule:evenodd;stroke:#f47216;stroke-width:0.929;stroke-linecap:butt;stroke-linejoin:miter;stroke-miterlimit:2.613;stroke-dasharray:none;stroke-opacity:1"
               id="path2110" />
          </g>
        </g>
        <g
           id="g2112"
           transform="translate(16.867826,-132.01329)">
          <g
             id="g2114"
             transform="translate(309.133,167.558)">
            <path
               d="M 0,0 V 78.953003"
               style="fill:none;stroke:#f47216;stroke-width:0.929;stroke-linecap:square;stroke-linejoin:miter;stroke-miterlimit:2.613;stroke-dasharray:1.857, 2.786;stroke-dashoffset:0;stroke-opacity:1"
               id="path2116" />
          </g>
        </g>
        <g
           id="g2118"
           transform="translate(16.867826,-132.01329)">
          <g
             id="g2120"
             transform="translate(309.133,246.924)">
            <path
               d="M 0,0 2.243,-6.192 0,-3.833 -2.242,-6.192 Z"
               style="fill:#f47216;fill-opacity:1;fill-rule:evenodd;stroke:#f47216;stroke-width:0.929;stroke-linecap:butt;stroke-linejoin:miter;stroke-miterlimit:2.613;stroke-dasharray:none;stroke-opacity:1"
               id="path2122" />
          </g>
        </g>
        <g
           id="g2124"
           transform="translate(16.867826,-132.01329)">
          <g
             id="g2126"
             transform="translate(355.578,167.558)">
            <path
               d="M 0,0 H -46.445"
               style="fill:none;stroke:#f47216;stroke-width:0.929;stroke-linecap:square;stroke-linejoin:miter;stroke-miterlimit:2.613;stroke-dasharray:1.857, 2.786;stroke-dashoffset:0;stroke-opacity:1"
               id="path2128" />
          </g>
        </g>
        <g
           id="g2130"
           transform="translate(16.867826,-132.01329)">
          <g
             id="g2132"
             transform="translate(308.72,167.558)">
            <path
               d="M 0,0 6.138,2.241 3.777,0 6.138,-2.241 Z"
               style="fill:#f47216;fill-opacity:1;fill-rule:evenodd;stroke:#f47216;stroke-width:0.929;stroke-linecap:butt;stroke-linejoin:miter;stroke-miterlimit:2.613;stroke-dasharray:none;stroke-opacity:1"
               id="path2134" />
          </g>
        </g>
        <g
           id="g2136"
           transform="translate(16.867826,-132.01329)">
          <g
             id="g2138"
             transform="translate(436.90201,167.558)">
            <path
               d="M 0,0 V 44.105"
               style="fill:none;stroke:#f47216;stroke-width:0.929;stroke-linecap:square;stroke-linejoin:miter;stroke-miterlimit:2.613;stroke-dasharray:1.857, 2.786;stroke-dashoffset:0;stroke-opacity:1"
               id="path2140" />
          </g>
        </g>
        <g
           id="g2142"
           transform="translate(16.867826,-132.01329)">
          <g
             id="g2144"
             transform="translate(436.90201,212.076)">
            <path
               d="M 0,0 2.242,-6.1329999 0,-3.774 -2.243,-6.1329999 Z"
               style="fill:#f47216;fill-opacity:1;fill-rule:evenodd;stroke:#f47216;stroke-width:0.929;stroke-linecap:butt;stroke-linejoin:miter;stroke-miterlimit:2.613;stroke-dasharray:none;stroke-opacity:1"
               id="path2146" />
          </g>
        </g>
        <g
           id="g2148"
           transform="translate(16.867826,-132.01329)">
          <g
             id="g2150"
             transform="translate(442.095,189.198)">
            <path
               d="M 0,0 -0.059,1.533 H -0.177 C -0.295,1.474 -0.295,1.474 -0.354,1.474 c -0.059,0 -0.177,0 -0.295,0.059 -0.236,0.059 -0.531,0.118 -0.826,0.118 -0.8849999,0 -1.534,-0.59 -1.534,-1.416 0,-0.589 0.354,-1.061 1.357,-1.591 l 0.649,-0.413 c 0.413,-0.236 0.59,-0.472 0.59,-0.826 0,-0.53 -0.354,-0.825 -0.944,-0.825 -0.413,0 -0.767,0.118 -0.944,0.353 -0.236,0.295 -0.354,0.59 -0.532,1.239 h -0.176 v -1.7689999 h 0.176 C -2.773,-3.538 -2.715,-3.479 -2.5969999,-3.479 -2.478,-3.479 -2.301,-3.538 -2.065,-3.5969999 -1.77,-3.6559999 -1.416,-3.715 -1.239,-3.715 c 0.885,0 1.652,0.708 1.652,1.474 0,0.59 -0.295,0.943 -1.003,1.356 l -1.239,0.767 c -0.295,0.177 -0.472,0.471 -0.472,0.766 0,0.472 0.354,0.767 0.885,0.767 0.649,0 1.003,-0.413 1.239,-1.415 L 0,0"
               style="fill:#ed1c24;fill-opacity:1;fill-rule:evenodd;stroke:none"
               id="path2152" />
          </g>
        </g>
        <g
           id="g2154"
           transform="translate(16.867826,-132.01329)">
          <g
             id="g2156"
             transform="translate(444.92801,190.849)">
            <path
               d="m 0,0 -1.771,-0.59 v -0.177 h 0.118 c 0.119,0 0.296,0.059 0.355,0.059 0.295,0 0.413,-0.177 0.413,-0.708 V -4.0689998 C -0.885,-4.894 -1.003,-5.012 -1.771,-5.071 v -0.177 h 2.656 v 0.177 C 0.177,-5.012 0.059,-4.894 0.059,-4.0689998 V 0 Z m -0.531,2.594 c -0.295,0 -0.531,-0.295 -0.531,-0.59 0,-0.353 0.236,-0.589 0.531,-0.589 0.354,0 0.59,0.236 0.59,0.589 0,0.295 -0.236,0.59 -0.59,0.59"
               style="fill:#ed1c24;fill-opacity:1;fill-rule:evenodd;stroke:none"
               id="path2158" />
          </g>
        </g>
        <g
           id="g2160"
           transform="translate(16.867826,-132.01329)">
          <g
             id="g2162"
             transform="translate(446.285,190.14101)">
            <path
               d="m 0,0 c 0.118,0.059 0.237,0.059 0.355,0.059 0.294,0 0.412,-0.177 0.412,-0.707 v -2.831 c 0,-0.6479999 -0.118,-0.825 -0.708,-0.884 V -4.54 h 2.42 v 0.177 c -0.59,0.059 -0.767,0.1770001 -0.767,0.589 v 3.244 c 0.531,0.471 0.826,0.648 1.18,0.648 0.59,0 0.826,-0.354 0.826,-1.12 V -3.42 C 3.718,-4.1269999 3.6,-4.304 3.01,-4.363 V -4.54 h 2.3609998 v 0.177 C 4.84,-4.304 4.663,-4.1269999 4.663,-3.5969999 V -1.002 c 0,1.12 -0.473,1.71 -1.299,1.71 -0.531,0 -0.885,-0.177 -1.652,-0.885 V 0.708 H 1.594 C 1.063,0.531 0.649,0.413 0,0.236 V 0"
               style="fill:#ed1c24;fill-opacity:1;fill-rule:evenodd;stroke:none"
               id="path2164" />
          </g>
        </g>
        <g
           id="g2166"
           transform="translate(16.867826,-132.01329)">
          <g
             id="g2168"
             transform="translate(457.67499,193.44299)">
            <path
               d="M 0,0 C -0.413,0 -0.944,-0.177 -1.416,-0.53 -2.301,-1.179 -3.009,-2.359 -3.305,-4.01 -3.6,-5.4829998 -3.481,-6.663 -2.891,-7.3119998 -2.537,-7.724 -2.065,-7.96 -1.593,-7.96 c 0.472,0 0.944,0.177 1.475,0.531 0.886,0.648 1.535,1.8280002 1.83,3.3610002 C 2.066,-2.476 1.948,-1.297 1.358,-0.648 1.004,-0.236 0.532,0 0,0 Z M 0.532,-4.2449999 C 0.236,-5.543 -0.059,-6.309 -0.531,-6.899 -0.767,-7.2519999 -1.18,-7.547 -1.475,-7.547 c -0.295,0 -0.59,0.2950001 -0.767,0.648 -0.177,0.59 -0.177,1.356 0.059,2.6540001 z m -2.597,0.648 C -1.77,-2.359 -1.475,-1.592 -1.062,-1.002 c 0.295,0.294 0.708,0.589 1.003,0.589 0.295,0 0.591,-0.295 0.709,-0.589 0.236,-0.59 0.236,-1.357 0,-2.5949999 h -2.715"
               style="fill:#ed1c24;fill-opacity:1;fill-rule:evenodd;stroke:none"
               id="path2170" />
          </g>
        </g>
        <g
           id="g2172"
           transform="translate(16.867826,-132.01329)">
          <g
             id="g2174"
             transform="translate(324.83099,159.48)">
            <path
               d="M 0,0 C 0.237,0 0.413,0 0.413,0.236 0.413,0.472 0.237,0.472 0,0.472 h -6.137 c -0.236,0 -0.413,0 -0.413,-0.236 C -6.55,0 -6.373,0 -6.137,0 H 0"
               style="fill:#ed1c24;fill-opacity:1;fill-rule:evenodd;stroke:none"
               id="path2176" />
          </g>
        </g>
        <g
           id="g2178"
           transform="translate(16.867826,-132.01329)">
          <g
             id="g2180"
             transform="translate(331.08701,160.48199)">
            <path
               d="M 0,0 -0.059,1.533 H -0.177 C -0.295,1.415 -0.295,1.415 -0.354,1.415 c -0.059,0 -0.177,0 -0.295,0.059 -0.295,0.118 -0.531,0.177 -0.826,0.177 -0.8849999,0 -1.535,-0.589 -1.535,-1.415 0,-0.648 0.3540001,-1.12 1.299,-1.651 l 0.708,-0.354 c 0.354,-0.236 0.59,-0.53 0.59,-0.884 0,-0.531 -0.413,-0.826 -0.944,-0.826 -0.413,0 -0.767,0.177 -1.0029999,0.413 -0.237,0.295 -0.296,0.531 -0.4730001,1.179 H -3.01 v -1.7689999 h 0.118 C -2.774,-3.538 -2.715,-3.538 -2.5969999,-3.538 c 0.1179999,0 0.237,0 0.5309999,-0.058 0.296,-0.06 0.591,-0.118 0.827,-0.118 0.885,0 1.593,0.648 1.593,1.474 0,0.53 -0.236,0.943 -0.944,1.356 l -1.239,0.707 C -2.124,0 -2.302,0.295 -2.302,0.59 c 0,0.472 0.354,0.767 0.886,0.767 0.649,0 0.944,-0.354 1.239,-1.357 H 0"
               style="fill:#ed1c24;fill-opacity:1;fill-rule:evenodd;stroke:none"
               id="path2182" />
          </g>
        </g>
        <g
           id="g2184"
           transform="translate(16.867826,-132.01329)">
          <g
             id="g2186"
             transform="translate(333.92001,162.133)">
            <path
               d="m 0,0 -1.771,-0.648 v -0.177 h 0.118 c 0.118,0.059 0.237,0.059 0.355,0.059 0.294,0 0.412,-0.177 0.412,-0.708 V -4.0679998 C -0.886,-4.894 -1.004,-5.071 -1.83,-5.071 v -0.176 h 2.715 v 0.176 C 0.118,-5.012 0.059,-4.894 0.059,-4.0679998 V -0.059 Z m -0.531,2.536 c -0.295,0 -0.591,-0.236 -0.591,-0.59 0,-0.295 0.296,-0.589 0.591,-0.589 0.354,0 0.59,0.294 0.59,0.589 0,0.354 -0.236,0.59 -0.59,0.59"
               style="fill:#ed1c24;fill-opacity:1;fill-rule:evenodd;stroke:none"
               id="path2188" />
          </g>
        </g>
        <g
           id="g2190"
           transform="translate(16.867826,-132.01329)">
          <g
             id="g2192"
             transform="translate(335.27701,161.42599)">
            <path
               d="m 0,0 c 0.059,0 0.177,0.059 0.295,0.059 0.354,0 0.472,-0.177 0.472,-0.767 v -2.83 c 0,-0.6489998 -0.177,-0.8259998 -0.708,-0.8259998 V -4.54 h 2.42 v 0.1760002 c -0.59,0 -0.767,0.177 -0.767,0.5899998 v 3.184 c 0.531,0.531 0.767,0.649 1.18,0.649 0.531,0 0.826,-0.354 0.826,-1.121 V -3.42 c 0,-0.7079998 -0.1770001,-0.9439998 -0.708,-0.9439998 V -4.54 h 2.3609998 v 0.1760002 C 4.78,-4.3049998 4.662,-4.1869998 4.662,-3.6559999 V -1.003 c 0,1.062 -0.472,1.71 -1.357,1.71 C 2.774,0.707 2.42,0.53 1.653,-0.236 V 0.648 L 1.594,0.707 C 1.004,0.471 0.649,0.353 0,0.177 V 0"
               style="fill:#ed1c24;fill-opacity:1;fill-rule:evenodd;stroke:none"
               id="path2194" />
          </g>
        </g>
        <g
           id="g2196"
           transform="translate(16.867826,-132.01329)">
          <g
             id="g2198"
             transform="translate(346.66699,164.728)">
            <path
               d="M 0,0 C -0.413,0 -0.944,-0.177 -1.416,-0.531 -2.302,-1.18 -3.01,-2.418 -3.305,-4.01 -3.6,-5.543 -3.482,-6.663 -2.951,-7.3709998 -2.596,-7.784 -2.065,-8.02 -1.593,-8.02 c 0.472,0 0.944,0.178 1.416,0.5310002 C 0.708,-6.84 1.417,-5.602 1.712,-4.0689998 2.007,-2.536 1.889,-1.356 1.357,-0.708 1.003,-0.236 0.531,0 0,0 Z M 0.472,-4.3049998 C 0.236,-5.602 -0.059,-6.309 -0.531,-6.958 c -0.295,-0.3539998 -0.708,-0.5899999 -0.944,-0.5899999 -0.295,0 -0.649,0.2360001 -0.767,0.5899999 -0.178,0.649 -0.178,1.356 0.058,2.6530002 z m -2.537,0.6489999 C -1.77,-2.418 -1.475,-1.651 -1.062,-1.062 c 0.295,0.354 0.708,0.59 1.003,0.59 0.295,0 0.59,-0.236 0.708,-0.59 0.236,-0.589 0.177,-1.356 0,-2.5939999 h -2.714"
               style="fill:#ed1c24;fill-opacity:1;fill-rule:evenodd;stroke:none"
               id="path2200" />
          </g>
        </g>
        <g
           id="g2202"
           transform="translate(16.867826,-132.01329)">
          <g
             id="g2204"
             transform="translate(304.29401,202.524)">
            <path
               d="m 0,0 c 0.767,-0.531 1.062,-0.944 1.062,-1.592 0,-1.062 -0.885,-1.769 -2.242,-1.769 -1.181,0 -1.948,0.589 -1.948,1.533 0,0.412 0.118,0.589 0.5310001,0.648 L -2.361,-1.062 c 0.355,0.059 0.531,0.295 0.531,0.531 0,0.295 -0.236,0.531 -0.472,0.531 -0.649,0 -1.18,-0.826 -1.18,-1.769 0,-0.531 0.236,-1.121 0.649,-1.592 0.472,-0.59 1.299,-0.8849998 2.184,-0.8849998 1.475,0 2.538,0.8849998 2.538,2.1819999 C 1.889,-1.592 1.711,-1.121 1.357,-0.708 1.062,-0.413 0.767,-0.177 0.118,0.177 L 0,0"
               style="fill:#ed1c24;fill-opacity:1;fill-rule:evenodd;stroke:none"
               id="path2206" />
          </g>
        </g>
        <g
           id="g2208"
           transform="translate(16.867826,-132.01329)">
          <g
             id="g2210"
             transform="translate(300.81201,205.88499)">
            <path
               d="M 0,0 C 0,-1.475 1.121,-2.477 2.6559999,-2.477 4.19,-2.477 5.3709998,-1.415 5.3709998,0 5.3709998,1.415 4.19,2.535 2.5969999,2.535 1.062,2.535 0,1.474 0,0 Z m 0.295,-0.118 c 0,0.943 1.121,1.651 2.715,1.651 1.239,0 2.0649998,-0.531 2.0649998,-1.415 C 5.0749998,-0.295 4.78,-0.708 4.308,-1.003 3.718,-1.298 2.951,-1.475 2.125,-1.475 c -1.122,0 -1.83,0.531 -1.83,1.357"
               style="fill:#ed1c24;fill-opacity:1;fill-rule:evenodd;stroke:none"
               id="path2212" />
          </g>
        </g>
        <g
           id="g2214"
           transform="translate(16.867826,-132.01329)">
          <g
             id="g2216"
             transform="translate(302.46399,212.371)">
            <path
               d="m 0,0 -1.534,-0.059 v -0.118 c 0.118,-0.118 0.118,-0.118 0.118,-0.177 0,-0.059 0,-0.177 -0.059,-0.295 -0.118,-0.295 -0.177,-0.531 -0.177,-0.826 0,-0.884 0.59,-1.5329999 1.416,-1.5329999 0.65,0 1.122,0.3539999 1.653,1.2979999 l 0.354,0.707 c 0.236,0.354 0.531,0.59 0.8849999,0.59 C 3.128,-0.413 3.483,-0.826 3.483,-1.357 3.483,-1.769 3.305,-2.123 3.069,-2.359 2.774,-2.595 2.538,-2.713 1.889,-2.831 v -0.1769999 h 1.77 V -2.89 c -0.1180001,0.118 -0.1180001,0.118 -0.1180001,0.295 0,0.118 0,0.236 0.06,0.5310001 C 3.659,-1.769 3.719,-1.475 3.719,-1.239 c 0,0.885 -0.65,1.593 -1.476,1.593 -0.531,0 -0.944,-0.236 -1.357,-0.944 L 0.178,-1.828 C 0,-2.123 -0.294,-2.3 -0.59,-2.3 c -0.472,0 -0.826,0.354 -0.826,0.885 0,0.648 0.413,0.943 1.416,1.238 V 0"
               style="fill:#ed1c24;fill-opacity:1;fill-rule:evenodd;stroke:none"
               id="path2218" />
          </g>
        </g>
        <g
           id="g2220"
           transform="translate(16.867826,-132.01329)">
          <g
             id="g2222"
             transform="translate(298.215,219.034)">
            <path
               d="M 0,0 C 0,-0.413 0.178,-0.944 0.532,-1.416 1.181,-2.3 2.42,-3.0079999 4.013,-3.302 5.4889998,-3.5969999 6.669,-3.479 7.3179998,-2.89 7.79,-2.536 8.026,-2.0639999 8.026,-1.592 8.026,-1.121 7.85,-0.649 7.4949999,-0.118 6.846,0.766 5.6069999,1.415 4.073,1.71 2.479,2.063 1.358,1.886 0.65,1.356 0.236,1.002 0,0.53 0,0 Z m 4.309,0.53 c 1.2979999,-0.295 2.006,-0.589 2.655,-1.061 0.3539998,-0.236 0.59,-0.649 0.59,-0.943 0,-0.295 -0.2950002,-0.649 -0.59,-0.767 C 6.315,-2.418 5.6069999,-2.418 4.309,-2.182 Z M 3.659,-2.0639999 C 2.42,-1.769 1.653,-1.474 1.063,-1.062 c -0.354,0.295 -0.649,0.708 -0.649,1.003 0,0.294 0.295,0.589 0.649,0.707 0.59,0.236 1.357,0.236 2.596,0 v -2.7119999"
               style="fill:#ed1c24;fill-opacity:1;fill-rule:evenodd;stroke:none"
               id="path2224" />
          </g>
        </g>
        <g
           id="g2226"
           transform="translate(16.867826,-132.01329)">
          <g
             id="g2228"
             transform="translate(399.604,158.832)">
            <path
               d="m 0,0 c -0.531,-0.767 -0.944,-1.062 -1.593,-1.062 -1.0629999,0 -1.771,0.944 -1.771,2.241 0,1.179 0.59,2.005 1.535,2.005 0.413,0 0.531,-0.177 0.649,-0.59 L -1.121,2.358 C -1.003,2.063 -0.767,1.827 -0.531,1.827 -0.236,1.827 0,2.063 0,2.299 0,2.948 -0.826,3.478 -1.77,3.478 -2.301,3.478 -2.892,3.242 -3.364,2.83 -3.954,2.358 -4.249,1.591 -4.249,0.648 c 0,-1.474 0.885,-2.535 2.124,-2.535 0.532,0 1.004,0.176 1.417,0.53 0.295,0.295 0.531,0.59 0.885,1.239 L 0,0"
               style="fill:#ed1c24;fill-opacity:1;fill-rule:evenodd;stroke:none"
               id="path2230" />
          </g>
        </g>
        <g
           id="g2232"
           transform="translate(16.867826,-132.01329)">
          <g
             id="g2234"
             transform="translate(402.96799,162.31)">
            <path
               d="m 0,0 c -1.476,0 -2.538,-1.061 -2.538,-2.653 0,-1.5329999 1.062,-2.7119998 2.538,-2.7119998 1.416,0 2.538,1.2379999 2.538,2.7709998 C 2.538,-1.061 1.475,0 0,0 Z m -0.118,-0.294 c 0.944,0 1.593,-1.121 1.593,-2.654 0,-1.2969999 -0.472,-2.123 -1.357,-2.123 -0.413,0 -0.885,0.295 -1.121,0.767 -0.295,0.59 -0.473,1.415 -0.473,2.182 0,1.12 0.532,1.828 1.358,1.828"
               style="fill:#ed1c24;fill-opacity:1;fill-rule:evenodd;stroke:none"
               id="path2236" />
          </g>
        </g>
        <g
           id="g2238"
           transform="translate(16.867826,-132.01329)">
          <g
             id="g2240"
             transform="translate(409.45999,160.659)">
            <path
               d="m 0,0 -0.059,1.533 h -0.177 c -0.06,-0.118 -0.118,-0.118 -0.118,-0.118 -0.06,0 -0.178,0.059 -0.354,0.118 -0.236,0.059 -0.473,0.118 -0.768,0.118 -0.885,0 -1.534,-0.589 -1.534,-1.415 0,-0.648 0.3540001,-1.061 1.298,-1.651 l 0.649,-0.354 c 0.413,-0.236 0.649,-0.53 0.649,-0.884 0,-0.472 -0.412,-0.825 -1.003,-0.825 -0.354,0 -0.708,0.176 -0.944,0.412 -0.2359999,0.295 -0.354,0.531 -0.472,1.179 H -3.01 v -1.7689999 h 0.118 C -2.774,-3.538 -2.774,-3.478 -2.5969999,-3.478 c 0.059,0 0.2359999,-0.06 0.5309999,-0.118 0.295,-0.06 0.59,-0.118 0.826,-0.118 0.886,0 1.594,0.648 1.594,1.474 0,0.589 -0.295,0.943 -0.944,1.356 l -1.24,0.707 C -2.184,0 -2.302,0.295 -2.302,0.59 c 0,0.472 0.354,0.825 0.826,0.825 0.708,0 1.004,-0.412 1.299,-1.415 H 0"
               style="fill:#ed1c24;fill-opacity:1;fill-rule:evenodd;stroke:none"
               id="path2242" />
          </g>
        </g>
        <g
           id="g2244"
           transform="translate(16.867826,-132.01329)">
          <g
             id="g2246"
             transform="translate(416.12799,164.905)">
            <path
               d="M 0,0 C -0.413,0 -0.944,-0.177 -1.416,-0.531 -2.301,-1.18 -3.009,-2.418 -3.305,-4.01 -3.599,-5.484 -3.481,-6.663 -2.95,-7.3119998 -2.537,-7.724 -2.065,-8.019 -1.593,-8.019 c 0.472,0 0.944,0.235 1.416,0.5890002 C 0.768,-6.84 1.417,-5.602 1.712,-4.0689998 1.811,-3.623 1.869,-3.213 1.889,-2.839 v 0.562 C 1.85,-1.592 1.661,-1.053 1.358,-0.649 1.004,-0.236 0.532,0 0,0 Z M 0.532,-4.3049998 C 0.236,-5.602 -0.059,-6.309 -0.531,-6.899 -0.767,-7.2529998 -1.18,-7.5479999 -1.475,-7.5479999 c -0.295,0 -0.649,0.2950001 -0.767,0.6489999 -0.177,0.59 -0.177,1.297 0.059,2.5940002 z m -2.597,0.6489999 C -1.77,-2.418 -1.475,-1.651 -1.062,-1.062 c 0.295,0.354 0.708,0.649 1.003,0.649 0.295,0 0.591,-0.295 0.709,-0.649 0.236,-0.589 0.236,-1.356 0,-2.5939999 h -2.715"
               style="fill:#ed1c24;fill-opacity:1;fill-rule:evenodd;stroke:none"
               id="path2248" />
          </g>
        </g>
        <g
           id="g2250"
           transform="translate(16.867826,-132.01329)">
          <g
             id="g2252"
             transform="translate(447.64301,220.44901)">
            <path
               d="M 0,0 -1.83,2.476 H -2.774 L -4.604,0 h 0.532 L -2.302,1.533 -0.531,0 H 0"
               style="fill:#ed1c24;fill-opacity:1;fill-rule:evenodd;stroke:none"
               id="path2254" />
          </g>
        </g>
        <g
           id="g2256"
           transform="translate(16.867826,-132.01329)">
          <g
             id="g2258"
             transform="translate(447.93799,218.916)">
            <path
               d="m 0,0 c -0.531,-0.118 -0.826,-0.649 -0.826,-1.003 0,-0.353 0.236,-0.707 0.767,-0.707 0.472,0 1.062,0.471 1.062,1.179 0,0.766 -0.826,1.297 -1.711,1.297 -0.827,0 -1.358,-0.648 -1.535,-0.884 -0.4129999,0.589 -1.239,0.884 -2.065,0.884 -1.83,0 -2.8329998,-1.828 -2.8329998,-2.3 0,-0.235 0.2359998,-0.235 0.3539998,-0.235 0.177,0 0.295,0 0.354,0.235 0.413,1.298 1.4760002,1.769 2.066,1.769 0.531,0 0.8260001,-0.294 0.8260001,-0.766 0,-0.236 -0.2360001,-1.061 -0.3540001,-1.592 L -4.367,-4.1279998 C -4.603,-5.012 -5.135,-5.484 -5.6069999,-5.484 -5.725,-5.484 -6.02,-5.484 -6.315,-5.248 -5.784,-5.13 -5.5479999,-4.6 -5.5479999,-4.2459998 -5.5479999,-3.892 -5.784,-3.538 -6.256,-3.538 c -0.531,0 -1.0619998,-0.472 -1.0619998,-1.18 0,-0.766 0.7669998,-1.2969999 1.6519999,-1.2969999 C -4.839,-6.0149999 -4.308,-5.366 -4.072,-5.13 c 0.354,-0.5899998 1.18,-0.8849999 2.006,-0.8849999 1.83,0 2.833,1.8280001 2.833,2.2999999 0,0.236 -0.177,0.236 -0.354,0.236 -0.177,0 -0.236,0 -0.295,-0.236 -0.472,-1.297 -1.534,-1.769 -2.125,-1.769 -0.531,0 -0.826,0.295 -0.826,0.766 0,0.2950001 0.2360001,1.0620001 0.354,1.593 0.118,0.412 0.413,1.769 0.531,2.004 0.177,0.885 0.708,1.356 1.24,1.356 0.059,0 0.413,0 0.708,-0.235"
               style="fill:#ed1c24;fill-opacity:1;fill-rule:evenodd;stroke:none"
               id="path2260" />
          </g>
        </g>
        <g
           id="g2262"
           transform="translate(16.867826,-132.01329)">
          <g
             id="g2264"
             transform="translate(449.64899,210.838)">
            <path
               d="M 0,0 H 3.069 C 4.781,0 5.961,0.884 5.961,2.181 5.961,2.594 5.784,2.948 5.5479999,3.184 5.3709998,3.42 5.135,3.538 4.545,3.832 c 0.8259998,0.1769998 1.1209999,0.2949999 1.475,0.59 0.295,0.236 0.472,0.649 0.472,1.0609998 0,1.0610002 -0.767,1.592 -2.184,1.592 H 1.476 v -0.177 C 2.184,6.839 2.302,6.78 2.302,6.486 c 0,-0.177 0,-0.472 -0.118,-0.7080001 L 0.886,0.943 C 0.649,0.353 0.59,0.294 0,0.176 Z M 2.6559999,3.596 C 3.364,3.596 3.836,3.538 4.072,3.478 4.485,3.302 4.781,2.771 4.781,2.181 4.781,1.061 3.954,0.294 2.6559999,0.294 2.184,0.294 1.948,0.471 1.948,0.766 c 0,0.118 0.118,0.649 0.354,1.533 0.177,0.472 0.236,0.708 0.3539999,1.297 z M 3.482,6.486 C 3.541,6.722 3.659,6.78 4.072,6.78 4.9569998,6.78 5.3709998,6.368 5.3709998,5.6009998 5.3709998,4.953 5.135,4.481 4.663,4.2449999 4.249,4.0089998 3.777,3.95 2.774,3.95 l 0.708,2.536"
               style="fill:#ed1c24;fill-opacity:1;fill-rule:evenodd;stroke:none"
               id="path2266" />
          </g>
        </g>
        <g
           id="g2268"
           transform="translate(16.867826,-132.01329)">
          <g
             id="g2270"
             transform="translate(307.245,258.952)">
            <path
               d="M 0,0 -1.83,2.418 H -2.715 L -4.544,0 h 0.472 L -2.302,1.474 -0.472,0 H 0"
               style="fill:#ed1c24;fill-opacity:1;fill-rule:evenodd;stroke:none"
               id="path2272" />
          </g>
        </g>
        <g
           id="g2274"
           transform="translate(16.867826,-132.01329)">
          <g
             id="g2276"
             transform="translate(307.89401,257.00601)">
            <path
               d="m 0,0 c 0.059,0.295 0.059,0.295 0.059,0.354 0,0.295 -0.236,0.649 -0.649,0.649 -0.767,0 -0.945,-0.708 -1.063,-1.061 L -2.066,-1.591 C -2.243,-2.299 -2.479,-3.419 -2.6559999,-4.0679998 -2.715,-4.363 -3.187,-4.717 -3.246,-4.775 c -0.118,-0.06 -0.472,-0.354 -1.003,-0.354 -0.8259998,0 -0.8849998,0.766 -0.8849998,1.1200002 C -5.1339998,-3.124 -4.662,-2.004 -4.249,-0.943 c 0.177,0.413 0.177,0.472 0.177,0.767 0,0.825 -0.8259998,1.297 -1.652,1.297 -1.5349998,0 -2.302,-2.005 -2.302,-2.3 0,-0.177 0.236,-0.177 0.354,-0.177 0.1770001,0 0.2950001,0 0.3540002,0.177 C -6.846,0.472 -6.02,0.59 -5.784,0.59 c 0.06,0 0.2360001,0 0.2360001,-0.295 0,-0.353 -0.1760001,-0.707 -0.2360001,-0.943 -0.59,-1.474 -0.885,-2.359 -0.885,-3.066 0,-1.7099998 1.4760002,-1.9459998 2.302,-1.9459998 0.413,0 0.885,0.059 1.416,0.4719998 -0.413,-1.8279998 -1.475,-2.772 -2.537,-2.772 -0.1779999,0 -0.591,0.059 -0.886,0.236 0.472,0.177 0.7080001,0.5310002 0.7080001,0.944 0,0.53 -0.4130001,0.707 -0.7080001,0.707 -0.531,0 -1.0619999,-0.471 -1.0619999,-1.1199998 0,-0.7670002 0.7669999,-1.297 1.9479999,-1.297 1.711,0 3.659,1.1199999 4.131,2.948 L 0,0"
               style="fill:#ed1c24;fill-opacity:1;fill-rule:evenodd;stroke:none"
               id="path2278" />
          </g>
        </g>
        <g
           id="g2280"
           transform="translate(16.867826,-132.01329)">
          <g
             id="g2282"
             transform="translate(308.01199,249.282)">
            <path
               d="M 0,0 H 3.069 C 4.78,0 5.961,0.885 5.961,2.182 5.961,2.595 5.843,2.9489999 5.547,3.184 5.3699999,3.42 5.1339998,3.5969999 4.603,3.833 5.3699999,4.01 5.665,4.1279998 6.019,4.4229999 6.315,4.717 6.492,5.071 6.492,5.484 6.492,6.545 5.725,7.076 4.308,7.076 H 1.475 V 6.899 c 0.709,0 0.886,-0.118 0.886,-0.413 0,-0.177 -0.059,-0.413 -0.119,-0.7070002 L 0.885,1.003 C 0.708,0.354 0.59,0.295 0,0.177 Z M 2.6559999,3.5969999 C 3.364,3.5969999 3.836,3.538 4.072,3.479 4.485,3.302 4.78,2.831 4.78,2.241 4.78,1.062 3.954,0.354 2.6559999,0.354 2.184,0.354 1.948,0.472 1.948,0.767 1.948,0.944 2.066,1.415 2.302,2.3 2.479,2.771 2.538,3.066 2.6559999,3.5969999 Z M 3.482,6.486 C 3.541,6.722 3.659,6.781 4.131,6.781 4.9569998,6.781 5.3699999,6.427 5.3699999,5.602 5.3699999,4.953 5.1339998,4.4819999 4.662,4.2459998 4.308,4.01 3.777,3.951 2.774,3.951 l 0.708,2.535"
               style="fill:#ed1c24;fill-opacity:1;fill-rule:evenodd;stroke:none"
               id="path2284" />
          </g>
        </g>
        <g
           id="g2286"
           transform="translate(16.867826,-132.01329)">
          <g
             id="g2288"
             transform="translate(391.814,244.683)">
            <path
               d="m 0,0 c 2.184,-2.182 2.184,-5.6599998 0,-7.842 -2.183,-2.182 -5.6659999,-2.182 -7.849,0 -2.125,2.1820002 -2.125,5.66 0,7.842 2.1830001,2.123 5.666,2.123 7.849,0"
               style="fill:#176fc1;fill-opacity:1;fill-rule:evenodd;stroke:none"
               id="path2290" />
          </g>
        </g>
        <g
           id="g2292"
           transform="translate(16.867826,-132.01329)">
          <g
             id="g2294"
             transform="translate(355.638,166.73199)">
            <path
               d="M 0,0 30.865,70.226997"
               style="fill:none;stroke:#231f20;stroke-width:0.619;stroke-linecap:butt;stroke-linejoin:miter;stroke-miterlimit:2.613;stroke-dasharray:none;stroke-opacity:1"
               id="path2296" />
          </g>
        </g>
        <g
           id="g2298"
           transform="translate(16.867826,-132.01329)">
          <g
             id="g2300"
             transform="translate(387.05701,238.3)">
            <path
               d="M 0,0 -0.413,-6.545 -4.545,-4.776 0,0"
               style="fill:#231f20;fill-opacity:1;fill-rule:evenodd;stroke:none"
               id="path2302" />
          </g>
        </g>
        <g
           id="g2304"
           transform="translate(16.867826,-132.01329)">
          <g
             id="g2306"
             transform="translate(327.60501,204.705)">
            <path
               d="M 0,0 83.211998,47.997002"
               style="fill:none;stroke:#e91f26;stroke-width:0.503;stroke-linecap:square;stroke-linejoin:miter;stroke-miterlimit:2.613;stroke-dasharray:3.52, 3.52;stroke-dashoffset:0;stroke-opacity:1"
               id="path2308" />
          </g>
        </g>
        <g
           id="g2310"
           transform="translate(16.867826,-132.01329)">
          <g
             id="g2312"
             transform="translate(383.328,248.326)">
            <path
               d="M 0,0 30.322,-52.465"
               style="fill:none;stroke:#e91f26;stroke-width:0.459;stroke-linecap:square;stroke-linejoin:miter;stroke-miterlimit:2.613;stroke-dasharray:3.212, 3.212;stroke-dashoffset:0;stroke-opacity:1"
               id="path2314" />
          </g>
        </g>
        <g
           id="g2316"
           transform="translate(16.867826,-132.01329)">
          <g
             id="g2318"
             transform="translate(387.85999,163.72501)">
            <path
               d="M 0,0 -0.472,91.335999 M 42.549999,77.007004 -36.058998,76.595001"
               style="fill:none;stroke:#2e3192;stroke-width:0.619;stroke-linecap:butt;stroke-linejoin:miter;stroke-miterlimit:2.613;stroke-dasharray:4.333, 4.333;stroke-dashoffset:0;stroke-opacity:1"
               id="path2320" />
          </g>
        </g>
        <g
           id="g2322"
           transform="translate(16.867826,-132.01329)">
          <g
             id="g2324"
             transform="translate(320.396,201.091)">
            <path
               d="M 0,0 1.416,0.826 C 2.242,1.298 2.5969999,2.0639999 2.242,2.654 2.124,2.89 1.948,3.0079999 1.77,3.067 1.593,3.126 1.475,3.126 1.121,3.067 1.416,3.361 1.534,3.538 1.652,3.774 1.711,4.01 1.652,4.1869998 1.534,4.4229999 1.298,4.895 0.767,4.953 0.059,4.6 L -1.239,3.774 V 3.715 c 0.354,0.177 0.472,0.177 0.531,0 0.059,-0.059 0.118,-0.177 0.177,-0.354 L 0.118,0.708 C 0.236,0.354 0.177,0.295 -0.059,0.059 Z M 0.295,2.477 C 0.59,2.654 0.826,2.772 0.944,2.772 1.239,2.831 1.475,2.654 1.652,2.359 1.948,1.828 1.77,1.239 1.18,0.885 0.944,0.767 0.767,0.767 0.708,0.885 0.649,1.003 0.59,1.239 0.472,1.769 0.413,2.005 0.354,2.182 0.295,2.477 Z m -0.413,1.5919998 c -0.059,0.118 0,0.177 0.177,0.295 C 0.472,4.6 0.767,4.5409999 1.003,4.1279998 1.18,3.833 1.18,3.538 1.062,3.302 0.944,3.126 0.708,2.9489999 0.236,2.654 l -0.354,1.4149998"
               style="fill:#ed1c24;fill-opacity:1;fill-rule:evenodd;stroke:none"
               id="path2326" />
          </g>
        </g>
        <g
           id="g2328"
           transform="translate(16.867826,-132.01329)">
          <g
             id="g2330"
             transform="translate(323.34698,202.68401)">
            <path
               d="M 0,0 C 0.059,0.058 0.118,0.118 0.177,0.118 0.59,0.353 0.767,0.235 1.77,-0.767 2.183,-1.18 2.832,-1.887 2.892,-2.005 2.95,-2.123 3.01,-2.241 2.95,-2.418 2.892,-2.831 2.832,-3.126 2.832,-3.244 2.774,-3.48 2.714,-3.5969999 2.6559999,-3.6559999 c -0.06,0 -0.1189999,0 -0.2369999,0 -0.177,0.059 -0.236,0 -0.354,0 C 1.947,-3.774 1.888,-3.951 1.947,-4.1279998 c 0.118,-0.177 0.354,-0.177 0.59,-0.059 C 2.95,-3.951 3.246,-2.359 3.246,-0.531 3.187,0.589 3.128,1.179 2.892,1.533 2.774,1.768 2.537,1.827 2.301,1.709 2.124,1.591 2.065,1.474 2.183,1.297 2.242,1.179 2.3599999,1.12 2.537,1.12 c 0.177,0 0.237,0 0.295,-0.118 C 3.01,0.707 3.068,0 3.068,-1.298 L 2.419,-0.59 C 1.947,0 0.944,0.884 0.826,0.825 H 0.767 c 0,0 0,0 -0.059,-0.059 C 0.649,0.766 0.413,0.589 0.118,0.294 0.059,0.235 0,0.176 -0.118,0.118 L 0,0"
               style="fill:#ed1c24;fill-opacity:1;fill-rule:evenodd;stroke:none"
               id="path2332" />
          </g>
        </g>
        <g
           id="g2334"
           transform="translate(16.867826,-132.01329)">
          <g
             id="g2336"
             transform="translate(353.39499,161.19)">
            <path
               d="m 0,0 c 0,0.589 0.413,1.533 2.007,1.592 0.059,0.059 0.118,0.118 0.118,0.177 0,0.176 -0.118,0.176 -0.236,0.176 -1.476,0 -2.833,-0.766 -2.833,-1.827 v -3.361 c 0,-0.59 0,-1.0619998 -0.59,-1.534 -0.531,-0.412 -1.062,-0.471 -1.416,-0.471 -0.06,0 -0.118,-0.059 -0.118,-0.177 0,-0.118 0.058,-0.118 0.236,-0.118 0.944,-0.059 1.652,-0.5899999 1.829,-1.356 0.059,-0.118 0.059,-0.177 0.059,-0.7079999 V -10.496 c 0,-0.649 0,-1.12 0.708,-1.651 0.531,-0.472 1.535,-0.59 2.125,-0.59 0.118,0 0.236,0 0.236,0.118 0,0.177 -0.059,0.177 -0.236,0.177 -0.886,0.059 -1.653,0.531 -1.83,1.297 C 0,-11.027 0,-10.968 0,-10.437 v 3.0660002 C 0,-6.722 -0.118,-6.427 -0.59,-5.9559999 -0.885,-5.6609998 -1.298,-5.543 -1.711,-5.425 -0.531,-5.071 0,-4.4229999 0,-3.538 V 0"
               style="fill:#2e3192;fill-opacity:1;fill-rule:evenodd;stroke:none"
               id="path2338" />
          </g>
        </g>
        <g
           id="g2340"
           transform="translate(16.867826,-132.01329)">
          <g
             id="g2342"
             transform="translate(364.37201,161.72)">
            <path
               d="m 0,0 h -2.774 v -0.236 c 0.709,-0.118 0.945,-0.235 0.945,-0.53 0,-0.295 -0.295,-0.885 -0.767,-1.71 l -3.01,-5.248 -1.004,6.486 c 0,0.059 0,0.118 0,0.236 0,0.472 0.237,0.648 1.122,0.766 V 0 h -3.541 v -0.236 c 0.826,-0.118 0.885,-0.176 1.18,-2.004 l 1.239,-7.607 h 0.295 l 5.489,9.022 C -0.59,-0.471 -0.354,-0.294 0,-0.236 V 0"
               style="fill:#2e3192;fill-opacity:1;fill-rule:evenodd;stroke:none"
               id="path2344" />
          </g>
        </g>
        <g
           id="g2346"
           transform="translate(16.867826,-132.01329)">
          <g
             id="g2348"
             transform="translate(366.61499,150.399)">
            <path
               d="m 0,0 c 0,-0.589 -0.354,-1.533 -1.948,-1.651 -0.118,0 -0.177,-0.059 -0.177,-0.177 0,-0.118 0.177,-0.118 0.295,-0.118 1.476,0 2.833,0.708 2.833,1.828 v 3.361 c 0,0.531 0,1.0029998 0.59,1.533 0.531,0.413 1.062,0.413 1.416,0.472 0.06,0 0.118,0.059 0.118,0.118 0,0.177 -0.118,0.177 -0.236,0.177 C 1.888,5.602 1.18,6.132 1.062,6.84 1.003,7.017 1.003,7.017 1.003,7.5479999 V 10.496 c 0,0.589 0,1.061 -0.708,1.651 -0.59,0.413 -1.594,0.589 -2.125,0.589 -0.118,0 -0.295,0 -0.295,-0.176 0,-0.118 0.118,-0.118 0.236,-0.177 C -0.944,12.324 -0.236,11.852 0,11.145 0,10.967 0,10.967 0,10.437 V 7.3709998 C 0,6.663 0.118,6.427 0.59,5.9559999 0.885,5.6609998 1.357,5.484 1.77,5.366 0.531,5.071 0,4.3639998 0,3.538 V 0"
               style="fill:#2e3192;fill-opacity:1;fill-rule:evenodd;stroke:none"
               id="path2350" />
          </g>
        </g>
        <g
           id="g2352"
           transform="translate(16.867826,-132.01329)">
          <g
             id="g2354"
             transform="translate(369.91901,152.08)">
            <path
               d="m 0,0 c 0,0.589 0.354,1.533 1.947,1.651 0.118,0 0.178,0.059 0.178,0.177 0,0.118 -0.118,0.118 -0.296,0.118 -1.475,0 -2.832,-0.708 -2.832,-1.828 v -3.361 c 0,-0.531 0,-1.0029998 -0.591,-1.475 -0.531,-0.471 -1.0619999,-0.471 -1.416,-0.471 -0.059,-0.059 -0.118,-0.118 -0.118,-0.177 0,-0.177 0.118,-0.177 0.236,-0.177 1.004,-0.059 1.712,-0.5899999 1.83,-1.297 0.059,-0.177 0.059,-0.177 0.059,-0.7079999 V -10.496 c 0,-0.59 0,-1.061 0.708,-1.592 0.59,-0.472 1.534,-0.649 2.124,-0.649 0.178,0 0.296,0 0.296,0.177 0,0.177 -0.118,0.177 -0.236,0.177 -0.945,0.059 -1.653,0.531 -1.889,1.238 0,0.177 0,0.177 0,0.708 v 3.0660002 C 0,-6.663 -0.118,-6.427 -0.59,-5.9559999 -0.885,-5.6609998 -1.357,-5.484 -1.77,-5.366 -0.531,-5.012 0,-4.3639998 0,-3.538 V 0"
               style="fill:#ed1c24;fill-opacity:1;fill-rule:evenodd;stroke:none"
               id="path2356" />
          </g>
        </g>
        <g
           id="g2358"
           transform="translate(16.867826,-132.01329)">
          <g
             id="g2360"
             transform="translate(371.33499,143.058)">
            <path
               d="m 0,0 h 4.131 c 2.302,0 3.896,1.179 3.896,2.889 0,0.59 -0.178,1.062 -0.473,1.415 C 7.2589998,4.658 6.964,4.835 6.197,5.13 7.2589998,5.366 7.672,5.543 8.145,5.955 8.5579996,6.309 8.7939997,6.84 8.7939997,7.4299998 8.7939997,8.786 7.731,9.552 5.843,9.552 H 2.007 V 9.317 C 2.951,9.257 3.187,9.14 3.187,8.727 3.187,8.491 3.128,8.137 3.01,7.783 L 1.181,1.297 C 0.945,0.472 0.827,0.354 0,0.236 Z M 3.6,4.835 C 4.604,4.835 5.1939998,4.776 5.4889998,4.658 6.079,4.422 6.433,3.774 6.433,2.948 6.433,1.415 5.3709998,0.413 3.6,0.413 2.951,0.413 2.6559999,0.649 2.6559999,1.062 2.6559999,1.238 2.833,1.887 3.128,3.066 3.364,3.774 3.423,4.0689998 3.6,4.835 Z M 4.722,8.727 C 4.84,9.022 5.017,9.14 5.5479999,9.14 6.728,9.14 7.2589998,8.609 7.2589998,7.5479999 7.2589998,6.722 6.905,6.073 6.315,5.7199998 5.784,5.425 5.076,5.307 3.777,5.307 l 0.945,3.42"
               style="fill:#ed1c24;fill-opacity:1;fill-rule:evenodd;stroke:none"
               id="path2362" />
          </g>
        </g>
        <g
           id="g2364"
           transform="translate(16.867826,-132.01329)">
          <g
             id="g2366"
             transform="translate(381.95801,141.289)">
            <path
               d="m 0,0 c 0,-0.589 -0.354,-1.474 -1.947,-1.592 -0.059,0 -0.118,-0.059 -0.118,-0.177 0,-0.177 0.118,-0.177 0.295,-0.177 1.416,0 2.773,0.767 2.773,1.828 v 3.361 c 0,0.59 0,1.061 0.59,1.533 0.532,0.413 1.0629999,0.472 1.417,0.472 0.059,0 0.118,0.059 0.118,0.177 0,0.118 -0.118,0.118 -0.236,0.177 C 1.948,5.661 1.239,6.191 1.062,6.899 1.003,7.076 1.003,7.076 1.003,7.606 v 2.89 c 0,0.648 0,1.12 -0.708,1.651 -0.59,0.472 -1.593,0.59 -2.065,0.59 -0.177,0 -0.295,0 -0.295,-0.118 0,-0.177 0.059,-0.177 0.236,-0.177 C -0.944,12.383 -0.236,11.911 0,11.144 0,11.026 0,11.026 0,10.496 V 7.3709998 C 0,6.722 0.118,6.486 0.59,6.0149999 0.944,5.6609998 1.357,5.543 1.771,5.425 0.531,5.071 0,4.422 0,3.538 V 0"
               style="fill:#ed1c24;fill-opacity:1;fill-rule:evenodd;stroke:none"
               id="path2368" />
          </g>
        </g>
        <g
           id="g2370"
           transform="translate(16.867826,-132.01329)">
          <g
             id="g2372"
             transform="translate(346.51901,241.32201)">
            <path
               d="m 0,0 c 0.118,0 0.177,0.059 0.236,0.059 0.472,0 0.59,-0.236 0.944,-1.651 0.177,-0.4719999 0.354,-1.474 0.354,-1.592 0,-0.118 -0.059,-0.236 -0.177,-0.4129999 C 1.121,-3.892 0.944,-4.1279998 0.826,-4.2449999 0.708,-4.422 0.59,-4.481 0.472,-4.481 c -0.059,0 -0.118,0.059 -0.177,0.118 -0.118,0.058 -0.236,0.1180001 -0.295,0.1180001 -0.177,0 -0.354,-0.1180001 -0.354,-0.2950001 0,-0.236 0.177,-0.354 0.413,-0.354 0.531,0 1.593,1.179 2.479,2.8300001 C 3.069,-1.12 3.305,-0.531 3.305,-0.118 c 0,0.236 -0.177,0.472 -0.413,0.472 -0.2360001,0 -0.354,-0.118 -0.354,-0.295 0,-0.177 0.059,-0.236 0.236,-0.354 C 2.951,-0.354 3.01,-0.472 3.01,-0.59 3.01,-0.885 2.715,-1.533 2.006,-2.654 L 1.829,-1.71 C 1.711,-1.003 1.239,0.354 1.121,0.354 1.121,0.295 1.062,0.295 1.062,0.295 0.944,0.295 0.649,0.236 0.236,0.177 0.177,0.177 0.118,0.177 0,0.118 V 0"
               style="fill:#2e3192;fill-opacity:1;fill-rule:evenodd;stroke:none"
               id="path2374" />
          </g>
        </g>
        <g
           id="g2376"
           transform="translate(16.867826,-132.01329)">
          <g
             id="g2378"
             transform="translate(346.814,245.44901)">
            <path
               d="m 0,0 h -1.121 v -0.117 c 0.295,0 0.354,-0.06 0.354,-0.177 0,-0.118 -0.118,-0.354 -0.295,-0.708 l -1.24,-2.123 -0.413,2.654 v 0.059 c 0,0.235 0.1180001,0.295 0.472,0.295 V 0 h -1.416 v -0.117 c 0.295,0 0.354,-0.06 0.472,-0.767 l 0.472,-3.1249998 h 0.1180001 L -0.354,-0.353 c 0.118,0.176 0.236,0.236 0.354,0.236 V 0"
               style="fill:#2e3192;fill-opacity:1;fill-rule:evenodd;stroke:none"
               id="path2380" />
          </g>
        </g>
        <g
           id="g2382"
           transform="translate(16.867826,-132.01329)">
          <g
             id="g2384"
             transform="translate(415.57401,190.799)">
            <path
               d="M 0,0 1.476,0.826 C 2.302,1.297 2.5969999,2.0639999 2.243,2.7119999 2.125,2.889 1.948,3.007 1.771,3.066 1.594,3.125 1.476,3.125 1.122,3.066 1.476,3.42 1.594,3.538 1.653,3.774 1.712,4.01 1.712,4.2449999 1.594,4.422 1.298,4.953 0.767,5.012 0.118,4.599 L -1.239,3.833 V 3.715 c 0.354,0.177 0.472,0.177 0.531,0.059 0.059,-0.1180001 0.118,-0.236 0.177,-0.413 L 0.118,0.708 C 0.236,0.354 0.177,0.295 -0.059,0.059 Z M 0.295,2.477 C 0.59,2.653 0.826,2.771 1.004,2.771 1.24,2.83 1.535,2.653 1.653,2.359 2.007,1.828 1.83,1.238 1.18,0.884 0.944,0.766 0.767,0.766 0.708,0.884 0.649,0.943 0.59,1.238 0.472,1.769 0.413,2.005 0.354,2.182 0.295,2.477 Z m -0.413,1.5909998 c -0.059,0.1180001 0,0.1770001 0.177,0.296 C 0.531,4.599 0.826,4.54 1.004,4.1859999 1.18,3.892 1.18,3.5969999 1.062,3.302 0.944,3.125 0.708,2.948 0.236,2.653 l -0.354,1.4149998"
               style="fill:#ed1c24;fill-opacity:1;fill-rule:evenodd;stroke:none"
               id="path2386" />
          </g>
        </g>
        <g
           id="g2388"
           transform="translate(16.867826,-132.01329)">
          <g
             id="g2390"
             transform="translate(421.65302,191.448)">
            <path
               d="m 0,0 c 0,-0.059 0,-0.118 -0.059,-0.295 0,-0.295 -0.059,-0.413 -0.118,-0.472 -0.118,-0.059 -0.236,0 -0.413,0.177 -0.059,0.059 -0.059,0.118 -0.118,0.118 -0.59,0.589 -0.827,0.884 -0.886,1.002 0,0.708 0.059,1.18 0.178,1.238 0.058,0.06 0.118,0.06 0.236,0.06 0.118,0 0.176,0 0.236,0.058 0.118,0.06 0.177,0.236 0.059,0.354 C -0.944,2.417 -1.122,2.476 -1.298,2.358 -1.594,2.181 -1.771,1.768 -1.771,0.707 L -2.125,1.061 C -2.479,1.474 -2.6559999,1.592 -2.833,1.474 -2.951,1.415 -3.187,1.179 -3.5409999,0.825 L -3.6,0.707 -3.482,0.648 c 0.236,0.236 0.236,0.236 0.354,0.295 0.177,0.118 0.236,0.059 0.59,-0.295 l 0.708,-0.766 -0.118,-1.18 c 0,-0.236 -0.118,-0.471 -0.177,-0.53 -0.059,0 -0.118,-0.059 -0.236,-0.059 -0.118,0 -0.177,0 -0.2359999,-0.059 C -2.715,-2.005 -2.774,-2.182 -2.715,-2.3 c 0.1180001,-0.177 0.354,-0.236 0.531,-0.118 0.236,0.177 0.295,0.236 0.354,0.884 0.059,0.354 0.118,0.649 0.177,1.18 l 0.709,-0.708 c 0.295,-0.295 0.472,-0.354 0.708,-0.236 C 0,-1.121 0.118,-0.885 0.118,0 H 0"
               style="fill:#ed1c24;fill-opacity:1;fill-rule:evenodd;stroke:none"
               id="path2392" />
          </g>
        </g>
        <g
           id="g2394"
           transform="translate(16.867826,-132.01329)">
          <g
             id="g2396"
             transform="translate(388.78101,162.38499)">
            <path
               d="m 0,0 h -1.121 v -0.059 c 0.236,-0.059 0.354,-0.118 0.354,-0.236 0,-0.118 -0.118,-0.354 -0.295,-0.707 l -1.24,-2.182 -0.413,2.712 v 0.059 c 0,0.236 0.059,0.295 0.472,0.354 V 0 h -1.475 v -0.059 c 0.354,-0.059 0.354,-0.059 0.472,-0.826 l 0.531,-3.125 h 0.1180001 L -0.354,-0.354 c 0.118,0.177 0.177,0.236 0.354,0.295 V 0"
               style="fill:#2e3192;fill-opacity:1;fill-rule:evenodd;stroke:none"
               id="path2398" />
          </g>
        </g>
        <g
           id="g2400"
           transform="translate(16.867826,-132.01329)">
          <g
             id="g2402"
             transform="translate(390.965,156.017)">
            <path
               d="m 0,0 c -0.06,-0.118 -0.119,-0.118 -0.178,-0.236 -0.236,-0.236 -0.295,-0.354 -0.413,-0.354 -0.118,0 -0.177,0.118 -0.236,0.354 0,0.059 0,0.118 -0.059,0.118 -0.177,0.825 -0.295,1.238 -0.295,1.356 0.354,0.59 0.649,0.944 0.826,0.944 0.059,0 0.118,0 0.177,-0.06 C -0.06,2.064 0,2.064 0.058,2.064 c 0.178,0 0.296,0.1180001 0.296,0.2940001 0,0.177 -0.118,0.295 -0.354,0.295 -0.355,0 -0.65,-0.295 -1.24,-1.179 l -0.059,0.472 c -0.118,0.53 -0.236,0.707 -0.413,0.707 -0.177,0 -0.472,-0.059 -1.003,-0.236 h -0.059 v -0.118 c 0.354,0.059 0.413,0.059 0.472,0.059 0.236,0 0.236,-0.059 0.354,-0.53 l 0.236,-1.003 -0.649,-1.002 c -0.177,-0.236 -0.2949999,-0.354 -0.413,-0.354 -0.059,0 -0.118,0 -0.236,0.059 -0.059,0.059 -0.177,0.059 -0.236,0.059 -0.177,0 -0.2949999,-0.118 -0.2949999,-0.236 0,-0.236 0.1759999,-0.354 0.4129999,-0.354 0.236,0 0.354,0.059 0.767,0.531 0.236,0.295 0.413,0.531 0.767,1.003 l 0.236,-1.003 c 0.059,-0.413 0.177,-0.531 0.472,-0.531 0.295,0 0.531,0.177 1.004,0.885 L 0,0"
               style="fill:#2e3192;fill-opacity:1;fill-rule:evenodd;stroke:none"
               id="path2404" />
          </g>
        </g>
        <g
           id="g2406"
           transform="translate(16.867826,-132.01329)">
          <g
             id="g2408"
             transform="translate(377.92899,251.89799)">
            <path
               d="m 0,0 c 0,0.237 0.03,0.37 0.119,0.444 0.074,0.089 0.222,0.148 0.578,0.148 0.963,0 1.793,-0.533 1.793,-2.073 0,-1.97 -1.171,-2.251 -1.645,-2.251 -0.326,0 -0.637,0.074 -0.845,0.177 z m -1.793,-6.2789998 c 0,-1.1850002 -0.119,-1.289 -1.171,-1.3780002 V -8.2489996 H 1.379 V -7.657 C 0.119,-7.5679998 0,-7.464 0,-6.2789998 V -4.295 l 0.964,-0.252 c 0.163,0 0.355,0 0.563,0.03 1.556,0.1920002 2.9349999,1.11 2.9349999,3.065 C 4.4619999,-0.489 4.076,0.266 3.424,0.71 2.816,1.14 1.986,1.288 0.889,1.288 H -2.89 V 0.71 c 0.993,-0.103 1.097,-0.207 1.097,-1.392 v -5.5969998"
               style="fill:#231f20;fill-opacity:1;fill-rule:nonzero;stroke:none"
               id="path2410" />
          </g>
        </g>
      </g>
    </g>
  </g>
</svg>
