<?xml version="1.0" encoding="UTF-8" standalone="no"?>
<!-- Created with Inkscape (http://www.inkscape.org/) -->

<svg
   width="66.972893mm"
   height="66.884758mm"
   viewBox="0 0 66.972893 66.884758"
   version="1.1"
   id="svg5"
   inkscape:version="1.1 (1:1.1+202105261517+ce6663b3b7)"
   sodipodi:docname="coordinate_system_rotation.svg"
   xmlns:inkscape="http://www.inkscape.org/namespaces/inkscape"
   xmlns:sodipodi="http://sodipodi.sourceforge.net/DTD/sodipodi-0.dtd"
   xmlns="http://www.w3.org/2000/svg"
   xmlns:svg="http://www.w3.org/2000/svg"
   xmlns:ns0="http://www.iki.fi/pav/software/textext/">
  <sodipodi:namedview
     id="namedview7"
     pagecolor="#ffffff"
     bordercolor="#666666"
     borderopacity="1.0"
     inkscape:pageshadow="2"
     inkscape:pageopacity="0.0"
     inkscape:pagecheckerboard="0"
     inkscape:document-units="mm"
     showgrid="false"
     fit-margin-top="0"
     fit-margin-left="0"
     fit-margin-right="0"
     fit-margin-bottom="0"
     inkscape:zoom="2.6832492"
     inkscape:cx="134.35204"
     inkscape:cy="142.7374"
     inkscape:window-width="1920"
     inkscape:window-height="1023"
     inkscape:window-x="0"
     inkscape:window-y="32"
     inkscape:window-maximized="1"
     inkscape:current-layer="g1236" />
  <defs
     id="defs2">
    <clipPath
       clipPathUnits="userSpaceOnUse"
       id="clipPath964">
      <path
         d="M 96,307.2 H 197.52 V 258.96 H 96 Z"
         clip-rule="evenodd"
         id="path962" />
    </clipPath>
    <clipPath
       clipPathUnits="userSpaceOnUse"
       id="clipPath972">
      <path
         d="M 0,648.03 H 504 V 0.03 H 0 Z"
         id="path970" />
    </clipPath>
    <clipPath
       clipPathUnits="userSpaceOnUse"
       id="clipPath1044">
      <path
         d="m 355.62,246.78 h 36.06 v -14.82 h -36.06 z"
         clip-rule="evenodd"
         id="path1042" />
    </clipPath>
    <clipPath
       clipPathUnits="userSpaceOnUse"
       id="clipPath1052">
      <path
         d="M 0,648.03 H 504 V 0.03 H 0 Z"
         id="path1050" />
    </clipPath>
    <clipPath
       clipPathUnits="userSpaceOnUse"
       id="clipPath1080">
      <path
         d="M 231.54,233.82 H 271.5 V 218.94 H 231.54 Z"
         clip-rule="evenodd"
         id="path1078" />
    </clipPath>
    <clipPath
       clipPathUnits="userSpaceOnUse"
       id="clipPath1088">
      <path
         d="M 0,648.03 H 504 V 0.03 H 0 Z"
         id="path1086" />
    </clipPath>
    <clipPath
       clipPathUnits="userSpaceOnUse"
       id="clipPath1116">
      <path
         d="M 402.84,236.22 H 432 v -15.96 h -29.16 z"
         clip-rule="evenodd"
         id="path1114" />
    </clipPath>
    <clipPath
       clipPathUnits="userSpaceOnUse"
       id="clipPath1124">
      <path
         d="M 0,648.03 H 504 V 0.03 H 0 Z"
         id="path1122" />
    </clipPath>
    <clipPath
       clipPathUnits="userSpaceOnUse"
       id="clipPath1156">
      <path
         d="m 338.76,220.8 h 8.22 v -13.02 h -8.22 z"
         clip-rule="evenodd"
         id="path1154" />
    </clipPath>
    <clipPath
       clipPathUnits="userSpaceOnUse"
       id="clipPath1164">
      <path
         d="M 0,648.03 H 504 V 0.03 H 0 Z"
         id="path1162" />
    </clipPath>
    <clipPath
       clipPathUnits="userSpaceOnUse"
       id="clipPath1176">
      <path
         d="m 96,193.98 h 70.38 v -29.7 H 96 Z"
         clip-rule="evenodd"
         id="path1174" />
    </clipPath>
    <clipPath
       clipPathUnits="userSpaceOnUse"
       id="clipPath1184">
      <path
         d="M 0,648.03 H 504 V 0.03 H 0 Z"
         id="path1182" />
    </clipPath>
    <clipPath
       clipPathUnits="userSpaceOnUse"
       id="clipPath1232">
      <path
         d="M 72,576 H 432 V 322.2 H 72 Z"
         clip-rule="evenodd"
         id="path1230" />
    </clipPath>
    <clipPath
       clipPathUnits="userSpaceOnUse"
       id="clipPath1240">
      <path
         d="M 0,648.03 H 504 V 0.03 H 0 Z"
         id="path1238" />
    </clipPath>
    <clipPath
       clipPathUnits="userSpaceOnUse"
       id="clipPath1490">
      <path
         d="m 370.32,157.8 h 29.7 v -25.26 h -29.7 z"
         clip-rule="evenodd"
         id="path1488" />
    </clipPath>
    <clipPath
       clipPathUnits="userSpaceOnUse"
       id="clipPath1498">
      <path
         d="M 0,648.03 H 504 V 0.03 H 0 Z"
         id="path1496" />
    </clipPath>
    <clipPath
       clipPathUnits="userSpaceOnUse"
       id="clipPath1520">
      <path
         d="m 96,112.26 h 73.62 V 64.38 H 96 Z"
         clip-rule="evenodd"
         id="path1518" />
    </clipPath>
    <clipPath
       clipPathUnits="userSpaceOnUse"
       id="clipPath1528">
      <path
         d="M 0,648.03 H 504 V 0.03 H 0 Z"
         id="path1526" />
    </clipPath>
    <g
       id="id-60539be0-daa2-4af6-836c-a6de327a5e16">
      <symbol
         overflow="visible"
         id="id-9ad421c0-e456-43be-9c1a-bd7be5ae39e7">
        <path
           style="stroke:none;stroke-width:0"
           d=""
           id="id-0f9e88dc-5e46-4f1c-95c0-da51c7fc75ee" />
      </symbol>
      <symbol
         overflow="visible"
         id="id-9d12f1e0-d313-4f8b-90d6-e2d0c7c5e7e9">
        <path
           style="stroke:none;stroke-width:0"
           d="m 4.53125,-4.984375 c 0,-0.65625 -0.171875,-2.046875 -1.1875,-2.046875 -1.390625,0 -2.921875,2.8125 -2.921875,5.09375 0,0.9375 0.28125,2.046875 1.1875,2.046875 1.40625,0 2.921875,-2.859375 2.921875,-5.09375 z M 1.46875,-3.625 C 1.640625,-4.25 1.84375,-5.046875 2.25,-5.765625 2.515625,-6.25 2.875,-6.8125 3.328125,-6.8125 c 0.484375,0 0.546875,0.640625 0.546875,1.203125 0,0.5 -0.078125,1 -0.3125,1.984375 z m 2,0.328125 C 3.359375,-2.84375 3.15625,-2 2.765625,-1.28125 c -0.34375,0.6875 -0.71875,1.171875 -1.15625,1.171875 -0.328125,0 -0.53125,-0.296875 -0.53125,-1.21875 0,-0.421875 0.0625,-1 0.3125,-1.96875 z m 0,0"
           id="id-816b649a-f1a7-487b-b1f3-ecbe4fe54815" />
      </symbol>
    </g>
  </defs>
  <g
     inkscape:label="Layer 1"
     inkscape:groupmode="layer"
     id="layer1"
     transform="translate(-72.604023,-65.910014)">
    <g
       id="g926"
       inkscape:label="Roland, Nourbakhsh, Scaramuzza - 2011 - Introduction to autonomous mobile robots"
       transform="matrix(0.35277777,0,0,-0.35277777,33.008663,299.11868)">
      <g
         id="g1226"
         transform="translate(46.39817,56.685432)">
        <g
           id="g1236"
           clip-path="url(#clipPath1240)">
          <path
             d="m 164.48065,458.52392 h 28.32 v 36.42 h -28.32 z"
             style="fill:#ffffff;fill-opacity:1;fill-rule:nonzero;stroke:none"
             id="path1250" />
          <path
             d="m 164.48065,494.40392 h 28.86 v 1.02 h -28.86 z"
             style="fill:#000000;fill-opacity:1;fill-rule:nonzero;stroke:none"
             id="path1252" />
          <path
             d="m 192.32065,457.98392 h 1.02 v 36.96 h -1.02 z"
             style="fill:#000000;fill-opacity:1;fill-rule:nonzero;stroke:none"
             id="path1254" />
          <path
             d="m 164.00065,457.98392 h 28.8 v 1.02 h -28.8 z"
             style="fill:#000000;fill-opacity:1;fill-rule:nonzero;stroke:none"
             id="path1256" />
          <path
             d="m 164.00065,458.52392 h 1.02 v 36.9 h -1.02 z"
             style="fill:#000000;fill-opacity:1;fill-rule:nonzero;stroke:none"
             id="path1258" />
          <g
             id="g1260"
             transform="translate(182.24065,466.56392)">
            <path
               d="M 0,0 -0.06,0.42 V 0.36 L -0.12,0.72 V 0.78 L -0.18,1.2 -0.12,1.02 -0.3,1.38 -0.36,1.44 -0.48,1.8 -0.36,1.62 -0.6,1.92 -0.66,1.98 -0.9,2.34 -0.84,2.28 -1.38,2.82 -1.32,2.76 -1.62,3 -1.56,2.94 -2.28,3.3 h 0.12 l -0.72,0.24 0.06,-0.06 -0.42,0.06 h 0.06 -0.84 0.12 L -4.26,3.48 -4.2,3.54 -4.62,3.42 -4.98,3.3 h 0.06 L -5.64,2.94 -5.52,3 -5.82,2.76 -5.76,2.82 -6,2.52 -6.06,2.46 -6.36,2.22 -6.3,2.34 -6.54,1.98 h 0.06 L -6.66,1.68 V 1.74 L -6.84,1.38 V 1.44 L -6.96,1.08 -7.08,0.66 -7.02,0.72 -7.08,0.36 v 0.12 -0.84 0.06 l 0.06,-0.42 -0.06,0.06 0.12,-0.36 0.12,-0.42 v 0.12 l 0.18,-0.3 0.18,-0.36 -0.06,0.06 0.24,-0.3 -0.06,0.06 0.54,-0.54 -0.66,-0.78 -0.6,0.6 -0.24,0.3 -0.06,0.12 -0.18,0.36 v -0.06 l -0.18,0.3 -0.06,0.12 -0.12,0.42 -0.12,0.36 v 0.12 l -0.06,0.42 v 0.96 l 0.06,0.36 v 0.06 l 0.12,0.42 0.12,0.36 0.24,0.48 0.18,0.3 0.24,0.36 0.12,0.12 0.3,0.24 -0.06,-0.06 0.24,0.3 0.06,0.06 0.3,0.24 0.06,0.06 0.84,0.42 0.36,0.12 0.42,0.12 h 0.06 l 0.36,0.06 h 0.96 L -2.7,4.5 h 0.12 L -1.86,4.26 -1.8,4.2 -0.96,3.78 -0.66,3.54 -0.12,3 -0.06,2.88 0.18,2.52 V 2.58 L 0.42,2.28 0.6,1.74 V 1.86 L 0.78,1.5 0.84,1.32 0.9,0.9 0.96,0.54 1.02,0.12"
               style="fill:#000000;fill-opacity:1;fill-rule:nonzero;stroke:none"
               id="path1262" />
          </g>
          <g
             id="g1264"
             transform="translate(176.42065,463.86392)">
            <path
               d="M 0,0 0.3,-0.24 0.24,-0.18 0.6,-0.42 0.48,-0.36 0.84,-0.48 0.9,-0.54 1.26,-0.72 1.08,-0.66 1.5,-0.72 H 1.56 L 1.92,-0.78 H 1.86 L 2.28,-0.84 H 2.16 L 3,-0.72 3.36,-0.66 3.18,-0.72 3.66,-0.48 4.02,-0.36 3.9,-0.42 4.26,-0.18 4.2,-0.24 4.8,0.24 4.74,0.18 5.22,0.78 5.16,0.72 5.4,1.08 5.34,1.02 5.46,1.32 5.64,1.74 V 1.62 L 5.7,1.98 5.76,2.4 5.82,2.82 V 2.7 L 6.84,2.82 V 2.7 L 6.78,2.28 6.72,1.86 V 1.8 L 6.66,1.44 6.6,1.32 6.42,0.9 V 0.96 L 6.3,0.66 6.24,0.54 6,0.18 V 0.12 L 5.52,-0.48 5.46,-0.54 4.86,-1.02 H 4.8 L 4.44,-1.26 4.32,-1.32 3.96,-1.44 H 4.02 L 3.54,-1.68 3.18,-1.74 H 3.12 L 2.28,-1.86 H 2.16 L 1.74,-1.8 1.38,-1.74 0.96,-1.68 0.78,-1.62 0.42,-1.44 h 0.12 l -0.36,0.12 -0.12,0.06 -0.36,0.24 h -0.06 l -0.3,0.24"
               style="fill:#000000;fill-opacity:1;fill-rule:nonzero;stroke:none"
               id="path1266" />
          </g>
          <g
             id="g1268"
             transform="translate(174.62064,466.62392)">
            <path
               d="M 0,0 0.06,0.78 0.3,1.56 0.66,2.22 1.2,2.82 1.74,3.36 2.46,3.72 3.24,3.96 4.02,4.02 V 0 H 0"
               style="fill:#000000;fill-opacity:1;fill-rule:evenodd;stroke:none"
               id="path1270" />
          </g>
          <path
             d="m 174.14065,466.14392 h 1.02 v 0.48 h -1.02 z"
             style="fill:#000000;fill-opacity:1;fill-rule:nonzero;stroke:none"
             id="path1272" />
          <g
             id="g1274"
             transform="translate(174.14065,466.62392)">
            <path
               d="M 0,0 V 0.48 L 0.06,0.84 V 0.9 L 0.18,1.32 0.3,1.68 0.54,2.16 0.72,2.46 0.96,2.82 1.08,2.94 1.38,3.18 1.32,3.12 1.56,3.42 1.62,3.48 1.92,3.72 1.98,3.78 2.82,4.2 3.18,4.32 3.6,4.44 H 3.66 L 3.84,3.42 3.9,3.48 3.48,3.36 3.12,3.24 H 3.18 L 2.46,2.88 2.58,2.94 2.28,2.7 2.34,2.76 2.1,2.46 2.04,2.4 1.74,2.16 1.8,2.28 1.56,1.92 H 1.62 L 1.44,1.62 V 1.68 L 1.26,1.32 V 1.38 L 1.14,1.02 1.02,0.6 1.08,0.66 1.02,0.3 V 0.42 0"
               style="fill:#000000;fill-opacity:1;fill-rule:nonzero;stroke:none"
               id="path1276" />
          </g>
          <g
             id="g1278"
             transform="translate(177.80065,471.06392)">
            <path
               d="M 0,0 0.36,0.06 H 0.42 V -0.96 H 0.54 L 0.18,-1.02"
               style="fill:#000000;fill-opacity:1;fill-rule:nonzero;stroke:none"
               id="path1280" />
          </g>
          <path
             d="m 178.22065,470.10392 h 0.9 v 1.02 h -0.9 z"
             style="fill:#000000;fill-opacity:1;fill-rule:nonzero;stroke:none"
             id="path1282" />
          <g
             id="g1284"
             transform="translate(194.84065,476.70392)">
            <path
               d="m 0,0 h -0.42 l -0.36,-0.12 -0.36,-0.18 -0.3,-0.3 -0.24,-0.3 -0.18,-0.3 -0.12,-0.42 -0.06,-0.36 v -16.2 l 0.06,-0.42 0.12,-0.36 0.18,-0.36 0.24,-0.3 0.3,-0.24 0.36,-0.18 0.36,-0.12 0.42,-0.06 0.42,0.06 0.36,0.12 0.36,0.18 0.3,0.24 0.24,0.3 0.18,0.36 0.12,0.36 0.06,0.42 v 16.2 L 1.98,-1.62 1.86,-1.2 1.68,-0.9 1.44,-0.6 1.14,-0.3 0.78,-0.12 0.42,0 H 0"
               style="fill:#b3b3b3;fill-opacity:1;fill-rule:evenodd;stroke:none"
               id="path1286" />
          </g>
          <g
             id="g1288"
             transform="translate(194.84065,476.16392)">
            <path
               d="m 0,0 h -0.42 l 0.18,0.06 -0.36,-0.12 h 0.06 l -0.36,-0.18 0.12,0.12 -0.3,-0.3 h 0.06 l -0.24,-0.3 0.06,0.06 -0.18,-0.3 v 0.12 L -1.5,-1.26 -1.44,-1.2 -1.5,-1.56 v 0.12 -16.2 0.06 l 0.06,-0.42 -0.06,0.06 0.12,-0.36 v 0.12 l 0.18,-0.36 -0.06,0.06 0.24,-0.3 -0.06,0.06 0.3,-0.24 -0.12,0.06 0.36,-0.18 -0.06,0.06 0.36,-0.12 h -0.12 l 0.42,-0.06 h -0.12 l 0.42,0.06 H 0.3 l 0.36,0.12 -0.12,-0.06 0.36,0.18 -0.06,-0.06 0.3,0.24 -0.06,-0.06 0.24,0.3 -0.06,-0.06 0.18,0.36 -0.06,-0.12 0.12,0.36 V -18 l 0.06,0.42 v -0.06 16.2 -0.12 L 1.5,-1.2 v -0.06 l -0.12,0.42 0.06,-0.12 -0.18,0.3 0.06,-0.06 -0.24,0.3 -0.3,0.3 0.12,-0.12 -0.36,0.18 H 0.66 L 0.3,0.06 0.42,0 H 0 V 1.02 H 0.6 L 0.96,0.9 1.02,0.84 1.5,0.6 1.86,0.24 2.1,-0.06 2.16,-0.12 2.34,-0.42 V -0.54 L 2.46,-0.96 2.52,-1.02 2.58,-1.38 V -17.7 L 2.52,-18.12 2.46,-18.24 2.34,-18.6 v -0.06 L 2.1,-19.14 1.86,-19.44 1.8,-19.5 1.5,-19.74 1.02,-19.98 H 0.96 L 0.6,-20.1 0.48,-20.16 0.06,-20.22 h -0.12 l -0.42,0.06 -0.06,0.06 -0.36,0.12 h -0.12 l -0.36,0.18 -0.06,0.06 -0.3,0.24 -0.06,0.06 -0.24,0.3 -0.24,0.48 -0.06,0.06 -0.12,0.36 v 0.12 l -0.06,0.42 v 16.32 l 0.06,0.36 v 0.06 l 0.12,0.42 0.06,0.12 0.18,0.3 0.06,0.06 0.24,0.3 V 0.3 l 0.3,0.3 0.6,0.3 0.36,0.12 H 0"
               style="fill:#000000;fill-opacity:1;fill-rule:nonzero;stroke:none"
               id="path1290" />
          </g>
          <g
             id="g1292"
             transform="translate(194.84065,476.16392)">
            <path
               d="M 0,0 V 1.02"
               style="fill:#000000;fill-opacity:1;fill-rule:nonzero;stroke:none"
               id="path1294" />
          </g>
          <g
             id="g1296"
             transform="translate(162.44065,476.70392)">
            <path
               d="M 0,0 H -0.36 L -0.78,-0.12 -1.14,-0.3 -1.38,-0.6 -1.68,-0.9 -1.86,-1.2 -1.98,-1.62 V -18.6 l 0.12,-0.36 0.18,-0.36 0.54,-0.54 0.36,-0.18 0.42,-0.12 0.36,-0.06 0.42,0.06 0.36,0.12 0.36,0.18 0.3,0.24 0.24,0.3 0.18,0.36 0.12,0.36 0.06,0.42 v 16.2 L 1.98,-1.62 1.86,-1.2 1.68,-0.9 1.44,-0.6 1.14,-0.3 0.78,-0.12 0.42,0 H 0"
               style="fill:#b3b3b3;fill-opacity:1;fill-rule:evenodd;stroke:none"
               id="path1298" />
          </g>
          <g
             id="g1300"
             transform="translate(162.44065,476.16392)">
            <path
               d="m 0,0 h -0.36 l 0.18,0.06 -0.42,-0.12 h 0.06 l -0.36,-0.18 0.18,0.12 -0.24,-0.3 h -0.06 l -0.3,-0.3 0.12,0.06 -0.18,-0.3 v 0.12 l -0.12,-0.42 0.06,0.18 v -16.98 l -0.06,0.12 0.12,-0.36 v 0.12 l 0.18,-0.36 -0.12,0.12 0.54,-0.54 -0.12,0.06 0.36,-0.18 -0.06,0.06 0.42,-0.12 h -0.06 l 0.36,-0.06 h -0.18 l 0.42,0.06 H 0.3 l 0.36,0.12 -0.12,-0.06 0.36,0.18 -0.06,-0.06 0.3,0.24 -0.06,-0.06 0.24,0.3 -0.06,-0.06 0.18,0.36 -0.06,-0.12 0.12,0.36 V -18 l 0.06,0.42 v -0.06 16.2 -0.12 L 1.5,-1.2 v -0.06 l -0.12,0.42 0.06,-0.12 -0.18,0.3 0.06,-0.06 -0.24,0.3 -0.3,0.3 0.12,-0.12 -0.36,0.18 H 0.66 L 0.3,0.06 0.42,0 H 0 V 1.02 H 0.6 L 0.96,0.9 1.02,0.84 1.5,0.6 1.86,0.24 2.1,-0.06 2.16,-0.12 2.34,-0.42 V -0.54 L 2.46,-0.96 2.52,-1.02 2.58,-1.38 V -17.7 L 2.52,-18.12 2.46,-18.24 2.34,-18.6 v -0.06 L 2.1,-19.14 1.86,-19.44 1.8,-19.5 1.5,-19.74 1.02,-19.98 H 0.96 L 0.6,-20.1 0.48,-20.16 0.06,-20.22 h -0.12 l -0.36,0.06 -0.06,0.06 -0.42,0.12 h -0.12 l -0.36,0.18 -0.66,0.66 -0.24,0.48 -0.06,0.06 -0.12,0.36 v 17.28 l 0.12,0.42 0.06,0.12 0.18,0.3 0.06,0.12 0.3,0.3 V 0.24 l 0.24,0.3 0.12,0.12 0.48,0.24 0.42,0.12 H 0"
               style="fill:#000000;fill-opacity:1;fill-rule:nonzero;stroke:none"
               id="path1302" />
          </g>
          <g
             id="g1304"
             transform="translate(162.44065,476.16392)">
            <path
               d="M 0,0 V 1.02"
               style="fill:#000000;fill-opacity:1;fill-rule:nonzero;stroke:none"
               id="path1306" />
          </g>
          <g
             id="g1308"
             transform="translate(182.72065,490.86392)">
            <path
               d="M 0,0 -0.06,0.42 -0.12,0.84 -0.18,1.26 -0.36,1.62 -0.48,1.98 -1.2,2.88 -1.5,3.18 -1.8,3.36 -2.16,3.6 -2.52,3.78 -3.24,4.02 -3.66,4.08 H -4.5 L -4.86,4.02 -5.28,3.9 -5.64,3.78 -6,3.6 -6.36,3.36 -6.66,3.18 -6.9,2.88 -7.2,2.58 -7.44,2.28 -7.62,1.98 -7.8,1.62 -7.92,1.26 -8.04,0.84 -8.1,0.42 v -0.78 l 0.06,-0.42 0.12,-0.42 0.12,-0.36 0.18,-0.36 0.18,-0.3 0.24,-0.3 0.3,-0.3 0.24,-0.3 0.3,-0.18 0.36,-0.24 0.36,-0.18 0.36,-0.12 0.42,-0.12 0.36,-0.06 h 0.84 l 0.42,0.06 0.72,0.24 0.36,0.18 0.36,0.24 0.3,0.18 0.3,0.3 0.72,0.9 0.12,0.36 0.18,0.36 0.12,0.84 L 0,0"
               style="fill:#b3b3b3;fill-opacity:1;fill-rule:evenodd;stroke:none"
               id="path1310" />
          </g>
          <g
             id="g1312"
             transform="translate(182.24065,490.80392)">
            <path
               d="m 0,0 -0.06,0.42 -0.12,0.84 0.06,-0.18 -0.18,0.36 -0.06,0.06 -0.12,0.36 0.12,-0.18 -0.72,0.9 -0.3,0.3 0.12,-0.12 -0.3,0.18 V 3 L -1.92,3.24 V 3.18 l -0.36,0.18 h 0.12 L -2.88,3.6 -2.82,3.54 -3.24,3.6 h 0.06 -0.84 0.12 L -4.26,3.54 -4.2,3.6 -4.62,3.48 -4.98,3.36 h 0.06 L -5.28,3.18 -5.22,3.24 -5.58,3 V 2.94 L -5.88,2.76 -5.76,2.88 -6,2.58 h -0.06 l -0.3,-0.3 h 0.06 l -0.24,-0.3 0.06,0.06 -0.18,-0.3 V 1.8 L -6.84,1.44 V 1.5 L -6.96,1.14 -7.08,0.72 -7.02,0.84 -7.08,0.42 v 0.06 -0.78 0.06 l 0.06,-0.42 -0.06,0.06 0.12,-0.42 0.12,-0.36 v 0.12 l 0.18,-0.36 0.18,-0.3 -0.06,0.06 0.24,-0.3 -0.06,0.06 0.36,-0.36 0.24,-0.3 -0.12,0.12 -0.54,-0.9 -0.12,0.12 -0.24,0.3 -0.3,0.3 -0.24,0.3 -0.06,0.06 -0.18,0.3 v 0.06 l -0.18,0.36 -0.06,0.06 -0.12,0.36 -0.12,0.42 v 0.12 l -0.06,0.42 v 0.9 l 0.06,0.42 v 0.06 l 0.12,0.42 0.12,0.36 0.24,0.48 0.18,0.3 0.06,0.06 0.24,0.3 V 3 l 0.3,0.3 V 3.24 l 0.24,0.3 0.12,0.12 0.3,0.18 0.36,0.24 0.48,0.24 0.36,0.12 0.42,0.12 h 0.06 l 0.36,0.06 h 0.96 L -2.7,4.56 h 0.12 L -1.86,4.32 -1.8,4.26 -1.44,4.08 h 0.06 L -1.02,3.84 -0.72,3.66 -0.3,3.24 0.42,2.34 0.6,1.8 V 1.92 L 0.78,1.56 0.84,1.38 0.9,0.96 0.96,0.54 1.02,0.12"
               style="fill:#000000;fill-opacity:1;fill-rule:nonzero;stroke:none"
               id="path1314" />
          </g>
          <g
             id="g1316"
             transform="translate(176.36065,488.16392)">
            <path
               d="M 0,0 0.3,-0.18 0.66,-0.42 H 0.6 L 0.96,-0.6 0.9,-0.54 1.26,-0.66 1.68,-0.78 H 1.62 L 1.98,-0.84 H 1.86 2.7 2.64 l 0.42,0.06 H 3 L 3.72,-0.54 3.6,-0.6 3.96,-0.42 4.32,-0.18 4.62,0 4.5,-0.06 4.8,0.24 V 0.18 L 5.52,1.08 5.4,0.9 5.52,1.26 5.58,1.38 5.76,1.74 5.7,1.56 5.82,2.4 5.88,2.76 V 2.64 L 6.9,2.76 V 2.58 L 6.84,2.22 V 2.28 L 6.72,1.44 6.66,1.26 6.48,0.9 V 0.96 L 6.3,0.42 5.58,-0.48 H 5.52 L 5.22,-0.78 5.16,-0.9 4.86,-1.08 v 0.06 L 4.5,-1.26 4.44,-1.32 4.08,-1.5 H 4.02 L 3.3,-1.74 3.18,-1.8 2.76,-1.86 H 1.8 L 1.44,-1.8 1.38,-1.74 0.96,-1.62 0.6,-1.5 H 0.48 l -0.36,0.18 v 0.06 l -0.36,0.24 v -0.06 l -0.3,0.18"
               style="fill:#000000;fill-opacity:1;fill-rule:nonzero;stroke:none"
               id="path1318" />
          </g>
          <text
             transform="scale(0.98710562,-1.0130628)"
             style="font-style:italic;font-variant:normal;font-weight:normal;font-stretch:normal;font-size:9.83157px;font-family:'Times New Roman';-inkscape-font-specification:TimesNewRomanPS-ItalicMT;writing-mode:lr-tb;fill:#000000;fill-opacity:1;fill-rule:nonzero;stroke:none;stroke-width:0.987106"
             id="text1322"
             x="88.278954"
             y="-469.66873"><tspan
               x="88.278954"
               y="-469.66873"
               id="tspan1320"
               style="stroke-width:0.987106">Y</tspan></text>
          <text
             transform="scale(0.98636697,-1.0138215)"
             style="font-style:italic;font-variant:normal;font-weight:normal;font-stretch:normal;font-size:7.87121px;font-family:'Times New Roman';-inkscape-font-specification:TimesNewRomanPS-ItalicMT;writing-mode:lr-tb;fill:#000000;fill-opacity:1;fill-rule:nonzero;stroke:none;stroke-width:0.986367"
             id="text1326"
             x="93.819695"
             y="-466.83163"><tspan
               x="93.819695"
               y="-466.83163"
               id="tspan1324"
               style="stroke-width:0.986367">R</tspan></text>
          <text
             transform="scale(0.98710562,-1.0130628)"
             style="font-style:italic;font-variant:normal;font-weight:normal;font-stretch:normal;font-size:9.83157px;font-family:'Times New Roman';-inkscape-font-specification:TimesNewRomanPS-ItalicMT;writing-mode:lr-tb;fill:#000000;fill-opacity:1;fill-rule:nonzero;stroke:none;stroke-width:0.987106"
             id="text1330"
             x="186.08003"
             y="-546.66296"><tspan
               x="186.08003"
               y="-546.66296"
               id="tspan1328"
               style="stroke-width:0.987106">X</tspan></text>
          <text
             transform="scale(0.98636697,-1.0138215)"
             style="font-style:italic;font-variant:normal;font-weight:normal;font-stretch:normal;font-size:7.87121px;font-family:'Times New Roman';-inkscape-font-specification:TimesNewRomanPS-ItalicMT;writing-mode:lr-tb;fill:#000000;fill-opacity:1;fill-rule:nonzero;stroke:none;stroke-width:0.986367"
             id="text1334"
             x="192.18065"
             y="-543.82745"><tspan
               x="192.18065"
               y="-543.82745"
               id="tspan1332"
               style="stroke-width:0.986367">R</tspan></text>
          <g
             id="g1336"
             transform="translate(182.60065,466.80392)">
            <path
               d="M 0,0 -0.12,-0.78 -0.36,-1.56 -0.72,-2.22 -1.2,-2.82 -1.8,-3.36 -2.52,-3.72 -3.24,-3.96 -4.08,-4.02 V 0 H 0"
               style="fill:#000000;fill-opacity:1;fill-rule:evenodd;stroke:none"
               id="path1338" />
          </g>
          <g
             id="g1340"
             transform="translate(183.08065,466.74393)">
            <path
               d="M 0,0 0.06,0.48 -0.96,0.6 -1.02,0.12"
               style="fill:#000000;fill-opacity:1;fill-rule:nonzero;stroke:none"
               id="path1342" />
          </g>
          <g
             id="g1344"
             transform="translate(183.08065,466.74393)">
            <path
               d="M 0,0 -0.06,-0.42 -0.12,-0.78 -0.18,-1.2 -0.24,-1.38 -0.6,-2.1 -0.78,-2.4 -1.02,-2.76 -1.08,-2.88 -1.62,-3.42 h -0.06 l -0.3,-0.24 -0.06,-0.06 -0.84,-0.42 -0.72,-0.24 h -0.06 l -0.12,1.02 -0.12,-0.06 0.72,0.24 h -0.06 l 0.72,0.36 -0.12,-0.06 0.3,0.24 V -2.7 l 0.54,0.54 -0.06,-0.06 0.24,0.36 h -0.06 l 0.18,0.3 v -0.06 l 0.36,0.72 -0.06,-0.18 0.06,0.42 v 0.06 l 0.06,0.36 V -0.3 l 0.06,0.42"
               style="fill:#000000;fill-opacity:1;fill-rule:nonzero;stroke:none"
               id="path1346" />
          </g>
          <g
             id="g1348"
             transform="translate(179.42065,462.36392)">
            <path
               d="m 0,0 -0.42,-0.06 h -0.06 v 1.02 h -0.06 l 0.42,0.06"
               style="fill:#000000;fill-opacity:1;fill-rule:nonzero;stroke:none"
               id="path1350" />
          </g>
          <path
             d="m 178.04065,462.30392 h 0.9 v 1.02 h -0.9 z"
             style="fill:#000000;fill-opacity:1;fill-rule:nonzero;stroke:none"
             id="path1352" />
          <g
             id="g1354"
             transform="translate(97.880651,466.86392)">
            <path
               d="m 0,0 v -2.16 l -0.66,0.18 -5.4,1.5 L -7.74,0 -6.06,0.48 -0.66,2.04 0,2.22 V 1.56 l -0.36,-0.48 -5.4,-1.56 -0.3,0.96 h 0.3 l 5.4,-1.5 -0.3,-0.96 -0.36,0.48 V 0"
               style="fill:#000000;fill-opacity:1;fill-rule:nonzero;stroke:none"
               id="path1356" />
          </g>
          <path
             d="m 96.860651,466.86392 h 1.02 v 1.56 h -1.02 z"
             style="fill:#000000;fill-opacity:1;fill-rule:nonzero;stroke:none"
             id="path1358" />
          <g
             id="g1360"
             transform="translate(97.400641,466.86392)">
            <path
               d="M 0,0 V -1.5 L -5.4,0 0,1.56"
               style="fill:#000000;fill-opacity:1;fill-rule:evenodd;stroke:none"
               id="path1362" />
          </g>
          <path
             d="m 178.58065,466.68392 h 0.24 v 0.48 h -0.24 z"
             style="fill:#000000;fill-opacity:1;fill-rule:nonzero;stroke:none"
             id="path1364" />
          <path
             d="m 97.640651,466.62392 h 0.24 v 0.48 h -0.24 z"
             style="fill:#000000;fill-opacity:1;fill-rule:nonzero;stroke:none"
             id="path1366" />
          <g
             id="g1368"
             transform="translate(178.58065,466.68391)">
            <path
               d="M 0,0 V 0.48 L -80.7,0.42 v -0.48"
               style="fill:#000000;fill-opacity:1;fill-rule:nonzero;stroke:none"
               id="path1370" />
          </g>
          <text
             transform="scale(0.98710562,-1.0130628)"
             style="font-style:italic;font-variant:normal;font-weight:normal;font-stretch:normal;font-size:9.83157px;font-family:'Times New Roman';-inkscape-font-specification:TimesNewRomanPS-ItalicMT;writing-mode:lr-tb;fill:#000000;fill-opacity:1;fill-rule:nonzero;stroke:none;stroke-width:0.987106"
             id="text1374"
             x="66.09288"
             y="-590.07587"><tspan
               x="66.09288"
               y="-590.07587"
               id="tspan1372"
               style="stroke-width:0.987106">Y</tspan></text>
          <text
             transform="scale(0.98636697,-1.0138215)"
             style="font-style:italic;font-variant:normal;font-weight:normal;font-stretch:normal;font-size:7.87121px;font-family:'Times New Roman';-inkscape-font-specification:TimesNewRomanPS-ItalicMT;writing-mode:lr-tb;fill:#000000;fill-opacity:1;fill-rule:nonzero;stroke:none;stroke-width:0.986367"
             id="text1378"
             x="71.556175"
             y="-587.20782"><tspan
               x="71.556175"
               y="-587.20782"
               id="tspan1376"
               style="stroke-width:0.986367">I</tspan></text>
          <text
             transform="scale(0.98710562,-1.0130628)"
             style="font-style:italic;font-variant:normal;font-weight:normal;font-stretch:normal;font-size:9.83157px;font-family:'Times New Roman';-inkscape-font-specification:TimesNewRomanPS-ItalicMT;writing-mode:lr-tb;fill:#000000;fill-opacity:1;fill-rule:nonzero;stroke:none;stroke-width:0.987106"
             id="text1382"
             x="249.84221"
             y="-412.27841"><tspan
               x="249.84221"
               y="-412.27841"
               id="tspan1380"
               style="stroke-width:0.987106">X</tspan></text>
          <text
             transform="scale(0.98636697,-1.0138215)"
             style="font-style:italic;font-variant:normal;font-weight:normal;font-stretch:normal;font-size:7.87121px;font-family:'Times New Roman';-inkscape-font-specification:TimesNewRomanPS-ItalicMT;writing-mode:lr-tb;fill:#000000;fill-opacity:1;fill-rule:nonzero;stroke:none;stroke-width:0.986367"
             id="text1386"
             x="255.99059"
             y="-409.48425"><tspan
               x="255.99059"
               y="-409.48425"
               id="tspan1384"
               style="stroke-width:0.986367">I</tspan></text>
          <g
             id="g1388"
             transform="translate(234.32066,417.00392)">
            <path
               d="M 0,0 V 2.16 L 0.66,1.98 6,0.48 7.62,0 6,-0.48 0.66,-2.04 0,-2.22 v 0.66 L 0.36,-1.08 5.7,0.48 6,-0.48 H 5.7 L 0.36,1.02 0.66,1.98 1.02,1.5 V 0"
               style="fill:#000000;fill-opacity:1;fill-rule:nonzero;stroke:none"
               id="path1390" />
          </g>
          <path
             d="m 234.32065,415.44392 h 1.02 v 1.56 h -1.02 z"
             style="fill:#000000;fill-opacity:1;fill-rule:nonzero;stroke:none"
             id="path1392" />
          <g
             id="g1394"
             transform="translate(234.80065,417.00392)">
            <path
               d="M 0,0 V 1.5 L 5.34,0 0,-1.56"
               style="fill:#000000;fill-opacity:1;fill-rule:evenodd;stroke:none"
               id="path1396" />
          </g>
          <path
             d="m 67.880651,416.76392 h 0.24 v 0.48 h -0.24 z"
             style="fill:#000000;fill-opacity:1;fill-rule:nonzero;stroke:none"
             id="path1398" />
          <path
             d="M 68.120651,416.76392 H 234.50065 v 0.48 H 68.120651 Z"
             style="fill:#000000;fill-opacity:1;fill-rule:nonzero;stroke:none"
             id="path1400" />
          <g
             id="g1402"
             transform="translate(68.060647,583.50392)">
            <path
               d="M 0,0 H -2.22 L -2.04,0.66 -0.48,6 0,7.68 0.48,6 1.98,0.66 2.16,0 H 1.5 L 1.02,0.36 -0.48,5.7 0.48,6 V 5.7 l -1.56,-5.34 -0.96,0.3 0.48,0.36 H 0"
               style="fill:#000000;fill-opacity:1;fill-rule:nonzero;stroke:none"
               id="path1404" />
          </g>
          <path
             d="m 68.060651,583.50392 h 1.5 v 1.02 h -1.5 z"
             style="fill:#000000;fill-opacity:1;fill-rule:nonzero;stroke:none"
             id="path1406" />
          <g
             id="g1408"
             transform="translate(68.060647,583.98392)">
            <path
               d="M 0,0 H -1.56 L 0,5.34 1.5,0"
               style="fill:#000000;fill-opacity:1;fill-rule:evenodd;stroke:none"
               id="path1410" />
          </g>
          <path
             d="m 67.820651,416.76392 h 0.48 v 0.24 h -0.48 z"
             style="fill:#000000;fill-opacity:1;fill-rule:nonzero;stroke:none"
             id="path1412" />
          <path
             d="m 67.820651,417.00392 h 0.48 v 166.68 h -0.48 z"
             style="fill:#000000;fill-opacity:1;fill-rule:nonzero;stroke:none"
             id="path1414" />
          <g
             id="g1416"
             transform="translate(178.16065,547.26392)">
            <path
               d="M 0,0 H -2.22 L -2.04,0.66 -0.48,6 0,7.74 0.48,6 1.98,0.66 2.16,0 H 1.5 L 1.02,0.36 -0.48,5.7 0.48,6 V 5.7 l -1.56,-5.34 -0.96,0.3 0.48,0.36 H 0"
               style="fill:#000000;fill-opacity:1;fill-rule:nonzero;stroke:none"
               id="path1418" />
          </g>
          <path
             d="m 178.16065,547.26392 h 1.5 v 1.02 h -1.5 z"
             style="fill:#000000;fill-opacity:1;fill-rule:nonzero;stroke:none"
             id="path1420" />
          <g
             id="g1422"
             transform="translate(178.16065,547.74393)">
            <path
               d="M 0,0 H -1.56 L 0,5.34 1.5,0"
               style="fill:#000000;fill-opacity:1;fill-rule:evenodd;stroke:none"
               id="path1424" />
          </g>
          <path
             d="m 177.98065,466.26392 h 0.48 v 0.24 h -0.48 z"
             style="fill:#000000;fill-opacity:1;fill-rule:nonzero;stroke:none"
             id="path1426" />
          <path
             d="m 177.92065,547.26392 h 0.48 v 0.24 h -0.48 z"
             style="fill:#000000;fill-opacity:1;fill-rule:nonzero;stroke:none"
             id="path1428" />
          <g
             id="g1430"
             transform="translate(177.98064,466.50392)">
            <path
               d="M 0,0 H 0.48 L 0.42,80.76 h -0.48"
               style="fill:#000000;fill-opacity:1;fill-rule:nonzero;stroke:none"
               id="path1432" />
          </g>
          <g
             id="g1434"
             transform="translate(186.68066,500.22392)">
            <path
               d="m 0,0 -0.24,-1.56 -0.12,-0.66 -0.6,0.24 -5.1,2.22 -1.62,0.72 1.74,0.24 5.52,0.84 L 0.24,2.16 0.18,1.5 -0.24,1.08 -5.76,0.24 -5.94,1.2 h 0.3 l 5.1,-2.22 -0.42,-0.96 -0.3,0.54 0.24,1.56"
               style="fill:#000000;fill-opacity:1;fill-rule:nonzero;stroke:none"
               id="path1436" />
          </g>
          <g
             id="g1438"
             transform="translate(186.86065,501.72392)">
            <path
               d="m 0,0 -0.18,-1.5 -1.02,0.12 0.18,1.5"
               style="fill:#000000;fill-opacity:1;fill-rule:nonzero;stroke:none"
               id="path1440" />
          </g>
          <g
             id="g1442"
             transform="translate(186.20065,500.28392)">
            <path
               d="M 0,0 -0.24,-1.56 -5.34,0.66 0.18,1.5"
               style="fill:#000000;fill-opacity:1;fill-rule:evenodd;stroke:none"
               id="path1444" />
          </g>
          <g
             id="g1446"
             transform="translate(186.74065,500.46391)">
            <path
               d="M 0,0 H -0.24 L -0.3,-0.48 h 0.24"
               style="fill:#000000;fill-opacity:1;fill-rule:nonzero;stroke:none"
               id="path1448" />
          </g>
          <g
             id="g1450"
             transform="translate(186.74065,500.46391)">
            <path
               d="M 0,0 1.44,-0.24 2.82,-0.54 4.2,-0.9 H 4.26 L 6.9,-1.86 v -0.06 l 1.32,-0.6 1.2,-0.66 1.26,-0.66 h 0.06 l 1.14,-0.78 1.14,-0.84 1.14,-0.9 1.02,-0.9 2.04,-2.04 v -0.06 l 0.9,-1.08 0.9,-1.14 0.84,-1.14 h 0.06 l 0.84,-1.2 1.44,-2.52 0.66,-1.32 v -0.06 l 0.6,-1.32 0.54,-1.38 0.48,-1.38 0.48,-1.44 0.72,-2.88 v -0.06 l 0.24,-1.44 0.24,-1.5 0.18,-1.5 h -0.48 v -0.06 l -0.18,1.5 -0.24,1.5 -0.24,1.44 -0.72,2.88 v -0.06 l -0.48,1.44 -0.48,1.38 h 0.06 l -0.54,1.38 -0.6,1.32 -0.66,1.32 -1.44,2.52 v -0.06 l -0.84,1.2 -0.84,1.14 -0.9,1.14 -0.9,1.08 -2.04,2.04 h 0.06 l -1.02,0.9 -1.14,0.9 -1.14,0.84 v -0.06 l -1.14,0.78 -1.26,0.66 -1.2,0.66 h 0.06 l -1.32,0.6 -2.64,0.96 -1.38,0.36 -1.38,0.3 h 0.06 l -1.44,0.24"
               style="fill:#000000;fill-opacity:1;fill-rule:nonzero;stroke:none"
               id="path1452" />
          </g>
          <g
             id="g1454"
             transform="translate(213.08065,469.74393)">
            <path
               d="M 0,0 0.06,-1.5 H -0.42 L -0.48,0"
               style="fill:#000000;fill-opacity:1;fill-rule:nonzero;stroke:none"
               id="path1456" />
          </g>
          <path
             d="m 212.72065,466.44392 h 0.48 v 0.24 h -0.48 z"
             style="fill:#000000;fill-opacity:1;fill-rule:nonzero;stroke:none"
             id="path1458" />
          <g
             id="g1460"
             transform="translate(213.14065,468.24393)">
            <path
               d="m 0,0 h -0.48 l 0.06,-1.56 h 0.48"
               style="fill:#000000;fill-opacity:1;fill-rule:nonzero;stroke:none"
               id="path1462" />
          </g>
          <path
             d="m 216.56065,466.74392 h 0.24 v 0.48 h -0.24 z"
             style="fill:#000000;fill-opacity:1;fill-rule:nonzero;stroke:none"
             id="path1468" />
          <path
             d="m 212.60065,466.74392 h 3.96 v 0.48 h -3.96 z"
             style="fill:#000000;fill-opacity:1;fill-rule:nonzero;stroke:none"
             id="path1470" />
          <path
             d="m 206.84065,466.74392 h 0.24 v 0.48 h -0.24 z"
             style="fill:#000000;fill-opacity:1;fill-rule:nonzero;stroke:none"
             id="path1472" />
          <path
             d="m 199.76065,466.74392 h 7.08 v 0.48 h -7.08 z"
             style="fill:#000000;fill-opacity:1;fill-rule:nonzero;stroke:none"
             id="path1474" />
          <path
             d="m 194.00065,466.74392 h 0.24 v 0.48 h -0.24 z"
             style="fill:#000000;fill-opacity:1;fill-rule:nonzero;stroke:none"
             id="path1476" />
          <path
             d="m 186.86065,466.74392 h 7.14 v 0.48 h -7.14 z"
             style="fill:#000000;fill-opacity:1;fill-rule:nonzero;stroke:none"
             id="path1478" />
          <path
             d="m 181.16065,466.74392 h 0.24 v 0.48 h -0.24 z"
             style="fill:#000000;fill-opacity:1;fill-rule:nonzero;stroke:none"
             id="path1480" />
          <path
             d="m 177.14065,466.74392 h 4.02 v 0.48 h -4.02 z"
             style="fill:#000000;fill-opacity:1;fill-rule:nonzero;stroke:none"
             id="path1482" />
          <g
             transform="matrix(1.0988813,0,0,-1.0988813,207.44157,499.38804)"
             ns0:version="1.4.0"
             ns0:texconverter="pdflatex"
             ns0:pdfconverter="inkscape"
             ns0:text="$\\theta$"
             ns0:preamble="/home/taihu/.config/inkscape/extensions/textext/default_packages.tex"
             ns0:scale="2.0"
             ns0:alignment="middle center"
             ns0:inkscapeversion="1.1"
             ns0:jacobian_sqrt="0.705556"
             id="g7176">
            <defs
               id="id-853bf168-214c-457b-a397-01690b144d33">
              <g
                 id="g2976">
                <symbol
                   overflow="visible"
                   id="symbol2970">
                  <path
                     style="stroke:none;stroke-width:0"
                     d=""
                     id="path2968" />
                </symbol>
                <symbol
                   overflow="visible"
                   id="symbol2974">
                  <path
                     style="stroke:none;stroke-width:0"
                     d="m 4.53125,-4.984375 c 0,-0.65625 -0.171875,-2.046875 -1.1875,-2.046875 -1.390625,0 -2.921875,2.8125 -2.921875,5.09375 0,0.9375 0.28125,2.046875 1.1875,2.046875 1.40625,0 2.921875,-2.859375 2.921875,-5.09375 z M 1.46875,-3.625 C 1.640625,-4.25 1.84375,-5.046875 2.25,-5.765625 2.515625,-6.25 2.875,-6.8125 3.328125,-6.8125 c 0.484375,0 0.546875,0.640625 0.546875,1.203125 0,0.5 -0.078125,1 -0.3125,1.984375 z m 2,0.328125 C 3.359375,-2.84375 3.15625,-2 2.765625,-1.28125 c -0.34375,0.6875 -0.71875,1.171875 -1.15625,1.171875 -0.328125,0 -0.53125,-0.296875 -0.53125,-1.21875 0,-0.421875 0.0625,-1 0.3125,-1.96875 z m 0,0"
                     id="path2972" />
                </symbol>
              </g>
            </defs>
            <g
               id="id-8f1482ef-ae3a-46e0-a429-7912792f40bc"
               transform="translate(-149.134,-127.734)">
              <g
                 style="fill:#000000"
                 id="id-88349095-a02d-434e-8d0a-bb75c461a467">
                <g
                   id="id-03f784ed-b408-4b45-99b5-b7cf4d4abaaa"
                   transform="translate(148.712,134.765)">
                  <path
                     style="color:#000000;-inkscape-stroke:none"
                     d="m 4.53125,-4.984375 c 0,-0.65625 -0.171875,-2.046875 -1.1875,-2.046875 -1.390625,0 -2.921875,2.8125 -2.921875,5.09375 0,0.9375 0.28125,2.046875 1.1875,2.046875 1.40625,0 2.921875,-2.859375 2.921875,-5.09375 z M 1.46875,-3.625 C 1.640625,-4.25 1.84375,-5.046875 2.25,-5.765625 2.515625,-6.25 2.875,-6.8125 3.328125,-6.8125 c 0.484375,0 0.546875,0.640625 0.546875,1.203125 0,0.5 -0.078125,1 -0.3125,1.984375 z m 2,0.328125 C 3.359375,-2.84375 3.15625,-2 2.765625,-1.28125 c -0.34375,0.6875 -0.71875,1.171875 -1.15625,1.171875 -0.328125,0 -0.53125,-0.296875 -0.53125,-1.21875 0,-0.421875 0.0625,-1 0.3125,-1.96875 z m 0,0"
                     id="id-aab91c3e-a228-4760-b591-c31872532303" />
                </g>
              </g>
            </g>
          </g>
        </g>
      </g>
    </g>
  </g>
</svg>
