<?xml version="1.0" encoding="UTF-8" standalone="no"?>
<!-- Created with Inkscape (http://www.inkscape.org/) -->

<svg
   width="46.967041mm"
   height="37.010521mm"
   viewBox="0 0 46.967038 37.010522"
   version="1.1"
   id="svg27324"
   inkscape:version="1.3 (1:1.3+202307231459+0e150ed6c4)"
   sodipodi:docname="correction_step.svg"
   xmlns:inkscape="http://www.inkscape.org/namespaces/inkscape"
   xmlns:sodipodi="http://sodipodi.sourceforge.net/DTD/sodipodi-0.dtd"
   xmlns="http://www.w3.org/2000/svg"
   xmlns:svg="http://www.w3.org/2000/svg">
  <sodipodi:namedview
     id="namedview27326"
     pagecolor="#ffffff"
     bordercolor="#666666"
     borderopacity="1.0"
     inkscape:showpageshadow="2"
     inkscape:pageopacity="0.0"
     inkscape:pagecheckerboard="0"
     inkscape:deskcolor="#d1d1d1"
     inkscape:document-units="mm"
     showgrid="false"
     inkscape:zoom="2.1417559"
     inkscape:cx="86.377725"
     inkscape:cy="105.05399"
     inkscape:window-width="1850"
     inkscape:window-height="1016"
     inkscape:window-x="1436"
     inkscape:window-y="27"
     inkscape:window-maximized="1"
     inkscape:current-layer="layer1" />
  <defs
     id="defs27321" />
  <g
     inkscape:label="Layer 1"
     inkscape:groupmode="layer"
     id="layer1"
     transform="translate(-108.28017,-37.191267)">
    <g
       id="g959"
       transform="matrix(0.35277777,0,0,-0.35277777,111.75606,71.454455)">
      <path
         d="M 0,0 H 123.282"
         style="fill:none;stroke:#000000;stroke-width:0.138;stroke-linecap:butt;stroke-linejoin:round;stroke-miterlimit:10;stroke-dasharray:none;stroke-opacity:1"
         id="path961" />
      <g
         id="g963">
        <path
           d="M 0,0 V 97.124"
           style="fill:none;stroke:#000000;stroke-width:0.138;stroke-linecap:butt;stroke-linejoin:round;stroke-miterlimit:10;stroke-dasharray:none;stroke-opacity:1"
           id="path965" />
        <g
           id="g967"
           transform="translate(6.757)">
          <path
             d="M 0,0 V 1.243"
             style="fill:none;stroke:#000000;stroke-width:0.138;stroke-linecap:butt;stroke-linejoin:round;stroke-miterlimit:10;stroke-dasharray:none;stroke-opacity:1"
             id="path969" />
        </g>
      </g>
    </g>
    <text
       xml:space="preserve"
       style="font-variant:normal;font-weight:normal;font-size:0.972961px;font-family:Helvetica;-inkscape-font-specification:Helvetica;writing-mode:lr-tb;fill:#000000;fill-opacity:1;fill-rule:nonzero;stroke:none;stroke-width:0.352778"
       id="text973"
       x="113.85897"
       y="72.648605"><tspan
         x="113.85897"
         y="72.648605"
         id="tspan971"
         style="stroke-width:0.352778">0</tspan></text>
    <g
       id="g975"
       transform="matrix(0.35277777,0,0,-0.35277777,119.57362,71.454455)">
      <path
         d="M 0,0 V 1.243"
         style="fill:none;stroke:#000000;stroke-width:0.138;stroke-linecap:butt;stroke-linejoin:round;stroke-miterlimit:10;stroke-dasharray:none;stroke-opacity:1"
         id="path977" />
    </g>
    <text
       xml:space="preserve"
       style="font-variant:normal;font-weight:normal;font-size:0.972961px;font-family:Helvetica;-inkscape-font-specification:Helvetica;writing-mode:lr-tb;fill:#000000;fill-opacity:1;fill-rule:nonzero;stroke:none;stroke-width:0.352778"
       id="text981"
       x="119.02399"
       y="72.648605"><tspan
         x="119.02399 119.56496"
         y="72.648605"
         sodipodi:role="line"
         id="tspan979"
         style="stroke-width:0.352778">50</tspan></text>
    <g
       id="g983"
       transform="matrix(0.35277777,0,0,-0.35277777,125.01486,71.454455)">
      <path
         d="M 0,0 V 1.243"
         style="fill:none;stroke:#000000;stroke-width:0.138;stroke-linecap:butt;stroke-linejoin:round;stroke-miterlimit:10;stroke-dasharray:none;stroke-opacity:1"
         id="path985" />
    </g>
    <text
       xml:space="preserve"
       style="font-variant:normal;font-weight:normal;font-size:0.972961px;font-family:Helvetica;-inkscape-font-specification:Helvetica;writing-mode:lr-tb;fill:#000000;fill-opacity:1;fill-rule:nonzero;stroke:none;stroke-width:0.352778"
       id="text989"
       x="124.18936"
       y="72.648605"><tspan
         x="124.18936 124.73032 125.27129"
         y="72.648605"
         sodipodi:role="line"
         id="tspan987"
         style="stroke-width:0.352778">100</tspan></text>
    <g
       id="g991"
       transform="matrix(0.35277777,0,0,-0.35277777,130.44834,71.454455)">
      <path
         d="M 0,0 V 1.243"
         style="fill:none;stroke:#000000;stroke-width:0.138;stroke-linecap:butt;stroke-linejoin:round;stroke-miterlimit:10;stroke-dasharray:none;stroke-opacity:1"
         id="path993" />
    </g>
    <text
       xml:space="preserve"
       style="font-variant:normal;font-weight:normal;font-size:0.972961px;font-family:Helvetica;-inkscape-font-specification:Helvetica;writing-mode:lr-tb;fill:#000000;fill-opacity:1;fill-rule:nonzero;stroke:none;stroke-width:0.352778"
       id="text997"
       x="129.62215"
       y="72.648605"><tspan
         x="129.62215 130.1631 130.70407"
         y="72.648605"
         sodipodi:role="line"
         id="tspan995"
         style="stroke-width:0.352778">150</tspan></text>
    <g
       id="g999"
       transform="matrix(0.35277777,0,0,-0.35277777,135.88147,71.454455)">
      <path
         d="M 0,0 V 1.243"
         style="fill:none;stroke:#000000;stroke-width:0.138;stroke-linecap:butt;stroke-linejoin:round;stroke-miterlimit:10;stroke-dasharray:none;stroke-opacity:1"
         id="path1001" />
    </g>
    <text
       xml:space="preserve"
       style="font-variant:normal;font-weight:normal;font-size:0.972961px;font-family:Helvetica;-inkscape-font-specification:Helvetica;writing-mode:lr-tb;fill:#000000;fill-opacity:1;fill-rule:nonzero;stroke:none;stroke-width:0.352778"
       id="text1005"
       x="135.05527"
       y="72.648605"><tspan
         x="135.05527 135.59624 136.13721"
         y="72.648605"
         sodipodi:role="line"
         id="tspan1003"
         style="stroke-width:0.352778">200</tspan></text>
    <g
       id="g1007"
       transform="matrix(0.35277777,0,0,-0.35277777,141.32307,71.454455)">
      <path
         d="M 0,0 V 1.243"
         style="fill:none;stroke:#000000;stroke-width:0.138;stroke-linecap:butt;stroke-linejoin:round;stroke-miterlimit:10;stroke-dasharray:none;stroke-opacity:1"
         id="path1009" />
    </g>
    <text
       xml:space="preserve"
       style="font-variant:normal;font-weight:normal;font-size:0.972961px;font-family:Helvetica;-inkscape-font-specification:Helvetica;writing-mode:lr-tb;fill:#000000;fill-opacity:1;fill-rule:nonzero;stroke:none;stroke-width:0.352778"
       id="text1013"
       x="140.49615"
       y="72.648605"><tspan
         x="140.49615 141.03712 141.57809"
         y="72.648605"
         sodipodi:role="line"
         id="tspan1011"
         style="stroke-width:0.352778">250</tspan></text>
    <g
       id="g1015"
       transform="matrix(0.35277777,0,0,-0.35277777,146.75691,71.454455)">
      <path
         d="M 0,0 V 1.243"
         style="fill:none;stroke:#000000;stroke-width:0.138;stroke-linecap:butt;stroke-linejoin:round;stroke-miterlimit:10;stroke-dasharray:none;stroke-opacity:1"
         id="path1017" />
    </g>
    <text
       xml:space="preserve"
       style="font-variant:normal;font-weight:normal;font-size:0.972961px;font-family:Helvetica;-inkscape-font-specification:Helvetica;writing-mode:lr-tb;fill:#000000;fill-opacity:1;fill-rule:nonzero;stroke:none;stroke-width:0.352778"
       id="text1021"
       x="145.92894"
       y="72.648605"><tspan
         x="145.92894 146.46991 147.01088"
         y="72.648605"
         sodipodi:role="line"
         id="tspan1019"
         style="stroke-width:0.352778">300</tspan></text>
    <g
       id="g1023"
       transform="matrix(0.35277777,0,0,-0.35277777,152.19815,71.454455)">
      <path
         d="M 0,0 V 1.243"
         style="fill:none;stroke:#000000;stroke-width:0.138;stroke-linecap:butt;stroke-linejoin:round;stroke-miterlimit:10;stroke-dasharray:none;stroke-opacity:1"
         id="path1025" />
    </g>
    <text
       xml:space="preserve"
       style="font-variant:normal;font-weight:normal;font-size:0.972961px;font-family:Helvetica;-inkscape-font-specification:Helvetica;writing-mode:lr-tb;fill:#000000;fill-opacity:1;fill-rule:nonzero;stroke:none;stroke-width:0.352778"
       id="text1029"
       x="151.36983"
       y="72.648605"><tspan
         x="151.36983 151.9108 152.45177"
         y="72.648605"
         sodipodi:role="line"
         id="tspan1027"
         style="stroke-width:0.352778">350</tspan></text>
    <g
       id="g1031"
       transform="matrix(0.35277777,0,0,-0.35277777,111.75606,66.604466)">
      <path
         d="M 0,0 H 1.218"
         style="fill:none;stroke:#000000;stroke-width:0.138;stroke-linecap:butt;stroke-linejoin:round;stroke-miterlimit:10;stroke-dasharray:none;stroke-opacity:1"
         id="path1033" />
    </g>
    <text
       xml:space="preserve"
       style="font-variant:normal;font-weight:normal;font-size:0.972961px;font-family:Helvetica;-inkscape-font-specification:Helvetica;writing-mode:lr-tb;fill:#000000;fill-opacity:1;fill-rule:nonzero;stroke:none;stroke-width:0.352778"
       id="text1037"
       x="109.83695"
       y="66.980881"><tspan
         x="109.83695 110.37791 110.91888"
         y="66.980881"
         sodipodi:role="line"
         id="tspan1035"
         style="stroke-width:0.352778">250</tspan></text>
    <g
       id="g1039"
       transform="matrix(0.35277777,0,0,-0.35277777,111.75606,61.252474)">
      <path
         d="M 0,0 H 1.218"
         style="fill:none;stroke:#000000;stroke-width:0.138;stroke-linecap:butt;stroke-linejoin:round;stroke-miterlimit:10;stroke-dasharray:none;stroke-opacity:1"
         id="path1041" />
    </g>
    <text
       xml:space="preserve"
       style="font-variant:normal;font-weight:normal;font-size:0.972961px;font-family:Helvetica;-inkscape-font-specification:Helvetica;writing-mode:lr-tb;fill:#000000;fill-opacity:1;fill-rule:nonzero;stroke:none;stroke-width:0.352778"
       id="text1045"
       x="109.83695"
       y="61.628887"><tspan
         x="109.83695 110.37791 110.91888"
         y="61.628887"
         sodipodi:role="line"
         id="tspan1043"
         style="stroke-width:0.352778">300</tspan></text>
    <g
       id="g1047"
       transform="matrix(0.35277777,0,0,-0.35277777,111.75606,55.90013)">
      <path
         d="M 0,0 H 1.218"
         style="fill:none;stroke:#000000;stroke-width:0.138;stroke-linecap:butt;stroke-linejoin:round;stroke-miterlimit:10;stroke-dasharray:none;stroke-opacity:1"
         id="path1049" />
    </g>
    <text
       xml:space="preserve"
       style="font-variant:normal;font-weight:normal;font-size:0.972961px;font-family:Helvetica;-inkscape-font-specification:Helvetica;writing-mode:lr-tb;fill:#000000;fill-opacity:1;fill-rule:nonzero;stroke:none;stroke-width:0.352778"
       id="text1053"
       x="109.83695"
       y="56.277248"><tspan
         x="109.83695 110.37791 110.91888"
         y="56.277248"
         sodipodi:role="line"
         id="tspan1051"
         style="stroke-width:0.352778">350</tspan></text>
    <g
       id="g1055"
       transform="matrix(0.35277777,0,0,-0.35277777,111.75606,50.547786)">
      <path
         d="M 0,0 H 1.218"
         style="fill:none;stroke:#000000;stroke-width:0.138;stroke-linecap:butt;stroke-linejoin:round;stroke-miterlimit:10;stroke-dasharray:none;stroke-opacity:1"
         id="path1057" />
    </g>
    <text
       xml:space="preserve"
       style="font-variant:normal;font-weight:normal;font-size:0.972961px;font-family:Helvetica;-inkscape-font-specification:Helvetica;writing-mode:lr-tb;fill:#000000;fill-opacity:1;fill-rule:nonzero;stroke:none;stroke-width:0.352778"
       id="text1061"
       x="109.83695"
       y="50.92561"><tspan
         x="109.83695 110.37791 110.91888"
         y="50.92561"
         sodipodi:role="line"
         id="tspan1059"
         style="stroke-width:0.352778">400</tspan></text>
    <g
       id="g1063"
       transform="matrix(0.35277777,0,0,-0.35277777,111.75606,45.187328)">
      <path
         d="M 0,0 H 1.218"
         style="fill:none;stroke:#000000;stroke-width:0.138;stroke-linecap:butt;stroke-linejoin:round;stroke-miterlimit:10;stroke-dasharray:none;stroke-opacity:1"
         id="path1065" />
    </g>
    <text
       xml:space="preserve"
       style="font-variant:normal;font-weight:normal;font-size:0.972961px;font-family:Helvetica;-inkscape-font-specification:Helvetica;writing-mode:lr-tb;fill:#000000;fill-opacity:1;fill-rule:nonzero;stroke:none;stroke-width:0.352778"
       id="text1069"
       x="109.83695"
       y="45.565506"><tspan
         x="109.83695 110.37791 110.91888"
         y="45.565506"
         sodipodi:role="line"
         id="tspan1067"
         style="stroke-width:0.352778">450</tspan></text>
    <g
       id="g1071"
       transform="matrix(0.35277777,0,0,-0.35277777,111.75606,39.835336)">
      <path
         d="M 0,0 H 1.218"
         style="fill:none;stroke:#000000;stroke-width:0.138;stroke-linecap:butt;stroke-linejoin:round;stroke-miterlimit:10;stroke-dasharray:none;stroke-opacity:1"
         id="path1073" />
    </g>
    <text
       xml:space="preserve"
       style="font-variant:normal;font-weight:normal;font-size:0.972961px;font-family:Helvetica;-inkscape-font-specification:Helvetica;writing-mode:lr-tb;fill:#000000;fill-opacity:1;fill-rule:nonzero;stroke:none;stroke-width:0.352778"
       id="text1077"
       x="109.83695"
       y="40.213867"><tspan
         x="109.83695 110.37791 110.91888"
         y="40.213867"
         sodipodi:role="line"
         id="tspan1075"
         style="stroke-width:0.352778">500</tspan></text>
    <g
       id="g1079"
       transform="matrix(0.35277777,0,0,-0.35277777,150.6738,45.187328)">
      <path
         d="m 0,0 v 0.138 l -0.023,0.138 c -0.5,5.45 -8.206,5.75 -9.159,0.367 L -9.205,0.482 -9.227,0.345 c -0.195,-6.099 8.575,-6.675 9.204,-0.644 L 0,-0.161 v 0.16"
         style="fill:none;stroke:#000000;stroke-width:0.552;stroke-linecap:butt;stroke-linejoin:round;stroke-miterlimit:10;stroke-dasharray:none;stroke-opacity:1"
         id="path1081" />
    </g>
    <g
       id="g1083"
       transform="matrix(0.35277777,0,0,-0.35277777,150.6738,45.187328)">
      <path
         d="m 0,0 v 0.138 l -0.023,0.138 c -0.5,5.45 -8.206,5.75 -9.159,0.367 L -9.205,0.482 -9.227,0.345 c -0.189,-6.102 8.569,-6.676 9.204,-0.644 L 0,-0.161 V 0"
         style="fill:#cccccc;fill-opacity:1;fill-rule:evenodd;stroke:none"
         id="path1085" />
    </g>
    <g
       id="g1087"
       transform="matrix(0.35277777,0,0,-0.35277777,150.6738,45.187328)">
      <path
         d="m 0,0 v 0.138 l -0.023,0.138 c -0.5,5.45 -8.206,5.75 -9.159,0.367 L -9.205,0.482 -9.227,0.345 c -0.189,-6.101 8.569,-6.676 9.204,-0.644 L 0,-0.161 V 0"
         style="fill:none;stroke:#000000;stroke-width:0.138;stroke-linecap:butt;stroke-linejoin:round;stroke-miterlimit:10;stroke-dasharray:none;stroke-opacity:1"
         id="path1089" />
    </g>
    <text
       xml:space="preserve"
       style="font-variant:normal;font-weight:normal;font-size:0.972961px;font-family:Helvetica;-inkscape-font-specification:Helvetica;writing-mode:lr-tb;fill:#000000;fill-opacity:1;fill-rule:nonzero;stroke:none;stroke-width:0.352778"
       id="text1093"
       x="148.70212"
       y="45.768353"><tspan
         x="148.70212"
         y="45.768353"
         id="tspan1091"
         style="stroke-width:0.352778">5</tspan></text>
    <g
       id="g1095"
       transform="matrix(0.35277777,0,0,-0.35277777,118.05667,45.187328)">
      <path
         d="M 0,0 V 0.138 L -0.022,0.276 C -0.576,5.9 -8.579,5.954 -9.226,0.345 V 0.207 L -9.249,0.069 c 0.152,-5.911 8.622,-6.24 9.227,-0.368 L 0,-0.161 V 0"
         style="fill:none;stroke:#000000;stroke-width:0.552;stroke-linecap:butt;stroke-linejoin:round;stroke-miterlimit:10;stroke-dasharray:none;stroke-opacity:1"
         id="path1097" />
    </g>
    <g
       id="g1099"
       transform="matrix(0.35277777,0,0,-0.35277777,118.05702,45.187328)">
      <path
         d="M 0,0 V 0.138 L -0.022,0.276 C -0.581,5.901 -8.577,5.955 -9.227,0.345 V 0.207 L -9.25,0.069 c 0.152,-5.911 8.62,-6.24 9.228,-0.368 L 0,-0.161 V 0"
         style="fill:#ffffff;fill-opacity:1;fill-rule:evenodd;stroke:none"
         id="path1101" />
    </g>
    <g
       id="g1103"
       transform="matrix(0.35277777,0,0,-0.35277777,118.05667,45.187328)">
      <path
         d="M 0,0 V 0.138 L -0.022,0.276 C -0.576,5.9 -8.579,5.954 -9.226,0.345 V 0.207 L -9.249,0.069 c 0.152,-5.911 8.622,-6.24 9.227,-0.368 L 0,-0.161 V 0"
         style="fill:none;stroke:#000000;stroke-width:0.138;stroke-linecap:butt;stroke-linejoin:round;stroke-miterlimit:10;stroke-dasharray:none;stroke-opacity:1"
         id="path1105" />
    </g>
    <text
       xml:space="preserve"
       style="font-variant:normal;font-weight:normal;font-size:0.972961px;font-family:Helvetica;-inkscape-font-specification:Helvetica;writing-mode:lr-tb;fill:#000000;fill-opacity:1;fill-rule:nonzero;stroke:none;stroke-width:0.352778"
       id="text1109"
       x="116.08076"
       y="45.768353"><tspan
         x="116.08076"
         y="45.768353"
         id="tspan1107"
         style="stroke-width:0.352778">6</tspan></text>
    <text
       xml:space="preserve"
       style="font-variant:normal;font-weight:normal;font-size:1.16769px;font-family:Helvetica;-inkscape-font-specification:Helvetica;writing-mode:lr-tb;fill:#000000;fill-opacity:1;fill-rule:nonzero;stroke:none;stroke-width:0.352778"
       id="text1113"
       x="131.91731"
       y="73.954239"><tspan
         x="131.91731 132.50116 132.82578 133.15039 133.73424 134.70692"
         y="73.954239"
         sodipodi:role="line"
         id="tspan1111"
         style="stroke-width:0.352778">x [cm]</tspan></text>
    <text
       xml:space="preserve"
       transform="rotate(-90)"
       style="font-variant:normal;font-weight:normal;font-size:1.16766px;font-family:Helvetica;-inkscape-font-specification:Helvetica;writing-mode:lr-tb;fill:#000000;fill-opacity:1;fill-rule:nonzero;stroke:none;stroke-width:0.352778"
       id="text1117"
       x="-55.904362"
       y="109.13139"><tspan
         x="-55.904362 -55.320534 -54.995926 -54.671314 -54.087486 -53.114826"
         y="109.13139"
         sodipodi:role="line"
         id="tspan1115"
         style="stroke-width:0.352778">y [cm]</tspan></text>
    <g
       id="g1119"
       transform="matrix(0.35277777,0,0,-0.35277777,127.82897,50.053191)">
      <path
         d="m 0,0 0.046,-0.298 0.045,-0.299 c 1.733,-11.843 12.1,-33.07 23.807,-37.733 l 0.183,-0.069 0.184,-0.069 0.184,-0.046 c 5.253,-1.469 7.461,2.496 7.938,7.094 l 0.023,0.23 v 0.229 c 0.531,7.463 -2.278,16.102 -5.368,22.809 l -0.138,0.322 -0.161,0.321 -0.16,0.345"
         style="fill:none;stroke:#000000;stroke-width:0.138;stroke-linecap:butt;stroke-linejoin:round;stroke-miterlimit:10;stroke-dasharray:none;stroke-opacity:1"
         id="path1121" />
      <g
         id="g1123"
         transform="translate(26.62,-7.171)">
        <path
           d="m 0,0 -0.161,0.321 -0.16,0.345 C -3.742,7.674 -10.75,18.465 -18.389,21.335 l -0.183,0.069 -0.184,0.069 c -8.454,2.377 -8.757,-8.168 -7.918,-13.712 l 0.045,-0.298 0.046,-0.298"
           style="fill:none;stroke:#000000;stroke-width:0.138;stroke-linecap:butt;stroke-linejoin:round;stroke-miterlimit:10;stroke-dasharray:none;stroke-opacity:1"
           id="path1125" />
      </g>
    </g>
    <g
       id="g1127"
       transform="matrix(0.35277777,0,0,-0.35277777,137.21991,52.582961)">
      <path
         d="m 0,0 -0.161,0.321 -0.16,0.345 c -17.36,33.616 -36.602,24.826 -20.913,-10.153 l 0.161,-0.344 0.16,-0.322 c 16.751,-33.212 36.876,-26.19 21.234,9.487 L 0.16,-0.345 0,0"
         style="fill:#808080;fill-opacity:1;fill-rule:evenodd;stroke:none"
         id="path1129" />
    </g>
    <g
       id="g1131"
       transform="matrix(0.35277777,0,0,-0.35277777,127.90199,50.482875)">
      <path
         d="M 0,0 0.045,-0.299 0.114,-0.62 C 2.098,-12.103 12.44,-33.024 24.059,-37.251 l 0.183,-0.046 0.184,-0.046 0.161,-0.045 c 5.198,-1.238 7.208,2.976 7.617,7.414 v 0.23 l 0.022,0.252 c 0.43,7.428 -2.315,15.881 -5.391,22.557 l -0.138,0.321 -0.16,0.322 -0.161,0.344"
         style="fill:none;stroke:#000000;stroke-width:0.138;stroke-linecap:butt;stroke-linejoin:round;stroke-miterlimit:10;stroke-dasharray:none;stroke-opacity:1"
         id="path1133" />
      <g
         id="g1135"
         transform="translate(26.413,-5.953)">
        <path
           d="m 0,0 -0.161,0.321 -0.16,0.345 c -3.446,7.06 -10.616,18.118 -18.435,20.807 l -0.183,0.045 -0.184,0.046 c -8.638,2.093 -8.369,-9.666 -7.369,-14.997 l 0.069,-0.299 0.046,-0.321"
           style="fill:none;stroke:#000000;stroke-width:0.138;stroke-linecap:butt;stroke-linejoin:round;stroke-miterlimit:10;stroke-dasharray:none;stroke-opacity:1"
           id="path1137" />
        <g
           id="g1139">
          <path
             d="M 0,0 -21.103,-9.839"
             style="fill:none;stroke:#000000;stroke-width:0.138;stroke-linecap:butt;stroke-linejoin:round;stroke-miterlimit:10;stroke-dasharray:none;stroke-opacity:1"
             id="path1141" />
          <g
             id="g1143"
             transform="translate(-23.194,21.401)">
            <path
               d="M 0,0 25.285,-52.642"
               style="fill:none;stroke:#000000;stroke-width:0.138;stroke-linecap:butt;stroke-linejoin:round;stroke-miterlimit:10;stroke-dasharray:none;stroke-opacity:1"
               id="path1145" />
            <g
               id="g1147"
               transform="translate(10.918,-8.873)">
              <path
                 d="M 0,0 -0.091,-0.092 -0.183,-0.161 C -4.425,-4.15 -5.281,-12.415 -0.596,-16.306 l 0.069,-0.069 0.092,-0.069 c 5.362,-3.816 11.292,1.2 12.456,6.681 l 0.046,0.115 0.022,0.138"
                 style="fill:none;stroke:#000000;stroke-width:0.138;stroke-linecap:butt;stroke-linejoin:round;stroke-miterlimit:10;stroke-dasharray:none;stroke-opacity:1"
                 id="path1149" />
              <g
                 id="g1151"
                 transform="translate(12.115,-9.518)">
                <path
                   d="M 0,0 0.022,0.115 0.045,0.23 c 0.744,3.584 -0.062,7.733 -3.044,10.105 l -0.092,0.046 -0.092,0.069 c -2.824,1.991 -6.205,1.363 -8.746,-0.78 L -11.998,9.578 -12.09,9.51"
                   style="fill:none;stroke:#000000;stroke-width:0.138;stroke-linecap:butt;stroke-linejoin:round;stroke-miterlimit:10;stroke-dasharray:none;stroke-opacity:1"
                   id="path1153" />
              </g>
            </g>
          </g>
        </g>
      </g>
    </g>
    <g
       id="g1155"
       transform="matrix(0.35277777,0,0,-0.35277777,137.16311,51.5211)">
      <path
         d="M 0,0 0.022,0.115 0.045,0.23 C 2.215,13.334 -12.14,16.075 -15.502,3.515 L -15.525,3.4 -15.571,3.286 C -17.857,-9.725 -3.594,-12.831 -0.069,-0.253 L -0.023,-0.138 -0.001,0"
         style="fill:#333333;fill-opacity:1;fill-rule:evenodd;stroke:none"
         id="path1157" />
    </g>
    <g
       id="g1159"
       transform="matrix(0.35277777,0,0,-0.35277777,132.59746,48.463575)">
      <path
         d="M 0,0 -0.069,-0.092 -0.16,-0.16 c -3.602,-4.271 -4.038,-12.115 0.802,-15.617 l 0.069,-0.046 0.092,-0.069 c 5.374,-3.243 10.915,1.708 12.043,6.979 l 0.046,0.115 0.023,0.138"
         style="fill:none;stroke:#000000;stroke-width:0.138;stroke-linecap:butt;stroke-linejoin:round;stroke-miterlimit:10;stroke-dasharray:none;stroke-opacity:1"
         id="path1161" />
      <g
         id="g1163"
         transform="translate(12.942,-8.667)">
        <path
           d="M 0,0 0.022,0.115 C 2.013,8.597 -5.82,15.966 -12.847,8.752 L -12.915,8.66"
           style="fill:none;stroke:#000000;stroke-width:0.138;stroke-linecap:butt;stroke-linejoin:round;stroke-miterlimit:10;stroke-dasharray:none;stroke-opacity:1"
           id="path1165" />
        <g
           id="g1167">
          <path
             d="M 0,0 -15.563,3.402"
             style="fill:none;stroke:#000000;stroke-width:0.138;stroke-linecap:butt;stroke-linejoin:round;stroke-miterlimit:10;stroke-dasharray:none;stroke-opacity:1"
             id="path1169" />
          <g
             id="g1171"
             transform="translate(-5.564,11.517)">
            <path
               d="M 0,0 -4.436,-19.654"
               style="fill:none;stroke:#000000;stroke-width:0.138;stroke-linecap:butt;stroke-linejoin:round;stroke-miterlimit:10;stroke-dasharray:none;stroke-opacity:1"
               id="path1173" />
          </g>
        </g>
      </g>
    </g>
    <g
       id="g1175"
       transform="matrix(0.35277777,0,0,-0.35277777,138.65501,49.193472)">
      <path
         d="m 0,0 v 0.253 l -0.023,0.253 c -0.738,4.507 -7.08,4.607 -7.921,0.115 L -7.99,0.391 v -0.758 c 0.645,-4.682 7.195,-4.778 7.967,-0.115 L 0,-0.252 V 0"
         style="fill:none;stroke:#000000;stroke-width:0.552;stroke-linecap:butt;stroke-linejoin:round;stroke-miterlimit:10;stroke-dasharray:none;stroke-opacity:1"
         id="path1177" />
    </g>
    <g
       id="g1179"
       transform="matrix(0.35277777,0,0,-0.35277777,138.65501,49.193472)">
      <path
         d="M 0,0 V 0.253 L -0.023,0.506 C -0.761,5.013 -7.102,5.114 -7.944,0.621 L -7.99,0.391 v -0.758 c 0.645,-4.682 7.196,-4.777 7.967,-0.115 L 0,-0.252 V 0"
         style="fill:#ffffff;fill-opacity:1;fill-rule:evenodd;stroke:none"
         id="path1181" />
    </g>
    <g
       id="g1183"
       transform="matrix(0.35277777,0,0,-0.35277777,138.65501,49.193472)">
      <path
         d="m 0,0 v 0.253 l -0.023,0.253 c -0.738,4.507 -7.08,4.607 -7.921,0.115 L -7.99,0.391 v -0.758 c 0.645,-4.682 7.195,-4.778 7.967,-0.115 L 0,-0.252 V 0"
         style="fill:none;stroke:#000000;stroke-width:0.138;stroke-linecap:butt;stroke-linejoin:round;stroke-miterlimit:10;stroke-dasharray:none;stroke-opacity:1"
         id="path1185" />
    </g>
    <g
       id="g1187"
       transform="matrix(0.35277777,0,0,-0.35277777,137.24425,49.193472)">
      <path
         d="M 0,0 3.011,3.862"
         style="fill:none;stroke:#000000;stroke-width:0.552;stroke-linecap:butt;stroke-linejoin:round;stroke-miterlimit:10;stroke-dasharray:none;stroke-opacity:1"
         id="path1189" />
      <g
         id="g1191"
         transform="translate(-4.001,-4.897)">
        <path
           d="m 0,0 -0.021,0.253 -0.023,0.253 c -0.802,4.788 -7.64,4.453 -7.969,-0.391 v -0.253 l 0.023,-0.23 c 0.567,-4.671 7.205,-4.789 7.946,-0.138 L -0.021,-0.253 0,0"
           style="fill:none;stroke:#000000;stroke-width:0.552;stroke-linecap:butt;stroke-linejoin:round;stroke-miterlimit:10;stroke-dasharray:none;stroke-opacity:1"
           id="path1193" />
      </g>
    </g>
    <g
       id="g1195"
       transform="matrix(0.35277777,0,0,-0.35277777,135.83314,50.921025)">
      <path
         d="M 0,0 -0.022,0.253 -0.045,0.506 C -0.848,5.293 -7.682,4.961 -8.014,0.115 v -0.253 l 0.023,-0.23 c 0.567,-4.672 7.206,-4.788 7.946,-0.138 L -0.022,-0.253 0,0"
         style="fill:#b2b2b2;fill-opacity:1;fill-rule:evenodd;stroke:none"
         id="path1197" />
    </g>
    <g
       id="g1199"
       transform="matrix(0.35277777,0,0,-0.35277777,135.83279,50.921025)">
      <path
         d="m 0,0 -0.021,0.253 -0.023,0.253 c -0.802,4.788 -7.64,4.453 -7.969,-0.391 v -0.253 l 0.023,-0.23 c 0.567,-4.671 7.205,-4.789 7.946,-0.138 L -0.021,-0.253 0,0"
         style="fill:none;stroke:#000000;stroke-width:0.138;stroke-linecap:butt;stroke-linejoin:round;stroke-miterlimit:10;stroke-dasharray:none;stroke-opacity:1"
         id="path1201" />
    </g>
    <g
       id="g1203"
       transform="matrix(0.35277777,0,0,-0.35277777,134.41392,50.921025)">
      <path
         d="M 0,0 2.62,4.115"
         style="fill:none;stroke:#000000;stroke-width:0.552;stroke-linecap:butt;stroke-linejoin:round;stroke-miterlimit:10;stroke-dasharray:none;stroke-opacity:1"
         id="path1205" />
    </g>
    <g
       id="g1207"
       transform="matrix(0.35277777,0,0,-0.35277777,134.41392,50.921025)">
      <path
         d="m 0,0 0.069,-4.734 -0.828,0.229 -1.425,-5.241 -0.413,0.114 -0.414,0.115 1.425,5.242 -0.85,0.23 L 0,0"
         style="fill:#ffffff;fill-opacity:1;fill-rule:evenodd;stroke:none"
         id="path1209" />
    </g>
    <g
       id="g1211"
       transform="matrix(0.35277777,0,0,-0.35277777,134.41392,50.921025)">
      <path
         d="m 0,0 0.069,-4.734 -0.828,0.229 -1.425,-5.241 -0.413,0.114 -0.414,0.115 1.425,5.242 -0.85,0.23 L 0,0"
         style="fill:none;stroke:#000000;stroke-width:0.138;stroke-linecap:butt;stroke-linejoin:round;stroke-miterlimit:10;stroke-dasharray:none;stroke-opacity:1"
         id="path1213" />
    </g>
    <g
       id="g1215"
       transform="matrix(0.35277777,0,0,-0.35277777,134.90851,54.31898)">
      <path
         d="m 0,0 v 0.253 l -0.023,0.253 c -0.735,4.5 -7.069,4.598 -7.923,0.115 L -7.991,0.368 v -0.735 c 0.622,-4.674 7.193,-4.777 7.968,-0.138 L 0,-0.252 V 0"
         style="fill:none;stroke:#000000;stroke-width:0.552;stroke-linecap:butt;stroke-linejoin:round;stroke-miterlimit:10;stroke-dasharray:none;stroke-opacity:1"
         id="path1217" />
    </g>
    <g
       id="g1219"
       transform="matrix(0.35277777,0,0,-0.35277777,134.90851,54.31898)">
      <path
         d="m 0,0 v 0.253 l -0.023,0.253 c -0.736,4.5 -7.068,4.598 -7.923,0.115 L -7.991,0.368 v -0.735 c 0.623,-4.674 7.192,-4.777 7.968,-0.138 L 0,-0.252 V 0"
         style="fill:#b2b2b2;fill-opacity:1;fill-rule:evenodd;stroke:none"
         id="path1221" />
    </g>
    <g
       id="g1223"
       transform="matrix(0.35277777,0,0,-0.35277777,134.90851,54.31898)">
      <path
         d="m 0,0 v 0.253 l -0.023,0.253 c -0.735,4.5 -7.069,4.598 -7.923,0.115 L -7.991,0.368 v -0.735 c 0.622,-4.674 7.193,-4.777 7.968,-0.138 L 0,-0.252 V 0"
         style="fill:none;stroke:#000000;stroke-width:0.138;stroke-linecap:butt;stroke-linejoin:round;stroke-miterlimit:10;stroke-dasharray:none;stroke-opacity:1"
         id="path1225" />
    </g>
    <g
       id="g1227"
       transform="matrix(0.35277777,0,0,-0.35277777,133.4974,54.31898)">
      <path
         d="M 0,0 3.494,3.426"
         style="fill:none;stroke:#000000;stroke-width:0.552;stroke-linecap:butt;stroke-linejoin:round;stroke-miterlimit:10;stroke-dasharray:none;stroke-opacity:1"
         id="path1229" />
    </g>
    <g
       id="g1231"
       transform="matrix(0.35277777,0,0,-0.35277777,134.41392,50.921025)">
      <path
         d="M 0,0 -3.333,3.495 -2.598,1.265 -30.826,15.173 -2.598,1.265 -4.804,0.53 0,0.001"
         style="fill:#000000;fill-opacity:1;fill-rule:evenodd;stroke:none"
         id="path1233" />
    </g>
    <g
       id="g1235"
       transform="matrix(0.35277777,0,0,-0.35277777,134.41392,50.921025)">
      <path
         d="M 0,0 -3.333,3.495 -2.598,1.265 -30.826,15.173 -2.598,1.265 -4.804,0.53 0,0.001"
         style="fill:none;stroke:#000000;stroke-width:0.138;stroke-linecap:butt;stroke-linejoin:round;stroke-miterlimit:10;stroke-dasharray:none;stroke-opacity:1"
         id="path1237" />
    </g>
    <text
       xml:space="preserve"
       style="font-variant:normal;font-weight:normal;font-size:2.33539px;font-family:CMMI10;-inkscape-font-specification:CMMI10;writing-mode:lr-tb;fill:#000000;fill-opacity:1;fill-rule:nonzero;stroke:none;stroke-width:0.352778"
       id="text1241"
       x="121.62713"
       y="45.135822"><tspan
         x="121.62713"
         y="45.135822"
         id="tspan1239"
         style="stroke-width:0.352778">μ</tspan></text>
    <text
       xml:space="preserve"
       style="font-variant:normal;font-weight:normal;font-size:1.63477px;font-family:CMMI7;-inkscape-font-specification:CMMI7;writing-mode:lr-tb;fill:#000000;fill-opacity:1;fill-rule:nonzero;stroke:none;stroke-width:0.352778"
       id="text1245"
       x="123.18394"
       y="45.492481"><tspan
         x="123.18394"
         y="45.492481"
         id="tspan1243"
         style="stroke-width:0.352778">t</tspan></text>
    <g
       id="g1247"
       transform="matrix(0.35277777,0,0,-0.35277777,133.4974,54.31898)">
      <path
         d="M 0,0 -4.805,-0.528 -2.597,-1.286 -30.826,-15.17 -2.597,-1.286 -3.356,-3.493 0,0.001"
         style="fill:#000000;fill-opacity:1;fill-rule:evenodd;stroke:none"
         id="path1249" />
    </g>
    <g
       id="g1251"
       transform="matrix(0.35277777,0,0,-0.35277777,133.4974,54.31898)">
      <path
         d="M 0,0 -4.805,-0.528 -2.597,-1.286 -30.826,-15.17 -2.597,-1.286 -3.357,-3.493 0,0.001"
         style="fill:none;stroke:#000000;stroke-width:0.138;stroke-linecap:butt;stroke-linejoin:round;stroke-miterlimit:10;stroke-dasharray:none;stroke-opacity:1"
         id="path1253" />
    </g>
    <text
       xml:space="preserve"
       style="font-variant:normal;font-weight:normal;font-size:2.33539px;font-family:CMR11;-inkscape-font-specification:CMR11;writing-mode:lr-tb;fill:#000000;fill-opacity:1;fill-rule:nonzero;stroke:none;stroke-width:0.352778"
       id="text1257"
       x="120.89724"
       y="61.020699"><tspan
         x="120.89724"
         y="61.020699"
         id="tspan1255"
         style="stroke-width:0.352778">¯</tspan></text>
    <text
       xml:space="preserve"
       style="font-variant:normal;font-weight:normal;font-size:2.33539px;font-family:CMMI10;-inkscape-font-specification:CMMI10;writing-mode:lr-tb;fill:#000000;fill-opacity:1;fill-rule:nonzero;stroke:none;stroke-width:0.352778"
       id="text1261"
       x="120.71017"
       y="61.020699"><tspan
         x="120.71017"
         y="61.020699"
         id="tspan1259"
         style="stroke-width:0.352778">μ</tspan></text>
    <text
       xml:space="preserve"
       style="font-variant:normal;font-weight:normal;font-size:1.63477px;font-family:CMMI7;-inkscape-font-specification:CMMI7;writing-mode:lr-tb;fill:#000000;fill-opacity:1;fill-rule:nonzero;stroke:none;stroke-width:0.352778"
       id="text1265"
       x="122.26743"
       y="61.377357"><tspan
         x="122.26743"
         y="61.377357"
         id="tspan1263"
         style="stroke-width:0.352778">t</tspan></text>
    <path
       d="m 146.42424,43.962836 h 7.88211 v -6.074128 h -7.88211 z"
       style="fill:#ffffff;fill-opacity:1;fill-rule:nonzero;stroke:none;stroke-width:0.352778"
       id="path1267" />
    <path
       d="m 146.42388,43.962836 h 7.88247 v -6.074128 h -7.88247 z"
       style="fill:none;stroke:#ffffff;stroke-width:0.0486833;stroke-linecap:butt;stroke-linejoin:round;stroke-miterlimit:10;stroke-dasharray:none;stroke-opacity:1"
       id="path1269" />
    <g
       id="g1271"
       transform="matrix(0.35277777,0,0,-0.35277777,146.42388,43.962836)">
      <path
         d="M 0,0 H 22.345"
         style="fill:none;stroke:#000000;stroke-width:0.138;stroke-linecap:butt;stroke-linejoin:round;stroke-miterlimit:10;stroke-dasharray:none;stroke-opacity:1"
         id="path1273" />
      <g
         id="g1275"
         transform="translate(0,17.218)">
        <path
           d="M 0,0 H 22.345"
           style="fill:none;stroke:#000000;stroke-width:0.138;stroke-linecap:butt;stroke-linejoin:round;stroke-miterlimit:10;stroke-dasharray:none;stroke-opacity:1"
           id="path1277" />
        <g
           id="g1279"
           transform="translate(0,-17.218)">
          <path
             d="M 0,0 V 17.218"
             style="fill:none;stroke:#000000;stroke-width:0.138;stroke-linecap:butt;stroke-linejoin:round;stroke-miterlimit:10;stroke-dasharray:none;stroke-opacity:1"
             id="path1281" />
          <g
             id="g1283"
             transform="translate(22.345)">
            <path
               d="M 0,0 V 17.218"
               style="fill:none;stroke:#000000;stroke-width:0.138;stroke-linecap:butt;stroke-linejoin:round;stroke-miterlimit:10;stroke-dasharray:none;stroke-opacity:1"
               id="path1285" />
            <g
               id="g1287"
               transform="translate(-22.345)">
              <path
                 d="M 0,0 H 22.345"
                 style="fill:none;stroke:#000000;stroke-width:0.138;stroke-linecap:butt;stroke-linejoin:round;stroke-miterlimit:10;stroke-dasharray:none;stroke-opacity:1"
                 id="path1289" />
              <g
                 id="g1291">
                <path
                   d="M 0,0 V 17.218"
                   style="fill:none;stroke:#000000;stroke-width:0.138;stroke-linecap:butt;stroke-linejoin:round;stroke-miterlimit:10;stroke-dasharray:none;stroke-opacity:1"
                   id="path1293" />
                <g
                   id="g1295">
                  <path
                     d="M 0,0 H 22.345"
                     style="fill:none;stroke:#000000;stroke-width:0.138;stroke-linecap:butt;stroke-linejoin:round;stroke-miterlimit:10;stroke-dasharray:none;stroke-opacity:1"
                     id="path1297" />
                  <g
                     id="g1299"
                     transform="translate(0,17.218)">
                    <path
                       d="M 0,0 H 22.345"
                       style="fill:none;stroke:#000000;stroke-width:0.138;stroke-linecap:butt;stroke-linejoin:round;stroke-miterlimit:10;stroke-dasharray:none;stroke-opacity:1"
                       id="path1301" />
                    <g
                       id="g1303"
                       transform="translate(0,-17.218)">
                      <path
                         d="M 0,0 V 17.218"
                         style="fill:none;stroke:#000000;stroke-width:0.138;stroke-linecap:butt;stroke-linejoin:round;stroke-miterlimit:10;stroke-dasharray:none;stroke-opacity:1"
                         id="path1305" />
                      <g
                         id="g1307"
                         transform="translate(22.345)">
                        <path
                           d="M 0,0 V 17.218"
                           style="fill:none;stroke:#000000;stroke-width:0.138;stroke-linecap:butt;stroke-linejoin:round;stroke-miterlimit:10;stroke-dasharray:none;stroke-opacity:1"
                           id="path1309" />
                      </g>
                    </g>
                  </g>
                </g>
              </g>
            </g>
          </g>
        </g>
      </g>
    </g>
    <text
       xml:space="preserve"
       style="font-variant:normal;font-weight:normal;font-size:1.55681px;font-family:CMR11;-inkscape-font-specification:CMR11;writing-mode:lr-tb;fill:#000000;fill-opacity:1;fill-rule:nonzero;stroke:none;stroke-width:0.352778"
       id="text1315"
       x="150.64806"
       y="39.751728"><tspan
         x="150.64806"
         y="39.751728"
         id="tspan1311"
         style="stroke-width:0.352778">¯</tspan><tspan
         x="150.47058"
         y="40.14093"
         id="tspan1313"
         style="stroke-width:0.352778">Σ</tspan></text>
    <text
       xml:space="preserve"
       style="font-variant:normal;font-weight:normal;font-size:1.08973px;font-family:CMMI7;-inkscape-font-specification:CMMI7;writing-mode:lr-tb;fill:#000000;fill-opacity:1;fill-rule:nonzero;stroke:none;stroke-width:0.352778"
       id="text1319"
       x="151.50777"
       y="40.376144"><tspan
         x="151.50777"
         y="40.376144"
         id="tspan1317"
         style="stroke-width:0.352778">t</tspan></text>
    <path
       d="m 147.04865,40.767728 h 3.12209 v -2.351723 h -3.12209 z"
       style="fill:#808080;fill-opacity:1;fill-rule:nonzero;stroke:none;stroke-width:0.352778"
       id="path1321" />
    <path
       d="m 147.04865,40.767728 h 3.12209 v -2.351687 h -3.12209 z"
       style="fill:none;stroke:#000000;stroke-width:0.0486833;stroke-linecap:butt;stroke-linejoin:round;stroke-miterlimit:10;stroke-dasharray:none;stroke-opacity:1"
       id="path1323" />
    <text
       xml:space="preserve"
       style="font-variant:normal;font-weight:normal;font-size:1.55681px;font-family:CMR11;-inkscape-font-specification:CMR11;writing-mode:lr-tb;fill:#000000;fill-opacity:1;fill-rule:nonzero;stroke:none;stroke-width:0.352778"
       id="text1327"
       x="150.46989"
       y="42.8978"><tspan
         x="150.46989"
         y="42.8978"
         id="tspan1325"
         style="stroke-width:0.352778">Σ</tspan></text>
    <text
       xml:space="preserve"
       style="font-variant:normal;font-weight:normal;font-size:1.08973px;font-family:CMMI7;-inkscape-font-specification:CMMI7;writing-mode:lr-tb;fill:#000000;fill-opacity:1;fill-rule:nonzero;stroke:none;stroke-width:0.352778"
       id="text1331"
       x="151.50777"
       y="43.132751"><tspan
         x="151.50777"
         y="43.132751"
         id="tspan1329"
         style="stroke-width:0.352778">t</tspan></text>
    <path
       d="m 147.04865,43.622405 h 3.12209 v -2.351722 h -3.12209 z"
       style="fill:#333333;fill-opacity:1;fill-rule:nonzero;stroke:none;stroke-width:0.352778"
       id="path1333" />
    <path
       d="m 147.04865,43.622405 h 3.12209 v -2.351722 h -3.12209 z"
       style="fill:none;stroke:#000000;stroke-width:0.0486833;stroke-linecap:butt;stroke-linejoin:round;stroke-miterlimit:10;stroke-dasharray:none;stroke-opacity:1"
       id="path1335" />
  </g>
</svg>
