<?xml version="1.0" encoding="UTF-8" standalone="no"?>
<!-- Created with Inkscape (http://www.inkscape.org/) -->

<svg
   width="113.7084mm"
   height="22.406986mm"
   viewBox="0 0 113.7084 22.406986"
   version="1.1"
   id="svg16232"
   inkscape:version="1.2 (1:1.2.1+202207142221+cd75a1ee6d)"
   sodipodi:docname="monte_carlo_uniform.svg"
   xmlns:inkscape="http://www.inkscape.org/namespaces/inkscape"
   xmlns:sodipodi="http://sodipodi.sourceforge.net/DTD/sodipodi-0.dtd"
   xmlns="http://www.w3.org/2000/svg"
   xmlns:svg="http://www.w3.org/2000/svg">
  <sodipodi:namedview
     id="namedview16234"
     pagecolor="#ffffff"
     bordercolor="#666666"
     borderopacity="1.0"
     inkscape:showpageshadow="2"
     inkscape:pageopacity="0.0"
     inkscape:pagecheckerboard="0"
     inkscape:deskcolor="#d1d1d1"
     inkscape:document-units="mm"
     showgrid="false"
     inkscape:zoom="1.5144501"
     inkscape:cx="168.70811"
     inkscape:cy="-4.291987"
     inkscape:window-width="1848"
     inkscape:window-height="1016"
     inkscape:window-x="1438"
     inkscape:window-y="27"
     inkscape:window-maximized="1"
     inkscape:current-layer="layer1" />
  <defs
     id="defs16229">
    <clipPath
       clipPathUnits="userSpaceOnUse"
       id="clipPath186">
      <path
         d="m 1376.55,5246.1 h 3236 v 640.36 h -3236 z"
         id="path184" />
    </clipPath>
    <clipPath
       clipPathUnits="userSpaceOnUse"
       id="clipPath226">
      <path
         d="m 1376,5246 v 641 h 3237 v -641 z"
         id="path224" />
    </clipPath>
    <clipPath
       clipPathUnits="userSpaceOnUse"
       id="clipPath236">
      <path
         d="m 1376.55,5246.1 h 3236 v 640.36 h -3236 z"
         id="path234" />
    </clipPath>
  </defs>
  <g
     inkscape:label="Layer 1"
     inkscape:groupmode="layer"
     id="layer1"
     transform="translate(-59.84933,-83.836511)">
    <g
       id="g180"
       transform="matrix(0.03527778,0,0,-0.03527778,11.287702,291.31426)">
      <g
         id="g182"
         clip-path="url(#clipPath186)">
        <path
           d="m 1397.56,5664.57 h 3079.06 v 215.534 H 1397.56 Z"
           style="fill:none;stroke:#000000;stroke-width:2.30929;stroke-linecap:butt;stroke-linejoin:miter;stroke-miterlimit:10;stroke-dasharray:none;stroke-opacity:1"
           id="path188" />
        <path
           d="M 1397.56,5290.78 H 4476.62 V 5264.3 H 1397.56"
           style="fill:#000000;fill-opacity:1;fill-rule:evenodd;stroke:none"
           id="path190" />
        <path
           d="M 1397.56,5290.78 H 4476.62 V 5264.3 H 1397.56 Z"
           style="fill:none;stroke:#000000;stroke-width:2.30929;stroke-linecap:butt;stroke-linejoin:miter;stroke-miterlimit:10;stroke-dasharray:none;stroke-opacity:1"
           id="path192" />
        <g
           id="g194"
           transform="scale(10)">
          <text
             xml:space="preserve"
             transform="matrix(1,0,0,-1,449.356,531.51)"
             style="font-variant:normal;font-weight:bold;font-size:8.31346px;font-family:'Times New Roman';-inkscape-font-specification:Times-Bold;writing-mode:lr-tb;fill:#000000;fill-opacity:1;fill-rule:nonzero;stroke:none"
             id="text200"><tspan
               x="0"
               y="0"
               id="tspan196">x</tspan><tspan
               x="-305.75 -301.12772 -297.43655 -295.1254 -292.35703 -288.20029"
               y="-18.012501"
               sodipodi:role="line"
               id="tspan198">bel(x)</tspan></text>
        </g>
        <path
           d="m 2167.33,5664.57 h 92.3716 v 153.953 H 2167.33 Z"
           style="fill:#a13f00;fill-opacity:1;fill-rule:evenodd;stroke:none"
           id="path202" />
        <path
           d="m 2167.33,5664.57 v 153.96 h 92.37 v -153.96"
           style="fill:none;stroke:#000000;stroke-width:18.4743;stroke-linecap:butt;stroke-linejoin:miter;stroke-miterlimit:10;stroke-dasharray:none;stroke-opacity:1"
           id="path204" />
        <path
           d="m 2444.44,5664.57 h 92.3716 v 153.953 H 2444.44 Z"
           style="fill:#a13f00;fill-opacity:1;fill-rule:evenodd;stroke:none"
           id="path206" />
        <path
           d="m 2444.44,5664.57 v 153.96 h 92.37 v -153.96"
           style="fill:none;stroke:#000000;stroke-width:18.4743;stroke-linecap:butt;stroke-linejoin:miter;stroke-miterlimit:10;stroke-dasharray:none;stroke-opacity:1"
           id="path208" />
        <path
           d="m 3568.3,5664.57 h 92.3716 v 153.953 H 3568.3 Z"
           style="fill:#a13f00;fill-opacity:1;fill-rule:evenodd;stroke:none"
           id="path210" />
        <path
           d="m 3568.3,5664.57 v 153.96 h 92.37 v -153.96"
           style="fill:none;stroke:#000000;stroke-width:18.4743;stroke-linecap:butt;stroke-linejoin:miter;stroke-miterlimit:10;stroke-dasharray:none;stroke-opacity:1"
           id="path212" />
        <path
           d="m 2167.33,5726.15 h 24.63"
           style="fill:none;stroke:#000000;stroke-width:18.4743;stroke-linecap:butt;stroke-linejoin:miter;stroke-miterlimit:10;stroke-dasharray:none;stroke-opacity:1"
           id="path214" />
        <path
           d="m 2444.44,5726.15 h 24.64"
           style="fill:none;stroke:#000000;stroke-width:18.4743;stroke-linecap:butt;stroke-linejoin:miter;stroke-miterlimit:10;stroke-dasharray:none;stroke-opacity:1"
           id="path216" />
        <path
           d="m 3568.3,5726.15 h 24.63"
           style="fill:none;stroke:#000000;stroke-width:18.4743;stroke-linecap:butt;stroke-linejoin:miter;stroke-miterlimit:10;stroke-dasharray:none;stroke-opacity:1"
           id="path218" />
      </g>
    </g>
    <g
       id="g220"
       transform="matrix(0.03527778,0,0,-0.03527778,11.287702,291.31426)">
      <g
         id="g222"
         clip-path="url(#clipPath226)">
        <path
           d="M 1390.17,5602.99 V 5256.91 H 4599.78"
           style="fill:none;stroke:#000000;stroke-width:9.23717;stroke-linecap:butt;stroke-linejoin:miter;stroke-miterlimit:10;stroke-dasharray:none;stroke-opacity:1"
           id="path228" />
      </g>
    </g>
    <g
       id="g230"
       transform="matrix(0.03527778,0,0,-0.03527778,11.287702,291.31426)">
      <g
         id="g232"
         clip-path="url(#clipPath236)">
        <path
           d="m 1376.32,5549.42 13.85,36.95 13.86,-36.95 h -27.71"
           style="fill:#000000;fill-opacity:1;fill-rule:evenodd;stroke:none"
           id="path238" />
        <path
           d="m 1376.32,5549.42 13.85,36.95 13.86,-36.95 z"
           style="fill:none;stroke:#000000;stroke-width:9.23717;stroke-linecap:butt;stroke-linejoin:miter;stroke-miterlimit:10;stroke-dasharray:none;stroke-opacity:1"
           id="path240" />
        <path
           d="m 4546.21,5270.76 36.95,-13.85 -36.95,-13.86 v 27.71"
           style="fill:#000000;fill-opacity:1;fill-rule:evenodd;stroke:none"
           id="path242" />
        <path
           d="m 4546.21,5270.76 36.95,-13.85 -36.95,-13.86 z"
           style="fill:none;stroke:#000000;stroke-width:9.23717;stroke-linecap:butt;stroke-linejoin:miter;stroke-miterlimit:10;stroke-dasharray:none;stroke-opacity:1"
           id="path244" />
        <path
           d="m 2136.24,5723.07 c 6.98,16.78 23.38,27.72 41.56,27.72 18.18,0 34.57,-10.94 41.56,-27.72"
           style="fill:#ff0000;fill-opacity:1;fill-rule:evenodd;stroke:none"
           id="path246" />
        <path
           d="m 2136.24,5723.07 c 6.98,16.78 23.38,27.72 41.56,27.72 18.18,0 34.57,-10.94 41.56,-27.72"
           style="fill:none;stroke:#000000;stroke-width:2.30929;stroke-linecap:butt;stroke-linejoin:miter;stroke-miterlimit:10;stroke-dasharray:none;stroke-opacity:1"
           id="path248" />
        <path
           d="m 2152.55,5631.01 c 0,-3.91 -3.17,-7.08 -7.08,-7.08 -3.91,0 -7.08,3.17 -7.08,7.08 0,3.91 3.17,7.08 7.08,7.08 3.91,0 7.08,-3.17 7.08,-7.08 z"
           style="fill:none;stroke:#000000;stroke-width:2.30929;stroke-linecap:butt;stroke-linejoin:miter;stroke-miterlimit:10;stroke-dasharray:none;stroke-opacity:1"
           id="path250" />
        <path
           d="m 2185.8,5631.01 c 0,-3.91 -3.17,-7.08 -7.08,-7.08 -3.91,0 -7.08,3.17 -7.08,7.08 0,3.91 3.17,7.08 7.08,7.08 3.91,0 7.08,-3.17 7.08,-7.08 z"
           style="fill:none;stroke:#000000;stroke-width:2.30929;stroke-linecap:butt;stroke-linejoin:miter;stroke-miterlimit:10;stroke-dasharray:none;stroke-opacity:1"
           id="path252" />
        <path
           d="m 2218.13,5631.01 c 0,-3.91 -3.17,-7.08 -7.08,-7.08 -3.91,0 -7.08,3.17 -7.08,7.08 0,3.91 3.17,7.08 7.08,7.08 3.91,0 7.08,-3.17 7.08,-7.08 z"
           style="fill:none;stroke:#000000;stroke-width:2.30929;stroke-linecap:butt;stroke-linejoin:miter;stroke-miterlimit:10;stroke-dasharray:none;stroke-opacity:1"
           id="path254" />
        <path
           d="m 2198.73,5697.83 34.49,17.24 15.09,-1.23"
           style="fill:none;stroke:#000000;stroke-width:2.30929;stroke-linecap:butt;stroke-linejoin:miter;stroke-miterlimit:10;stroke-dasharray:none;stroke-opacity:1"
           id="path256" />
        <path
           d="m 2158.4,5758.48 h 32.33 l 7.08,-5.23 v 14.16 l -7.08,-4.62 h -32.33"
           style="fill:#000000;fill-opacity:1;fill-rule:evenodd;stroke:none"
           id="path258" />
        <path
           d="m 2158.4,5758.48 h 32.33 l 7.08,-5.23 v 14.16 l -7.08,-4.62 h -32.33 z"
           style="fill:none;stroke:#000000;stroke-width:2.30929;stroke-linecap:butt;stroke-linejoin:miter;stroke-miterlimit:10;stroke-dasharray:none;stroke-opacity:1"
           id="path260" />
        <path
           d="m 2173.18,5751.71 h 5.5422 v 4.9265 h -5.5422 z"
           style="fill:#000000;fill-opacity:1;fill-rule:evenodd;stroke:none"
           id="path262" />
        <path
           d="m 2173.18,5751.71 h 5.5422 v 4.9265 h -5.5422 z"
           style="fill:none;stroke:#000000;stroke-width:2.30929;stroke-linecap:butt;stroke-linejoin:miter;stroke-miterlimit:10;stroke-dasharray:none;stroke-opacity:1"
           id="path264" />
        <path
           d="m 2136.23,5639.94 h 83.1345 v 83.1345 H 2136.23 Z"
           style="fill:#ff0000;fill-opacity:1;fill-rule:evenodd;stroke:none"
           id="path266" />
        <path
           d="m 2136.23,5723.07 v -83.13 h 83.13 v 83.13"
           style="fill:none;stroke:#000000;stroke-width:2.30929;stroke-linecap:butt;stroke-linejoin:miter;stroke-miterlimit:10;stroke-dasharray:none;stroke-opacity:1"
           id="path268" />
        <path
           d="m 2190.42,5692.9 h 14.4717 v 13.2397 H 2190.42 Z"
           style="fill:none;stroke:#000000;stroke-width:2.30929;stroke-linecap:butt;stroke-linejoin:miter;stroke-miterlimit:10;stroke-dasharray:none;stroke-opacity:1"
           id="path270" />
        <path
           d="m 2198.12,5697.21 40.95,-18.47 14.47,16.01"
           style="fill:none;stroke:#000000;stroke-width:2.30929;stroke-linecap:butt;stroke-linejoin:miter;stroke-miterlimit:10;stroke-dasharray:none;stroke-opacity:1"
           id="path272" />
      </g>
    </g>
  </g>
</svg>
