<?xml version="1.0" encoding="UTF-8" standalone="no"?>
<!-- Created with Inkscape (http://www.inkscape.org/) -->

<svg
   width="113.7084mm"
   height="22.406986mm"
   viewBox="0 0 113.7084 22.406986"
   version="1.1"
   id="svg18038"
   inkscape:version="1.2 (1:1.2.1+202207142221+cd75a1ee6d)"
   sodipodi:docname="monte_carlo_moving.svg"
   xmlns:inkscape="http://www.inkscape.org/namespaces/inkscape"
   xmlns:sodipodi="http://sodipodi.sourceforge.net/DTD/sodipodi-0.dtd"
   xmlns="http://www.w3.org/2000/svg"
   xmlns:svg="http://www.w3.org/2000/svg">
  <sodipodi:namedview
     id="namedview18040"
     pagecolor="#ffffff"
     bordercolor="#666666"
     borderopacity="1.0"
     inkscape:showpageshadow="2"
     inkscape:pageopacity="0.0"
     inkscape:pagecheckerboard="0"
     inkscape:deskcolor="#d1d1d1"
     inkscape:document-units="mm"
     showgrid="false"
     inkscape:zoom="0.75722503"
     inkscape:cx="-140.64511"
     inkscape:cy="104.98861"
     inkscape:window-width="1848"
     inkscape:window-height="1016"
     inkscape:window-x="1438"
     inkscape:window-y="27"
     inkscape:window-maximized="1"
     inkscape:current-layer="layer1" />
  <defs
     id="defs18035">
    <clipPath
       clipPathUnits="userSpaceOnUse"
       id="clipPath432">
      <path
         d="m 1376.55,3260.7 h 3236 v 640.36 h -3236 z"
         id="path430" />
    </clipPath>
    <clipPath
       clipPathUnits="userSpaceOnUse"
       id="clipPath472">
      <path
         d="m 1376,3260 v 642 h 3237 v -642 z"
         id="path470" />
    </clipPath>
    <clipPath
       clipPathUnits="userSpaceOnUse"
       id="clipPath482">
      <path
         d="m 1376.55,3260.7 h 3236 v 640.36 h -3236 z"
         id="path480" />
    </clipPath>
  </defs>
  <g
     inkscape:label="Layer 1"
     inkscape:groupmode="layer"
     id="layer1"
     transform="translate(-80.814036,-120.87416)">
    <g
       id="g426"
       transform="matrix(0.03527778,0,0,-0.03527778,32.252408,258.3114)">
      <g
         id="g428"
         clip-path="url(#clipPath432)">
        <path
           d="m 1397.56,3679.17 h 3079.06 v 215.534 H 1397.56 Z"
           style="fill:none;stroke:#000000;stroke-width:2.30929;stroke-linecap:butt;stroke-linejoin:miter;stroke-miterlimit:10;stroke-dasharray:none;stroke-opacity:1"
           id="path434" />
        <path
           d="m 1397.56,3294.6 h 937.88 l 6.16,0.31 h 18.48 l 6.16,0.3 h 6.15 l 6.16,0.31 6.16,0.62 6.16,0.61 6.16,0.93 6.46,0.92 6.16,1.85 6.16,1.85 6.16,2.46 6.15,3.08 6.16,3.39 6.16,3.69 6.16,4 6.16,4.31 6.15,4.01 6.16,4 6.16,3.39 6.16,2.46 6.16,1.85 6.16,0.61 6.15,-0.3 6.16,-1.54 6.16,-2.16 6.16,-3.39 6.16,-3.69 6.15,-4 6.16,-4.31 6.16,-4.01 6.16,-4 6.16,-3.39 6.46,-3.08 6.16,-2.77 6.16,-2.15 6.16,-1.54 6.16,-1.23 6.15,-1.24 6.16,-0.61 6.16,-0.31 6.16,-0.62 h 6.16 l 6.15,-0.3 h 18.48 l 6.16,0.3 h 6.15 l 6.16,0.31 6.16,0.62 6.16,0.61 6.16,0.93 6.15,1.23 6.16,1.54 6.16,2.15 6.16,2.47 6.16,2.77 6.46,3.69 6.16,3.7 6.16,4 6.16,4.31 6.16,4.31 6.15,3.7 6.16,3.38 6.16,2.47 6.16,1.54 6.16,0.61 6.15,-0.3 6.16,-1.54 6.16,-2.47 6.16,-3.38 6.16,-3.7 6.16,-4 6.15,-4.31 6.16,-4.01 6.16,-4 6.16,-3.39 6.16,-3.07 6.15,-2.78 6.16,-1.84 6.16,-1.85 6.16,-1.23 6.46,-0.93 6.16,-0.61 6.16,-0.62 6.16,-0.31 h 6.16 l 6.15,-0.3 h 24.64 l 6.16,-0.31 h 808.25 l 6.16,0.31 h 24.63 l 6.16,0.3 6.15,0.31 6.16,0.62 6.47,0.61 6.16,0.62 6.16,1.23 6.15,1.54 6.16,2.16 6.16,2.46 6.16,2.77 6.16,3.39 6.15,3.69 6.16,4.31 6.16,4.01 6.16,4.31 6.16,3.69 6.15,3.39 6.16,2.77 6.16,1.85 6.16,0.61 6.16,-0.3 6.16,-1.24 6.15,-2.46 6.16,-3.08 6.16,-3.69 6.16,-4.31 6.16,-4.01 6.15,-4.31 6.47,-3.69 6.16,-3.7 6.16,-3.08 6.15,-2.46 6.16,-2.16 6.16,-1.84 6.16,-1.23 6.16,-0.93 6.15,-0.92 6.16,-0.31 6.16,-0.62 h 6.16 l 6.16,-0.3 h 24.63 l 6.16,-0.31 h 425.83 v -15.7 H 1397.56"
           style="fill:#000000;fill-opacity:1;fill-rule:evenodd;stroke:none"
           id="path436" />
        <path
           d="m 1397.56,3294.6 h 937.88 l 6.16,0.31 h 18.48 l 6.16,0.3 h 6.15 l 6.16,0.31 6.16,0.62 6.16,0.61 6.16,0.93 6.46,0.92 6.16,1.85 6.16,1.85 6.16,2.46 6.15,3.08 6.16,3.39 6.16,3.69 6.16,4 6.16,4.31 6.15,4.01 6.16,4 6.16,3.39 6.16,2.46 6.16,1.85 6.16,0.61 6.15,-0.3 6.16,-1.54 6.16,-2.16 6.16,-3.39 6.16,-3.69 6.15,-4 6.16,-4.31 6.16,-4.01 6.16,-4 6.16,-3.39 6.46,-3.08 6.16,-2.77 6.16,-2.15 6.16,-1.54 6.16,-1.23 6.15,-1.24 6.16,-0.61 6.16,-0.31 6.16,-0.62 h 6.16 l 6.15,-0.3 h 18.48 l 6.16,0.3 h 6.15 l 6.16,0.31 6.16,0.62 6.16,0.61 6.16,0.93 6.15,1.23 6.16,1.54 6.16,2.15 6.16,2.47 6.16,2.77 6.46,3.69 6.16,3.7 6.16,4 6.16,4.31 6.16,4.31 6.15,3.7 6.16,3.38 6.16,2.47 6.16,1.54 6.16,0.61 6.15,-0.3 6.16,-1.54 6.16,-2.47 6.16,-3.38 6.16,-3.7 6.16,-4 6.15,-4.31 6.16,-4.01 6.16,-4 6.16,-3.39 6.16,-3.07 6.15,-2.78 6.16,-1.84 6.16,-1.85 6.16,-1.23 6.46,-0.93 6.16,-0.61 6.16,-0.62 6.16,-0.31 h 6.16 l 6.15,-0.3 h 24.64 l 6.16,-0.31 h 808.25 l 6.16,0.31 h 24.63 l 6.16,0.3 6.15,0.31 6.16,0.62 6.47,0.61 6.16,0.62 6.16,1.23 6.15,1.54 6.16,2.16 6.16,2.46 6.16,2.77 6.16,3.39 6.15,3.69 6.16,4.31 6.16,4.01 6.16,4.31 6.16,3.69 6.15,3.39 6.16,2.77 6.16,1.85 6.16,0.61 6.16,-0.3 6.16,-1.24 6.15,-2.46 6.16,-3.08 6.16,-3.69 6.16,-4.31 6.16,-4.01 6.15,-4.31 6.47,-3.69 6.16,-3.7 6.16,-3.08 6.15,-2.46 6.16,-2.16 6.16,-1.84 6.16,-1.23 6.16,-0.93 6.15,-0.92 6.16,-0.31 6.16,-0.62 h 6.16 l 6.16,-0.3 h 24.63 l 6.16,-0.31 h 425.83 v -15.7 H 1397.56 Z"
           style="fill:none;stroke:#000000;stroke-width:2.30929;stroke-linecap:butt;stroke-linejoin:miter;stroke-miterlimit:10;stroke-dasharray:none;stroke-opacity:1"
           id="path438" />
        <g
           id="g440"
           transform="scale(10)">
          <text
             xml:space="preserve"
             transform="matrix(1,0,0,-1,449.356,332.97)"
             style="font-variant:normal;font-weight:bold;font-size:8.31346px;font-family:'Times New Roman';-inkscape-font-specification:Times-Bold;writing-mode:lr-tb;fill:#000000;fill-opacity:1;fill-rule:nonzero;stroke:none"
             id="text446"><tspan
               x="0"
               y="0"
               id="tspan442">x</tspan><tspan
               x="-305.75 -301.12772 -297.43655 -295.1254 -292.35703 -288.20029"
               y="-18.012501"
               sodipodi:role="line"
               id="tspan444">bel(x)</tspan></text>
        </g>
        <path
           d="m 2167.33,3679.17 h 92.3716 v 153.953 H 2167.33 Z"
           style="fill:#a13f00;fill-opacity:1;fill-rule:evenodd;stroke:none"
           id="path448" />
        <path
           d="m 2167.33,3679.17 v 153.96 h 92.37 v -153.96"
           style="fill:none;stroke:#000000;stroke-width:18.4743;stroke-linecap:butt;stroke-linejoin:miter;stroke-miterlimit:10;stroke-dasharray:none;stroke-opacity:1"
           id="path450" />
        <path
           d="m 2444.44,3679.17 h 92.3716 v 153.953 H 2444.44 Z"
           style="fill:#a13f00;fill-opacity:1;fill-rule:evenodd;stroke:none"
           id="path452" />
        <path
           d="m 2444.44,3679.17 v 153.96 h 92.37 v -153.96"
           style="fill:none;stroke:#000000;stroke-width:18.4743;stroke-linecap:butt;stroke-linejoin:miter;stroke-miterlimit:10;stroke-dasharray:none;stroke-opacity:1"
           id="path454" />
        <path
           d="m 3568.3,3679.17 h 92.3716 v 153.953 H 3568.3 Z"
           style="fill:#a13f00;fill-opacity:1;fill-rule:evenodd;stroke:none"
           id="path456" />
        <path
           d="m 3568.3,3679.17 v 153.96 h 92.37 v -153.96"
           style="fill:none;stroke:#000000;stroke-width:18.4743;stroke-linecap:butt;stroke-linejoin:miter;stroke-miterlimit:10;stroke-dasharray:none;stroke-opacity:1"
           id="path458" />
        <path
           d="m 2167.33,3740.75 h 24.63"
           style="fill:none;stroke:#000000;stroke-width:18.4743;stroke-linecap:butt;stroke-linejoin:miter;stroke-miterlimit:10;stroke-dasharray:none;stroke-opacity:1"
           id="path460" />
        <path
           d="m 2444.44,3740.75 h 24.64"
           style="fill:none;stroke:#000000;stroke-width:18.4743;stroke-linecap:butt;stroke-linejoin:miter;stroke-miterlimit:10;stroke-dasharray:none;stroke-opacity:1"
           id="path462" />
        <path
           d="m 3568.3,3740.75 h 24.63"
           style="fill:none;stroke:#000000;stroke-width:18.4743;stroke-linecap:butt;stroke-linejoin:miter;stroke-miterlimit:10;stroke-dasharray:none;stroke-opacity:1"
           id="path464" />
      </g>
    </g>
    <g
       id="g466"
       transform="matrix(0.03527778,0,0,-0.03527778,32.252408,258.3114)">
      <g
         id="g468"
         clip-path="url(#clipPath472)">
        <path
           d="M 1390.17,3617.59 V 3271.51 H 4599.78"
           style="fill:none;stroke:#000000;stroke-width:9.23717;stroke-linecap:butt;stroke-linejoin:miter;stroke-miterlimit:10;stroke-dasharray:none;stroke-opacity:1"
           id="path474" />
      </g>
    </g>
    <g
       id="g476"
       transform="matrix(0.03527778,0,0,-0.03527778,32.252408,258.3114)">
      <g
         id="g478"
         clip-path="url(#clipPath482)">
        <path
           d="m 1376.32,3564.02 13.85,36.95 13.86,-36.95 h -27.71"
           style="fill:#000000;fill-opacity:1;fill-rule:evenodd;stroke:none"
           id="path484" />
        <path
           d="m 1376.32,3564.02 13.85,36.95 13.86,-36.95 z"
           style="fill:none;stroke:#000000;stroke-width:9.23717;stroke-linecap:butt;stroke-linejoin:miter;stroke-miterlimit:10;stroke-dasharray:none;stroke-opacity:1"
           id="path486" />
        <path
           d="m 4546.21,3285.36 36.95,-13.85 -36.95,-13.86 v 27.71"
           style="fill:#000000;fill-opacity:1;fill-rule:evenodd;stroke:none"
           id="path488" />
        <path
           d="m 4546.21,3285.36 36.95,-13.85 -36.95,-13.86 z"
           style="fill:none;stroke:#000000;stroke-width:9.23717;stroke-linecap:butt;stroke-linejoin:miter;stroke-miterlimit:10;stroke-dasharray:none;stroke-opacity:1"
           id="path490" />
        <path
           d="m 2413.35,3737.67 c 6.99,16.78 23.38,27.72 41.56,27.72 18.18,0 34.58,-10.94 41.56,-27.72"
           style="fill:#ff0000;fill-opacity:1;fill-rule:evenodd;stroke:none"
           id="path492" />
        <path
           d="m 2413.35,3737.67 c 6.99,16.78 23.38,27.72 41.56,27.72 18.18,0 34.58,-10.94 41.56,-27.72"
           style="fill:none;stroke:#000000;stroke-width:2.30929;stroke-linecap:butt;stroke-linejoin:miter;stroke-miterlimit:10;stroke-dasharray:none;stroke-opacity:1"
           id="path494" />
        <path
           d="m 2429.66,3645.61 c 0,-3.91 -3.17,-7.08 -7.08,-7.08 -3.91,0 -7.08,3.17 -7.08,7.08 0,3.91 3.17,7.08 7.08,7.08 3.91,0 7.08,-3.17 7.08,-7.08 z"
           style="fill:none;stroke:#000000;stroke-width:2.30929;stroke-linecap:butt;stroke-linejoin:miter;stroke-miterlimit:10;stroke-dasharray:none;stroke-opacity:1"
           id="path496" />
        <path
           d="m 2462.92,3645.61 c 0,-3.91 -3.17,-7.08 -7.08,-7.08 -3.92,0 -7.09,3.17 -7.09,7.08 0,3.91 3.17,7.08 7.09,7.08 3.91,0 7.08,-3.17 7.08,-7.08 z"
           style="fill:none;stroke:#000000;stroke-width:2.30929;stroke-linecap:butt;stroke-linejoin:miter;stroke-miterlimit:10;stroke-dasharray:none;stroke-opacity:1"
           id="path498" />
        <path
           d="m 2495.25,3645.61 c 0,-3.91 -3.17,-7.08 -7.08,-7.08 -3.92,0 -7.09,3.17 -7.09,7.08 0,3.91 3.17,7.08 7.09,7.08 3.91,0 7.08,-3.17 7.08,-7.08 z"
           style="fill:none;stroke:#000000;stroke-width:2.30929;stroke-linecap:butt;stroke-linejoin:miter;stroke-miterlimit:10;stroke-dasharray:none;stroke-opacity:1"
           id="path500" />
        <path
           d="m 2475.85,3712.43 34.48,17.24 15.09,-1.23"
           style="fill:none;stroke:#000000;stroke-width:2.30929;stroke-linecap:butt;stroke-linejoin:miter;stroke-miterlimit:10;stroke-dasharray:none;stroke-opacity:1"
           id="path502" />
        <path
           d="m 2435.51,3773.08 h 32.33 l 7.09,-5.23 v 14.16 l -7.09,-4.61 h -32.33"
           style="fill:#000000;fill-opacity:1;fill-rule:evenodd;stroke:none"
           id="path504" />
        <path
           d="m 2435.51,3773.08 h 32.33 l 7.09,-5.23 v 14.16 l -7.09,-4.61 h -32.33 z"
           style="fill:none;stroke:#000000;stroke-width:2.30929;stroke-linecap:butt;stroke-linejoin:miter;stroke-miterlimit:10;stroke-dasharray:none;stroke-opacity:1"
           id="path506" />
        <path
           d="m 2450.29,3766.31 h 5.5422 v 4.9265 h -5.5422 z"
           style="fill:#000000;fill-opacity:1;fill-rule:evenodd;stroke:none"
           id="path508" />
        <path
           d="m 2450.29,3766.31 h 5.5422 v 4.9265 h -5.5422 z"
           style="fill:none;stroke:#000000;stroke-width:2.30929;stroke-linecap:butt;stroke-linejoin:miter;stroke-miterlimit:10;stroke-dasharray:none;stroke-opacity:1"
           id="path510" />
        <path
           d="m 2413.34,3654.54 h 83.1345 v 83.1345 H 2413.34 Z"
           style="fill:#ff0000;fill-opacity:1;fill-rule:evenodd;stroke:none"
           id="path512" />
        <path
           d="m 2413.34,3737.68 v -83.14 h 83.14 v 83.14"
           style="fill:none;stroke:#000000;stroke-width:2.30929;stroke-linecap:butt;stroke-linejoin:miter;stroke-miterlimit:10;stroke-dasharray:none;stroke-opacity:1"
           id="path514" />
        <path
           d="m 2467.54,3707.5 h 14.4717 v 13.2397 H 2467.54 Z"
           style="fill:none;stroke:#000000;stroke-width:2.30929;stroke-linecap:butt;stroke-linejoin:miter;stroke-miterlimit:10;stroke-dasharray:none;stroke-opacity:1"
           id="path516" />
        <path
           d="m 2475.23,3711.81 40.96,-18.47 14.47,16.01"
           style="fill:none;stroke:#000000;stroke-width:2.30929;stroke-linecap:butt;stroke-linejoin:miter;stroke-miterlimit:10;stroke-dasharray:none;stroke-opacity:1"
           id="path518" />
      </g>
    </g>
  </g>
</svg>
