<?xml version="1.0" encoding="UTF-8" standalone="no"?>
<!-- Created with Inkscape (http://www.inkscape.org/) -->

<svg
   width="113.7084mm"
   height="162.48799mm"
   viewBox="0 0 113.70839 162.48798"
   version="1.1"
   id="svg5"
   xml:space="preserve"
   inkscape:version="1.2 (1:1.2.1+202207142221+cd75a1ee6d)"
   sodipodi:docname="markov_localization.svg"
   xmlns:inkscape="http://www.inkscape.org/namespaces/inkscape"
   xmlns:sodipodi="http://sodipodi.sourceforge.net/DTD/sodipodi-0.dtd"
   xmlns="http://www.w3.org/2000/svg"
   xmlns:svg="http://www.w3.org/2000/svg"><sodipodi:namedview
     id="namedview7"
     pagecolor="#ffffff"
     bordercolor="#666666"
     borderopacity="1.0"
     inkscape:showpageshadow="2"
     inkscape:pageopacity="0.0"
     inkscape:pagecheckerboard="0"
     inkscape:deskcolor="#d1d1d1"
     inkscape:document-units="mm"
     showgrid="false"
     inkscape:zoom="1.0708779"
     inkscape:cx="180.69287"
     inkscape:cy="321.69867"
     inkscape:window-width="1848"
     inkscape:window-height="1016"
     inkscape:window-x="1438"
     inkscape:window-y="27"
     inkscape:window-maximized="1"
     inkscape:current-layer="g140" /><defs
     id="defs2"><clipPath
       clipPathUnits="userSpaceOnUse"
       id="clipPath164"><path
         d="M 1397.56,5880.11 H 4476.62 V 5664.57 H 1397.56 Z"
         clip-rule="evenodd"
         id="path162" /></clipPath><clipPath
       clipPathUnits="userSpaceOnUse"
       id="clipPath186"><path
         d="m 1376.55,5246.1 h 3236 v 640.36 h -3236 z"
         id="path184" /></clipPath><clipPath
       clipPathUnits="userSpaceOnUse"
       id="clipPath226"><path
         d="m 1376,5246 v 641 h 3237 v -641 z"
         id="path224" /></clipPath><clipPath
       clipPathUnits="userSpaceOnUse"
       id="clipPath236"><path
         d="m 1376.55,5246.1 h 3236 v 640.36 h -3236 z"
         id="path234" /></clipPath><clipPath
       clipPathUnits="userSpaceOnUse"
       id="clipPath280"><path
         d="M 1397.56,5087.81 H 4476.62 V 4872.28 H 1397.56 Z"
         clip-rule="evenodd"
         id="path278" /></clipPath><clipPath
       clipPathUnits="userSpaceOnUse"
       id="clipPath292"><path
         d="m 1376.55,4052.97 h 3236 v 1041.19 h -3236 z"
         id="path290" /></clipPath><clipPath
       clipPathUnits="userSpaceOnUse"
       id="clipPath340"><path
         d="M 1376,4052 V 5095 H 4613 V 4052 Z"
         id="path338" /></clipPath><clipPath
       clipPathUnits="userSpaceOnUse"
       id="clipPath350"><path
         d="m 1376.55,4052.97 h 3236 v 1041.19 h -3236 z"
         id="path348" /></clipPath><clipPath
       clipPathUnits="userSpaceOnUse"
       id="clipPath366"><path
         d="M 1376,4052 V 5095 H 4613 V 4052 Z"
         id="path364" /></clipPath><clipPath
       clipPathUnits="userSpaceOnUse"
       id="clipPath376"><path
         d="m 1376.55,4052.97 h 3236 v 1041.19 h -3236 z"
         id="path374" /></clipPath><clipPath
       clipPathUnits="userSpaceOnUse"
       id="clipPath420"><path
         d="M 1397.56,3894.71 H 4476.62 V 3679.17 H 1397.56 Z"
         clip-rule="evenodd"
         id="path418" /></clipPath><clipPath
       clipPathUnits="userSpaceOnUse"
       id="clipPath432"><path
         d="m 1376.55,3260.7 h 3236 v 640.36 h -3236 z"
         id="path430" /></clipPath><clipPath
       clipPathUnits="userSpaceOnUse"
       id="clipPath472"><path
         d="m 1376,3260 v 642 h 3237 v -642 z"
         id="path470" /></clipPath><clipPath
       clipPathUnits="userSpaceOnUse"
       id="clipPath482"><path
         d="m 1376.55,3260.7 h 3236 v 640.36 h -3236 z"
         id="path480" /></clipPath><clipPath
       clipPathUnits="userSpaceOnUse"
       id="clipPath526"><path
         d="M 1397.56,3102.41 H 4476.62 V 2886.88 H 1397.56 Z"
         clip-rule="evenodd"
         id="path524" /></clipPath><clipPath
       clipPathUnits="userSpaceOnUse"
       id="clipPath538"><path
         d="m 1376.55,2067.57 h 3236 v 1041.19 h -3236 z"
         id="path536" /></clipPath><clipPath
       clipPathUnits="userSpaceOnUse"
       id="clipPath586"><path
         d="M 1376,2067 V 3109 H 4613 V 2067 Z"
         id="path584" /></clipPath><clipPath
       clipPathUnits="userSpaceOnUse"
       id="clipPath596"><path
         d="m 1376.55,2067.57 h 3236 v 1041.19 h -3236 z"
         id="path594" /></clipPath><clipPath
       clipPathUnits="userSpaceOnUse"
       id="clipPath612"><path
         d="M 1376,2067 V 3109 H 4613 V 2067 Z"
         id="path610" /></clipPath><clipPath
       clipPathUnits="userSpaceOnUse"
       id="clipPath622"><path
         d="m 1376.55,2067.57 h 3236 v 1041.19 h -3236 z"
         id="path620" /></clipPath><clipPath
       clipPathUnits="userSpaceOnUse"
       id="clipPath666"><path
         d="M 1397.56,1909.31 H 4476.62 V 1693.77 H 1397.56 Z"
         clip-rule="evenodd"
         id="path664" /></clipPath><clipPath
       clipPathUnits="userSpaceOnUse"
       id="clipPath698"><path
         d="m 1376.55,1275.3 h 3236 v 640.36 h -3236 z"
         id="path696" /></clipPath><clipPath
       clipPathUnits="userSpaceOnUse"
       id="clipPath738"><path
         d="m 1376,1275 v 641 h 3237 v -641 z"
         id="path736" /></clipPath><clipPath
       clipPathUnits="userSpaceOnUse"
       id="clipPath748"><path
         d="m 1376.55,1275.3 h 3236 v 640.36 h -3236 z"
         id="path746" /></clipPath></defs><g
     inkscape:label="Layer 1"
     inkscape:groupmode="layer"
     id="layer1"
     transform="translate(-47.947344,-28.329351)"><g
       id="g140"
       transform="matrix(0.03527778,0,0,-0.03527778,-0.61428393,235.8071)"><g
         id="g158"><g
           id="g160"
           clip-path="url(#clipPath164)"><g
             id="g166"
             transform="scale(10)"><text
               xml:space="preserve"
               transform="translate(132.4,595.6)"
               style="font-variant:normal;font-weight:normal;font-size:0.1px;font-family:Arial;-inkscape-font-specification:Arial;writing-mode:lr-tb;fill:#ffbfbf;fill-opacity:1;fill-rule:nonzero;stroke:none"
               id="text176"><tspan
                 x="0 7.4000001 14.8 22.200001 29.6 37 44.400002 51.799999 59.200001 66.599998 74 81.400002 88.800003 96.199997 103.6 111 118.4 125.8 133.2 140.60001 148 155.39999 162.8 170.2 177.60001 185 192.39999 199.8 207.2 214.60001 222 229.39999 236.8 244.2 251.60001 259 266.39999 273.79999 281.20001 288.60001 296 303.39999 310.79999"
                 y="0"
                 sodipodi:role="line"
                 id="tspan168"></tspan><tspan
                 x="0 7.4000001 14.8 22.200001 29.6 37 44.400002 51.799999 59.200001 66.599998 74 81.400002 88.800003 96.199997 103.6 111 118.4 125.8 133.2 140.60001 148 155.39999 162.8 170.2 177.60001 185 192.39999 199.8 207.2 214.60001 222 229.39999 236.8 244.2 251.60001 259 266.39999 273.79999 281.20001 288.60001 296 303.39999 310.79999"
                 y="-7.4000001"
                 sodipodi:role="line"
                 id="tspan170"></tspan><tspan
                 x="0 7.4000001 14.8 22.200001 29.6 37 44.400002 51.799999 59.200001 66.599998 74 81.400002 88.800003 96.199997 103.6 111 118.4 125.8 133.2 140.60001 148 155.39999 162.8 170.2 177.60001 185 192.39999 199.8 207.2 214.60001 222 229.39999 236.8 244.2 251.60001 259 266.39999 273.79999 281.20001 288.60001 296 303.39999 310.79999"
                 y="-14.8"
                 sodipodi:role="line"
                 id="tspan172"></tspan><tspan
                 x="0 7.4000001 14.8 22.200001 29.6 37 44.400002 51.799999 59.200001 66.599998 74 81.400002 88.800003 96.199997 103.6 111 118.4 125.8 133.2 140.60001 148 155.39999 162.8 170.2 177.60001 185 192.39999 199.8 207.2 214.60001 222 229.39999 236.8 244.2 251.60001 259 266.39999 273.79999 281.20001 288.60001 296 303.39999 310.79999"
                 y="-22.200001"
                 sodipodi:role="line"
                 id="tspan174"></tspan></text></g><g
             id="g178"
             transform="scale(10)" /></g></g><g
         id="g180"><g
           id="g182"
           clip-path="url(#clipPath186)"><path
             d="m 1397.56,5664.57 h 3079.06 v 215.534 H 1397.56 Z"
             style="fill:none;stroke:#000000;stroke-width:2.30929;stroke-linecap:butt;stroke-linejoin:miter;stroke-miterlimit:10;stroke-dasharray:none;stroke-opacity:1"
             id="path188" /><path
             d="M 1397.56,5290.78 H 4476.62 V 5264.3 H 1397.56"
             style="fill:#000000;fill-opacity:1;fill-rule:evenodd;stroke:none"
             id="path190" /><path
             d="M 1397.56,5290.78 H 4476.62 V 5264.3 H 1397.56 Z"
             style="fill:none;stroke:#000000;stroke-width:2.30929;stroke-linecap:butt;stroke-linejoin:miter;stroke-miterlimit:10;stroke-dasharray:none;stroke-opacity:1"
             id="path192" /><g
             id="g194"
             transform="scale(10)"><text
               xml:space="preserve"
               transform="matrix(1,0,0,-1,449.356,531.51)"
               style="font-variant:normal;font-weight:bold;font-size:8.31346px;font-family:'Times New Roman';-inkscape-font-specification:Times-Bold;writing-mode:lr-tb;fill:#000000;fill-opacity:1;fill-rule:nonzero;stroke:none"
               id="text200"><tspan
                 x="0"
                 y="0"
                 id="tspan196">x</tspan><tspan
                 x="-305.75 -301.12772 -297.43655 -295.1254 -292.35703 -288.20029"
                 y="-18.012501"
                 sodipodi:role="line"
                 id="tspan198">bel(x)</tspan></text></g><path
             d="m 2167.33,5664.57 h 92.3716 v 153.953 H 2167.33 Z"
             style="fill:#a13f00;fill-opacity:1;fill-rule:evenodd;stroke:none"
             id="path202" /><path
             d="m 2167.33,5664.57 v 153.96 h 92.37 v -153.96"
             style="fill:none;stroke:#000000;stroke-width:18.4743;stroke-linecap:butt;stroke-linejoin:miter;stroke-miterlimit:10;stroke-dasharray:none;stroke-opacity:1"
             id="path204" /><path
             d="m 2444.44,5664.57 h 92.3716 v 153.953 H 2444.44 Z"
             style="fill:#a13f00;fill-opacity:1;fill-rule:evenodd;stroke:none"
             id="path206" /><path
             d="m 2444.44,5664.57 v 153.96 h 92.37 v -153.96"
             style="fill:none;stroke:#000000;stroke-width:18.4743;stroke-linecap:butt;stroke-linejoin:miter;stroke-miterlimit:10;stroke-dasharray:none;stroke-opacity:1"
             id="path208" /><path
             d="m 3568.3,5664.57 h 92.3716 v 153.953 H 3568.3 Z"
             style="fill:#a13f00;fill-opacity:1;fill-rule:evenodd;stroke:none"
             id="path210" /><path
             d="m 3568.3,5664.57 v 153.96 h 92.37 v -153.96"
             style="fill:none;stroke:#000000;stroke-width:18.4743;stroke-linecap:butt;stroke-linejoin:miter;stroke-miterlimit:10;stroke-dasharray:none;stroke-opacity:1"
             id="path212" /><path
             d="m 2167.33,5726.15 h 24.63"
             style="fill:none;stroke:#000000;stroke-width:18.4743;stroke-linecap:butt;stroke-linejoin:miter;stroke-miterlimit:10;stroke-dasharray:none;stroke-opacity:1"
             id="path214" /><path
             d="m 2444.44,5726.15 h 24.64"
             style="fill:none;stroke:#000000;stroke-width:18.4743;stroke-linecap:butt;stroke-linejoin:miter;stroke-miterlimit:10;stroke-dasharray:none;stroke-opacity:1"
             id="path216" /><path
             d="m 3568.3,5726.15 h 24.63"
             style="fill:none;stroke:#000000;stroke-width:18.4743;stroke-linecap:butt;stroke-linejoin:miter;stroke-miterlimit:10;stroke-dasharray:none;stroke-opacity:1"
             id="path218" /></g></g><g
         id="g220"><g
           id="g222"
           clip-path="url(#clipPath226)"><path
             d="M 1390.17,5602.99 V 5256.91 H 4599.78"
             style="fill:none;stroke:#000000;stroke-width:9.23717;stroke-linecap:butt;stroke-linejoin:miter;stroke-miterlimit:10;stroke-dasharray:none;stroke-opacity:1"
             id="path228" /></g></g><g
         id="g230"><g
           id="g232"
           clip-path="url(#clipPath236)"><path
             d="m 1376.32,5549.42 13.85,36.95 13.86,-36.95 h -27.71"
             style="fill:#000000;fill-opacity:1;fill-rule:evenodd;stroke:none"
             id="path238" /><path
             d="m 1376.32,5549.42 13.85,36.95 13.86,-36.95 z"
             style="fill:none;stroke:#000000;stroke-width:9.23717;stroke-linecap:butt;stroke-linejoin:miter;stroke-miterlimit:10;stroke-dasharray:none;stroke-opacity:1"
             id="path240" /><path
             d="m 4546.21,5270.76 36.95,-13.85 -36.95,-13.86 v 27.71"
             style="fill:#000000;fill-opacity:1;fill-rule:evenodd;stroke:none"
             id="path242" /><path
             d="m 4546.21,5270.76 36.95,-13.85 -36.95,-13.86 z"
             style="fill:none;stroke:#000000;stroke-width:9.23717;stroke-linecap:butt;stroke-linejoin:miter;stroke-miterlimit:10;stroke-dasharray:none;stroke-opacity:1"
             id="path244" /><path
             d="m 2136.24,5723.07 c 6.98,16.78 23.38,27.72 41.56,27.72 18.18,0 34.57,-10.94 41.56,-27.72"
             style="fill:#ff0000;fill-opacity:1;fill-rule:evenodd;stroke:none"
             id="path246" /><path
             d="m 2136.24,5723.07 c 6.98,16.78 23.38,27.72 41.56,27.72 18.18,0 34.57,-10.94 41.56,-27.72"
             style="fill:none;stroke:#000000;stroke-width:2.30929;stroke-linecap:butt;stroke-linejoin:miter;stroke-miterlimit:10;stroke-dasharray:none;stroke-opacity:1"
             id="path248" /><path
             d="m 2152.55,5631.01 c 0,-3.91 -3.17,-7.08 -7.08,-7.08 -3.91,0 -7.08,3.17 -7.08,7.08 0,3.91 3.17,7.08 7.08,7.08 3.91,0 7.08,-3.17 7.08,-7.08 z"
             style="fill:none;stroke:#000000;stroke-width:2.30929;stroke-linecap:butt;stroke-linejoin:miter;stroke-miterlimit:10;stroke-dasharray:none;stroke-opacity:1"
             id="path250" /><path
             d="m 2185.8,5631.01 c 0,-3.91 -3.17,-7.08 -7.08,-7.08 -3.91,0 -7.08,3.17 -7.08,7.08 0,3.91 3.17,7.08 7.08,7.08 3.91,0 7.08,-3.17 7.08,-7.08 z"
             style="fill:none;stroke:#000000;stroke-width:2.30929;stroke-linecap:butt;stroke-linejoin:miter;stroke-miterlimit:10;stroke-dasharray:none;stroke-opacity:1"
             id="path252" /><path
             d="m 2218.13,5631.01 c 0,-3.91 -3.17,-7.08 -7.08,-7.08 -3.91,0 -7.08,3.17 -7.08,7.08 0,3.91 3.17,7.08 7.08,7.08 3.91,0 7.08,-3.17 7.08,-7.08 z"
             style="fill:none;stroke:#000000;stroke-width:2.30929;stroke-linecap:butt;stroke-linejoin:miter;stroke-miterlimit:10;stroke-dasharray:none;stroke-opacity:1"
             id="path254" /><path
             d="m 2198.73,5697.83 34.49,17.24 15.09,-1.23"
             style="fill:none;stroke:#000000;stroke-width:2.30929;stroke-linecap:butt;stroke-linejoin:miter;stroke-miterlimit:10;stroke-dasharray:none;stroke-opacity:1"
             id="path256" /><path
             d="m 2158.4,5758.48 h 32.33 l 7.08,-5.23 v 14.16 l -7.08,-4.62 h -32.33"
             style="fill:#000000;fill-opacity:1;fill-rule:evenodd;stroke:none"
             id="path258" /><path
             d="m 2158.4,5758.48 h 32.33 l 7.08,-5.23 v 14.16 l -7.08,-4.62 h -32.33 z"
             style="fill:none;stroke:#000000;stroke-width:2.30929;stroke-linecap:butt;stroke-linejoin:miter;stroke-miterlimit:10;stroke-dasharray:none;stroke-opacity:1"
             id="path260" /><path
             d="m 2173.18,5751.71 h 5.5422 v 4.9265 h -5.5422 z"
             style="fill:#000000;fill-opacity:1;fill-rule:evenodd;stroke:none"
             id="path262" /><path
             d="m 2173.18,5751.71 h 5.5422 v 4.9265 h -5.5422 z"
             style="fill:none;stroke:#000000;stroke-width:2.30929;stroke-linecap:butt;stroke-linejoin:miter;stroke-miterlimit:10;stroke-dasharray:none;stroke-opacity:1"
             id="path264" /><path
             d="m 2136.23,5639.94 h 83.1345 v 83.1345 H 2136.23 Z"
             style="fill:#ff0000;fill-opacity:1;fill-rule:evenodd;stroke:none"
             id="path266" /><path
             d="m 2136.23,5723.07 v -83.13 h 83.13 v 83.13"
             style="fill:none;stroke:#000000;stroke-width:2.30929;stroke-linecap:butt;stroke-linejoin:miter;stroke-miterlimit:10;stroke-dasharray:none;stroke-opacity:1"
             id="path268" /><path
             d="m 2190.42,5692.9 h 14.4717 v 13.2397 H 2190.42 Z"
             style="fill:none;stroke:#000000;stroke-width:2.30929;stroke-linecap:butt;stroke-linejoin:miter;stroke-miterlimit:10;stroke-dasharray:none;stroke-opacity:1"
             id="path270" /><path
             d="m 2198.12,5697.21 40.95,-18.47 14.47,16.01"
             style="fill:none;stroke:#000000;stroke-width:2.30929;stroke-linecap:butt;stroke-linejoin:miter;stroke-miterlimit:10;stroke-dasharray:none;stroke-opacity:1"
             id="path272" /></g></g><g
         id="g274"><g
           id="g276"
           clip-path="url(#clipPath280)"><g
             id="g282"
             transform="scale(10)" /><g
             id="g284"
             transform="scale(10)" /></g></g><g
         id="g286"><g
           id="g288"
           clip-path="url(#clipPath292)"><path
             d="m 1397.56,4872.28 h 3079.06 v 215.534 H 1397.56 Z"
             style="fill:none;stroke:#000000;stroke-width:2.30929;stroke-linecap:butt;stroke-linejoin:miter;stroke-miterlimit:10;stroke-dasharray:none;stroke-opacity:1"
             id="path294" /><path
             d="m 1397.56,4087.43 h 722.04 l 6.16,0.3 h 6.16 l 6.16,0.31 6.16,0.31 6.15,0.92 6.16,1.85 6.16,3.39 6.16,4.92 6.16,7.39 6.15,9.86 6.16,11.7 6.16,12.31 6.16,11.4 6.16,8.62 6.15,4 6.16,-1.54 6.16,-6.47 6.16,-10.46 6.16,-12.01 6.15,-12.32 6.47,-10.78 6.16,-8.62 6.16,-5.85 6.16,-4 6.15,-2.46 6.16,-1.54 6.16,-0.62 6.16,-0.31 h 12.31 l 6.16,-0.3 h 86.22 l 6.46,0.3 h 6.16 l 6.16,0.31 6.16,0.31 6.15,1.23 6.16,1.85 6.16,3.38 6.16,5.24 6.16,7.7 6.15,9.85 6.16,11.7 6.16,12.62 6.16,11.09 6.16,8.31 6.16,3.39 6.15,-1.85 6.16,-7.08 6.16,-10.47 6.16,-12.31 6.16,-12.01 6.15,-10.78 6.16,-8.31 6.16,-5.85 6.16,-3.7 6.16,-2.46 6.46,-1.23 6.16,-0.62 6.16,-0.31 h 12.32 l 6.15,-0.3 h 931.73 l 6.15,0.3 h 6.16 l 6.16,0.31 6.16,0.31 6.16,0.92 6.15,1.85 6.16,3.08 6.16,4.93 6.16,7.39 6.16,9.54 6.16,11.7 6.15,12.32 6.16,11.7 6.16,8.62 6.16,4 6.16,-0.92 6.15,-6.47 6.16,-10.16 6.47,-12.32 6.16,-12 6.15,-11.09 6.16,-8.62 6.16,-6.16 6.16,-4 6.16,-2.46 6.15,-1.24 6.16,-0.92 6.16,-0.31 h 12.32 l 6.16,-0.3 h 765.14 v -15.71 H 1397.56"
             style="fill:#000000;fill-opacity:1;fill-rule:evenodd;stroke:none"
             id="path296" /><path
             d="m 1397.56,4087.43 h 722.04 l 6.16,0.3 h 6.16 l 6.16,0.31 6.16,0.31 6.15,0.92 6.16,1.85 6.16,3.39 6.16,4.92 6.16,7.39 6.15,9.86 6.16,11.7 6.16,12.31 6.16,11.4 6.16,8.62 6.15,4 6.16,-1.54 6.16,-6.47 6.16,-10.46 6.16,-12.01 6.15,-12.32 6.47,-10.78 6.16,-8.62 6.16,-5.85 6.16,-4 6.15,-2.46 6.16,-1.54 6.16,-0.62 6.16,-0.31 h 12.31 l 6.16,-0.3 h 86.22 l 6.46,0.3 h 6.16 l 6.16,0.31 6.16,0.31 6.15,1.23 6.16,1.85 6.16,3.38 6.16,5.24 6.16,7.7 6.15,9.85 6.16,11.7 6.16,12.62 6.16,11.09 6.16,8.31 6.16,3.39 6.15,-1.85 6.16,-7.08 6.16,-10.47 6.16,-12.31 6.16,-12.01 6.15,-10.78 6.16,-8.31 6.16,-5.85 6.16,-3.7 6.16,-2.46 6.46,-1.23 6.16,-0.62 6.16,-0.31 h 12.32 l 6.15,-0.3 h 931.73 l 6.15,0.3 h 6.16 l 6.16,0.31 6.16,0.31 6.16,0.92 6.15,1.85 6.16,3.08 6.16,4.93 6.16,7.39 6.16,9.54 6.16,11.7 6.15,12.32 6.16,11.7 6.16,8.62 6.16,4 6.16,-0.92 6.15,-6.47 6.16,-10.16 6.47,-12.32 6.16,-12 6.15,-11.09 6.16,-8.62 6.16,-6.16 6.16,-4 6.16,-2.46 6.15,-1.24 6.16,-0.92 6.16,-0.31 h 12.32 l 6.16,-0.3 h 765.14 v -15.71 H 1397.56 Z"
             style="fill:none;stroke:#000000;stroke-width:2.30929;stroke-linecap:butt;stroke-linejoin:miter;stroke-miterlimit:10;stroke-dasharray:none;stroke-opacity:1"
             id="path298" /><path
             d="m 1397.56,4487.7 h 722.04 l 6.16,0.31 h 6.16 l 6.16,0.31 6.16,0.31 6.15,0.92 6.16,1.85 6.16,3.38 6.16,4.93 6.16,7.39 6.15,9.85 6.16,11.7 6.16,12.32 6.16,11.39 6.16,8.62 6.15,4.01 6.16,-1.54 6.16,-6.47 6.16,-10.47 6.16,-12.01 6.15,-12.31 6.47,-10.78 6.16,-8.62 6.16,-5.85 6.16,-4 6.15,-2.47 6.16,-1.54 6.16,-0.61 6.16,-0.31 h 12.31 l 6.16,-0.31 h 86.22 l 6.46,0.31 h 6.16 l 6.16,0.31 6.16,0.31 6.15,1.23 6.16,1.85 6.16,3.38 6.16,5.24 6.16,7.69 6.15,9.86 6.16,11.7 6.16,12.62 6.16,11.09 6.16,8.31 6.16,3.39 6.15,-1.85 6.16,-7.08 6.16,-10.47 6.16,-12.32 6.16,-12.01 6.15,-10.77 6.16,-8.32 6.16,-5.85 6.16,-3.69 6.16,-2.46 6.46,-1.24 6.16,-0.61 6.16,-0.31 h 12.32 l 6.15,-0.31 h 931.73 l 6.15,0.31 h 6.16 l 6.16,0.31 6.16,0.31 6.16,0.92 6.15,1.85 6.16,3.08 6.16,4.92 6.16,7.39 6.16,9.55 6.16,11.7 6.15,12.31 6.16,11.71 6.16,8.62 6.16,4 6.16,-0.92 6.15,-6.47 6.16,-10.16 6.47,-12.32 6.16,-12.01 6.15,-11.08 6.16,-8.62 6.16,-6.16 6.16,-4 6.16,-2.47 6.15,-1.23 6.16,-0.92 6.16,-0.31 h 12.32 l 6.16,-0.31 h 765.14 V 4472 H 1397.56"
             style="fill:#ff0000;fill-opacity:1;fill-rule:evenodd;stroke:none"
             id="path300" /><path
             d="m 1397.56,4487.7 h 722.04 l 6.16,0.31 h 6.16 l 6.16,0.31 6.16,0.31 6.15,0.92 6.16,1.85 6.16,3.38 6.16,4.93 6.16,7.39 6.15,9.85 6.16,11.7 6.16,12.32 6.16,11.39 6.16,8.62 6.15,4.01 6.16,-1.54 6.16,-6.47 6.16,-10.47 6.16,-12.01 6.15,-12.31 6.47,-10.78 6.16,-8.62 6.16,-5.85 6.16,-4 6.15,-2.47 6.16,-1.54 6.16,-0.61 6.16,-0.31 h 12.31 l 6.16,-0.31 h 86.22 l 6.46,0.31 h 6.16 l 6.16,0.31 6.16,0.31 6.15,1.23 6.16,1.85 6.16,3.38 6.16,5.24 6.16,7.69 6.15,9.86 6.16,11.7 6.16,12.62 6.16,11.09 6.16,8.31 6.16,3.39 6.15,-1.85 6.16,-7.08 6.16,-10.47 6.16,-12.32 6.16,-12.01 6.15,-10.77 6.16,-8.32 6.16,-5.85 6.16,-3.69 6.16,-2.46 6.46,-1.24 6.16,-0.61 6.16,-0.31 h 12.32 l 6.15,-0.31 h 931.73 l 6.15,0.31 h 6.16 l 6.16,0.31 6.16,0.31 6.16,0.92 6.15,1.85 6.16,3.08 6.16,4.92 6.16,7.39 6.16,9.55 6.16,11.7 6.15,12.31 6.16,11.71 6.16,8.62 6.16,4 6.16,-0.92 6.15,-6.47 6.16,-10.16 6.47,-12.32 6.16,-12.01 6.15,-11.08 6.16,-8.62 6.16,-6.16 6.16,-4 6.16,-2.47 6.15,-1.23 6.16,-0.92 6.16,-0.31 h 12.32 l 6.16,-0.31 h 765.14 V 4472 H 1397.56 Z"
             style="fill:none;stroke:#ff0000;stroke-width:2.30929;stroke-linecap:butt;stroke-linejoin:miter;stroke-miterlimit:10;stroke-dasharray:none;stroke-opacity:1"
             id="path302" /><g
             id="g304"
             transform="scale(10)"><text
               xml:space="preserve"
               transform="matrix(1,0,0,-1,449.356,412.253)"
               style="font-variant:normal;font-weight:bold;font-size:8.31346px;font-family:'Times New Roman';-inkscape-font-specification:Times-Bold;writing-mode:lr-tb;fill:#000000;fill-opacity:1;fill-rule:nonzero;stroke:none"
               id="text314"><tspan
                 x="0"
                 y="0"
                 id="tspan306">x</tspan><tspan
                 x="-305.75 -301.12772 -297.43655 -295.1254 -292.35703 -288.20029"
                 y="-18.012501"
                 sodipodi:role="line"
                 id="tspan308">bel(x)</tspan><tspan
                 x="0"
                 y="-40.027699"
                 id="tspan310">x</tspan><tspan
                 x="-305.75 -301.12772 -298.35934 -294.66815 -292.8392 -288.68246"
                 y="-58.040199"
                 sodipodi:role="line"
                 id="tspan312">p(z|x)</tspan></text></g><path
             d="m 2167.33,4872.28 h 92.3716 v 153.953 H 2167.33 Z"
             style="fill:#a13f00;fill-opacity:1;fill-rule:evenodd;stroke:none"
             id="path316" /><path
             d="m 2167.33,4872.28 v 153.95 h 92.37 v -153.95"
             style="fill:none;stroke:#000000;stroke-width:18.4743;stroke-linecap:butt;stroke-linejoin:miter;stroke-miterlimit:10;stroke-dasharray:none;stroke-opacity:1"
             id="path318" /><path
             d="m 2444.44,4872.28 h 92.3716 v 153.953 H 2444.44 Z"
             style="fill:#a13f00;fill-opacity:1;fill-rule:evenodd;stroke:none"
             id="path320" /><path
             d="m 2444.44,4872.28 v 153.95 h 92.37 v -153.95"
             style="fill:none;stroke:#000000;stroke-width:18.4743;stroke-linecap:butt;stroke-linejoin:miter;stroke-miterlimit:10;stroke-dasharray:none;stroke-opacity:1"
             id="path322" /><path
             d="m 3568.3,4872.28 h 92.3716 v 153.953 H 3568.3 Z"
             style="fill:#a13f00;fill-opacity:1;fill-rule:evenodd;stroke:none"
             id="path324" /><path
             d="m 3568.3,4872.28 v 153.95 h 92.37 v -153.95"
             style="fill:none;stroke:#000000;stroke-width:18.4743;stroke-linecap:butt;stroke-linejoin:miter;stroke-miterlimit:10;stroke-dasharray:none;stroke-opacity:1"
             id="path326" /><path
             d="m 2167.33,4933.86 h 24.63"
             style="fill:none;stroke:#000000;stroke-width:18.4743;stroke-linecap:butt;stroke-linejoin:miter;stroke-miterlimit:10;stroke-dasharray:none;stroke-opacity:1"
             id="path328" /><path
             d="m 2444.44,4933.86 h 24.64"
             style="fill:none;stroke:#000000;stroke-width:18.4743;stroke-linecap:butt;stroke-linejoin:miter;stroke-miterlimit:10;stroke-dasharray:none;stroke-opacity:1"
             id="path330" /><path
             d="m 3568.3,4933.86 h 24.63"
             style="fill:none;stroke:#000000;stroke-width:18.4743;stroke-linecap:butt;stroke-linejoin:miter;stroke-miterlimit:10;stroke-dasharray:none;stroke-opacity:1"
             id="path332" /></g></g><g
         id="g334"><g
           id="g336"
           clip-path="url(#clipPath340)"><path
             d="M 1390.17,4410.42 V 4064.33 H 4599.78"
             style="fill:none;stroke:#000000;stroke-width:9.23717;stroke-linecap:butt;stroke-linejoin:miter;stroke-miterlimit:10;stroke-dasharray:none;stroke-opacity:1"
             id="path342" /></g></g><g
         id="g344"><g
           id="g346"
           clip-path="url(#clipPath350)"><path
             d="m 1376.32,4356.84 13.85,36.95 13.86,-36.95 h -27.71"
             style="fill:#000000;fill-opacity:1;fill-rule:evenodd;stroke:none"
             id="path352" /><path
             d="m 1376.32,4356.84 13.85,36.95 13.86,-36.95 z"
             style="fill:none;stroke:#000000;stroke-width:9.23717;stroke-linecap:butt;stroke-linejoin:miter;stroke-miterlimit:10;stroke-dasharray:none;stroke-opacity:1"
             id="path354" /><path
             d="m 4546.21,4078.19 36.95,-13.86 -36.95,-13.85 v 27.71"
             style="fill:#000000;fill-opacity:1;fill-rule:evenodd;stroke:none"
             id="path356" /><path
             d="m 4546.21,4078.19 36.95,-13.86 -36.95,-13.85 z"
             style="fill:none;stroke:#000000;stroke-width:9.23717;stroke-linecap:butt;stroke-linejoin:miter;stroke-miterlimit:10;stroke-dasharray:none;stroke-opacity:1"
             id="path358" /></g></g><g
         id="g360"><g
           id="g362"
           clip-path="url(#clipPath366)"><path
             d="M 1390.17,4810.7 V 4464.61 H 4599.78"
             style="fill:none;stroke:#000000;stroke-width:9.23717;stroke-linecap:butt;stroke-linejoin:miter;stroke-miterlimit:10;stroke-dasharray:none;stroke-opacity:1"
             id="path368" /></g></g><g
         id="g370"><g
           id="g372"
           clip-path="url(#clipPath376)"><path
             d="m 1376.32,4757.12 13.85,36.95 13.86,-36.95 h -27.71"
             style="fill:#000000;fill-opacity:1;fill-rule:evenodd;stroke:none"
             id="path378" /><path
             d="m 1376.32,4757.12 13.85,36.95 13.86,-36.95 z"
             style="fill:none;stroke:#000000;stroke-width:9.23717;stroke-linecap:butt;stroke-linejoin:miter;stroke-miterlimit:10;stroke-dasharray:none;stroke-opacity:1"
             id="path380" /><path
             d="m 4546.21,4478.47 36.95,-13.86 -36.95,-13.86 v 27.72"
             style="fill:#000000;fill-opacity:1;fill-rule:evenodd;stroke:none"
             id="path382" /><path
             d="m 4546.21,4478.47 36.95,-13.86 -36.95,-13.86 z"
             style="fill:none;stroke:#000000;stroke-width:9.23717;stroke-linecap:butt;stroke-linejoin:miter;stroke-miterlimit:10;stroke-dasharray:none;stroke-opacity:1"
             id="path384" /><path
             d="m 2136.24,4930.77 c 6.98,16.79 23.38,27.72 41.56,27.72 18.18,0 34.57,-10.93 41.56,-27.72"
             style="fill:#ff0000;fill-opacity:1;fill-rule:evenodd;stroke:none"
             id="path386" /><path
             d="m 2136.24,4930.77 c 6.98,16.79 23.38,27.72 41.56,27.72 18.18,0 34.57,-10.93 41.56,-27.72"
             style="fill:none;stroke:#000000;stroke-width:2.30929;stroke-linecap:butt;stroke-linejoin:miter;stroke-miterlimit:10;stroke-dasharray:none;stroke-opacity:1"
             id="path388" /><path
             d="m 2152.55,4838.72 c 0,-3.92 -3.17,-7.09 -7.08,-7.09 -3.91,0 -7.08,3.17 -7.08,7.09 0,3.91 3.17,7.08 7.08,7.08 3.91,0 7.08,-3.17 7.08,-7.08 z"
             style="fill:none;stroke:#000000;stroke-width:2.30929;stroke-linecap:butt;stroke-linejoin:miter;stroke-miterlimit:10;stroke-dasharray:none;stroke-opacity:1"
             id="path390" /><path
             d="m 2185.8,4838.72 c 0,-3.92 -3.17,-7.09 -7.08,-7.09 -3.91,0 -7.08,3.17 -7.08,7.09 0,3.91 3.17,7.08 7.08,7.08 3.91,0 7.08,-3.17 7.08,-7.08 z"
             style="fill:none;stroke:#000000;stroke-width:2.30929;stroke-linecap:butt;stroke-linejoin:miter;stroke-miterlimit:10;stroke-dasharray:none;stroke-opacity:1"
             id="path392" /><path
             d="m 2218.13,4838.72 c 0,-3.92 -3.17,-7.09 -7.08,-7.09 -3.91,0 -7.08,3.17 -7.08,7.09 0,3.91 3.17,7.08 7.08,7.08 3.91,0 7.08,-3.17 7.08,-7.08 z"
             style="fill:none;stroke:#000000;stroke-width:2.30929;stroke-linecap:butt;stroke-linejoin:miter;stroke-miterlimit:10;stroke-dasharray:none;stroke-opacity:1"
             id="path394" /><path
             d="m 2198.73,4905.53 34.49,17.24 15.09,-1.23"
             style="fill:none;stroke:#000000;stroke-width:2.30929;stroke-linecap:butt;stroke-linejoin:miter;stroke-miterlimit:10;stroke-dasharray:none;stroke-opacity:1"
             id="path396" /><path
             d="m 2158.4,4966.19 h 32.33 l 7.08,-5.24 v 14.17 l -7.08,-4.62 h -32.33"
             style="fill:#000000;fill-opacity:1;fill-rule:evenodd;stroke:none"
             id="path398" /><path
             d="m 2158.4,4966.19 h 32.33 l 7.08,-5.24 v 14.17 l -7.08,-4.62 h -32.33 z"
             style="fill:none;stroke:#000000;stroke-width:2.30929;stroke-linecap:butt;stroke-linejoin:miter;stroke-miterlimit:10;stroke-dasharray:none;stroke-opacity:1"
             id="path400" /><path
             d="m 2173.18,4959.41 h 5.5422 v 4.9265 h -5.5422 z"
             style="fill:#000000;fill-opacity:1;fill-rule:evenodd;stroke:none"
             id="path402" /><path
             d="m 2173.18,4959.41 h 5.5422 v 4.9265 h -5.5422 z"
             style="fill:none;stroke:#000000;stroke-width:2.30929;stroke-linecap:butt;stroke-linejoin:miter;stroke-miterlimit:10;stroke-dasharray:none;stroke-opacity:1"
             id="path404" /><path
             d="m 2136.23,4847.64 h 83.1345 v 83.1345 H 2136.23 Z"
             style="fill:#ff0000;fill-opacity:1;fill-rule:evenodd;stroke:none"
             id="path406" /><path
             d="m 2136.23,4930.78 v -83.14 h 83.13 v 83.14"
             style="fill:none;stroke:#000000;stroke-width:2.30929;stroke-linecap:butt;stroke-linejoin:miter;stroke-miterlimit:10;stroke-dasharray:none;stroke-opacity:1"
             id="path408" /><path
             d="m 2190.42,4900.6 h 14.4717 v 13.2397 H 2190.42 Z"
             style="fill:none;stroke:#000000;stroke-width:2.30929;stroke-linecap:butt;stroke-linejoin:miter;stroke-miterlimit:10;stroke-dasharray:none;stroke-opacity:1"
             id="path410" /><path
             d="m 2198.12,4904.92 40.95,-18.48 14.47,16.01"
             style="fill:none;stroke:#000000;stroke-width:2.30929;stroke-linecap:butt;stroke-linejoin:miter;stroke-miterlimit:10;stroke-dasharray:none;stroke-opacity:1"
             id="path412" /></g></g><g
         id="g414"><g
           id="g416"
           clip-path="url(#clipPath420)"><g
             id="g422"
             transform="scale(10)" /><g
             id="g424"
             transform="scale(10)" /></g></g><g
         id="g426"><g
           id="g428"
           clip-path="url(#clipPath432)"><path
             d="m 1397.56,3679.17 h 3079.06 v 215.534 H 1397.56 Z"
             style="fill:none;stroke:#000000;stroke-width:2.30929;stroke-linecap:butt;stroke-linejoin:miter;stroke-miterlimit:10;stroke-dasharray:none;stroke-opacity:1"
             id="path434" /><path
             d="m 1397.56,3294.6 h 937.88 l 6.16,0.31 h 18.48 l 6.16,0.3 h 6.15 l 6.16,0.31 6.16,0.62 6.16,0.61 6.16,0.93 6.46,0.92 6.16,1.85 6.16,1.85 6.16,2.46 6.15,3.08 6.16,3.39 6.16,3.69 6.16,4 6.16,4.31 6.15,4.01 6.16,4 6.16,3.39 6.16,2.46 6.16,1.85 6.16,0.61 6.15,-0.3 6.16,-1.54 6.16,-2.16 6.16,-3.39 6.16,-3.69 6.15,-4 6.16,-4.31 6.16,-4.01 6.16,-4 6.16,-3.39 6.46,-3.08 6.16,-2.77 6.16,-2.15 6.16,-1.54 6.16,-1.23 6.15,-1.24 6.16,-0.61 6.16,-0.31 6.16,-0.62 h 6.16 l 6.15,-0.3 h 18.48 l 6.16,0.3 h 6.15 l 6.16,0.31 6.16,0.62 6.16,0.61 6.16,0.93 6.15,1.23 6.16,1.54 6.16,2.15 6.16,2.47 6.16,2.77 6.46,3.69 6.16,3.7 6.16,4 6.16,4.31 6.16,4.31 6.15,3.7 6.16,3.38 6.16,2.47 6.16,1.54 6.16,0.61 6.15,-0.3 6.16,-1.54 6.16,-2.47 6.16,-3.38 6.16,-3.7 6.16,-4 6.15,-4.31 6.16,-4.01 6.16,-4 6.16,-3.39 6.16,-3.07 6.15,-2.78 6.16,-1.84 6.16,-1.85 6.16,-1.23 6.46,-0.93 6.16,-0.61 6.16,-0.62 6.16,-0.31 h 6.16 l 6.15,-0.3 h 24.64 l 6.16,-0.31 h 808.25 l 6.16,0.31 h 24.63 l 6.16,0.3 6.15,0.31 6.16,0.62 6.47,0.61 6.16,0.62 6.16,1.23 6.15,1.54 6.16,2.16 6.16,2.46 6.16,2.77 6.16,3.39 6.15,3.69 6.16,4.31 6.16,4.01 6.16,4.31 6.16,3.69 6.15,3.39 6.16,2.77 6.16,1.85 6.16,0.61 6.16,-0.3 6.16,-1.24 6.15,-2.46 6.16,-3.08 6.16,-3.69 6.16,-4.31 6.16,-4.01 6.15,-4.31 6.47,-3.69 6.16,-3.7 6.16,-3.08 6.15,-2.46 6.16,-2.16 6.16,-1.84 6.16,-1.23 6.16,-0.93 6.15,-0.92 6.16,-0.31 6.16,-0.62 h 6.16 l 6.16,-0.3 h 24.63 l 6.16,-0.31 h 425.83 v -15.7 H 1397.56"
             style="fill:#000000;fill-opacity:1;fill-rule:evenodd;stroke:none"
             id="path436" /><path
             d="m 1397.56,3294.6 h 937.88 l 6.16,0.31 h 18.48 l 6.16,0.3 h 6.15 l 6.16,0.31 6.16,0.62 6.16,0.61 6.16,0.93 6.46,0.92 6.16,1.85 6.16,1.85 6.16,2.46 6.15,3.08 6.16,3.39 6.16,3.69 6.16,4 6.16,4.31 6.15,4.01 6.16,4 6.16,3.39 6.16,2.46 6.16,1.85 6.16,0.61 6.15,-0.3 6.16,-1.54 6.16,-2.16 6.16,-3.39 6.16,-3.69 6.15,-4 6.16,-4.31 6.16,-4.01 6.16,-4 6.16,-3.39 6.46,-3.08 6.16,-2.77 6.16,-2.15 6.16,-1.54 6.16,-1.23 6.15,-1.24 6.16,-0.61 6.16,-0.31 6.16,-0.62 h 6.16 l 6.15,-0.3 h 18.48 l 6.16,0.3 h 6.15 l 6.16,0.31 6.16,0.62 6.16,0.61 6.16,0.93 6.15,1.23 6.16,1.54 6.16,2.15 6.16,2.47 6.16,2.77 6.46,3.69 6.16,3.7 6.16,4 6.16,4.31 6.16,4.31 6.15,3.7 6.16,3.38 6.16,2.47 6.16,1.54 6.16,0.61 6.15,-0.3 6.16,-1.54 6.16,-2.47 6.16,-3.38 6.16,-3.7 6.16,-4 6.15,-4.31 6.16,-4.01 6.16,-4 6.16,-3.39 6.16,-3.07 6.15,-2.78 6.16,-1.84 6.16,-1.85 6.16,-1.23 6.46,-0.93 6.16,-0.61 6.16,-0.62 6.16,-0.31 h 6.16 l 6.15,-0.3 h 24.64 l 6.16,-0.31 h 808.25 l 6.16,0.31 h 24.63 l 6.16,0.3 6.15,0.31 6.16,0.62 6.47,0.61 6.16,0.62 6.16,1.23 6.15,1.54 6.16,2.16 6.16,2.46 6.16,2.77 6.16,3.39 6.15,3.69 6.16,4.31 6.16,4.01 6.16,4.31 6.16,3.69 6.15,3.39 6.16,2.77 6.16,1.85 6.16,0.61 6.16,-0.3 6.16,-1.24 6.15,-2.46 6.16,-3.08 6.16,-3.69 6.16,-4.31 6.16,-4.01 6.15,-4.31 6.47,-3.69 6.16,-3.7 6.16,-3.08 6.15,-2.46 6.16,-2.16 6.16,-1.84 6.16,-1.23 6.16,-0.93 6.15,-0.92 6.16,-0.31 6.16,-0.62 h 6.16 l 6.16,-0.3 h 24.63 l 6.16,-0.31 h 425.83 v -15.7 H 1397.56 Z"
             style="fill:none;stroke:#000000;stroke-width:2.30929;stroke-linecap:butt;stroke-linejoin:miter;stroke-miterlimit:10;stroke-dasharray:none;stroke-opacity:1"
             id="path438" /><g
             id="g440"
             transform="scale(10)"><text
               xml:space="preserve"
               transform="matrix(1,0,0,-1,449.356,332.97)"
               style="font-variant:normal;font-weight:bold;font-size:8.31346px;font-family:'Times New Roman';-inkscape-font-specification:Times-Bold;writing-mode:lr-tb;fill:#000000;fill-opacity:1;fill-rule:nonzero;stroke:none"
               id="text446"><tspan
                 x="0"
                 y="0"
                 id="tspan442">x</tspan><tspan
                 x="-305.75 -301.12772 -297.43655 -295.1254 -292.35703 -288.20029"
                 y="-18.012501"
                 sodipodi:role="line"
                 id="tspan444">bel(x)</tspan></text></g><path
             d="m 2167.33,3679.17 h 92.3716 v 153.953 H 2167.33 Z"
             style="fill:#a13f00;fill-opacity:1;fill-rule:evenodd;stroke:none"
             id="path448" /><path
             d="m 2167.33,3679.17 v 153.96 h 92.37 v -153.96"
             style="fill:none;stroke:#000000;stroke-width:18.4743;stroke-linecap:butt;stroke-linejoin:miter;stroke-miterlimit:10;stroke-dasharray:none;stroke-opacity:1"
             id="path450" /><path
             d="m 2444.44,3679.17 h 92.3716 v 153.953 H 2444.44 Z"
             style="fill:#a13f00;fill-opacity:1;fill-rule:evenodd;stroke:none"
             id="path452" /><path
             d="m 2444.44,3679.17 v 153.96 h 92.37 v -153.96"
             style="fill:none;stroke:#000000;stroke-width:18.4743;stroke-linecap:butt;stroke-linejoin:miter;stroke-miterlimit:10;stroke-dasharray:none;stroke-opacity:1"
             id="path454" /><path
             d="m 3568.3,3679.17 h 92.3716 v 153.953 H 3568.3 Z"
             style="fill:#a13f00;fill-opacity:1;fill-rule:evenodd;stroke:none"
             id="path456" /><path
             d="m 3568.3,3679.17 v 153.96 h 92.37 v -153.96"
             style="fill:none;stroke:#000000;stroke-width:18.4743;stroke-linecap:butt;stroke-linejoin:miter;stroke-miterlimit:10;stroke-dasharray:none;stroke-opacity:1"
             id="path458" /><path
             d="m 2167.33,3740.75 h 24.63"
             style="fill:none;stroke:#000000;stroke-width:18.4743;stroke-linecap:butt;stroke-linejoin:miter;stroke-miterlimit:10;stroke-dasharray:none;stroke-opacity:1"
             id="path460" /><path
             d="m 2444.44,3740.75 h 24.64"
             style="fill:none;stroke:#000000;stroke-width:18.4743;stroke-linecap:butt;stroke-linejoin:miter;stroke-miterlimit:10;stroke-dasharray:none;stroke-opacity:1"
             id="path462" /><path
             d="m 3568.3,3740.75 h 24.63"
             style="fill:none;stroke:#000000;stroke-width:18.4743;stroke-linecap:butt;stroke-linejoin:miter;stroke-miterlimit:10;stroke-dasharray:none;stroke-opacity:1"
             id="path464" /></g></g><g
         id="g466"><g
           id="g468"
           clip-path="url(#clipPath472)"><path
             d="M 1390.17,3617.59 V 3271.51 H 4599.78"
             style="fill:none;stroke:#000000;stroke-width:9.23717;stroke-linecap:butt;stroke-linejoin:miter;stroke-miterlimit:10;stroke-dasharray:none;stroke-opacity:1"
             id="path474" /></g></g><g
         id="g476"><g
           id="g478"
           clip-path="url(#clipPath482)"><path
             d="m 1376.32,3564.02 13.85,36.95 13.86,-36.95 h -27.71"
             style="fill:#000000;fill-opacity:1;fill-rule:evenodd;stroke:none"
             id="path484" /><path
             d="m 1376.32,3564.02 13.85,36.95 13.86,-36.95 z"
             style="fill:none;stroke:#000000;stroke-width:9.23717;stroke-linecap:butt;stroke-linejoin:miter;stroke-miterlimit:10;stroke-dasharray:none;stroke-opacity:1"
             id="path486" /><path
             d="m 4546.21,3285.36 36.95,-13.85 -36.95,-13.86 v 27.71"
             style="fill:#000000;fill-opacity:1;fill-rule:evenodd;stroke:none"
             id="path488" /><path
             d="m 4546.21,3285.36 36.95,-13.85 -36.95,-13.86 z"
             style="fill:none;stroke:#000000;stroke-width:9.23717;stroke-linecap:butt;stroke-linejoin:miter;stroke-miterlimit:10;stroke-dasharray:none;stroke-opacity:1"
             id="path490" /><path
             d="m 2413.35,3737.67 c 6.99,16.78 23.38,27.72 41.56,27.72 18.18,0 34.58,-10.94 41.56,-27.72"
             style="fill:#ff0000;fill-opacity:1;fill-rule:evenodd;stroke:none"
             id="path492" /><path
             d="m 2413.35,3737.67 c 6.99,16.78 23.38,27.72 41.56,27.72 18.18,0 34.58,-10.94 41.56,-27.72"
             style="fill:none;stroke:#000000;stroke-width:2.30929;stroke-linecap:butt;stroke-linejoin:miter;stroke-miterlimit:10;stroke-dasharray:none;stroke-opacity:1"
             id="path494" /><path
             d="m 2429.66,3645.61 c 0,-3.91 -3.17,-7.08 -7.08,-7.08 -3.91,0 -7.08,3.17 -7.08,7.08 0,3.91 3.17,7.08 7.08,7.08 3.91,0 7.08,-3.17 7.08,-7.08 z"
             style="fill:none;stroke:#000000;stroke-width:2.30929;stroke-linecap:butt;stroke-linejoin:miter;stroke-miterlimit:10;stroke-dasharray:none;stroke-opacity:1"
             id="path496" /><path
             d="m 2462.92,3645.61 c 0,-3.91 -3.17,-7.08 -7.08,-7.08 -3.92,0 -7.09,3.17 -7.09,7.08 0,3.91 3.17,7.08 7.09,7.08 3.91,0 7.08,-3.17 7.08,-7.08 z"
             style="fill:none;stroke:#000000;stroke-width:2.30929;stroke-linecap:butt;stroke-linejoin:miter;stroke-miterlimit:10;stroke-dasharray:none;stroke-opacity:1"
             id="path498" /><path
             d="m 2495.25,3645.61 c 0,-3.91 -3.17,-7.08 -7.08,-7.08 -3.92,0 -7.09,3.17 -7.09,7.08 0,3.91 3.17,7.08 7.09,7.08 3.91,0 7.08,-3.17 7.08,-7.08 z"
             style="fill:none;stroke:#000000;stroke-width:2.30929;stroke-linecap:butt;stroke-linejoin:miter;stroke-miterlimit:10;stroke-dasharray:none;stroke-opacity:1"
             id="path500" /><path
             d="m 2475.85,3712.43 34.48,17.24 15.09,-1.23"
             style="fill:none;stroke:#000000;stroke-width:2.30929;stroke-linecap:butt;stroke-linejoin:miter;stroke-miterlimit:10;stroke-dasharray:none;stroke-opacity:1"
             id="path502" /><path
             d="m 2435.51,3773.08 h 32.33 l 7.09,-5.23 v 14.16 l -7.09,-4.61 h -32.33"
             style="fill:#000000;fill-opacity:1;fill-rule:evenodd;stroke:none"
             id="path504" /><path
             d="m 2435.51,3773.08 h 32.33 l 7.09,-5.23 v 14.16 l -7.09,-4.61 h -32.33 z"
             style="fill:none;stroke:#000000;stroke-width:2.30929;stroke-linecap:butt;stroke-linejoin:miter;stroke-miterlimit:10;stroke-dasharray:none;stroke-opacity:1"
             id="path506" /><path
             d="m 2450.29,3766.31 h 5.5422 v 4.9265 h -5.5422 z"
             style="fill:#000000;fill-opacity:1;fill-rule:evenodd;stroke:none"
             id="path508" /><path
             d="m 2450.29,3766.31 h 5.5422 v 4.9265 h -5.5422 z"
             style="fill:none;stroke:#000000;stroke-width:2.30929;stroke-linecap:butt;stroke-linejoin:miter;stroke-miterlimit:10;stroke-dasharray:none;stroke-opacity:1"
             id="path510" /><path
             d="m 2413.34,3654.54 h 83.1345 v 83.1345 H 2413.34 Z"
             style="fill:#ff0000;fill-opacity:1;fill-rule:evenodd;stroke:none"
             id="path512" /><path
             d="m 2413.34,3737.68 v -83.14 h 83.14 v 83.14"
             style="fill:none;stroke:#000000;stroke-width:2.30929;stroke-linecap:butt;stroke-linejoin:miter;stroke-miterlimit:10;stroke-dasharray:none;stroke-opacity:1"
             id="path514" /><path
             d="m 2467.54,3707.5 h 14.4717 v 13.2397 H 2467.54 Z"
             style="fill:none;stroke:#000000;stroke-width:2.30929;stroke-linecap:butt;stroke-linejoin:miter;stroke-miterlimit:10;stroke-dasharray:none;stroke-opacity:1"
             id="path516" /><path
             d="m 2475.23,3711.81 40.96,-18.47 14.47,16.01"
             style="fill:none;stroke:#000000;stroke-width:2.30929;stroke-linecap:butt;stroke-linejoin:miter;stroke-miterlimit:10;stroke-dasharray:none;stroke-opacity:1"
             id="path518" /></g></g><g
         id="g520"><g
           id="g522"
           clip-path="url(#clipPath526)"><g
             id="g528"
             transform="scale(10)" /><g
             id="g530"
             transform="scale(10)" /></g></g><g
         id="g532"><g
           id="g534"
           clip-path="url(#clipPath538)"><path
             d="m 1397.56,2886.88 h 3079.06 v 215.534 H 1397.56 Z"
             style="fill:none;stroke:#000000;stroke-width:2.30929;stroke-linecap:butt;stroke-linejoin:miter;stroke-miterlimit:10;stroke-dasharray:none;stroke-opacity:1"
             id="path540" /><path
             d="m 1397.56,2095.25 h 740.52 l 6.16,0.31 6.15,0.31 6.16,0.61 6.16,1.24 6.16,1.84 6.16,2.47 6.15,3.69 6.16,4.31 6.16,4.31 6.16,4.31 6.16,3.08 6.15,1.54 6.16,-0.61 6.16,-2.47 6.16,-3.69 6.16,-4.31 6.15,-4.62 6.47,-4 6.16,-3.08 6.16,-2.16 6.16,-1.54 6.15,-0.61 6.16,-0.62 6.16,-0.31 h 141.94 l 6.16,0.62 6.16,2.15 6.16,5.85 6.16,13.55 6.15,27.71 6.16,47.11 6.16,66.2 6.16,74.82 6.16,63.12 6.16,29.25 6.15,-16.31 6.16,-55.43 6.16,-73.89 6.16,-70.21 6.16,-53.26 6.15,-32.64 6.16,-17.25 6.16,-7.39 6.16,-2.77 6.16,-0.92 6.46,-0.31 h 92.37 l 6.16,0.31 h 6.16 l 6.16,0.31 6.16,0.31 6.15,0.3 6.16,0.62 6.16,0.92 6.16,0.93 6.16,0.92 6.46,1.23 6.16,1.54 6.16,1.54 6.16,1.54 6.16,1.54 6.15,1.23 6.16,1.23 6.16,0.93 6.16,0.61 6.16,0.31 6.15,-0.31 6.16,-0.61 6.16,-0.93 6.16,-0.92 6.16,-1.54 6.16,-1.54 6.15,-1.54 6.16,-1.54 6.16,-1.23 6.16,-1.23 6.16,-1.23 6.15,-0.93 6.16,-0.61 6.16,-0.62 6.16,-0.61 6.46,-0.31 6.16,-0.31 h 6.16 l 6.16,-0.31 h 653.99 l 6.16,0.31 6.16,0.31 6.15,0.61 6.16,0.93 6.16,1.84 6.16,2.78 6.16,3.38 6.16,4.31 6.15,4.62 6.16,4 6.16,3.39 6.16,1.54 6.16,-0.61 6.15,-2.16 6.16,-3.69 6.47,-4.62 6.16,-4.31 6.15,-4.01 6.16,-3.08 6.16,-2.46 6.16,-1.23 6.16,-0.92 6.15,-0.62 6.16,-0.31 h 86.22 l 6.15,0.31 h 6.16 l 6.47,0.31 6.16,0.31 6.16,0.3 6.15,0.62 6.16,0.62 6.16,0.92 6.16,1.23 6.16,1.23 6.15,1.23 6.16,1.54 6.16,1.54 6.16,1.54 6.16,1.23 6.15,1.24 6.16,1.23 6.16,0.61 6.16,0.31 6.16,-0.31 6.16,-0.3 6.15,-0.93 6.16,-1.23 6.16,-1.23 6.16,-1.54 6.16,-1.54 6.15,-1.54 6.47,-1.54 6.16,-1.23 6.16,-0.93 6.15,-1.23 6.16,-0.61 6.16,-0.62 6.16,-0.61 6.16,-0.31 6.15,-0.31 h 6.16 l 6.16,-0.31 h 468.94 v -8.93 H 1397.56"
             style="fill:#000000;fill-opacity:1;fill-rule:evenodd;stroke:none"
             id="path542" /><path
             d="m 1397.56,2095.25 h 740.52 l 6.16,0.31 6.15,0.31 6.16,0.61 6.16,1.24 6.16,1.84 6.16,2.47 6.15,3.69 6.16,4.31 6.16,4.31 6.16,4.31 6.16,3.08 6.15,1.54 6.16,-0.61 6.16,-2.47 6.16,-3.69 6.16,-4.31 6.15,-4.62 6.47,-4 6.16,-3.08 6.16,-2.16 6.16,-1.54 6.15,-0.61 6.16,-0.62 6.16,-0.31 h 141.94 l 6.16,0.62 6.16,2.15 6.16,5.85 6.16,13.55 6.15,27.71 6.16,47.11 6.16,66.2 6.16,74.82 6.16,63.12 6.16,29.25 6.15,-16.31 6.16,-55.43 6.16,-73.89 6.16,-70.21 6.16,-53.26 6.15,-32.64 6.16,-17.25 6.16,-7.39 6.16,-2.77 6.16,-0.92 6.46,-0.31 h 92.37 l 6.16,0.31 h 6.16 l 6.16,0.31 6.16,0.31 6.15,0.3 6.16,0.62 6.16,0.92 6.16,0.93 6.16,0.92 6.46,1.23 6.16,1.54 6.16,1.54 6.16,1.54 6.16,1.54 6.15,1.23 6.16,1.23 6.16,0.93 6.16,0.61 6.16,0.31 6.15,-0.31 6.16,-0.61 6.16,-0.93 6.16,-0.92 6.16,-1.54 6.16,-1.54 6.15,-1.54 6.16,-1.54 6.16,-1.23 6.16,-1.23 6.16,-1.23 6.15,-0.93 6.16,-0.61 6.16,-0.62 6.16,-0.61 6.46,-0.31 6.16,-0.31 h 6.16 l 6.16,-0.31 h 653.99 l 6.16,0.31 6.16,0.31 6.15,0.61 6.16,0.93 6.16,1.84 6.16,2.78 6.16,3.38 6.16,4.31 6.15,4.62 6.16,4 6.16,3.39 6.16,1.54 6.16,-0.61 6.15,-2.16 6.16,-3.69 6.47,-4.62 6.16,-4.31 6.15,-4.01 6.16,-3.08 6.16,-2.46 6.16,-1.23 6.16,-0.92 6.15,-0.62 6.16,-0.31 h 86.22 l 6.15,0.31 h 6.16 l 6.47,0.31 6.16,0.31 6.16,0.3 6.15,0.62 6.16,0.62 6.16,0.92 6.16,1.23 6.16,1.23 6.15,1.23 6.16,1.54 6.16,1.54 6.16,1.54 6.16,1.23 6.15,1.24 6.16,1.23 6.16,0.61 6.16,0.31 6.16,-0.31 6.16,-0.3 6.15,-0.93 6.16,-1.23 6.16,-1.23 6.16,-1.54 6.16,-1.54 6.15,-1.54 6.47,-1.54 6.16,-1.23 6.16,-0.93 6.15,-1.23 6.16,-0.61 6.16,-0.62 6.16,-0.61 6.16,-0.31 6.15,-0.31 h 6.16 l 6.16,-0.31 h 468.94 v -8.93 H 1397.56 Z"
             style="fill:none;stroke:#000000;stroke-width:2.30929;stroke-linecap:butt;stroke-linejoin:miter;stroke-miterlimit:10;stroke-dasharray:none;stroke-opacity:1"
             id="path544" /><path
             d="m 1397.56,2502.3 h 722.04 l 6.16,0.31 h 6.16 l 6.16,0.31 6.16,0.31 6.15,0.92 6.16,1.85 6.16,3.39 6.16,4.92 6.16,7.39 6.15,9.85 6.16,11.7 6.16,12.32 6.16,11.39 6.16,8.62 6.15,4.01 6.16,-1.54 6.16,-6.47 6.16,-10.47 6.16,-12.01 6.15,-12.31 6.47,-10.78 6.16,-8.62 6.16,-5.85 6.16,-4 6.15,-2.47 6.16,-1.54 6.16,-0.61 6.16,-0.31 h 12.31 l 6.16,-0.31 h 86.22 l 6.46,0.31 h 6.16 l 6.16,0.31 6.16,0.31 6.15,1.23 6.16,1.85 6.16,3.38 6.16,5.24 6.16,7.7 6.15,9.85 6.16,11.7 6.16,12.62 6.16,11.09 6.16,8.31 6.16,3.39 6.15,-1.85 6.16,-7.08 6.16,-10.47 6.16,-12.32 6.16,-12.01 6.15,-10.77 6.16,-8.32 6.16,-5.85 6.16,-3.69 6.16,-2.46 6.46,-1.24 6.16,-0.61 6.16,-0.31 h 12.32 l 6.15,-0.31 h 931.73 l 6.15,0.31 h 6.16 l 6.16,0.31 6.16,0.31 6.16,0.92 6.15,1.85 6.16,3.08 6.16,4.92 6.16,7.39 6.16,9.55 6.16,11.7 6.15,12.32 6.16,11.7 6.16,8.62 6.16,4 6.16,-0.92 6.15,-6.47 6.16,-10.16 6.47,-12.32 6.16,-12.01 6.15,-11.08 6.16,-8.62 6.16,-6.16 6.16,-4 6.16,-2.47 6.15,-1.23 6.16,-0.92 6.16,-0.31 h 12.32 l 6.16,-0.31 h 765.14 v -15.7 H 1397.56"
             style="fill:#ff0000;fill-opacity:1;fill-rule:evenodd;stroke:none"
             id="path546" /><path
             d="m 1397.56,2502.3 h 722.04 l 6.16,0.31 h 6.16 l 6.16,0.31 6.16,0.31 6.15,0.92 6.16,1.85 6.16,3.39 6.16,4.92 6.16,7.39 6.15,9.85 6.16,11.7 6.16,12.32 6.16,11.39 6.16,8.62 6.15,4.01 6.16,-1.54 6.16,-6.47 6.16,-10.47 6.16,-12.01 6.15,-12.31 6.47,-10.78 6.16,-8.62 6.16,-5.85 6.16,-4 6.15,-2.47 6.16,-1.54 6.16,-0.61 6.16,-0.31 h 12.31 l 6.16,-0.31 h 86.22 l 6.46,0.31 h 6.16 l 6.16,0.31 6.16,0.31 6.15,1.23 6.16,1.85 6.16,3.38 6.16,5.24 6.16,7.7 6.15,9.85 6.16,11.7 6.16,12.62 6.16,11.09 6.16,8.31 6.16,3.39 6.15,-1.85 6.16,-7.08 6.16,-10.47 6.16,-12.32 6.16,-12.01 6.15,-10.77 6.16,-8.32 6.16,-5.85 6.16,-3.69 6.16,-2.46 6.46,-1.24 6.16,-0.61 6.16,-0.31 h 12.32 l 6.15,-0.31 h 931.73 l 6.15,0.31 h 6.16 l 6.16,0.31 6.16,0.31 6.16,0.92 6.15,1.85 6.16,3.08 6.16,4.92 6.16,7.39 6.16,9.55 6.16,11.7 6.15,12.32 6.16,11.7 6.16,8.62 6.16,4 6.16,-0.92 6.15,-6.47 6.16,-10.16 6.47,-12.32 6.16,-12.01 6.15,-11.08 6.16,-8.62 6.16,-6.16 6.16,-4 6.16,-2.47 6.15,-1.23 6.16,-0.92 6.16,-0.31 h 12.32 l 6.16,-0.31 h 765.14 v -15.7 H 1397.56 Z"
             style="fill:none;stroke:#ff0000;stroke-width:2.30929;stroke-linecap:butt;stroke-linejoin:miter;stroke-miterlimit:10;stroke-dasharray:none;stroke-opacity:1"
             id="path548" /><g
             id="g550"
             transform="scale(10)"><text
               xml:space="preserve"
               transform="matrix(1,0,0,-1,449.356,213.713)"
               style="font-variant:normal;font-weight:bold;font-size:8.31346px;font-family:'Times New Roman';-inkscape-font-specification:Times-Bold;writing-mode:lr-tb;fill:#000000;fill-opacity:1;fill-rule:nonzero;stroke:none"
               id="text560"><tspan
                 x="0"
                 y="0"
                 id="tspan552">x</tspan><tspan
                 x="-305.75 -301.12772 -297.43655 -295.1254 -292.35703 -288.20029"
                 y="-18.012501"
                 sodipodi:role="line"
                 id="tspan554">bel(x)</tspan><tspan
                 x="0"
                 y="-40.027802"
                 id="tspan556">x</tspan><tspan
                 x="-305.75 -301.12772 -298.35934 -294.66815 -292.8392 -288.68246"
                 y="-58.040298"
                 sodipodi:role="line"
                 id="tspan558">p(z|x)</tspan></text></g><path
             d="m 2167.33,2886.88 h 92.3716 v 153.953 H 2167.33 Z"
             style="fill:#a13f00;fill-opacity:1;fill-rule:evenodd;stroke:none"
             id="path562" /><path
             d="m 2167.33,2886.88 v 153.95 h 92.37 v -153.95"
             style="fill:none;stroke:#000000;stroke-width:18.4743;stroke-linecap:butt;stroke-linejoin:miter;stroke-miterlimit:10;stroke-dasharray:none;stroke-opacity:1"
             id="path564" /><path
             d="m 2444.44,2886.88 h 92.3716 v 153.953 H 2444.44 Z"
             style="fill:#a13f00;fill-opacity:1;fill-rule:evenodd;stroke:none"
             id="path566" /><path
             d="m 2444.44,2886.88 v 153.95 h 92.37 v -153.95"
             style="fill:none;stroke:#000000;stroke-width:18.4743;stroke-linecap:butt;stroke-linejoin:miter;stroke-miterlimit:10;stroke-dasharray:none;stroke-opacity:1"
             id="path568" /><path
             d="m 3568.3,2886.88 h 92.3716 v 153.953 H 3568.3 Z"
             style="fill:#a13f00;fill-opacity:1;fill-rule:evenodd;stroke:none"
             id="path570" /><path
             d="m 3568.3,2886.88 v 153.95 h 92.37 v -153.95"
             style="fill:none;stroke:#000000;stroke-width:18.4743;stroke-linecap:butt;stroke-linejoin:miter;stroke-miterlimit:10;stroke-dasharray:none;stroke-opacity:1"
             id="path572" /><path
             d="m 2167.33,2948.46 h 24.63"
             style="fill:none;stroke:#000000;stroke-width:18.4743;stroke-linecap:butt;stroke-linejoin:miter;stroke-miterlimit:10;stroke-dasharray:none;stroke-opacity:1"
             id="path574" /><path
             d="m 2444.44,2948.46 h 24.64"
             style="fill:none;stroke:#000000;stroke-width:18.4743;stroke-linecap:butt;stroke-linejoin:miter;stroke-miterlimit:10;stroke-dasharray:none;stroke-opacity:1"
             id="path576" /><path
             d="m 3568.3,2948.46 h 24.63"
             style="fill:none;stroke:#000000;stroke-width:18.4743;stroke-linecap:butt;stroke-linejoin:miter;stroke-miterlimit:10;stroke-dasharray:none;stroke-opacity:1"
             id="path578" /></g></g><g
         id="g580"><g
           id="g582"
           clip-path="url(#clipPath586)"><path
             d="M 1390.17,2425.02 V 2078.93 H 4599.78"
             style="fill:none;stroke:#000000;stroke-width:9.23717;stroke-linecap:butt;stroke-linejoin:miter;stroke-miterlimit:10;stroke-dasharray:none;stroke-opacity:1"
             id="path588" /></g></g><g
         id="g590"><g
           id="g592"
           clip-path="url(#clipPath596)"><path
             d="m 1376.32,2371.44 13.85,36.95 13.86,-36.95 h -27.71"
             style="fill:#000000;fill-opacity:1;fill-rule:evenodd;stroke:none"
             id="path598" /><path
             d="m 1376.32,2371.44 13.85,36.95 13.86,-36.95 z"
             style="fill:none;stroke:#000000;stroke-width:9.23717;stroke-linecap:butt;stroke-linejoin:miter;stroke-miterlimit:10;stroke-dasharray:none;stroke-opacity:1"
             id="path600" /><path
             d="m 4546.21,2092.79 36.95,-13.86 -36.95,-13.85 v 27.71"
             style="fill:#000000;fill-opacity:1;fill-rule:evenodd;stroke:none"
             id="path602" /><path
             d="m 4546.21,2092.79 36.95,-13.86 -36.95,-13.85 z"
             style="fill:none;stroke:#000000;stroke-width:9.23717;stroke-linecap:butt;stroke-linejoin:miter;stroke-miterlimit:10;stroke-dasharray:none;stroke-opacity:1"
             id="path604" /></g></g><g
         id="g606"><g
           id="g608"
           clip-path="url(#clipPath612)"><path
             d="M 1390.17,2825.3 V 2479.21 H 4599.78"
             style="fill:none;stroke:#000000;stroke-width:9.23717;stroke-linecap:butt;stroke-linejoin:miter;stroke-miterlimit:10;stroke-dasharray:none;stroke-opacity:1"
             id="path614" /></g></g><g
         id="g616"><g
           id="g618"
           clip-path="url(#clipPath622)"><path
             d="m 1376.32,2771.72 13.85,36.95 13.86,-36.95 h -27.71"
             style="fill:#000000;fill-opacity:1;fill-rule:evenodd;stroke:none"
             id="path624" /><path
             d="m 1376.32,2771.72 13.85,36.95 13.86,-36.95 z"
             style="fill:none;stroke:#000000;stroke-width:9.23717;stroke-linecap:butt;stroke-linejoin:miter;stroke-miterlimit:10;stroke-dasharray:none;stroke-opacity:1"
             id="path626" /><path
             d="m 4546.21,2493.07 36.95,-13.86 -36.95,-13.86 v 27.72"
             style="fill:#000000;fill-opacity:1;fill-rule:evenodd;stroke:none"
             id="path628" /><path
             d="m 4546.21,2493.07 36.95,-13.86 -36.95,-13.86 z"
             style="fill:none;stroke:#000000;stroke-width:9.23717;stroke-linecap:butt;stroke-linejoin:miter;stroke-miterlimit:10;stroke-dasharray:none;stroke-opacity:1"
             id="path630" /><path
             d="m 2413.35,2945.38 c 6.99,16.78 23.38,27.71 41.56,27.71 18.18,0 34.58,-10.93 41.56,-27.72"
             style="fill:#ff0000;fill-opacity:1;fill-rule:evenodd;stroke:none"
             id="path632" /><path
             d="m 2413.35,2945.38 c 6.99,16.78 23.38,27.71 41.56,27.71 18.18,0 34.58,-10.93 41.56,-27.72"
             style="fill:none;stroke:#000000;stroke-width:2.30929;stroke-linecap:butt;stroke-linejoin:miter;stroke-miterlimit:10;stroke-dasharray:none;stroke-opacity:1"
             id="path634" /><path
             d="m 2429.66,2853.32 c 0,-3.92 -3.17,-7.09 -7.08,-7.09 -3.91,0 -7.08,3.17 -7.08,7.09 0,3.91 3.17,7.08 7.08,7.08 3.91,0 7.08,-3.17 7.08,-7.08 z"
             style="fill:none;stroke:#000000;stroke-width:2.30929;stroke-linecap:butt;stroke-linejoin:miter;stroke-miterlimit:10;stroke-dasharray:none;stroke-opacity:1"
             id="path636" /><path
             d="m 2462.92,2853.32 c 0,-3.92 -3.17,-7.09 -7.08,-7.09 -3.92,0 -7.09,3.17 -7.09,7.09 0,3.91 3.17,7.08 7.09,7.08 3.91,0 7.08,-3.17 7.08,-7.08 z"
             style="fill:none;stroke:#000000;stroke-width:2.30929;stroke-linecap:butt;stroke-linejoin:miter;stroke-miterlimit:10;stroke-dasharray:none;stroke-opacity:1"
             id="path638" /><path
             d="m 2495.25,2853.32 c 0,-3.92 -3.17,-7.09 -7.08,-7.09 -3.92,0 -7.09,3.17 -7.09,7.09 0,3.91 3.17,7.08 7.09,7.08 3.91,0 7.08,-3.17 7.08,-7.08 z"
             style="fill:none;stroke:#000000;stroke-width:2.30929;stroke-linecap:butt;stroke-linejoin:miter;stroke-miterlimit:10;stroke-dasharray:none;stroke-opacity:1"
             id="path640" /><path
             d="m 2475.85,2920.13 34.48,17.24 15.09,-1.23"
             style="fill:none;stroke:#000000;stroke-width:2.30929;stroke-linecap:butt;stroke-linejoin:miter;stroke-miterlimit:10;stroke-dasharray:none;stroke-opacity:1"
             id="path642" /><path
             d="m 2435.51,2980.79 h 32.33 l 7.09,-5.24 v 14.17 l -7.09,-4.62 h -32.33"
             style="fill:#000000;fill-opacity:1;fill-rule:evenodd;stroke:none"
             id="path644" /><path
             d="m 2435.51,2980.79 h 32.33 l 7.09,-5.24 v 14.17 l -7.09,-4.62 h -32.33 z"
             style="fill:none;stroke:#000000;stroke-width:2.30929;stroke-linecap:butt;stroke-linejoin:miter;stroke-miterlimit:10;stroke-dasharray:none;stroke-opacity:1"
             id="path646" /><path
             d="m 2450.29,2974.01 h 5.5422 v 4.9265 h -5.5422 z"
             style="fill:#000000;fill-opacity:1;fill-rule:evenodd;stroke:none"
             id="path648" /><path
             d="m 2450.29,2974.01 h 5.5422 v 4.9265 h -5.5422 z"
             style="fill:none;stroke:#000000;stroke-width:2.30929;stroke-linecap:butt;stroke-linejoin:miter;stroke-miterlimit:10;stroke-dasharray:none;stroke-opacity:1"
             id="path650" /><path
             d="m 2413.34,2862.25 h 83.1345 v 83.1345 H 2413.34 Z"
             style="fill:#ff0000;fill-opacity:1;fill-rule:evenodd;stroke:none"
             id="path652" /><path
             d="m 2413.34,2945.38 v -83.13 h 83.14 v 83.13"
             style="fill:none;stroke:#000000;stroke-width:2.30929;stroke-linecap:butt;stroke-linejoin:miter;stroke-miterlimit:10;stroke-dasharray:none;stroke-opacity:1"
             id="path654" /><path
             d="m 2467.54,2915.21 h 14.4717 v 13.2397 H 2467.54 Z"
             style="fill:none;stroke:#000000;stroke-width:2.30929;stroke-linecap:butt;stroke-linejoin:miter;stroke-miterlimit:10;stroke-dasharray:none;stroke-opacity:1"
             id="path656" /><path
             d="m 2475.23,2919.52 40.96,-18.48 14.47,16.01"
             style="fill:none;stroke:#000000;stroke-width:2.30929;stroke-linecap:butt;stroke-linejoin:miter;stroke-miterlimit:10;stroke-dasharray:none;stroke-opacity:1"
             id="path658" /></g></g><g
         id="g660"><g
           id="g662"
           clip-path="url(#clipPath666)"><g
             id="g668"
             transform="scale(10)"><text
               xml:space="preserve"
               transform="translate(132.4,198.5)"
               style="font-variant:normal;font-weight:normal;font-size:0.1px;font-family:Arial;-inkscape-font-specification:Arial;writing-mode:lr-tb;fill:#ffbfbf;fill-opacity:1;fill-rule:nonzero;stroke:none"
               id="text678"><tspan
                 x="0 7.4000001 14.8 22.200001 29.6 37 44.400002 51.799999 59.200001 66.599998 74 81.400002 88.800003 96.199997 103.6 111 118.4 125.8 133.2 140.60001 148 155.39999 162.8 170.2 177.60001 185 192.39999 199.8 207.2 214.60001 222 229.39999 236.8 244.2 251.60001 259 266.39999 273.79999 281.20001 288.60001 296 303.39999 310.79999"
                 y="0"
                 sodipodi:role="line"
                 id="tspan670">																																											</tspan><tspan
                 x="0 7.4000001 14.8 22.200001 29.6 37 44.400002 51.799999 59.200001 66.599998 74 81.400002 88.800003 96.199997 103.6 111 118.4 125.8 133.2 140.60001 148 155.39999 162.8 170.2 177.60001 185 192.39999 199.8 207.2 214.60001 222 229.39999 236.8 244.2 251.60001 259 266.39999 273.79999 281.20001 288.60001 296 303.39999 310.79999"
                 y="-7.4000001"
                 sodipodi:role="line"
                 id="tspan672">																																											</tspan><tspan
                 x="0 7.4000001 14.8 22.200001 29.6 37 44.400002 51.799999 59.200001 66.599998 74 81.400002 88.800003 96.199997 103.6 111 118.4 125.8 133.2 140.60001 148 155.39999 162.8 170.2 177.60001 185 192.39999 199.8 207.2 214.60001 222 229.39999 236.8 244.2 251.60001 259 266.39999 273.79999 281.20001 288.60001 296 303.39999 310.79999"
                 y="-14.8"
                 sodipodi:role="line"
                 id="tspan674">																																											</tspan><tspan
                 x="0 7.4000001 14.8 22.200001 29.6 37 44.400002 51.799999 59.200001 66.599998 74 81.400002 88.800003 96.199997 103.6 111 118.4 125.8 133.2 140.60001 148 155.39999 162.8 170.2 177.60001 185 192.39999 199.8 207.2 214.60001 222 229.39999 236.8 244.2 251.60001 259 266.39999 273.79999 281.20001 288.60001 296 303.39999 310.79999"
                 y="-22.200001"
                 sodipodi:role="line"
                 id="tspan676">																																											</tspan></text></g><g
             id="g680"
             transform="scale(10)"><text
               xml:space="preserve"
               transform="translate(132.4,198.3)"
               style="font-variant:normal;font-weight:normal;font-size:0.1px;font-family:Arial;-inkscape-font-specification:Arial;writing-mode:lr-tb;fill:#000000;fill-opacity:1;fill-rule:nonzero;stroke:none"
               id="text690"><tspan
                 x="0 7.4000001 14.8 22.200001 29.6 37 44.400002 51.799999 59.200001 66.599998 74 81.400002 88.800003 96.199997 103.6 111 118.4 125.8 133.2 140.60001 148 155.39999 162.8 170.2 177.60001 185 192.39999 199.8 207.2 214.60001 222 229.39999 236.8 244.2 251.60001 259 266.39999 273.79999 281.20001 288.60001 296 303.39999 310.79999"
                 y="0"
                 sodipodi:role="line"
                 id="tspan682"></tspan><tspan
                 x="0 7.4000001 14.8 22.200001 29.6 37 44.400002 51.799999 59.200001 66.599998 74 81.400002 88.800003 96.199997 103.6 111 118.4 125.8 133.2 140.60001 148 155.39999 162.8 170.2 177.60001 185 192.39999 199.8 207.2 214.60001 222 229.39999 236.8 244.2 251.60001 259 266.39999 273.79999 281.20001 288.60001 296 303.39999 310.79999"
                 y="-7.4000001"
                 sodipodi:role="line"
                 id="tspan684"></tspan><tspan
                 x="0 7.4000001 14.8 22.200001 29.6 37 44.400002 51.799999 59.200001 66.599998 74 81.400002 88.800003 96.199997 103.6 111 118.4 125.8 133.2 140.60001 148 155.39999 162.8 170.2 177.60001 185 192.39999 199.8 207.2 214.60001 222 229.39999 236.8 244.2 251.60001 259 266.39999 273.79999 281.20001 288.60001 296 303.39999 310.79999"
                 y="-14.8"
                 sodipodi:role="line"
                 id="tspan686"></tspan><tspan
                 x="0 7.4000001 14.8 22.200001 29.6 37 44.400002 51.799999 59.200001 66.599998 74 81.400002 88.800003 96.199997 103.6 111 118.4 125.8 133.2 140.60001 148 155.39999 162.8 170.2 177.60001 185 192.39999 199.8 207.2 214.60001 222 229.39999 236.8 244.2 251.60001 259 266.39999 273.79999 281.20001 288.60001 296 303.39999 310.79999"
                 y="-22.200001"
                 sodipodi:role="line"
                 id="tspan688"></tspan></text></g></g></g><g
         id="g692"><g
           id="g694"
           clip-path="url(#clipPath698)"><path
             d="m 1397.56,1693.77 h 3079.06 v 215.534 H 1397.56 Z"
             style="fill:none;stroke:#000000;stroke-width:2.30929;stroke-linecap:butt;stroke-linejoin:miter;stroke-miterlimit:10;stroke-dasharray:none;stroke-opacity:1"
             id="path700" /><path
             d="m 1397.56,1302.43 h 1135.25 l 6.16,0.3 h 6.16 l 6.16,0.31 h 6.46 l 6.16,0.31 6.16,0.31 6.16,0.61 6.16,0.31 6.15,0.62 6.16,0.61 6.16,0.93 6.16,0.61 6.16,0.93 6.15,0.92 6.16,0.92 6.16,0.93 6.16,0.92 6.16,0.92 6.15,0.62 6.16,0.62 6.16,0.61 6.16,0.31 h 12.31 l 6.16,-0.31 6.16,-0.31 6.16,-0.61 6.16,-0.93 6.46,-0.61 6.16,-0.93 6.16,-0.92 6.16,-0.92 6.16,-0.93 6.15,-0.92 6.16,-0.92 6.16,-0.62 6.16,-0.62 6.16,-0.61 6.15,-0.62 6.16,-0.3 6.16,-0.31 6.16,-0.31 h 18.47 l 6.16,0.31 6.16,0.31 6.16,0.92 6.16,0.92 6.15,1.54 6.16,2.16 6.16,2.77 6.16,3.39 6.46,4.61 6.16,5.55 6.16,6.46 6.16,7.39 6.16,8.62 6.15,9.55 6.16,9.85 6.16,10.47 6.16,10.47 6.16,9.54 6.16,8.93 6.15,7.39 6.16,5.85 6.16,3.39 6.16,1.23 6.16,-1.23 6.15,-3.39 6.16,-5.85 6.16,-7.39 6.16,-8.93 6.16,-9.85 6.15,-10.16 6.16,-10.47 6.16,-10.16 6.16,-9.24 6.46,-8.62 6.16,-7.39 6.16,-6.46 6.16,-5.55 6.16,-4.31 6.16,-3.38 6.15,-2.77 6.16,-1.85 6.16,-1.54 6.16,-0.93 6.16,-0.61 6.15,-0.62 h 18.48 l 6.16,0.31 6.15,0.31 6.16,0.31 6.16,0.61 6.16,0.31 6.16,0.62 6.16,0.3 6.15,0.62 6.16,0.62 6.16,0.3 6.47,0.62 6.15,0.62 6.16,0.3 6.16,0.62 6.16,0.31 6.16,0.3 6.15,0.31 h 6.16 l 6.16,0.31 h 12.32 l 6.15,-0.31 h 6.16 l 6.16,-0.31 6.16,-0.3 6.16,-0.62 6.16,-0.31 6.15,-0.61 6.16,-0.31 6.16,-0.62 6.16,-0.61 6.16,-0.62 6.15,-0.31 6.16,-0.61 6.16,-0.31 6.47,-0.62 6.15,-0.3 6.16,-0.31 6.16,-0.62 6.16,-0.3 6.16,-0.31 h 6.16 l 6.15,-0.31 6.16,-0.31 h 6.16 l 6.16,-0.31 h 12.31 l 6.16,-0.3 h 524.37 l 6.15,0.3 h 6.47 l 6.16,0.31 h 6.16 l 6.15,0.31 6.16,0.31 6.16,0.61 6.16,0.31 6.16,0.62 6.15,0.61 6.16,0.93 6.16,0.61 6.16,0.93 6.16,0.92 6.16,0.92 6.15,0.93 6.16,0.92 6.16,0.92 6.16,0.62 6.16,0.62 6.15,0.61 6.16,0.31 h 12.32 l 6.16,-0.31 6.46,-0.31 6.16,-0.61 6.16,-0.93 6.16,-0.61 6.15,-0.93 6.16,-0.92 6.16,-0.92 6.16,-0.93 6.16,-0.92 6.16,-0.62 6.15,-0.92 6.16,-0.62 6.16,-0.61 6.16,-0.31 6.16,-0.31 6.15,-0.3 6.16,-0.31 h 18.48 l 6.15,0.31 h 6.16 l 6.16,0.3 6.16,0.31 6.16,0.31 6.46,0.31 6.16,0.3 6.16,0.62 6.16,0.31 6.16,0.61 6.15,0.62 6.16,0.31 6.16,0.61 6.16,0.62 6.16,0.31 6.15,0.61 6.16,0.31 6.16,0.62 6.16,0.3 6.16,0.31 h 6.15 l 6.16,0.31 h 12.32 l 6.16,-0.31 h 6.16 l 6.15,-0.31 6.16,-0.3 6.16,-0.62 6.16,-0.31 6.46,-0.3 6.16,-0.62 6.16,-0.62 6.16,-0.61 6.16,-0.31 6.15,-0.62 6.16,-0.61 6.16,-0.31 6.16,-0.62 6.16,-0.3 6.15,-0.31 6.16,-0.31 6.16,-0.61 V 1293.5 H 1397.56"
             style="fill:#000000;fill-opacity:1;fill-rule:evenodd;stroke:none"
             id="path702" /><path
             d="m 1397.56,1302.43 h 1135.25 l 6.16,0.3 h 6.16 l 6.16,0.31 h 6.46 l 6.16,0.31 6.16,0.31 6.16,0.61 6.16,0.31 6.15,0.62 6.16,0.61 6.16,0.93 6.16,0.61 6.16,0.93 6.15,0.92 6.16,0.92 6.16,0.93 6.16,0.92 6.16,0.92 6.15,0.62 6.16,0.62 6.16,0.61 6.16,0.31 h 12.31 l 6.16,-0.31 6.16,-0.31 6.16,-0.61 6.16,-0.93 6.46,-0.61 6.16,-0.93 6.16,-0.92 6.16,-0.92 6.16,-0.93 6.15,-0.92 6.16,-0.92 6.16,-0.62 6.16,-0.62 6.16,-0.61 6.15,-0.62 6.16,-0.3 6.16,-0.31 6.16,-0.31 h 18.47 l 6.16,0.31 6.16,0.31 6.16,0.92 6.16,0.92 6.15,1.54 6.16,2.16 6.16,2.77 6.16,3.39 6.46,4.61 6.16,5.55 6.16,6.46 6.16,7.39 6.16,8.62 6.15,9.55 6.16,9.85 6.16,10.47 6.16,10.47 6.16,9.54 6.16,8.93 6.15,7.39 6.16,5.85 6.16,3.39 6.16,1.23 6.16,-1.23 6.15,-3.39 6.16,-5.85 6.16,-7.39 6.16,-8.93 6.16,-9.85 6.15,-10.16 6.16,-10.47 6.16,-10.16 6.16,-9.24 6.46,-8.62 6.16,-7.39 6.16,-6.46 6.16,-5.55 6.16,-4.31 6.16,-3.38 6.15,-2.77 6.16,-1.85 6.16,-1.54 6.16,-0.93 6.16,-0.61 6.15,-0.62 h 18.48 l 6.16,0.31 6.15,0.31 6.16,0.31 6.16,0.61 6.16,0.31 6.16,0.62 6.16,0.3 6.15,0.62 6.16,0.62 6.16,0.3 6.47,0.62 6.15,0.62 6.16,0.3 6.16,0.62 6.16,0.31 6.16,0.3 6.15,0.31 h 6.16 l 6.16,0.31 h 12.32 l 6.15,-0.31 h 6.16 l 6.16,-0.31 6.16,-0.3 6.16,-0.62 6.16,-0.31 6.15,-0.61 6.16,-0.31 6.16,-0.62 6.16,-0.61 6.16,-0.62 6.15,-0.31 6.16,-0.61 6.16,-0.31 6.47,-0.62 6.15,-0.3 6.16,-0.31 6.16,-0.62 6.16,-0.3 6.16,-0.31 h 6.16 l 6.15,-0.31 6.16,-0.31 h 6.16 l 6.16,-0.31 h 12.31 l 6.16,-0.3 h 524.37 l 6.15,0.3 h 6.47 l 6.16,0.31 h 6.16 l 6.15,0.31 6.16,0.31 6.16,0.61 6.16,0.31 6.16,0.62 6.15,0.61 6.16,0.93 6.16,0.61 6.16,0.93 6.16,0.92 6.16,0.92 6.15,0.93 6.16,0.92 6.16,0.92 6.16,0.62 6.16,0.62 6.15,0.61 6.16,0.31 h 12.32 l 6.16,-0.31 6.46,-0.31 6.16,-0.61 6.16,-0.93 6.16,-0.61 6.15,-0.93 6.16,-0.92 6.16,-0.92 6.16,-0.93 6.16,-0.92 6.16,-0.62 6.15,-0.92 6.16,-0.62 6.16,-0.61 6.16,-0.31 6.16,-0.31 6.15,-0.3 6.16,-0.31 h 18.48 l 6.15,0.31 h 6.16 l 6.16,0.3 6.16,0.31 6.16,0.31 6.46,0.31 6.16,0.3 6.16,0.62 6.16,0.31 6.16,0.61 6.15,0.62 6.16,0.31 6.16,0.61 6.16,0.62 6.16,0.31 6.15,0.61 6.16,0.31 6.16,0.62 6.16,0.3 6.16,0.31 h 6.15 l 6.16,0.31 h 12.32 l 6.16,-0.31 h 6.16 l 6.15,-0.31 6.16,-0.3 6.16,-0.62 6.16,-0.31 6.46,-0.3 6.16,-0.62 6.16,-0.62 6.16,-0.61 6.16,-0.31 6.15,-0.62 6.16,-0.61 6.16,-0.31 6.16,-0.62 6.16,-0.3 6.15,-0.31 6.16,-0.31 6.16,-0.61 V 1293.5 H 1397.56 Z"
             style="fill:none;stroke:#000000;stroke-width:2.30929;stroke-linecap:butt;stroke-linejoin:miter;stroke-miterlimit:10;stroke-dasharray:none;stroke-opacity:1"
             id="path704" /><g
             id="g706"
             transform="scale(10)"><text
               xml:space="preserve"
               transform="matrix(1,0,0,-1,449.356,134.43)"
               style="font-variant:normal;font-weight:bold;font-size:8.31346px;font-family:'Times New Roman';-inkscape-font-specification:Times-Bold;writing-mode:lr-tb;fill:#000000;fill-opacity:1;fill-rule:nonzero;stroke:none"
               id="text712"><tspan
                 x="0"
                 y="0"
                 id="tspan708">x</tspan><tspan
                 x="-305.75 -301.12772 -297.43655 -295.1254 -292.35703 -288.20029"
                 y="-18.012501"
                 sodipodi:role="line"
                 id="tspan710">bel(x)</tspan></text></g><path
             d="m 2167.33,1693.77 h 92.3716 v 153.953 H 2167.33 Z"
             style="fill:#a13f00;fill-opacity:1;fill-rule:evenodd;stroke:none"
             id="path714" /><path
             d="m 2167.33,1693.77 v 153.96 h 92.37 v -153.96"
             style="fill:none;stroke:#000000;stroke-width:18.4743;stroke-linecap:butt;stroke-linejoin:miter;stroke-miterlimit:10;stroke-dasharray:none;stroke-opacity:1"
             id="path716" /><path
             d="m 2444.44,1693.77 h 92.3716 v 153.953 H 2444.44 Z"
             style="fill:#a13f00;fill-opacity:1;fill-rule:evenodd;stroke:none"
             id="path718" /><path
             d="m 2444.44,1693.77 v 153.96 h 92.37 v -153.96"
             style="fill:none;stroke:#000000;stroke-width:18.4743;stroke-linecap:butt;stroke-linejoin:miter;stroke-miterlimit:10;stroke-dasharray:none;stroke-opacity:1"
             id="path720" /><path
             d="m 3568.3,1693.77 h 92.3716 v 153.953 H 3568.3 Z"
             style="fill:#a13f00;fill-opacity:1;fill-rule:evenodd;stroke:none"
             id="path722" /><path
             d="m 3568.3,1693.77 v 153.96 h 92.37 v -153.96"
             style="fill:none;stroke:#000000;stroke-width:18.4743;stroke-linecap:butt;stroke-linejoin:miter;stroke-miterlimit:10;stroke-dasharray:none;stroke-opacity:1"
             id="path724" /><path
             d="m 2167.33,1755.35 h 24.63"
             style="fill:none;stroke:#000000;stroke-width:18.4743;stroke-linecap:butt;stroke-linejoin:miter;stroke-miterlimit:10;stroke-dasharray:none;stroke-opacity:1"
             id="path726" /><path
             d="m 2444.44,1755.35 h 24.64"
             style="fill:none;stroke:#000000;stroke-width:18.4743;stroke-linecap:butt;stroke-linejoin:miter;stroke-miterlimit:10;stroke-dasharray:none;stroke-opacity:1"
             id="path728" /><path
             d="m 3568.3,1755.35 h 24.63"
             style="fill:none;stroke:#000000;stroke-width:18.4743;stroke-linecap:butt;stroke-linejoin:miter;stroke-miterlimit:10;stroke-dasharray:none;stroke-opacity:1"
             id="path730" /></g></g><g
         id="g732"><g
           id="g734"
           clip-path="url(#clipPath738)"><path
             d="M 1390.17,1632.19 V 1286.11 H 4599.78"
             style="fill:none;stroke:#000000;stroke-width:9.23717;stroke-linecap:butt;stroke-linejoin:miter;stroke-miterlimit:10;stroke-dasharray:none;stroke-opacity:1"
             id="path740" /></g></g><g
         id="g742"><g
           id="g744"
           clip-path="url(#clipPath748)"><path
             d="m 1376.32,1578.62 13.85,36.95 13.86,-36.95 h -27.71"
             style="fill:#000000;fill-opacity:1;fill-rule:evenodd;stroke:none"
             id="path750" /><path
             d="m 1376.32,1578.62 13.85,36.95 13.86,-36.95 z"
             style="fill:none;stroke:#000000;stroke-width:9.23717;stroke-linecap:butt;stroke-linejoin:miter;stroke-miterlimit:10;stroke-dasharray:none;stroke-opacity:1"
             id="path752" /><path
             d="m 4546.21,1299.96 36.95,-13.85 -36.95,-13.86 v 27.71"
             style="fill:#000000;fill-opacity:1;fill-rule:evenodd;stroke:none"
             id="path754" /><path
             d="m 4546.21,1299.96 36.95,-13.85 -36.95,-13.86 z"
             style="fill:none;stroke:#000000;stroke-width:9.23717;stroke-linecap:butt;stroke-linejoin:miter;stroke-miterlimit:10;stroke-dasharray:none;stroke-opacity:1"
             id="path756" /><path
             d="m 2875.21,1752.27 c 6.99,16.78 23.38,27.72 41.56,27.72 18.18,0 34.57,-10.94 41.56,-27.72"
             style="fill:#ff0000;fill-opacity:1;fill-rule:evenodd;stroke:none"
             id="path758" /><path
             d="m 2875.21,1752.27 c 6.99,16.78 23.38,27.72 41.56,27.72 18.18,0 34.57,-10.94 41.56,-27.72"
             style="fill:none;stroke:#000000;stroke-width:2.30929;stroke-linecap:butt;stroke-linejoin:miter;stroke-miterlimit:10;stroke-dasharray:none;stroke-opacity:1"
             id="path760" /><path
             d="m 2891.52,1660.21 c 0,-3.91 -3.17,-7.08 -7.08,-7.08 -3.91,0 -7.08,3.17 -7.08,7.08 0,3.91 3.17,7.08 7.08,7.08 3.91,0 7.08,-3.17 7.08,-7.08 z"
             style="fill:none;stroke:#000000;stroke-width:2.30929;stroke-linecap:butt;stroke-linejoin:miter;stroke-miterlimit:10;stroke-dasharray:none;stroke-opacity:1"
             id="path762" /><path
             d="m 2924.78,1660.21 c 0,-3.91 -3.17,-7.08 -7.09,-7.08 -3.91,0 -7.08,3.17 -7.08,7.08 0,3.91 3.17,7.08 7.08,7.08 3.92,0 7.09,-3.17 7.09,-7.08 z"
             style="fill:none;stroke:#000000;stroke-width:2.30929;stroke-linecap:butt;stroke-linejoin:miter;stroke-miterlimit:10;stroke-dasharray:none;stroke-opacity:1"
             id="path764" /><path
             d="m 2957.11,1660.21 c 0,-3.91 -3.17,-7.08 -7.09,-7.08 -3.91,0 -7.08,3.17 -7.08,7.08 0,3.91 3.17,7.08 7.08,7.08 3.92,0 7.09,-3.17 7.09,-7.08 z"
             style="fill:none;stroke:#000000;stroke-width:2.30929;stroke-linecap:butt;stroke-linejoin:miter;stroke-miterlimit:10;stroke-dasharray:none;stroke-opacity:1"
             id="path766" /><path
             d="m 2937.71,1727.03 34.48,17.24 15.09,-1.23"
             style="fill:none;stroke:#000000;stroke-width:2.30929;stroke-linecap:butt;stroke-linejoin:miter;stroke-miterlimit:10;stroke-dasharray:none;stroke-opacity:1"
             id="path768" /><path
             d="m 2897.37,1787.69 h 32.33 l 7.08,-5.24 v 14.16 l -7.08,-4.61 h -32.33"
             style="fill:#000000;fill-opacity:1;fill-rule:evenodd;stroke:none"
             id="path770" /><path
             d="m 2897.37,1787.69 h 32.33 l 7.08,-5.24 v 14.16 l -7.08,-4.61 h -32.33 z"
             style="fill:none;stroke:#000000;stroke-width:2.30929;stroke-linecap:butt;stroke-linejoin:miter;stroke-miterlimit:10;stroke-dasharray:none;stroke-opacity:1"
             id="path772" /><path
             d="m 2912.15,1780.91 h 5.5422 v 4.9265 h -5.5422 z"
             style="fill:#000000;fill-opacity:1;fill-rule:evenodd;stroke:none"
             id="path774" /><path
             d="m 2912.15,1780.91 h 5.5422 v 4.9265 h -5.5422 z"
             style="fill:none;stroke:#000000;stroke-width:2.30929;stroke-linecap:butt;stroke-linejoin:miter;stroke-miterlimit:10;stroke-dasharray:none;stroke-opacity:1"
             id="path776" /><path
             d="m 2875.2,1669.14 h 83.1345 v 83.1345 H 2875.2 Z"
             style="fill:#ff0000;fill-opacity:1;fill-rule:evenodd;stroke:none"
             id="path778" /><path
             d="m 2875.2,1752.28 v -83.14 h 83.14 v 83.14"
             style="fill:none;stroke:#000000;stroke-width:2.30929;stroke-linecap:butt;stroke-linejoin:miter;stroke-miterlimit:10;stroke-dasharray:none;stroke-opacity:1"
             id="path780" /><path
             d="m 2929.39,1722.1 h 14.4717 v 13.2397 H 2929.39 Z"
             style="fill:none;stroke:#000000;stroke-width:2.30929;stroke-linecap:butt;stroke-linejoin:miter;stroke-miterlimit:10;stroke-dasharray:none;stroke-opacity:1"
             id="path782" /><path
             d="m 2937.09,1726.41 40.95,-18.47 14.48,16.01"
             style="fill:none;stroke:#000000;stroke-width:2.30929;stroke-linecap:butt;stroke-linejoin:miter;stroke-miterlimit:10;stroke-dasharray:none;stroke-opacity:1"
             id="path784" /></g></g></g></g></svg>
