<?xml version="1.0" encoding="UTF-8" standalone="no"?>
<!-- Created with Inkscape (http://www.inkscape.org/) -->

<svg
   width="18.202337mm"
   height="16.194092mm"
   viewBox="0 0 18.202337 16.194092"
   version="1.1"
   id="svg28658"
   inkscape:version="1.2.1 (1:1.2.1+202210291243+9c6d41e410)"
   sodipodi:docname="lidar.svg"
   xmlns:inkscape="http://www.inkscape.org/namespaces/inkscape"
   xmlns:sodipodi="http://sodipodi.sourceforge.net/DTD/sodipodi-0.dtd"
   xmlns="http://www.w3.org/2000/svg"
   xmlns:svg="http://www.w3.org/2000/svg">
  <sodipodi:namedview
     id="namedview28660"
     pagecolor="#ffffff"
     bordercolor="#666666"
     borderopacity="1.0"
     inkscape:showpageshadow="2"
     inkscape:pageopacity="0.0"
     inkscape:pagecheckerboard="0"
     inkscape:deskcolor="#d1d1d1"
     inkscape:document-units="mm"
     showgrid="false"
     inkscape:zoom="6.0578002"
     inkscape:cx="22.945623"
     inkscape:cy="29.466142"
     inkscape:window-width="1846"
     inkscape:window-height="1016"
     inkscape:window-x="1440"
     inkscape:window-y="27"
     inkscape:window-maximized="1"
     inkscape:current-layer="layer1" />
  <defs
     id="defs28655" />
  <g
     inkscape:label="Layer 1"
     inkscape:groupmode="layer"
     id="layer1"
     transform="translate(-91.529173,-93.931268)">
    <path
       d="m 92.673092,102.10022 c 0.0061,0.33208 -0.225291,0.74243 -0.516825,0.91662 -0.29157,0.17415 -0.532699,0.0461 -0.538766,-0.28594 -0.0061,-0.33208 0.225432,-0.74243 0.516826,-0.91659 0.291569,-0.17419 0.532839,-0.0462 0.538765,0.28591"
       style="fill:#bcbdc0;fill-opacity:1;fill-rule:nonzero;stroke:none;stroke-width:0.0352742"
       id="path4276" />
    <path
       d="m 92.673092,102.10022 -0.08818,0.002 1.41e-4,0.0112 c 0.0038,0.29059 -0.217284,0.67918 -0.474004,0.82825 -0.07799,0.0466 -0.147019,0.0655 -0.200882,0.0653 -0.06229,-9.9e-4 -0.105009,-0.0214 -0.14067,-0.0632 -0.03513,-0.0422 -0.06201,-0.11259 -0.06381,-0.21401 l -1.42e-4,-0.0112 c -0.0037,-0.29049 0.217426,-0.67904 0.474004,-0.82815 0.07799,-0.0466 0.147019,-0.0654 0.200882,-0.0653 0.06229,8.1e-4 0.105009,0.0213 0.14067,0.0631 0.03513,0.0423 0.06201,0.1127 0.06381,0.21397 l 0.08818,-0.002 0.08818,-0.002 c -0.0024,-0.13006 -0.03679,-0.24139 -0.104444,-0.32326 -0.06698,-0.0821 -0.168642,-0.12787 -0.276402,-0.12703 -0.09397,1.4e-4 -0.192487,0.0314 -0.291288,0.0904 -0.318836,0.19472 -0.556225,0.61057 -0.559964,0.97944 l 1.41e-4,0.0145 c 0.0023,0.12995 0.03679,0.24142 0.104444,0.32326 0.06709,0.0821 0.168642,0.12787 0.276402,0.12692 0.09411,-1.4e-4 0.192487,-0.0313 0.291288,-0.0903 0.318836,-0.19483 0.556226,-0.61054 0.559965,-0.97955 l -1.42e-4,-0.0144 -0.08818,0.002"
       style="fill:#231f20;fill-opacity:1;fill-rule:nonzero;stroke:none;stroke-width:0.0352742"
       id="path4278" />
    <path
       d="m 93.386672,102.2762 c 0.09273,0.0539 0.151041,0.167 0.153933,0.3282 l -0.867513,-0.50418 c -0.0029,-0.16121 -0.0612,-0.27434 -0.153792,-0.3281 0.260141,0.15119 0.607231,0.35289 0.867372,0.50408"
       style="fill:#bcbdc0;fill-opacity:1;fill-rule:nonzero;stroke:none;stroke-width:0.0352742"
       id="path4280" />
    <path
       d="m 93.386672,102.2762 -0.04423,0.0763 c 0.05817,0.0336 0.106667,0.11104 0.109983,0.25338 l 0.08818,-0.002 0.04434,-0.0763 -0.867478,-0.50405 -0.04437,0.0762 0.08818,-0.002 c -0.0025,-0.18008 -0.07069,-0.32862 -0.197742,-0.40277 -0.04201,-0.0244 -0.09601,-0.0101 -0.120423,0.032 -0.02452,0.0422 -0.01019,0.0962 0.03185,0.12057 0.260282,0.1513 0.607231,0.35289 0.867477,0.50419 l 0.04423,-0.0763 0.04437,-0.0762 c -0.260282,-0.15115 -0.607231,-0.35289 -0.867513,-0.50418 -0.04201,-0.0244 -0.09601,-0.0101 -0.120423,0.032 -0.02452,0.0422 -0.01019,0.0962 0.03185,0.12057 0.05813,0.0336 0.106631,0.11119 0.109947,0.25338 l 0.04395,0.0747 0.867372,0.50419 0.089,-2.5e-4 c 0.02744,-0.0161 0.04409,-0.0459 0.04356,-0.0776 -0.0026,-0.18007 -0.07069,-0.32876 -0.197743,-0.40277 l -0.04437,0.0762"
       style="fill:#231f20;fill-opacity:1;fill-rule:nonzero;stroke:none;stroke-width:0.0352742"
       id="path4282" />
    <path
       d="m 91.771399,103.05899 c 0.09813,0.057 0.234815,0.0474 0.384868,-0.0421 0.291534,-0.17419 0.522892,-0.58454 0.516825,-0.91662 l 0.867513,0.50418 c 0.006,0.33194 -0.225432,0.74229 -0.51686,0.91648 -0.150053,0.0897 -0.286738,0.0992 -0.384974,0.0423 -0.260282,-0.1513 -0.607231,-0.35289 -0.867372,-0.50419"
       style="fill:#bcbdc0;fill-opacity:1;fill-rule:nonzero;stroke:none;stroke-width:0.0352742"
       id="path4284" />
    <path
       d="m 91.771399,103.05899 -0.04434,0.0762 c 0.05453,0.0318 0.117637,0.0477 0.183104,0.0476 0.09411,-1.4e-4 0.192487,-0.0313 0.291288,-0.0903 0.318836,-0.19483 0.556226,-0.61054 0.559965,-0.97955 l -1.42e-4,-0.0144 -0.08818,0.002 -0.04423,0.0762 0.867372,0.50419 0.04437,-0.0762 -0.08818,0.002 1.41e-4,0.0112 c 0.0037,0.29046 -0.21746,0.67905 -0.474145,0.82812 -0.07785,0.0467 -0.146878,0.0655 -0.20074,0.0653 -0.03792,-1.4e-4 -0.0685,-0.009 -0.09453,-0.0237 -0.260282,-0.15115 -0.607231,-0.35289 -0.867513,-0.50404 -0.04201,-0.0245 -0.09601,-0.0102 -0.120565,0.0318 -0.02437,0.0422 -0.01019,0.0961 0.03199,0.12057 l 0.04434,-0.0762 -0.04434,0.0762 c 0.260247,0.15129 0.607196,0.35289 0.867478,0.50418 0.05457,0.0318 0.117672,0.0477 0.18314,0.0476 0.09397,-1.4e-4 0.192486,-0.0314 0.291287,-0.0903 0.318836,-0.19482 0.556085,-0.61054 0.559965,-0.97955 l -1.41e-4,-0.0144 -0.04385,-0.0747 -0.867478,-0.50405 -0.08903,1.4e-4 c -0.02741,0.0161 -0.04395,0.0458 -0.04353,0.0776 l 1.41e-4,0.0112 c 0.0038,0.29059 -0.217284,0.67918 -0.474004,0.82825 -0.07799,0.0466 -0.147019,0.0655 -0.200882,0.0653 -0.03788,-1.4e-4 -0.06836,-0.009 -0.09453,-0.0237 -0.04201,-0.0245 -0.09601,-0.0102 -0.120565,0.0318 -0.02437,0.0422 -0.01019,0.0961 0.03199,0.12057 l 0.04434,-0.0762"
       style="fill:#231f20;fill-opacity:1;fill-rule:nonzero;stroke:none;stroke-width:0.0352742"
       id="path4286" />
    <path
       d="m 92.638771,103.56318 -0.867372,-0.50419 c -0.09273,-0.0539 -0.151005,-0.16688 -0.153898,-0.32809 -0.0061,-0.33208 0.225432,-0.74243 0.516826,-0.91659 0.150052,-0.0897 0.286737,-0.0992 0.384973,-0.0422 l 0.867372,0.50408 c -0.0981,-0.0571 -0.234779,-0.0474 -0.384832,0.0423 -0.291535,0.17415 -0.522893,0.58451 -0.516826,0.91658 0.0029,0.16111 0.06116,0.27423 0.153757,0.3281"
       style="fill:#bcbdc0;fill-opacity:1;fill-rule:nonzero;stroke:none;stroke-width:0.0352742"
       id="path4288" />
    <path
       d="m 92.638771,103.56318 0.04437,-0.0763 -0.867513,-0.50404 c -0.05813,-0.0336 -0.106632,-0.11122 -0.109947,-0.25356 l -1.42e-4,-0.0112 c -0.0037,-0.29049 0.217426,-0.67904 0.474004,-0.82815 0.07799,-0.0466 0.147019,-0.0654 0.200882,-0.0653 0.03788,1.4e-4 0.06832,0.009 0.09453,0.0237 l 0.867477,0.50419 0.06684,0.009 0.05372,-0.0409 0.009,-0.0668 -0.04092,-0.0538 c -0.05457,-0.0318 -0.117672,-0.0476 -0.183104,-0.0475 -0.09411,1.4e-4 -0.192487,0.0314 -0.291287,0.0902 -0.318836,0.19486 -0.556261,0.61058 -0.559965,0.97959 l 1.41e-4,0.0145 v -1.4e-4 c 0.0025,0.18012 0.07069,0.32876 0.197707,0.40277 l 0.06684,0.009 0.05358,-0.0409 0.0091,-0.067 -0.04092,-0.0536 -0.04437,0.0763 0.04437,-0.0763 c -0.05813,-0.0336 -0.106631,-0.11122 -0.110088,-0.25341 v -1.4e-4 -0.011 c -0.0038,-0.29049 0.217284,-0.67904 0.473968,-0.82815 0.07799,-0.0467 0.146878,-0.0654 0.200917,-0.0653 0.03774,0 0.06833,0.009 0.0945,0.0237 l 0.06684,0.009 0.05372,-0.0409 0.009,-0.0668 -0.04092,-0.0538 -0.867513,-0.50418 c -0.05453,-0.0317 -0.117672,-0.0477 -0.183104,-0.0475 -0.09397,1.4e-4 -0.192487,0.0314 -0.291288,0.0904 -0.318836,0.19472 -0.556225,0.61057 -0.559964,0.97944 l 1.41e-4,0.0145 c 0.0026,0.17997 0.07069,0.32862 0.197742,0.40263 l 0.867478,0.50418 0.06684,0.009 0.05358,-0.0409 0.0091,-0.067 -0.04092,-0.0536 -0.04437,0.0763"
       style="fill:#231f20;fill-opacity:1;fill-rule:nonzero;stroke:none;stroke-width:0.0352742"
       id="path4290" />
    <path
       d="m 93.540605,102.6044 c 0.006,0.33194 -0.225432,0.74229 -0.51686,0.91648 -0.291535,0.17416 -0.532805,0.0461 -0.538731,-0.2858 -0.0061,-0.33207 0.225291,-0.74243 0.516826,-0.91658 0.29157,-0.17419 0.532698,-0.0462 0.538765,0.2859"
       style="fill:#bcbdc0;fill-opacity:1;fill-rule:nonzero;stroke:none;stroke-width:0.0352742"
       id="path4292" />
    <path
       d="m 93.540605,102.6044 -0.08818,0.002 1.41e-4,0.0112 c 0.0037,0.29046 -0.21746,0.67905 -0.474145,0.82812 -0.07785,0.0467 -0.146878,0.0655 -0.20074,0.0653 -0.06229,-8.5e-4 -0.105009,-0.0212 -0.140706,-0.0631 -0.03527,-0.0422 -0.06198,-0.1126 -0.06391,-0.21401 v -0.0112 c -0.0038,-0.29049 0.217284,-0.67904 0.473968,-0.82815 0.07799,-0.0466 0.146878,-0.0654 0.200917,-0.0653 0.06226,8.2e-4 0.104833,0.0212 0.14067,0.0631 0.03513,0.0421 0.06201,0.11256 0.06381,0.21398 l 0.08818,-0.002 0.08818,-0.002 c -0.0025,-0.13005 -0.03679,-0.24152 -0.104445,-0.32326 -0.06713,-0.0823 -0.168677,-0.12787 -0.276402,-0.12702 -0.09411,1.4e-4 -0.192487,0.0314 -0.291287,0.0902 -0.318836,0.19486 -0.556261,0.61058 -0.559965,0.97959 l 1.41e-4,0.0145 c 0.0023,0.12996 0.03679,0.24142 0.104303,0.32326 0.06709,0.0821 0.168642,0.12773 0.276544,0.12692 0.09397,-1.4e-4 0.192486,-0.0314 0.291287,-0.0903 0.318836,-0.19482 0.556085,-0.61054 0.559965,-0.97955 l -1.41e-4,-0.0144 -0.08818,0.002"
       style="fill:#231f20;fill-opacity:1;fill-rule:nonzero;stroke:none;stroke-width:0.0352742"
       id="path4294" />
    <path
       d="m 96.515808,99.795206 4.429982,-2.556452 c 0.0528,-0.02342 1.0545,-0.469616 1.92102,0.03404 0.86628,0.503339 5.11161,2.970686 5.33538,3.100466 0.0864,0.0517 1.73193,1.03193 1.3866,3.00046 -0.26349,1.50483 -1.93429,2.50329 -2.23563,2.6773 l -0.0358,0.0205 -0.0365,0.0212 c -0.3012,0.17391 -2.03044,1.13872 -4.62949,1.28655 -3.399331,0.19335 -5.08628,-0.76306 -5.175134,-0.81337 -0.223351,-0.12981 -4.468712,-2.59698 -5.334956,-3.10049 -0.866561,-0.50363 -0.09316,-1.08235 -0.05252,-1.11283 l 4.42709,-2.557435"
       style="fill:#bcbdc0;fill-opacity:1;fill-rule:nonzero;stroke:none;stroke-width:0.0352742"
       id="path4296" />
    <path
       d="m 96.515808,99.795206 0.04409,0.07637 4.429982,-2.556486 -0.0441,-0.07634 0.036,0.0806 c 0.0286,-0.01323 0.4442,-0.19747 0.95347,-0.197046 0.28328,0 0.59387,0.05623 0.8872,0.226677 0.86642,0.50348 5.11161,2.970679 5.33496,3.100459 l 0.0448,-0.0762 -0.0455,0.0758 c 0.0353,0.0209 0.38519,0.22929 0.72452,0.6279 0.33968,0.39907 0.66701,0.98318 0.66701,1.76431 0,0.16357 -0.0145,0.33582 -0.0462,0.51714 -0.12593,0.72384 -0.59612,1.3366 -1.07725,1.78883 -0.48053,0.45222 -0.96787,0.74215 -1.1157,0.82744 l 1.1e-4,-1.4e-4 -0.0358,0.0207 -2.8e-4,1.4e-4 -0.0365,0.0212 1.5e-4,-1.4e-4 c -0.29489,0.17031 -2.01073,1.12809 -4.59037,1.27484 -0.30974,0.0176 -0.60515,0.0256 -0.88625,0.0256 -2.787408,-4.2e-4 -4.168995,-0.78748 -4.240388,-0.82758 l -0.04353,0.0766 0.04437,-0.0762 c -0.223351,-0.12995 -4.468713,-2.59712 -5.335097,-3.1005 -0.293369,-0.17292 -0.364056,-0.33 -0.36515,-0.46175 -8.11e-4,-0.12138 0.06847,-0.24456 0.147972,-0.3391 0.07898,-0.0945 0.162469,-0.15722 0.173333,-0.16523 l -0.05291,-0.0706 0.04423,0.0764 4.426949,-2.557432 -0.04409,-0.07637 -0.04409,-0.07634 -4.427091,2.557332 -0.0087,0.006 c -0.01527,0.0116 -0.110088,0.0824 -0.202963,0.19331 -0.09217,0.11104 -0.188077,0.26551 -0.188889,0.45222 -0.0012,0.20851 0.129665,0.4287 0.452769,0.61417 0.866385,0.50349 5.111605,2.97066 5.335097,3.10061 l 8.12e-4,4.2e-4 c 0.08984,0.0513 1.507125,0.85101 4.327336,0.85059 0.28441,0 0.58325,-0.008 0.8963,-0.026 2.61838,-0.14897 4.36095,-1.12055 4.6685,-1.29816 h 1.4e-4 l 0.0365,-0.0212 -2.8e-4,1.5e-4 0.0358,-0.0205 1.4e-4,-1.5e-4 c 0.15348,-0.0887 0.65256,-0.38499 1.14815,-0.85168 0.49595,-0.46686 0.99295,-1.10566 1.13051,-1.88682 0.0335,-0.19123 0.0487,-0.37381 0.0487,-0.54758 0,-0.83227 -0.35062,-1.45869 -0.70899,-1.87867 -0.35838,-0.42041 -0.72558,-0.63936 -0.76861,-0.66511 l -7.1e-4,-4.3e-4 c -0.22363,-0.12995 -4.46885,-2.597122 -5.33523,-3.100602 -0.32614,-0.189463 -0.66953,-0.250665 -0.97581,-0.250524 -0.55047,2.83e-4 -0.98627,0.195248 -1.02529,0.212356 l -0.008,0.0041 -4.430124,2.556451 0.04409,0.07634"
       style="fill:#231f20;fill-opacity:1;fill-rule:nonzero;stroke:none;stroke-width:0.0352742"
       id="path4298" />
    <path
       d="m 109.63641,102.83316 0.007,2.63212 c 7e-4,0.17098 -0.0141,0.35123 -0.0473,0.54055 -0.26385,1.50483 -1.9345,2.50329 -2.23598,2.6773 l -0.0358,0.0205 -0.0365,0.0212 c -0.3012,0.17391 -2.03044,1.13857 -4.62949,1.28645 -3.399329,0.19344 -5.086277,-0.76297 -5.17499,-0.81327 -0.223492,-0.12981 -3.960811,-2.30184 -4.82709,-2.80532 -0.287408,-0.34365 -0.871923,-1.49795 -0.924409,-1.66579 v -1.79818 c 4.23e-4,0.16974 0.101411,0.35797 0.408959,0.53668 0.866244,0.50351 5.111605,2.97068 5.334956,3.10049 0.08885,0.0503 1.775803,1.00672 5.175134,0.81337 2.59905,-0.14783 4.32829,-1.11264 4.62949,-1.28655 l 0.0365,-0.0212 0.0358,-0.0205 c 0.30134,-0.17401 1.97214,-1.17247 2.23563,-2.6773 0.0335,-0.18933 0.048,-0.36958 0.0476,-0.54056"
       style="fill:#808285;fill-opacity:1;fill-rule:nonzero;stroke:none;stroke-width:0.0352742"
       id="path4300" />
    <path
       d="m 109.63641,102.83316 -0.0882,2.5e-4 0.007,2.63201 v 0 0.008 c 0,0.16343 -0.0145,0.33582 -0.0462,0.51713 -0.12592,0.72385 -0.59612,1.33661 -1.07724,1.78883 -0.4805,0.45212 -0.96784,0.74215 -1.1157,0.82745 l 1.4e-4,-1.4e-4 -0.0357,0.0205 -4.2e-4,2.8e-4 -0.0365,0.0211 h 1.4e-4 c -0.29489,0.1703 -2.01072,1.12809 -4.59037,1.27473 -0.30974,0.0176 -0.60515,0.0258 -0.88625,0.0258 -2.787403,-5.3e-4 -4.16899,-0.78748 -4.240384,-0.82773 l -0.04339,0.0768 0.04423,-0.0762 c -0.223351,-0.12996 -3.960706,-2.30184 -4.82709,-2.80532 l -0.04423,0.0762 0.06765,-0.0565 c -0.133933,-0.15926 -0.353545,-0.53434 -0.540247,-0.88392 -0.09372,-0.17528 -0.180247,-0.3452 -0.246384,-0.48119 -0.06571,-0.1346 -0.112558,-0.24114 -0.121376,-0.27048 l -0.08406,0.0263 h 0.08804 v -1.79818 l -0.02575,-0.0624 -0.06257,-0.0258 -0.06226,0.0259 -0.02564,0.0624 c -5.64e-4,0.20823 0.130476,0.42771 0.452769,0.61279 0.866385,0.50349 5.111605,2.97066 5.335097,3.10061 l 8.12e-4,4.2e-4 c 0.08984,0.0513 1.507125,0.85101 4.327333,0.85059 0.28441,0 0.58311,-0.008 0.8963,-0.026 2.61838,-0.14897 4.36095,-1.12055 4.6685,-1.29816 h 1.4e-4 l 0.0365,-0.0212 -2.8e-4,1.5e-4 0.0358,-0.0205 1.4e-4,-1.5e-4 c 0.15348,-0.0887 0.65256,-0.38499 1.14815,-0.85168 0.49595,-0.46686 0.99295,-1.10566 1.13051,-1.88682 0.0335,-0.19123 0.0487,-0.37381 0.0487,-0.54758 v -0.008 l -0.0258,-0.0624 -0.0624,-0.0258 -0.0624,0.0259 -0.0258,0.0625 0.0882,-2.5e-4 h -0.0882 v 0.008 c 0,0.16343 -0.0145,0.33582 -0.0462,0.51714 -0.12593,0.72384 -0.59612,1.3366 -1.07725,1.78883 -0.48053,0.45222 -0.96787,0.74215 -1.1157,0.82744 l 1.1e-4,-1.4e-4 -0.0358,0.0207 -2.8e-4,1.4e-4 -0.0365,0.0212 1.5e-4,-1.4e-4 c -0.29489,0.17031 -2.01073,1.12809 -4.59037,1.27484 -0.30974,0.0176 -0.60515,0.0256 -0.88625,0.0256 -2.787404,-4.2e-4 -4.168991,-0.78748 -4.240384,-0.82758 l -0.04353,0.0766 0.04437,-0.0762 c -0.223351,-0.12995 -4.468713,-2.59712 -5.335097,-3.1005 -0.292663,-0.17249 -0.363633,-0.32933 -0.36515,-0.46076 -1.41e-4,-0.0486 -0.03954,-0.0881 -0.08832,-0.0879 -0.04864,0 -0.0879,0.0394 -0.0879,0.0882 v 1.79818 l 0.004,0.0263 c 0.0175,0.0546 0.06339,0.15531 0.131041,0.295 0.203245,0.41656 0.581446,1.12619 0.809912,1.40109 l 0.02328,0.0196 c 0.86642,0.50348 4.603739,2.67554 4.82709,2.80531 l 8.11e-4,5.7e-4 c 0.08998,0.0512 1.507126,0.85087 4.327337,0.85044 0.28452,0 0.58325,-0.008 0.8963,-0.0259 2.61852,-0.14896 4.36095,-1.12069 4.6685,-1.29815 h 1.4e-4 l 0.0365,-0.0212 -2.8e-4,1e-4 0.0358,-0.0205 1e-4,-1.4e-4 c 0.15351,-0.0887 0.65256,-0.38499 1.1485,-0.85168 0.49559,-0.46683 0.9926,-1.1058 1.13016,-1.88679 0.0335,-0.19126 0.0487,-0.37384 0.0487,-0.54761 v -0.008 0 l -0.007,-2.63211 c 0,-0.0487 -0.0395,-0.0881 -0.0882,-0.0879 -0.0487,0 -0.0882,0.0394 -0.0882,0.0882 h 0.0882"
       style="fill:#231f20;fill-opacity:1;fill-rule:nonzero;stroke:none;stroke-width:0.0352742"
       id="path4302" />
    <path
       d="m 96.518701,99.795347 4.430269,-2.556593 c 0.0526,-0.02342 1.05435,-0.469616 1.92088,0.03404 0.86638,0.503339 5.11188,2.970686 5.33481,3.100466 0.0871,0.0517 1.73228,1.03193 1.3873,3.00046 -0.26384,1.50497 -1.93456,2.50343 -2.2359,2.67744 l -0.0358,0.0205 -0.0365,0.0212 c -0.30134,0.17401 -2.03044,1.13871 -4.62935,1.2864 -3.399328,0.19335 -5.086277,-0.76306 -5.174989,-0.81337 -0.223492,-0.12981 -4.468854,-2.59698 -5.335097,-3.10049 -0.866561,-0.50363 -0.0933,-1.08221 -0.05266,-1.11283 l 4.42709,-2.557294"
       style="fill:#bcbdc0;fill-opacity:1;fill-rule:nonzero;stroke:none;stroke-width:0.0352742"
       id="path4304" />
    <path
       d="m 96.518701,99.795347 0.04409,0.07634 4.430129,-2.556592 -0.0439,-0.07634 0.0358,0.0806 c 0.0286,-0.01323 0.44434,-0.19747 0.95348,-0.197046 0.28342,0 0.59386,0.05623 0.88719,0.226677 0.86642,0.50348 5.11161,2.970684 5.3351,3.100464 l 0.0441,-0.0762 -0.0452,0.0758 c 0.0353,0.0209 0.38519,0.22929 0.72487,0.6279 0.33968,0.39907 0.66667,0.98318 0.66702,1.76431 0,0.16357 -0.0145,0.33582 -0.0462,0.51714 -0.12628,0.72384 -0.59647,1.33674 -1.0776,1.78883 -0.48046,0.45236 -0.9678,0.74229 -1.11577,0.82758 l 2.5e-4,-1.4e-4 -0.0358,0.0207 -2.8e-4,1.5e-4 -0.0365,0.0211 h 1.4e-4 c -0.29499,0.17031 -2.01087,1.1281 -4.59023,1.2747 -0.30974,0.0176 -0.60515,0.0256 -0.88624,0.0256 -2.787413,-4.2e-4 -4.169001,-0.78748 -4.240394,-0.82758 l -0.04339,0.0766 0.04423,-0.0762 c -0.223351,-0.12995 -4.468713,-2.59712 -5.334992,-3.1005 -0.293474,-0.17292 -0.364162,-0.33014 -0.365255,-0.46189 -9.53e-4,-0.12124 0.06836,-0.24442 0.14783,-0.33882 0.07898,-0.0945 0.162469,-0.15722 0.173228,-0.16522 l -0.0528,-0.0707 0.04409,0.0765 4.42709,-2.557441 -0.04409,-0.07634 -0.04409,-0.07634 -4.42709,2.557441 -0.0087,0.006 c -0.01542,0.0116 -0.110089,0.0823 -0.202963,0.19335 -0.09217,0.1109 -0.187937,0.26537 -0.188889,0.45194 -0.0011,0.20865 0.129806,0.42884 0.453051,0.61431 0.866243,0.50349 5.111605,2.97066 5.334956,3.10061 l 8.11e-4,4.2e-4 c 0.08998,0.0513 1.507267,0.85101 4.327337,0.85059 0.28451,0 0.58324,-0.008 0.89629,-0.026 2.61824,-0.14883 4.36067,-1.12041 4.66836,-1.29802 h 1.4e-4 l 0.0365,-0.0212 -2.8e-4,1.4e-4 0.0357,-0.0205 1.4e-4,-1.4e-4 c 0.15361,-0.0887 0.65227,-0.385 1.14857,-0.85169 0.49559,-0.46686 0.99259,-1.1058 1.13016,-1.88696 0.0335,-0.19123 0.049,-0.37381 0.049,-0.54758 0,-0.83227 -0.35098,-1.45869 -0.70901,-1.87867 -0.35837,-0.42041 -0.72592,-0.63936 -0.7686,-0.66511 l -7e-4,-4.3e-4 c -0.22363,-0.12995 -4.469,-2.597123 -5.33538,-3.100603 -0.326,-0.189463 -0.66952,-0.250665 -0.9758,-0.250524 -0.55048,2.83e-4 -0.98615,0.195248 -1.02529,0.212356 l -0.008,0.0041 -4.430266,2.556593 0.04409,0.07634"
       style="fill:#231f20;fill-opacity:1;fill-rule:nonzero;stroke:none;stroke-width:0.0352742"
       id="path4306" />
    <path
       d="m 109.63958,102.83316 0.001,0.49343 c 3.6e-4,0.17112 -0.0145,0.35123 -0.0476,0.54055 -0.26384,1.50498 -1.9346,2.50358 -2.23594,2.67759 l -0.0358,0.0205 -0.0365,0.0212 c -0.3012,0.17391 -2.03045,1.13858 -4.62935,1.28631 -3.399332,0.19345 -5.086281,-0.76297 -5.174993,-0.81327 -0.223493,-0.12995 -4.468713,-2.59712 -5.335098,-3.1006 -0.307548,-0.17874 -0.408536,-0.36697 -0.408959,-0.53671 l -0.0015,-0.49357 c 5.64e-4,0.16988 0.101552,0.35811 0.409101,0.53682 0.866243,0.50351 5.111605,2.97068 5.335097,3.10049 0.08871,0.0503 1.775661,1.00672 5.174992,0.81337 2.59891,-0.14769 4.32801,-1.11239 4.62935,-1.2864 l 0.0365,-0.0212 0.0358,-0.0205 c 0.30134,-0.17401 1.97206,-1.17247 2.2359,-2.67744 0.0332,-0.18933 0.048,-0.36958 0.0476,-0.54056"
       style="fill:#bcbdc0;fill-opacity:1;fill-rule:nonzero;stroke:none;stroke-width:0.0352742"
       id="path4308" />
    <path
       d="m 109.63958,102.83316 -0.0882,2.5e-4 0.001,0.49346 v 0 0.008 c 0,0.16357 -0.0145,0.33596 -0.0462,0.51727 -0.12628,0.72385 -0.59647,1.33661 -1.0776,1.78884 -0.48049,0.45226 -0.96783,0.74215 -1.11566,0.82758 l 1.4e-4,-1.4e-4 -0.0358,0.0205 -2.8e-4,1.4e-4 -0.0365,0.0212 1.4e-4,-1.4e-4 c -0.29499,0.17045 -2.01072,1.12823 -4.59023,1.27473 -0.30973,0.0176 -0.605,0.0256 -0.8861,0.0256 -2.787547,-3.9e-4 -4.168993,-0.78748 -4.240386,-0.82759 l -0.04353,0.0768 0.04423,-0.0762 c -0.223351,-0.12996 -4.468712,-2.59713 -5.334956,-3.10064 -0.292804,-0.17236 -0.363774,-0.32929 -0.365291,-0.46076 l -0.0014,-0.49343 c -1.42e-4,-0.0488 -0.03968,-0.0882 -0.08847,-0.0881 -0.04864,2.5e-4 -0.08804,0.0398 -0.0879,0.0884 -4.24e-4,0.20823 0.130476,0.42771 0.453051,0.61279 0.866243,0.50349 5.111605,2.97066 5.334956,3.10061 l 8.11e-4,4.2e-4 c 0.08998,0.0513 1.507267,0.85101 4.327345,0.85059 0.28451,0 0.58324,-0.008 0.89629,-0.026 2.61824,-0.14883 4.36067,-1.12041 4.66836,-1.29802 h 1.4e-4 l 0.0365,-0.0212 -2.8e-4,1.4e-4 0.0357,-0.0205 1.4e-4,-1.4e-4 c 0.15361,-0.0887 0.65227,-0.385 1.14857,-0.85169 0.49559,-0.46686 0.99259,-1.1058 1.13016,-1.88696 0.0335,-0.19123 0.049,-0.37381 0.049,-0.54758 v -0.008 l -0.0261,-0.0624 -0.0624,-0.0258 -0.0621,0.0259 -0.0258,0.0625 0.0882,-2.5e-4 h -0.0882 v 0.008 c 0,0.16343 -0.0145,0.33582 -0.0462,0.51714 -0.12628,0.72384 -0.59647,1.33674 -1.0776,1.78883 -0.48046,0.45236 -0.9678,0.74229 -1.11577,0.82758 l 2.5e-4,-1.4e-4 -0.0358,0.0207 -2.8e-4,1.5e-4 -0.0365,0.0211 h 1.4e-4 c -0.29499,0.17031 -2.01087,1.1281 -4.59023,1.2747 -0.30974,0.0176 -0.60515,0.0256 -0.88624,0.0256 -2.787415,-4.2e-4 -4.168897,-0.78748 -4.240396,-0.82758 l -0.04339,0.0766 0.04423,-0.0762 c -0.223351,-0.12995 -4.468713,-2.59712 -5.334992,-3.1005 -0.292769,-0.17249 -0.363739,-0.32947 -0.365255,-0.46076 -1.42e-4,-0.0488 -0.03968,-0.0882 -0.08847,-0.0881 -0.04864,2.5e-4 -0.08804,0.0398 -0.0879,0.0884 l 0.0015,0.4936 c -5.64e-4,0.20805 0.130477,0.42771 0.452911,0.61276 0.866243,0.50348 5.111605,2.97069 5.334956,3.10047 l 8.11e-4,5.6e-4 c 0.08984,0.0512 1.507266,0.85087 4.327475,0.85045 0.28438,0 0.58311,-0.008 0.89616,-0.0259 2.61823,-0.14882 4.36081,-1.12054 4.66836,-1.29801 l 1.4e-4,-1.4e-4 0.0365,-0.0212 -2.9e-4,2.4e-4 0.0358,-0.0207 h 1.4e-4 c 0.15348,-0.0887 0.65253,-0.38499 1.14847,-0.85182 0.49559,-0.46683 0.99259,-1.10566 1.13016,-1.88679 0.0335,-0.19126 0.049,-0.37384 0.049,-0.54775 v -0.008 -1.4e-4 l -0.001,-0.49343 c -3.6e-4,-0.0487 -0.0399,-0.0881 -0.0885,-0.0879 -0.0487,0 -0.0878,0.0394 -0.0878,0.0882 h 0.0882"
       style="fill:#231f20;fill-opacity:1;fill-rule:nonzero;stroke:none;stroke-width:0.0352742"
       id="path4310" />
    <path
       d="m 108.65828,102.50203 c -0.0617,-0.94995 -0.70177,-1.88982 -1.92737,-2.627456 -0.01,-0.203078 -0.19813,-4.063082 -0.21701,-4.448779 -0.007,-0.139301 -0.0542,-0.211509 -0.11273,-0.246784 0.0397,0.02455 0.0937,0.05552 0.13213,0.08187 0.12597,0.08582 0.2975,0.195635 0.4156,0.29183 0.0814,0.06614 0.19192,0.152529 0.26881,0.224067 0.1072,0.09962 0.24731,0.236308 0.3442,0.345978 0.11848,0.134362 0.2666,0.323824 0.35767,0.478011 0.0692,0.11669 0.15281,0.276945 0.21136,0.399455 0.0335,0.0715 0.0713,0.170731 0.0945,0.24636 0.073,0.238001 0.11041,0.370811 0.13722,0.700421 0.005,0.07235 0.009,0.144557 0.0141,0.216871 0.0138,0.210416 0.0272,0.420972 0.0409,0.631388 0.0328,0.499635 0.0649,0.99927 0.0974,1.498908 0.0476,0.73594 0.0952,1.47192 0.14321,2.20786"
       style="fill:#231f20;fill-opacity:1;fill-rule:nonzero;stroke:none;stroke-width:0.0352742"
       id="path4312" />
    <path
       d="m 108.65828,102.50203 0.0878,-0.006 c -0.0642,-0.98728 -0.7284,-1.9506 -1.96974,-2.697164 l -0.0455,0.07549 0.088,-0.0043 c -0.01,-0.203219 -0.19813,-4.063082 -0.217,-4.44878 v 0 c -0.006,-0.155845 -0.0663,-0.265656 -0.15531,-0.318145 -0.0414,-0.02494 -0.0955,-0.01171 -0.12071,0.02963 -0.0252,0.04131 -0.0124,0.09549 0.0288,0.120958 0.0415,0.02565 0.0949,0.05651 0.12896,0.07979 0.1273,0.08667 0.29778,0.1962 0.40963,0.28728 0.0823,0.06685 0.19196,0.152811 0.2643,0.220222 0.10568,0.09838 0.24498,0.234226 0.33813,0.33991 0.11545,0.130623 0.26191,0.318463 0.3479,0.46436 0.0671,0.11341 0.15076,0.272853 0.2072,0.392435 0.0318,0.06603 0.0688,0.16357 0.0903,0.234544 0.073,0.238106 0.10653,0.355925 0.13369,0.681795 l 0.0878,-0.0073 -0.0882,0.0058 c 0.005,0.07221 0.01,0.144557 0.0141,0.216765 0.0138,0.210522 0.0275,0.420937 0.0413,0.631494 0.0324,0.499635 0.0645,0.999129 0.097,1.498756 0.048,0.73609 0.0956,1.47193 0.14321,2.20787 l 0.03,0.0606 0.0638,0.0216 0.0607,-0.0298 0.0215,-0.0639 -0.0878,0.006 0.0878,-0.006 c -0.0476,-0.73594 -0.0952,-1.47178 -0.14321,-2.20786 -0.0325,-0.499495 -0.0649,-0.99913 -0.0974,-1.498765 -0.0134,-0.210557 -0.0272,-0.420972 -0.0406,-0.631529 -0.005,-0.07221 -0.01,-0.144522 -0.0145,-0.21673 v -0.0015 c -0.0272,-0.333595 -0.0674,-0.481186 -0.1411,-0.719293 -0.0247,-0.08032 -0.0624,-0.180925 -0.0995,-0.258072 -0.0593,-0.125261 -0.14391,-0.286609 -0.21446,-0.40665 -0.0962,-0.162441 -0.24592,-0.35342 -0.36744,-0.491346 -0.1006,-0.113973 -0.24169,-0.251193 -0.35041,-0.352362 -0.0813,-0.07563 -0.19248,-0.1623 -0.27308,-0.227877 -0.12459,-0.101168 -0.29708,-0.211262 -0.42149,-0.296274 -0.0431,-0.02935 -0.0977,-0.0605 -0.13544,-0.08392 l -0.0465,0.07496 -0.0455,0.07552 c 0.0281,0.01806 0.0626,0.05291 0.07,0.175529 h 1.1e-4 c 0.0189,0.385697 0.20712,4.245701 0.21703,4.448815 l 0.0426,0.07122 c 1.20977,0.728784 1.82575,1.645264 1.88465,2.557584 l 0.03,0.0606 0.0638,0.0216 0.0607,-0.0298 0.0215,-0.0639 -0.0878,0.006"
       style="fill:#231f20;fill-opacity:1;fill-rule:nonzero;stroke:none;stroke-width:0.0352742"
       id="path4314" />
    <path
       d="m 101.72265,102.66723 h -4.2e-4 v 2.8e-4 h 4.2e-4 v -2.8e-4 m 5.00826,-2.792656 c 2.65365,1.597326 2.56264,4.142486 -0.20339,5.684956 -2.76607,1.54244 -7.159789,1.49806 -9.813581,-0.0992 -2.653757,-1.59728 -2.562822,-4.14259 0.203386,-5.68506 2.766067,-1.542436 7.159825,-1.497954 9.813585,0.09933"
       style="fill:#231f20;fill-opacity:1;fill-rule:nonzero;stroke:none;stroke-width:0.0352742"
       id="path4316" />
    <path
       d="m 101.72374,102.57918 h -4.2e-4 c -0.0477,-6.7e-4 -0.0872,0.0369 -0.0891,0.0845 v 2.9e-4 l 0.0241,0.0643 0.0628,0.0274 h 5.3e-4 c 0.0476,5.6e-4 0.0871,-0.0369 0.0892,-0.0846 v -1.4e-4 c 0.002,-0.0488 -0.0358,-0.0898 -0.0846,-0.0918 -0.0486,-0.002 -0.0897,0.0358 -0.0916,0.0845 v 2.9e-4 l 0.0881,0.004 10e-4,-0.0882 h -5.6e-4 l -9.5e-4,0.0882 0.088,0.004 v -1.4e-4 l -0.088,-0.004 -0.001,0.0882 h 5.3e-4 c 0.0486,5.7e-4 0.0886,-0.0384 0.0892,-0.087 5.3e-4,-0.0487 -0.0384,-0.0886 -0.0871,-0.0892 m 5.00717,-2.704606 -0.0455,0.07552 c 1.27425,0.767796 1.88959,1.742656 1.88959,2.703796 3.6e-4,1.01441 -0.68673,2.04511 -2.09037,2.8286 -1.33404,0.74437 -3.06106,1.11751 -4.78405,1.11723 -1.803779,4.2e-4 -3.602579,-0.40884 -4.941169,-1.21505 -1.27425,-0.76779 -1.88977,-1.74269 -1.889629,-2.70365 -4.24e-4,-1.01444 0.686596,-2.0451 2.09037,-2.828743 1.334039,-0.744233 3.061058,-1.117513 4.784088,-1.117231 1.80378,-2.82e-4 3.60258,0.408979 4.94117,1.215048 l 0.0455,-0.07552 0.0455,-0.07549 c -1.37594,-0.827728 -3.20187,-1.239988 -5.0321,-1.240411 -1.748391,2.82e-4 -3.50116,0.376702 -4.869943,1.139665 -1.43739,0.800742 -2.180459,1.883232 -2.180882,2.982682 1.41e-4,1.04104 0.667584,2.0687 1.975026,2.85481 1.376085,0.82773 3.201905,1.23998 5.032139,1.24027 1.74836,-2.9e-4 3.50112,-0.3766 4.86991,-1.13956 1.43767,-0.80071 2.18053,-1.88334 2.18088,-2.98265 -3.5e-4,-1.04117 -0.66773,-2.06884 -1.97503,-2.854806 l -0.0455,0.07549"
       style="fill:#231f20;fill-opacity:1;fill-rule:nonzero;stroke:none;stroke-width:0.0352742"
       id="path4318" />
    <path
       d="m 95.055561,97.985879 c 0.009,-0.121981 0.03224,-0.283611 0.05372,-0.40404 0.01295,-0.07231 0.04219,-0.166286 0.06078,-0.237542 0.03347,-0.128824 0.09852,-0.295851 0.160529,-0.413529 0.05771,-0.10967 0.136684,-0.255038 0.201975,-0.36044 0.04646,-0.0751 0.116296,-0.170202 0.170159,-0.240188 0.07676,-0.09933 0.18783,-0.225019 0.273792,-0.316663 0.06864,-0.07316 0.164374,-0.166851 0.240705,-0.231898 0.09937,-0.08473 0.233157,-0.196341 0.337319,-0.275181 0.0915,-0.06928 0.21799,-0.155845 0.314427,-0.217964 0.116297,-0.07496 0.27545,-0.168544 0.396543,-0.235214 0.112699,-0.06201 0.266067,-0.13849 0.382364,-0.193484 0.12716,-0.06021 0.299823,-0.133657 0.430582,-0.185723 0.126208,-0.05016 0.296649,-0.111751 0.425502,-0.154786 0.135027,-0.04515 0.317038,-0.100181 0.454392,-0.137926 0.136543,-0.03774 0.320917,-0.07972 0.458413,-0.113938 0.0036,-7.05e-4 0.402363,-0.09524 0.953647,-0.164029 0.46311,-0.05785 0.83182,-0.07196 0.97799,-0.07725 0.49492,-0.01693 0.8649,0.0035 0.98628,0.01023 0.14935,0.0081 0.34818,0.02328 0.49686,0.03845 0.14483,0.01446 0.33718,0.04021 0.48141,0.05926 0.004,3.53e-4 0.44286,0.05962 0.95418,0.186958 0.13531,0.03386 0.31499,0.0829 0.44836,0.123463 0.14081,0.04303 0.32614,0.108647 0.46557,0.155915 0.14593,0.04939 0.33662,0.126708 0.47581,0.192708 0.22719,0.10773 0.52469,0.263328 0.7443,0.385944 0.0586,0.03527 0.10596,0.107483 0.11273,0.246784 0.0189,0.385697 0.20709,4.245701 0.21701,4.448779 -2.65376,-1.597288 -7.047516,-1.64177 -9.813583,-0.09933 -1.358589,0.757595 -2.071746,1.757005 -2.13157,2.767155 0.0146,-0.24802 0.02935,-0.49618 0.04409,-0.74434 0.02882,-0.48806 0.05774,-0.97613 0.08656,-1.46419 0.02959,-0.499927 0.05922,-0.999704 0.08885,-1.49948 0.01242,-0.210557 0.0248,-0.421078 0.03735,-0.631635 0.0038,-0.06519 0.0081,-0.152 0.01295,-0.216871"
       style="fill:#231f20;fill-opacity:1;fill-rule:nonzero;stroke:none;stroke-width:0.0352742"
       id="path4320" />
    <path
       d="m 95.055561,97.985879 0.0879,0.0065 c 0.0085,-0.11669 0.03157,-0.277227 0.05263,-0.394904 0.01118,-0.06381 0.03982,-0.156939 0.05926,-0.230946 0.03115,-0.120147 0.09506,-0.284669 0.153227,-0.394657 0.05732,-0.108717 0.135838,-0.253239 0.198942,-0.355078 0.04342,-0.07013 0.11231,-0.164523 0.165079,-0.232745 0.07358,-0.09549 0.183951,-0.220327 0.268254,-0.310173 0.06614,-0.07069 0.161094,-0.163535 0.233581,-0.225125 0.09862,-0.0842 0.231887,-0.195283 0.333298,-0.272006 0.08871,-0.06713 0.214391,-0.153234 0.30903,-0.214154 0.113686,-0.0733 0.271993,-0.166428 0.391322,-0.232039 0.109947,-0.06064 0.262752,-0.136832 0.377531,-0.191121 0.124445,-0.05884 0.296402,-0.13214 0.425362,-0.183394 0.124021,-0.04932 0.293898,-0.110658 0.420952,-0.153165 0.132946,-0.04445 0.314286,-0.09912 0.449842,-0.136514 0.133544,-0.03704 0.31746,-0.07902 0.456084,-0.113233 9.53e-4,-3.52e-4 0.397249,-0.09418 0.943425,-0.162265 0.4594,-0.0575 0.82508,-0.07161 0.97015,-0.07655 0.13835,-0.0046 0.26692,-0.0067 0.38279,-0.0067 0.29566,3.53e-4 0.50882,0.01199 0.59563,0.01658 0.14772,0.0081 0.34585,0.02363 0.49301,0.0381 0.14219,0.01446 0.33429,0.04021 0.47866,0.05926 0.002,0 0.43831,0.05891 0.94427,0.185193 0.13379,0.03316 0.31277,0.08219 0.44395,0.122052 0.13792,0.04233 0.32282,0.107624 0.46311,0.155175 0.14162,0.04783 0.33107,0.124697 0.46624,0.188792 0.22462,0.106495 0.52141,0.26167 0.73912,0.383192 l 0.043,-0.0769 -0.0455,0.07552 c 0.0281,0.01806 0.0626,0.05291 0.07,0.175529 h 1.1e-4 c 0.0189,0.385697 0.20712,4.245701 0.21703,4.448815 l 0.088,-0.0043 0.0455,-0.07549 c -1.37594,-0.827728 -3.20187,-1.239988 -5.0321,-1.240411 -1.74839,2.82e-4 -3.501159,0.376702 -4.869942,1.139665 -1.374674,0.765998 -2.114039,1.788688 -2.176614,2.838828 l 0.02219,0.0638 0.06064,0.0295 0.06381,-0.022 0.02945,-0.0607 c 0.01464,-0.24815 0.02938,-0.49621 0.04399,-0.74437 0.02893,-0.48806 0.05785,-0.97613 0.08667,-1.4643 0.02959,-0.499774 0.05908,-0.999551 0.08871,-1.499327 0.01256,-0.210557 0.02494,-0.421114 0.03749,-0.63167 0.0038,-0.06586 0.0081,-0.152388 0.0128,-0.215636 l -0.0879,-0.0065 -0.08804,-0.0065 c -0.0048,0.0667 -0.0091,0.153763 -0.01295,0.21814 -0.01242,0.210522 -0.02494,0.421078 -0.03735,0.631635 -0.02963,0.499917 -0.05926,0.999553 -0.08875,1.499468 -0.02892,0.48807 -0.05785,0.9761 -0.08667,1.46416 -0.01475,0.2482 -0.02949,0.49636 -0.04409,0.74452 -0.0029,0.0485 0.03418,0.0902 0.08282,0.0931 0.04864,0.003 0.09037,-0.0341 0.09326,-0.0828 0.05693,-0.9702 0.744056,-1.94633 2.086384,-2.695361 1.334039,-0.744233 3.061062,-1.117513 4.784092,-1.117231 1.80378,-2.82e-4 3.60258,0.408979 4.94117,1.215048 l 0.0906,1.41e-4 c 0.0281,-0.01668 0.0445,-0.04741 0.0429,-0.07993 -0.01,-0.203219 -0.19813,-4.063082 -0.217,-4.44878 v 0 c -0.006,-0.155845 -0.0663,-0.265656 -0.15531,-0.318145 l -0.002,-0.0014 c -0.22141,-0.123744 -0.51958,-0.27959 -0.74956,-0.388589 -0.14318,-0.0678 -0.3351,-0.145863 -0.48529,-0.196659 -0.13873,-0.04691 -0.3242,-0.112527 -0.46804,-0.156621 -0.13559,-0.04127 -0.31581,-0.0903 -0.45277,-0.12452 -0.51672,-0.129107 -0.95722,-0.188016 -0.96409,-0.189075 -0.14413,-0.0187 -0.33676,-0.0448 -0.48406,-0.05961 -0.15048,-0.01517 -0.34984,-0.03069 -0.50085,-0.0388 -0.0877,-0.0049 -0.30522,-0.01693 -0.60529,-0.01693 -0.11767,0 -0.24829,0.0021 -0.38885,0.0067 -0.14716,0.0053 -0.51891,0.01975 -0.986,0.07796 -0.556229,0.06949 -0.956088,0.164029 -0.963813,0.165793 -0.136402,0.03386 -0.321058,0.07619 -0.460635,0.114644 -0.139153,0.03845 -0.321728,0.09348 -0.458941,0.139336 -0.130512,0.04374 -0.301623,0.105472 -0.430053,0.156268 -0.132558,0.05291 -0.305891,0.126743 -0.435803,0.188087 -0.117672,0.05581 -0.271852,0.132563 -0.387054,0.195917 -0.123175,0.0678 -0.282999,0.161771 -0.401799,0.238389 -0.09838,0.06339 -0.225538,0.150483 -0.31993,0.221844 -0.106913,0.08089 -0.24127,0.192919 -0.341305,0.278355 -0.08018,0.06833 -0.176896,0.163006 -0.247866,0.238671 -0.08748,0.09341 -0.199365,0.219764 -0.279153,0.323119 -0.05524,0.07164 -0.125785,0.167698 -0.175415,0.247596 -0.06751,0.109 -0.146737,0.255215 -0.205009,0.365696 -0.066,0.125685 -0.131887,0.295181 -0.16783,0.432542 -0.01778,0.06836 -0.04769,0.163147 -0.06229,0.244315 -0.02191,0.123039 -0.04547,0.285763 -0.05496,0.412965 l 0.08804,0.0065"
       style="fill:#231f20;fill-opacity:1;fill-rule:nonzero;stroke:none;stroke-width:0.0352742"
       id="path4322" />
    <path
       d="m 101.72209,102.66737 -0.0139,-5.017168 0.0145,5.017028 h -4.2e-4 l -1.4e-4,1.4e-4"
       style="fill:#231f20;fill-opacity:1;fill-rule:nonzero;stroke:none;stroke-width:0.0352742"
       id="path4324" />
    <path
       d="m 101.72209,102.66737 0.0882,-1.4e-4 -0.0139,-5.01731 -0.0259,-0.0623 -0.0625,-0.02561 -0.0623,0.02603 -0.0256,0.06244 0.0145,5.01703 0.0882,-2.8e-4 10e-4,-0.0881 h -4.2e-4 l -0.0722,0.036 -1.4e-4,1.4e-4 0.0711,0.0521 0.0882,-1.4e-4 -0.0882,1.4e-4 0.0711,0.0522 1e-4,-2.8e-4 -0.0711,-0.0521 -10e-4,0.0882 h 5.3e-4 l 0.0631,-0.0255 0.0261,-0.0628 -0.0145,-5.017204 c -1.4e-4,-0.04864 -0.0397,-0.08805 -0.0884,-0.0879 -0.0486,1.41e-4 -0.0881,0.03968 -0.0879,0.08833 l 0.0139,5.017304 c 1.4e-4,0.038 0.0247,0.0718 0.0609,0.0836 0.0363,0.0117 0.0759,-0.001 0.0984,-0.0317 l -0.0711,-0.0522"
       style="fill:#231f20;fill-opacity:1;fill-rule:nonzero;stroke:none;stroke-width:0.0352742"
       id="path4326" />
    <path
       d="m 101.70815,97.650202 0.0146,5.017168 -1.1e-4,-1.4e-4 z"
       style="fill:#231f20;fill-opacity:1;fill-rule:nonzero;stroke:none;stroke-width:0.0352742"
       id="path4328" />
    <path
       d="m 101.70815,97.650202 -0.0882,2.82e-4 0.0146,5.017166 0.0882,-2.8e-4 0.0725,-0.0503 -1.4e-4,-1.4e-4 -0.0725,0.0503 0.0882,-1.1e-4 -0.0145,-5.0172 -0.0259,-0.0623 -0.0625,-0.02561 -0.0623,0.02603 -0.0256,0.06244 0.0882,-2.82e-4 -0.0882,2.82e-4 0.0145,5.01703 0.0158,0.05 v 1.4e-4 c 0.022,0.0318 0.0621,0.0455 0.0989,0.0339 0.0368,-0.0117 0.0619,-0.0457 0.0617,-0.0845 l -0.0146,-5.017204 c -1.4e-4,-0.04864 -0.0397,-0.08805 -0.0884,-0.0879 -0.0486,1.41e-4 -0.0881,0.03968 -0.0879,0.08847 l 0.0882,-2.82e-4"
       style="fill:#231f20;fill-opacity:1;fill-rule:nonzero;stroke:none;stroke-width:0.0352742"
       id="path4330" />
    <path
       d="m 101.70815,97.650202 0.0146,5.017168 -1.1e-4,1.4e-4 h -4.2e-4 l -1.4e-4,-1.4e-4 c -0.004,-1.50512 -0.01,-3.512053 -0.0139,-5.017168"
       style="fill:#231f20;fill-opacity:1;fill-rule:nonzero;stroke:none;stroke-width:0.0352742"
       id="path4332" />
    <path
       d="m 101.70815,97.650202 -0.0882,2.82e-4 0.0146,5.017166 0.0882,-2.8e-4 -0.0711,-0.0521 -1.4e-4,1.4e-4 0.0711,0.0521 10e-4,-0.088 -5.6e-4,-1.4e-4 -9.5e-4,0.0882 0.0723,-0.0503 v -1.1e-4 l -0.0725,0.0503 0.0882,-1.4e-4 c -0.004,-1.50522 -0.01,-3.512195 -0.0139,-5.01731 l -0.0259,-0.0623 -0.0625,-0.02561 -0.0623,0.02603 -0.0256,0.06244 0.0882,-2.82e-4 -0.0882,1.41e-4 c 0.004,1.505256 0.01,3.512201 0.0139,5.017311 l 0.0158,0.05 v 1.4e-4 l 0.0714,0.0379 h 5.3e-4 l 0.0721,-0.0359 1.4e-4,-1.4e-4 0.0171,-0.0525 -0.0146,-5.017204 c -1.4e-4,-0.04864 -0.0397,-0.08805 -0.0884,-0.0879 -0.0486,1.41e-4 -0.0881,0.03968 -0.0879,0.08833 l 0.0882,-1.41e-4"
       style="fill:#231f20;fill-opacity:1;fill-rule:nonzero;stroke:none;stroke-width:0.0352742"
       id="path4334" />
    <path
       d="m 94.785755,102.54239 c 0.01972,-0.33374 0.03954,-0.66758 0.05926,-1.00146 0.02384,-0.40235 0.04769,-0.80473 0.07139,-1.20707 0.02959,-0.499922 0.05922,-0.999699 0.08885,-1.499475 0.01242,-0.210557 0.0248,-0.421078 0.03735,-0.631635 0.0038,-0.06519 0.0081,-0.152 0.01295,-0.216871 0.0054,-0.07358 0.01224,-0.17186 0.02522,-0.244456 0.02148,-0.120287 0.05647,-0.279448 0.08928,-0.397126 0.02109,-0.07567 0.05538,-0.174999 0.08709,-0.246784 0.05443,-0.123745 0.133933,-0.285798 0.199506,-0.404005 0.08557,-0.154469 0.229277,-0.342979 0.340317,-0.480198 0.09108,-0.112739 0.223104,-0.255215 0.331958,-0.350705 0.105397,-0.0926 0.245785,-0.216341 0.355873,-0.303153 0.08903,-0.07041 0.21164,-0.159972 0.307548,-0.220716 0.124551,-0.07912 0.29157,-0.183571 0.420106,-0.256167 0.111605,-0.06325 0.262646,-0.144275 0.379753,-0.196482 0.135979,-0.06064 0.31485,-0.147309 0.454286,-0.199269 0.255732,-0.09563 0.599788,-0.216271 0.862117,-0.291759 0.375485,-0.108295 0.84395,-0.199657 0.976084,-0.219764 0.288927,-0.04374 0.675847,-0.09136 0.966567,-0.120993 0.14853,-0.01517 0.34751,-0.02575 0.49686,-0.02822 0.14801,-0.0025 0.34543,-0.0074 0.49344,-0.006 0.14769,0.0018 0.34444,0.01129 0.49203,0.01623 0.14744,0.0046 0.34349,0.02293 0.49037,0.03739 0.28825,0.02893 0.67019,0.09101 0.95583,0.139689 0.14152,0.02434 0.32738,0.0709 0.46738,0.102651 0.14204,0.03245 0.32998,0.0829 0.46832,0.128401 0.2545,0.08431 0.59111,0.204771 0.83982,0.304388 0.12925,0.05168 0.29665,0.132422 0.42078,0.19567 0.12981,0.066 0.29982,0.159973 0.42508,0.234509 -0.1036,-0.0624 -0.24236,-0.0088 -0.25337,-0.0044 -2.35245,-1.415904 -6.246987,-1.455412 -8.698909,-0.08805 -2.451888,1.367189 -2.532628,3.623415 -0.180212,5.03924 2.352311,1.4158 6.246991,1.4552 8.698871,0.088 2.45193,-1.367326 2.5327,-3.62341 0.18025,-5.039244 0.011,-0.0044 0.14977,-0.05799 0.25337,0.0044 0.13587,0.0879 0.32078,0.200503 0.44921,0.299026 0.16546,0.126884 0.38151,0.3034 0.52867,0.451132 0.0894,0.08956 0.20226,0.215495 0.28357,0.312502 0.0576,0.06865 0.12525,0.167274 0.17869,0.239094 0.0743,0.0999 0.15418,0.246219 0.21238,0.356595 0.0617,0.11796 0.13087,0.282482 0.17178,0.409225 0.0455,0.14043 0.0889,0.332785 0.11358,0.478153 0.0116,0.06614 0.0187,0.155422 0.0236,0.222268 l 0.005,0.08445 c 0.007,0.102685 0.0134,0.205194 0.0201,0.307845 0.0159,0.241845 0.0314,0.483797 0.0473,0.725748 0.0741,1.145626 0.14815,2.291366 0.22293,3.436986 0.0593,0.9173 -0.42081,1.84408 -1.43411,2.60704 -0.20942,0.15764 -0.44159,0.30823 -0.69665,0.45046 -2.76607,1.54244 -7.159793,1.49806 -9.813585,-0.0992 -1.350441,-0.81284 -1.990159,-1.87123 -1.928184,-2.91791"
       style="fill:#231f20;fill-opacity:1;fill-rule:nonzero;stroke:none;stroke-width:0.0352742"
       id="path4336" />
    <path
       d="m 94.785755,102.54239 0.08804,0.005 c 0.01972,-0.33387 0.03958,-0.66761 0.05926,-1.00149 0.0237,-0.40235 0.04755,-0.80469 0.07139,-1.20718 0.02959,-0.499776 0.05908,-0.999553 0.08871,-1.499329 0.01256,-0.210557 0.02494,-0.421114 0.03749,-0.63167 0.0038,-0.06586 0.0081,-0.152388 0.0128,-0.215636 0.0052,-0.07344 0.01242,-0.170449 0.02413,-0.235496 0.02092,-0.117113 0.05566,-0.275287 0.08734,-0.388837 0.01972,-0.07111 0.05362,-0.168791 0.08296,-0.234932 0.05319,-0.120852 0.132134,-0.281918 0.195909,-0.396844 0.08021,-0.145227 0.222116,-0.332361 0.331675,-0.467394 0.08776,-0.108717 0.218519,-0.249535 0.321729,-0.340086 0.105114,-0.09246 0.245114,-0.215636 0.352169,-0.30012 0.08681,-0.06861 0.208324,-0.157362 0.300106,-0.215495 0.124162,-0.0787 0.290723,-0.182725 0.416402,-0.253945 0.109947,-0.06215 0.26,-0.142617 0.372275,-0.192637 0.137672,-0.06145 0.315944,-0.14759 0.449065,-0.197187 0.254356,-0.09493 0.597566,-0.215213 0.855944,-0.289643 0.368959,-0.106531 0.838554,-0.198246 0.964762,-0.217294 0.286879,-0.04339 0.673229,-0.09101 0.962159,-0.120288 0.14497,-0.01482 0.3431,-0.0254 0.48956,-0.02787 0.12966,-0.0021 0.29612,-0.0063 0.43333,-0.0063 l 0.0577,3.53e-4 c 0.14483,0.0018 0.34145,0.01129 0.48998,0.01587 0.14304,0.0046 0.33842,0.02293 0.48445,0.03739 0.28384,0.02857 0.66497,0.0903 0.94991,0.138984 0.13598,0.02293 0.32131,0.06949 0.46254,0.101592 0.13915,0.03175 0.32614,0.08184 0.46021,0.125931 0.2527,0.0836 0.58864,0.203961 0.83471,0.302625 0.12455,0.04988 0.29115,0.130094 0.41365,0.192355 0.12744,0.06476 0.29679,0.158596 0.41997,0.231792 0.0419,0.0248 0.0958,0.01129 0.1207,-0.03062 0.0251,-0.04173 0.0116,-0.0956 -0.0302,-0.120817 -0.0557,-0.03337 -0.11436,-0.04258 -0.16424,-0.04258 -0.0875,3.88e-4 -0.15527,0.02741 -0.16645,0.03154 l 0.0319,0.08226 0.0455,-0.07563 c -1.22191,-0.734955 -2.84187,-1.100405 -4.46568,-1.100757 -1.55118,3.52e-4 -3.106389,0.334054 -4.321662,1.011334 -1.27605,0.710722 -1.937849,1.673342 -1.938272,2.652647 1.41e-4,0.927345 0.594709,1.84132 1.755556,2.539094 1.221763,0.73485 2.841838,1.10055 4.465678,1.10083 1.55119,-2.8e-4 3.10625,-0.33402 4.32166,-1.01127 1.27605,-0.710857 1.93785,-1.673336 1.93824,-2.652641 -1.4e-4,-0.927486 -0.59467,-1.841462 -1.75552,-2.539237 l -0.0455,0.07563 0.0318,0.08212 c 0.003,-0.0014 0.053,-0.01982 0.10278,-0.01954 l 0.0733,0.01736 0.0455,-0.07552 -0.0479,0.07401 c 0.13736,0.08872 0.32117,0.201032 0.44353,0.295005 0.16342,0.125261 0.3781,0.300931 0.51986,0.443301 0.0866,0.08692 0.19884,0.211897 0.27848,0.306998 0.0532,0.06339 0.12071,0.161348 0.17542,0.235073 0.0683,0.09161 0.14811,0.236166 0.20472,0.344743 0.0587,0.112315 0.12748,0.275039 0.16593,0.395468 0.0434,0.13408 0.0875,0.324918 0.11146,0.466018 0.01,0.05979 0.0176,0.147838 0.0219,0.213732 v -5.65e-4 l 0.006,0.08448 c 0.007,0.102509 0.0134,0.20516 0.0205,0.307669 0.0152,0.241986 0.0314,0.483797 0.0466,0.725748 0.0744,1.145768 0.14814,2.291358 0.22292,3.436988 0.003,0.0488 0.005,0.0974 0.005,0.14621 -3.5e-4,0.83309 -0.46173,1.67458 -1.40391,2.38477 -0.20596,0.15503 -0.43485,0.30354 -0.68646,0.44383 -1.33404,0.74437 -3.06106,1.11751 -4.78405,1.11723 -1.803783,4.2e-4 -3.602583,-0.40884 -4.941173,-1.21505 -1.27425,-0.76779 -1.88977,-1.74269 -1.889629,-2.70365 0,-0.0445 0.0014,-0.0889 0.004,-0.13338 l -0.08804,-0.005 -0.08804,-0.005 c -0.0028,0.0479 -0.0043,0.0959 -0.0043,0.14385 1.41e-4,1.04104 0.667584,2.0687 1.975026,2.85481 1.376085,0.82773 3.201905,1.23998 5.032136,1.24027 1.74836,-2.9e-4 3.50112,-0.3766 4.86991,-1.13956 0.2582,-0.144 0.49382,-0.29681 0.7067,-0.45706 0.97294,-0.73168 1.47418,-1.62431 1.47418,-2.52559 0,-0.0525 -0.002,-0.10515 -0.005,-0.15764 -0.0748,-1.14563 -0.1485,-2.29122 -0.22293,-3.436987 -0.0155,-0.241951 -0.0314,-0.483797 -0.0469,-0.725748 -0.007,-0.102651 -0.0134,-0.20516 -0.0201,-0.307704 l -0.006,-0.08445 v -5.64e-4 c -0.005,-0.06794 -0.012,-0.158456 -0.024,-0.230946 -0.0261,-0.149495 -0.0702,-0.343649 -0.11711,-0.490252 -0.0434,-0.133128 -0.11287,-0.299414 -0.17777,-0.423159 -0.0586,-0.111892 -0.13933,-0.260153 -0.21951,-0.368201 -0.0521,-0.07013 -0.12014,-0.169355 -0.18187,-0.243186 -0.0831,-0.09909 -0.19661,-0.225725 -0.28882,-0.31818 -0.15252,-0.152953 -0.36994,-0.33028 -0.53735,-0.458717 -0.13461,-0.103179 -0.3205,-0.216059 -0.45496,-0.303259 l -0.002,-0.0015 c -0.0557,-0.03337 -0.11436,-0.04258 -0.16424,-0.04258 -0.0875,3.88e-4 -0.15527,0.02755 -0.16645,0.03154 -0.0314,0.01214 -0.0532,0.04092 -0.0561,0.07454 -0.003,0.03365 0.0135,0.06575 0.0425,0.08325 1.12762,0.679573 1.67023,1.540672 1.67009,2.388084 4.3e-4,0.894292 -0.60543,1.804952 -1.84783,2.498599 -1.18042,0.65865 -2.70987,0.98922 -4.2357,0.98893 -1.59738,4.3e-4 -3.190468,-0.36209 -4.374737,-1.07546 -1.127654,-0.679607 -1.67037,-1.540812 -1.670123,-2.388082 -3.88e-4,-0.894293 0.605432,-1.805094 1.847725,-2.498601 1.180564,-0.658831 2.709835,-0.989358 4.235835,-0.989005 1.59735,-3.53e-4 3.1903,0.362274 4.37474,1.075535 l 0.0773,0.0066 c 0.003,-0.0014 0.053,-0.01982 0.10278,-0.01954 l 0.0733,0.01736 0.0669,0.0099 0.0543,-0.04025 0.01,-0.06681 -0.0403,-0.05429 c -0.12734,-0.07552 -0.29806,-0.170026 -0.43019,-0.237295 -0.12565,-0.06378 -0.29404,-0.145227 -0.42798,-0.19881 -0.25132,-0.100852 -0.5886,-0.221492 -0.8449,-0.306152 -0.14247,-0.04727 -0.33164,-0.09771 -0.47644,-0.130518 -0.13876,-0.03175 -0.32518,-0.07866 -0.47206,-0.103708 -0.28646,-0.04868 -0.6691,-0.111117 -0.96205,-0.140748 -0.1474,-0.01446 -0.3443,-0.0328 -0.49615,-0.03774 -0.1466,-0.0049 -0.34363,-0.01446 -0.49397,-0.01587 l -0.0595,-7.05e-4 c -0.14039,0 -0.30751,0.0042 -0.43637,0.0063 -0.1521,0.0025 -0.35217,0.01341 -0.50427,0.02857 -0.29241,0.02998 -0.67971,0.07761 -0.970716,0.121699 -0.13806,0.02081 -0.605714,0.112175 -0.987372,0.222233 -0.266491,0.07655 -0.611217,0.197892 -0.868607,0.29384 -0.145644,0.05432 -0.325185,0.141559 -0.459259,0.20135 -0.122081,0.05443 -0.274039,0.136162 -0.387302,0.200221 -0.131323,0.07429 -0.29873,0.178986 -0.423986,0.258496 -0.100035,0.06339 -0.223492,0.153799 -0.314956,0.225866 -0.113121,0.08942 -0.253968,0.213555 -0.359365,0.306152 -0.114638,0.100745 -0.247866,0.244879 -0.342398,0.361568 -0.112558,0.139302 -0.257919,0.329187 -0.348889,0.492757 -0.06723,0.121664 -0.147126,0.28467 -0.203069,0.411307 -0.03404,0.07743 -0.06892,0.178456 -0.09136,0.258636 -0.03376,0.121664 -0.06903,0.282059 -0.09108,0.40524 -0.01421,0.08036 -0.02095,0.179832 -0.02645,0.253557 -0.0048,0.0667 -0.0091,0.153763 -0.01295,0.21814 -0.01242,0.210522 -0.02494,0.421078 -0.03735,0.631635 -0.02963,0.499917 -0.05926,0.999553 -0.08875,1.499462 -0.02381,0.40235 -0.04765,0.8047 -0.0715,1.20705 -0.01972,0.33387 -0.03954,0.66775 -0.05926,1.00149 l 0.08804,0.005"
       style="fill:#231f20;fill-opacity:1;fill-rule:nonzero;stroke:none;stroke-width:0.0352742"
       id="path4338" />
    <path
       d="m 106.1478,95.174601 c 2.35245,1.415834 2.27168,3.671918 -0.18025,5.039249 -2.45188,1.36715 -6.346556,1.32775 -8.698867,-0.088 -2.352416,-1.41583 -2.271676,-3.672056 0.180212,-5.039245 2.451922,-1.367366 6.346455,-1.327858 8.698905,0.08805"
       style="fill:#404041;fill-opacity:1;fill-rule:nonzero;stroke:none;stroke-width:0.0352742"
       id="path4340" />
    <path
       d="m 106.1478,95.174601 -0.0455,0.07552 c 1.12762,0.679573 1.67023,1.540672 1.67009,2.388084 4.3e-4,0.894292 -0.60543,1.804952 -1.84783,2.498605 -1.18042,0.65865 -2.70987,0.98922 -4.2357,0.98893 -1.59738,4.3e-4 -3.190471,-0.36209 -4.37474,-1.07546 -1.127654,-0.679613 -1.67037,-1.540818 -1.670123,-2.388088 -3.88e-4,-0.894293 0.605432,-1.805094 1.847725,-2.498601 1.180564,-0.658831 2.709838,-0.989358 4.235838,-0.989005 1.59735,-3.53e-4 3.1903,0.362274 4.37474,1.075535 l 0.0455,-0.07552 0.0455,-0.07563 c -1.22191,-0.734955 -2.84187,-1.100405 -4.46568,-1.100757 -1.55118,3.52e-4 -3.106385,0.334054 -4.321658,1.011334 -1.27605,0.710722 -1.937849,1.673342 -1.938272,2.652647 1.41e-4,0.927345 0.594709,1.84132 1.755556,2.539095 1.221763,0.73485 2.841834,1.10055 4.465674,1.10083 1.55119,-2.8e-4 3.10625,-0.33402 4.32166,-1.01127 1.27605,-0.710858 1.93785,-1.673337 1.93824,-2.652642 -1.4e-4,-0.927486 -0.59467,-1.841462 -1.75552,-2.539237 l -0.0455,0.07563"
       style="fill:#231f20;fill-opacity:1;fill-rule:nonzero;stroke:none;stroke-width:0.0352742"
       id="path4342" />
    <path
       d="m 108.43218,98.057523 c -0.01,-0.107765 -0.0233,-0.255744 -0.0399,-0.363509 -0.0275,-0.152953 -0.0624,-0.294194 -0.103,-0.425099 0.0155,0.04836 0.0307,0.09785 0.0437,0.148402 0.0437,0.165898 0.0758,0.345589 0.0921,0.538649 0.002,0.02698 0.005,0.06117 0.007,0.101557"
       style="fill:#875647;fill-opacity:1;fill-rule:nonzero;stroke:none;stroke-width:0.0352742"
       id="path4580" />
    <path
       d="m 108.43288,98.071986 c 0,-0.005 -7e-4,-0.0097 -7e-4,-0.01446 0,0.0017 0,0.0033 0,0.0049 7e-4,0.003 7e-4,0.0063 7e-4,0.0095"
       style="fill:#4e6175;fill-opacity:1;fill-rule:nonzero;stroke:none;stroke-width:0.0352742"
       id="path5214" />
    <path
       d="m 108.43218,98.062461 c 0,-0.0016 0,-0.0033 0,-0.0049 -0.002,-0.04039 -0.005,-0.07457 -0.007,-0.101557 0.002,0.03016 0.005,0.06064 0.006,0.0915 7.1e-4,0.0049 7.1e-4,0.0099 7.1e-4,0.01499"
       style="fill:#716774;fill-opacity:1;fill-rule:nonzero;stroke:none;stroke-width:0.0352742"
       id="path5216" />
    <path
       d="m 108.46392,98.58238 c -0.0131,-0.207241 -0.024,-0.386262 -0.031,-0.510394 3.5e-4,0.0065 7.1e-4,0.01323 0.001,0.01996 0,0.0022 0,0.0044 0,0.0066 l 0.0296,0.483797"
       style="fill:#748c64;fill-opacity:1;fill-rule:nonzero;stroke:none;stroke-width:0.0352742"
       id="path5660" />
    <path
       d="m 108.42512,97.955966 c -0.0162,-0.19306 -0.0483,-0.372751 -0.0921,-0.538649 0.036,0.13408 0.0645,0.275885 0.0822,0.424958 0.004,0.03722 0.007,0.07482 0.01,0.112844 0,2.83e-4 0,5.65e-4 0,8.47e-4"
       style="fill:#939358;fill-opacity:1;fill-rule:nonzero;stroke:none;stroke-width:0.0352742"
       id="path5662" />
    <path
       d="m 107.80893,96.327953 c -0.11023,-0.148966 -0.20885,-0.256167 -0.26935,-0.32065 5.3e-4,-5.64e-4 0.001,-9.87e-4 0.002,-0.0015 0.0566,0.06088 0.1145,0.126073 0.17235,0.196623 0.0303,0.03789 0.0624,0.07979 0.0955,0.125543"
       style="fill:#748c64;fill-opacity:1;fill-rule:nonzero;stroke:none;stroke-width:0.0352742"
       id="path5664" />
    <path
       d="m 107.71345,96.20241 c -0.0578,-0.07055 -0.11574,-0.135739 -0.17235,-0.196623 2.5e-4,-2.83e-4 5.3e-4,-4.24e-4 6.7e-4,-7.06e-4 0.0419,0.04381 0.10212,0.110093 0.17168,0.197329"
       style="fill:#939358;fill-opacity:1;fill-rule:nonzero;stroke:none;stroke-width:0.0352742"
       id="path5666" />
    <path
       d="m 108.43429,98.091951 c -7e-4,-0.0067 -0.001,-0.01347 -0.001,-0.01996 0,-0.0032 0,-0.0065 -7e-4,-0.0095 7e-4,0.0057 10e-4,0.01118 10e-4,0.01654 3.5e-4,0.0044 3.5e-4,0.0085 7e-4,0.01295"
       style="fill:#709673;fill-opacity:1;fill-rule:nonzero;stroke:none;stroke-width:0.0352742"
       id="path5668" />
    <path
       d="m 108.43359,98.079005 c -3.6e-4,-0.0054 -7.1e-4,-0.01086 -10e-4,-0.01654 0,-0.0051 0,-0.01005 -7.1e-4,-0.01499 -0.002,-0.03087 -0.004,-0.06134 -0.006,-0.0915 0,-2.82e-4 0,-5.64e-4 0,-8.47e-4 -0.003,-0.03803 -0.006,-0.07563 -0.01,-0.112844 0.009,0.07704 0.0152,0.155986 0.0183,0.23673"
       style="fill:#7e976d;fill-opacity:1;fill-rule:nonzero;stroke:none;stroke-width:0.0352742"
       id="path5670" />
    <path
       d="m 107.53958,96.007303 v 0 c 8.1e-4,-7.05e-4 0.002,-0.0014 0.002,-0.0022 v 0 c -1.4e-4,2.82e-4 -4.2e-4,4.23e-4 -6.7e-4,7.06e-4 -4.2e-4,5.29e-4 -9.9e-4,9.52e-4 -0.002,0.0015"
       style="fill:#609b81;fill-opacity:1;fill-rule:nonzero;stroke:none;stroke-width:0.0352742"
       id="path5682" />
    <path
       d="m 94.70572,102.92463 v 0 c -0.0081,-0.081 -0.01228,-0.1623 -0.01228,-0.24361 0,0.0813 0.0041,0.16258 0.01228,0.24361"
       style="fill:#8d8a60;fill-opacity:1;fill-rule:nonzero;stroke:none;stroke-width:0.0352742"
       id="path5714" />
    <path
       d="m 94.698418,102.52574 c 0.0044,-0.074 0.0087,-0.14787 0.01309,-0.2217 v 0 c -0.0044,0.0738 -0.0087,0.14769 -0.01309,0.2217"
       style="fill:#8d8a60;fill-opacity:1;fill-rule:nonzero;stroke:none;stroke-width:0.0352742"
       id="path5716" />
    <path
       d="m 108.28932,97.268915 c -0.12734,-0.395857 -0.31669,-0.715131 -0.48039,-0.940962 0.14716,0.198669 0.3146,0.471804 0.43982,0.817499 0.0141,0.04011 0.0279,0.08131 0.0406,0.123463"
       style="fill:#8d8a60;fill-opacity:1;fill-rule:nonzero;stroke:none;stroke-width:0.0352742"
       id="path5732" />
    <path
       d="m 108.33306,97.417317 c -0.0131,-0.05055 -0.0282,-0.10004 -0.0437,-0.148402 -0.0127,-0.04215 -0.0265,-0.08336 -0.0406,-0.123463 0.031,0.08614 0.06,0.176798 0.0843,0.271865"
       style="fill:#b79453;fill-opacity:1;fill-rule:nonzero;stroke:none;stroke-width:0.0352742"
       id="path5734" />
    <path
       d="m 108.60113,100.70685 c -0.0201,-0.3107 -0.0462,-0.720101 -0.0723,-1.130173 0.0113,0.172389 0.0226,0.338711 0.0325,0.488343 l 0.0406,0.63993 c -3.5e-4,5.3e-4 -3.5e-4,0.001 -7.1e-4,0.002"
       style="fill:#939975;fill-opacity:1;fill-rule:nonzero;stroke:none;stroke-width:0.0352742"
       id="path5742" />
    <path
       d="m 108.60184,100.70495 -0.0406,-0.63993 c 0.0247,0.36873 0.0427,0.6351 0.0427,0.6351 0,0 -7.1e-4,0.002 -0.002,0.005"
       style="fill:#a69b6d;fill-opacity:1;fill-rule:nonzero;stroke:none;stroke-width:0.0352742"
       id="path5744" />
    <path
       d="m 94.925896,103.73363 v 0 c -0.09302,-0.20657 -0.158165,-0.41681 -0.195379,-0.62917 v 0 c 0.03721,0.21236 0.102363,0.4226 0.195379,0.62917"
       style="fill:#abb35e;fill-opacity:1;fill-rule:nonzero;stroke:none;stroke-width:0.0352742"
       id="path5774" />
    <path
       d="m 108.63641,101.24646 -0.0123,-0.19084 c 0.007,0.10085 0.0116,0.1666 0.0138,0.18505 -3.5e-4,0.001 -7.1e-4,0.003 -0.001,0.006"
       style="fill:#bbb550;fill-opacity:1;fill-rule:nonzero;stroke:none;stroke-width:0.0352742"
       id="path5780" />
    <path
       d="m 108.52882,99.576677 c -0.0222,-0.336065 -0.0459,-0.694601 -0.0649,-0.994297 l -0.0296,-0.483797 c 0,-0.0022 0,-0.0044 0,-0.0066 0.0198,0.30273 0.0571,0.894716 0.0945,1.484726 m -0.28007,-2.431225 c -0.12522,-0.345695 -0.29266,-0.61883 -0.43982,-0.817499 -0.0331,-0.04575 -0.0652,-0.08766 -0.0955,-0.125543 0.0455,0.05524 0.0911,0.113797 0.13587,0.176234 0.0941,0.133374 0.19414,0.295428 0.28374,0.483655 0.0413,0.08833 0.0801,0.182443 0.11569,0.283153"
       style="fill:#abb35e;fill-opacity:1;fill-rule:nonzero;stroke:none;stroke-width:0.0352742"
       id="path5792" />
    <path
       d="m 108.41524,97.842275 c -0.0176,-0.149073 -0.0462,-0.290878 -0.0822,-0.424958 -0.0243,-0.09507 -0.0533,-0.185723 -0.0843,-0.271865 -0.0356,-0.10071 -0.0744,-0.194824 -0.11569,-0.283153 0.13157,0.274193 0.24127,0.603662 0.28218,0.979976 m -0.56592,-1.463631 c -0.0448,-0.06244 -0.0904,-0.120994 -0.13587,-0.176234 -0.0696,-0.08724 -0.12978,-0.153517 -0.17168,-0.197329 h 1.4e-4 c 0.0675,0.06946 0.18229,0.196094 0.30741,0.373563"
       style="fill:#bbb550;fill-opacity:1;fill-rule:nonzero;stroke:none;stroke-width:0.0352742"
       id="path5794" />
    <path
       d="m 95.544274,104.64471 v 0 c -0.217284,-0.23327 -0.393228,-0.47688 -0.527725,-0.72727 v 0 c 0.134497,0.25039 0.310441,0.494 0.527725,0.72727"
       style="fill:#a9b663;fill-opacity:1;fill-rule:nonzero;stroke:none;stroke-width:0.0352742"
       id="path5960" />
    <path
       d="m 108.74611,102.49625 c -0.0723,-1.11102 -0.14392,-2.2219 -0.21623,-3.333067 0.0243,0.375185 0.0487,0.750264 0.073,1.125207 0.006,0.093 0.012,0.18586 0.018,0.27874 0.006,0.0836 0.0109,0.16717 0.0166,0.25066 0.036,0.55957 0.0723,1.119 0.10864,1.67846 v 0 0 0 m -0.22998,-3.547645 c -0.005,-0.07909 -0.0102,-0.158314 -0.0155,-0.237542 0.002,0.02617 0.004,0.05235 0.005,0.07856 0.004,0.05305 0.007,0.105966 0.0106,0.158984 m -0.0522,-0.80166 c -0.002,-0.04039 -0.005,-0.08074 -0.008,-0.121134 v -0.0012 c 0.002,0.04078 0.006,0.08159 0.008,0.122369 m -0.0134,-0.205583 v 0 -5.64e-4 c 0,-5.29e-4 0,-0.0011 0,-0.0017 0,2.82e-4 0,4.23e-4 0,7.05e-4 v 0.0015 0 m -0.025,-0.23479 c -0.0222,-0.131188 -0.0593,-0.295852 -0.0991,-0.432684 0.0448,0.147979 0.0758,0.266362 0.0991,0.432684 m -0.11605,-0.48602 c 0,-2.82e-4 0,-6.7e-4 0,-9.52e-4 -0.0247,-0.07676 -0.0589,-0.164382 -0.0952,-0.248724 0.0353,0.07591 0.0712,0.172248 0.0952,0.249676 m -0.37206,-0.757037 c -0.008,-0.0121 -0.0168,-0.02395 -0.0252,-0.03527 -0.0408,-0.05471 -0.0911,-0.127307 -0.14067,-0.191649 0.058,0.07358 0.11573,0.151577 0.16589,0.226924 m -0.21302,-0.28548 c -0.0496,-0.05898 -0.10927,-0.12692 -0.1685,-0.191262 0,-1.41e-4 1.5e-4,-4.23e-4 2.5e-4,-7.05e-4 0.0255,0.02688 0.0496,0.0532 0.072,0.07842 0.0307,0.03485 0.0632,0.07316 0.0963,0.113551"
       style="fill:#b1b75c;fill-opacity:1;fill-rule:nonzero;stroke:none;stroke-width:0.0352742"
       id="path6002" />
    <path
       d="m 106.57052,105.63654 c 0.2582,-0.144 0.49382,-0.29681 0.7067,-0.45706 0.0776,-0.0584 0.15227,-0.11768 0.22377,-0.17803 -0.268,0.226 -0.57841,0.43903 -0.93047,0.63509 m -10.030162,-0.1798 c -0.308783,-0.19567 -0.5794,-0.40542 -0.811287,-0.62574 v 0 c 0.231887,0.22032 0.502504,0.43007 0.811287,0.62574 m 10.963242,-0.45748 c 5.7e-4,-5.7e-4 10e-4,-9.9e-4 0.002,-0.002 -7e-4,5.3e-4 -0.001,9.5e-4 -0.002,0.002 m 0.81323,-0.91578 c 0,-2.8e-4 7.1e-4,-7e-4 7.1e-4,-9.5e-4 0,2.5e-4 -7.1e-4,6.7e-4 -7.1e-4,9.5e-4 m 0.003,-0.005 c 7e-4,-7e-4 0.001,-0.001 0.001,-0.002 -3.6e-4,6.7e-4 -7.1e-4,10e-4 -0.001,0.002 m 0.004,-0.005 c 0,-6.8e-4 7e-4,-0.002 0.001,-0.002 -3.5e-4,6.7e-4 -0.001,0.002 -0.001,0.002 m 0.002,-0.005 c 0.001,-0.002 0.003,-0.005 0.005,-0.007 -0.001,0.002 -0.003,0.005 -0.005,0.007 m 0.005,-0.008 c 10e-4,-0.002 0.002,-0.003 0.003,-0.005 -0.001,0.002 -0.001,0.003 -0.003,0.005 m 0.003,-0.005 c 10e-4,-0.002 0.002,-0.003 0.003,-0.005 -0.001,0.002 -0.002,0.003 -0.003,0.005 m 0.003,-0.005 c 0.0716,-0.11743 0.13439,-0.23648 0.18766,-0.35691 -0.0533,0.12032 -0.11605,0.23948 -0.18766,0.35691 m 0.18836,-0.35868 c 7.1e-4,-0.001 0.001,-0.002 0.001,-0.003 -3.5e-4,0.001 -7e-4,0.002 -0.001,0.003 m 0.003,-0.006 c 3.6e-4,-9.9e-4 0.001,-0.002 0.001,-0.003 0,8.5e-4 -7e-4,0.002 -0.001,0.003 m 0.003,-0.007 c 0,-5.2e-4 3.5e-4,-9.5e-4 7e-4,-0.002 -3.5e-4,4.2e-4 -7e-4,9.9e-4 -7e-4,0.002 m 0.21975,-1.03108 v 0 0"
       style="fill:#b1b75c;fill-opacity:1;fill-rule:nonzero;stroke:none;stroke-width:0.0352742"
       id="path6004" />
    <path
       d="m 107.55129,96.014323 -0.19636,-0.218141 -0.0218,0.27892 z"
       style="fill:#231f20;fill-opacity:1;fill-rule:nonzero;stroke:none;stroke-width:0.0352742"
       id="path6060" />
  </g>
</svg>
