<?xml version="1.0" encoding="UTF-8" standalone="no"?>
<!-- Created with Inkscape (http://www.inkscape.org/) -->

<svg
   width="105.71391mm"
   height="77.321159mm"
   viewBox="0 0 105.71391 77.321159"
   version="1.1"
   id="svg5"
   xml:space="preserve"
   inkscape:version="1.2.1 (1:1.2.1+202210291243+9c6d41e410)"
   sodipodi:docname="motion_planning_architecture.svg"
   xmlns:inkscape="http://www.inkscape.org/namespaces/inkscape"
   xmlns:sodipodi="http://sodipodi.sourceforge.net/DTD/sodipodi-0.dtd"
   xmlns="http://www.w3.org/2000/svg"
   xmlns:svg="http://www.w3.org/2000/svg"><sodipodi:namedview
     id="namedview7"
     pagecolor="#ffffff"
     bordercolor="#666666"
     borderopacity="1.0"
     inkscape:showpageshadow="2"
     inkscape:pageopacity="0.0"
     inkscape:pagecheckerboard="0"
     inkscape:deskcolor="#d1d1d1"
     inkscape:document-units="mm"
     showgrid="false"
     inkscape:zoom="1.4525367"
     inkscape:cx="164.53973"
     inkscape:cy="162.8186"
     inkscape:window-width="1920"
     inkscape:window-height="1020"
     inkscape:window-x="0"
     inkscape:window-y="0"
     inkscape:window-maximized="1"
     inkscape:current-layer="g138" /><defs
     id="defs2"><clipPath
       clipPathUnits="userSpaceOnUse"
       id="clipPath152"><path
         d="M 0,0 H 365 V 278 H 0 Z"
         id="path150" /></clipPath><clipPath
       clipPathUnits="userSpaceOnUse"
       id="clipPath166"><path
         d="M 0,0 H 362.835 V 35.433 H 0 Z"
         id="path164" /></clipPath><linearGradient
       x1="0"
       y1="0"
       x2="0"
       y2="35.433498"
       gradientUnits="userSpaceOnUse"
       id="linearGradient172"><stop
         style="stop-opacity:1;stop-color:#ffffff"
         offset="0"
         id="stop168" /><stop
         style="stop-opacity:1;stop-color:#ccccec"
         offset="1"
         id="stop170" /></linearGradient><clipPath
       clipPathUnits="userSpaceOnUse"
       id="clipPath198"><path
         d="M 0,0 H 374 V 272 H 0 Z"
         id="path196" /></clipPath></defs><g
     inkscape:label="Layer 1"
     inkscape:groupmode="layer"
     id="layer1"
     transform="translate(-74.499986,-87.670659)"><g
       id="g138"
       inkscape:label="motion_planning"
       transform="matrix(0.35277777,0,0,-0.35277777,64.364346,171.33051)"><g
         id="g186"
         transform="translate(28.346,17.583)"><g
           id="g188"
           transform="scale(0.81042)"><g
             id="g190"><g
               id="g192"><g
                 id="g194"
                 clip-path="url(#clipPath198)"><g
                   id="g200"
                   transform="scale(0.1)"><path
                     d="m 115,502 v 0 C 55.3555,502 7,453.645 7,394 V 115 C 7,55.3555 55.3555,7 115,7 h 3474 c 59.64,0 108,48.3555 108,108 v 279 c 0,59.645 -48.36,108 -108,108"
                     style="fill:#f7f7f7;fill-opacity:1;fill-rule:evenodd;stroke:none"
                     id="path202" /><path
                     d="m 115,502 v 0 C 55.3555,502 7,453.645 7,394 V 115 C 7,55.3555 55.3555,7 115,7 h 3474 c 59.64,0 108,48.3555 108,108 v 279 c 0,59.645 -48.36,108 -108,108 z"
                     style="fill:none;stroke:#de2821;stroke-width:4.5;stroke-linecap:butt;stroke-linejoin:miter;stroke-miterlimit:10;stroke-dasharray:none;stroke-opacity:1"
                     id="path204" /><path
                     d="m 115,2707 v 0 C 55.3555,2707 7,2658.64 7,2599 v -279 c 0,-59.64 48.3555,-108 108,-108 h 3474 c 59.64,0 108,48.36 108,108 v 279 c 0,59.64 -48.36,108 -108,108"
                     style="fill:#f7f7f7;fill-opacity:1;fill-rule:evenodd;stroke:none"
                     id="path206" /><path
                     d="m 115,2707 v 0 C 55.3555,2707 7,2658.64 7,2599 v -279 c 0,-59.64 48.3555,-108 108,-108 h 3474 c 59.64,0 108,48.36 108,108 v 279 c 0,59.64 -48.36,108 -108,108 z"
                     style="fill:none;stroke:#529a4a;stroke-width:4.5;stroke-linecap:butt;stroke-linejoin:miter;stroke-miterlimit:10;stroke-dasharray:none;stroke-opacity:1"
                     id="path208" /><path
                     d="m 115,1942 v 0 C 55.3555,1942 7,1893.64 7,1834 V 835 C 7,775.355 55.3555,727 115,727 h 3474 c 59.64,0 108,48.355 108,108 v 999 c 0,59.64 -48.36,108 -108,108"
                     style="fill:#f7f7f7;fill-opacity:1;fill-rule:evenodd;stroke:none"
                     id="path210" /><path
                     d="m 115,1942 v 0 C 55.3555,1942 7,1893.64 7,1834 V 835 C 7,775.355 55.3555,727 115,727 h 3474 c 59.64,0 108,48.355 108,108 v 999 c 0,59.64 -48.36,108 -108,108 z"
                     style="fill:none;stroke:#94cf9c;stroke-width:4.5;stroke-linecap:butt;stroke-linejoin:miter;stroke-miterlimit:10;stroke-dasharray:none;stroke-opacity:1"
                     id="path212" /><path
                     d="m 880,1442.8 v -38.4 h 282 v -30.6 l 193.2,52.2 -193.2,51.6 v -34.8"
                     style="fill:#e7be7b;fill-opacity:1;fill-rule:evenodd;stroke:none"
                     id="path214" /><path
                     d="m 880,1442.8 v -38.4 h 282 v -30.6 l 193.2,52.2 -193.2,51.6 v -34.8 z"
                     style="fill:none;stroke:#000000;stroke-width:4.5;stroke-linecap:butt;stroke-linejoin:miter;stroke-miterlimit:10;stroke-dasharray:none;stroke-opacity:1"
                     id="path216" /><path
                     d="M 2245,1440.4 V 1402 h 282 v -30.6 l 193.2,52.2 -193.2,51.6 v -34.8"
                     style="fill:#d67918;fill-opacity:1;fill-rule:evenodd;stroke:none"
                     id="path218" /><path
                     d="M 2245,1440.4 V 1402 h 282 v -30.6 l 193.2,52.2 -193.2,51.6 v -34.8 z"
                     style="fill:none;stroke:#000000;stroke-width:4.5;stroke-linecap:butt;stroke-linejoin:miter;stroke-miterlimit:10;stroke-dasharray:none;stroke-opacity:1"
                     id="path220" /><path
                     d="m 3376,1058.2 h -0.6 l -1.8,-1.8 -4.8,-3 -7.8,-4.8 -9,-6 -9.6,-6 -9.6,-6 -8.4,-4.8 -7.2,-3.6 -6.6,-3.6 -6,-2.4 -6,-1.8 -6.6,-2.4 -7.2,-1.2 -7.8,-1.2 -7.8,-0.6 h -7.2 l -7.8,0.6 -7.2,0.6 -6.6,1.2 -6.6,1.2 -6,1.2 -5.4,1.8 -6,1.8 -5.4,2.4 -6,3.6 -6.6,4.2 -6,4.2 -6,6 -6,6 -6,6.6 -6,7.8 -4.2,6 -4.2,6.6 -4.8,7.8 -4.8,7.8 -5.4,9 -4.8,9 -5.4,10.2 -4.8,9.6 -4.2,9.6 -4.8,9.6 -3.6,9.6 -3.6,9 -3.6,8.4 -2.4,7.8 -3,9 -2.4,9.6 -1.8,9 -1.8,9 -1.2,9 -1.2,9 -1.2,9 -0.6,8.4 -0.6,8.4 -0.6,7.2 -0.6,7.8 v 6.6 l -1.2,8.4 -0.6,9 -1.2,9 -1.2,9 -1.2,9.6 -1.2,9 -1.8,8.4 -1.8,7.8 -2.4,7.2 -1.8,6.6 -2.4,6.6 -2.4,6 -3,6 -3.6,6 -3.6,6 -4.2,5.4 -4.8,4.8 -4.8,4.8 -4.8,4.2 -5.4,3.6 -6,4.2 -6.6,3.6 -7.8,4.2 -9.6,4.2 -11.4,4.8 -12,5.4 -11.4,4.8 -8.4,3 -3.6,1.8 h -0.6"
                     style="fill:none;stroke:#ff0000;stroke-width:4.5;stroke-linecap:butt;stroke-linejoin:bevel;stroke-miterlimit:10;stroke-dasharray:none;stroke-opacity:1"
                     id="path222" /><path
                     d="m 1568.8,1451.2 156.6,-134.4 36,-231 214.2,-28.8"
                     style="fill:none;stroke:#ff0000;stroke-width:4.5;stroke-linecap:butt;stroke-linejoin:miter;stroke-miterlimit:10;stroke-dasharray:none;stroke-opacity:1"
                     id="path224" /><path
                     d="M 52,1267 H 232 V 952 H 727 V 907 H 187 v 315 H 52"
                     style="fill:#ceb69c;fill-opacity:1;fill-rule:evenodd;stroke:none"
                     id="path226" /><path
                     d="M 52,1267 H 232 V 952 H 727 V 907 H 187 v 315 H 52 Z"
                     style="fill:none;stroke:#ceb69c;stroke-width:4.5;stroke-linecap:butt;stroke-linejoin:miter;stroke-miterlimit:10;stroke-dasharray:none;stroke-opacity:1"
                     id="path228" /><path
                     d="m 1599.4,1451.2 c 0,-16.24 -13.17,-29.4 -29.4,-29.4 -16.23,0 -29.4,13.16 -29.4,29.4 0,16.23 13.17,29.4 29.4,29.4 16.23,0 29.4,-13.17 29.4,-29.4"
                     style="fill:#000000;fill-opacity:1;fill-rule:evenodd;stroke:none"
                     id="path230" /><path
                     d="m 1998.4,1058.2 c 0,-12.26 -9.94,-22.2 -22.2,-22.2 -12.26,0 -22.2,9.94 -22.2,22.2 0,12.26 9.94,22.2 22.2,22.2 12.26,0 22.2,-9.94 22.2,-22.2"
                     style="fill:#00ff00;fill-opacity:1;fill-rule:evenodd;stroke:none"
                     id="path232" /><path
                     d="m 1998.4,1058.2 c 0,-12.26 -9.94,-22.2 -22.2,-22.2 -12.26,0 -22.2,9.94 -22.2,22.2 0,12.26 9.94,22.2 22.2,22.2 12.26,0 22.2,-9.94 22.2,-22.2 z"
                     style="fill:none;stroke:#00ff00;stroke-width:4.5;stroke-linecap:butt;stroke-linejoin:miter;stroke-miterlimit:10;stroke-dasharray:none;stroke-opacity:1"
                     id="path234" /><path
                     d="m 1726.6,1506.4 h 180 v -270 h 90 v -90 h -180 v 270 h -90"
                     style="fill:#ceb69c;fill-opacity:1;fill-rule:evenodd;stroke:none"
                     id="path236" /><path
                     d="m 1726.6,1506.4 h 180 v -270 h 90 v -90 h -180 v 270 h -90 z"
                     style="fill:none;stroke:#ceb69c;stroke-width:4.5;stroke-linecap:butt;stroke-linejoin:miter;stroke-miterlimit:10;stroke-dasharray:none;stroke-opacity:1"
                     id="path238" /><path
                     d="m 1447,1582 h 675 v -675 45 h -45 v 585 h -585 v -315 h -45"
                     style="fill:#ceb69c;fill-opacity:1;fill-rule:evenodd;stroke:none"
                     id="path240" /><path
                     d="m 1447,1582 h 675 v -675 45 h -45 v 585 h -585 v -315 h -45 z"
                     style="fill:none;stroke:#ceb69c;stroke-width:4.5;stroke-linecap:butt;stroke-linejoin:miter;stroke-miterlimit:10;stroke-dasharray:none;stroke-opacity:1"
                     id="path242" /><path
                     d="m 1447,1267 h 180 V 952 h 495 v -45 h -540 v 315 h -135"
                     style="fill:#ceb69c;fill-opacity:1;fill-rule:evenodd;stroke:none"
                     id="path244" /><path
                     d="m 1447,1267 h 180 V 952 h 495 v -45 h -540 v 315 h -135 z"
                     style="fill:none;stroke:#ceb69c;stroke-width:4.5;stroke-linecap:butt;stroke-linejoin:miter;stroke-miterlimit:10;stroke-dasharray:none;stroke-opacity:1"
                     id="path246" /><path
                     d="m 2994.4,1451.2 c 0,-16.24 -13.17,-29.4 -29.4,-29.4 -16.23,0 -29.4,13.16 -29.4,29.4 0,16.23 13.17,29.4 29.4,29.4 16.23,0 29.4,-13.17 29.4,-29.4"
                     style="fill:#000000;fill-opacity:1;fill-rule:evenodd;stroke:none"
                     id="path248" /><path
                     d="m 3393.4,1058.2 c 0,-12.26 -9.94,-22.2 -22.2,-22.2 -12.26,0 -22.2,9.94 -22.2,22.2 0,12.26 9.94,22.2 22.2,22.2 12.26,0 22.2,-9.94 22.2,-22.2"
                     style="fill:#00ff00;fill-opacity:1;fill-rule:evenodd;stroke:none"
                     id="path250" /><path
                     d="m 3393.4,1058.2 c 0,-12.26 -9.94,-22.2 -22.2,-22.2 -12.26,0 -22.2,9.94 -22.2,22.2 0,12.26 9.94,22.2 22.2,22.2 12.26,0 22.2,-9.94 22.2,-22.2 z"
                     style="fill:none;stroke:#00ff00;stroke-width:4.5;stroke-linecap:butt;stroke-linejoin:miter;stroke-miterlimit:10;stroke-dasharray:none;stroke-opacity:1"
                     id="path252" /><path
                     d="m 3121.6,1506.4 h 180 v -270 h 90 v -90 h -180 v 270 h -90"
                     style="fill:#ceb69c;fill-opacity:1;fill-rule:evenodd;stroke:none"
                     id="path254" /><path
                     d="m 3121.6,1506.4 h 180 v -270 h 90 v -90 h -180 v 270 h -90 z"
                     style="fill:none;stroke:#ceb69c;stroke-width:4.5;stroke-linecap:butt;stroke-linejoin:miter;stroke-miterlimit:10;stroke-dasharray:none;stroke-opacity:1"
                     id="path256" /><path
                     d="m 2842,1582 h 675 v -675 45 h -45 v 585 h -585 v -315 h -45"
                     style="fill:#ceb69c;fill-opacity:1;fill-rule:evenodd;stroke:none"
                     id="path258" /><path
                     d="m 2842,1582 h 675 v -675 45 h -45 v 585 h -585 v -315 h -45 z"
                     style="fill:none;stroke:#ceb69c;stroke-width:4.5;stroke-linecap:butt;stroke-linejoin:miter;stroke-miterlimit:10;stroke-dasharray:none;stroke-opacity:1"
                     id="path260" /><path
                     d="m 2842,1267 h 180 V 952 h 495 v -45 h -540 v 315 h -135"
                     style="fill:#ceb69c;fill-opacity:1;fill-rule:evenodd;stroke:none"
                     id="path262" /><path
                     d="m 2842,1267 h 180 V 952 h 495 v -45 h -540 v 315 h -135 z"
                     style="fill:none;stroke:#ceb69c;stroke-width:4.5;stroke-linecap:butt;stroke-linejoin:miter;stroke-miterlimit:10;stroke-dasharray:none;stroke-opacity:1"
                     id="path264" /><g
                     id="g266"
                     transform="scale(10)"><text
                       xml:space="preserve"
                       transform="matrix(1,0,0,-1,14.2,5.2)"
                       style="font-style:oblique;font-variant:normal;font-size:7.2px;font-family:Helvetica;-inkscape-font-specification:Helvetica-Oblique;writing-mode:lr-tb;fill:#8c8e8c;fill-opacity:1;fill-rule:nonzero;stroke:none"
                       id="text270"><tspan
                         x="0 2.556 6.5591998 10.5624 14.1624 17.7624 19.3608 22.9608 26.964001 28.562401 31.118401 33.119999 34.718399 38.7216 42.321602 46.324799"
                         y="0"
                         sodipodi:role="line"
                         id="tspan268">&quot;physical&quot; level</tspan></text></g><g
                     id="g272"
                     transform="scale(10)"><text
                       xml:space="preserve"
                       transform="matrix(1,0,0,-1,85.8855,105.1)"
                       style="font-style:oblique;font-variant:normal;font-size:10.8px;font-family:Helvetica;-inkscape-font-specification:Helvetica-Oblique;writing-mode:lr-tb;fill:#000000;fill-opacity:1;fill-rule:nonzero;stroke:none"
                       id="text278"><tspan
                         x="0 3.5964 9.6012001 15.606 21.6108 24.613199 27.615601 33.620399 39.625198"
                         y="0"
                         sodipodi:role="line"
                         id="tspan274">robot and</tspan><tspan
                         x="-2.99102 4.8065801 10.81138 14.40778 19.807779 25.207781 31.21258 37.217381 42.617378"
                         y="15.3"
                         sodipodi:role="line"
                         id="tspan276">workspace</tspan></text></g><path
                     d="m 204.398,1451.2 c 0,-16.24 -13.164,-29.4 -29.398,-29.4 -16.234,0 -29.398,13.16 -29.398,29.4 0,16.23 13.164,29.4 29.398,29.4 16.234,0 29.398,-13.17 29.398,-29.4"
                     style="fill:#000000;fill-opacity:1;fill-rule:evenodd;stroke:none"
                     id="path280" /><path
                     d="m 603.398,1058.2 c 0,-12.26 -9.941,-22.2 -22.199,-22.2 -12.258,0 -22.199,9.94 -22.199,22.2 0,12.26 9.941,22.2 22.199,22.2 12.258,0 22.199,-9.94 22.199,-22.2"
                     style="fill:#00ff00;fill-opacity:1;fill-rule:evenodd;stroke:none"
                     id="path282" /><path
                     d="m 603.398,1058.2 c 0,-12.26 -9.941,-22.2 -22.199,-22.2 -12.258,0 -22.199,9.94 -22.199,22.2 0,12.26 9.941,22.2 22.199,22.2 12.258,0 22.199,-9.94 22.199,-22.2 z"
                     style="fill:none;stroke:#00ff00;stroke-width:4.5;stroke-linecap:butt;stroke-linejoin:miter;stroke-miterlimit:10;stroke-dasharray:none;stroke-opacity:1"
                     id="path284" /><path
                     d="m 331.602,1506.4 h 180 v -270 h 90 v -90 h -180 v 270 h -90"
                     style="fill:#ceb69c;fill-opacity:1;fill-rule:evenodd;stroke:none"
                     id="path286" /><path
                     d="m 331.602,1506.4 h 180 v -270 h 90 v -90 h -180 v 270 h -90 z"
                     style="fill:none;stroke:#ceb69c;stroke-width:4.5;stroke-linecap:butt;stroke-linejoin:miter;stroke-miterlimit:10;stroke-dasharray:none;stroke-opacity:1"
                     id="path288" /><path
                     d="m 52,1582 h 675 v -675 45 h -45 v 585 H 97 V 1222 H 52"
                     style="fill:#ceb69c;fill-opacity:1;fill-rule:evenodd;stroke:none"
                     id="path290" /><path
                     d="m 52,1582 h 675 v -675 45 h -45 v 585 H 97 V 1222 H 52 Z"
                     style="fill:none;stroke:#ceb69c;stroke-width:4.5;stroke-linecap:butt;stroke-linejoin:miter;stroke-miterlimit:10;stroke-dasharray:none;stroke-opacity:1"
                     id="path292" /><g
                     id="g294"
                     transform="scale(10)"><text
                       xml:space="preserve"
                       transform="matrix(1,0,0,-1,269.186,162.7)"
                       style="font-variant:normal;font-weight:normal;font-size:10.8px;font-family:Helvetica;-inkscape-font-specification:Helvetica;writing-mode:lr-tb;fill:#000000;fill-opacity:1;fill-rule:nonzero;stroke:none"
                       id="text298"><tspan
                         x="0 6.5988002 10.1952 16.200001 18.597601 24.6024 30.002399 33.004799 39.009602 42.605999 48.006001 51.0084 58.212002 60.6096 66.614403 72.619202 78.624001 81.021599 87.026398"
                         y="0"
                         sodipodi:role="line"
                         id="tspan296">Trajectory Planning</tspan></text><text
                       xml:space="preserve"
                       transform="matrix(1,0,0,-1,121.579,239.2)"
                       style="font-variant:normal;font-weight:bold;font-size:10.8px;font-family:Helvetica;-inkscape-font-specification:Helvetica-Bold;writing-mode:lr-tb;fill:#000000;fill-opacity:1;fill-rule:nonzero;stroke:none"
                       id="text302"><tspan
                         x="0 6.5988002 12.6036 18.6084 24.613199 30.618 33.620399 39.625198 46.223999 52.8228 55.825199 63.622799 69.627602 73.223999 76.226402 82.825203 89.424004 95.428802 98.431198 105.6348 108.6372 114.642 121.2408"
                         y="0"
                         sodipodi:role="line"
                         id="tspan300">Tasks and Actions Plans</tspan></text><text
                       xml:space="preserve"
                       transform="matrix(1,0,0,-1,18.7,257.2)"
                       style="font-style:oblique;font-variant:normal;font-size:10.8px;font-family:Helvetica;-inkscape-font-specification:Helvetica-Oblique;writing-mode:lr-tb;fill:#000000;fill-opacity:1;fill-rule:nonzero;stroke:none"
                       id="text306"><tspan
                         x="0 8.9963999 11.394 16.794001 22.194 24.5916 30.596399 36.6012 39.6036 46.807201 49.2048 55.209599 61.214401 67.2192 69.616798 75.621597"
                         y="0"
                         sodipodi:role="line"
                         id="tspan304">Mission Planning</tspan></text></g><g
                     id="g308"
                     transform="scale(10)"><text
                       xml:space="preserve"
                       transform="matrix(1,0,0,-1,158.788,18.7)"
                       style="font-variant:normal;font-weight:normal;font-size:7.2px;font-family:Helvetica;-inkscape-font-specification:Helvetica;writing-mode:lr-tb;fill:#ff2000;fill-opacity:1;fill-rule:nonzero;stroke:none"
                       id="text312"><tspan
                         x="0 2.0016 6.0047998 10.008 14.0112 18.0144 22.017599 25.617599 29.2176 31.2192 34.819199 38.822399 42.8256 44.827202 47.2248 51.228001"
                         y="0"
                         sodipodi:role="line"
                         id="tspan310">feedback control</tspan></text></g><g
                     id="g314"
                     transform="scale(10)"><text
                       xml:space="preserve"
                       transform="matrix(1,0,0,-1,134.793,32.2)"
                       style="font-variant:normal;font-weight:bold;font-size:10.8px;font-family:Helvetica;-inkscape-font-specification:Helvetica-Bold;writing-mode:lr-tb;fill:#000000;fill-opacity:1;fill-rule:nonzero;stroke:none"
                       id="text318"><tspan
                         x="0 7.2035999 13.2084 19.807199 25.812 28.8144 35.4132 42.012001 45.0144 51.019199 57.618 64.216797 67.2192 75.0168 81.021599 84.617996 87.620399 94.2192"
                         y="0"
                         sodipodi:role="line"
                         id="tspan316">Sensing and Acting</tspan></text></g><g
                     id="g320"
                     transform="scale(10)"><text
                       xml:space="preserve"
                       transform="matrix(1,0,0,-1,125.588,9.7)"
                       style="font-style:oblique;font-variant:normal;font-size:7.2px;font-family:Helvetica;-inkscape-font-specification:Helvetica-Oblique;writing-mode:lr-tb;fill:#ff2000;fill-opacity:1;fill-rule:nonzero;stroke:none"
                       id="text324"><tspan
                         x="0 3.5999999 7.6032 11.6064 13.608 16.0056 20.008801 21.607201 23.205601 27.208799 29.6064 31.608 35.812801 37.8144 41.8176 44.215199 45.813599 49.413601 53.416801 57.0168 59.018398 61.416 67.413597 71.416801 73.418404 77.4216 79.819199 83.419197 85.816803 87.818398 92.023201 94.024803 97.624802 101.628 105.6312 109.2312 113.2344 115.632"
                         y="0"
                         sodipodi:role="line"
                         id="tspan322">controller − drives (motors) − sensors</tspan></text></g><g
                     id="g326"
                     transform="scale(10)"><text
                       xml:space="preserve"
                       transform="matrix(1,0,0,-1,206.198,59.2)"
                       style="font-style:oblique;font-variant:normal;font-size:10.8px;font-family:Helvetica;-inkscape-font-specification:Helvetica-Oblique;writing-mode:lr-tb;fill:#000000;fill-opacity:1;fill-rule:nonzero;stroke:none"
                       id="text330"><tspan
                         x="0 6.5988002 10.1952 16.200001 18.597601 24.6024 30.002399 33.004799 39.009602 42.605999"
                         y="0"
                         sodipodi:role="line"
                         id="tspan328">Trajectory</tspan></text></g><g
                     id="g332"
                     transform="scale(10)"><text
                       xml:space="preserve"
                       transform="matrix(1,0,0,-1,9.7,225.7)"
                       style="font-style:oblique;font-variant:normal;font-size:7.2px;font-family:Helvetica;-inkscape-font-specification:Helvetica-Oblique;writing-mode:lr-tb;fill:#8c8e8c;fill-opacity:1;fill-rule:nonzero;stroke:none"
                       id="text338"><tspan
                         x="0 3.5999999 7.1999998 13.1976 17.2008 21.204 22.802401 24.804001 26.402399 30.4056 34.0056 38.008801"
                         y="0"
                         sodipodi:role="line"
                         id="tspan334">symbol level</tspan><tspan
                         x="4.5 7.0560002 11.0592 15.0624 19.065599 25.0632 29.066401 31.068001 33.465599 35.063999 38.664001 41.220001 43.2216 44.82 48.8232 52.423199 56.426399"
                         y="148.5"
                         sodipodi:role="line"
                         id="tspan336">&quot;geometric&quot; level</tspan></text></g><g
                     id="g340"
                     transform="scale(10)"><text
                       xml:space="preserve"
                       transform="matrix(1,0,0,-1,85.2918,120.4)"
                       style="font-style:oblique;font-variant:normal;font-size:10.8px;font-family:Helvetica;-inkscape-font-specification:Helvetica-Oblique;writing-mode:lr-tb;fill:#000000;fill-opacity:1;fill-rule:nonzero;stroke:none"
                       id="text346"><tspan
                         x="0 8.9963999 15.0012 21.006001 27.010799 29.4084 34.808399 37.810799 43.815601"
                         y="0"
                         sodipodi:role="line"
                         id="tspan342">Models of</tspan><tspan
                         x="151.8 159.0036 165.00841 168.0108"
                         y="7.1999998"
                         sodipodi:role="line"
                         id="tspan344">Path</tspan></text><text
                       xml:space="preserve"
                       transform="matrix(1,0,0,-1,16.5958,162.7)"
                       style="font-variant:normal;font-weight:normal;font-size:10.8px;font-family:Helvetica;-inkscape-font-specification:Helvetica;writing-mode:lr-tb;fill:#000000;fill-opacity:1;fill-rule:nonzero;stroke:none"
                       id="text350"><tspan
                         x="0 7.2035999 10.8 16.8048 22.809601 25.207199 31.212 130.48398 137.68758 143.69238 146.69478 152.69958 155.70198 162.90558 165.30318 171.30798 177.31277 183.31758 185.71518 191.71999"
                         y="0"
                         sodipodi:role="line"
                         id="tspan348">ProblemPath Planning</tspan></text><text
                       xml:space="preserve"
                       transform="matrix(1,0,0,-1,18.69932,180.7)"
                       style="font-style:oblique;font-variant:normal;font-size:10.8px;font-family:Helvetica;-inkscape-font-specification:Helvetica-Oblique;writing-mode:lr-tb;fill:#000000;fill-opacity:1;fill-rule:nonzero;stroke:none"
                       id="text354"><tspan
                         x="0 8.9963999 15.0012 18.003599 20.401199 26.406 32.410801 35.4132 42.616798 45.0144 51.019199 57.023998 63.028801 65.426399 71.431198"
                         y="0"
                         sodipodi:role="line"
                         id="tspan352">Motion Planning</tspan></text></g><g
                     id="g356"
                     transform="scale(10)"><text
                       xml:space="preserve"
                       transform="matrix(1,0,0,-1,287.97,18.7)"
                       style="font-style:oblique;font-variant:normal;font-size:7.2px;font-family:Helvetica;-inkscape-font-specification:Helvetica-Oblique;writing-mode:lr-tb;fill:#2159c6;fill-opacity:1;fill-rule:nonzero;stroke:none"
                       id="text364"><tspan
                         x="0 4.8024001 8.8056002 12.8088 15.2064 18.8064 22.809601 26.409599 28.4112 32.414398 34.416 36.417599 40.420799 44.424 48.023998 52.027199 54.424801 56.426399 60.4296 62.028 66.031197 68.032799 69.631203 73.634399"
                         y="0"
                         sodipodi:role="line"
                         id="tspan358">Sources of uncertainties</tspan><tspan
                         x="-13.6078 -9.6046 -5.6013999 -2.0014 2.0018001 6.0050001 9.6049995 13.6082 15.6098 19.613001 21.614599 23.616199 26.0138 30.017 34.020199 35.618599 37.620201 41.623402 45.626598 49.226601 50.825001 53.222599 57.2258 61.229 67.226601 71.229797 75.233002"
                         y="9"
                         sodipodi:role="line"
                         id="tspan360">because of real environment</tspan><tspan
                         x="18.696899 24.2985 28.301701 32.304901 36.308102 40.512901 42.111301 46.114498 50.117699 54.120899 56.122501 59.7225 63.7257 67.728897 69.730499 72.128098 76.131302 77.729698"
                         y="-40.5"
                         sodipodi:role="line"
                         id="tspan362">Open−loop control?</tspan></text></g><g
                     id="g366"
                     transform="scale(10)"><text
                       xml:space="preserve"
                       transform="matrix(1,0,0,-1,14.2,36.7)"
                       style="font-style:oblique;font-variant:normal;font-size:10.8px;font-family:Helvetica;-inkscape-font-specification:Helvetica-Oblique;writing-mode:lr-tb;fill:#000000;fill-opacity:1;fill-rule:nonzero;stroke:none"
                       id="text370"><tspan
                         x="0 7.7975998 13.8024 19.807199 25.812 28.8144 31.816799 39.614399 45.619202 51.624001 54.6264 58.222801 64.2276"
                         y="0"
                         sodipodi:role="line"
                         id="tspan368">Robot Control</tspan></text></g><path
                     d="m 1085.8,2125.6 v 33 l -92.999,78.6 v -32.4"
                     style="fill:#bdbebd;fill-opacity:1;fill-rule:evenodd;stroke:none"
                     id="path372" /><path
                     d="m 1085.8,2125.6 v 33 l -92.999,78.6 v -32.4 z"
                     style="fill:none;stroke:#000000;stroke-width:18;stroke-linecap:butt;stroke-linejoin:bevel;stroke-miterlimit:10;stroke-dasharray:none;stroke-opacity:1"
                     id="path374" /><path
                     d="m 914.199,2014 v 33 l 40.199,82.8 38.403,107.4 v -39 l -33,-105"
                     style="fill:#0000b0;fill-opacity:1;fill-rule:evenodd;stroke:none"
                     id="path376" /><path
                     d="m 914.199,2014 v 33 l 40.199,82.8 38.403,107.4 v -39 l -33,-105 z"
                     style="fill:none;stroke:#000000;stroke-width:18;stroke-linecap:butt;stroke-linejoin:bevel;stroke-miterlimit:10;stroke-dasharray:none;stroke-opacity:1"
                     id="path378" /><path
                     d="m 1269.4,2165.2 21,6 19.2,4.8 15,4.2 12,3.6 8.4,2.4 6,1.8 3.6,1.2 3,1.2 3,0.6 4.2,1.2 5.4,1.8 7.2,3 10.2,3.6 13.8,4.8 15.6,5.4 17.4,6.6 19.2,7.2 16.2,7.2 14.4,6 12,5.4 10.2,4.8 9,4.8 7.8,4.2 6.6,3.6 6,3.6 4.2,2.4 3.6,1.8 1.8,1.2 0.6,0.6 v 26.4 l -0.6,-0.6 -1.8,-1.2 -3.6,-1.8 -4.2,-2.4 -6,-3.6 -6.6,-3.6 -7.8,-4.2 -9,-4.8 -10.2,-4.8 -12,-5.4 -14.4,-6 -16.2,-7.2 -19.2,-7.2 -17.4,-6.6 -15.6,-5.4 -13.8,-4.8 -10.2,-4.2 -7.2,-2.4 -5.4,-2.4 -4.2,-1.2 -3,-1.2 -3,-1.2 -3.6,-1.2 -6,-1.8 -8.4,-2.4 -12,-3.6 -15,-4.2 -19.2,-4.8 -21,-5.4 -21.6,-5.4 -20.4,-4.2 -19.2,-4.2 -17.4,-3 -15.6,-3 -15,-2.4 -13.8,-2.4 -13.2,-1.8 -12,-1.2 -10.2,-1.8 -9,-1.2 -7.2,-0.6 -4.8,-0.6 -3,-0.6 h -1.2 v -33 h 1.2 l 3,0.6 4.8,1.2 7.2,1.2 9,1.2 10.2,2.4 12,2.4 13.2,2.4 13.8,2.4 15,3.6 15.6,3 17.4,4.2 19.2,4.2 20.4,5.4"
                     style="fill:#bdbebd;fill-opacity:1;fill-rule:evenodd;stroke:none"
                     id="path380" /><path
                     d="m 1269.4,2165.2 21,6 19.2,4.8 15,4.2 12,3.6 8.4,2.4 6,1.8 3.6,1.2 3,1.2 3,0.6 4.2,1.2 5.4,1.8 7.2,3 10.2,3.6 13.8,4.8 15.6,5.4 17.4,6.6 19.2,7.2 16.2,7.2 14.4,6 12,5.4 10.2,4.8 9,4.8 7.8,4.2 6.6,3.6 6,3.6 4.2,2.4 3.6,1.8 1.8,1.2 0.6,0.6 v 26.4 l -0.6,-0.6 -1.8,-1.2 -3.6,-1.8 -4.2,-2.4 -6,-3.6 -6.6,-3.6 -7.8,-4.2 -9,-4.8 -10.2,-4.8 -12,-5.4 -14.4,-6 -16.2,-7.2 -19.2,-7.2 -17.4,-6.6 -15.6,-5.4 -13.8,-4.8 -10.2,-4.2 -7.2,-2.4 -5.4,-2.4 -4.2,-1.2 -3,-1.2 -3,-1.2 -3.6,-1.2 -6,-1.8 -8.4,-2.4 -12,-3.6 -15,-4.2 -19.2,-4.8 -21,-5.4 -21.6,-5.4 -20.4,-4.2 -19.2,-4.2 -17.4,-3 -15.6,-3 -15,-2.4 -13.8,-2.4 -13.2,-1.8 -12,-1.2 -10.2,-1.8 -9,-1.2 -7.2,-0.6 -4.8,-0.6 -3,-0.6 h -1.2 v -33 h 1.2 l 3,0.6 4.8,1.2 7.2,1.2 9,1.2 10.2,2.4 12,2.4 13.2,2.4 13.8,2.4 15,3.6 15.6,3 17.4,4.2 19.2,4.2 20.4,5.4 z"
                     style="fill:none;stroke:#000000;stroke-width:18;stroke-linecap:butt;stroke-linejoin:bevel;stroke-miterlimit:10;stroke-dasharray:none;stroke-opacity:1"
                     id="path382" /><path
                     d="m 2752.6,687.398 v 33 l -93,78.602 v -32.398"
                     style="fill:#f76900;fill-opacity:1;fill-rule:evenodd;stroke:none"
                     id="path384" /><path
                     d="m 2752.6,687.398 v 33 l -93,78.602 v -32.398 z"
                     style="fill:none;stroke:#000000;stroke-width:18;stroke-linecap:butt;stroke-linejoin:bevel;stroke-miterlimit:10;stroke-dasharray:none;stroke-opacity:1"
                     id="path386" /><path
                     d="m 2581,575.801 v 33 l 40.2,82.801 38.4,107.398 v -39 l -33,-105"
                     style="fill:#f76900;fill-opacity:1;fill-rule:evenodd;stroke:none"
                     id="path388" /><path
                     d="m 2581,575.801 v 33 l 40.2,82.801 38.4,107.398 v -39 l -33,-105 z"
                     style="fill:none;stroke:#000000;stroke-width:18;stroke-linecap:butt;stroke-linejoin:bevel;stroke-miterlimit:10;stroke-dasharray:none;stroke-opacity:1"
                     id="path390" /><path
                     d="m 2896.6,556 v 19.801 l -52.2,39.597 -20.4,-6.597"
                     style="fill:#f76900;fill-opacity:1;fill-rule:evenodd;stroke:none"
                     id="path392" /><path
                     d="m 2896.6,556 v 19.801 l -52.2,39.597 -20.4,-6.597 z"
                     style="fill:none;stroke:#000000;stroke-width:18;stroke-linecap:butt;stroke-linejoin:bevel;stroke-miterlimit:10;stroke-dasharray:none;stroke-opacity:1"
                     id="path394" /><path
                     d="m 2936.2,727 21,6 19.2,4.801 15,4.199 12,3.602 8.4,2.398 6,1.801 3.6,1.199 3.6,1.199 2.4,0.602 4.2,1.199 5.4,1.801 7.2,3 10.2,3.597 13.8,4.801 15.6,5.403 17.4,6.597 19.2,7.199 16.2,7.204 14.4,6 12,5.398 10.2,4.801 9,4.801 7.8,4.199 6.6,3.597 6,3.602 4.2,2.398 3.6,1.801 1.8,1.199 0.6,0.602 v 26.398 l -0.6,-0.597 -1.8,-1.199 -3.6,-1.801 -4.2,-2.403 -6,-3.597 -6.6,-3.602 -7.8,-4.199 -9,-4.801 -10.2,-4.801 -12,-5.398 -14.4,-6 -16.2,-7.199 -19.2,-7.199 -17.4,-6.602 -15.6,-5.398 -13.8,-4.801 -10.2,-4.199 -7.2,-2.403 -5.4,-2.398 -4.2,-1.199 -2.4,-1.204 -3.6,-1.199 -3.6,-1.199 -6,-1.801 -8.4,-2.398 -12,-3.602 -15,-4.199 -19.2,-4.801 -21,-5.398 -21.6,-5.403 -20.4,-4.199 -19.2,-4.199 -17.4,-3 -15.6,-3 -15,-2.398 -13.8,-2.403 -13.2,-1.801 -12,-1.199 -10.2,-1.801 -9,-1.199 -7.2,-0.597 -4.8,-0.602 -3,-0.602 h -1.2 v -33 h 1.2 l 3,0.602 4.8,1.199 7.2,1.199 9,1.204 10.2,2.398 12,2.398 13.2,2.403 13.8,2.398 15,3.602 15.6,3 17.4,4.199 19.2,4.199 20.4,5.403"
                     style="fill:#f76900;fill-opacity:1;fill-rule:evenodd;stroke:none"
                     id="path396" /><path
                     d="m 2936.2,727 21,6 19.2,4.801 15,4.199 12,3.602 8.4,2.398 6,1.801 3.6,1.199 3.6,1.199 2.4,0.602 4.2,1.199 5.4,1.801 7.2,3 10.2,3.597 13.8,4.801 15.6,5.403 17.4,6.597 19.2,7.199 16.2,7.204 14.4,6 12,5.398 10.2,4.801 9,4.801 7.8,4.199 6.6,3.597 6,3.602 4.2,2.398 3.6,1.801 1.8,1.199 0.6,0.602 v 26.398 l -0.6,-0.597 -1.8,-1.199 -3.6,-1.801 -4.2,-2.403 -6,-3.597 -6.6,-3.602 -7.8,-4.199 -9,-4.801 -10.2,-4.801 -12,-5.398 -14.4,-6 -16.2,-7.199 -19.2,-7.199 -17.4,-6.602 -15.6,-5.398 -13.8,-4.801 -10.2,-4.199 -7.2,-2.403 -5.4,-2.398 -4.2,-1.199 -2.4,-1.204 -3.6,-1.199 -3.6,-1.199 -6,-1.801 -8.4,-2.398 -12,-3.602 -15,-4.199 -19.2,-4.801 -21,-5.398 -21.6,-5.403 -20.4,-4.199 -19.2,-4.199 -17.4,-3 -15.6,-3 -15,-2.398 -13.8,-2.403 -13.2,-1.801 -12,-1.199 -10.2,-1.801 -9,-1.199 -7.2,-0.597 -4.8,-0.602 -3,-0.602 h -1.2 v -33 h 1.2 l 3,0.602 4.8,1.199 7.2,1.199 9,1.204 10.2,2.398 12,2.398 13.2,2.403 13.8,2.398 15,3.602 15.6,3 17.4,4.199 19.2,4.199 20.4,5.403 z"
                     style="fill:none;stroke:#000000;stroke-width:18;stroke-linecap:butt;stroke-linejoin:bevel;stroke-miterlimit:10;stroke-dasharray:none;stroke-opacity:1"
                     id="path398" /><path
                     d="m 1229.8,1994.2 v 19.8 l -52.2,39.6 -20.4,-6.6"
                     style="fill:#bdbebd;fill-opacity:1;fill-rule:evenodd;stroke:none"
                     id="path400" /><path
                     d="m 1229.8,1994.2 v 19.8 l -52.2,39.6 -20.4,-6.6 z"
                     style="fill:none;stroke:#000000;stroke-width:18;stroke-linecap:butt;stroke-linejoin:bevel;stroke-miterlimit:10;stroke-dasharray:none;stroke-opacity:1"
                     id="path402" /><path
                     d="m 1309,2099.2 -19.2,-8.4 -18,-7.8 -16.8,-6.6 -14.4,-5.4 -13.2,-4.2 -12,-4.2 -11.4,-3.6 -10.2,-2.4 -9,-3 -8.4,-1.8 -7.2,-1.8 -5.4,-1.2 -3.6,-1.2 -1.8,-0.6 h -1.2 0.6 l 1.8,-1.8 4.2,-3 7.8,-5.4 10.2,-7.8 12,-8.4 11.4,-8.4 10.2,-7.8 7.8,-5.4 4.2,-3 1.8,-1.8 h 0.6 -1.2 l -2.4,0.6 h -3.6 l -6,0.6 -7.2,0.6 -9,1.2 -10.2,1.2 -10.8,0.6 -12,1.2 -12.6,1.2 -13.2,1.2 -15,1.2 -16.8,1.2 -18.6,1.2 -19.2,1.2 -19.2,1.2 -18.6,1.2 -16.8,0.6 -15,0.6 -13.201,0.6 -12.597,0.6 -12,0.6 h -10.801 l -10.199,0.6 h -16.204 l -6,0.6 h -7.199 l 0.602,1.2 1.801,2.4 2.398,3.6 3.602,5.4 4.199,6.6 4.801,7.8 4.796,8.4 4.801,9.6 6,11.4 6,13.8 6.602,15 6,15.6 5.398,15 4.801,13.2 3.602,12 3.597,11.4 2.403,10.2 2.398,9 2.398,7.8 1.204,6 0.597,3.6 0.602,1.8 1.801,-1.8 3.597,-3 6.601,-5.4 9.6,-8.4 12,-9.6 13.2,-11.4 12.6,-11.4 12,-9.6 9.6,-8.4 6.6,-5.4 3.6,-3 1.8,-1.8 h 1.2 l 3,0.6 4.8,1.2 7.2,1.2 9,1.2 10.2,2.4 12,2.4 13.2,2.4 13.8,2.4 15,3.6 15.6,3 17.4,4.2 19.2,4.2 20.4,5.4 21.6,5.4 21,6 19.2,4.8 15,4.2 12,3.6 8.4,2.4 6,1.8 3.6,1.2 3,1.2 3,0.6 4.2,1.2 5.4,1.8 7.2,3 10.2,3.6 13.8,4.8 15.6,5.4 17.4,6.6 19.2,7.2 16.2,7.2 14.4,6 12,5.4 10.2,4.8 9,4.8 7.8,4.2 6.6,3.6 6,3.6 4.2,2.4 3.6,1.8 1.8,1.2 0.6,0.6 -0.6,-1.2 -0.6,-2.4 -1.8,-3.6 -3,-5.4 -3.6,-6 -4.8,-7.2 -6,-7.8 -8.4,-9 -11.4,-10.8 -14.4,-12 -18,-13.8 -15,-10.8 -14.4,-9.6 -12.6,-7.8 -10.8,-6.6 -7.8,-4.8 -6,-3.6 -4.8,-2.4 -4.2,-2.4 -4.2,-2.4 -5.4,-2.4 -6.6,-3.6 -9,-4.8 -11.4,-5.4 -15,-7.8 -18,-8.4"
                     style="fill:#bdbebd;fill-opacity:1;fill-rule:evenodd;stroke:none"
                     id="path404" /><path
                     d="m 1309,2099.2 -19.2,-8.4 -18,-7.8 -16.8,-6.6 -14.4,-5.4 -13.2,-4.2 -12,-4.2 -11.4,-3.6 -10.2,-2.4 -9,-3 -8.4,-1.8 -7.2,-1.8 -5.4,-1.2 -3.6,-1.2 -1.8,-0.6 h -1.2 0.6 l 1.8,-1.8 4.2,-3 7.8,-5.4 10.2,-7.8 12,-8.4 11.4,-8.4 10.2,-7.8 7.8,-5.4 4.2,-3 1.8,-1.8 h 0.6 -1.2 l -2.4,0.6 h -3.6 l -6,0.6 -7.2,0.6 -9,1.2 -10.2,1.2 -10.8,0.6 -12,1.2 -12.6,1.2 -13.2,1.2 -15,1.2 -16.8,1.2 -18.6,1.2 -19.2,1.2 -19.2,1.2 -18.6,1.2 -16.8,0.6 -15,0.6 -13.201,0.6 -12.597,0.6 -12,0.6 h -10.801 l -10.199,0.6 h -16.204 l -6,0.6 h -7.199 l 0.602,1.2 1.801,2.4 2.398,3.6 3.602,5.4 4.199,6.6 4.801,7.8 4.796,8.4 4.801,9.6 6,11.4 6,13.8 6.602,15 6,15.6 5.398,15 4.801,13.2 3.602,12 3.597,11.4 2.403,10.2 2.398,9 2.398,7.8 1.204,6 0.597,3.6 0.602,1.8 1.801,-1.8 3.597,-3 6.601,-5.4 9.6,-8.4 12,-9.6 13.2,-11.4 12.6,-11.4 12,-9.6 9.6,-8.4 6.6,-5.4 3.6,-3 1.8,-1.8 h 1.2 l 3,0.6 4.8,1.2 7.2,1.2 9,1.2 10.2,2.4 12,2.4 13.2,2.4 13.8,2.4 15,3.6 15.6,3 17.4,4.2 19.2,4.2 20.4,5.4 21.6,5.4 21,6 19.2,4.8 15,4.2 12,3.6 8.4,2.4 6,1.8 3.6,1.2 3,1.2 3,0.6 4.2,1.2 5.4,1.8 7.2,3 10.2,3.6 13.8,4.8 15.6,5.4 17.4,6.6 19.2,7.2 16.2,7.2 14.4,6 12,5.4 10.2,4.8 9,4.8 7.8,4.2 6.6,3.6 6,3.6 4.2,2.4 3.6,1.8 1.8,1.2 0.6,0.6 -0.6,-1.2 -0.6,-2.4 -1.8,-3.6 -3,-5.4 -3.6,-6 -4.8,-7.2 -6,-7.8 -8.4,-9 -11.4,-10.8 -14.4,-12 -18,-13.8 -15,-10.8 -14.4,-9.6 -12.6,-7.8 -10.8,-6.6 -7.8,-4.8 -6,-3.6 -4.8,-2.4 -4.2,-2.4 -4.2,-2.4 -5.4,-2.4 -6.6,-3.6 -9,-4.8 -11.4,-5.4 -15,-7.8 -18,-8.4 z"
                     style="fill:none;stroke:#000000;stroke-width:18;stroke-linecap:butt;stroke-linejoin:bevel;stroke-miterlimit:10;stroke-dasharray:none;stroke-opacity:1"
                     id="path406" /><path
                     d="m 2975.8,661 -19.2,-8.398 -18,-7.801 -16.8,-6.602 -14.4,-5.398 -13.2,-4.199 -12,-4.204 -11.4,-3.597 -10.2,-2.403 -9,-3 -8.4,-1.796 -7.2,-1.801 -5.4,-1.199 -3.6,-1.204 -1.8,-0.597 h -1.2 0.6 l 1.8,-1.801 4.2,-3 7.8,-5.398 10.2,-7.801 12,-8.403 11.4,-8.398 10.2,-7.801 7.8,-5.398 4.2,-3 1.8,-1.801 h 0.6 -1.2 l -2.4,0.602 h -3.6 l -6,0.597 -7.2,0.602 -9,1.199 -10.2,1.199 -10.8,0.602 -12,1.199 -12.6,1.199 -13.2,1.199 -15,1.204 -16.8,1.199 -18.6,1.199 -19.2,1.199 -19.2,1.199 -18.6,1.204 -16.8,0.597 -15,0.602 -13.2,0.597 -12.6,0.602 -12,0.602 h -10.8 l -10.2,0.597 h -16.2 l -6,0.602 h -7.2 l 0.6,1.199 1.8,2.398 2.4,3.602 3.6,5.398 4.2,6.602 4.8,7.801 4.8,8.398 4.8,9.602 6,11.398 6,13.801 6.6,15 6,15.602 5.4,15 4.8,13.199 3.6,12 3.6,11.398 2.4,10.199 2.4,9 2.4,7.801 1.2,6 0.6,3.602 0.6,1.801 1.8,-1.801 3.6,-3 6.6,-5.403 9.6,-8.398 12,-9.602 13.2,-11.398 12.6,-11.398 12,-9.602 9.6,-8.398 6.6,-5.403 3.6,-3 1.8,-1.801 h 1.2 l 3,0.602 4.8,1.199 7.2,1.199 9,1.204 10.2,2.398 12,2.398 13.2,2.403 13.8,2.398 15,3.602 15.6,3 17.4,4.199 19.2,4.199 20.4,5.403 21.6,5.398 21,6 19.2,4.801 15,4.199 12,3.602 8.4,2.398 6,1.801 3.6,1.199 3.6,1.199 2.4,0.602 4.2,1.199 5.4,1.801 7.2,3 10.2,3.597 13.8,4.801 15.6,5.403 17.4,6.597 19.2,7.199 16.2,7.204 14.4,6 12,5.398 10.2,4.801 9,4.801 7.8,4.199 6.6,3.597 6,3.602 4.2,2.398 3.6,1.801 1.8,1.199 0.6,0.602 -0.6,-1.199 -0.6,-2.403 -1.8,-3.597 -3,-5.403 -3.6,-6 -4.8,-7.199 -6,-7.801 -8.4,-9 -11.4,-10.796 -14.4,-12 -18,-13.801 -15,-10.801 -14.4,-9.602 -12.6,-7.796 -10.8,-6.602 -7.8,-4.801 -6,-3.597 -4.8,-2.403 -4.2,-2.398 -4.2,-2.403 -5.4,-2.398 -6.6,-3.602 -9,-4.796 -11.4,-5.403 -15,-7.801 -18,-8.398"
                     style="fill:#f76900;fill-opacity:1;fill-rule:evenodd;stroke:none"
                     id="path408" /><path
                     d="m 2975.8,661 -19.2,-8.398 -18,-7.801 -16.8,-6.602 -14.4,-5.398 -13.2,-4.199 -12,-4.204 -11.4,-3.597 -10.2,-2.403 -9,-3 -8.4,-1.796 -7.2,-1.801 -5.4,-1.199 -3.6,-1.204 -1.8,-0.597 h -1.2 0.6 l 1.8,-1.801 4.2,-3 7.8,-5.398 10.2,-7.801 12,-8.403 11.4,-8.398 10.2,-7.801 7.8,-5.398 4.2,-3 1.8,-1.801 h 0.6 -1.2 l -2.4,0.602 h -3.6 l -6,0.597 -7.2,0.602 -9,1.199 -10.2,1.199 -10.8,0.602 -12,1.199 -12.6,1.199 -13.2,1.199 -15,1.204 -16.8,1.199 -18.6,1.199 -19.2,1.199 -19.2,1.199 -18.6,1.204 -16.8,0.597 -15,0.602 -13.2,0.597 -12.6,0.602 -12,0.602 h -10.8 l -10.2,0.597 h -16.2 l -6,0.602 h -7.2 l 0.6,1.199 1.8,2.398 2.4,3.602 3.6,5.398 4.2,6.602 4.8,7.801 4.8,8.398 4.8,9.602 6,11.398 6,13.801 6.6,15 6,15.602 5.4,15 4.8,13.199 3.6,12 3.6,11.398 2.4,10.199 2.4,9 2.4,7.801 1.2,6 0.6,3.602 0.6,1.801 1.8,-1.801 3.6,-3 6.6,-5.403 9.6,-8.398 12,-9.602 13.2,-11.398 12.6,-11.398 12,-9.602 9.6,-8.398 6.6,-5.403 3.6,-3 1.8,-1.801 h 1.2 l 3,0.602 4.8,1.199 7.2,1.199 9,1.204 10.2,2.398 12,2.398 13.2,2.403 13.8,2.398 15,3.602 15.6,3 17.4,4.199 19.2,4.199 20.4,5.403 21.6,5.398 21,6 19.2,4.801 15,4.199 12,3.602 8.4,2.398 6,1.801 3.6,1.199 3.6,1.199 2.4,0.602 4.2,1.199 5.4,1.801 7.2,3 10.2,3.597 13.8,4.801 15.6,5.403 17.4,6.597 19.2,7.199 16.2,7.204 14.4,6 12,5.398 10.2,4.801 9,4.801 7.8,4.199 6.6,3.597 6,3.602 4.2,2.398 3.6,1.801 1.8,1.199 0.6,0.602 -0.6,-1.199 -0.6,-2.403 -1.8,-3.597 -3,-5.403 -3.6,-6 -4.8,-7.199 -6,-7.801 -8.4,-9 -11.4,-10.796 -14.4,-12 -18,-13.801 -15,-10.801 -14.4,-9.602 -12.6,-7.796 -10.8,-6.602 -7.8,-4.801 -6,-3.597 -4.8,-2.403 -4.2,-2.398 -4.2,-2.403 -5.4,-2.398 -6.6,-3.602 -9,-4.796 -11.4,-5.403 -15,-7.801 -18,-8.398 z"
                     style="fill:none;stroke:#000000;stroke-width:18;stroke-linecap:butt;stroke-linejoin:bevel;stroke-miterlimit:10;stroke-dasharray:none;stroke-opacity:1"
                     id="path410" /></g></g></g></g></g></g></g></g></svg>
