<?xml version="1.0" encoding="UTF-8" standalone="no"?>
<!-- Created with Inkscape (http://www.inkscape.org/) -->

<svg
   width="93.126472mm"
   height="69.96891mm"
   viewBox="0 0 93.126472 69.96891"
   version="1.1"
   id="svg1707"
   inkscape:version="1.2.1 (1:1.2.1+202210291243+9c6d41e410)"
   sodipodi:docname="prm_random_configurations.svg"
   xmlns:inkscape="http://www.inkscape.org/namespaces/inkscape"
   xmlns:sodipodi="http://sodipodi.sourceforge.net/DTD/sodipodi-0.dtd"
   xmlns="http://www.w3.org/2000/svg"
   xmlns:svg="http://www.w3.org/2000/svg">
  <sodipodi:namedview
     id="namedview1709"
     pagecolor="#ffffff"
     bordercolor="#666666"
     borderopacity="1.0"
     inkscape:showpageshadow="2"
     inkscape:pageopacity="0.0"
     inkscape:pagecheckerboard="0"
     inkscape:deskcolor="#d1d1d1"
     inkscape:document-units="mm"
     showgrid="false"
     inkscape:zoom="0.75722503"
     inkscape:cx="179.60315"
     inkscape:cy="311.00398"
     inkscape:window-width="1846"
     inkscape:window-height="1016"
     inkscape:window-x="1440"
     inkscape:window-y="27"
     inkscape:window-maximized="1"
     inkscape:current-layer="layer1" />
  <defs
     id="defs1704">
    <clipPath
       clipPathUnits="userSpaceOnUse"
       id="clipPath1220">
      <path
         d="M 0,0 H 523 V 401 H 0 Z"
         id="path1218" />
    </clipPath>
  </defs>
  <g
     inkscape:label="Layer 1"
     inkscape:groupmode="layer"
     id="layer1"
     transform="translate(-11.089703,-66.344952)">
    <g
       id="g1210"
       transform="matrix(0.18379016,0,0,-0.18379016,9.6653297,137.73824)">
      <g
         id="g1212">
        <g
           id="g1214">
          <g
             id="g1216"
             clip-path="url(#clipPath1220)">
            <g
               id="g1222"
               transform="scale(0.1)">
              <path
                 d="m 826,2236 -15.602,4.8 -15.597,6 -15.602,7.2 -16.199,7.8 -16.801,9 -16.801,9.6 -16.796,10.8 -16.801,12 -17.403,12.6 -17.398,13.8 -16.801,14.4 -17.398,15.6 -17.403,16.8 -16.796,17.4 -16.801,18 -16.801,19.2 -16.199,19.8 -15.602,20.4 -15.597,21 -14.403,22.2 -14.398,22.2 -13.801,22.8 -12.602,23.4 -12,24 -11.398,24.6 -10.199,24.6 -9.602,24.6 -8.398,25.2 -7.199,24.6 -6.602,25.2 -4.801,25.2 -3.597,25.2 -3,25.2 -1.204,25.2 -0.597,24.6 1.199,24.6 2.398,24.6 3.602,24 5.398,24 6.602,23.4 7.801,23.4 9,22.8 10.801,22.2 12,22.2 13.796,22.2 15.602,21.6 15.602,19.8 16.796,19.2 18.602,19.2 19.199,19.2 21,19.2 22.199,18.6 24,18.6 24.602,18.6 25.801,18.6 27.597,18 28.801,18 29.403,18 30.597,17.4 31.801,17.4 33,16.8 33.602,16.8 34.796,16.2 35.403,16.2 36,15.6 36.599,15.6 37.8,14.4 37.8,14.4 37.8,13.8 38.4,13.8 38.4,12.6 39,12.6 38.4,11.4 38.4,11.4 38.4,10.2 37.8,10.2 37.8,9 37.2,8.4 36.6,7.8 36,7.2 34.8,6.6 34.2,6 33.6,4.8 32.4,4.2 31.8,3.6 30.6,3 29.4,2.4 28.8,1.2 27,1.2 h 25.8 l 25.2,-0.6 23.4,-1.8 22.8,-1.8 21,-3 20.4,-3.6 18.6,-3.6 v -0.6 l 21.6,-6 19.8,-7.2 18,-8.4 16.8,-9.6 14.4,-10.8 13.2,-11.4 11.4,-13.2 9.6,-13.8 8.4,-14.4 7.2,-15.6 4.8,-16.8 4.2,-18 2.4,-18 1.2,-19.2 -0.6,-20.4 -1.2,-20.4 -3,-21 -4.2,-22.2 -4.8,-22.2 -6.6,-22.2 -7.2,-22.8 -7.8,-22.8 -9,-23.4 -9.6,-22.8 -10.2,-23.4 -11.4,-22.8 -11.4,-22.2 -12,-22.8 -12,-21.6 -12.6,-21.6 -13.2,-21 -12.6,-20.4 -13.2,-19.8 -12.6,-19.8 -13.2,-18.6 -12.6,-18 -12.6,-17.4 -12.6,-16.2 -12.6,-16.2 -11.4,-15.6 -16.8,-20.4 -16.2,-19.2 -16.2,-18.6 -15.6,-17.4 -15,-16.2 -15,-15 -14.4,-14.4 -14.4,-13.2 -14.4,-12 -13.8,-11.4 -13.8,-10.2 -13.2,-9.6 -13.2,-8.4 -12,-7.8 -12.6,-6.6 -11.4,-5.4 -11.4,-4.8 -10.8,-4.2 -10.8,-3.6 -10.2,-2.4 -9.6,-2.4 -9,-1.2 -8.4,-1.2 h -8.4 l -8.4,-0.6 -7.8,0.6 h -7.8 l -7.2,0.6 -8.4,1.2 -8.4,1.2 -9,1.2 -8.4,1.2 -8.4,0.6 -9,1.2 -9,0.6 h -9 l -9.6,-0.6 -9.6,-0.6 -9.6,-1.8 -9.6,-2.4 -10.2,-3 -10.2,-4.2 -9.6,-4.8 -10.2,-6 -10.2,-7.2 -10.8,-7.8 -10.2,-9 -10.2,-10.8 -10.8,-11.4 -10.2,-12.6 -10.8,-14.4 -10.8,-15.6 -8.4,-11.4 -7.8,-13.2 -9,-13.2 -8.4,-14.4 -9,-14.4 -9.6,-15.6 -10.2,-16.2 -10.2,-16.2 -10.8,-16.8 -11.4,-17.4 -11.4,-17.4 -12.6,-17.4 -12.6,-18 -13.2,-17.4 -13.8,-17.4 -14.4,-16.8 -14.4,-16.2 -15,-16.2 -15.6,-15 -15.6,-14.4 -16.2,-13.2 -16.8,-12 -16.8,-11.4 -16.8,-10.2 -17.402,-8.4 -18,-7.8 -18,-6 -18,-4.2 -18.597,-3 -19.199,-1.8 -18.602,0.6 -19.801,1.8 -19.801,3"
                 style="fill:#decba5;fill-opacity:1;fill-rule:evenodd;stroke:none"
                 id="path1224" />
              <path
                 d="m 826,2236 -15.602,4.8 -15.597,6 -15.602,7.2 -16.199,7.8 -16.801,9 -16.801,9.6 -16.796,10.8 -16.801,12 -17.403,12.6 -17.398,13.8 -16.801,14.4 -17.398,15.6 -17.403,16.8 -16.796,17.4 -16.801,18 -16.801,19.2 -16.199,19.8 -15.602,20.4 -15.597,21 -14.403,22.2 -14.398,22.2 -13.801,22.8 -12.602,23.4 -12,24 -11.398,24.6 -10.199,24.6 -9.602,24.6 -8.398,25.2 -7.199,24.6 -6.602,25.2 -4.801,25.2 -3.597,25.2 -3,25.2 -1.204,25.2 -0.597,24.6 1.199,24.6 2.398,24.6 3.602,24 5.398,24 6.602,23.4 7.801,23.4 9,22.8 10.801,22.2 12,22.2 13.796,22.2 15.602,21.6 15.602,19.8 16.796,19.2 18.602,19.2 19.199,19.2 21,19.2 22.199,18.6 24,18.6 24.602,18.6 25.801,18.6 27.597,18 28.801,18 29.403,18 30.597,17.4 31.801,17.4 33,16.8 33.602,16.8 34.796,16.2 35.403,16.2 36,15.6 36.599,15.6 37.8,14.4 37.8,14.4 37.8,13.8 38.4,13.8 38.4,12.6 39,12.6 38.4,11.4 38.4,11.4 38.4,10.2 37.8,10.2 37.8,9 37.2,8.4 36.6,7.8 36,7.2 34.8,6.6 34.2,6 33.6,4.8 32.4,4.2 31.8,3.6 30.6,3 29.4,2.4 28.8,1.2 27,1.2 h 25.8 l 25.2,-0.6 23.4,-1.8 22.8,-1.8 21,-3 20.4,-3.6 18.6,-3.6 v -0.6 l 21.6,-6 19.8,-7.2 18,-8.4 16.8,-9.6 14.4,-10.8 13.2,-11.4 11.4,-13.2 9.6,-13.8 8.4,-14.4 7.2,-15.6 4.8,-16.8 4.2,-18 2.4,-18 1.2,-19.2 -0.6,-20.4 -1.2,-20.4 -3,-21 -4.2,-22.2 -4.8,-22.2 -6.6,-22.2 -7.2,-22.8 -7.8,-22.8 -9,-23.4 -9.6,-22.8 -10.2,-23.4 -11.4,-22.8 -11.4,-22.2 -12,-22.8 -12,-21.6 -12.6,-21.6 -13.2,-21 -12.6,-20.4 -13.2,-19.8 -12.6,-19.8 -13.2,-18.6 -12.6,-18 -12.6,-17.4 -12.6,-16.2 -12.6,-16.2 -11.4,-15.6 -16.8,-20.4 -16.2,-19.2 -16.2,-18.6 -15.6,-17.4 -15,-16.2 -15,-15 -14.4,-14.4 -14.4,-13.2 -14.4,-12 -13.8,-11.4 -13.8,-10.2 -13.2,-9.6 -13.2,-8.4 -12,-7.8 -12.6,-6.6 -11.4,-5.4 -11.4,-4.8 -10.8,-4.2 -10.8,-3.6 -10.2,-2.4 -9.6,-2.4 -9,-1.2 -8.4,-1.2 h -8.4 l -8.4,-0.6 -7.8,0.6 h -7.8 l -7.2,0.6 -8.4,1.2 -8.4,1.2 -9,1.2 -8.4,1.2 -8.4,0.6 -9,1.2 -9,0.6 h -9 l -9.6,-0.6 -9.6,-0.6 -9.6,-1.8 -9.6,-2.4 -10.2,-3 -10.2,-4.2 -9.6,-4.8 -10.2,-6 -10.2,-7.2 -10.8,-7.8 -10.2,-9 -10.2,-10.8 -10.8,-11.4 -10.2,-12.6 -10.8,-14.4 -10.8,-15.6 -8.4,-11.4 -7.8,-13.2 -9,-13.2 -8.4,-14.4 -9,-14.4 -9.6,-15.6 -10.2,-16.2 -10.2,-16.2 -10.8,-16.8 -11.4,-17.4 -11.4,-17.4 -12.6,-17.4 -12.6,-18 -13.2,-17.4 -13.8,-17.4 -14.4,-16.8 -14.4,-16.2 -15,-16.2 -15.6,-15 -15.6,-14.4 -16.2,-13.2 -16.8,-12 -16.8,-11.4 -16.8,-10.2 -17.402,-8.4 -18,-7.8 -18,-6 -18,-4.2 -18.597,-3 -19.199,-1.8 -18.602,0.6 -19.801,1.8 -19.801,3 z"
                 style="fill:none;stroke:#decba5;stroke-width:4.5;stroke-linecap:butt;stroke-linejoin:bevel;stroke-miterlimit:10;stroke-dasharray:none;stroke-opacity:1"
                 id="path1226" />
              <path
                 d="m 1853.8,1711 -3.6,-15 -2.4,-15.6 -1.8,-15 -1.8,-15.6 -0.6,-15.6 v -15.6 l 0.6,-15.6 1.2,-16.2 1.8,-16.2 2.4,-16.2 3,-16.2 4.2,-15.6 4.8,-16.2 5.4,-15.6 6,-15.6 6.6,-15.6 7.8,-15 7.8,-14.4 9,-14.4 9,-13.2 10.2,-13.2 10.2,-12.6 10.8,-12 11.4,-10.8 12,-10.8 12,-10.2 12.6,-9.6 13.2,-9 13.8,-7.8 14.4,-8.4 15.6,-7.8 16.2,-7.2 17.4,-6.6 18,-6 18.6,-6 18.6,-5.4 19.8,-4.2 20.4,-4.2 20.4,-3.6 20.4,-2.4 21,-2.4 21,-1.8 20.4,-0.6 h 20.4 l 19.8,0.6 19.2,1.2 18,1.8 17.4,3 16.8,3 15,4.2 14.4,4.2 12.6,5.4 12,5.4 10.2,6.6 8.4,6.6 7.2,7.8 6,7.8 4.8,8.4 3,9.6 1.2,10.8 v 11.4 l -1.2,12.6 -3,12.6 -4.8,13.8 -5.4,15 -6.6,15.6 -7.8,15.6 -9,16.8 -9.6,17.4 -10.2,18 -10.8,18 -11.4,18.6 -11.4,18.6 -11.4,18 -11.4,18.6 -11.4,18.6 -10.8,18 -10.2,17.4 -9.6,17.4 -9,16.8 -8.4,16.2 -7.2,16.2 -6,15.6 -5.4,15 -4.8,16.2 -3,16.2 -2.4,15.6 -1.2,16.2 v 15.6 l 0.6,15.6 1.8,15.6 2.4,15.6 3,15.6 4.2,15.6 4.8,15 4.8,15 6,15 5.4,14.4 6,13.8 6.6,13.8 6,13.2 6,12.6 5.4,12 5.4,12 5.4,11.4 4.8,10.8 4.2,10.8 3.6,10.2 3.6,12 3,12.6 2.4,12 1.2,12 1.2,12 v 12 l -0.6,12 -1.8,11.4 -1.8,11.4 -2.4,10.8 -3.6,10.2 -3.6,9.6 -4.2,9 -4.8,8.4 -4.8,7.2 -5.4,6.6 -5.4,6 -6,4.8 -6,4.2 -6,3 -6.6,3 -6.6,1.8 -6.6,1.8 h -15.6 l -8.4,-1.2 -8.4,-2.4 -9.6,-3 -10.2,-3.6 -10.2,-5.4 -10.8,-6 -11.4,-6.6 -11.4,-7.8 -12,-8.4 -11.4,-9.6 -12.6,-9.6 -12,-10.8 -12.6,-12 -13.2,-12 -12.6,-13.2 -10.2,-9.6 -9.6,-10.2 -10.2,-10.8 -10.8,-11.4 -10.8,-12 -11.4,-13.2 -11.4,-13.2 -11.4,-13.8 -12,-14.4 -12,-15.6 -12,-15.6 -11.4,-15.6 -12,-16.8 -12,-16.8 -11.4,-17.4 -10.8,-17.4 -10.8,-17.4 -10.2,-17.4 -9.6,-17.4 -9.6,-17.4 -8.4,-17.4 -8.4,-17.4 -7.2,-16.8 -6.6,-16.8 -6,-16.2 -5.4,-16.8 -4.8,-16.2"
                 style="fill:#decba5;fill-opacity:1;fill-rule:evenodd;stroke:none"
                 id="path1228" />
              <path
                 d="m 1853.8,1711 -3.6,-15 -2.4,-15.6 -1.8,-15 -1.8,-15.6 -0.6,-15.6 v -15.6 l 0.6,-15.6 1.2,-16.2 1.8,-16.2 2.4,-16.2 3,-16.2 4.2,-15.6 4.8,-16.2 5.4,-15.6 6,-15.6 6.6,-15.6 7.8,-15 7.8,-14.4 9,-14.4 9,-13.2 10.2,-13.2 10.2,-12.6 10.8,-12 11.4,-10.8 12,-10.8 12,-10.2 12.6,-9.6 13.2,-9 13.8,-7.8 14.4,-8.4 15.6,-7.8 16.2,-7.2 17.4,-6.6 18,-6 18.6,-6 18.6,-5.4 19.8,-4.2 20.4,-4.2 20.4,-3.6 20.4,-2.4 21,-2.4 21,-1.8 20.4,-0.6 h 20.4 l 19.8,0.6 19.2,1.2 18,1.8 17.4,3 16.8,3 15,4.2 14.4,4.2 12.6,5.4 12,5.4 10.2,6.6 8.4,6.6 7.2,7.8 6,7.8 4.8,8.4 3,9.6 1.2,10.8 v 11.4 l -1.2,12.6 -3,12.6 -4.8,13.8 -5.4,15 -6.6,15.6 -7.8,15.6 -9,16.8 -9.6,17.4 -10.2,18 -10.8,18 -11.4,18.6 -11.4,18.6 -11.4,18 -11.4,18.6 -11.4,18.6 -10.8,18 -10.2,17.4 -9.6,17.4 -9,16.8 -8.4,16.2 -7.2,16.2 -6,15.6 -5.4,15 -4.8,16.2 -3,16.2 -2.4,15.6 -1.2,16.2 v 15.6 l 0.6,15.6 1.8,15.6 2.4,15.6 3,15.6 4.2,15.6 4.8,15 4.8,15 6,15 5.4,14.4 6,13.8 6.6,13.8 6,13.2 6,12.6 5.4,12 5.4,12 5.4,11.4 4.8,10.8 4.2,10.8 3.6,10.2 3.6,12 3,12.6 2.4,12 1.2,12 1.2,12 v 12 l -0.6,12 -1.8,11.4 -1.8,11.4 -2.4,10.8 -3.6,10.2 -3.6,9.6 -4.2,9 -4.8,8.4 -4.8,7.2 -5.4,6.6 -5.4,6 -6,4.8 -6,4.2 -6,3 -6.6,3 -6.6,1.8 -6.6,1.8 h -15.6 l -8.4,-1.2 -8.4,-2.4 -9.6,-3 -10.2,-3.6 -10.2,-5.4 -10.8,-6 -11.4,-6.6 -11.4,-7.8 -12,-8.4 -11.4,-9.6 -12.6,-9.6 -12,-10.8 -12.6,-12 -13.2,-12 -12.6,-13.2 -10.2,-9.6 -9.6,-10.2 -10.2,-10.8 -10.8,-11.4 -10.8,-12 -11.4,-13.2 -11.4,-13.2 -11.4,-13.8 -12,-14.4 -12,-15.6 -12,-15.6 -11.4,-15.6 -12,-16.8 -12,-16.8 -11.4,-17.4 -10.8,-17.4 -10.8,-17.4 -10.2,-17.4 -9.6,-17.4 -9.6,-17.4 -8.4,-17.4 -8.4,-17.4 -7.2,-16.8 -6.6,-16.8 -6,-16.2 -5.4,-16.8 -4.8,-16.2 z"
                 style="fill:none;stroke:#decba5;stroke-width:4.5;stroke-linecap:butt;stroke-linejoin:bevel;stroke-miterlimit:10;stroke-dasharray:none;stroke-opacity:1"
                 id="path1230" />
              <path
                 d="M 676,758.199 697.602,746.801 720.398,736 743.801,724.602 768.398,713.801 793.602,703 l 25.796,-10.801 27,-10.801 27.602,-10.796 28.801,-10.204 29.398,-10.796 30,-10.204 31.199,-10.199 32.402,-9.597 32.4,-10.204 33.6,-9.597 33.6,-9.602 34.8,-9.597 35.4,-9.602 36,-9 36.6,-9 37.2,-8.398 37.2,-9 37.2,-8.403 38.4,-7.801 37.8,-7.796 38.4,-7.801 38.4,-7.801 38.4,-7.199 37.8,-6.602 38.4,-6.597 37.8,-6.602 37.8,-6 37.2,-5.398 37.2,-5.403 36.6,-5.398 36,-4.801 35.4,-4.199 34.8,-4.199 34.2,-4.204 34.2,-3.597 33,-3 31.8,-3 31.8,-2.403 30.6,-2.398 30.6,-2.398 29.4,-1.801 28.2,-1.199 28.2,-1.204 27,-1.199 26.4,-0.597 25.2,-0.602 h 60 l 33.6,1.199 32.4,1.199 31.2,1.801 30,2.403 28.8,3 27.6,3 27,4.199 25.8,4.199 24.6,4.801 23.4,4.801 22.2,6 21,5.398 19.8,6.602 18.6,6 17.4,7.199 16.2,6.597 15,7.204 13.2,7.796 12,7.204 10.8,7.199 9,7.801 8.4,7.199 6.6,7.801 5.4,7.199 4.2,7.199 3,7.199 1.8,6.602 1.2,7.199 -0.6,6 -1.2,6.602 -2.4,5.398 -3,6 -4.2,5.398 -5.4,4.801 -5.4,4.801 -7.8,4.801 -9,4.801 -9.6,4.199 -10.8,4.199 -12,3.602 -13.2,3 -14.4,3.597 -15.6,2.403 -16.8,3 -17.4,2.398 -19.2,1.801 -19.8,1.801 -20.4,1.796 -21.6,1.204 -22.8,1.796 -22.8,0.602 -24,1.199 -24,0.602 -25.2,0.597 -24.6,0.602 -25.8,0.602 -25.2,0.597 H 2431 l -25.2,0.602 H 2380 l -25.2,0.597 h -50.4 l -24.6,0.602 -24.6,0.602 -24.6,0.597 H 2206 l -21.6,1.199 -22.2,0.602 -21.6,0.602 -22.2,1.199 -22.8,0.597 -22.8,1.801 -22.8,1.199 -23.4,1.204 -23.4,1.796 -24,1.801 -24,1.801 -24.6,2.398 -24.6,2.403 -24.6,2.398 -25.2,3 -25.2,3 -25.2,3 -25.2,3 -25.2,3.602 -25.2,3.597 -24.6,4.204 -25.2,3.597 -24.6,4.199 -24,4.204 -24,4.796 -23.4,4.801 -23.4,4.801 -22.8,4.801 -22.8,4.801 -22.2,5.398 -22.2,5.398 -21,5.403 -21.6,5.398 -21,6 -21,6 -20.4,6 -21.6,7.199 -22.2,7.204 -21.6,7.199 -22.2,7.801 -22.2,7.796 -22.2,7.801 -22.2,9 -22.2,8.403 -22.8,9 -22.8,9.597 -22.8,9.602 -22.2,9.597 -22.8,10.204 -22.8,9.597 -22.2,10.801 -22.2,10.199 -21.602,10.199 -21.597,10.801 -21,10.199 -20.403,10.204 L 904,965.801 884.801,976 l -18.602,10.199 -18,9.602 -17.398,9.599 -16.801,9.6 -16.199,9 -15,9 -14.403,8.4 -13.796,8.4 -13.204,8.4 -12.597,7.8 -11.403,7.8 -11.398,7.2 -18,12 -16.199,12 -15,11.4 -14.403,10.8 -13.199,11.4 -12,10.8 -11.398,10.8 -10.199,10.8 -9.602,10.8 -9,10.8 -7.801,10.8 -7.199,10.2 -6.602,10.8 -6,10.2 -6,10.8 -5.398,10.2 -4.801,10.2 -4.801,10.8 -4.796,10.8 -4.801,10.8 -5.403,10.8 -4.796,10.8 -5.403,12 -6,11.4 -6,12.6 -6,13.2 -6.597,13.2 -7.204,13.2 -6.597,13.8 -7.199,13.8 -7.801,13.8 -7.199,13.8 -7.204,13.2 -7.796,12.6 -7.204,12 -6.597,11.4 -7.199,11.4 -6.602,9.6 -6,9.6 -6.602,8.4 -5.398,7.8 -6,6.6 -3.602,4.2 -3.597,4.2 -3.602,3 -3.597,3.6 -3,2.4 -3.602,2.4 -3.602,2.4 -3,1.2 -3.597,1.2 -3,0.6 -3.602,0.6 -3,-0.6 -3,-0.6 -3,-1.2 -3,-1.8 -3,-2.4 -3,-3 -3,-3.6 -2.398,-4.2 -3,-4.8 -2.403,-4.8 -2.398,-6 -2.398,-6.6 -1.801,-6.6 -2.403,-7.8 -1.796,-7.8 -1.801,-9 -1.801,-9 -1.801,-9.6 -1.801,-10.2 -1.199,-10.2 -1.801,-11.4 -1.199,-12 -1.199,-12.6 -1.199,-11.4 -0.602,-12 -1.199,-13.2 -0.602,-13.2 v -13.8 l -0.597,-14.4 0.597,-15.6 0.602,-15.6 0.602,-16.2 1.796,-17.4 1.801,-17.4 3,-18 3,-18.6 4.199,-18.6 4.801,-19.8 5.403,-19.2 6.597,-20.4 7.199,-20.4 7.801,-20.4 9,-20.4 10.199,-21 10.801,-20.4 12,-21 12.602,-20.4 13.801,-20.4 15,-19.801 16.199,-20.398 16.801,-19.199 18,-19.801 19.199,-18.602 19.801,-18.597 21.597,-18 22.199,-18 23.403,-17.403 24.597,-16.801 25.801,-16.796 27,-16.204"
                 style="fill:#decba5;fill-opacity:1;fill-rule:evenodd;stroke:none"
                 id="path1232" />
              <path
                 d="M 676,758.199 697.602,746.801 720.398,736 743.801,724.602 768.398,713.801 793.602,703 l 25.796,-10.801 27,-10.801 27.602,-10.796 28.801,-10.204 29.398,-10.796 30,-10.204 31.199,-10.199 32.402,-9.597 32.4,-10.204 33.6,-9.597 33.6,-9.602 34.8,-9.597 35.4,-9.602 36,-9 36.6,-9 37.2,-8.398 37.2,-9 37.2,-8.403 38.4,-7.801 37.8,-7.796 38.4,-7.801 38.4,-7.801 38.4,-7.199 37.8,-6.602 38.4,-6.597 37.8,-6.602 37.8,-6 37.2,-5.398 37.2,-5.403 36.6,-5.398 36,-4.801 35.4,-4.199 34.8,-4.199 34.2,-4.204 34.2,-3.597 33,-3 31.8,-3 31.8,-2.403 30.6,-2.398 30.6,-2.398 29.4,-1.801 28.2,-1.199 28.2,-1.204 27,-1.199 26.4,-0.597 25.2,-0.602 h 60 l 33.6,1.199 32.4,1.199 31.2,1.801 30,2.403 28.8,3 27.6,3 27,4.199 25.8,4.199 24.6,4.801 23.4,4.801 22.2,6 21,5.398 19.8,6.602 18.6,6 17.4,7.199 16.2,6.597 15,7.204 13.2,7.796 12,7.204 10.8,7.199 9,7.801 8.4,7.199 6.6,7.801 5.4,7.199 4.2,7.199 3,7.199 1.8,6.602 1.2,7.199 -0.6,6 -1.2,6.602 -2.4,5.398 -3,6 -4.2,5.398 -5.4,4.801 -5.4,4.801 -7.8,4.801 -9,4.801 -9.6,4.199 -10.8,4.199 -12,3.602 -13.2,3 -14.4,3.597 -15.6,2.403 -16.8,3 -17.4,2.398 -19.2,1.801 -19.8,1.801 -20.4,1.796 -21.6,1.204 -22.8,1.796 -22.8,0.602 -24,1.199 -24,0.602 -25.2,0.597 -24.6,0.602 -25.8,0.602 -25.2,0.597 H 2431 l -25.2,0.602 H 2380 l -25.2,0.597 h -50.4 l -24.6,0.602 -24.6,0.602 -24.6,0.597 H 2206 l -21.6,1.199 -22.2,0.602 -21.6,0.602 -22.2,1.199 -22.8,0.597 -22.8,1.801 -22.8,1.199 -23.4,1.204 -23.4,1.796 -24,1.801 -24,1.801 -24.6,2.398 -24.6,2.403 -24.6,2.398 -25.2,3 -25.2,3 -25.2,3 -25.2,3 -25.2,3.602 -25.2,3.597 -24.6,4.204 -25.2,3.597 -24.6,4.199 -24,4.204 -24,4.796 -23.4,4.801 -23.4,4.801 -22.8,4.801 -22.8,4.801 -22.2,5.398 -22.2,5.398 -21,5.403 -21.6,5.398 -21,6 -21,6 -20.4,6 -21.6,7.199 -22.2,7.204 -21.6,7.199 -22.2,7.801 -22.2,7.796 -22.2,7.801 -22.2,9 -22.2,8.403 -22.8,9 -22.8,9.597 -22.8,9.602 -22.2,9.597 -22.8,10.204 -22.8,9.597 -22.2,10.801 -22.2,10.199 -21.602,10.199 -21.597,10.801 -21,10.199 -20.403,10.204 L 904,965.801 884.801,976 l -18.602,10.199 -18,9.602 -17.398,9.599 -16.801,9.6 -16.199,9 -15,9 -14.403,8.4 -13.796,8.4 -13.204,8.4 -12.597,7.8 -11.403,7.8 -11.398,7.2 -18,12 -16.199,12 -15,11.4 -14.403,10.8 -13.199,11.4 -12,10.8 -11.398,10.8 -10.199,10.8 -9.602,10.8 -9,10.8 -7.801,10.8 -7.199,10.2 -6.602,10.8 -6,10.2 -6,10.8 -5.398,10.2 -4.801,10.2 -4.801,10.8 -4.796,10.8 -4.801,10.8 -5.403,10.8 -4.796,10.8 -5.403,12 -6,11.4 -6,12.6 -6,13.2 -6.597,13.2 -7.204,13.2 -6.597,13.8 -7.199,13.8 -7.801,13.8 -7.199,13.8 -7.204,13.2 -7.796,12.6 -7.204,12 -6.597,11.4 -7.199,11.4 -6.602,9.6 -6,9.6 -6.602,8.4 -5.398,7.8 -6,6.6 -3.602,4.2 -3.597,4.2 -3.602,3 -3.597,3.6 -3,2.4 -3.602,2.4 -3.602,2.4 -3,1.2 -3.597,1.2 -3,0.6 -3.602,0.6 -3,-0.6 -3,-0.6 -3,-1.2 -3,-1.8 -3,-2.4 -3,-3 -3,-3.6 -2.398,-4.2 -3,-4.8 -2.403,-4.8 -2.398,-6 -2.398,-6.6 -1.801,-6.6 -2.403,-7.8 -1.796,-7.8 -1.801,-9 -1.801,-9 -1.801,-9.6 -1.801,-10.2 -1.199,-10.2 -1.801,-11.4 -1.199,-12 -1.199,-12.6 -1.199,-11.4 -0.602,-12 -1.199,-13.2 -0.602,-13.2 v -13.8 l -0.597,-14.4 0.597,-15.6 0.602,-15.6 0.602,-16.2 1.796,-17.4 1.801,-17.4 3,-18 3,-18.6 4.199,-18.6 4.801,-19.8 5.403,-19.2 6.597,-20.4 7.199,-20.4 7.801,-20.4 9,-20.4 10.199,-21 10.801,-20.4 12,-21 12.602,-20.4 13.801,-20.4 15,-19.801 16.199,-20.398 16.801,-19.199 18,-19.801 19.199,-18.602 19.801,-18.597 21.597,-18 22.199,-18 23.403,-17.403 24.597,-16.801 25.801,-16.796 27,-16.204 z"
                 style="fill:none;stroke:#decba5;stroke-width:4.5;stroke-linecap:butt;stroke-linejoin:bevel;stroke-miterlimit:10;stroke-dasharray:none;stroke-opacity:1"
                 id="path1234" />
              <path
                 d="m 4148.8,2056 18.6,1.8 19.2,1.8 19.2,1.2 19.8,0.6 h 38.4 l 19.8,-0.6 19.8,-1.2 19.8,-1.8 19.8,-2.4 19.8,-3 19.8,-3.6 19.8,-4.8 19.2,-4.8 19.8,-6 19.2,-6 18.6,-7.2 18.6,-8.4 18.6,-8.4 17.4,-9.6 17.4,-10.8 16.8,-10.8 16.2,-12 15.6,-12.6 15,-13.8 13.8,-13.8 13.8,-15 12.6,-15.6 11.4,-16.8 11.4,-16.8 10.2,-18 9,-18.6 8.4,-19.2 7.8,-20.4 6.6,-20.4 6,-21.6 4.8,-22.2 4.2,-22.8 3.6,-24 2.4,-25.2 1.2,-22.2 1.2,-22.8 v -48.6 l -1.2,-25.2 -1.8,-26.4 -2.4,-27 -3,-27.6 -3,-28.8 -4.2,-28.8 -4.8,-30 -5.4,-30.6 -6,-30.6 -6.6,-31.8 -6.6,-31.8 -7.8,-32.4 -8.4,-33 -8.4,-33 -9,-33.6 -10.2,-33 -9.6,-33.6 -10.8,-33.599 -10.8,-33 -11.4,-33 -12,-33 -12,-32.403 -12,-31.796 -12.6,-31.204 -13.2,-30.597 -13.2,-30.602 -13.2,-29.398 -13.2,-28.199 -13.2,-27.602 -13.8,-27 -13.2,-25.801 -13.8,-24.597 -13.8,-24 -13.2,-22.801 -13.8,-21.602 L 4402,491.801 4388.2,472 4375,453.398 4361.2,436.602 4348,420.398 4334.2,404.801 4321,391 l -15.6,-15 -15.6,-13.199 -15.6,-12 -15.6,-10.801 -15.6,-9 -15.6,-8.398 -16.2,-6.602 -15.6,-6 -16.2,-4.199 -16.2,-3 -16.2,-2.403 -16.2,-0.597 -16.2,0.597 -16.2,1.204 -16.2,3 -16.2,3.597 -16.2,4.801 -15.6,6 -15.6,6.602 -15.6,7.796 -15,8.403 -14.4,9.597 -14.4,10.204 -13.8,11.398 -13.8,11.398 -13.2,12 -12.6,13.204 -12,13.199 -12,13.801 -10.8,13.796 -10.8,14.403 -10.2,14.398 -9.6,15 -9,15 -8.4,15 -7.8,15.602 -7.2,15 -7.2,15.597 -6.6,15 -5.4,15.602 -7.2,19.199 -6,19.801 -5.4,19.801 -4.8,19.801 -4.2,20.398 -3.6,20.398 -3,21 -3,21 -1.8,21.602 -1.8,21.602 -1.8,21.597 -0.6,22.199 -0.6,22.204 -0.6,22.199 v 65.398 l 0.6,21.602 0.6,21.599 0.6,20.4 0.6,20.4 0.6,19.8 0.6,19.8 0.6,18.6 v 52.8 l -0.6,16.2 -0.6,16.2 -0.6,15 -1.8,15 -1.2,14.4 -3,17.4 -3.6,16.2 -3.6,16.8 -4.8,15.6 -6,15.6 -6,15.6 -6.6,15 -7.8,15 -8.4,14.4 -9,13.8 -9.6,13.8 -10.8,13.2 -10.8,13.2 -11.4,12 -11.4,12 -12.6,11.4 -12,10.8 -12.6,10.2 -13.2,9.6 -12.6,9 -13.2,8.4 -13.2,7.8 -13.2,7.8 -13.2,7.2 -13.2,6.6 -13.2,6.6 -15,6.6 -15,6.6 -15.6,6.6 -15.6,6 -15.6,6 -16.8,6 -16.2,6 -16.8,6 -16.8,6 -16.8,6 -16.8,5.4 -16.2,6 -16.2,5.4 -15.6,5.4 -15,5.4 -14.4,5.4 -13.8,4.8 -12.6,5.4 -11.4,4.8 -10.8,5.4 -10.2,4.8 -9,4.8 -8.4,5.4 -7.2,4.8 -6.6,5.4 -5.4,5.4 -5.4,5.4 -4.2,5.4 -3,6 -3,6 -2.4,6.6 -1.2,6 -0.6,6 -0.6,6.6 0.6,6 1.2,6 1.8,6 2.4,5.4 2.4,5.4 3.6,5.4 3.6,4.8 3.6,4.2 4.2,4.2 4.8,3.6 4.2,3 4.8,3 5.4,2.4 4.8,1.8 6.6,1.8 6.6,1.2 7.2,0.6 7.2,0.6 8.4,0.6 h 42.6 l 13.2,0.6 13.8,0.6 15,0.6 15.6,1.8 16.2,1.8 17.4,3 18.6,3 18.6,4.2 19.8,4.8 21,5.4 22.2,6.6 13.8,4.8 13.8,4.8 15,5.4 15,5.4 16.2,6 16.8,6 17.4,6.6 18,7.2 18.6,7.2 19.2,7.2 19.8,7.8 21,7.8 21,7.8 22.2,8.4 22.2,8.4 22.8,8.4 22.8,7.8 23.4,8.4 23.4,7.8 24,8.4 24,7.8 24,7.2 24,7.2 24,7.2 23.4,6.6 24,6 23.4,6 23.4,5.4 22.8,4.8 22.8,4.2 22.8,4.2 22.8,3.6 22.2,3.6"
                 style="fill:#decba5;fill-opacity:1;fill-rule:evenodd;stroke:none"
                 id="path1236" />
              <path
                 d="m 4148.8,2056 18.6,1.8 19.2,1.8 19.2,1.2 19.8,0.6 h 38.4 l 19.8,-0.6 19.8,-1.2 19.8,-1.8 19.8,-2.4 19.8,-3 19.8,-3.6 19.8,-4.8 19.2,-4.8 19.8,-6 19.2,-6 18.6,-7.2 18.6,-8.4 18.6,-8.4 17.4,-9.6 17.4,-10.8 16.8,-10.8 16.2,-12 15.6,-12.6 15,-13.8 13.8,-13.8 13.8,-15 12.6,-15.6 11.4,-16.8 11.4,-16.8 10.2,-18 9,-18.6 8.4,-19.2 7.8,-20.4 6.6,-20.4 6,-21.6 4.8,-22.2 4.2,-22.8 3.6,-24 2.4,-25.2 1.2,-22.2 1.2,-22.8 v -48.6 l -1.2,-25.2 -1.8,-26.4 -2.4,-27 -3,-27.6 -3,-28.8 -4.2,-28.8 -4.8,-30 -5.4,-30.6 -6,-30.6 -6.6,-31.8 -6.6,-31.8 -7.8,-32.4 -8.4,-33 -8.4,-33 -9,-33.6 -10.2,-33 -9.6,-33.6 -10.8,-33.599 -10.8,-33 -11.4,-33 -12,-33 -12,-32.403 -12,-31.796 -12.6,-31.204 -13.2,-30.597 -13.2,-30.602 -13.2,-29.398 -13.2,-28.199 -13.2,-27.602 -13.8,-27 -13.2,-25.801 -13.8,-24.597 -13.8,-24 -13.2,-22.801 -13.8,-21.602 L 4402,491.801 4388.2,472 4375,453.398 4361.2,436.602 4348,420.398 4334.2,404.801 4321,391 l -15.6,-15 -15.6,-13.199 -15.6,-12 -15.6,-10.801 -15.6,-9 -15.6,-8.398 -16.2,-6.602 -15.6,-6 -16.2,-4.199 -16.2,-3 -16.2,-2.403 -16.2,-0.597 -16.2,0.597 -16.2,1.204 -16.2,3 -16.2,3.597 -16.2,4.801 -15.6,6 -15.6,6.602 -15.6,7.796 -15,8.403 -14.4,9.597 -14.4,10.204 -13.8,11.398 -13.8,11.398 -13.2,12 -12.6,13.204 -12,13.199 -12,13.801 -10.8,13.796 -10.8,14.403 -10.2,14.398 -9.6,15 -9,15 -8.4,15 -7.8,15.602 -7.2,15 -7.2,15.597 -6.6,15 -5.4,15.602 -7.2,19.199 -6,19.801 -5.4,19.801 -4.8,19.801 -4.2,20.398 -3.6,20.398 -3,21 -3,21 -1.8,21.602 -1.8,21.602 -1.8,21.597 -0.6,22.199 -0.6,22.204 -0.6,22.199 v 65.398 l 0.6,21.602 0.6,21.599 0.6,20.4 0.6,20.4 0.6,19.8 0.6,19.8 0.6,18.6 v 52.8 l -0.6,16.2 -0.6,16.2 -0.6,15 -1.8,15 -1.2,14.4 -3,17.4 -3.6,16.2 -3.6,16.8 -4.8,15.6 -6,15.6 -6,15.6 -6.6,15 -7.8,15 -8.4,14.4 -9,13.8 -9.6,13.8 -10.8,13.2 -10.8,13.2 -11.4,12 -11.4,12 -12.6,11.4 -12,10.8 -12.6,10.2 -13.2,9.6 -12.6,9 -13.2,8.4 -13.2,7.8 -13.2,7.8 -13.2,7.2 -13.2,6.6 -13.2,6.6 -15,6.6 -15,6.6 -15.6,6.6 -15.6,6 -15.6,6 -16.8,6 -16.2,6 -16.8,6 -16.8,6 -16.8,6 -16.8,5.4 -16.2,6 -16.2,5.4 -15.6,5.4 -15,5.4 -14.4,5.4 -13.8,4.8 -12.6,5.4 -11.4,4.8 -10.8,5.4 -10.2,4.8 -9,4.8 -8.4,5.4 -7.2,4.8 -6.6,5.4 -5.4,5.4 -5.4,5.4 -4.2,5.4 -3,6 -3,6 -2.4,6.6 -1.2,6 -0.6,6 -0.6,6.6 0.6,6 1.2,6 1.8,6 2.4,5.4 2.4,5.4 3.6,5.4 3.6,4.8 3.6,4.2 4.2,4.2 4.8,3.6 4.2,3 4.8,3 5.4,2.4 4.8,1.8 6.6,1.8 6.6,1.2 7.2,0.6 7.2,0.6 8.4,0.6 h 42.6 l 13.2,0.6 13.8,0.6 15,0.6 15.6,1.8 16.2,1.8 17.4,3 18.6,3 18.6,4.2 19.8,4.8 21,5.4 22.2,6.6 13.8,4.8 13.8,4.8 15,5.4 15,5.4 16.2,6 16.8,6 17.4,6.6 18,7.2 18.6,7.2 19.2,7.2 19.8,7.8 21,7.8 21,7.8 22.2,8.4 22.2,8.4 22.8,8.4 22.8,7.8 23.4,8.4 23.4,7.8 24,8.4 24,7.8 24,7.2 24,7.2 24,7.2 23.4,6.6 24,6 23.4,6 23.4,5.4 22.8,4.8 22.8,4.2 22.8,4.2 22.8,3.6 22.2,3.6 z"
                 style="fill:none;stroke:#decba5;stroke-width:4.5;stroke-linecap:butt;stroke-linejoin:bevel;stroke-miterlimit:10;stroke-dasharray:none;stroke-opacity:1"
                 id="path1238" />
              <path
                 d="m 3218.8,3031 -4.2,-15.6 -3.6,-15 -2.4,-15.6 -2.4,-15.6 -1.2,-15.6 -1.2,-15.6 v -15.6 l 0.6,-16.2 1.8,-15.6 1.8,-15.6 3,-15.6 3.6,-15 4.8,-15 4.8,-14.4 6,-14.4 6.6,-13.2 6.6,-13.2 7.8,-12 8.4,-12 8.4,-10.8 9.6,-10.2 9.6,-10.2 10.2,-9 11.4,-9 9.6,-7.2 10.2,-7.2 10.8,-6.6 11.4,-6.6 12.6,-6 12.6,-6 13.8,-6 14.4,-6 15,-5.4 15.6,-4.8 16.2,-5.4 16.8,-4.8 17.4,-4.2 18,-4.2 18,-4.2 18.6,-3.6 19.2,-3.6 19.2,-3 19.2,-3 19.8,-2.4 19.2,-2.4 19.8,-2.4 19.2,-1.8 19.8,-1.2 19.2,-1.8 19.8,-1.2 19.8,-0.6 19.8,-1.2 21,-0.6 22.2,-0.6 h 67.8 l 23.4,0.6 23.4,0.6 23.4,1.2 23.4,1.2 22.8,1.8 22.8,2.4 21.6,2.4 21,3 20.4,3 19.2,3.6 17.4,4.2 16.2,4.2 15,4.8 13.2,5.4 11.4,5.4 9,5.4 7.8,6.6 6,6.6 4.2,6.6 1.8,7.2 0.6,7.8 -1.8,8.4 -3.6,8.4 -6,9 -7.2,10.2 -8.4,10.2 -10.8,10.8 -12,11.4 -13.8,12 -14.4,12 -16.2,12.6 -16.8,13.2 -17.4,13.2 -18.6,13.2 -18.6,13.2 -18.6,13.8 -18.6,13.2 -18.6,13.2 -18,12.6 -18,12.6 -16.8,12.6 -15.6,11.4 -15,11.4 -13.8,10.8 -12.6,10.8 -11.4,10.2 -10.2,9.6 -7.2,7.8 -6.6,7.2 -5.4,7.2 -5.4,7.2 -4.2,7.2 -3,6.6 -3,6.6 -1.8,6.6 -1.2,6.6 v 12 l 1.2,6 1.8,6 2.4,5.4 3,5.4 4.2,5.4 4.2,4.8 4.8,4.8 5.4,4.8 6,4.2 6.6,4.2 6.6,4.2 7.2,3.6 7.2,3 7.8,3.6 7.8,3 8.4,2.4 8.4,3 8.4,2.4 8.4,2.4 9,1.8 9,1.8 12,3 12.6,1.8 13.2,2.4 13.2,1.8 13.8,2.4 15,1.2 14.4,1.8 15.6,1.8 15.6,1.2 16.2,1.8 16.2,1.2 16.8,1.2 16.8,1.2 16.2,1.2 16.8,1.8 16.2,1.2 16.2,1.2 15.6,1.2 15.6,1.2 15,1.2 15,1.2 13.8,1.8 14.4,1.2 13.8,1.8 8.4,1.2 9,1.2 8.4,1.2 8.4,1.2 8.4,1.2 8.4,1.8 8.4,1.8 7.8,1.2 8.4,1.8 7.8,1.8 7.2,2.4 7.8,1.8 7.2,2.4 6.6,2.4 6.6,2.4 6,2.4 5.4,2.4 5.4,3 4.8,2.4 4.2,3 3.6,3 3,3 2.4,3.6 2.4,3 1.2,3.6 0.6,3.6 v 3 l -0.6,3.6 -1.2,3.6 -2.4,4.2 -2.4,3.6 -3.6,3.6 -3.6,4.2 -4.8,3.6 -6,4.2 -6,4.2 -7.2,4.2 -7.2,4.2 -10.8,5.4 -11.4,5.4 -12,5.4 -13.8,6 -15,6 -15.6,6 -17.4,6 -18,6.6 -19.2,6.6 -19.8,6.6 -21,7.2 -22.2,6.6 -22.2,7.2 -23.4,7.2 -23.4,6.6 -24,7.2 -24,6.6 -24.6,7.2 -24.6,6.6 -24,6.6 -24,6 -24,6 -23.4,6 -22.2,5.4 -22.2,5.4 -21.6,5.4 -21,4.8 -19.8,4.2 -19.8,4.2 -18.6,4.2 -17.4,3.6 -17.4,3 -21.6,4.2 -21,3.6 -19.8,3 -18.6,3 -18.6,1.8 -17.4,1.8 -16.8,0.6 -16.8,0.6 h -15.6 l -15,-1.2 -14.4,-1.8 -13.8,-1.8 -13.2,-3 -12.6,-3.6 -12,-4.2 -11.4,-4.8 -10.8,-5.4 -10.8,-6 -10.2,-6 -9.6,-7.2 -9.6,-7.8 -9,-7.8 -9.6,-8.4 -9,-9.6 -9,-9 -9,-9 -9.6,-10.2 -9.6,-11.4 -9.6,-11.4 -9.6,-12 -10.2,-12.6 -10.2,-13.8 -10.8,-13.8 -10.2,-15 -10.8,-15 -10.2,-15.6 -10.2,-15.6 -10.2,-16.2 -9.6,-16.2 -9.6,-16.2 -9,-16.2 -8.4,-16.2 -8.4,-16.2 -7.2,-16.2 -7.2,-15.6 -6.6,-15 -6,-15 -4.8,-15 -4.8,-14.4"
                 style="fill:#decba5;fill-opacity:1;fill-rule:evenodd;stroke:none"
                 id="path1240" />
              <path
                 d="m 3218.8,3031 -4.2,-15.6 -3.6,-15 -2.4,-15.6 -2.4,-15.6 -1.2,-15.6 -1.2,-15.6 v -15.6 l 0.6,-16.2 1.8,-15.6 1.8,-15.6 3,-15.6 3.6,-15 4.8,-15 4.8,-14.4 6,-14.4 6.6,-13.2 6.6,-13.2 7.8,-12 8.4,-12 8.4,-10.8 9.6,-10.2 9.6,-10.2 10.2,-9 11.4,-9 9.6,-7.2 10.2,-7.2 10.8,-6.6 11.4,-6.6 12.6,-6 12.6,-6 13.8,-6 14.4,-6 15,-5.4 15.6,-4.8 16.2,-5.4 16.8,-4.8 17.4,-4.2 18,-4.2 18,-4.2 18.6,-3.6 19.2,-3.6 19.2,-3 19.2,-3 19.8,-2.4 19.2,-2.4 19.8,-2.4 19.2,-1.8 19.8,-1.2 19.2,-1.8 19.8,-1.2 19.8,-0.6 19.8,-1.2 21,-0.6 22.2,-0.6 h 67.8 l 23.4,0.6 23.4,0.6 23.4,1.2 23.4,1.2 22.8,1.8 22.8,2.4 21.6,2.4 21,3 20.4,3 19.2,3.6 17.4,4.2 16.2,4.2 15,4.8 13.2,5.4 11.4,5.4 9,5.4 7.8,6.6 6,6.6 4.2,6.6 1.8,7.2 0.6,7.8 -1.8,8.4 -3.6,8.4 -6,9 -7.2,10.2 -8.4,10.2 -10.8,10.8 -12,11.4 -13.8,12 -14.4,12 -16.2,12.6 -16.8,13.2 -17.4,13.2 -18.6,13.2 -18.6,13.2 -18.6,13.8 -18.6,13.2 -18.6,13.2 -18,12.6 -18,12.6 -16.8,12.6 -15.6,11.4 -15,11.4 -13.8,10.8 -12.6,10.8 -11.4,10.2 -10.2,9.6 -7.2,7.8 -6.6,7.2 -5.4,7.2 -5.4,7.2 -4.2,7.2 -3,6.6 -3,6.6 -1.8,6.6 -1.2,6.6 v 12 l 1.2,6 1.8,6 2.4,5.4 3,5.4 4.2,5.4 4.2,4.8 4.8,4.8 5.4,4.8 6,4.2 6.6,4.2 6.6,4.2 7.2,3.6 7.2,3 7.8,3.6 7.8,3 8.4,2.4 8.4,3 8.4,2.4 8.4,2.4 9,1.8 9,1.8 12,3 12.6,1.8 13.2,2.4 13.2,1.8 13.8,2.4 15,1.2 14.4,1.8 15.6,1.8 15.6,1.2 16.2,1.8 16.2,1.2 16.8,1.2 16.8,1.2 16.2,1.2 16.8,1.8 16.2,1.2 16.2,1.2 15.6,1.2 15.6,1.2 15,1.2 15,1.2 13.8,1.8 14.4,1.2 13.8,1.8 8.4,1.2 9,1.2 8.4,1.2 8.4,1.2 8.4,1.2 8.4,1.8 8.4,1.8 7.8,1.2 8.4,1.8 7.8,1.8 7.2,2.4 7.8,1.8 7.2,2.4 6.6,2.4 6.6,2.4 6,2.4 5.4,2.4 5.4,3 4.8,2.4 4.2,3 3.6,3 3,3 2.4,3.6 2.4,3 1.2,3.6 0.6,3.6 v 3 l -0.6,3.6 -1.2,3.6 -2.4,4.2 -2.4,3.6 -3.6,3.6 -3.6,4.2 -4.8,3.6 -6,4.2 -6,4.2 -7.2,4.2 -7.2,4.2 -10.8,5.4 -11.4,5.4 -12,5.4 -13.8,6 -15,6 -15.6,6 -17.4,6 -18,6.6 -19.2,6.6 -19.8,6.6 -21,7.2 -22.2,6.6 -22.2,7.2 -23.4,7.2 -23.4,6.6 -24,7.2 -24,6.6 -24.6,7.2 -24.6,6.6 -24,6.6 -24,6 -24,6 -23.4,6 -22.2,5.4 -22.2,5.4 -21.6,5.4 -21,4.8 -19.8,4.2 -19.8,4.2 -18.6,4.2 -17.4,3.6 -17.4,3 -21.6,4.2 -21,3.6 -19.8,3 -18.6,3 -18.6,1.8 -17.4,1.8 -16.8,0.6 -16.8,0.6 h -15.6 l -15,-1.2 -14.4,-1.8 -13.8,-1.8 -13.2,-3 -12.6,-3.6 -12,-4.2 -11.4,-4.8 -10.8,-5.4 -10.8,-6 -10.2,-6 -9.6,-7.2 -9.6,-7.8 -9,-7.8 -9.6,-8.4 -9,-9.6 -9,-9 -9,-9 -9.6,-10.2 -9.6,-11.4 -9.6,-11.4 -9.6,-12 -10.2,-12.6 -10.2,-13.8 -10.8,-13.8 -10.2,-15 -10.8,-15 -10.2,-15.6 -10.2,-15.6 -10.2,-16.2 -9.6,-16.2 -9.6,-16.2 -9,-16.2 -8.4,-16.2 -8.4,-16.2 -7.2,-16.2 -7.2,-15.6 -6.6,-15 -6,-15 -4.8,-15 -4.8,-14.4 z"
                 style="fill:none;stroke:#decba5;stroke-width:4.5;stroke-linecap:butt;stroke-linejoin:bevel;stroke-miterlimit:10;stroke-dasharray:none;stroke-opacity:1"
                 id="path1242" />
              <path
                 d="m 2116,1666 c 0,-24.85 -20.15,-45 -45,-45 -24.85,0 -45,20.15 -45,45 0,24.85 20.15,45 45,45 24.85,0 45,-20.15 45,-45"
                 style="fill:#ff00ff;fill-opacity:1;fill-rule:evenodd;stroke:none"
                 id="path1244" />
              <path
                 d="m 2116,1666 c 0,-24.85 -20.15,-45 -45,-45 -24.85,0 -45,20.15 -45,45 0,24.85 20.15,45 45,45 24.85,0 45,-20.15 45,-45 z"
                 style="fill:none;stroke:#ff00ff;stroke-width:4.5;stroke-linecap:butt;stroke-linejoin:bevel;stroke-miterlimit:10;stroke-dasharray:none;stroke-opacity:1"
                 id="path1246" />
              <path
                 d="m 4096,3691 c 0,-24.85 -20.15,-45 -45,-45 -24.85,0 -45,20.15 -45,45 0,24.85 20.15,45 45,45 24.85,0 45,-20.15 45,-45"
                 style="fill:#f76900;fill-opacity:1;fill-rule:evenodd;stroke:none"
                 id="path1248" />
              <path
                 d="m 4096,3691 c 0,-24.85 -20.15,-45 -45,-45 -24.85,0 -45,20.15 -45,45 0,24.85 20.15,45 45,45 24.85,0 45,-20.15 45,-45 z"
                 style="fill:none;stroke:#f76900;stroke-width:4.5;stroke-linecap:butt;stroke-linejoin:bevel;stroke-miterlimit:10;stroke-dasharray:none;stroke-opacity:1"
                 id="path1250" />
              <path
                 d="m 1081,271 c 0,-24.852 -20.15,-45 -45,-45 -24.85,0 -45,20.148 -45,45 0,24.852 20.15,45 45,45 24.85,0 45,-20.148 45,-45"
                 style="fill:#f76900;fill-opacity:1;fill-rule:evenodd;stroke:none"
                 id="path1252" />
              <path
                 d="m 1081,271 c 0,-24.852 -20.15,-45 -45,-45 -24.85,0 -45,20.148 -45,45 0,24.852 20.15,45 45,45 24.85,0 45,-20.148 45,-45 z"
                 style="fill:none;stroke:#f76900;stroke-width:4.5;stroke-linecap:butt;stroke-linejoin:bevel;stroke-miterlimit:10;stroke-dasharray:none;stroke-opacity:1"
                 id="path1254" />
              <path
                 d="m 1171,3016 c 0,-24.85 -20.15,-45 -45,-45 -24.85,0 -45,20.15 -45,45 0,24.85 20.15,45 45,45 24.85,0 45,-20.15 45,-45"
                 style="fill:#ff00ff;fill-opacity:1;fill-rule:evenodd;stroke:none"
                 id="path1256" />
              <path
                 d="m 1171,3016 c 0,-24.85 -20.15,-45 -45,-45 -24.85,0 -45,20.15 -45,45 0,24.85 20.15,45 45,45 24.85,0 45,-20.15 45,-45 z"
                 style="fill:none;stroke:#ff00ff;stroke-width:4.5;stroke-linecap:butt;stroke-linejoin:bevel;stroke-miterlimit:10;stroke-dasharray:none;stroke-opacity:1"
                 id="path1258" />
              <path
                 d="m 1846,3511 c 0,-24.85 -20.15,-45 -45,-45 -24.85,0 -45,20.15 -45,45 0,24.85 20.15,45 45,45 24.85,0 45,-20.15 45,-45"
                 style="fill:#ff00ff;fill-opacity:1;fill-rule:evenodd;stroke:none"
                 id="path1260" />
              <path
                 d="m 1846,3511 c 0,-24.85 -20.15,-45 -45,-45 -24.85,0 -45,20.15 -45,45 0,24.85 20.15,45 45,45 24.85,0 45,-20.15 45,-45 z"
                 style="fill:none;stroke:#ff00ff;stroke-width:4.5;stroke-linecap:butt;stroke-linejoin:bevel;stroke-miterlimit:10;stroke-dasharray:none;stroke-opacity:1"
                 id="path1262" />
              <path
                 d="m 3781,3196 c 0,-24.85 -20.15,-45 -45,-45 -24.85,0 -45,20.15 -45,45 0,24.85 20.15,45 45,45 24.85,0 45,-20.15 45,-45"
                 style="fill:#ff00ff;fill-opacity:1;fill-rule:evenodd;stroke:none"
                 id="path1264" />
              <path
                 d="m 3781,3196 c 0,-24.85 -20.15,-45 -45,-45 -24.85,0 -45,20.15 -45,45 0,24.85 20.15,45 45,45 24.85,0 45,-20.15 45,-45 z"
                 style="fill:none;stroke:#ff00ff;stroke-width:4.5;stroke-linecap:butt;stroke-linejoin:bevel;stroke-miterlimit:10;stroke-dasharray:none;stroke-opacity:1"
                 id="path1266" />
              <path
                 d="m 3511,2881 c 0,-24.85 -20.15,-45 -45,-45 -24.85,0 -45,20.15 -45,45 0,24.85 20.15,45 45,45 24.85,0 45,-20.15 45,-45"
                 style="fill:#ff00ff;fill-opacity:1;fill-rule:evenodd;stroke:none"
                 id="path1268" />
              <path
                 d="m 3511,2881 c 0,-24.85 -20.15,-45 -45,-45 -24.85,0 -45,20.15 -45,45 0,24.85 20.15,45 45,45 24.85,0 45,-20.15 45,-45 z"
                 style="fill:none;stroke:#ff00ff;stroke-width:4.5;stroke-linecap:butt;stroke-linejoin:bevel;stroke-miterlimit:10;stroke-dasharray:none;stroke-opacity:1"
                 id="path1270" />
              <path
                 d="m 3871,946 c 0,-24.852 -20.15,-45 -45,-45 -24.85,0 -45,20.148 -45,45 0,24.852 20.15,45 45,45 24.85,0 45,-20.148 45,-45"
                 style="fill:#ff00ff;fill-opacity:1;fill-rule:evenodd;stroke:none"
                 id="path1272" />
              <path
                 d="m 3871,946 c 0,-24.852 -20.15,-45 -45,-45 -24.85,0 -45,20.148 -45,45 0,24.852 20.15,45 45,45 24.85,0 45,-20.148 45,-45 z"
                 style="fill:none;stroke:#ff00ff;stroke-width:4.5;stroke-linecap:butt;stroke-linejoin:bevel;stroke-miterlimit:10;stroke-dasharray:none;stroke-opacity:1"
                 id="path1274" />
              <path
                 d="m 3871,1621 c 0,-24.85 -20.15,-45 -45,-45 -24.85,0 -45,20.15 -45,45 0,24.85 20.15,45 45,45 24.85,0 45,-20.15 45,-45"
                 style="fill:#ff00ff;fill-opacity:1;fill-rule:evenodd;stroke:none"
                 id="path1276" />
              <path
                 d="m 3871,1621 c 0,-24.85 -20.15,-45 -45,-45 -24.85,0 -45,20.15 -45,45 0,24.85 20.15,45 45,45 24.85,0 45,-20.15 45,-45 z"
                 style="fill:none;stroke:#ff00ff;stroke-width:4.5;stroke-linecap:butt;stroke-linejoin:bevel;stroke-miterlimit:10;stroke-dasharray:none;stroke-opacity:1"
                 id="path1278" />
              <path
                 d="m 4366,1351 c 0,-24.85 -20.15,-45 -45,-45 -24.85,0 -45,20.15 -45,45 0,24.85 20.15,45 45,45 24.85,0 45,-20.15 45,-45"
                 style="fill:#ff00ff;fill-opacity:1;fill-rule:evenodd;stroke:none"
                 id="path1280" />
              <path
                 d="m 4366,1351 c 0,-24.85 -20.15,-45 -45,-45 -24.85,0 -45,20.15 -45,45 0,24.85 20.15,45 45,45 24.85,0 45,-20.15 45,-45 z"
                 style="fill:none;stroke:#ff00ff;stroke-width:4.5;stroke-linecap:butt;stroke-linejoin:bevel;stroke-miterlimit:10;stroke-dasharray:none;stroke-opacity:1"
                 id="path1282" />
              <path
                 d="m 4186,361 c 0,-24.852 -20.15,-45 -45,-45 -24.85,0 -45,20.148 -45,45 0,24.852 20.15,45 45,45 24.85,0 45,-20.148 45,-45"
                 style="fill:#ff00ff;fill-opacity:1;fill-rule:evenodd;stroke:none"
                 id="path1284" />
              <path
                 d="m 4186,361 c 0,-24.852 -20.15,-45 -45,-45 -24.85,0 -45,20.148 -45,45 0,24.852 20.15,45 45,45 24.85,0 45,-20.148 45,-45 z"
                 style="fill:none;stroke:#ff00ff;stroke-width:4.5;stroke-linecap:butt;stroke-linejoin:bevel;stroke-miterlimit:10;stroke-dasharray:none;stroke-opacity:1"
                 id="path1286" />
              <path
                 d="m 586,1081 c 0,-24.85 -20.148,-45 -45,-45 -24.852,0 -45,20.15 -45,45 0,24.85 20.148,45 45,45 24.852,0 45,-20.15 45,-45"
                 style="fill:#ff00ff;fill-opacity:1;fill-rule:evenodd;stroke:none"
                 id="path1288" />
              <path
                 d="m 586,1081 c 0,-24.85 -20.148,-45 -45,-45 -24.852,0 -45,20.15 -45,45 0,24.85 20.148,45 45,45 24.852,0 45,-20.15 45,-45 z"
                 style="fill:none;stroke:#ff00ff;stroke-width:4.5;stroke-linecap:butt;stroke-linejoin:bevel;stroke-miterlimit:10;stroke-dasharray:none;stroke-opacity:1"
                 id="path1290" />
              <path
                 d="M 91,91 H 5131 V 3871 H 91 Z"
                 style="fill:none;stroke:#decba5;stroke-width:27;stroke-linecap:butt;stroke-linejoin:miter;stroke-miterlimit:10;stroke-dasharray:none;stroke-opacity:1"
                 id="path1292" />
              <path
                 d="m 316,451 c 0,-24.852 -20.148,-45 -45,-45 -24.852,0 -45,20.148 -45,45 0,24.852 20.148,45 45,45 24.852,0 45,-20.148 45,-45"
                 style="fill:#f76900;fill-opacity:1;fill-rule:evenodd;stroke:none"
                 id="path1294" />
              <path
                 d="m 316,451 c 0,-24.852 -20.148,-45 -45,-45 -24.852,0 -45,20.148 -45,45 0,24.852 20.148,45 45,45 24.852,0 45,-20.148 45,-45 z"
                 style="fill:none;stroke:#f76900;stroke-width:4.5;stroke-linecap:butt;stroke-linejoin:miter;stroke-miterlimit:10;stroke-dasharray:none;stroke-opacity:1"
                 id="path1296" />
              <path
                 d="m 316,2206 c 0,-24.85 -20.148,-45 -45,-45 -24.852,0 -45,20.15 -45,45 0,24.85 20.148,45 45,45 24.852,0 45,-20.15 45,-45"
                 style="fill:#f76900;fill-opacity:1;fill-rule:evenodd;stroke:none"
                 id="path1298" />
              <path
                 d="m 316,2206 c 0,-24.85 -20.148,-45 -45,-45 -24.852,0 -45,20.15 -45,45 0,24.85 20.148,45 45,45 24.852,0 45,-20.15 45,-45 z"
                 style="fill:none;stroke:#f76900;stroke-width:4.5;stroke-linecap:butt;stroke-linejoin:miter;stroke-miterlimit:10;stroke-dasharray:none;stroke-opacity:1"
                 id="path1300" />
              <path
                 d="m 226,3241 c 0,-24.85 -20.148,-45 -45,-45 -24.852,0 -45,20.15 -45,45 0,24.85 20.148,45 45,45 24.852,0 45,-20.15 45,-45"
                 style="fill:#f76900;fill-opacity:1;fill-rule:evenodd;stroke:none"
                 id="path1302" />
              <path
                 d="m 226,3241 c 0,-24.85 -20.148,-45 -45,-45 -24.852,0 -45,20.15 -45,45 0,24.85 20.148,45 45,45 24.852,0 45,-20.15 45,-45 z"
                 style="fill:none;stroke:#f76900;stroke-width:4.5;stroke-linecap:butt;stroke-linejoin:miter;stroke-miterlimit:10;stroke-dasharray:none;stroke-opacity:1"
                 id="path1304" />
              <path
                 d="m 541,3601 c 0,-24.85 -20.148,-45 -45,-45 -24.852,0 -45,20.15 -45,45 0,24.85 20.148,45 45,45 24.852,0 45,-20.15 45,-45"
                 style="fill:#f76900;fill-opacity:1;fill-rule:evenodd;stroke:none"
                 id="path1306" />
              <path
                 d="m 541,3601 c 0,-24.85 -20.148,-45 -45,-45 -24.852,0 -45,20.15 -45,45 0,24.85 20.148,45 45,45 24.852,0 45,-20.15 45,-45 z"
                 style="fill:none;stroke:#f76900;stroke-width:4.5;stroke-linecap:butt;stroke-linejoin:miter;stroke-miterlimit:10;stroke-dasharray:none;stroke-opacity:1"
                 id="path1308" />
              <path
                 d="m 631,1621 c 0,-24.85 -20.148,-45 -45,-45 -24.852,0 -45,20.15 -45,45 0,24.85 20.148,45 45,45 24.852,0 45,-20.15 45,-45"
                 style="fill:#f76900;fill-opacity:1;fill-rule:evenodd;stroke:none"
                 id="path1310" />
              <path
                 d="m 631,1621 c 0,-24.85 -20.148,-45 -45,-45 -24.852,0 -45,20.15 -45,45 0,24.85 20.148,45 45,45 24.852,0 45,-20.15 45,-45 z"
                 style="fill:none;stroke:#f76900;stroke-width:4.5;stroke-linecap:butt;stroke-linejoin:miter;stroke-miterlimit:10;stroke-dasharray:none;stroke-opacity:1"
                 id="path1312" />
              <path
                 d="m 1486,2251 c 0,-24.85 -20.15,-45 -45,-45 -24.85,0 -45,20.15 -45,45 0,24.85 20.15,45 45,45 24.85,0 45,-20.15 45,-45"
                 style="fill:#f76900;fill-opacity:1;fill-rule:evenodd;stroke:none"
                 id="path1314" />
              <path
                 d="m 1486,2251 c 0,-24.85 -20.15,-45 -45,-45 -24.85,0 -45,20.15 -45,45 0,24.85 20.15,45 45,45 24.85,0 45,-20.15 45,-45 z"
                 style="fill:none;stroke:#f76900;stroke-width:4.5;stroke-linecap:butt;stroke-linejoin:miter;stroke-miterlimit:10;stroke-dasharray:none;stroke-opacity:1"
                 id="path1316" />
              <path
                 d="m 2656,3331 c 0,-24.85 -20.15,-45 -45,-45 -24.85,0 -45,20.15 -45,45 0,24.85 20.15,45 45,45 24.85,0 45,-20.15 45,-45"
                 style="fill:#f76900;fill-opacity:1;fill-rule:evenodd;stroke:none"
                 id="path1318" />
              <path
                 d="m 2656,3331 c 0,-24.85 -20.15,-45 -45,-45 -24.85,0 -45,20.15 -45,45 0,24.85 20.15,45 45,45 24.85,0 45,-20.15 45,-45 z"
                 style="fill:none;stroke:#f76900;stroke-width:4.5;stroke-linecap:butt;stroke-linejoin:miter;stroke-miterlimit:10;stroke-dasharray:none;stroke-opacity:1"
                 id="path1320" />
              <path
                 d="m 2881,2071 c 0,-24.85 -20.15,-45 -45,-45 -24.85,0 -45,20.15 -45,45 0,24.85 20.15,45 45,45 24.85,0 45,-20.15 45,-45"
                 style="fill:#f76900;fill-opacity:1;fill-rule:evenodd;stroke:none"
                 id="path1322" />
              <path
                 d="m 2881,2071 c 0,-24.85 -20.15,-45 -45,-45 -24.85,0 -45,20.15 -45,45 0,24.85 20.15,45 45,45 24.85,0 45,-20.15 45,-45 z"
                 style="fill:none;stroke:#f76900;stroke-width:4.5;stroke-linecap:butt;stroke-linejoin:miter;stroke-miterlimit:10;stroke-dasharray:none;stroke-opacity:1"
                 id="path1324" />
              <path
                 d="m 3691,2251 c 0,-24.85 -20.15,-45 -45,-45 -24.85,0 -45,20.15 -45,45 0,24.85 20.15,45 45,45 24.85,0 45,-20.15 45,-45"
                 style="fill:#f76900;fill-opacity:1;fill-rule:evenodd;stroke:none"
                 id="path1326" />
              <path
                 d="m 3691,2251 c 0,-24.85 -20.15,-45 -45,-45 -24.85,0 -45,20.15 -45,45 0,24.85 20.15,45 45,45 24.85,0 45,-20.15 45,-45 z"
                 style="fill:none;stroke:#f76900;stroke-width:4.5;stroke-linecap:butt;stroke-linejoin:miter;stroke-miterlimit:10;stroke-dasharray:none;stroke-opacity:1"
                 id="path1328" />
              <path
                 d="m 4726,2611 c 0,-24.85 -20.15,-45 -45,-45 -24.85,0 -45,20.15 -45,45 0,24.85 20.15,45 45,45 24.85,0 45,-20.15 45,-45"
                 style="fill:#f76900;fill-opacity:1;fill-rule:evenodd;stroke:none"
                 id="path1330" />
              <path
                 d="m 4726,2611 c 0,-24.85 -20.15,-45 -45,-45 -24.85,0 -45,20.15 -45,45 0,24.85 20.15,45 45,45 24.85,0 45,-20.15 45,-45 z"
                 style="fill:none;stroke:#f76900;stroke-width:4.5;stroke-linecap:butt;stroke-linejoin:miter;stroke-miterlimit:10;stroke-dasharray:none;stroke-opacity:1"
                 id="path1332" />
              <path
                 d="m 3061,946 c 0,-24.852 -20.15,-45 -45,-45 -24.85,0 -45,20.148 -45,45 0,24.852 20.15,45 45,45 24.85,0 45,-20.148 45,-45"
                 style="fill:#f76900;fill-opacity:1;fill-rule:evenodd;stroke:none"
                 id="path1334" />
              <path
                 d="m 3061,946 c 0,-24.852 -20.15,-45 -45,-45 -24.85,0 -45,20.148 -45,45 0,24.852 20.15,45 45,45 24.85,0 45,-20.148 45,-45 z"
                 style="fill:none;stroke:#f76900;stroke-width:4.5;stroke-linecap:butt;stroke-linejoin:miter;stroke-miterlimit:10;stroke-dasharray:none;stroke-opacity:1"
                 id="path1336" />
              <path
                 d="m 3511,316 c 0,-24.852 -20.15,-45 -45,-45 -24.85,0 -45,20.148 -45,45 0,24.852 20.15,45 45,45 24.85,0 45,-20.148 45,-45"
                 style="fill:#f76900;fill-opacity:1;fill-rule:evenodd;stroke:none"
                 id="path1338" />
              <path
                 d="m 3511,316 c 0,-24.852 -20.15,-45 -45,-45 -24.85,0 -45,20.148 -45,45 0,24.852 20.15,45 45,45 24.85,0 45,-20.148 45,-45 z"
                 style="fill:none;stroke:#f76900;stroke-width:4.5;stroke-linecap:butt;stroke-linejoin:miter;stroke-miterlimit:10;stroke-dasharray:none;stroke-opacity:1"
                 id="path1340" />
              <g
                 id="g1342"
                 transform="scale(10)">
                <text
                   xml:space="preserve"
                   transform="matrix(1,0,0,-1,207.1,140.5)"
                   style="font-style:oblique;font-variant:normal;font-size:16.2px;font-family:Helvetica;-inkscape-font-specification:Helvetica-Oblique;writing-mode:lr-tb;fill:#000000;fill-opacity:1;fill-rule:nonzero;stroke:none"
                   id="text1346"><tspan
                     x="0"
                     y="0"
                     id="tspan1344">C</tspan></text>
                <text
                   xml:space="preserve"
                   transform="matrix(1,0,0,-1,244.9,45.1)"
                   style="font-style:oblique;font-variant:normal;font-size:10.8px;font-family:Helvetica;-inkscape-font-specification:Helvetica-Oblique;writing-mode:lr-tb;fill:#000000;fill-opacity:1;fill-rule:nonzero;stroke:none"
                   id="text1350"><tspan
                     x="0 6.0047998 12.0096"
                     y="0"
                     sodipodi:role="line"
                     id="tspan1348">obs</tspan></text>
                <text
                   xml:space="preserve"
                   transform="matrix(1,0,0,-1,232.3,49.23984)"
                   style="font-style:oblique;font-variant:normal;font-size:16.2px;font-family:Helvetica;-inkscape-font-specification:Helvetica-Oblique;writing-mode:lr-tb;fill:#000000;fill-opacity:1;fill-rule:nonzero;stroke:none"
                   id="text1356"><tspan
                     x="0"
                     y="0"
                     id="tspan1352">C</tspan><tspan
                     x="233.03999"
                     y="-315.17999"
                     id="tspan1354">C</tspan></text>
                <text
                   xml:space="preserve"
                   transform="matrix(1,0,0,-1,477.1002,360.09992)"
                   style="font-style:oblique;font-variant:normal;font-size:10.8px;font-family:Helvetica;-inkscape-font-specification:Helvetica-Oblique;writing-mode:lr-tb;fill:#000000;fill-opacity:1;fill-rule:nonzero;stroke:none"
                   id="text1364"><tspan
                     x="0 3.0023999 6.5988002 12.6036"
                     y="0"
                     sodipodi:role="line"
                     id="tspan1358">free</tspan><tspan
                     x="-421.20001 -415.19519 -409.1904"
                     y="72"
                     sodipodi:role="line"
                     id="tspan1360">obs</tspan><tspan
                     x="-257.39999 -251.3952 -245.3904"
                     y="223.74001"
                     sodipodi:role="line"
                     id="tspan1362">obs</tspan></text>
                <text
                   xml:space="preserve"
                   transform="matrix(1,0,0,-1,418.6002,176.49972)"
                   style="font-style:oblique;font-variant:normal;font-size:16.2px;font-family:Helvetica;-inkscape-font-specification:Helvetica-Oblique;writing-mode:lr-tb;fill:#000000;fill-opacity:1;fill-rule:nonzero;stroke:none"
                   id="text1368"><tspan
                     x="0"
                     y="0"
                     id="tspan1366">C</tspan></text>
                <text
                   xml:space="preserve"
                   transform="matrix(1,0,0,-1,431.2002,172.35988)"
                   style="font-style:oblique;font-variant:normal;font-size:10.8px;font-family:Helvetica;-inkscape-font-specification:Helvetica-Oblique;writing-mode:lr-tb;fill:#000000;fill-opacity:1;fill-rule:nonzero;stroke:none"
                   id="text1372"><tspan
                     x="0 6.0047998 12.0096"
                     y="0"
                     sodipodi:role="line"
                     id="tspan1370">obs</tspan></text>
                <text
                   xml:space="preserve"
                   transform="matrix(1,0,0,-1,43.3002,292.23988)"
                   style="font-style:oblique;font-variant:normal;font-size:16.2px;font-family:Helvetica;-inkscape-font-specification:Helvetica-Oblique;writing-mode:lr-tb;fill:#000000;fill-opacity:1;fill-rule:nonzero;stroke:none"
                   id="text1376"><tspan
                     x="0"
                     y="0"
                     id="tspan1374">C</tspan></text>
                <text
                   xml:space="preserve"
                   transform="matrix(1,0,0,-1,386.2002,262.36018)"
                   style="font-style:oblique;font-variant:normal;font-size:10.8px;font-family:Helvetica;-inkscape-font-specification:Helvetica-Oblique;writing-mode:lr-tb;fill:#000000;fill-opacity:1;fill-rule:nonzero;stroke:none"
                   id="text1380"><tspan
                     x="0 6.0047998 12.0096"
                     y="0"
                     sodipodi:role="line"
                     id="tspan1378">obs</tspan></text>
                <text
                   xml:space="preserve"
                   transform="matrix(1,0,0,-1,373.6002,266.50002)"
                   style="font-style:oblique;font-variant:normal;font-size:16.2px;font-family:Helvetica;-inkscape-font-specification:Helvetica-Oblique;writing-mode:lr-tb;fill:#000000;fill-opacity:1;fill-rule:nonzero;stroke:none"
                   id="text1384"><tspan
                     x="0"
                     y="0"
                     id="tspan1382">C</tspan></text>
              </g>
            </g>
          </g>
        </g>
      </g>
    </g>
  </g>
</svg>
