<?xml version="1.0" encoding="UTF-8" standalone="no"?>
<!-- Created with Inkscape (http://www.inkscape.org/) -->

<svg
   width="93.126472mm"
   height="69.968918mm"
   viewBox="0 0 93.126472 69.968918"
   version="1.1"
   id="svg1874"
   xml:space="preserve"
   inkscape:version="1.2.1 (1:1.2.1+202210291243+9c6d41e410)"
   sodipodi:docname="prm_find_final_path.svg"
   xmlns:inkscape="http://www.inkscape.org/namespaces/inkscape"
   xmlns:sodipodi="http://sodipodi.sourceforge.net/DTD/sodipodi-0.dtd"
   xmlns="http://www.w3.org/2000/svg"
   xmlns:svg="http://www.w3.org/2000/svg"><sodipodi:namedview
     id="namedview1876"
     pagecolor="#ffffff"
     bordercolor="#666666"
     borderopacity="1.0"
     inkscape:showpageshadow="2"
     inkscape:pageopacity="0.0"
     inkscape:pagecheckerboard="0"
     inkscape:deskcolor="#d1d1d1"
     inkscape:document-units="mm"
     showgrid="false"
     inkscape:zoom="0.75722503"
     inkscape:cx="186.20621"
     inkscape:cy="217.24057"
     inkscape:window-width="1846"
     inkscape:window-height="1016"
     inkscape:window-x="1440"
     inkscape:window-y="27"
     inkscape:window-maximized="1"
     inkscape:current-layer="g2053" /><defs
     id="defs1871"><clipPath
       clipPathUnits="userSpaceOnUse"
       id="clipPath2015"><path
         d="M 0,0 H 365 V 278 H 0 Z"
         id="path2013" /></clipPath><clipPath
       clipPathUnits="userSpaceOnUse"
       id="clipPath2029"><path
         d="M 0,0 H 362.835 V 35.433 H 0 Z"
         id="path2027" /></clipPath><linearGradient
       x1="0"
       y1="0"
       x2="0"
       y2="35.433498"
       gradientUnits="userSpaceOnUse"
       id="linearGradient2035"><stop
         style="stop-opacity:1;stop-color:#ffffff"
         offset="0"
         id="stop2031" /><stop
         style="stop-opacity:1;stop-color:#ccccec"
         offset="1"
         id="stop2033" /></linearGradient><clipPath
       clipPathUnits="userSpaceOnUse"
       id="clipPath2065"><path
         d="M 0,0 H 523 V 401 H 0 Z"
         id="path2063" /></clipPath><clipPath
       clipPathUnits="userSpaceOnUse"
       id="clipPath2065-7"><path
         d="M 0,0 H 523 V 401 H 0 Z"
         id="path2063-5" /></clipPath></defs><g
     inkscape:label="Layer 1"
     inkscape:groupmode="layer"
     id="layer1"
     transform="translate(-198.37441,-51.320249)"><g
       id="g2001"
       inkscape:label="motion_planning2"
       transform="matrix(0.35277777,0,0,-0.35277777,-8.0941787,133.9553)"><g
         id="g2053"
         transform="translate(45.184,17.021)"><g
           id="g2055"
           transform="matrix(0.52098,0,0,0.52098,536.04371,14.845415)"><g
             id="g2057"><g
               id="g2059"><g
                 id="g2061"
                 clip-path="url(#clipPath2065-7)"><g
                   id="g2067"
                   transform="scale(0.1)"><path
                     d="M 1036,271 271,451"
                     style="fill:#decba6;fill-opacity:1;fill-rule:evenodd;stroke:none"
                     id="path2069" /><path
                     d="M 1036,271 271,451"
                     style="fill:none;stroke:#000000;stroke-width:9;stroke-linecap:butt;stroke-linejoin:miter;stroke-miterlimit:10;stroke-dasharray:none;stroke-opacity:1"
                     id="path2071" /><path
                     d="M 496,3601 181,3241"
                     style="fill:#decba6;fill-opacity:1;fill-rule:evenodd;stroke:none"
                     id="path2073" /><path
                     d="M 496,3601 181,3241"
                     style="fill:none;stroke:#000000;stroke-width:9;stroke-linecap:butt;stroke-linejoin:miter;stroke-miterlimit:10;stroke-dasharray:none;stroke-opacity:1"
                     id="path2075" /><path
                     d="M 271,2206 181,3241"
                     style="fill:#decba6;fill-opacity:1;fill-rule:evenodd;stroke:none"
                     id="path2077" /><path
                     d="M 271,2206 181,3241"
                     style="fill:none;stroke:#000000;stroke-width:9;stroke-linecap:butt;stroke-linejoin:miter;stroke-miterlimit:10;stroke-dasharray:none;stroke-opacity:1"
                     id="path2079" /><path
                     d="m 826,2236 -15.602,4.8 -15.597,6 -15.602,7.2 -16.199,7.8 -16.801,9 -16.801,9.6 -16.796,10.8 -16.801,12 -17.403,12.6 -17.398,13.8 -16.801,14.4 -17.398,15.6 -17.403,16.8 -16.796,17.4 -16.801,18 -16.801,19.2 -16.199,19.8 -15.602,20.4 -15.597,21 -14.403,22.2 -14.398,22.2 -13.801,22.8 -12.602,23.4 -12,24 -11.398,24.6 -10.199,24.6 -9.602,24.6 -8.398,25.2 -7.199,24.6 -6.602,25.2 -4.801,25.2 -3.597,25.2 -3,25.2 -1.204,25.2 -0.597,24.6 1.199,24.6 2.398,24.6 3.602,24 5.398,24 6.602,23.4 7.801,23.4 9,22.8 10.801,22.2 12,22.2 13.796,22.2 15.602,21.6 15.602,19.8 16.796,19.2 18.602,19.2 19.199,19.2 21,19.2 22.199,18.6 24,18.6 24.602,18.6 25.801,18.6 27.597,18 28.801,18 29.403,18 30.597,17.4 31.801,17.4 33,16.8 33.602,16.8 34.796,16.2 35.403,16.2 36,15.6 36.599,15.6 37.8,14.4 37.8,14.4 37.8,13.8 38.4,13.8 38.4,12.6 39,12.6 38.4,11.4 38.4,11.4 38.4,10.2 37.8,10.2 37.8,9 37.2,8.4 36.6,7.8 36,7.2 34.8,6.6 34.2,6 33.6,4.8 32.4,4.2 31.8,3.6 30.6,3 29.4,2.4 28.8,1.2 27,1.2 h 25.8 l 25.2,-0.6 23.4,-1.8 22.8,-1.8 21,-3 20.4,-3.6 18.6,-3.6 v -0.6 l 21.6,-6 19.8,-7.2 18,-8.4 16.8,-9.6 14.4,-10.8 13.2,-11.4 11.4,-13.2 9.6,-13.8 8.4,-14.4 7.2,-15.6 4.8,-16.8 4.2,-18 2.4,-18 1.2,-19.2 -0.6,-20.4 -1.2,-20.4 -3,-21 -4.2,-22.2 -4.8,-22.2 -6.6,-22.2 -7.2,-22.8 -7.8,-22.8 -9,-23.4 -9.6,-22.8 -10.2,-23.4 -11.4,-22.8 -11.4,-22.2 -12,-22.8 -12,-21.6 -12.6,-21.6 -13.2,-21 -12.6,-20.4 -13.2,-19.8 -12.6,-19.8 -13.2,-18.6 -12.6,-18 -12.6,-17.4 -12.6,-16.2 -12.6,-16.2 -11.4,-15.6 -16.8,-20.4 -16.2,-19.2 -16.2,-18.6 -15.6,-17.4 -15,-16.2 -15,-15 -14.4,-14.4 -14.4,-13.2 -14.4,-12 -13.8,-11.4 -13.8,-10.2 -13.2,-9.6 -13.2,-8.4 -12,-7.8 -12.6,-6.6 -11.4,-5.4 -11.4,-4.8 -10.8,-4.2 -10.8,-3.6 -10.2,-2.4 -9.6,-2.4 -9,-1.2 -8.4,-1.2 h -8.4 l -8.4,-0.6 -7.8,0.6 h -7.8 l -7.2,0.6 -8.4,1.2 -8.4,1.2 -9,1.2 -8.4,1.2 -8.4,0.6 -9,1.2 -9,0.6 h -9 l -9.6,-0.6 -9.6,-0.6 -9.6,-1.8 -9.6,-2.4 -10.2,-3 -10.2,-4.2 -9.6,-4.8 -10.2,-6 -10.2,-7.2 -10.8,-7.8 -10.2,-9 -10.2,-10.8 -10.8,-11.4 -10.2,-12.6 -10.8,-14.4 -10.8,-15.6 -8.4,-11.4 -7.8,-13.2 -9,-13.2 -8.4,-14.4 -9,-14.4 -9.6,-15.6 -10.2,-16.2 -10.2,-16.2 -10.8,-16.8 -11.4,-17.4 -11.4,-17.4 -12.6,-17.4 -12.6,-18 -13.2,-17.4 -13.8,-17.4 -14.4,-16.8 -14.4,-16.2 -15,-16.2 -15.6,-15 -15.6,-14.4 -16.2,-13.2 -16.8,-12 -16.8,-11.4 -16.8,-10.2 -17.402,-8.4 -18,-7.8 -18,-6 -18,-4.2 -18.597,-3 -19.199,-1.8 -18.602,0.6 -19.801,1.8 -19.801,3"
                     style="fill:#decba6;fill-opacity:1;fill-rule:evenodd;stroke:none"
                     id="path2081" /><path
                     d="m 826,2236 -15.602,4.8 -15.597,6 -15.602,7.2 -16.199,7.8 -16.801,9 -16.801,9.6 -16.796,10.8 -16.801,12 -17.403,12.6 -17.398,13.8 -16.801,14.4 -17.398,15.6 -17.403,16.8 -16.796,17.4 -16.801,18 -16.801,19.2 -16.199,19.8 -15.602,20.4 -15.597,21 -14.403,22.2 -14.398,22.2 -13.801,22.8 -12.602,23.4 -12,24 -11.398,24.6 -10.199,24.6 -9.602,24.6 -8.398,25.2 -7.199,24.6 -6.602,25.2 -4.801,25.2 -3.597,25.2 -3,25.2 -1.204,25.2 -0.597,24.6 1.199,24.6 2.398,24.6 3.602,24 5.398,24 6.602,23.4 7.801,23.4 9,22.8 10.801,22.2 12,22.2 13.796,22.2 15.602,21.6 15.602,19.8 16.796,19.2 18.602,19.2 19.199,19.2 21,19.2 22.199,18.6 24,18.6 24.602,18.6 25.801,18.6 27.597,18 28.801,18 29.403,18 30.597,17.4 31.801,17.4 33,16.8 33.602,16.8 34.796,16.2 35.403,16.2 36,15.6 36.599,15.6 37.8,14.4 37.8,14.4 37.8,13.8 38.4,13.8 38.4,12.6 39,12.6 38.4,11.4 38.4,11.4 38.4,10.2 37.8,10.2 37.8,9 37.2,8.4 36.6,7.8 36,7.2 34.8,6.6 34.2,6 33.6,4.8 32.4,4.2 31.8,3.6 30.6,3 29.4,2.4 28.8,1.2 27,1.2 h 25.8 l 25.2,-0.6 23.4,-1.8 22.8,-1.8 21,-3 20.4,-3.6 18.6,-3.6 v -0.6 l 21.6,-6 19.8,-7.2 18,-8.4 16.8,-9.6 14.4,-10.8 13.2,-11.4 11.4,-13.2 9.6,-13.8 8.4,-14.4 7.2,-15.6 4.8,-16.8 4.2,-18 2.4,-18 1.2,-19.2 -0.6,-20.4 -1.2,-20.4 -3,-21 -4.2,-22.2 -4.8,-22.2 -6.6,-22.2 -7.2,-22.8 -7.8,-22.8 -9,-23.4 -9.6,-22.8 -10.2,-23.4 -11.4,-22.8 -11.4,-22.2 -12,-22.8 -12,-21.6 -12.6,-21.6 -13.2,-21 -12.6,-20.4 -13.2,-19.8 -12.6,-19.8 -13.2,-18.6 -12.6,-18 -12.6,-17.4 -12.6,-16.2 -12.6,-16.2 -11.4,-15.6 -16.8,-20.4 -16.2,-19.2 -16.2,-18.6 -15.6,-17.4 -15,-16.2 -15,-15 -14.4,-14.4 -14.4,-13.2 -14.4,-12 -13.8,-11.4 -13.8,-10.2 -13.2,-9.6 -13.2,-8.4 -12,-7.8 -12.6,-6.6 -11.4,-5.4 -11.4,-4.8 -10.8,-4.2 -10.8,-3.6 -10.2,-2.4 -9.6,-2.4 -9,-1.2 -8.4,-1.2 h -8.4 l -8.4,-0.6 -7.8,0.6 h -7.8 l -7.2,0.6 -8.4,1.2 -8.4,1.2 -9,1.2 -8.4,1.2 -8.4,0.6 -9,1.2 -9,0.6 h -9 l -9.6,-0.6 -9.6,-0.6 -9.6,-1.8 -9.6,-2.4 -10.2,-3 -10.2,-4.2 -9.6,-4.8 -10.2,-6 -10.2,-7.2 -10.8,-7.8 -10.2,-9 -10.2,-10.8 -10.8,-11.4 -10.2,-12.6 -10.8,-14.4 -10.8,-15.6 -8.4,-11.4 -7.8,-13.2 -9,-13.2 -8.4,-14.4 -9,-14.4 -9.6,-15.6 -10.2,-16.2 -10.2,-16.2 -10.8,-16.8 -11.4,-17.4 -11.4,-17.4 -12.6,-17.4 -12.6,-18 -13.2,-17.4 -13.8,-17.4 -14.4,-16.8 -14.4,-16.2 -15,-16.2 -15.6,-15 -15.6,-14.4 -16.2,-13.2 -16.8,-12 -16.8,-11.4 -16.8,-10.2 -17.402,-8.4 -18,-7.8 -18,-6 -18,-4.2 -18.597,-3 -19.199,-1.8 -18.602,0.6 -19.801,1.8 -19.801,3 z"
                     style="fill:none;stroke:#decba6;stroke-width:4.5;stroke-linecap:butt;stroke-linejoin:bevel;stroke-miterlimit:10;stroke-dasharray:none;stroke-opacity:1"
                     id="path2083" /><path
                     d="M 586,1621 271,2206"
                     style="fill:#decba6;fill-opacity:1;fill-rule:evenodd;stroke:none"
                     id="path2085" /><path
                     d="M 586,1621 271,2206"
                     style="fill:none;stroke:#000000;stroke-width:9;stroke-linecap:butt;stroke-linejoin:miter;stroke-miterlimit:10;stroke-dasharray:none;stroke-opacity:1"
                     id="path2087" /><path
                     d="m 1853.8,1711 -3.6,-15 -2.4,-15.6 -1.8,-15 -1.8,-15.6 -0.6,-15.6 v -15.6 l 0.6,-15.6 1.2,-16.2 1.8,-16.2 2.4,-16.2 3,-16.2 4.2,-15.6 4.8,-16.2 5.4,-15.6 6,-15.6 6.6,-15.6 7.8,-15 7.8,-14.4 9,-14.4 9,-13.2 10.2,-13.2 10.2,-12.6 10.8,-12 11.4,-10.8 12,-10.8 12,-10.2 12.6,-9.6 13.2,-9 13.8,-7.8 14.4,-8.4 15.6,-7.8 16.2,-7.2 17.4,-6.6 18,-6 18.6,-6 18.6,-5.4 19.8,-4.2 20.4,-4.2 20.4,-3.6 20.4,-2.4 21,-2.4 21,-1.8 20.4,-0.6 h 20.4 l 19.8,0.6 19.2,1.2 18,1.8 17.4,3 16.8,3 15,4.2 14.4,4.2 12.6,5.4 12,5.4 10.2,6.6 8.4,6.6 7.2,7.8 6,7.8 4.8,8.4 3,9.6 1.2,10.8 v 11.4 l -1.2,12.6 -3,12.6 -4.8,13.8 -5.4,15 -6.6,15.6 -7.8,15.6 -9,16.8 -9.6,17.4 -10.2,18 -10.8,18 -11.4,18.6 -11.4,18.6 -11.4,18 -11.4,18.6 -11.4,18.6 -10.8,18 -10.2,17.4 -9.6,17.4 -9,16.8 -8.4,16.2 -7.2,16.2 -6,15.6 -5.4,15 -4.8,16.2 -3,16.2 -2.4,15.6 -1.2,16.2 v 15.6 l 0.6,15.6 1.8,15.6 2.4,15.6 3,15.6 4.2,15.6 4.8,15 4.8,15 6,15 5.4,14.4 6,13.8 6.6,13.8 6,13.2 6,12.6 5.4,12 5.4,12 5.4,11.4 4.8,10.8 4.2,10.8 3.6,10.2 3.6,12 3,12.6 2.4,12 1.2,12 1.2,12 v 12 l -0.6,12 -1.8,11.4 -1.8,11.4 -2.4,10.8 -3.6,10.2 -3.6,9.6 -4.2,9 -4.8,8.4 -4.8,7.2 -5.4,6.6 -5.4,6 -6,4.8 -6,4.2 -6,3 -6.6,3 -6.6,1.8 -6.6,1.8 h -15.6 l -8.4,-1.2 -8.4,-2.4 -9.6,-3 -10.2,-3.6 -10.2,-5.4 -10.8,-6 -11.4,-6.6 -11.4,-7.8 -12,-8.4 -11.4,-9.6 -12.6,-9.6 -12,-10.8 -12.6,-12 -13.2,-12 -12.6,-13.2 -10.2,-9.6 -9.6,-10.2 -10.2,-10.8 -10.8,-11.4 -10.8,-12 -11.4,-13.2 -11.4,-13.2 -11.4,-13.8 -12,-14.4 -12,-15.6 -12,-15.6 -11.4,-15.6 -12,-16.8 -12,-16.8 -11.4,-17.4 -10.8,-17.4 -10.8,-17.4 -10.2,-17.4 -9.6,-17.4 -9.6,-17.4 -8.4,-17.4 -8.4,-17.4 -7.2,-16.8 -6.6,-16.8 -6,-16.2 -5.4,-16.8 -4.8,-16.2"
                     style="fill:#decba6;fill-opacity:1;fill-rule:evenodd;stroke:none"
                     id="path2089" /><path
                     d="m 1853.8,1711 -3.6,-15 -2.4,-15.6 -1.8,-15 -1.8,-15.6 -0.6,-15.6 v -15.6 l 0.6,-15.6 1.2,-16.2 1.8,-16.2 2.4,-16.2 3,-16.2 4.2,-15.6 4.8,-16.2 5.4,-15.6 6,-15.6 6.6,-15.6 7.8,-15 7.8,-14.4 9,-14.4 9,-13.2 10.2,-13.2 10.2,-12.6 10.8,-12 11.4,-10.8 12,-10.8 12,-10.2 12.6,-9.6 13.2,-9 13.8,-7.8 14.4,-8.4 15.6,-7.8 16.2,-7.2 17.4,-6.6 18,-6 18.6,-6 18.6,-5.4 19.8,-4.2 20.4,-4.2 20.4,-3.6 20.4,-2.4 21,-2.4 21,-1.8 20.4,-0.6 h 20.4 l 19.8,0.6 19.2,1.2 18,1.8 17.4,3 16.8,3 15,4.2 14.4,4.2 12.6,5.4 12,5.4 10.2,6.6 8.4,6.6 7.2,7.8 6,7.8 4.8,8.4 3,9.6 1.2,10.8 v 11.4 l -1.2,12.6 -3,12.6 -4.8,13.8 -5.4,15 -6.6,15.6 -7.8,15.6 -9,16.8 -9.6,17.4 -10.2,18 -10.8,18 -11.4,18.6 -11.4,18.6 -11.4,18 -11.4,18.6 -11.4,18.6 -10.8,18 -10.2,17.4 -9.6,17.4 -9,16.8 -8.4,16.2 -7.2,16.2 -6,15.6 -5.4,15 -4.8,16.2 -3,16.2 -2.4,15.6 -1.2,16.2 v 15.6 l 0.6,15.6 1.8,15.6 2.4,15.6 3,15.6 4.2,15.6 4.8,15 4.8,15 6,15 5.4,14.4 6,13.8 6.6,13.8 6,13.2 6,12.6 5.4,12 5.4,12 5.4,11.4 4.8,10.8 4.2,10.8 3.6,10.2 3.6,12 3,12.6 2.4,12 1.2,12 1.2,12 v 12 l -0.6,12 -1.8,11.4 -1.8,11.4 -2.4,10.8 -3.6,10.2 -3.6,9.6 -4.2,9 -4.8,8.4 -4.8,7.2 -5.4,6.6 -5.4,6 -6,4.8 -6,4.2 -6,3 -6.6,3 -6.6,1.8 -6.6,1.8 h -15.6 l -8.4,-1.2 -8.4,-2.4 -9.6,-3 -10.2,-3.6 -10.2,-5.4 -10.8,-6 -11.4,-6.6 -11.4,-7.8 -12,-8.4 -11.4,-9.6 -12.6,-9.6 -12,-10.8 -12.6,-12 -13.2,-12 -12.6,-13.2 -10.2,-9.6 -9.6,-10.2 -10.2,-10.8 -10.8,-11.4 -10.8,-12 -11.4,-13.2 -11.4,-13.2 -11.4,-13.8 -12,-14.4 -12,-15.6 -12,-15.6 -11.4,-15.6 -12,-16.8 -12,-16.8 -11.4,-17.4 -10.8,-17.4 -10.8,-17.4 -10.2,-17.4 -9.6,-17.4 -9.6,-17.4 -8.4,-17.4 -8.4,-17.4 -7.2,-16.8 -6.6,-16.8 -6,-16.2 -5.4,-16.8 -4.8,-16.2 z"
                     style="fill:none;stroke:#decba6;stroke-width:4.5;stroke-linecap:butt;stroke-linejoin:bevel;stroke-miterlimit:10;stroke-dasharray:none;stroke-opacity:1"
                     id="path2091" /><path
                     d="M 676,758.199 697.602,746.801 720.398,736 743.801,724.602 768.398,713.801 793.602,703 l 25.796,-10.801 27,-10.801 27.602,-10.796 28.801,-10.204 29.398,-10.796 30,-10.204 31.199,-10.199 32.402,-9.597 32.4,-10.204 33.6,-9.597 33.6,-9.602 34.8,-9.597 35.4,-9.602 36,-9 36.6,-9 37.2,-8.398 37.2,-9 37.2,-8.403 38.4,-7.801 37.8,-7.796 38.4,-7.801 38.4,-7.801 38.4,-7.199 37.8,-6.602 38.4,-6.597 37.8,-6.602 37.8,-6 37.2,-5.398 37.2,-5.403 36.6,-5.398 36,-4.801 35.4,-4.199 34.8,-4.199 34.2,-4.204 34.2,-3.597 33,-3 31.8,-3 31.8,-2.403 30.6,-2.398 30.6,-2.398 29.4,-1.801 28.2,-1.199 28.2,-1.204 27,-1.199 26.4,-0.597 25.2,-0.602 h 60 l 33.6,1.199 32.4,1.199 31.2,1.801 30,2.403 28.8,3 27.6,3 27,4.199 25.8,4.199 24.6,4.801 23.4,4.801 22.2,6 21,5.398 19.8,6.602 18.6,6 17.4,7.199 16.2,6.597 15,7.204 13.2,7.796 12,7.204 10.8,7.199 9,7.801 8.4,7.199 6.6,7.801 5.4,7.199 4.2,7.199 3,7.199 1.8,6.602 1.2,7.199 -0.6,6 -1.2,6.602 -2.4,5.398 -3,6 -4.2,5.398 -5.4,4.801 -5.4,4.801 -7.8,4.801 -9,4.801 -9.6,4.199 -10.8,4.199 -12,3.602 -13.2,3 -14.4,3.597 -15.6,2.403 -16.8,3 -17.4,2.398 -19.2,1.801 -19.8,1.801 -20.4,1.796 -21.6,1.204 -22.8,1.796 -22.8,0.602 -24,1.199 -24,0.602 -25.2,0.597 -24.6,0.602 -25.8,0.602 -25.2,0.597 H 2431 l -25.2,0.602 H 2380 l -25.2,0.597 h -50.4 l -24.6,0.602 -24.6,0.602 -24.6,0.597 H 2206 l -21.6,1.199 -22.2,0.602 -21.6,0.602 -22.2,1.199 -22.8,0.597 -22.8,1.801 -22.8,1.199 -23.4,1.204 -23.4,1.796 -24,1.801 -24,1.801 -24.6,2.398 -24.6,2.403 -24.6,2.398 -25.2,3 -25.2,3 -25.2,3 -25.2,3 -25.2,3.602 -25.2,3.597 -24.6,4.204 -25.2,3.597 -24.6,4.199 -24,4.204 -24,4.796 -23.4,4.801 -23.4,4.801 -22.8,4.801 -22.8,4.801 -22.2,5.398 -22.2,5.398 -21,5.403 -21.6,5.398 -21,6 -21,6 -20.4,6 -21.6,7.199 -22.2,7.204 -21.6,7.199 -22.2,7.801 -22.2,7.796 -22.2,7.801 -22.2,9 -22.2,8.403 -22.8,9 -22.8,9.597 -22.8,9.602 -22.2,9.597 -22.8,10.204 -22.8,9.597 -22.2,10.801 -22.2,10.199 -21.602,10.199 -21.597,10.801 -21,10.199 -20.403,10.204 L 904,965.801 884.801,976 l -18.602,10.199 -18,9.602 -17.398,9.599 -16.801,9.6 -16.199,9 -15,9 -14.403,8.4 -13.796,8.4 -13.204,8.4 -12.597,7.8 -11.403,7.8 -11.398,7.2 -18,12 -16.199,12 -15,11.4 -14.403,10.8 -13.199,11.4 -12,10.8 -11.398,10.8 -10.199,10.8 -9.602,10.8 -9,10.8 -7.801,10.8 -7.199,10.2 -6.602,10.8 -6,10.2 -6,10.8 -5.398,10.2 -4.801,10.2 -4.801,10.8 -4.796,10.8 -4.801,10.8 -5.403,10.8 -4.796,10.8 -5.403,12 -6,11.4 -6,12.6 -6,13.2 -6.597,13.2 -7.204,13.2 -6.597,13.8 -7.199,13.8 -7.801,13.8 -7.199,13.8 -7.204,13.2 -7.796,12.6 -7.204,12 -6.597,11.4 -7.199,11.4 -6.602,9.6 -6,9.6 -6.602,8.4 -5.398,7.8 -6,6.6 -3.602,4.2 -3.597,4.2 -3.602,3 -3.597,3.6 -3,2.4 -3.602,2.4 -3.602,2.4 -3,1.2 -3.597,1.2 -3,0.6 -3.602,0.6 -3,-0.6 -3,-0.6 -3,-1.2 -3,-1.8 -3,-2.4 -3,-3 -3,-3.6 -2.398,-4.2 -3,-4.8 -2.403,-4.8 -2.398,-6 -2.398,-6.6 -1.801,-6.6 -2.403,-7.8 -1.796,-7.8 -1.801,-9 -1.801,-9 -1.801,-9.6 -1.801,-10.2 -1.199,-10.2 -1.801,-11.4 -1.199,-12 -1.199,-12.6 -1.199,-11.4 -0.602,-12 -1.199,-13.2 -0.602,-13.2 v -13.8 l -0.597,-14.4 0.597,-15.6 0.602,-15.6 0.602,-16.2 1.796,-17.4 1.801,-17.4 3,-18 3,-18.6 4.199,-18.6 4.801,-19.8 5.403,-19.2 6.597,-20.4 7.199,-20.4 7.801,-20.4 9,-20.4 10.199,-21 10.801,-20.4 12,-21 12.602,-20.4 13.801,-20.4 15,-19.801 16.199,-20.398 16.801,-19.199 18,-19.801 19.199,-18.602 19.801,-18.597 21.597,-18 22.199,-18 23.403,-17.403 24.597,-16.801 25.801,-16.796 27,-16.204"
                     style="fill:#decba6;fill-opacity:1;fill-rule:evenodd;stroke:none"
                     id="path2093" /><path
                     d="M 676,758.199 697.602,746.801 720.398,736 743.801,724.602 768.398,713.801 793.602,703 l 25.796,-10.801 27,-10.801 27.602,-10.796 28.801,-10.204 29.398,-10.796 30,-10.204 31.199,-10.199 32.402,-9.597 32.4,-10.204 33.6,-9.597 33.6,-9.602 34.8,-9.597 35.4,-9.602 36,-9 36.6,-9 37.2,-8.398 37.2,-9 37.2,-8.403 38.4,-7.801 37.8,-7.796 38.4,-7.801 38.4,-7.801 38.4,-7.199 37.8,-6.602 38.4,-6.597 37.8,-6.602 37.8,-6 37.2,-5.398 37.2,-5.403 36.6,-5.398 36,-4.801 35.4,-4.199 34.8,-4.199 34.2,-4.204 34.2,-3.597 33,-3 31.8,-3 31.8,-2.403 30.6,-2.398 30.6,-2.398 29.4,-1.801 28.2,-1.199 28.2,-1.204 27,-1.199 26.4,-0.597 25.2,-0.602 h 60 l 33.6,1.199 32.4,1.199 31.2,1.801 30,2.403 28.8,3 27.6,3 27,4.199 25.8,4.199 24.6,4.801 23.4,4.801 22.2,6 21,5.398 19.8,6.602 18.6,6 17.4,7.199 16.2,6.597 15,7.204 13.2,7.796 12,7.204 10.8,7.199 9,7.801 8.4,7.199 6.6,7.801 5.4,7.199 4.2,7.199 3,7.199 1.8,6.602 1.2,7.199 -0.6,6 -1.2,6.602 -2.4,5.398 -3,6 -4.2,5.398 -5.4,4.801 -5.4,4.801 -7.8,4.801 -9,4.801 -9.6,4.199 -10.8,4.199 -12,3.602 -13.2,3 -14.4,3.597 -15.6,2.403 -16.8,3 -17.4,2.398 -19.2,1.801 -19.8,1.801 -20.4,1.796 -21.6,1.204 -22.8,1.796 -22.8,0.602 -24,1.199 -24,0.602 -25.2,0.597 -24.6,0.602 -25.8,0.602 -25.2,0.597 H 2431 l -25.2,0.602 H 2380 l -25.2,0.597 h -50.4 l -24.6,0.602 -24.6,0.602 -24.6,0.597 H 2206 l -21.6,1.199 -22.2,0.602 -21.6,0.602 -22.2,1.199 -22.8,0.597 -22.8,1.801 -22.8,1.199 -23.4,1.204 -23.4,1.796 -24,1.801 -24,1.801 -24.6,2.398 -24.6,2.403 -24.6,2.398 -25.2,3 -25.2,3 -25.2,3 -25.2,3 -25.2,3.602 -25.2,3.597 -24.6,4.204 -25.2,3.597 -24.6,4.199 -24,4.204 -24,4.796 -23.4,4.801 -23.4,4.801 -22.8,4.801 -22.8,4.801 -22.2,5.398 -22.2,5.398 -21,5.403 -21.6,5.398 -21,6 -21,6 -20.4,6 -21.6,7.199 -22.2,7.204 -21.6,7.199 -22.2,7.801 -22.2,7.796 -22.2,7.801 -22.2,9 -22.2,8.403 -22.8,9 -22.8,9.597 -22.8,9.602 -22.2,9.597 -22.8,10.204 -22.8,9.597 -22.2,10.801 -22.2,10.199 -21.602,10.199 -21.597,10.801 -21,10.199 -20.403,10.204 L 904,965.801 884.801,976 l -18.602,10.199 -18,9.602 -17.398,9.599 -16.801,9.6 -16.199,9 -15,9 -14.403,8.4 -13.796,8.4 -13.204,8.4 -12.597,7.8 -11.403,7.8 -11.398,7.2 -18,12 -16.199,12 -15,11.4 -14.403,10.8 -13.199,11.4 -12,10.8 -11.398,10.8 -10.199,10.8 -9.602,10.8 -9,10.8 -7.801,10.8 -7.199,10.2 -6.602,10.8 -6,10.2 -6,10.8 -5.398,10.2 -4.801,10.2 -4.801,10.8 -4.796,10.8 -4.801,10.8 -5.403,10.8 -4.796,10.8 -5.403,12 -6,11.4 -6,12.6 -6,13.2 -6.597,13.2 -7.204,13.2 -6.597,13.8 -7.199,13.8 -7.801,13.8 -7.199,13.8 -7.204,13.2 -7.796,12.6 -7.204,12 -6.597,11.4 -7.199,11.4 -6.602,9.6 -6,9.6 -6.602,8.4 -5.398,7.8 -6,6.6 -3.602,4.2 -3.597,4.2 -3.602,3 -3.597,3.6 -3,2.4 -3.602,2.4 -3.602,2.4 -3,1.2 -3.597,1.2 -3,0.6 -3.602,0.6 -3,-0.6 -3,-0.6 -3,-1.2 -3,-1.8 -3,-2.4 -3,-3 -3,-3.6 -2.398,-4.2 -3,-4.8 -2.403,-4.8 -2.398,-6 -2.398,-6.6 -1.801,-6.6 -2.403,-7.8 -1.796,-7.8 -1.801,-9 -1.801,-9 -1.801,-9.6 -1.801,-10.2 -1.199,-10.2 -1.801,-11.4 -1.199,-12 -1.199,-12.6 -1.199,-11.4 -0.602,-12 -1.199,-13.2 -0.602,-13.2 v -13.8 l -0.597,-14.4 0.597,-15.6 0.602,-15.6 0.602,-16.2 1.796,-17.4 1.801,-17.4 3,-18 3,-18.6 4.199,-18.6 4.801,-19.8 5.403,-19.2 6.597,-20.4 7.199,-20.4 7.801,-20.4 9,-20.4 10.199,-21 10.801,-20.4 12,-21 12.602,-20.4 13.801,-20.4 15,-19.801 16.199,-20.398 16.801,-19.199 18,-19.801 19.199,-18.602 19.801,-18.597 21.597,-18 22.199,-18 23.403,-17.403 24.597,-16.801 25.801,-16.796 27,-16.204 z"
                     style="fill:none;stroke:#decba6;stroke-width:4.5;stroke-linecap:butt;stroke-linejoin:bevel;stroke-miterlimit:10;stroke-dasharray:none;stroke-opacity:1"
                     id="path2095" /><path
                     d="m 4148.8,2056 18.6,1.8 19.2,1.8 19.2,1.2 19.8,0.6 h 38.4 l 19.8,-0.6 19.8,-1.2 19.8,-1.8 19.8,-2.4 19.8,-3 19.8,-3.6 19.8,-4.8 19.2,-4.8 19.8,-6 19.2,-6 18.6,-7.2 18.6,-8.4 18.6,-8.4 17.4,-9.6 17.4,-10.8 16.8,-10.8 16.2,-12 15.6,-12.6 15,-13.8 13.8,-13.8 13.8,-15 12.6,-15.6 11.4,-16.8 11.4,-16.8 10.2,-18 9,-18.6 8.4,-19.2 7.8,-20.4 6.6,-20.4 6,-21.6 4.8,-22.2 4.2,-22.8 3.6,-24 2.4,-25.2 1.2,-22.2 1.2,-22.8 v -48.6 l -1.2,-25.2 -1.8,-26.4 -2.4,-27 -3,-27.6 -3,-28.8 -4.2,-28.8 -4.8,-30 -5.4,-30.6 -6,-30.6 -6.6,-31.8 -6.6,-31.8 -7.8,-32.4 -8.4,-33 -8.4,-33 -9,-33.6 -10.2,-33 -9.6,-33.6 -10.8,-33.599 -10.8,-33 -11.4,-33 -12,-33 -12,-32.403 -12,-31.796 -12.6,-31.204 -13.2,-30.597 -13.2,-30.602 -13.2,-29.398 -13.2,-28.199 -13.2,-27.602 -13.8,-27 -13.2,-25.801 -13.8,-24.597 -13.8,-24 -13.2,-22.801 -13.8,-21.602 L 4402,491.801 4388.2,472 4375,453.398 4361.2,436.602 4348,420.398 4334.2,404.801 4321,391 l -15.6,-15 -15.6,-13.199 -15.6,-12 -15.6,-10.801 -15.6,-9 -15.6,-8.398 -16.2,-6.602 -15.6,-6 -16.2,-4.199 -16.2,-3 -16.2,-2.403 -16.2,-0.597 -16.2,0.597 -16.2,1.204 -16.2,3 -16.2,3.597 -16.2,4.801 -15.6,6 -15.6,6.602 -15.6,7.796 -15,8.403 -14.4,9.597 -14.4,10.204 -13.8,11.398 -13.8,11.398 -13.2,12 -12.6,13.204 -12,13.199 -12,13.801 -10.8,13.796 -10.8,14.403 -10.2,14.398 -9.6,15 -9,15 -8.4,15 -7.8,15.602 -7.2,15 -7.2,15.597 -6.6,15 -5.4,15.602 -7.2,19.199 -6,19.801 -5.4,19.801 -4.8,19.801 -4.2,20.398 -3.6,20.398 -3,21 -3,21 -1.8,21.602 -1.8,21.602 -1.8,21.597 -0.6,22.199 -0.6,22.204 -0.6,22.199 v 65.398 l 0.6,21.602 0.6,21.599 0.6,20.4 0.6,20.4 0.6,19.8 0.6,19.8 0.6,18.6 v 52.8 l -0.6,16.2 -0.6,16.2 -0.6,15 -1.8,15 -1.2,14.4 -3,17.4 -3.6,16.2 -3.6,16.8 -4.8,15.6 -6,15.6 -6,15.6 -6.6,15 -7.8,15 -8.4,14.4 -9,13.8 -9.6,13.8 -10.8,13.2 -10.8,13.2 -11.4,12 -11.4,12 -12.6,11.4 -12,10.8 -12.6,10.2 -13.2,9.6 -12.6,9 -13.2,8.4 -13.2,7.8 -13.2,7.8 -13.2,7.2 -13.2,6.6 -13.2,6.6 -15,6.6 -15,6.6 -15.6,6.6 -15.6,6 -15.6,6 -16.8,6 -16.2,6 -16.8,6 -16.8,6 -16.8,6 -16.8,5.4 -16.2,6 -16.2,5.4 -15.6,5.4 -15,5.4 -14.4,5.4 -13.8,4.8 -12.6,5.4 -11.4,4.8 -10.8,5.4 -10.2,4.8 -9,4.8 -8.4,5.4 -7.2,4.8 -6.6,5.4 -5.4,5.4 -5.4,5.4 -4.2,5.4 -3,6 -3,6 -2.4,6.6 -1.2,6 -0.6,6 -0.6,6.6 0.6,6 1.2,6 1.8,6 2.4,5.4 2.4,5.4 3.6,5.4 3.6,4.8 3.6,4.2 4.2,4.2 4.8,3.6 4.2,3 4.8,3 5.4,2.4 4.8,1.8 6.6,1.8 6.6,1.2 7.2,0.6 7.2,0.6 8.4,0.6 h 42.6 l 13.2,0.6 13.8,0.6 15,0.6 15.6,1.8 16.2,1.8 17.4,3 18.6,3 18.6,4.2 19.8,4.8 21,5.4 22.2,6.6 13.8,4.8 13.8,4.8 15,5.4 15,5.4 16.2,6 16.8,6 17.4,6.6 18,7.2 18.6,7.2 19.2,7.2 19.8,7.8 21,7.8 21,7.8 22.2,8.4 22.2,8.4 22.8,8.4 22.8,7.8 23.4,8.4 23.4,7.8 24,8.4 24,7.8 24,7.2 24,7.2 24,7.2 23.4,6.6 24,6 23.4,6 23.4,5.4 22.8,4.8 22.8,4.2 22.8,4.2 22.8,3.6 22.2,3.6"
                     style="fill:#decba6;fill-opacity:1;fill-rule:evenodd;stroke:none"
                     id="path2097" /><path
                     d="m 4148.8,2056 18.6,1.8 19.2,1.8 19.2,1.2 19.8,0.6 h 38.4 l 19.8,-0.6 19.8,-1.2 19.8,-1.8 19.8,-2.4 19.8,-3 19.8,-3.6 19.8,-4.8 19.2,-4.8 19.8,-6 19.2,-6 18.6,-7.2 18.6,-8.4 18.6,-8.4 17.4,-9.6 17.4,-10.8 16.8,-10.8 16.2,-12 15.6,-12.6 15,-13.8 13.8,-13.8 13.8,-15 12.6,-15.6 11.4,-16.8 11.4,-16.8 10.2,-18 9,-18.6 8.4,-19.2 7.8,-20.4 6.6,-20.4 6,-21.6 4.8,-22.2 4.2,-22.8 3.6,-24 2.4,-25.2 1.2,-22.2 1.2,-22.8 v -48.6 l -1.2,-25.2 -1.8,-26.4 -2.4,-27 -3,-27.6 -3,-28.8 -4.2,-28.8 -4.8,-30 -5.4,-30.6 -6,-30.6 -6.6,-31.8 -6.6,-31.8 -7.8,-32.4 -8.4,-33 -8.4,-33 -9,-33.6 -10.2,-33 -9.6,-33.6 -10.8,-33.599 -10.8,-33 -11.4,-33 -12,-33 -12,-32.403 -12,-31.796 -12.6,-31.204 -13.2,-30.597 -13.2,-30.602 -13.2,-29.398 -13.2,-28.199 -13.2,-27.602 -13.8,-27 -13.2,-25.801 -13.8,-24.597 -13.8,-24 -13.2,-22.801 -13.8,-21.602 L 4402,491.801 4388.2,472 4375,453.398 4361.2,436.602 4348,420.398 4334.2,404.801 4321,391 l -15.6,-15 -15.6,-13.199 -15.6,-12 -15.6,-10.801 -15.6,-9 -15.6,-8.398 -16.2,-6.602 -15.6,-6 -16.2,-4.199 -16.2,-3 -16.2,-2.403 -16.2,-0.597 -16.2,0.597 -16.2,1.204 -16.2,3 -16.2,3.597 -16.2,4.801 -15.6,6 -15.6,6.602 -15.6,7.796 -15,8.403 -14.4,9.597 -14.4,10.204 -13.8,11.398 -13.8,11.398 -13.2,12 -12.6,13.204 -12,13.199 -12,13.801 -10.8,13.796 -10.8,14.403 -10.2,14.398 -9.6,15 -9,15 -8.4,15 -7.8,15.602 -7.2,15 -7.2,15.597 -6.6,15 -5.4,15.602 -7.2,19.199 -6,19.801 -5.4,19.801 -4.8,19.801 -4.2,20.398 -3.6,20.398 -3,21 -3,21 -1.8,21.602 -1.8,21.602 -1.8,21.597 -0.6,22.199 -0.6,22.204 -0.6,22.199 v 65.398 l 0.6,21.602 0.6,21.599 0.6,20.4 0.6,20.4 0.6,19.8 0.6,19.8 0.6,18.6 v 52.8 l -0.6,16.2 -0.6,16.2 -0.6,15 -1.8,15 -1.2,14.4 -3,17.4 -3.6,16.2 -3.6,16.8 -4.8,15.6 -6,15.6 -6,15.6 -6.6,15 -7.8,15 -8.4,14.4 -9,13.8 -9.6,13.8 -10.8,13.2 -10.8,13.2 -11.4,12 -11.4,12 -12.6,11.4 -12,10.8 -12.6,10.2 -13.2,9.6 -12.6,9 -13.2,8.4 -13.2,7.8 -13.2,7.8 -13.2,7.2 -13.2,6.6 -13.2,6.6 -15,6.6 -15,6.6 -15.6,6.6 -15.6,6 -15.6,6 -16.8,6 -16.2,6 -16.8,6 -16.8,6 -16.8,6 -16.8,5.4 -16.2,6 -16.2,5.4 -15.6,5.4 -15,5.4 -14.4,5.4 -13.8,4.8 -12.6,5.4 -11.4,4.8 -10.8,5.4 -10.2,4.8 -9,4.8 -8.4,5.4 -7.2,4.8 -6.6,5.4 -5.4,5.4 -5.4,5.4 -4.2,5.4 -3,6 -3,6 -2.4,6.6 -1.2,6 -0.6,6 -0.6,6.6 0.6,6 1.2,6 1.8,6 2.4,5.4 2.4,5.4 3.6,5.4 3.6,4.8 3.6,4.2 4.2,4.2 4.8,3.6 4.2,3 4.8,3 5.4,2.4 4.8,1.8 6.6,1.8 6.6,1.2 7.2,0.6 7.2,0.6 8.4,0.6 h 42.6 l 13.2,0.6 13.8,0.6 15,0.6 15.6,1.8 16.2,1.8 17.4,3 18.6,3 18.6,4.2 19.8,4.8 21,5.4 22.2,6.6 13.8,4.8 13.8,4.8 15,5.4 15,5.4 16.2,6 16.8,6 17.4,6.6 18,7.2 18.6,7.2 19.2,7.2 19.8,7.8 21,7.8 21,7.8 22.2,8.4 22.2,8.4 22.8,8.4 22.8,7.8 23.4,8.4 23.4,7.8 24,8.4 24,7.8 24,7.2 24,7.2 24,7.2 23.4,6.6 24,6 23.4,6 23.4,5.4 22.8,4.8 22.8,4.2 22.8,4.2 22.8,3.6 22.2,3.6 z"
                     style="fill:none;stroke:#decba6;stroke-width:4.5;stroke-linecap:butt;stroke-linejoin:bevel;stroke-miterlimit:10;stroke-dasharray:none;stroke-opacity:1"
                     id="path2099" /><path
                     d="m 3218.8,3031 -4.2,-15.6 -3.6,-15 -2.4,-15.6 -2.4,-15.6 -1.2,-15.6 -1.2,-15.6 v -15.6 l 0.6,-16.2 1.8,-15.6 1.8,-15.6 3,-15.6 3.6,-15 4.8,-15 4.8,-14.4 6,-14.4 6.6,-13.2 6.6,-13.2 7.8,-12 8.4,-12 8.4,-10.8 9.6,-10.2 9.6,-10.2 10.2,-9 11.4,-9 9.6,-7.2 10.2,-7.2 10.8,-6.6 11.4,-6.6 12.6,-6 12.6,-6 13.8,-6 14.4,-6 15,-5.4 15.6,-4.8 16.2,-5.4 16.8,-4.8 17.4,-4.2 18,-4.2 18,-4.2 18.6,-3.6 19.2,-3.6 19.2,-3 19.2,-3 19.8,-2.4 19.2,-2.4 19.8,-2.4 19.2,-1.8 19.8,-1.2 19.2,-1.8 19.8,-1.2 19.8,-0.6 19.8,-1.2 21,-0.6 22.2,-0.6 h 67.8 l 23.4,0.6 23.4,0.6 23.4,1.2 23.4,1.2 22.8,1.8 22.8,2.4 21.6,2.4 21,3 20.4,3 19.2,3.6 17.4,4.2 16.2,4.2 15,4.8 13.2,5.4 11.4,5.4 9,5.4 7.8,6.6 6,6.6 4.2,6.6 1.8,7.2 0.6,7.8 -1.8,8.4 -3.6,8.4 -6,9 -7.2,10.2 -8.4,10.2 -10.8,10.8 -12,11.4 -13.8,12 -14.4,12 -16.2,12.6 -16.8,13.2 -17.4,13.2 -18.6,13.2 -18.6,13.2 -18.6,13.8 -18.6,13.2 -18.6,13.2 -18,12.6 -18,12.6 -16.8,12.6 -15.6,11.4 -15,11.4 -13.8,10.8 -12.6,10.8 -11.4,10.2 -10.2,9.6 -7.2,7.8 -6.6,7.2 -5.4,7.2 -5.4,7.2 -4.2,7.2 -3,6.6 -3,6.6 -1.8,6.6 -1.2,6.6 v 12 l 1.2,6 1.8,6 2.4,5.4 3,5.4 4.2,5.4 4.2,4.8 4.8,4.8 5.4,4.8 6,4.2 6.6,4.2 6.6,4.2 7.2,3.6 7.2,3 7.8,3.6 7.8,3 8.4,2.4 8.4,3 8.4,2.4 8.4,2.4 9,1.8 9,1.8 12,3 12.6,1.8 13.2,2.4 13.2,1.8 13.8,2.4 15,1.2 14.4,1.8 15.6,1.8 15.6,1.2 16.2,1.8 16.2,1.2 16.8,1.2 16.8,1.2 16.2,1.2 16.8,1.8 16.2,1.2 16.2,1.2 15.6,1.2 15.6,1.2 15,1.2 15,1.2 13.8,1.8 14.4,1.2 13.8,1.8 8.4,1.2 9,1.2 8.4,1.2 8.4,1.2 8.4,1.2 8.4,1.8 8.4,1.8 7.8,1.2 8.4,1.8 7.8,1.8 7.2,2.4 7.8,1.8 7.2,2.4 6.6,2.4 6.6,2.4 6,2.4 5.4,2.4 5.4,3 4.8,2.4 4.2,3 3.6,3 3,3 2.4,3.6 2.4,3 1.2,3.6 0.6,3.6 v 3 l -0.6,3.6 -1.2,3.6 -2.4,4.2 -2.4,3.6 -3.6,3.6 -3.6,4.2 -4.8,3.6 -6,4.2 -6,4.2 -7.2,4.2 -7.2,4.2 -10.8,5.4 -11.4,5.4 -12,5.4 -13.8,6 -15,6 -15.6,6 -17.4,6 -18,6.6 -19.2,6.6 -19.8,6.6 -21,7.2 -22.2,6.6 -22.2,7.2 -23.4,7.2 -23.4,6.6 -24,7.2 -24,6.6 -24.6,7.2 -24.6,6.6 -24,6.6 -24,6 -24,6 -23.4,6 -22.2,5.4 -22.2,5.4 -21.6,5.4 -21,4.8 -19.8,4.2 -19.8,4.2 -18.6,4.2 -17.4,3.6 -17.4,3 -21.6,4.2 -21,3.6 -19.8,3 -18.6,3 -18.6,1.8 -17.4,1.8 -16.8,0.6 -16.8,0.6 h -15.6 l -15,-1.2 -14.4,-1.8 -13.8,-1.8 -13.2,-3 -12.6,-3.6 -12,-4.2 -11.4,-4.8 -10.8,-5.4 -10.8,-6 -10.2,-6 -9.6,-7.2 -9.6,-7.8 -9,-7.8 -9.6,-8.4 -9,-9.6 -9,-9 -9,-9 -9.6,-10.2 -9.6,-11.4 -9.6,-11.4 -9.6,-12 -10.2,-12.6 -10.2,-13.8 -10.8,-13.8 -10.2,-15 -10.8,-15 -10.2,-15.6 -10.2,-15.6 -10.2,-16.2 -9.6,-16.2 -9.6,-16.2 -9,-16.2 -8.4,-16.2 -8.4,-16.2 -7.2,-16.2 -7.2,-15.6 -6.6,-15 -6,-15 -4.8,-15 -4.8,-14.4"
                     style="fill:#decba6;fill-opacity:1;fill-rule:evenodd;stroke:none"
                     id="path2101" /><path
                     d="m 3218.8,3031 -4.2,-15.6 -3.6,-15 -2.4,-15.6 -2.4,-15.6 -1.2,-15.6 -1.2,-15.6 v -15.6 l 0.6,-16.2 1.8,-15.6 1.8,-15.6 3,-15.6 3.6,-15 4.8,-15 4.8,-14.4 6,-14.4 6.6,-13.2 6.6,-13.2 7.8,-12 8.4,-12 8.4,-10.8 9.6,-10.2 9.6,-10.2 10.2,-9 11.4,-9 9.6,-7.2 10.2,-7.2 10.8,-6.6 11.4,-6.6 12.6,-6 12.6,-6 13.8,-6 14.4,-6 15,-5.4 15.6,-4.8 16.2,-5.4 16.8,-4.8 17.4,-4.2 18,-4.2 18,-4.2 18.6,-3.6 19.2,-3.6 19.2,-3 19.2,-3 19.8,-2.4 19.2,-2.4 19.8,-2.4 19.2,-1.8 19.8,-1.2 19.2,-1.8 19.8,-1.2 19.8,-0.6 19.8,-1.2 21,-0.6 22.2,-0.6 h 67.8 l 23.4,0.6 23.4,0.6 23.4,1.2 23.4,1.2 22.8,1.8 22.8,2.4 21.6,2.4 21,3 20.4,3 19.2,3.6 17.4,4.2 16.2,4.2 15,4.8 13.2,5.4 11.4,5.4 9,5.4 7.8,6.6 6,6.6 4.2,6.6 1.8,7.2 0.6,7.8 -1.8,8.4 -3.6,8.4 -6,9 -7.2,10.2 -8.4,10.2 -10.8,10.8 -12,11.4 -13.8,12 -14.4,12 -16.2,12.6 -16.8,13.2 -17.4,13.2 -18.6,13.2 -18.6,13.2 -18.6,13.8 -18.6,13.2 -18.6,13.2 -18,12.6 -18,12.6 -16.8,12.6 -15.6,11.4 -15,11.4 -13.8,10.8 -12.6,10.8 -11.4,10.2 -10.2,9.6 -7.2,7.8 -6.6,7.2 -5.4,7.2 -5.4,7.2 -4.2,7.2 -3,6.6 -3,6.6 -1.8,6.6 -1.2,6.6 v 12 l 1.2,6 1.8,6 2.4,5.4 3,5.4 4.2,5.4 4.2,4.8 4.8,4.8 5.4,4.8 6,4.2 6.6,4.2 6.6,4.2 7.2,3.6 7.2,3 7.8,3.6 7.8,3 8.4,2.4 8.4,3 8.4,2.4 8.4,2.4 9,1.8 9,1.8 12,3 12.6,1.8 13.2,2.4 13.2,1.8 13.8,2.4 15,1.2 14.4,1.8 15.6,1.8 15.6,1.2 16.2,1.8 16.2,1.2 16.8,1.2 16.8,1.2 16.2,1.2 16.8,1.8 16.2,1.2 16.2,1.2 15.6,1.2 15.6,1.2 15,1.2 15,1.2 13.8,1.8 14.4,1.2 13.8,1.8 8.4,1.2 9,1.2 8.4,1.2 8.4,1.2 8.4,1.2 8.4,1.8 8.4,1.8 7.8,1.2 8.4,1.8 7.8,1.8 7.2,2.4 7.8,1.8 7.2,2.4 6.6,2.4 6.6,2.4 6,2.4 5.4,2.4 5.4,3 4.8,2.4 4.2,3 3.6,3 3,3 2.4,3.6 2.4,3 1.2,3.6 0.6,3.6 v 3 l -0.6,3.6 -1.2,3.6 -2.4,4.2 -2.4,3.6 -3.6,3.6 -3.6,4.2 -4.8,3.6 -6,4.2 -6,4.2 -7.2,4.2 -7.2,4.2 -10.8,5.4 -11.4,5.4 -12,5.4 -13.8,6 -15,6 -15.6,6 -17.4,6 -18,6.6 -19.2,6.6 -19.8,6.6 -21,7.2 -22.2,6.6 -22.2,7.2 -23.4,7.2 -23.4,6.6 -24,7.2 -24,6.6 -24.6,7.2 -24.6,6.6 -24,6.6 -24,6 -24,6 -23.4,6 -22.2,5.4 -22.2,5.4 -21.6,5.4 -21,4.8 -19.8,4.2 -19.8,4.2 -18.6,4.2 -17.4,3.6 -17.4,3 -21.6,4.2 -21,3.6 -19.8,3 -18.6,3 -18.6,1.8 -17.4,1.8 -16.8,0.6 -16.8,0.6 h -15.6 l -15,-1.2 -14.4,-1.8 -13.8,-1.8 -13.2,-3 -12.6,-3.6 -12,-4.2 -11.4,-4.8 -10.8,-5.4 -10.8,-6 -10.2,-6 -9.6,-7.2 -9.6,-7.8 -9,-7.8 -9.6,-8.4 -9,-9.6 -9,-9 -9,-9 -9.6,-10.2 -9.6,-11.4 -9.6,-11.4 -9.6,-12 -10.2,-12.6 -10.2,-13.8 -10.8,-13.8 -10.2,-15 -10.8,-15 -10.2,-15.6 -10.2,-15.6 -10.2,-16.2 -9.6,-16.2 -9.6,-16.2 -9,-16.2 -8.4,-16.2 -8.4,-16.2 -7.2,-16.2 -7.2,-15.6 -6.6,-15 -6,-15 -4.8,-15 -4.8,-14.4 z"
                     style="fill:none;stroke:#decba6;stroke-width:4.5;stroke-linecap:butt;stroke-linejoin:bevel;stroke-miterlimit:10;stroke-dasharray:none;stroke-opacity:1"
                     id="path2103" /><path
                     d="M 1441,2251 2611,3331"
                     style="fill:#decba6;fill-opacity:1;fill-rule:evenodd;stroke:none"
                     id="path2105" /><path
                     d="M 1441,2251 2611,3331"
                     style="fill:none;stroke:#000000;stroke-width:9;stroke-linecap:butt;stroke-linejoin:miter;stroke-miterlimit:10;stroke-dasharray:none;stroke-opacity:1"
                     id="path2107" /><path
                     d="m 586,1621 855,630"
                     style="fill:#decba6;fill-opacity:1;fill-rule:evenodd;stroke:none"
                     id="path2109" /><path
                     d="m 586,1621 855,630"
                     style="fill:none;stroke:#000000;stroke-width:9;stroke-linecap:butt;stroke-linejoin:miter;stroke-miterlimit:10;stroke-dasharray:none;stroke-opacity:1"
                     id="path2111" /><path
                     d="M 2836,2071 2611,3331"
                     style="fill:#decba6;fill-opacity:1;fill-rule:evenodd;stroke:none"
                     id="path2113" /><path
                     d="M 2836,2071 2611,3331"
                     style="fill:none;stroke:#000000;stroke-width:9;stroke-linecap:butt;stroke-linejoin:miter;stroke-miterlimit:10;stroke-dasharray:none;stroke-opacity:1"
                     id="path2115" /><path
                     d="m 2836,2071 810,180"
                     style="fill:#decba6;fill-opacity:1;fill-rule:evenodd;stroke:none"
                     id="path2117" /><path
                     d="m 2836,2071 810,180"
                     style="fill:none;stroke:#000000;stroke-width:9;stroke-linecap:butt;stroke-linejoin:miter;stroke-miterlimit:10;stroke-dasharray:none;stroke-opacity:1"
                     id="path2119" /><path
                     d="M 2836,2071 3016,946"
                     style="fill:#decba6;fill-opacity:1;fill-rule:evenodd;stroke:none"
                     id="path2121" /><path
                     d="M 2836,2071 3016,946"
                     style="fill:none;stroke:#000000;stroke-width:9;stroke-linecap:butt;stroke-linejoin:miter;stroke-miterlimit:10;stroke-dasharray:none;stroke-opacity:1"
                     id="path2123" /><path
                     d="M 3016,946 3466,316"
                     style="fill:#decba6;fill-opacity:1;fill-rule:evenodd;stroke:none"
                     id="path2125" /><path
                     d="M 3016,946 3466,316"
                     style="fill:none;stroke:#000000;stroke-width:9;stroke-linecap:butt;stroke-linejoin:miter;stroke-miterlimit:10;stroke-dasharray:none;stroke-opacity:1"
                     id="path2127" /><path
                     d="m 3646,2251 1035,360"
                     style="fill:#decba6;fill-opacity:1;fill-rule:evenodd;stroke:none"
                     id="path2129" /><path
                     d="m 3646,2251 1035,360"
                     style="fill:none;stroke:#000000;stroke-width:9;stroke-linecap:butt;stroke-linejoin:miter;stroke-miterlimit:10;stroke-dasharray:none;stroke-opacity:1"
                     id="path2131" /><path
                     d="m 1036,271 2430,45"
                     style="fill:#decba6;fill-opacity:1;fill-rule:evenodd;stroke:none"
                     id="path2133" /><path
                     d="m 1036,271 2430,45"
                     style="fill:none;stroke:#000000;stroke-width:9;stroke-linecap:butt;stroke-linejoin:miter;stroke-miterlimit:10;stroke-dasharray:none;stroke-opacity:1"
                     id="path2135" /><path
                     d="m 2611,3331 1440,360"
                     style="fill:#decba6;fill-opacity:1;fill-rule:evenodd;stroke:none"
                     id="path2137" /><path
                     d="m 2611,3331 1440,360"
                     style="fill:none;stroke:#000000;stroke-width:9;stroke-linecap:butt;stroke-linejoin:miter;stroke-miterlimit:10;stroke-dasharray:none;stroke-opacity:1"
                     id="path2139" /><path
                     d="m 3511,316 c 0,-24.852 -20.15,-45 -45,-45 -24.85,0 -45,20.148 -45,45 0,24.852 20.15,45 45,45 24.85,0 45,-20.148 45,-45"
                     style="fill:#f76900;fill-opacity:1;fill-rule:evenodd;stroke:none"
                     id="path2141" /><path
                     d="m 3511,316 c 0,-24.852 -20.15,-45 -45,-45 -24.85,0 -45,20.148 -45,45 0,24.852 20.15,45 45,45 24.85,0 45,-20.148 45,-45 z"
                     style="fill:none;stroke:#f76900;stroke-width:4.5;stroke-linecap:butt;stroke-linejoin:miter;stroke-miterlimit:10;stroke-dasharray:none;stroke-opacity:1"
                     id="path2143" /><path
                     d="m 316,451 c 0,-24.852 -20.148,-45 -45,-45 -24.852,0 -45,20.148 -45,45 0,24.852 20.148,45 45,45 24.852,0 45,-20.148 45,-45"
                     style="fill:#f76900;fill-opacity:1;fill-rule:evenodd;stroke:none"
                     id="path2145" /><path
                     d="m 316,451 c 0,-24.852 -20.148,-45 -45,-45 -24.852,0 -45,20.148 -45,45 0,24.852 20.148,45 45,45 24.852,0 45,-20.148 45,-45 z"
                     style="fill:none;stroke:#f76900;stroke-width:4.5;stroke-linecap:butt;stroke-linejoin:miter;stroke-miterlimit:10;stroke-dasharray:none;stroke-opacity:1"
                     id="path2147" /><path
                     d="m 1081,271 c 0,-24.852 -20.15,-45 -45,-45 -24.85,0 -45,20.148 -45,45 0,24.852 20.15,45 45,45 24.85,0 45,-20.148 45,-45"
                     style="fill:#f76900;fill-opacity:1;fill-rule:evenodd;stroke:none"
                     id="path2149" /><path
                     d="m 1081,271 c 0,-24.852 -20.15,-45 -45,-45 -24.85,0 -45,20.148 -45,45 0,24.852 20.15,45 45,45 24.85,0 45,-20.148 45,-45 z"
                     style="fill:none;stroke:#f76900;stroke-width:4.5;stroke-linecap:butt;stroke-linejoin:miter;stroke-miterlimit:10;stroke-dasharray:none;stroke-opacity:1"
                     id="path2151" /><path
                     d="m 316,2206 c 0,-24.85 -20.148,-45 -45,-45 -24.852,0 -45,20.15 -45,45 0,24.85 20.148,45 45,45 24.852,0 45,-20.15 45,-45"
                     style="fill:#f76900;fill-opacity:1;fill-rule:evenodd;stroke:none"
                     id="path2153" /><path
                     d="m 316,2206 c 0,-24.85 -20.148,-45 -45,-45 -24.852,0 -45,20.15 -45,45 0,24.85 20.148,45 45,45 24.852,0 45,-20.15 45,-45 z"
                     style="fill:none;stroke:#f76900;stroke-width:4.5;stroke-linecap:butt;stroke-linejoin:miter;stroke-miterlimit:10;stroke-dasharray:none;stroke-opacity:1"
                     id="path2155" /><path
                     d="m 226,3241 c 0,-24.85 -20.148,-45 -45,-45 -24.852,0 -45,20.15 -45,45 0,24.85 20.148,45 45,45 24.852,0 45,-20.15 45,-45"
                     style="fill:#f76900;fill-opacity:1;fill-rule:evenodd;stroke:none"
                     id="path2157" /><path
                     d="m 226,3241 c 0,-24.85 -20.148,-45 -45,-45 -24.852,0 -45,20.15 -45,45 0,24.85 20.148,45 45,45 24.852,0 45,-20.15 45,-45 z"
                     style="fill:none;stroke:#f76900;stroke-width:4.5;stroke-linecap:butt;stroke-linejoin:miter;stroke-miterlimit:10;stroke-dasharray:none;stroke-opacity:1"
                     id="path2159" /><path
                     d="m 541,3601 c 0,-24.85 -20.148,-45 -45,-45 -24.852,0 -45,20.15 -45,45 0,24.85 20.148,45 45,45 24.852,0 45,-20.15 45,-45"
                     style="fill:#f76900;fill-opacity:1;fill-rule:evenodd;stroke:none"
                     id="path2161" /><path
                     d="m 541,3601 c 0,-24.85 -20.148,-45 -45,-45 -24.852,0 -45,20.15 -45,45 0,24.85 20.148,45 45,45 24.852,0 45,-20.15 45,-45 z"
                     style="fill:none;stroke:#f76900;stroke-width:4.5;stroke-linecap:butt;stroke-linejoin:miter;stroke-miterlimit:10;stroke-dasharray:none;stroke-opacity:1"
                     id="path2163" /><path
                     d="m 631,1621 c 0,-24.85 -20.148,-45 -45,-45 -24.852,0 -45,20.15 -45,45 0,24.85 20.148,45 45,45 24.852,0 45,-20.15 45,-45"
                     style="fill:#f76900;fill-opacity:1;fill-rule:evenodd;stroke:none"
                     id="path2165" /><path
                     d="m 631,1621 c 0,-24.85 -20.148,-45 -45,-45 -24.852,0 -45,20.15 -45,45 0,24.85 20.148,45 45,45 24.852,0 45,-20.15 45,-45 z"
                     style="fill:none;stroke:#f76900;stroke-width:4.5;stroke-linecap:butt;stroke-linejoin:miter;stroke-miterlimit:10;stroke-dasharray:none;stroke-opacity:1"
                     id="path2167" /><path
                     d="m 1486,2251 c 0,-24.85 -20.15,-45 -45,-45 -24.85,0 -45,20.15 -45,45 0,24.85 20.15,45 45,45 24.85,0 45,-20.15 45,-45"
                     style="fill:#f76900;fill-opacity:1;fill-rule:evenodd;stroke:none"
                     id="path2169" /><path
                     d="m 1486,2251 c 0,-24.85 -20.15,-45 -45,-45 -24.85,0 -45,20.15 -45,45 0,24.85 20.15,45 45,45 24.85,0 45,-20.15 45,-45 z"
                     style="fill:none;stroke:#f76900;stroke-width:4.5;stroke-linecap:butt;stroke-linejoin:miter;stroke-miterlimit:10;stroke-dasharray:none;stroke-opacity:1"
                     id="path2171" /><path
                     d="m 2656,3331 c 0,-24.85 -20.15,-45 -45,-45 -24.85,0 -45,20.15 -45,45 0,24.85 20.15,45 45,45 24.85,0 45,-20.15 45,-45"
                     style="fill:#f76900;fill-opacity:1;fill-rule:evenodd;stroke:none"
                     id="path2173" /><path
                     d="m 2656,3331 c 0,-24.85 -20.15,-45 -45,-45 -24.85,0 -45,20.15 -45,45 0,24.85 20.15,45 45,45 24.85,0 45,-20.15 45,-45 z"
                     style="fill:none;stroke:#f76900;stroke-width:4.5;stroke-linecap:butt;stroke-linejoin:miter;stroke-miterlimit:10;stroke-dasharray:none;stroke-opacity:1"
                     id="path2175" /><path
                     d="m 2881,2071 c 0,-24.85 -20.15,-45 -45,-45 -24.85,0 -45,20.15 -45,45 0,24.85 20.15,45 45,45 24.85,0 45,-20.15 45,-45"
                     style="fill:#f76900;fill-opacity:1;fill-rule:evenodd;stroke:none"
                     id="path2177" /><path
                     d="m 2881,2071 c 0,-24.85 -20.15,-45 -45,-45 -24.85,0 -45,20.15 -45,45 0,24.85 20.15,45 45,45 24.85,0 45,-20.15 45,-45 z"
                     style="fill:none;stroke:#f76900;stroke-width:4.5;stroke-linecap:butt;stroke-linejoin:miter;stroke-miterlimit:10;stroke-dasharray:none;stroke-opacity:1"
                     id="path2179" /><path
                     d="m 3691,2251 c 0,-24.85 -20.15,-45 -45,-45 -24.85,0 -45,20.15 -45,45 0,24.85 20.15,45 45,45 24.85,0 45,-20.15 45,-45"
                     style="fill:#f76900;fill-opacity:1;fill-rule:evenodd;stroke:none"
                     id="path2181" /><path
                     d="m 3691,2251 c 0,-24.85 -20.15,-45 -45,-45 -24.85,0 -45,20.15 -45,45 0,24.85 20.15,45 45,45 24.85,0 45,-20.15 45,-45 z"
                     style="fill:none;stroke:#f76900;stroke-width:4.5;stroke-linecap:butt;stroke-linejoin:miter;stroke-miterlimit:10;stroke-dasharray:none;stroke-opacity:1"
                     id="path2183" /><path
                     d="m 4726,2611 c 0,-24.85 -20.15,-45 -45,-45 -24.85,0 -45,20.15 -45,45 0,24.85 20.15,45 45,45 24.85,0 45,-20.15 45,-45"
                     style="fill:#f76900;fill-opacity:1;fill-rule:evenodd;stroke:none"
                     id="path2185" /><path
                     d="m 4726,2611 c 0,-24.85 -20.15,-45 -45,-45 -24.85,0 -45,20.15 -45,45 0,24.85 20.15,45 45,45 24.85,0 45,-20.15 45,-45 z"
                     style="fill:none;stroke:#f76900;stroke-width:4.5;stroke-linecap:butt;stroke-linejoin:miter;stroke-miterlimit:10;stroke-dasharray:none;stroke-opacity:1"
                     id="path2187" /><path
                     d="m 3061,946 c 0,-24.852 -20.15,-45 -45,-45 -24.85,0 -45,20.148 -45,45 0,24.852 20.15,45 45,45 24.85,0 45,-20.148 45,-45"
                     style="fill:#f76900;fill-opacity:1;fill-rule:evenodd;stroke:none"
                     id="path2189" /><path
                     d="m 3061,946 c 0,-24.852 -20.15,-45 -45,-45 -24.85,0 -45,20.148 -45,45 0,24.852 20.15,45 45,45 24.85,0 45,-20.148 45,-45 z"
                     style="fill:none;stroke:#f76900;stroke-width:4.5;stroke-linecap:butt;stroke-linejoin:miter;stroke-miterlimit:10;stroke-dasharray:none;stroke-opacity:1"
                     id="path2191" /><path
                     d="m 4816,3241 c 0,-24.85 -20.15,-45 -45,-45 -24.85,0 -45,20.15 -45,45 0,24.85 20.15,45 45,45 24.85,0 45,-20.15 45,-45"
                     style="fill:#529a4a;fill-opacity:1;fill-rule:evenodd;stroke:none"
                     id="path2193" /><path
                     d="m 4816,3241 c 0,-24.85 -20.15,-45 -45,-45 -24.85,0 -45,20.15 -45,45 0,24.85 20.15,45 45,45 24.85,0 45,-20.15 45,-45 z"
                     style="fill:none;stroke:#529a4a;stroke-width:4.5;stroke-linecap:butt;stroke-linejoin:miter;stroke-miterlimit:10;stroke-dasharray:none;stroke-opacity:1"
                     id="path2195" /><path
                     d="m 721,226 c 0,-24.852 -20.148,-45 -45,-45 -24.852,0 -45,20.148 -45,45 0,24.852 20.148,45 45,45 24.852,0 45,-20.148 45,-45"
                     style="fill:#529a4a;fill-opacity:1;fill-rule:evenodd;stroke:none"
                     id="path2197" /><path
                     d="m 721,226 c 0,-24.852 -20.148,-45 -45,-45 -24.852,0 -45,20.148 -45,45 0,24.852 20.148,45 45,45 24.852,0 45,-20.148 45,-45 z"
                     style="fill:none;stroke:#529a4a;stroke-width:4.5;stroke-linecap:butt;stroke-linejoin:miter;stroke-miterlimit:10;stroke-dasharray:none;stroke-opacity:1"
                     id="path2199" /><path
                     d="m 4096,3691 c 0,-24.85 -20.15,-45 -45,-45 -24.85,0 -45,20.15 -45,45 0,24.85 20.15,45 45,45 24.85,0 45,-20.15 45,-45"
                     style="fill:#f76900;fill-opacity:1;fill-rule:evenodd;stroke:none"
                     id="path2201" /><path
                     d="m 4096,3691 c 0,-24.85 -20.15,-45 -45,-45 -24.85,0 -45,20.15 -45,45 0,24.85 20.15,45 45,45 24.85,0 45,-20.15 45,-45 z"
                     style="fill:none;stroke:#f76900;stroke-width:4.5;stroke-linecap:butt;stroke-linejoin:miter;stroke-miterlimit:10;stroke-dasharray:none;stroke-opacity:1"
                     id="path2203" /><path
                     d="M 91,91 H 5131 V 3871 H 91 Z"
                     style="fill:none;stroke:#decba6;stroke-width:27;stroke-linecap:butt;stroke-linejoin:miter;stroke-miterlimit:10;stroke-dasharray:none;stroke-opacity:1"
                     id="path2205" /><g
                     id="g2207"
                     transform="scale(10)"><text
                       xml:space="preserve"
                       transform="matrix(1,0,0,-1,43.3,292.24)"
                       style="font-style:oblique;font-variant:normal;font-size:16.2px;font-family:Helvetica;-inkscape-font-specification:Helvetica-Oblique;writing-mode:lr-tb;fill:#000000;fill-opacity:1;fill-rule:nonzero;stroke:none"
                       id="text2211"><tspan
                         x="0"
                         y="0"
                         id="tspan2209">C</tspan></text><text
                       xml:space="preserve"
                       transform="matrix(1,0,0,-1,477.1,360.1002)"
                       style="font-style:oblique;font-variant:normal;font-size:10.8px;font-family:Helvetica;-inkscape-font-specification:Helvetica-Oblique;writing-mode:lr-tb;fill:#000000;fill-opacity:1;fill-rule:nonzero;stroke:none"
                       id="text2215"><tspan
                         x="0 3.0023999 6.5988002 12.6036"
                         y="0"
                         sodipodi:role="line"
                         id="tspan2213">free</tspan></text><text
                       xml:space="preserve"
                       transform="matrix(1,0,0,-1,465.3398,364.42012)"
                       style="font-style:oblique;font-variant:normal;font-size:16.2px;font-family:Helvetica;-inkscape-font-specification:Helvetica-Oblique;writing-mode:lr-tb;fill:#000000;fill-opacity:1;fill-rule:nonzero;stroke:none"
                       id="text2221"><tspan
                         x="0"
                         y="0"
                         id="tspan2217">C</tspan><tspan
                         x="-233.03999"
                         y="315.17999"
                         id="tspan2219">C</tspan></text><text
                       xml:space="preserve"
                       transform="matrix(1,0,0,-1,244.8998,45.10028)"
                       style="font-style:oblique;font-variant:normal;font-size:10.8px;font-family:Helvetica;-inkscape-font-specification:Helvetica-Oblique;writing-mode:lr-tb;fill:#000000;fill-opacity:1;fill-rule:nonzero;stroke:none"
                       id="text2225"><tspan
                         x="0 6.0047998 12.0096"
                         y="0"
                         sodipodi:role="line"
                         id="tspan2223">obs</tspan></text><text
                       xml:space="preserve"
                       transform="matrix(1,0,0,-1,373.5998,266.50028)"
                       style="font-style:oblique;font-variant:normal;font-size:16.2px;font-family:Helvetica;-inkscape-font-specification:Helvetica-Oblique;writing-mode:lr-tb;fill:#000000;fill-opacity:1;fill-rule:nonzero;stroke:none"
                       id="text2229"><tspan
                         x="0"
                         y="0"
                         id="tspan2227">C</tspan></text></g><path
                     d="m 676,226 360,45 2430,45 -450,630 -180,1125 810,180 1035,360 90,630"
                     style="fill:none;stroke:#29794a;stroke-width:27;stroke-linecap:butt;stroke-linejoin:miter;stroke-miterlimit:10;stroke-dasharray:none;stroke-opacity:1"
                     id="path2231" /><g
                     id="g2233"
                     transform="scale(10)"><text
                       xml:space="preserve"
                       transform="matrix(1,0,0,-1,386.2,262.36)"
                       style="font-style:oblique;font-variant:normal;font-size:10.8px;font-family:Helvetica;-inkscape-font-specification:Helvetica-Oblique;writing-mode:lr-tb;fill:#000000;fill-opacity:1;fill-rule:nonzero;stroke:none"
                       id="text2237"><tspan
                         x="0 6.0047998 12.0096"
                         y="0"
                         sodipodi:role="line"
                         id="tspan2235">obs</tspan></text><text
                       xml:space="preserve"
                       transform="matrix(1,0,0,-1,207.1,140.5)"
                       style="font-style:oblique;font-variant:normal;font-size:16.2px;font-family:Helvetica;-inkscape-font-specification:Helvetica-Oblique;writing-mode:lr-tb;fill:#000000;fill-opacity:1;fill-rule:nonzero;stroke:none"
                       id="text2241"><tspan
                         x="0"
                         y="0"
                         id="tspan2239">C</tspan></text><text
                       xml:space="preserve"
                       transform="matrix(1,0,0,-1,219.7,136.36016)"
                       style="font-style:oblique;font-variant:normal;font-size:10.8px;font-family:Helvetica;-inkscape-font-specification:Helvetica-Oblique;writing-mode:lr-tb;fill:#000000;fill-opacity:1;fill-rule:nonzero;stroke:none"
                       id="text2245"><tspan
                         x="0 6.0047998 12.0096"
                         y="0"
                         sodipodi:role="line"
                         id="tspan2243">obs</tspan></text><text
                       xml:space="preserve"
                       transform="matrix(1,0,0,-1,418.6,176.49996)"
                       style="font-style:oblique;font-variant:normal;font-size:16.2px;font-family:Helvetica;-inkscape-font-specification:Helvetica-Oblique;writing-mode:lr-tb;fill:#000000;fill-opacity:1;fill-rule:nonzero;stroke:none"
                       id="text2249"><tspan
                         x="0"
                         y="0"
                         id="tspan2247">C</tspan></text><text
                       xml:space="preserve"
                       transform="matrix(1,0,0,-1,431.2,172.36012)"
                       style="font-style:oblique;font-variant:normal;font-size:10.8px;font-family:Helvetica;-inkscape-font-specification:Helvetica-Oblique;writing-mode:lr-tb;fill:#000000;fill-opacity:1;fill-rule:nonzero;stroke:none"
                       id="text2255"><tspan
                         x="0 6.0047998 12.0096"
                         y="0"
                         sodipodi:role="line"
                         id="tspan2251">obs</tspan><tspan
                         x="-375.29999 -369.2952 -363.29041"
                         y="-115.74"
                         sodipodi:role="line"
                         id="tspan2253">obs</tspan></text></g></g></g></g></g></g></g></g></g></svg>
