<?xml version="1.0" encoding="UTF-8" standalone="no"?>
<!-- Created with Inkscape (http://www.inkscape.org/) -->

<svg
   width="40.601837mm"
   height="15.120438mm"
   viewBox="0 0 40.601837 15.120438"
   version="1.1"
   id="svg1"
   inkscape:version="1.4 (1:1.4+202410161351+e7c3feb100)"
   sodipodi:docname="weighted_samples.svg"
   xmlns:inkscape="http://www.inkscape.org/namespaces/inkscape"
   xmlns:sodipodi="http://sodipodi.sourceforge.net/DTD/sodipodi-0.dtd"
   xmlns="http://www.w3.org/2000/svg"
   xmlns:svg="http://www.w3.org/2000/svg"
   xmlns:ns24="http://www.iki.fi/pav/software/textext/">
  <sodipodi:namedview
     id="namedview1"
     pagecolor="#ffffff"
     bordercolor="#000000"
     borderopacity="0.25"
     inkscape:showpageshadow="2"
     inkscape:pageopacity="0.0"
     inkscape:pagecheckerboard="0"
     inkscape:deskcolor="#d1d1d1"
     inkscape:document-units="mm"
     inkscape:zoom="4"
     inkscape:cx="61.875"
     inkscape:cy="43.625"
     inkscape:window-width="1854"
     inkscape:window-height="1011"
     inkscape:window-x="1432"
     inkscape:window-y="32"
     inkscape:window-maximized="1"
     inkscape:current-layer="layer1" />
  <defs
     id="defs1">
    <marker
       style="overflow:visible"
       id="ConcaveTriangle"
       refX="0"
       refY="0"
       orient="auto-start-reverse"
       inkscape:stockid="Concave triangle arrow"
       markerWidth="1"
       markerHeight="1"
       viewBox="0 0 1 1"
       inkscape:isstock="true"
       inkscape:collect="always"
       preserveAspectRatio="xMidYMid">
      <path
         transform="scale(0.7)"
         d="M -2,-4 9,0 -2,4 c 2,-2.33 2,-5.66 0,-8 z"
         style="fill:context-stroke;fill-rule:evenodd;stroke:none"
         id="path7" />
    </marker>
    <marker
       style="overflow:visible"
       id="ConcaveTriangle-9"
       refX="0"
       refY="0"
       orient="auto-start-reverse"
       inkscape:stockid="Concave triangle arrow"
       markerWidth="1"
       markerHeight="1"
       viewBox="0 0 1 1"
       inkscape:isstock="true"
       inkscape:collect="always"
       preserveAspectRatio="xMidYMid">
      <path
         transform="scale(0.7)"
         d="M -2,-4 9,0 -2,4 c 2,-2.33 2,-5.66 0,-8 z"
         style="fill:context-stroke;fill-rule:evenodd;stroke:none"
         id="path7-7" />
    </marker>
  </defs>
  <g
     inkscape:label="Layer 1"
     inkscape:groupmode="layer"
     id="layer1"
     transform="translate(-84.537802,-144.14109)">
    <path
       style="fill:none;fill-opacity:1;stroke:#000000;stroke-width:0.132292;stroke-dasharray:none;stroke-opacity:1;marker-end:url(#ConcaveTriangle)"
       d="m 96.940068,152.22299 1.285027,-2.22574"
       id="path25" />
    <path
       style="fill:none;fill-opacity:1;stroke:#000000;stroke-width:0.132292;stroke-dasharray:none;stroke-opacity:1;marker-end:url(#ConcaveTriangle-9)"
       d="m 109.56288,152.02455 -1.28503,-2.22574"
       id="path25-1" />
    <text
       xml:space="preserve"
       style="font-size:22.5778px;font-family:'CMU Serif';-inkscape-font-specification:'CMU Serif, Normal';text-align:center;writing-mode:lr-tb;direction:ltr;text-anchor:middle;fill:#000000;fill-opacity:1;stroke:#000000;stroke-width:0.132292;stroke-dasharray:none;stroke-opacity:1"
       x="83.254456"
       y="172.12158"
       id="text25"><tspan
         sodipodi:role="line"
         id="tspan25"
         style="fill:#000000;fill-opacity:1;stroke-width:0.132292"
         x="83.254456"
         y="172.12158" /></text>
    <text
       xml:space="preserve"
       style="font-style:normal;font-variant:normal;font-weight:normal;font-stretch:normal;font-size:2.82222px;font-family:'CMU Serif';-inkscape-font-specification:'CMU Serif, Normal';font-variant-ligatures:normal;font-variant-caps:normal;font-variant-numeric:normal;font-variant-east-asian:normal;text-align:center;writing-mode:lr-tb;direction:ltr;text-anchor:middle;white-space:pre;inline-size:17.4512;display:inline;fill:#ff0000;fill-opacity:1;stroke:none;stroke-width:0.132292;stroke-dasharray:none;stroke-opacity:1"
       x="93.58564"
       y="156.06308"
       id="text26"
       transform="translate(-1.9182291,-1.190625)"><tspan
         x="93.58564"
         y="156.06308"
         id="tspan1">state<tspan
   y="156.06308"
   id="tspan2"> </tspan></tspan><tspan
         x="93.58564"
         y="159.59085"
         id="tspan3">hyphothesis</tspan></text>
    <text
       xml:space="preserve"
       style="font-style:normal;font-variant:normal;font-weight:normal;font-stretch:normal;font-size:2.82222px;font-family:'CMU Serif';-inkscape-font-specification:'CMU Serif, Normal';font-variant-ligatures:normal;font-variant-caps:normal;font-variant-numeric:normal;font-variant-east-asian:normal;text-align:center;writing-mode:lr-tb;direction:ltr;text-anchor:middle;white-space:pre;inline-size:15.403;display:inline;fill:#ff0000;fill-opacity:1;stroke:none;stroke-width:0.132292;stroke-dasharray:none;stroke-opacity:1"
       x="116.74316"
       y="156.14456"
       id="text26-7"
       transform="translate(-0.396875,-0.9921875)"><tspan
         x="116.74316"
         y="156.14456"
         id="tspan4">importance<tspan
   y="156.14456"
   id="tspan5"> </tspan></tspan><tspan
         x="116.74316"
         y="159.67234"
         id="tspan6">weight</tspan></text>
    <g
       transform="matrix(0.352777,0,0,0.352777,87.1329,144.141)"
       ns24:version="1.10.2"
       ns24:texconverter="pdflatex"
       ns24:pdfconverter="inkscape"
       ns24:text="$\\mathcal{X} = \\left\\{ \\left\\langle x^{[j]}, w^{[j]} \\right\\rangle \\right\\}_{j=1,\\ldots,J}$"
       ns24:preamble="/home/taihu/Documents/material-robotica-movil-rosario/common/math_preamble.tex"
       ns24:scale="1.0"
       ns24:alignment="middle center"
       ns24:stroke-to-path="0"
       ns24:inkscapeversion="1.4"
       ns24:jacobian_sqrt="0.352777"
       id="g25">
      <defs
         id="id-ec4a4d2a-924a-4c1d-98f9-bce8900990b5">
        <g
           id="id-2e0547c4-b8e2-45bd-95d0-1e7e36c8bd25">
          <g
             id="id-6c1b8a62-4c18-4c7d-bfd0-055e07cdebd5">
            <path
               d="M 4.78125,-5.5 C 4.6875,-6.234375 4.59375,-6.8125 3.890625,-6.8125 c -0.9375,0 -1.59375,0.6875 -1.59375,0.953125 0,0.078125 0.0625,0.078125 0.109375,0.078125 0.109375,0 0.546875,-0.125 0.734375,-0.46875 L 3.15625,-6.265625 c 0.546875,0 0.6875,0.3125 0.78125,1.34375 l 0.140625,1.46875 c -0.359375,0.1875 -1.703125,1 -2.421875,1.5 C 0.515625,-1.140625 0.5,-0.84375 0.5,-0.5625 0.5,-0.21875 0.671875,0 0.984375,0 c 0.296875,0 0.75,-0.328125 0.75,-0.484375 0,-0.046875 -0.03125,-0.046875 -0.0625,-0.0625 C 1.578125,-0.5625 1.34375,-0.59375 1.34375,-0.984375 c 0,-0.265625 0,-0.390625 1.0625,-1.09375 0.609375,-0.40625 1.1875,-0.71875 1.703125,-1.046875 0,0.015625 0.140625,1.515625 0.171875,1.671875 C 4.359375,-0.65625 4.421875,0 5.15625,0 c 0.953125,0 1.609375,-0.671875 1.609375,-0.953125 0,-0.078125 -0.0625,-0.078125 -0.109375,-0.078125 -0.109375,0 -0.546875,0.140625 -0.734375,0.46875 -0.03125,0.015625 -0.078125,0.015625 -0.09375,0.015625 -0.578125,0 -0.640625,-0.625 -0.71875,-1.46875 C 5.078125,-2.328125 5.046875,-2.59375 4.953125,-3.625 8.0625,-5.484375 8.0625,-5.828125 8.0625,-6.25 c 0,-0.34375 -0.1875,-0.5625 -0.46875,-0.5625 -0.3125,0 -0.78125,0.34375 -0.78125,0.484375 0,0.0625 0.0625,0.0625 0.078125,0.0625 0.078125,0.015625 0.3125,0.0625 0.3125,0.4375 0,0.25 -0.03125,0.40625 -0.875,0.984375 -0.296875,0.203125 -0.71875,0.453125 -1.40625,0.875 z m 0,0"
               id="id-7a7a2cce-96f9-4391-8bb5-31d419bc2a0d" />
          </g>
          <g
             id="id-fe93b6cb-7f87-4b6f-8783-1bb5260f1cf7">
            <path
               d="m 6.84375,-3.265625 c 0.15625,0 0.34375,0 0.34375,-0.1875 C 7.1875,-3.65625 7,-3.65625 6.859375,-3.65625 h -5.96875 c -0.140625,0 -0.328125,0 -0.328125,0.203125 0,0.1875 0.1875,0.1875 0.328125,0.1875 z m 0.015625,1.9375 c 0.140625,0 0.328125,0 0.328125,-0.203125 0,-0.1875 -0.1875,-0.1875 -0.34375,-0.1875 H 0.890625 c -0.140625,0 -0.328125,0 -0.328125,0.1875 0,0.203125 0.1875,0.203125 0.328125,0.203125 z m 0,0"
               id="id-7eff09ca-88c7-4608-adfc-1a66ec4f1e9a" />
          </g>
          <g
             id="id-f0229911-097f-4c6e-acc3-483fe7775428">
            <path
               d="m 2.5625,3.984375 c 0,0.6875 -0.34375,1.0625 -1.359375,1.46875 C 1.15625,5.46875 1.125,5.515625 1.125,5.578125 1.125,5.65625 1.140625,5.6875 1.21875,5.71875 2.5625,6.234375 2.5625,6.765625 2.5625,7.328125 v 2.75 c 0.015625,0.265625 0.15625,0.640625 0.59375,0.9375 0.5,0.328125 1.296875,0.53125 1.390625,0.53125 0.09375,0 0.125,-0.03125 0.125,-0.125 C 4.671875,11.328125 4.65625,11.328125 4.5,11.28125 4.21875,11.171875 3.4375,10.859375 3.28125,10.25 3.25,10.125 3.25,10.109375 3.25,9.734375 v -2.4375 c 0,-0.515625 0,-1.25 -1.625,-1.71875 C 3.25,5.078125 3.25,4.40625 3.25,3.84375 v -2.4375 c 0,-0.546875 0,-1.0625 1.359375,-1.5625 0.0625,-0.015625 0.0625,-0.09375 0.0625,-0.109375 0,-0.09375 -0.03125,-0.140625 -0.125,-0.140625 -0.078125,0 -1.46875,0.328125 -1.828125,0.984375 C 2.5625,0.875 2.5625,0.96875 2.5625,1.390625 Z m 0,0"
               id="id-f86beedd-db5f-4fde-a936-7829290263c9" />
          </g>
          <g
             id="id-6063f6d0-498f-4d5a-99fc-e8a633aaf370">
            <path
               d="M 3.5,11.34375 C 3.5625,11.5 3.59375,11.5625 3.71875,11.5625 c 0.109375,0 0.203125,-0.09375 0.203125,-0.203125 0,0 0,-0.0625 -0.0625,-0.1875 l -2.46875,-5.59375 2.46875,-5.59375 c 0.0625,-0.125 0.0625,-0.171875 0.0625,-0.1875 0,-0.109375 -0.09375,-0.203125 -0.203125,-0.203125 -0.125,0 -0.15625,0.09375 -0.21875,0.21875 L 1.03125,5.390625 c -0.046875,0.125 -0.046875,0.1875 -0.046875,0.1875 0,0.015625 0,0.0625 0.046875,0.1875 z m 0,0"
               id="id-e4b7825a-0fd4-412e-80b9-455cf8795ff1" />
          </g>
          <g
             id="id-e26ec614-5e9b-46c0-9e25-d7f270b7715f">
            <path
               d="m 3.296875,5.578125 -2.453125,5.59375 c -0.0625,0.125 -0.0625,0.1875 -0.0625,0.1875 0,0.109375 0.09375,0.203125 0.203125,0.203125 0.125,0 0.15625,-0.07813 0.21875,-0.203125 L 3.65625,5.765625 c 0.0625,-0.125 0.0625,-0.171875 0.0625,-0.1875 0,0 0,-0.0625 -0.0625,-0.1875 l -2.453125,-5.5625 C 1.125,-0.34375 1.09375,-0.40625 0.984375,-0.40625 c -0.109375,0 -0.203125,0.09375 -0.203125,0.203125 0,0.015625 0,0.0625 0.0625,0.1875 z m 0,0"
               id="id-87d7cd02-8413-4105-920d-03018b100e03" />
          </g>
          <g
             id="id-bebcdecb-ff97-4198-8838-10c8c4e744a3">
            <path
               d="m 3.25,7.171875 c 0,-0.328125 0,-0.9375 1.28125,-1.453125 0.125,-0.046875 0.140625,-0.046875 0.140625,-0.140625 0,-0.03125 0,-0.09375 -0.0625,-0.109375 C 3.25,4.9375 3.25,4.390625 3.25,3.828125 v -2.75 C 3.234375,0.53125 2.796875,0.234375 2.625,0.125 2.203125,-0.171875 1.359375,-0.40625 1.25,-0.40625 c -0.09375,0 -0.125,0.0625 -0.125,0.140625 0,0.09375 0.046875,0.109375 0.125,0.125 1.3125,0.5 1.3125,1 1.3125,1.5625 v 2.4375 c 0,0.546875 0,1.21875 1.609375,1.71875 C 2.5625,6.109375 2.5625,6.6875 2.5625,7.3125 V 9.75 c 0,0.515625 0,1.046875 -1.28125,1.53125 -0.109375,0.04687 -0.15625,0.04687 -0.15625,0.140625 0,0.07813 0.03125,0.125 0.125,0.125 0.015625,0 1.328125,-0.25 1.796875,-0.90625 C 3.25,10.359375 3.25,10.140625 3.25,9.765625 Z m 0,0"
               id="id-e46a8df0-ffcb-42f6-98f3-3425baa4e260" />
          </g>
          <g
             id="id-1dd7d0cd-ae03-4e0e-97fa-b7fdfbfdcb2f">
            <path
               d="M 3.328125,-3.015625 C 3.390625,-3.265625 3.625,-4.1875 4.3125,-4.1875 c 0.046875,0 0.296875,0 0.5,0.125 C 4.53125,-4 4.34375,-3.765625 4.34375,-3.515625 c 0,0.15625 0.109375,0.34375 0.375,0.34375 0.21875,0 0.53125,-0.171875 0.53125,-0.578125 0,-0.515625 -0.578125,-0.65625 -0.921875,-0.65625 -0.578125,0 -0.921875,0.53125 -1.046875,0.75 -0.25,-0.65625 -0.78125,-0.75 -1.078125,-0.75 -1.03125,0 -1.609375,1.28125 -1.609375,1.53125 0,0.109375 0.109375,0.109375 0.125,0.109375 0.078125,0 0.109375,-0.03125 0.125,-0.109375 0.34375,-1.0625 1,-1.3125 1.34375,-1.3125 0.1875,0 0.53125,0.09375 0.53125,0.671875 0,0.3125 -0.171875,0.96875 -0.53125,2.375 -0.15625,0.609375 -0.515625,1.03125 -0.953125,1.03125 -0.0625,0 -0.28125,0 -0.5,-0.125 0.25,-0.0625 0.46875,-0.265625 0.46875,-0.546875 0,-0.265625 -0.21875,-0.34375 -0.359375,-0.34375 -0.3125,0 -0.546875,0.25 -0.546875,0.578125 0,0.453125 0.484375,0.65625 0.921875,0.65625 0.671875,0 1.03125,-0.703125 1.046875,-0.75 0.125,0.359375 0.484375,0.75 1.078125,0.75 1.03125,0 1.59375,-1.28125 1.59375,-1.53125 0,-0.109375 -0.078125,-0.109375 -0.109375,-0.109375 -0.09375,0 -0.109375,0.046875 -0.140625,0.109375 -0.328125,1.078125 -1,1.3125 -1.3125,1.3125 -0.390625,0 -0.546875,-0.3125 -0.546875,-0.65625 0,-0.21875 0.046875,-0.4375 0.15625,-0.875 z m 0,0"
               id="id-18c9bcd7-c235-4204-9d1e-58e5f513509d" />
          </g>
          <g
             id="id-323acfde-457d-4ba2-bd60-5febcf321c30">
            <path
               d="m 2.03125,-0.015625 c 0,-0.65625 -0.25,-1.046875 -0.640625,-1.046875 -0.328125,0 -0.53125,0.25 -0.53125,0.53125 C 0.859375,-0.265625 1.0625,0 1.390625,0 1.5,0 1.640625,-0.046875 1.734375,-0.125 1.765625,-0.15625 1.78125,-0.15625 1.78125,-0.15625 c 0.015625,0 0.015625,0 0.015625,0.140625 0,0.75 -0.34375,1.34375 -0.671875,1.671875 -0.109375,0.109375 -0.109375,0.125 -0.109375,0.15625 0,0.078125 0.046875,0.109375 0.09375,0.109375 0.109375,0 0.921875,-0.765625 0.921875,-1.9375 z m 0,0"
               id="id-21acef5f-e9aa-43dd-b38b-cd85c90d6e83" />
          </g>
          <g
             id="id-5427358f-e750-408f-aaf0-82dd2425345f">
            <path
               d="M 4.609375,-3.375 C 4.65625,-3.59375 4.75,-3.96875 4.75,-4.03125 c 0,-0.171875 -0.140625,-0.265625 -0.28125,-0.265625 -0.125,0 -0.296875,0.078125 -0.375,0.28125 -0.03125,0.0625 -0.5,1.96875 -0.5625,2.234375 C 3.453125,-1.484375 3.4375,-1.3125 3.4375,-1.125 c 0,0.109375 0,0.125 0.015625,0.171875 -0.234375,0.53125 -0.53125,0.84375 -0.921875,0.84375 -0.796875,0 -0.796875,-0.734375 -0.796875,-0.90625 0,-0.3125 0.046875,-0.703125 0.515625,-1.9375 0.109375,-0.296875 0.171875,-0.4375 0.171875,-0.640625 0,-0.4375 -0.328125,-0.8125 -0.8125,-0.8125 -0.953125,0 -1.3125,1.453125 -1.3125,1.53125 0,0.109375 0.09375,0.109375 0.109375,0.109375 0.109375,0 0.109375,-0.03125 0.15625,-0.1875 C 0.84375,-3.875 1.21875,-4.1875 1.578125,-4.1875 c 0.09375,0 0.25,0.015625 0.25,0.328125 0,0.25 -0.109375,0.53125 -0.1875,0.703125 -0.4375,1.171875 -0.546875,1.625 -0.546875,2.015625 0,0.90625 0.65625,1.25 1.40625,1.25 0.171875,0 0.640625,0 1.03125,-0.703125 0.265625,0.640625 0.953125,0.703125 1.25,0.703125 0.75,0 1.1875,-0.625 1.453125,-1.21875 0.328125,-0.78125 0.65625,-2.125 0.65625,-2.59375 0,-0.546875 -0.265625,-0.703125 -0.4375,-0.703125 -0.25,0 -0.5,0.265625 -0.5,0.484375 0,0.125 0.0625,0.1875 0.140625,0.265625 0.109375,0.109375 0.359375,0.359375 0.359375,0.84375 0,0.34375 -0.28125,1.3125 -0.546875,1.828125 -0.25,0.53125 -0.609375,0.875 -1.09375,0.875 -0.46875,0 -0.734375,-0.296875 -0.734375,-0.875 0,-0.265625 0.0625,-0.578125 0.109375,-0.71875 z m 0,0"
               id="id-df3355b4-70b1-481c-9c93-6037d588f728" />
          </g>
          <g
             id="id-39a803f2-cff5-4b45-b940-0f40a3310cb5">
            <path
               d="M 2.015625,1.734375 V 1.40625 h -0.71875 v -6.296875 h 0.71875 V -5.21875 h -1.0625 v 6.953125 z m 0,0"
               id="id-6a5898ec-a63a-4053-8786-7e357f28d7fc" />
          </g>
          <g
             id="id-fd5c164b-e12a-43af-b9ca-7943537b4ffc">
            <path
               d="M 1.296875,-5.21875 H 0.21875 v 0.328125 H 0.953125 V 1.40625 H 0.21875 v 0.328125 h 1.078125 z m 0,0"
               id="id-ec38a1cb-f02a-44f7-850c-4dc172495e18" />
          </g>
          <g
             id="id-5920b04a-7392-4713-9d67-e77c5048e58d">
            <path
               d="m 5.359375,-2.34375 c 0.09375,0 0.25,0 0.25,-0.171875 0,-0.171875 -0.15625,-0.171875 -0.25,-0.171875 H 0.75 c -0.09375,0 -0.265625,0 -0.265625,0.171875 0,0.171875 0.15625,0.171875 0.265625,0.171875 z m 0,1.53125 c 0.09375,0 0.25,0 0.25,-0.15625 0,-0.1875 -0.15625,-0.1875 -0.25,-0.1875 H 0.75 c -0.109375,0 -0.265625,0 -0.265625,0.1875 0,0.15625 0.171875,0.15625 0.265625,0.15625 z m 0,0"
               id="id-4eff342d-d9b4-4eab-a601-bab5b8ebab65" />
          </g>
          <g
             id="id-ecf6ddd0-d682-4973-9ab0-4d57a9eb8e6d">
            <path
               d="m 2.328125,-4.4375 c 0,-0.1875 0,-0.1875 -0.203125,-0.1875 -0.453125,0.4375 -1.078125,0.4375 -1.359375,0.4375 v 0.25 c 0.15625,0 0.625,0 1,-0.1875 v 3.546875 c 0,0.234375 0,0.328125 -0.6875,0.328125 H 0.8125 V 0 c 0.125,0 0.984375,-0.03125 1.234375,-0.03125 0.21875,0 1.09375,0.03125 1.25,0.03125 V -0.25 H 3.03125 c -0.703125,0 -0.703125,-0.09375 -0.703125,-0.328125 z m 0,0"
               id="id-c2c947de-0839-410a-b13a-8be4ea6bb55a" />
          </g>
          <g
             id="id-c1ff4aff-4961-4f8c-b2b7-751b0f40b3a5">
            <path
               d="M 3.0625,-4.359375 C 3.0625,-4.46875 2.96875,-4.625 2.78125,-4.625 c -0.203125,0 -0.390625,0.203125 -0.390625,0.390625 0,0.109375 0.078125,0.265625 0.28125,0.265625 0.1875,0 0.390625,-0.1875 0.390625,-0.390625 z M 1.578125,0.34375 C 1.46875,0.828125 1.09375,1.21875 0.6875,1.21875 c -0.09375,0 -0.171875,0 -0.25,-0.03125 0.171875,-0.09375 0.234375,-0.25 0.234375,-0.359375 0,-0.171875 -0.140625,-0.25 -0.28125,-0.25 C 0.1875,0.578125 0,0.765625 0,0.984375 c 0,0.265625 0.265625,0.4375 0.6875,0.4375 0.421875,0 1.234375,-0.25 1.453125,-1.09375 l 0.625,-2.5 c 0.015625,-0.078125 0.03125,-0.140625 0.03125,-0.25 0,-0.375 -0.328125,-0.65625 -0.734375,-0.65625 -0.78125,0 -1.21875,0.96875 -1.21875,1.078125 0,0.078125 0.09375,0.078125 0.109375,0.078125 0.078125,0 0.09375,-0.015625 0.140625,-0.125 C 1.265625,-2.453125 1.625,-2.875 2.03125,-2.875 c 0.171875,0 0.234375,0.109375 0.234375,0.34375 0,0.078125 0,0.171875 -0.015625,0.203125 z m 0,0"
               id="id-e58d1263-86d8-4ab9-8290-2b540edfebc4" />
          </g>
          <g
             id="id-6cb1ca87-20cd-4035-b5f9-cb876552165a">
            <path
               d="m 1.46875,-0.109375 c 0,0.375 -0.0625,0.828125 -0.546875,1.265625 C 0.90625,1.1875 0.875,1.21875 0.875,1.25 c 0,0.046875 0.0625,0.09375 0.09375,0.09375 0.109375,0 0.703125,-0.5625 0.703125,-1.390625 0,-0.421875 -0.171875,-0.75 -0.5,-0.75 -0.21875,0 -0.390625,0.171875 -0.390625,0.390625 C 0.78125,-0.1875 0.9375,0 1.1875,0 1.359375,0 1.46875,-0.109375 1.46875,-0.109375 Z m 0,0"
               id="id-6441e057-3842-4cf0-a436-0c53ff648670" />
          </g>
          <g
             id="id-6cbb7bf0-f1fc-4085-8bb7-3624af5bf7f8">
            <path
               d="m 1.578125,-0.390625 c 0,-0.25 -0.203125,-0.40625 -0.390625,-0.40625 -0.234375,0 -0.40625,0.1875 -0.40625,0.390625 0,0.25 0.203125,0.40625 0.390625,0.40625 0.234375,0 0.40625,-0.1875 0.40625,-0.390625 z m 0,0"
               id="id-b4e22aee-3efd-4d7c-b73d-883a9e5634f2" />
          </g>
          <g
             id="id-8e42d0b0-b092-471a-80bd-30eb0073c008">
            <path
               d="m 4.15625,-4.21875 c 0.0625,-0.25 0.078125,-0.296875 0.46875,-0.296875 0.078125,0 0.171875,0 0.171875,-0.140625 0,-0.078125 -0.046875,-0.109375 -0.09375,-0.109375 -0.171875,0 -0.59375,0.03125 -0.765625,0.03125 -0.140625,0 -0.375,0 -0.53125,0 -0.171875,-0.015625 -0.375,-0.03125 -0.546875,-0.03125 -0.046875,0 -0.15625,0 -0.15625,0.15625 0,0.09375 0.0625,0.09375 0.265625,0.09375 0.171875,0 0.1875,0 0.375,0.015625 0.203125,0.03125 0.21875,0.046875 0.21875,0.125 0,0.046875 0,0.0625 -0.03125,0.171875 l -0.796875,3.1875 C 2.59375,-0.5 2.15625,-0.0625 1.703125,-0.0625 1.609375,-0.0625 1.15625,-0.078125 1,-0.421875 c 0.40625,0 0.5,-0.328125 0.5,-0.453125 0,-0.1875 -0.171875,-0.296875 -0.328125,-0.296875 -0.1875,0 -0.46875,0.15625 -0.46875,0.546875 0,0.453125 0.4375,0.765625 1.015625,0.765625 0.6875,0 1.453125,-0.4375 1.640625,-1.140625 z m 0,0"
               id="id-fdcc4fdc-1478-4b65-a10d-920511bd7100" />
          </g>
        </g>
      </defs>
      <g
         fill="#000000"
         fill-opacity="1"
         id="id-741f200b-bd18-45c3-a8d7-8c6aa549abda"
         transform="translate(-149.212,-125.93)">
        <g
           transform="translate(148.712,134.765)"
           id="g26">
          <path
             d="M 4.78125,-5.5 C 4.6875,-6.234375 4.59375,-6.8125 3.890625,-6.8125 c -0.9375,0 -1.59375,0.6875 -1.59375,0.953125 0,0.078125 0.0625,0.078125 0.109375,0.078125 0.109375,0 0.546875,-0.125 0.734375,-0.46875 L 3.15625,-6.265625 c 0.546875,0 0.6875,0.3125 0.78125,1.34375 l 0.140625,1.46875 c -0.359375,0.1875 -1.703125,1 -2.421875,1.5 C 0.515625,-1.140625 0.5,-0.84375 0.5,-0.5625 0.5,-0.21875 0.671875,0 0.984375,0 c 0.296875,0 0.75,-0.328125 0.75,-0.484375 0,-0.046875 -0.03125,-0.046875 -0.0625,-0.0625 C 1.578125,-0.5625 1.34375,-0.59375 1.34375,-0.984375 c 0,-0.265625 0,-0.390625 1.0625,-1.09375 0.609375,-0.40625 1.1875,-0.71875 1.703125,-1.046875 0,0.015625 0.140625,1.515625 0.171875,1.671875 C 4.359375,-0.65625 4.421875,0 5.15625,0 c 0.953125,0 1.609375,-0.671875 1.609375,-0.953125 0,-0.078125 -0.0625,-0.078125 -0.109375,-0.078125 -0.109375,0 -0.546875,0.140625 -0.734375,0.46875 -0.03125,0.015625 -0.078125,0.015625 -0.09375,0.015625 -0.578125,0 -0.640625,-0.625 -0.71875,-1.46875 C 5.078125,-2.328125 5.046875,-2.59375 4.953125,-3.625 8.0625,-5.484375 8.0625,-5.828125 8.0625,-6.25 c 0,-0.34375 -0.1875,-0.5625 -0.46875,-0.5625 -0.3125,0 -0.78125,0.34375 -0.78125,0.484375 0,0.0625 0.0625,0.0625 0.078125,0.0625 0.078125,0.015625 0.3125,0.0625 0.3125,0.4375 0,0.25 -0.03125,0.40625 -0.875,0.984375 -0.296875,0.203125 -0.71875,0.453125 -1.40625,0.875 z m 0,0"
             id="id-5bf11b07-5126-41e4-b059-46fe8e75c0a2" />
        </g>
      </g>
      <g
         fill="#000000"
         fill-opacity="1"
         id="id-820f4317-6b31-471a-bf46-94cfd5648ef4"
         transform="translate(-149.212,-125.93)">
        <g
           transform="translate(160.045,134.765)"
           id="g27">
          <path
             d="m 6.84375,-3.265625 c 0.15625,0 0.34375,0 0.34375,-0.1875 C 7.1875,-3.65625 7,-3.65625 6.859375,-3.65625 h -5.96875 c -0.140625,0 -0.328125,0 -0.328125,0.203125 0,0.1875 0.1875,0.1875 0.328125,0.1875 z m 0.015625,1.9375 c 0.140625,0 0.328125,0 0.328125,-0.203125 0,-0.1875 -0.1875,-0.1875 -0.34375,-0.1875 H 0.890625 c -0.140625,0 -0.328125,0 -0.328125,0.1875 0,0.203125 0.1875,0.203125 0.328125,0.203125 z m 0,0"
             id="id-e0156117-a5b1-405b-b63d-5b9519ede02b" />
        </g>
      </g>
      <g
         fill="#000000"
         fill-opacity="1"
         id="id-534a659b-186a-40e2-97bf-b8e6a5f412c9"
         transform="translate(-149.212,-125.93)">
        <g
           transform="translate(170.561,126.695)"
           id="g28">
          <path
             d="m 2.5625,3.984375 c 0,0.6875 -0.34375,1.0625 -1.359375,1.46875 C 1.15625,5.46875 1.125,5.515625 1.125,5.578125 1.125,5.65625 1.140625,5.6875 1.21875,5.71875 2.5625,6.234375 2.5625,6.765625 2.5625,7.328125 v 2.75 c 0.015625,0.265625 0.15625,0.640625 0.59375,0.9375 0.5,0.328125 1.296875,0.53125 1.390625,0.53125 0.09375,0 0.125,-0.03125 0.125,-0.125 C 4.671875,11.328125 4.65625,11.328125 4.5,11.28125 4.21875,11.171875 3.4375,10.859375 3.28125,10.25 3.25,10.125 3.25,10.109375 3.25,9.734375 v -2.4375 c 0,-0.515625 0,-1.25 -1.625,-1.71875 C 3.25,5.078125 3.25,4.40625 3.25,3.84375 v -2.4375 c 0,-0.546875 0,-1.0625 1.359375,-1.5625 0.0625,-0.015625 0.0625,-0.09375 0.0625,-0.109375 0,-0.09375 -0.03125,-0.140625 -0.125,-0.140625 -0.078125,0 -1.46875,0.328125 -1.828125,0.984375 C 2.5625,0.875 2.5625,0.96875 2.5625,1.390625 Z m 0,0"
             id="id-9c393ca3-5d68-45f3-953e-96cbd7d0496c" />
        </g>
        <g
           transform="translate(176.372,126.695)"
           id="g29">
          <path
             d="M 3.5,11.34375 C 3.5625,11.5 3.59375,11.5625 3.71875,11.5625 c 0.109375,0 0.203125,-0.09375 0.203125,-0.203125 0,0 0,-0.0625 -0.0625,-0.1875 l -2.46875,-5.59375 2.46875,-5.59375 c 0.0625,-0.125 0.0625,-0.171875 0.0625,-0.1875 0,-0.109375 -0.09375,-0.203125 -0.203125,-0.203125 -0.125,0 -0.15625,0.09375 -0.21875,0.21875 L 1.03125,5.390625 c -0.046875,0.125 -0.046875,0.1875 -0.046875,0.1875 0,0.015625 0,0.0625 0.046875,0.1875 z m 0,0"
             id="id-4a813e0f-373f-4bda-a59b-80ef8897e907" />
        </g>
      </g>
      <g
         fill="#000000"
         fill-opacity="1"
         id="id-315b942b-4dc9-4c1c-9061-7384c1f39e64"
         transform="translate(-149.212,-125.93)">
        <g
           transform="translate(181.077,134.765)"
           id="g30">
          <path
             d="M 3.328125,-3.015625 C 3.390625,-3.265625 3.625,-4.1875 4.3125,-4.1875 c 0.046875,0 0.296875,0 0.5,0.125 C 4.53125,-4 4.34375,-3.765625 4.34375,-3.515625 c 0,0.15625 0.109375,0.34375 0.375,0.34375 0.21875,0 0.53125,-0.171875 0.53125,-0.578125 0,-0.515625 -0.578125,-0.65625 -0.921875,-0.65625 -0.578125,0 -0.921875,0.53125 -1.046875,0.75 -0.25,-0.65625 -0.78125,-0.75 -1.078125,-0.75 -1.03125,0 -1.609375,1.28125 -1.609375,1.53125 0,0.109375 0.109375,0.109375 0.125,0.109375 0.078125,0 0.109375,-0.03125 0.125,-0.109375 0.34375,-1.0625 1,-1.3125 1.34375,-1.3125 0.1875,0 0.53125,0.09375 0.53125,0.671875 0,0.3125 -0.171875,0.96875 -0.53125,2.375 -0.15625,0.609375 -0.515625,1.03125 -0.953125,1.03125 -0.0625,0 -0.28125,0 -0.5,-0.125 0.25,-0.0625 0.46875,-0.265625 0.46875,-0.546875 0,-0.265625 -0.21875,-0.34375 -0.359375,-0.34375 -0.3125,0 -0.546875,0.25 -0.546875,0.578125 0,0.453125 0.484375,0.65625 0.921875,0.65625 0.671875,0 1.03125,-0.703125 1.046875,-0.75 0.125,0.359375 0.484375,0.75 1.078125,0.75 1.03125,0 1.59375,-1.28125 1.59375,-1.53125 0,-0.109375 -0.078125,-0.109375 -0.109375,-0.109375 -0.09375,0 -0.109375,0.046875 -0.140625,0.109375 -0.328125,1.078125 -1,1.3125 -1.3125,1.3125 -0.390625,0 -0.546875,-0.3125 -0.546875,-0.65625 0,-0.21875 0.046875,-0.4375 0.15625,-0.875 z m 0,0"
             id="id-3fd8a4ee-7ac2-4f30-ae38-95b987e21187" />
        </g>
      </g>
      <g
         fill="#000000"
         fill-opacity="1"
         id="id-d5915d39-ecc3-4937-9279-9f7af2c8bb22"
         transform="translate(-149.212,-125.93)">
        <g
           transform="translate(186.771,131.149)"
           id="g31">
          <path
             d="M 2.015625,1.734375 V 1.40625 h -0.71875 v -6.296875 h 0.71875 V -5.21875 h -1.0625 v 6.953125 z m 0,0"
             id="id-03848f27-c983-4090-bdbe-556322129224" />
        </g>
      </g>
      <g
         fill="#000000"
         fill-opacity="1"
         id="id-878ac1c5-0a97-4df1-9162-01c7d8c97339"
         transform="translate(-149.212,-125.93)">
        <g
           transform="translate(189.026,131.149)"
           id="g32">
          <path
             d="M 3.0625,-4.359375 C 3.0625,-4.46875 2.96875,-4.625 2.78125,-4.625 c -0.203125,0 -0.390625,0.203125 -0.390625,0.390625 0,0.109375 0.078125,0.265625 0.28125,0.265625 0.1875,0 0.390625,-0.1875 0.390625,-0.390625 z M 1.578125,0.34375 C 1.46875,0.828125 1.09375,1.21875 0.6875,1.21875 c -0.09375,0 -0.171875,0 -0.25,-0.03125 0.171875,-0.09375 0.234375,-0.25 0.234375,-0.359375 0,-0.171875 -0.140625,-0.25 -0.28125,-0.25 C 0.1875,0.578125 0,0.765625 0,0.984375 c 0,0.265625 0.265625,0.4375 0.6875,0.4375 0.421875,0 1.234375,-0.25 1.453125,-1.09375 l 0.625,-2.5 c 0.015625,-0.078125 0.03125,-0.140625 0.03125,-0.25 0,-0.375 -0.328125,-0.65625 -0.734375,-0.65625 -0.78125,0 -1.21875,0.96875 -1.21875,1.078125 0,0.078125 0.09375,0.078125 0.109375,0.078125 0.078125,0 0.09375,-0.015625 0.140625,-0.125 C 1.265625,-2.453125 1.625,-2.875 2.03125,-2.875 c 0.171875,0 0.234375,0.109375 0.234375,0.34375 0,0.078125 0,0.171875 -0.015625,0.203125 z m 0,0"
             id="id-9b5e6ef0-c79b-46df-9ff5-42cf11d09eed" />
        </g>
      </g>
      <g
         fill="#000000"
         fill-opacity="1"
         id="id-bf41cd77-5505-4764-b5ce-0a1e21a86b8e"
         transform="translate(-149.212,-125.93)">
        <g
           transform="translate(192.726,131.149)"
           id="g33">
          <path
             d="M 1.296875,-5.21875 H 0.21875 v 0.328125 H 0.953125 V 1.40625 H 0.21875 v 0.328125 h 1.078125 z m 0,0"
             id="id-5cd18ed5-f975-4fd9-b90d-dcadcdc5327c" />
        </g>
      </g>
      <g
         fill="#000000"
         fill-opacity="1"
         id="id-10452afa-5827-4ada-aa18-caf91820e356"
         transform="translate(-149.212,-125.93)">
        <g
           transform="translate(195.48,134.765)"
           id="g34">
          <path
             d="m 2.03125,-0.015625 c 0,-0.65625 -0.25,-1.046875 -0.640625,-1.046875 -0.328125,0 -0.53125,0.25 -0.53125,0.53125 C 0.859375,-0.265625 1.0625,0 1.390625,0 1.5,0 1.640625,-0.046875 1.734375,-0.125 1.765625,-0.15625 1.78125,-0.15625 1.78125,-0.15625 c 0.015625,0 0.015625,0 0.015625,0.140625 0,0.75 -0.34375,1.34375 -0.671875,1.671875 -0.109375,0.109375 -0.109375,0.125 -0.109375,0.15625 0,0.078125 0.046875,0.109375 0.09375,0.109375 0.109375,0 0.921875,-0.765625 0.921875,-1.9375 z m 0,0"
             id="id-817af1bd-0c08-4b1e-ad7d-b9e8fed66da9" />
        </g>
      </g>
      <g
         fill="#000000"
         fill-opacity="1"
         id="id-f3abbbad-655f-4711-aa32-bb490b45f0d7"
         transform="translate(-149.212,-125.93)">
        <g
           transform="translate(199.911,134.765)"
           id="g35">
          <path
             d="M 4.609375,-3.375 C 4.65625,-3.59375 4.75,-3.96875 4.75,-4.03125 c 0,-0.171875 -0.140625,-0.265625 -0.28125,-0.265625 -0.125,0 -0.296875,0.078125 -0.375,0.28125 -0.03125,0.0625 -0.5,1.96875 -0.5625,2.234375 C 3.453125,-1.484375 3.4375,-1.3125 3.4375,-1.125 c 0,0.109375 0,0.125 0.015625,0.171875 -0.234375,0.53125 -0.53125,0.84375 -0.921875,0.84375 -0.796875,0 -0.796875,-0.734375 -0.796875,-0.90625 0,-0.3125 0.046875,-0.703125 0.515625,-1.9375 0.109375,-0.296875 0.171875,-0.4375 0.171875,-0.640625 0,-0.4375 -0.328125,-0.8125 -0.8125,-0.8125 -0.953125,0 -1.3125,1.453125 -1.3125,1.53125 0,0.109375 0.09375,0.109375 0.109375,0.109375 0.109375,0 0.109375,-0.03125 0.15625,-0.1875 C 0.84375,-3.875 1.21875,-4.1875 1.578125,-4.1875 c 0.09375,0 0.25,0.015625 0.25,0.328125 0,0.25 -0.109375,0.53125 -0.1875,0.703125 -0.4375,1.171875 -0.546875,1.625 -0.546875,2.015625 0,0.90625 0.65625,1.25 1.40625,1.25 0.171875,0 0.640625,0 1.03125,-0.703125 0.265625,0.640625 0.953125,0.703125 1.25,0.703125 0.75,0 1.1875,-0.625 1.453125,-1.21875 0.328125,-0.78125 0.65625,-2.125 0.65625,-2.59375 0,-0.546875 -0.265625,-0.703125 -0.4375,-0.703125 -0.25,0 -0.5,0.265625 -0.5,0.484375 0,0.125 0.0625,0.1875 0.140625,0.265625 0.109375,0.109375 0.359375,0.359375 0.359375,0.84375 0,0.34375 -0.28125,1.3125 -0.546875,1.828125 -0.25,0.53125 -0.609375,0.875 -1.09375,0.875 -0.46875,0 -0.734375,-0.296875 -0.734375,-0.875 0,-0.265625 0.0625,-0.578125 0.109375,-0.71875 z m 0,0"
             id="id-893bb9a4-8a14-471a-a204-73af0f495d4e" />
        </g>
      </g>
      <g
         fill="#000000"
         fill-opacity="1"
         id="id-5e6eed39-5346-4c6e-9a04-14477465ca6c"
         transform="translate(-149.212,-125.93)">
        <g
           transform="translate(207.308,131.149)"
           id="g36">
          <path
             d="M 2.015625,1.734375 V 1.40625 h -0.71875 v -6.296875 h 0.71875 V -5.21875 h -1.0625 v 6.953125 z m 0,0"
             id="id-3a5c98c9-1978-4379-a765-270ea9adb61e" />
        </g>
      </g>
      <g
         fill="#000000"
         fill-opacity="1"
         id="id-1c6afe7d-8cd2-4e32-8375-14edc282334e"
         transform="translate(-149.212,-125.93)">
        <g
           transform="translate(209.563,131.149)"
           id="g37">
          <path
             d="M 3.0625,-4.359375 C 3.0625,-4.46875 2.96875,-4.625 2.78125,-4.625 c -0.203125,0 -0.390625,0.203125 -0.390625,0.390625 0,0.109375 0.078125,0.265625 0.28125,0.265625 0.1875,0 0.390625,-0.1875 0.390625,-0.390625 z M 1.578125,0.34375 C 1.46875,0.828125 1.09375,1.21875 0.6875,1.21875 c -0.09375,0 -0.171875,0 -0.25,-0.03125 0.171875,-0.09375 0.234375,-0.25 0.234375,-0.359375 0,-0.171875 -0.140625,-0.25 -0.28125,-0.25 C 0.1875,0.578125 0,0.765625 0,0.984375 c 0,0.265625 0.265625,0.4375 0.6875,0.4375 0.421875,0 1.234375,-0.25 1.453125,-1.09375 l 0.625,-2.5 c 0.015625,-0.078125 0.03125,-0.140625 0.03125,-0.25 0,-0.375 -0.328125,-0.65625 -0.734375,-0.65625 -0.78125,0 -1.21875,0.96875 -1.21875,1.078125 0,0.078125 0.09375,0.078125 0.109375,0.078125 0.078125,0 0.09375,-0.015625 0.140625,-0.125 C 1.265625,-2.453125 1.625,-2.875 2.03125,-2.875 c 0.171875,0 0.234375,0.109375 0.234375,0.34375 0,0.078125 0,0.171875 -0.015625,0.203125 z m 0,0"
             id="id-0ebe6400-6461-4fa6-b5e9-6c49f661b060" />
        </g>
      </g>
      <g
         fill="#000000"
         fill-opacity="1"
         id="id-5a833a1c-e673-47c9-b370-fdf9c6a9e1cd"
         transform="translate(-149.212,-125.93)">
        <g
           transform="translate(213.263,131.149)"
           id="g38">
          <path
             d="M 1.296875,-5.21875 H 0.21875 v 0.328125 H 0.953125 V 1.40625 H 0.21875 v 0.328125 h 1.078125 z m 0,0"
             id="id-e583b306-0150-4426-8007-82c0ec76d6c8" />
        </g>
      </g>
      <g
         fill="#000000"
         fill-opacity="1"
         id="id-57c3bed9-478a-44b3-9a68-8477a821308e"
         transform="translate(-149.212,-125.93)">
        <g
           transform="translate(216.017,126.695)"
           id="g39">
          <path
             d="m 3.296875,5.578125 -2.453125,5.59375 c -0.0625,0.125 -0.0625,0.1875 -0.0625,0.1875 0,0.109375 0.09375,0.203125 0.203125,0.203125 0.125,0 0.15625,-0.07813 0.21875,-0.203125 L 3.65625,5.765625 c 0.0625,-0.125 0.0625,-0.171875 0.0625,-0.1875 0,0 0,-0.0625 -0.0625,-0.1875 l -2.453125,-5.5625 C 1.125,-0.34375 1.09375,-0.40625 0.984375,-0.40625 c -0.109375,0 -0.203125,0.09375 -0.203125,0.203125 0,0.015625 0,0.0625 0.0625,0.1875 z m 0,0"
             id="id-dd3e7ce2-b167-459e-b3e5-0ef3c8c224a7" />
        </g>
        <g
           transform="translate(220.721,126.695)"
           id="g40">
          <path
             d="m 3.25,7.171875 c 0,-0.328125 0,-0.9375 1.28125,-1.453125 0.125,-0.046875 0.140625,-0.046875 0.140625,-0.140625 0,-0.03125 0,-0.09375 -0.0625,-0.109375 C 3.25,4.9375 3.25,4.390625 3.25,3.828125 v -2.75 C 3.234375,0.53125 2.796875,0.234375 2.625,0.125 2.203125,-0.171875 1.359375,-0.40625 1.25,-0.40625 c -0.09375,0 -0.125,0.0625 -0.125,0.140625 0,0.09375 0.046875,0.109375 0.125,0.125 1.3125,0.5 1.3125,1 1.3125,1.5625 v 2.4375 c 0,0.546875 0,1.21875 1.609375,1.71875 C 2.5625,6.109375 2.5625,6.6875 2.5625,7.3125 V 9.75 c 0,0.515625 0,1.046875 -1.28125,1.53125 -0.109375,0.04687 -0.15625,0.04687 -0.15625,0.140625 0,0.07813 0.03125,0.125 0.125,0.125 0.015625,0 1.328125,-0.25 1.796875,-0.90625 C 3.25,10.359375 3.25,10.140625 3.25,9.765625 Z m 0,0"
             id="id-5fa44619-0824-4490-a58f-9d236b33ea5a" />
        </g>
      </g>
      <g
         fill="#000000"
         fill-opacity="1"
         id="id-19f4dc3e-f107-451d-bc01-b9c8aab94602"
         transform="translate(-149.212,-125.93)">
        <g
           transform="translate(226.533,138.75)"
           id="g41">
          <path
             d="M 3.0625,-4.359375 C 3.0625,-4.46875 2.96875,-4.625 2.78125,-4.625 c -0.203125,0 -0.390625,0.203125 -0.390625,0.390625 0,0.109375 0.078125,0.265625 0.28125,0.265625 0.1875,0 0.390625,-0.1875 0.390625,-0.390625 z M 1.578125,0.34375 C 1.46875,0.828125 1.09375,1.21875 0.6875,1.21875 c -0.09375,0 -0.171875,0 -0.25,-0.03125 0.171875,-0.09375 0.234375,-0.25 0.234375,-0.359375 0,-0.171875 -0.140625,-0.25 -0.28125,-0.25 C 0.1875,0.578125 0,0.765625 0,0.984375 c 0,0.265625 0.265625,0.4375 0.6875,0.4375 0.421875,0 1.234375,-0.25 1.453125,-1.09375 l 0.625,-2.5 c 0.015625,-0.078125 0.03125,-0.140625 0.03125,-0.25 0,-0.375 -0.328125,-0.65625 -0.734375,-0.65625 -0.78125,0 -1.21875,0.96875 -1.21875,1.078125 0,0.078125 0.09375,0.078125 0.109375,0.078125 0.078125,0 0.09375,-0.015625 0.140625,-0.125 C 1.265625,-2.453125 1.625,-2.875 2.03125,-2.875 c 0.171875,0 0.234375,0.109375 0.234375,0.34375 0,0.078125 0,0.171875 -0.015625,0.203125 z m 0,0"
             id="id-0eee7323-4c8b-484f-8387-91450aad8464" />
        </g>
      </g>
      <g
         fill="#000000"
         fill-opacity="1"
         id="id-54a2e091-d429-401b-8367-9d3e0cd3f9ca"
         transform="translate(-149.212,-125.93)">
        <g
           transform="translate(230.233,138.75)"
           id="g42">
          <path
             d="m 5.359375,-2.34375 c 0.09375,0 0.25,0 0.25,-0.171875 0,-0.171875 -0.15625,-0.171875 -0.25,-0.171875 H 0.75 c -0.09375,0 -0.265625,0 -0.265625,0.171875 0,0.171875 0.15625,0.171875 0.265625,0.171875 z m 0,1.53125 c 0.09375,0 0.25,0 0.25,-0.15625 0,-0.1875 -0.15625,-0.1875 -0.25,-0.1875 H 0.75 c -0.109375,0 -0.265625,0 -0.265625,0.1875 0,0.15625 0.171875,0.15625 0.265625,0.15625 z m 0,0"
             id="id-d68d6129-3fe0-40d3-9e24-311dd2f71b5f" />
        </g>
        <g
           transform="translate(236.349,138.75)"
           id="g43">
          <path
             d="m 2.328125,-4.4375 c 0,-0.1875 0,-0.1875 -0.203125,-0.1875 -0.453125,0.4375 -1.078125,0.4375 -1.359375,0.4375 v 0.25 c 0.15625,0 0.625,0 1,-0.1875 v 3.546875 c 0,0.234375 0,0.328125 -0.6875,0.328125 H 0.8125 V 0 c 0.125,0 0.984375,-0.03125 1.234375,-0.03125 0.21875,0 1.09375,0.03125 1.25,0.03125 V -0.25 H 3.03125 c -0.703125,0 -0.703125,-0.09375 -0.703125,-0.328125 z m 0,0"
             id="id-3503fe71-c463-47b6-9cf3-34b5269af8c5" />
        </g>
      </g>
      <g
         fill="#000000"
         fill-opacity="1"
         id="id-9cb55a06-575c-4314-b6b4-91626864e475"
         transform="translate(-149.212,-125.93)">
        <g
           transform="translate(240.32,138.75)"
           id="g44">
          <path
             d="m 1.46875,-0.109375 c 0,0.375 -0.0625,0.828125 -0.546875,1.265625 C 0.90625,1.1875 0.875,1.21875 0.875,1.25 c 0,0.046875 0.0625,0.09375 0.09375,0.09375 0.109375,0 0.703125,-0.5625 0.703125,-1.390625 0,-0.421875 -0.171875,-0.75 -0.5,-0.75 -0.21875,0 -0.390625,0.171875 -0.390625,0.390625 C 0.78125,-0.1875 0.9375,0 1.1875,0 1.359375,0 1.46875,-0.109375 1.46875,-0.109375 Z m 0,0"
             id="id-d7807510-cb85-451d-a67d-5e482ac5958f" />
        </g>
        <g
           transform="translate(242.686,138.75)"
           id="g45">
          <path
             d="m 1.578125,-0.390625 c 0,-0.25 -0.203125,-0.40625 -0.390625,-0.40625 -0.234375,0 -0.40625,0.1875 -0.40625,0.390625 0,0.25 0.203125,0.40625 0.390625,0.40625 0.234375,0 0.40625,-0.1875 0.40625,-0.390625 z m 0,0"
             id="id-4d21cf1b-46bb-4b51-a672-22135fd5f31e" />
        </g>
        <g
           transform="translate(245.052,138.75)"
           id="g46">
          <path
             d="m 1.578125,-0.390625 c 0,-0.25 -0.203125,-0.40625 -0.390625,-0.40625 -0.234375,0 -0.40625,0.1875 -0.40625,0.390625 0,0.25 0.203125,0.40625 0.390625,0.40625 0.234375,0 0.40625,-0.1875 0.40625,-0.390625 z m 0,0"
             id="id-5b338532-c4b2-49a4-9ce2-f5bac2e19e39" />
        </g>
        <g
           transform="translate(247.419,138.75)"
           id="g47">
          <path
             d="m 1.578125,-0.390625 c 0,-0.25 -0.203125,-0.40625 -0.390625,-0.40625 -0.234375,0 -0.40625,0.1875 -0.40625,0.390625 0,0.25 0.203125,0.40625 0.390625,0.40625 0.234375,0 0.40625,-0.1875 0.40625,-0.390625 z m 0,0"
             id="id-26bf5944-a5ef-47b8-bdd2-2f0a435fc1a6" />
        </g>
        <g
           transform="translate(249.785,138.75)"
           id="g48">
          <path
             d="m 1.46875,-0.109375 c 0,0.375 -0.0625,0.828125 -0.546875,1.265625 C 0.90625,1.1875 0.875,1.21875 0.875,1.25 c 0,0.046875 0.0625,0.09375 0.09375,0.09375 0.109375,0 0.703125,-0.5625 0.703125,-1.390625 0,-0.421875 -0.171875,-0.75 -0.5,-0.75 -0.21875,0 -0.390625,0.171875 -0.390625,0.390625 C 0.78125,-0.1875 0.9375,0 1.1875,0 1.359375,0 1.46875,-0.109375 1.46875,-0.109375 Z m 0,0"
             id="id-37b11e39-da02-4060-9a87-daed42d9962b" />
        </g>
        <g
           transform="translate(252.151,138.75)"
           id="g49">
          <path
             d="m 4.15625,-4.21875 c 0.0625,-0.25 0.078125,-0.296875 0.46875,-0.296875 0.078125,0 0.171875,0 0.171875,-0.140625 0,-0.078125 -0.046875,-0.109375 -0.09375,-0.109375 -0.171875,0 -0.59375,0.03125 -0.765625,0.03125 -0.140625,0 -0.375,0 -0.53125,0 -0.171875,-0.015625 -0.375,-0.03125 -0.546875,-0.03125 -0.046875,0 -0.15625,0 -0.15625,0.15625 0,0.09375 0.0625,0.09375 0.265625,0.09375 0.171875,0 0.1875,0 0.375,0.015625 0.203125,0.03125 0.21875,0.046875 0.21875,0.125 0,0.046875 0,0.0625 -0.03125,0.171875 l -0.796875,3.1875 C 2.59375,-0.5 2.15625,-0.0625 1.703125,-0.0625 1.609375,-0.0625 1.15625,-0.078125 1,-0.421875 c 0.40625,0 0.5,-0.328125 0.5,-0.453125 0,-0.1875 -0.171875,-0.296875 -0.328125,-0.296875 -0.1875,0 -0.46875,0.15625 -0.46875,0.546875 0,0.453125 0.4375,0.765625 1.015625,0.765625 0.6875,0 1.453125,-0.4375 1.640625,-1.140625 z m 0,0"
             id="id-57ea2ef5-21a5-47cf-936e-b7e6cd94b8fb" />
        </g>
      </g>
    </g>
  </g>
</svg>
