<?xml version="1.0" encoding="UTF-8" standalone="no"?>
<!-- Created with Inkscape (http://www.inkscape.org/) -->

<svg
   width="119.05219mm"
   height="97.610161mm"
   viewBox="0 0 119.05219 97.610161"
   version="1.1"
   id="svg5"
   inkscape:version="1.1 (1:1.1+202105261517+ce6663b3b7)"
   sodipodi:docname="mobile_robot_scheme.svg"
   xmlns:inkscape="http://www.inkscape.org/namespaces/inkscape"
   xmlns:sodipodi="http://sodipodi.sourceforge.net/DTD/sodipodi-0.dtd"
   xmlns="http://www.w3.org/2000/svg"
   xmlns:svg="http://www.w3.org/2000/svg">
  <sodipodi:namedview
     id="namedview7"
     pagecolor="#ffffff"
     bordercolor="#666666"
     borderopacity="1.0"
     inkscape:pageshadow="2"
     inkscape:pageopacity="0.0"
     inkscape:pagecheckerboard="0"
     inkscape:document-units="mm"
     showgrid="false"
     fit-margin-top="0"
     fit-margin-left="0"
     fit-margin-right="0"
     fit-margin-bottom="0"
     inkscape:zoom="1.3416246"
     inkscape:cx="360.38398"
     inkscape:cy="261.62311"
     inkscape:window-width="1920"
     inkscape:window-height="1023"
     inkscape:window-x="0"
     inkscape:window-y="32"
     inkscape:window-maximized="1"
     inkscape:current-layer="g830" />
  <defs
     id="defs2">
    <clipPath
       clipPathUnits="userSpaceOnUse"
       id="clipPath872">
      <path
         d="M 72,576 H 432 V 237.12 H 72 Z"
         clip-rule="evenodd"
         id="path870" />
    </clipPath>
    <clipPath
       clipPathUnits="userSpaceOnUse"
       id="clipPath880">
      <path
         d="M 0,648.03 H 504 V 0.03 H 0 Z"
         id="path878" />
    </clipPath>
  </defs>
  <g
     inkscape:label="Layer 1"
     inkscape:groupmode="layer"
     id="layer1"
     transform="translate(-59.597229,-64.357008)">
    <g
       id="g830"
       inkscape:label="Introduction to autonomous mobile robots by Scaramuzza, Davide Siegwart, Roland Nourbakhsh, Illah Reza (z-lib.org)"
       transform="matrix(0.35277777,0,0,-0.35277777,16.426234,255.09687)">
      <g
         id="g5838">
        <g
           id="g866"
           transform="translate(50.374476,-34.030298)">
          <g
             id="g868"
             clip-path="url(#clipPath872)">
            <g
               id="g874">
              <g
                 id="g876"
                 clip-path="url(#clipPath880)">
                <path
                   d="m 96.48,462.06 h 100.74 v 3 H 96.48 Z"
                   style="fill:#cccccc;fill-opacity:1;fill-rule:nonzero;stroke:none"
                   id="path890" />
                <path
                   d="m 194.22,345.84 h 3 v 117.72 h -3 z"
                   style="fill:#cccccc;fill-opacity:1;fill-rule:nonzero;stroke:none"
                   id="path892" />
                <path
                   d="m 94.98,345.84 h 100.74 v 3 H 94.98 Z"
                   style="fill:#cccccc;fill-opacity:1;fill-rule:nonzero;stroke:none"
                   id="path894" />
                <path
                   d="m 94.98,347.34 h 3 v 117.72 h -3 z"
                   style="fill:#cccccc;fill-opacity:1;fill-rule:nonzero;stroke:none"
                   id="path896" />
                <path
                   d="m 294.96,462.06 h 100.68 v 3 H 294.96 Z"
                   style="fill:#4d4d4d;fill-opacity:1;fill-rule:nonzero;stroke:none"
                   id="path898" />
                <path
                   d="m 392.64,345.84 h 3 v 117.72 h -3 z"
                   style="fill:#4d4d4d;fill-opacity:1;fill-rule:nonzero;stroke:none"
                   id="path900" />
                <path
                   d="m 293.46,345.84 h 100.68 v 3 H 293.46 Z"
                   style="fill:#4d4d4d;fill-opacity:1;fill-rule:nonzero;stroke:none"
                   id="path902" />
                <path
                   d="m 293.46,347.34 h 3 v 117.72 h -3 z"
                   style="fill:#4d4d4d;fill-opacity:1;fill-rule:nonzero;stroke:none"
                   id="path904" />
                <path
                   d="m 303.42,350.22 h 85.08 v 33.96 h -85.08 z"
                   style="fill:#000000;fill-opacity:1;fill-rule:nonzero;stroke:none"
                   id="path906" />
                <path
                   d="m 303.42,423.9 h 85.08 v 33.6 h -85.08 z"
                   style="fill:#000000;fill-opacity:1;fill-rule:nonzero;stroke:none"
                   id="path908" />
                <path
                   d="m 303.42,494.76 h 85.08 v 34.02 h -85.08 z"
                   style="fill:#000000;fill-opacity:1;fill-rule:nonzero;stroke:none"
                   id="path910" />
                <path
                   d="m 105,494.76 h 85.08 v 34.02 H 105 Z"
                   style="fill:#000000;fill-opacity:1;fill-rule:nonzero;stroke:none"
                   id="path912" />
                <path
                   d="m 105,350.22 h 85.08 V 384.3 H 105 Z"
                   style="fill:#000000;fill-opacity:1;fill-rule:nonzero;stroke:none"
                   id="path914" />
                <path
                   d="m 105,423.54 h 85.08 v 34.02 H 105 Z"
                   style="fill:#000000;fill-opacity:1;fill-rule:nonzero;stroke:none"
                   id="path916" />
                <g
                   id="g918"
                   transform="translate(292.92,514.62)">
                  <path
                     d="M 0,0 V 2.16 L 0.66,1.98 6.06,0.48 7.74,0 6.06,-0.48 0.66,-2.04 0,-2.22 v 0.66 l 0.36,0.48 5.4,1.56 0.3,-0.96 H 5.76 L 0.36,1.02 0.66,1.98 1.02,1.5 V 0"
                     style="fill:#000000;fill-opacity:1;fill-rule:nonzero;stroke:none"
                     id="path920" />
                </g>
                <path
                   d="m 292.92,513.06 h 1.02 v 1.56 h -1.02 z"
                   style="fill:#000000;fill-opacity:1;fill-rule:nonzero;stroke:none"
                   id="path922" />
                <g
                   id="g924"
                   transform="translate(293.39999,514.62)">
                  <path
                     d="M 0,0 V 1.5 L 5.4,0 0,-1.56"
                     style="fill:#000000;fill-opacity:1;fill-rule:evenodd;stroke:none"
                     id="path926" />
                </g>
                <path
                   d="m 186.96,514.38 h 0.24 v 0.48 h -0.24 z"
                   style="fill:#000000;fill-opacity:1;fill-rule:nonzero;stroke:none"
                   id="path928" />
                <path
                   d="m 187.2,514.38 h 105.96 v 0.48 H 187.2 Z"
                   style="fill:#000000;fill-opacity:1;fill-rule:nonzero;stroke:none"
                   id="path930" />
                <g
                   id="g932"
                   transform="translate(343.14,468.42)">
                  <path
                     d="M 0,0 H 2.22 L 2.04,-0.66 0.48,-6.06 0,-7.74 -0.48,-6.06 -2.04,-0.66 -2.22,0 h 0.66 l 0.48,-0.36 1.56,-5.4 -0.96,-0.3 v 0.3 l 1.56,5.4 0.96,-0.3 -0.48,-0.36 H 0"
                     style="fill:#000000;fill-opacity:1;fill-rule:nonzero;stroke:none"
                     id="path934" />
                </g>
                <path
                   d="m 341.58,467.4 h 1.56 v 1.02 h -1.56 z"
                   style="fill:#000000;fill-opacity:1;fill-rule:nonzero;stroke:none"
                   id="path936" />
                <g
                   id="g938"
                   transform="translate(343.14,467.94)">
                  <path
                     d="M 0,0 H 1.56 L 0,-5.4 -1.56,0"
                     style="fill:#000000;fill-opacity:1;fill-rule:evenodd;stroke:none"
                     id="path940" />
                </g>
                <path
                   d="m 342.9,497.58 h 0.48 v 0.24 h -0.48 z"
                   style="fill:#000000;fill-opacity:1;fill-rule:nonzero;stroke:none"
                   id="path942" />
                <path
                   d="m 342.9,468.18 h 0.48 v 29.4 h -0.48 z"
                   style="fill:#000000;fill-opacity:1;fill-rule:nonzero;stroke:none"
                   id="path944" />
                <g
                   id="g946"
                   transform="translate(343.14,394.74001)">
                  <path
                     d="M 0,0 H 2.22 L 2.04,-0.66 0.48,-6.06 0,-7.74 -0.48,-6.06 -2.04,-0.66 -2.22,0 h 0.66 l 0.48,-0.36 1.56,-5.4 -0.96,-0.3 v 0.3 l 1.56,5.4 0.96,-0.3 -0.48,-0.36 H 0"
                     style="fill:#000000;fill-opacity:1;fill-rule:nonzero;stroke:none"
                     id="path948" />
                </g>
                <path
                   d="m 341.58,393.72 h 1.56 v 1.02 h -1.56 z"
                   style="fill:#000000;fill-opacity:1;fill-rule:nonzero;stroke:none"
                   id="path950" />
                <g
                   id="g952"
                   transform="translate(343.14,394.25999)">
                  <path
                     d="M 0,0 H 1.56 L 0,-5.4 -1.56,0"
                     style="fill:#000000;fill-opacity:1;fill-rule:evenodd;stroke:none"
                     id="path954" />
                </g>
                <path
                   d="m 342.9,423.9 h 0.48 v 0.24 h -0.48 z"
                   style="fill:#000000;fill-opacity:1;fill-rule:nonzero;stroke:none"
                   id="path956" />
                <path
                   d="m 342.9,394.5 h 0.48 v 29.4 h -0.48 z"
                   style="fill:#000000;fill-opacity:1;fill-rule:nonzero;stroke:none"
                   id="path958" />
                <g
                   id="g960"
                   transform="translate(144.72,416.22)">
                  <path
                     d="m 0,0 h -2.22 l 0.18,0.66 1.56,5.4 L 0,7.8 0.48,6.06 1.98,0.66 2.16,0 H 1.5 l -0.48,0.36 -1.5,5.4 0.96,0.3 v -0.3 l -1.56,-5.4 -0.96,0.3 0.48,0.36 H 0"
                     style="fill:#000000;fill-opacity:1;fill-rule:nonzero;stroke:none"
                     id="path962" />
                </g>
                <path
                   d="m 144.72,416.22 h 1.5 v 1.02 h -1.5 z"
                   style="fill:#000000;fill-opacity:1;fill-rule:nonzero;stroke:none"
                   id="path964" />
                <g
                   id="g966"
                   transform="translate(144.72,416.7)">
                  <path
                     d="M 0,0 H -1.56 L 0,5.4 1.5,0"
                     style="fill:#000000;fill-opacity:1;fill-rule:evenodd;stroke:none"
                     id="path968" />
                </g>
                <path
                   d="m 144.48,383.94 h 0.48 v 0.24 h -0.48 z"
                   style="fill:#000000;fill-opacity:1;fill-rule:nonzero;stroke:none"
                   id="path970" />
                <path
                   d="m 144.48,384.18 h 0.48 v 32.28 h -0.48 z"
                   style="fill:#000000;fill-opacity:1;fill-rule:nonzero;stroke:none"
                   id="path972" />
                <g
                   id="g974"
                   transform="translate(144.72,489.89999)">
                  <path
                     d="m 0,0 h -2.22 l 0.18,0.66 1.56,5.4 L 0,7.8 0.48,6.06 1.98,0.66 2.16,0 H 1.5 l -0.48,0.36 -1.5,5.4 0.96,0.3 v -0.3 l -1.56,-5.4 -0.96,0.3 0.48,0.36 H 0"
                     style="fill:#000000;fill-opacity:1;fill-rule:nonzero;stroke:none"
                     id="path976" />
                </g>
                <path
                   d="m 144.72,489.9 h 1.5 v 1.02 h -1.5 z"
                   style="fill:#000000;fill-opacity:1;fill-rule:nonzero;stroke:none"
                   id="path978" />
                <g
                   id="g980"
                   transform="translate(144.72,490.38)">
                  <path
                     d="M 0,0 H -1.56 L 0,5.4 1.5,0"
                     style="fill:#000000;fill-opacity:1;fill-rule:evenodd;stroke:none"
                     id="path982" />
                </g>
                <path
                   d="m 144.48,457.68 h 0.48 v 0.24 h -0.48 z"
                   style="fill:#000000;fill-opacity:1;fill-rule:nonzero;stroke:none"
                   id="path984" />
                <path
                   d="m 144.48,457.92 h 0.48 v 32.22 h -0.48 z"
                   style="fill:#000000;fill-opacity:1;fill-rule:nonzero;stroke:none"
                   id="path986" />
                <g
                   id="g988"
                   transform="translate(285.24001,354.66)">
                  <path
                     d="m 0,0 1.08,-1.08 0.42,-0.48 -0.54,-0.36 -4.92,-2.76 -1.56,-0.84 0.84,1.56 2.76,4.92 0.36,0.54 0.48,-0.42 0.06,-0.6 -2.76,-4.92 -0.9,0.48 0.24,0.18 4.92,2.76 0.48,-0.9 -0.6,0.12 -1.08,1.08"
                     style="fill:#000000;fill-opacity:1;fill-rule:nonzero;stroke:none"
                     id="path990" />
                </g>
                <g
                   id="g992"
                   transform="translate(284.16,355.74001)">
                  <path
                     d="M 0,0 1.08,-1.08 0.36,-1.8 -0.72,-0.72"
                     style="fill:#000000;fill-opacity:1;fill-rule:nonzero;stroke:none"
                     id="path994" />
                </g>
                <g
                   id="g996"
                   transform="translate(284.88,354.3)">
                  <path
                     d="m 0,0 1.08,-1.08 -4.92,-2.76 2.76,4.92"
                     style="fill:#000000;fill-opacity:1;fill-rule:evenodd;stroke:none"
                     id="path998" />
                </g>
                <g
                   id="g1000"
                   transform="translate(300.78,369.84)">
                  <path
                     d="M 0,0 0.18,0.18 -0.18,0.54 -0.36,0.36"
                     style="fill:#000000;fill-opacity:1;fill-rule:nonzero;stroke:none"
                     id="path1002" />
                </g>
                <g
                   id="g1004"
                   transform="translate(285.42,354.48)">
                  <path
                     d="m 0,0 -0.18,-0.18 -0.36,0.36 0.18,0.18"
                     style="fill:#000000;fill-opacity:1;fill-rule:nonzero;stroke:none"
                     id="path1006" />
                </g>
                <g
                   id="g1008"
                   transform="translate(300.78,369.84)">
                  <path
                     d="M 0,0 -0.36,0.36 -15.72,-15 l 0.36,-0.36"
                     style="fill:#000000;fill-opacity:1;fill-rule:nonzero;stroke:none"
                     id="path1010" />
                </g>
                <g
                   id="g1012"
                   transform="translate(192.66,364.56)">
                  <path
                     d="M 0,0 -1.08,-1.08 -1.56,-1.5 -1.92,-0.96 -4.62,3.96 -5.46,5.52 -3.9,4.68 0.96,1.98 1.5,1.62 1.08,1.14 0.48,1.08 l -4.86,2.7 0.48,0.9 0.18,-0.24 2.7,-4.92 -0.9,-0.48 0.12,0.6 1.08,1.08"
                     style="fill:#000000;fill-opacity:1;fill-rule:nonzero;stroke:none"
                     id="path1014" />
                </g>
                <g
                   id="g1016"
                   transform="translate(193.74001,365.7)">
                  <path
                     d="m 0,0 -1.08,-1.14 -0.72,0.72 1.08,1.14"
                     style="fill:#000000;fill-opacity:1;fill-rule:nonzero;stroke:none"
                     id="path1018" />
                </g>
                <g
                   id="g1020"
                   transform="translate(192.3,364.92)">
                  <path
                     d="m 0,0 -1.08,-1.08 -2.7,4.92 4.86,-2.7"
                     style="fill:#000000;fill-opacity:1;fill-rule:evenodd;stroke:none"
                     id="path1022" />
                </g>
                <g
                   id="g1024"
                   transform="translate(192.84,364.8)">
                  <path
                     d="m 0,0 -0.18,0.18 -0.36,-0.36 0.18,-0.18"
                     style="fill:#000000;fill-opacity:1;fill-rule:nonzero;stroke:none"
                     id="path1026" />
                </g>
                <g
                   id="g1028"
                   transform="translate(211.44,346.2)">
                  <path
                     d="m 0,0 0.18,-0.18 -0.36,-0.36 -0.18,0.18"
                     style="fill:#000000;fill-opacity:1;fill-rule:nonzero;stroke:none"
                     id="path1030" />
                </g>
                <g
                   id="g1032"
                   transform="translate(192.84,364.8)">
                  <path
                     d="m 0,0 -0.36,-0.36 18.6,-18.6 0.36,0.36"
                     style="fill:#000000;fill-opacity:1;fill-rule:nonzero;stroke:none"
                     id="path1034" />
                </g>
                <g
                   id="g1036"
                   transform="translate(300.60001,386.88)">
                  <path
                     d="M 0,0 H 85.08 V -33.84 H 0"
                     style="fill:#4d4d4d;fill-opacity:1;fill-rule:nonzero;stroke:none"
                     id="path1038" />
                </g>
                <g
                   id="g1040"
                   transform="translate(300.60001,460.14)">
                  <path
                     d="M 0,0 H 85.08 V -33.42 H 0"
                     style="fill:#4d4d4d;fill-opacity:1;fill-rule:nonzero;stroke:none"
                     id="path1042" />
                </g>
                <g
                   id="g1044"
                   transform="translate(300.60001,531.48)">
                  <path
                     d="M 0,0 H 85.08 V -33.9 H 0"
                     style="fill:#656565;fill-opacity:1;fill-rule:nonzero;stroke:none"
                     id="path1046" />
                </g>
                <path
                   d="m 102.18,497.58 h 85.02 v 33.9 h -85.02 z"
                   style="fill:#9a9a9a;fill-opacity:1;fill-rule:nonzero;stroke:none"
                   id="path1048" />
                <path
                   d="m 102.18,353.04 h 85.02 v 33.9 h -85.02 z"
                   style="fill:#cccccc;fill-opacity:1;fill-rule:nonzero;stroke:none"
                   id="path1050" />
                <path
                   d="m 102.18,426.72 h 85.02 v 33.54 h -85.02 z"
                   style="fill:#cccccc;fill-opacity:1;fill-rule:nonzero;stroke:none"
                   id="path1052" />
                <path
                   d="m 102.18,401.22 h 85.02 v 8.7 h -85.02 z"
                   style="fill:#ffffff;fill-opacity:1;fill-rule:nonzero;stroke:none"
                   id="path1054" />
                <text
                   transform="matrix(1,0,0,-1,127.86,403.92)"
                   style="font-variant:normal;font-weight:normal;font-stretch:normal;font-size:9px;font-family:'Times New Roman';-inkscape-font-specification:TimesNewRomanPSMT;writing-mode:lr-tb;fill:#000000;fill-opacity:1;fill-rule:nonzero;stroke:none"
                   id="text1058"><tspan
                     x="0 5.994 9.9809999 16.469999 18.749701 23.2407 27.227699 29.720699"
                     y="0"
                     sodipodi:role="line"
                     id="tspan1056">Raw data</tspan></text>
                <path
                   d="m 88.02,469.26 h 116.22 v 16.02 H 88.02 Z"
                   style="fill:#ffffff;fill-opacity:1;fill-rule:nonzero;stroke:none"
                   id="path1060" />
                <text
                   transform="matrix(1,0,0,-1,109.8,479.28)"
                   style="font-variant:normal;font-weight:normal;font-stretch:normal;font-size:9px;font-family:'Times New Roman';-inkscape-font-specification:TimesNewRomanPSMT;writing-mode:lr-tb;fill:#000000;fill-opacity:1;fill-rule:nonzero;stroke:none"
                   id="text1066"><tspan
                     x="0 5.5061998 10.0134 14.5206 17.0298 20.034 24.4692 28.9764 35.9856 39.9888 44.495998 47.005199 49.225498 57.2337 61.6689 66.176102 70.179298"
                     y="0"
                     sodipodi:role="line"
                     id="tspan1062">Environment Model</tspan><tspan
                     x="16.74 22.2138 26.688601 30.659401 34.6842 37.206001 39.4263 47.4021 51.426899"
                     y="9"
                     sodipodi:role="line"
                     id="tspan1064">Local Map</tspan></text>
                <path
                   d="m 221.22,503.28 h 51.06 v 18.18 h -51.06 z"
                   style="fill:#ffffff;fill-opacity:1;fill-rule:nonzero;stroke:none"
                   id="path1068" />
                <text
                   transform="matrix(1,0,0,-1,228,515.46)"
                   style="font-variant:normal;font-weight:normal;font-stretch:normal;font-size:9px;font-family:'Times New Roman';-inkscape-font-specification:TimesNewRomanPSMT;writing-mode:lr-tb;fill:#000000;fill-opacity:1;fill-rule:nonzero;stroke:none"
                   id="text1074"><tspan
                     x="0 3.9933 8.9946003 13.4919 16.9902 19.4895 21.9888 24.4881 28.985399 33.4827"
                     y="0"
                     sodipodi:role="line"
                     id="tspan1070">“Position”</tspan><tspan
                     x="-2.8169999 3.6684 6.1578002 10.6452 15.1326 19.115999 21.6054 23.885099 31.873501 35.856899"
                     y="9"
                     sodipodi:role="line"
                     id="tspan1072">Global Map</tspan></text>
                <path
                   d="m 297.78,401.22 h 90.72 v 8.64 h -90.72 z"
                   style="fill:#ffffff;fill-opacity:1;fill-rule:nonzero;stroke:none"
                   id="path1076" />
                <text
                   transform="matrix(1,0,0,-1,305.82,403.86)"
                   style="font-variant:normal;font-weight:normal;font-stretch:normal;font-size:9px;font-family:'Times New Roman';-inkscape-font-specification:TimesNewRomanPSMT;writing-mode:lr-tb;fill:#000000;fill-opacity:1;fill-rule:nonzero;stroke:none"
                   id="text1080"><tspan
                     x="0 6.5015998 10.4652 12.9708 17.4744 21.438 23.961599 28.4652 31.465799 33.6861 39.692699 44.196301 51.2019 58.162498 62.162102 66.665703 71.1063"
                     y="0"
                     sodipodi:role="line"
                     id="tspan1078">Actuator Commands</tspan></text>
                <text
                   transform="matrix(1,0,0,-1,128.28,368.94)"
                   style="font-variant:normal;font-weight:bold;font-stretch:normal;font-size:9.96px;font-family:'Times New Roman';-inkscape-font-specification:TimesNewRomanPS-BoldMT;writing-mode:lr-tb;fill:#ffffff;fill-opacity:1;fill-rule:nonzero;stroke:none"
                   id="text1100"><tspan
                     x="0 5.5785961 10.041672 15.620268 19.455864 22.265579 27.784416"
                     y="0"
                     sodipodi:role="line"
                     id="tspan1082">Sensing</tspan><tspan
                     x="200.70396 207.89906 212.32529 215.64595 218.41882 223.96056"
                     y="0.059760001"
                     sodipodi:role="line"
                     id="tspan1084">Acting</tspan><tspan
                     x="-9.6512403 -5.8036919 -0.223104 3.066684 8.1094322 12.55458 20.834328 25.877075 29.176825 31.998491 36.98148"
                     y="-82.976761"
                     sodipodi:role="line"
                     id="tspan1086">Information</tspan><tspan
                     x="-15.64716 -8.9769478 -3.9700561 -0.62648398 3.822648 8.8295403 13.278672 16.622244 19.418016 24.424908 29.989559 32.44968 37.456573 42.971424 48.536076"
                     y="-72.957001"
                     sodipodi:role="line"
                     id="tspan1088">Extraction and</tspan><tspan
                     x="-14.08344 -10.242864 -4.6692481 -1.336632 3.1015439 7.5397201 13.093416 17.531591 21.969769 25.302383 30.298321 33.630936 36.415752 41.41169"
                     y="-62.997002"
                     sodipodi:role="line"
                     id="tspan1090">Interpretation</tspan><tspan
                     x="204.85728 210.97371 215.98459 219.33215"
                     y="-79.440964"
                     sodipodi:role="line"
                     id="tspan1092">Path</tspan><tspan
                     x="193.51283 200.1711 205.16605 209.60323 214.04041 219.59309 222.92471 225.70854 230.70348"
                     y="-69.480957"
                     sodipodi:role="line"
                     id="tspan1094">Execution</tspan><tspan
                     x="193.75188 200.98981 206.01662 210.99364 216.50848 219.32417 222.62791 225.4436 230.42061"
                     y="-150.17688"
                     sodipodi:role="line"
                     id="tspan1096">Cognition</tspan><tspan
                     x="184.44923 190.57265 195.55066 198.85538 204.43098 206.95087 213.02448 215.84117 220.80922 226.38483 231.91063 234.72733 240.25313"
                     y="-140.15712"
                     sodipodi:role="line"
                     id="tspan1098">Path Planning</tspan></text>
                <g
                   id="g1102"
                   transform="translate(220.02,442.56)">
                  <path
                     d="M 0,0 -2.1,1.62 -2.58,2.04 -2.04,2.4 5.76,7.98 7.14,9 6.48,7.38 2.82,-1.5 2.58,-2.1 2.04,-1.68 1.86,-1.14 5.52,7.74 6.48,7.38 6.3,7.14 -1.5,1.56 -2.04,2.4 h 0.6 l 2.1,-1.62"
                     style="fill:#000000;fill-opacity:1;fill-rule:nonzero;stroke:none"
                     id="path1104" />
                </g>
                <g
                   id="g1106"
                   transform="translate(222.06,440.88)">
                  <path
                     d="M 0,0 -2.04,1.68 -1.38,2.46 0.66,0.78"
                     style="fill:#000000;fill-opacity:1;fill-rule:nonzero;stroke:none"
                     id="path1108" />
                </g>
                <g
                   id="g1110"
                   transform="translate(220.32001,442.92)">
                  <path
                     d="M 0,0 -2.1,1.62 5.7,7.2 2.04,-1.68"
                     style="fill:#000000;fill-opacity:1;fill-rule:evenodd;stroke:none"
                     id="path1112" />
                </g>
                <g
                   id="g1114"
                   transform="translate(263.64,449.16)">
                  <path
                     d="m 0,0 -0.12,0.18 -0.36,-0.3 0.12,-0.18"
                     style="fill:#000000;fill-opacity:1;fill-rule:nonzero;stroke:none"
                     id="path1116" />
                </g>
                <g
                   id="g1118"
                   transform="translate(263.64,449.16)">
                  <path
                     d="m 0,0 0.84,-0.9 0.72,-0.9 0.72,-0.96 h 0.06 l 1.2,-1.92 0.54,-1.02 v -0.06 l 0.84,-2.04 0.3,-1.08 0.3,-1.02 0.24,-1.08 v -0.06 l 0.12,-1.08 0.12,-2.1 -0.06,-2.16 v -0.06 l -0.36,-2.1 -0.24,-1.02 -0.3,-1.08 v -0.06 l -0.36,-1.02 -0.42,-1.02 -0.48,-0.96 -0.54,-0.96 -0.6,-0.96 v -0.06 L 1.98,-26.64 H 1.92 l -1.44,-1.8 -0.84,-0.84 -0.9,-0.84 -0.9,-0.78 -0.96,-0.78 -0.06,-0.06 -1.08,-0.72 -1.02,-0.66 -1.08,-0.6 -1.14,-0.54 -1.08,-0.48 -1.2,-0.48 h -0.06 l -2.34,-0.72 -2.4,-0.54 -2.4,-0.36 h -0.06 l -2.46,-0.12 -2.46,0.12 -2.4,0.3 h -0.06 l 0.12,0.48 2.4,-0.3 h -0.06 l 2.46,-0.12 2.46,0.12 2.4,0.36 h -0.06 l 2.4,0.54 2.34,0.72 v -0.06 l 1.2,0.48 1.08,0.48 1.14,0.54 H -6.6 l 1.08,0.6 1.02,0.66 1.08,0.72 0.96,0.78 0.9,0.78 0.9,0.84 h -0.06 l 0.84,0.84 v -0.06 l 1.44,1.8 0.66,0.96 0.6,0.96 0.54,0.96 0.48,0.96 v -0.06 l 0.42,1.02 H 4.2 l 0.36,1.02 0.3,1.08 0.24,1.02 v -0.06 l 0.36,2.1 0.06,2.16 -0.12,2.1 v -0.06 L 5.28,-11.1 5.04,-10.02 4.74,-9 4.44,-7.92 4.5,-7.98 3.66,-5.94 3.12,-4.92 1.92,-3 V -3.06 L 1.2,-2.1 0.48,-1.2 -0.36,-0.3"
                     style="fill:#000000;fill-opacity:1;fill-rule:nonzero;stroke:none"
                     id="path1120" />
                </g>
                <g
                   id="g1122"
                   transform="translate(239.22,412.62)">
                  <path
                     d="m 0,0 -2.4,0.48 -2.34,0.66 -2.28,0.9 h -0.06 l -2.16,1.08 -2.04,1.32 V 4.5 L -13.2,5.94 -15,7.62 h -0.06 l -1.08,1.26 -1.02,1.26 -0.96,1.38 v 0.06 l -0.84,1.38 -0.78,1.44 -0.66,1.44 -0.54,1.44 -0.06,0.06 -0.42,1.5 -0.3,1.5 -0.12,1.44 v 1.5 l 0.12,1.44 v 0.06 l 0.3,1.38 0.48,1.32 0.06,0.06 0.66,1.26 0.42,-0.3 v 0.06 l -0.66,-1.26 -0.48,-1.32 v 0.06 l -0.3,-1.38 -0.12,-1.44 v 0.06 -1.44 l 0.12,-1.44 v 0.06 l 0.3,-1.5 0.42,-1.5 0.54,-1.44 0.66,-1.44 v 0.06 l 0.78,-1.44 0.84,-1.38 0.96,-1.38 h -0.06 l 1.02,-1.26 1.08,-1.26 v 0.06 l 1.8,-1.68 1.92,-1.44 h -0.06 L -9,3.54 -6.84,2.46 -4.56,1.56 -4.62,1.62 -2.28,0.96 0.12,0.48"
                     style="fill:#000000;fill-opacity:1;fill-rule:nonzero;stroke:none"
                     id="path1124" />
                </g>
                <g
                   id="g1126"
                   transform="translate(219.84,442.62)">
                  <path
                     d="M 0,0 0.12,0.18 0.54,-0.12 0.42,-0.3"
                     style="fill:#000000;fill-opacity:1;fill-rule:nonzero;stroke:none"
                     id="path1128" />
                </g>
                <g
                   id="g1130"
                   transform="translate(219,441.42)">
                  <path
                     d="M 0,0 0.42,-0.3 1.26,0.9 0.84,1.2"
                     style="fill:#000000;fill-opacity:1;fill-rule:nonzero;stroke:none"
                     id="path1132" />
                </g>
                <path
                   d="m 72,551.94 h 78.36 v 22.68 H 72 Z"
                   style="fill:#e6e6e6;fill-opacity:1;fill-rule:nonzero;stroke:none"
                   id="path1134" />
                <text
                   transform="matrix(1,0,0,-1,85.56,567.96)"
                   style="font-variant:normal;font-weight:bold;font-stretch:normal;font-size:9.96px;font-family:'Times New Roman';-inkscape-font-specification:TimesNewRomanPS-BoldMT;writing-mode:lr-tb;fill:#000000;fill-opacity:1;fill-rule:nonzero;stroke:none"
                   id="text1140"><tspan
                     x="0 7.75386 13.2966 18.28158 25.537439 28.3113 32.738522 38.281261 43.31604 47.743259"
                     y="0"
                     sodipodi:role="line"
                     id="tspan1136">Knowledge,</tspan><tspan
                     x="3.5955601 10.79664 15.8364 19.16304 24.153 26.67288 33.32616 38.31612 42.20052"
                     y="9.96"
                     sodipodi:role="line"
                     id="tspan1138">Data Base</tspan></text>
                <g
                   id="g1142"
                   transform="translate(137.22,541.02)">
                  <path
                     d="M 0,0 2.16,1.56 2.7,1.92 2.94,1.26 6.18,-7.8 6.72,-9.36 5.4,-8.34 -2.16,-2.4 -2.7,-1.98 -2.16,-1.56 -1.56,-1.62 6,-7.56 5.4,-8.34 5.22,-8.1 1.98,0.96 2.94,1.26 2.76,0.72 0.6,-0.84"
                     style="fill:#000000;fill-opacity:1;fill-rule:nonzero;stroke:none"
                     id="path1144" />
                </g>
                <g
                   id="g1146"
                   transform="translate(135.06,539.46001)">
                  <path
                     d="M 0,0 2.16,1.56 2.76,0.72 0.6,-0.84"
                     style="fill:#000000;fill-opacity:1;fill-rule:nonzero;stroke:none"
                     id="path1148" />
                </g>
                <g
                   id="g1150"
                   transform="translate(137.52,540.60001)">
                  <path
                     d="M 0,0 2.16,1.56 5.4,-7.5 -2.16,-1.56"
                     style="fill:#000000;fill-opacity:1;fill-rule:evenodd;stroke:none"
                     id="path1152" />
                </g>
                <g
                   id="g1154"
                   transform="translate(137.03999,540.84)">
                  <path
                     d="M 0,0 0.12,-0.18 0.54,0.12 0.42,0.3"
                     style="fill:#000000;fill-opacity:1;fill-rule:nonzero;stroke:none"
                     id="path1156" />
                </g>
                <g
                   id="g1158"
                   transform="translate(129.60001,551.28)">
                  <path
                     d="M 0,0 -0.12,0.18 0.3,0.48 0.42,0.3"
                     style="fill:#000000;fill-opacity:1;fill-rule:nonzero;stroke:none"
                     id="path1160" />
                </g>
                <g
                   id="g1162"
                   transform="translate(137.03999,540.84)">
                  <path
                     d="m 0,0 0.42,0.3 -7.44,10.44 -0.42,-0.3"
                     style="fill:#000000;fill-opacity:1;fill-rule:nonzero;stroke:none"
                     id="path1164" />
                </g>
                <path
                   d="m 284.94,551.46 h 79.38 v 23.16 h -79.38 z"
                   style="fill:#e6e6e6;fill-opacity:1;fill-rule:nonzero;stroke:none"
                   id="path1166" />
                <text
                   transform="matrix(1,0,0,-1,307.98,567.96)"
                   style="font-variant:normal;font-weight:bold;font-stretch:normal;font-size:9.96px;font-family:'Times New Roman';-inkscape-font-specification:TimesNewRomanPS-BoldMT;writing-mode:lr-tb;fill:#000000;fill-opacity:1;fill-rule:nonzero;stroke:none"
                   id="text1172"><tspan
                     x="0 9.4102077 12.187056 16.069464 19.951872 22.72872 27.716688"
                     y="0"
                     sodipodi:role="line"
                     id="tspan1168">Mission</tspan><tspan
                     x="-7.7986798 -0.58763999 4.4521198 12.76872 21.08532 26.12508 31.64292 37.2006"
                     y="9.96"
                     sodipodi:role="line"
                     id="tspan1170">Commands</tspan></text>
                <g
                   id="g1174"
                   transform="translate(300.60001,483.06)">
                  <path
                     d="M 0,0 H 85.08 V -8.16 H 0"
                     style="fill:#ffffff;fill-opacity:1;fill-rule:nonzero;stroke:none"
                     id="path1176" />
                </g>
                <text
                   transform="matrix(1,0,0,-1,335.16,477.06)"
                   style="font-variant:normal;font-weight:normal;font-stretch:normal;font-size:9px;font-family:'Times New Roman';-inkscape-font-specification:TimesNewRomanPSMT;writing-mode:lr-tb;fill:#000000;fill-opacity:1;fill-rule:nonzero;stroke:none"
                   id="text1180"><tspan
                     x="0 4.9986 8.9891996 11.4858"
                     y="0"
                     sodipodi:role="line"
                     id="tspan1178">Path</tspan></text>
                <g
                   id="g1182"
                   transform="translate(338.58,541.02)">
                  <path
                     d="m 0,0 2.16,1.56 0.6,0.3 0.18,-0.6 3.18,-9.06 0.6,-1.62 -1.38,1.08 -7.5,5.94 -0.54,0.42 0.54,0.42 0.6,-0.06 7.5,-5.94 L 5.34,-8.34 5.16,-8.1 1.98,0.96 2.94,1.26 2.76,0.72 0.6,-0.84"
                     style="fill:#000000;fill-opacity:1;fill-rule:nonzero;stroke:none"
                     id="path1184" />
                </g>
                <g
                   id="g1186"
                   transform="translate(336.42,539.46001)">
                  <path
                     d="M 0,0 2.16,1.56 2.76,0.72 0.6,-0.84"
                     style="fill:#000000;fill-opacity:1;fill-rule:nonzero;stroke:none"
                     id="path1188" />
                </g>
                <g
                   id="g1190"
                   transform="translate(338.88,540.60001)">
                  <path
                     d="m 0,0 2.16,1.56 3.18,-9.06 -7.5,5.94"
                     style="fill:#000000;fill-opacity:1;fill-rule:evenodd;stroke:none"
                     id="path1192" />
                </g>
                <g
                   id="g1194"
                   transform="translate(338.39999,540.84)">
                  <path
                     d="M 0,0 0.12,-0.18 0.54,0.12 0.42,0.3"
                     style="fill:#000000;fill-opacity:1;fill-rule:nonzero;stroke:none"
                     id="path1196" />
                </g>
                <g
                   id="g1198"
                   transform="translate(330.96001,551.28)">
                  <path
                     d="M 0,0 -0.12,0.18 0.3,0.48 0.42,0.3"
                     style="fill:#000000;fill-opacity:1;fill-rule:nonzero;stroke:none"
                     id="path1200" />
                </g>
                <g
                   id="g1202"
                   transform="translate(338.39999,540.84)">
                  <path
                     d="m 0,0 0.42,0.3 -7.44,10.44 -0.42,-0.3"
                     style="fill:#000000;fill-opacity:1;fill-rule:nonzero;stroke:none"
                     id="path1204" />
                </g>
                <g
                   id="g1206"
                   transform="translate(204.24001,342.24001)">
                  <path
                     d="m 0,0 -2.82,-0.06 -1.14,-0.06 -0.9,-0.12 -0.78,-0.24 -0.66,-0.3 -0.24,-0.18 -0.24,-0.24 -0.3,-0.6 -0.24,-0.72 -0.06,-0.96 0.06,-1.14 0.12,-1.38 0.6,-3.54 0.9,-4.68 0.96,-4.68 0.84,-3.6 0.42,-1.5 0.48,-1.38 0.48,-1.2 0.54,-1.08 0.66,-1.02 0.72,-1.02 0.9,-1.02 1.02,-1.02 1.14,-1.08 1.32,-1.2 3.3,-2.88 3.3,-2.76 1.44,-1.14 1.32,-0.96 1.26,-0.78 1.2,-0.6 1.32,-0.48 1.32,-0.36 1.44,-0.18 1.62,-0.06 h 1.86 l 2.04,0.18 5.04,0.6 6.6,0.9 11.7,1.68 4.02,0.66 3.42,0.66 3.12,0.72 3.24,0.84 8.52,2.52 4.68,1.44 3.54,1.14 1.38,0.48 1.2,0.54 0.96,0.48 0.84,0.54 0.66,0.54 0.48,0.6 0.48,0.66 0.3,0.78 0.3,0.84 0.3,0.96 0.48,2.34 0.78,4.2 0.42,2.88 0.18,2.88 v 8.4 l -0.12,1.38 -0.24,1.14 -0.3,1.02 L 86.64,-1.2 85.98,0 84.06,2.76 83.64,3.36 83.22,3.78 82.74,4.2 82.26,4.44 81.72,4.62 81.12,4.74 80.4,4.8 79.56,4.74 77.46,4.38 74.58,3.72 70.86,2.82 64.14,1.2 61.68,0.72 59.52,0.48 H 57.36 L 54.9,0.6 48.18,1.38 41.4,2.22 38.94,2.46 36.66,2.64 34.32,2.76 h -2.7 L 24.06,2.82 16.68,2.76 H 14.34 L 12.72,2.64 11.64,2.46 10.92,2.22 10.38,1.86 9.42,0.9 8.94,0.6 8.4,0.3 7.62,0.18 6.48,0.06 4.92,0 H 0"
                     style="fill:#b3b3b3;fill-opacity:1;fill-rule:evenodd;stroke:none"
                     id="path1208" />
                </g>
                <text
                   transform="matrix(1,0,0,-1,216.6,330.36)"
                   style="font-variant:normal;font-weight:bold;font-stretch:normal;font-size:10.98px;font-family:'Times New Roman';-inkscape-font-specification:TimesNewRomanPS-BoldMT;writing-mode:lr-tb;fill:#000000;fill-opacity:1;fill-rule:nonzero;stroke:none"
                   id="text1214"><tspan
                     x="0 7.9275599 12.80268 18.292681 21.345119 24.105492 35.085491 40.575493 45.450611 48.503052"
                     y="0"
                     sodipodi:role="line"
                     id="tspan1210">Real World</tspan><tspan
                     x="-3.8429999 3.48615 9.5965204 15.09201 18.14994 23.03055 28.526039 34.63641 43.788239 48.66885 54.779221"
                     y="10.98"
                     sodipodi:role="line"
                     id="tspan1212">Environment</tspan></text>
                <text
                   transform="matrix(1,0,0,-1,118.32,518.76)"
                   style="font-variant:normal;font-weight:bold;font-stretch:normal;font-size:9.96px;font-family:'Times New Roman';-inkscape-font-specification:TimesNewRomanPS-BoldMT;writing-mode:lr-tb;fill:#000000;fill-opacity:1;fill-rule:nonzero;stroke:none"
                   id="text1220"><tspan
                     x="0 6.6522841 11.641248 16.072453 21.111216 23.889059 26.666904 31.098108 36.08707 39.412716 42.190559 47.179523"
                     y="0"
                     sodipodi:role="line"
                     id="tspan1216">Localization</tspan><tspan
                     x="-3.1772399 6.3076682 11.290656 16.871244 19.331364 25.967712 31.5483 34.310207 37.131878 42.662663 45.484333 51.015121"
                     y="9.96"
                     sodipodi:role="line"
                     id="tspan1218">Map Building</tspan></text>
                <g
                   id="g1222"
                   transform="translate(105.84,469.25999)">
                  <path
                     d="M 0,0 2.58,0.48 3.24,0.54 3.12,-0.12 2.16,-9.6 2.04,-11.34 1.26,-9.78 -3,-1.2 l -0.3,0.6 0.66,0.12 0.54,-0.3 4.26,-8.58 -0.9,-0.42 -0.06,0.3 0.96,9.54 0.96,-0.18 -0.36,-0.42 -2.58,-0.48"
                     style="fill:#808080;fill-opacity:1;fill-rule:nonzero;stroke:none"
                     id="path1224" />
                </g>
                <g
                   id="g1226"
                   transform="translate(103.2,468.78)">
                  <path
                     d="M 0,0 2.64,0.48 2.82,-0.54 0.18,-1.02"
                     style="fill:#808080;fill-opacity:1;fill-rule:nonzero;stroke:none"
                     id="path1228" />
                </g>
                <g
                   id="g1230"
                   transform="translate(105.89999,468.78)">
                  <path
                     d="M 0,0 2.58,0.48 1.62,-9.06 -2.64,-0.48"
                     style="fill:#808080;fill-opacity:1;fill-rule:evenodd;stroke:none"
                     id="path1232" />
                </g>
                <g
                   id="g1234"
                   transform="translate(105.53999,469.2)">
                  <path
                     d="m 0,0 v -0.24 l 0.48,0.06 v 0.24"
                     style="fill:#808080;fill-opacity:1;fill-rule:nonzero;stroke:none"
                     id="path1236" />
                </g>
                <g
                   id="g1238"
                   transform="translate(90.600006,551.39999)">
                  <path
                     d="M 0,0 V 0.24 L 0.48,0.3 V 0.06"
                     style="fill:#808080;fill-opacity:1;fill-rule:nonzero;stroke:none"
                     id="path1240" />
                </g>
                <g
                   id="g1242"
                   transform="translate(105.53999,469.2)">
                  <path
                     d="m 0,0 0.48,0.06 -14.94,82.2 -0.48,-0.06"
                     style="fill:#808080;fill-opacity:1;fill-rule:nonzero;stroke:none"
                     id="path1244" />
                </g>
                <text
                   transform="matrix(0,1,1,0,409.32,370.62)"
                   style="font-variant:normal;font-weight:bold;font-stretch:normal;font-size:9.96px;font-family:'Times New Roman';-inkscape-font-specification:TimesNewRomanPS-BoldMT;writing-mode:lr-tb;fill:#000000;fill-opacity:1;fill-rule:nonzero;stroke:none"
                   id="text1250"><tspan
                     x="0 9.4161844 14.410128 17.740751 20.523577 25.517521 31.069223 33.589104 40.794167 45.788113 51.339817 54.670441 59.106625 64.100571"
                     y="0"
                     sodipodi:role="line"
                     id="tspan1246">Motion Control</tspan><tspan
                     x="10.37832 16.488779 20.935921 25.38306 29.8302 34.27734 39.84 43.18158 45.975361 50.980259"
                     y="-328.79953"
                     sodipodi:role="line"
                     id="tspan1248">Perception</tspan></text>
              </g>
            </g>
          </g>
        </g>
      </g>
    </g>
  </g>
</svg>
