<?xml version="1.0" encoding="UTF-8" standalone="no"?>
<svg
   xmlns:dc="http://purl.org/dc/elements/1.1/"
   xmlns:cc="http://creativecommons.org/ns#"
   xmlns:rdf="http://www.w3.org/1999/02/22-rdf-syntax-ns#"
   xmlns:svg="http://www.w3.org/2000/svg"
   xmlns="http://www.w3.org/2000/svg"
   xmlns:xlink="http://www.w3.org/1999/xlink"
   xmlns:sodipodi="http://sodipodi.sourceforge.net/DTD/sodipodi-0.dtd"
   xmlns:inkscape="http://www.inkscape.org/namespaces/inkscape"
   width="995.95435"
   height="995.95435"
   version="1.0"
   id="svg2"
   inkscape:version="0.48.4 r9939"
   sodipodi:docname="mustache_distortion.svg">
  <metadata
     id="metadata23">
    <rdf:RDF>
      <cc:Work
         rdf:about="">
        <dc:format>image/svg+xml</dc:format>
        <dc:type
           rdf:resource="http://purl.org/dc/dcmitype/StillImage" />
      </cc:Work>
    </rdf:RDF>
  </metadata>
  <sodipodi:namedview
     pagecolor="#ffffff"
     bordercolor="#666666"
     borderopacity="1"
     objecttolerance="10"
     gridtolerance="10"
     guidetolerance="10"
     inkscape:pageopacity="0"
     inkscape:pageshadow="2"
     inkscape:window-width="1366"
     inkscape:window-height="744"
     id="namedview21"
     showgrid="false"
     fit-margin-top="0"
     fit-margin-left="0"
     fit-margin-right="0"
     fit-margin-bottom="0"
     inkscape:zoom="0.39333333"
     inkscape:cx="299.22718"
     inkscape:cy="299.22718"
     inkscape:window-x="0"
     inkscape:window-y="24"
     inkscape:window-maximized="1"
     inkscape:current-layer="svg2" />
  <defs
     id="defs4">
    <g
       id="curves">
      <path
         d="m 206,0 c -5,150 -16,150 -16,300 0,150 11,150 16,300"
         style="fill:none;stroke:#000000;stroke-width:2.5"
         id="path7"
         inkscape:connector-curvature="0" />
      <path
         d="m 105,0 c 0,150 -16,150 -17,300 1,150 17,150 17,300"
         style="fill:none;stroke:#000000;stroke-width:2.5"
         id="path9"
         inkscape:connector-curvature="0" />
    </g>
  </defs>
  <path
     d="M 497.97718,0.05186722 V 995.90249 M 0.05186722,497.97718 H 995.90249"
     style="fill:none;stroke:#000000;stroke-width:4.14937782"
     id="path11"
     inkscape:connector-curvature="0" />
  <use
     xlink:href="#curves"
     id="use13"
     transform="matrix(1.659751,0,0,1.659751,0.05186722,0.05186722)"
     x="0"
     y="0"
     width="600"
     height="600" />
  <use
     xlink:href="#curves"
     transform="matrix(0,1.659751,-1.659751,0,995.90249,0.05186722)"
     id="use15"
     x="0"
     y="0"
     width="600"
     height="600" />
  <use
     xlink:href="#curves"
     transform="matrix(-1.659751,0,0,-1.659751,995.90249,995.90249)"
     id="use17"
     x="0"
     y="0"
     width="600"
     height="600" />
  <use
     xlink:href="#curves"
     transform="matrix(0,-1.659751,1.659751,0,0.05186722,995.90249)"
     id="use19"
     x="0"
     y="0"
     width="600"
     height="600" />
</svg>
