<?xml version="1.0" encoding="UTF-8" standalone="no"?>
<!-- Created with Inkscape (http://www.inkscape.org/) -->

<svg
   width="51.6376mm"
   height="9.586648mm"
   viewBox="0 0 51.6376 9.586648"
   version="1.1"
   id="svg1"
   xml:space="preserve"
   inkscape:version="1.3.2 (1:1.3.2+202404261509+091e20ef0f)"
   sodipodi:docname="projection_matrix.svg"
   xmlns:inkscape="http://www.inkscape.org/namespaces/inkscape"
   xmlns:sodipodi="http://sodipodi.sourceforge.net/DTD/sodipodi-0.dtd"
   xmlns="http://www.w3.org/2000/svg"
   xmlns:svg="http://www.w3.org/2000/svg"
   xmlns:ns11="http://www.iki.fi/pav/software/textext/"><sodipodi:namedview
     id="namedview1"
     pagecolor="#ffffff"
     bordercolor="#000000"
     borderopacity="0.25"
     inkscape:showpageshadow="2"
     inkscape:pageopacity="0.0"
     inkscape:pagecheckerboard="0"
     inkscape:deskcolor="#d1d1d1"
     inkscape:document-units="mm"
     inkscape:zoom="2.9433782"
     inkscape:cx="73.045319"
     inkscape:cy="37.372023"
     inkscape:window-width="1854"
     inkscape:window-height="1011"
     inkscape:window-x="1986"
     inkscape:window-y="32"
     inkscape:window-maximized="1"
     inkscape:current-layer="g1" /><defs
     id="defs1"><marker
       style="overflow:visible"
       id="marker3"
       refX="0"
       refY="0"
       orient="auto"
       inkscape:stockid="Stop"
       markerWidth="1"
       markerHeight="1"
       viewBox="0 0 1 1"
       inkscape:isstock="true"
       inkscape:collect="always"
       preserveAspectRatio="xMidYMid"><path
         style="fill:none;stroke:context-stroke;stroke-width:1"
         d="M 0,4 V -4"
         id="path3" /></marker><marker
       style="overflow:visible"
       id="Stop"
       refX="0"
       refY="0"
       orient="auto"
       inkscape:stockid="Stop"
       markerWidth="1"
       markerHeight="1"
       viewBox="0 0 1 1"
       inkscape:isstock="true"
       inkscape:collect="always"
       preserveAspectRatio="xMidYMid"><path
         style="fill:none;stroke:context-stroke;stroke-width:1"
         d="M 0,4 V -4"
         id="path23" /></marker><marker
       style="overflow:visible"
       id="ConcaveTriangle"
       refX="0"
       refY="0"
       orient="auto-start-reverse"
       inkscape:stockid="Concave triangle arrow"
       markerWidth="1"
       markerHeight="1"
       viewBox="0 0 1 1"
       inkscape:isstock="true"
       inkscape:collect="always"
       preserveAspectRatio="xMidYMid"><path
         transform="scale(0.7)"
         d="M -2,-4 9,0 -2,4 c 2,-2.33 2,-5.66 0,-8 z"
         style="fill:context-stroke;fill-rule:evenodd;stroke:none"
         id="path7" /></marker></defs><g
     inkscape:label="Layer 1"
     inkscape:groupmode="layer"
     id="layer1"
     transform="translate(-72.11536,-146.29991)"><g
       transform="matrix(0.352778,0,0,0.352778,89.0648,146.3)"
       ns11:version="1.10.2"
       ns11:texconverter="pdflatex"
       ns11:pdfconverter="inkscape"
       ns11:text="$\\projectionMatrix=\\intrinsicMatrix\\begin{bmatrix}\\rotationCoord{\\cameraCoordSystem}{\\worldCoordSystem} &amp; \\translationCoord{\\cameraCoordSystem}{\\worldCoordSystem}\\end{bmatrix}$\n"
       ns11:preamble="/home/taihu/Documents/material-robotica-movil-rosario/common/math_preamble.tex"
       ns11:scale="1.0"
       ns11:alignment="middle center"
       ns11:stroke-to-path="0"
       id="g3730"
       ns11:jacobian_sqrt="0.352778"><defs
         id="id-c35bb610-0e15-42d3-98fa-08de88ce81cc"><g
           id="id-a5b97f4d-3184-457f-8178-b2c8b666f991"><g
             id="id-77462df9-c189-45ca-8d59-d76fed8c08be"><path
               d="m 2.875,-3.015625 h 1.765625 c 1.390625,0 2.546875,-0.71875 2.546875,-1.875 0,-1.09375 -0.984375,-1.953125 -2.640625,-1.953125 H 0.390625 V -6.375 H 1.46875 v 5.90625 H 0.390625 V 0 c 0.375,-0.03125 1.359375,-0.03125 1.78125,-0.03125 0.4375,0 1.40625,0 1.78125,0.03125 V -0.46875 H 2.875 Z m 1.28125,-0.40625 H 2.828125 V -6.375 h 1.34375 c 1.484375,0 1.484375,0.765625 1.484375,1.484375 0,0.703125 0,1.46875 -1.5,1.46875 z m 0,0"
               id="id-b219897f-f21b-4745-89e7-b04cbf5a48a3" /></g><g
             id="id-b9a11801-3c36-4f7d-918d-e588a3e7d5c5"><path
               d="M 4.828125,-4.203125 7.234375,-6.1875 c 0.21875,-0.1875 0.625,-0.1875 0.9375,-0.1875 h 0.15625 V -6.84375 C 7.9375,-6.8125 7.359375,-6.8125 7.3125,-6.8125 c -0.375,0 -1.09375,0 -1.453125,-0.03125 V -6.375 c 0.125,0 0.328125,0 0.578125,0.0625 0.15625,0.03125 0.046875,0.015625 0.125,0.046875 L 2.875,-3.1875 V -6.375 h 1.078125 v -0.46875 c -0.375,0.03125 -1.34375,0.03125 -1.78125,0.03125 -0.421875,0 -1.40625,0 -1.78125,-0.03125 V -6.375 H 1.46875 v 5.90625 H 0.390625 V 0 c 0.375,-0.03125 1.359375,-0.03125 1.78125,-0.03125 0.4375,0 1.40625,0 1.78125,0.03125 V -0.46875 H 2.875 V -2.5625 l 1,-0.828125 2.0625,2.703125 C 5.984375,-0.625 5.984375,-0.609375 6.015625,-0.546875 5.828125,-0.46875 5.625,-0.46875 5.28125,-0.46875 V 0 c 0.40625,-0.03125 1.3125,-0.03125 1.75,-0.03125 0.40625,0 1.09375,0 1.46875,0.03125 V -0.46875 H 8.203125 c -0.53125,0 -0.5625,-0.046875 -0.671875,-0.203125 z m 0,0"
               id="id-d12baaf8-08b1-4a88-bcf0-a041d690aac0" /></g><g
             id="id-a49ef125-5b06-4fb2-84e0-40e6f980eb83"><path
               d="M 2.828125,-3.59375 V -6.375 H 4 c 1.609375,0 1.625,0.78125 1.625,1.390625 0,0.5625 0,1.390625 -1.640625,1.390625 z m 2.65625,0.203125 C 6.640625,-3.6875 7.140625,-4.34375 7.140625,-5 c 0,-1 -1.09375,-1.84375 -2.96875,-1.84375 H 0.390625 V -6.375 H 1.46875 v 5.90625 H 0.390625 V 0 c 0.359375,-0.03125 1.328125,-0.03125 1.75,-0.03125 0.421875,0 1.390625,0 1.75,0.03125 v -0.46875 h -1.0625 v -2.765625 h 1.15625 c 0.140625,0 0.578125,0 0.890625,0.328125 0.3125,0.359375 0.3125,0.546875 0.3125,1.265625 0,0.65625 0,1.15625 0.703125,1.484375 0.4375,0.21875 1.0625,0.265625 1.46875,0.265625 1.0625,0 1.1875,-0.890625 1.1875,-1.0625 0,-0.21875 -0.140625,-0.21875 -0.234375,-0.21875 -0.203125,0 -0.21875,0.109375 -0.234375,0.234375 C 8.03125,-0.46875 7.75,-0.25 7.453125,-0.25 c -0.609375,0 -0.6875,-0.703125 -0.75,-1.125 C 6.6875,-1.484375 6.609375,-2.171875 6.59375,-2.21875 6.453125,-2.921875 5.90625,-3.234375 5.484375,-3.390625 Z m 0,0"
               id="id-559b84f0-52f2-4d0b-92fb-af3eb95da400" /></g><g
             id="id-cfa8bf66-5dc5-4521-b904-e60043f7841c"><path
               d="m 1.03125,-3.953125 v 2.734375 c 0,1.0625 0.859375,1.28125 1.578125,1.28125 0.75,0 1.203125,-0.578125 1.203125,-1.296875 v -0.53125 H 3.34375 V -1.25 c 0,0.671875 -0.328125,0.90625 -0.609375,0.90625 -0.578125,0 -0.578125,-0.640625 -0.578125,-0.859375 v -2.75 H 3.625 v -0.46875 H 2.15625 v -1.90625 H 1.6875 c 0,1 -0.484375,1.984375 -1.484375,2.015625 v 0.359375 z m 0,0"
               id="id-c0c93686-831f-4159-a734-ffe6abbe7e18" /></g><g
             id="id-83812b23-70d9-461f-a7e3-83fa75f2695b"><path
               d="m 6.84375,-3.265625 c 0.15625,0 0.34375,0 0.34375,-0.1875 C 7.1875,-3.65625 7,-3.65625 6.859375,-3.65625 h -5.96875 c -0.140625,0 -0.328125,0 -0.328125,0.203125 0,0.1875 0.1875,0.1875 0.328125,0.1875 z m 0.015625,1.9375 c 0.140625,0 0.328125,0 0.328125,-0.203125 0,-0.1875 -0.1875,-0.1875 -0.34375,-0.1875 H 0.890625 c -0.140625,0 -0.328125,0 -0.328125,0.1875 0,0.203125 0.1875,0.203125 0.328125,0.203125 z m 0,0"
               id="id-a1e66b84-ff25-4d2f-b1f3-6707348b49d5" /></g><g
             id="id-ff48f464-fc04-4988-b58c-585d91a47592"><path
               d="m 2.015625,11.546875 h 1.90625 V 11.15625 H 2.40625 V 0 h 1.515625 v -0.40625 h -1.90625 z m 0,0"
               id="id-1797d309-273c-4f83-8315-185f36ff4368" /></g><g
             id="id-9230eb09-1d59-47cf-9dc2-692d83bf2d6f"><path
               d="M 2.140625,11.546875 V -0.40625 H 0.21875 V 0 H 1.734375 V 11.15625 H 0.21875 v 0.390625 z m 0,0"
               id="id-0ee272a1-ac43-4d36-af90-9c6f12dfcc97" /></g><g
             id="id-5c746052-bd90-4a0a-a89d-1ba0d2e22c7a"><path
               d="m 5.1875,-4.71875 c 0,-0.125 0,-0.1875 -0.09375,-0.1875 -0.03125,0 -0.0625,0 -0.125,0.09375 l -0.375,0.53125 c -0.28125,-0.296875 -0.765625,-0.625 -1.4375,-0.625 -1.46875,0 -2.671875,1.140625 -2.671875,2.515625 0,1.421875 1.234375,2.53125 2.671875,2.53125 1.234375,0 2.03125,-0.921875 2.03125,-1.765625 0,-0.078125 -0.015625,-0.140625 -0.125,-0.140625 -0.03125,0 -0.109375,0 -0.109375,0.09375 -0.0625,1.125 -1.015625,1.5625 -1.703125,1.5625 -0.734375,0 -2.015625,-0.453125 -2.015625,-2.265625 0,-1.890625 1.34375,-2.265625 2,-2.265625 0.703125,0 1.515625,0.453125 1.703125,1.65625 0.015625,0.078125 0.078125,0.078125 0.125,0.078125 0.125,0 0.125,-0.046875 0.125,-0.1875 z m 0,0"
               id="id-db3cdda7-8ecf-470a-a388-4347184a4b02" /></g><g
             id="id-cc3ed177-20cd-4bf7-9881-6866025060b4"><path
               d="m 7.09375,-4.046875 c 0.09375,-0.25 0.265625,-0.46875 0.71875,-0.46875 v -0.25 C 7.75,-4.75 7.359375,-4.734375 7.15625,-4.734375 c -0.28125,0 -0.578125,-0.015625 -0.875,-0.03125 v 0.25 c 0.390625,0.015625 0.578125,0.1875 0.578125,0.359375 0,0.03125 0,0.046875 -0.03125,0.140625 l -1.15625,3.21875 -1.21875,-3.421875 C 4.4375,-4.296875 4.4375,-4.3125 4.4375,-4.3125 c 0,-0.203125 0.390625,-0.203125 0.578125,-0.203125 v -0.25 C 4.65625,-4.75 4.21875,-4.734375 3.96875,-4.734375 c -0.28125,0 -0.5625,0 -0.84375,-0.03125 v 0.25 c 0.359375,0 0.484375,0.015625 0.5625,0.109375 0.046875,0.0625 0.140625,0.3125 0.1875,0.46875 L 2.765625,-0.796875 1.546875,-4.1875 c -0.03125,-0.09375 -0.03125,-0.109375 -0.03125,-0.125 0,-0.203125 0.390625,-0.203125 0.578125,-0.203125 v -0.25 c -0.359375,0.015625 -0.796875,0.03125 -1.046875,0.03125 -0.28125,0 -0.5625,0 -0.84375,-0.03125 v 0.25 c 0.4375,0 0.5625,0 0.640625,0.265625 l 1.515625,4.234375 c 0.046875,0.109375 0.078125,0.15625 0.1875,0.15625 0.125,0 0.15625,-0.078125 0.1875,-0.15625 L 4,-3.578125 l 1.28125,3.5625 c 0.03125,0.078125 0.0625,0.15625 0.1875,0.15625 0.109375,0 0.140625,-0.046875 0.1875,-0.15625 z m 0,0"
               id="id-4a189cf2-a259-446c-a0c5-45813c48d16d" /></g></g></defs><g
         fill="#000000"
         fill-opacity="1"
         id="id-de219bf0-7ee2-4982-b85e-45e130f9c733"
         transform="translate(-149.103,-125.771)"><g
           transform="translate(148.712,134.765)"
           id="g9858"><path
             d="m 2.875,-3.015625 h 1.765625 c 1.390625,0 2.546875,-0.71875 2.546875,-1.875 0,-1.09375 -0.984375,-1.953125 -2.640625,-1.953125 H 0.390625 V -6.375 H 1.46875 v 5.90625 H 0.390625 V 0 c 0.375,-0.03125 1.359375,-0.03125 1.78125,-0.03125 0.4375,0 1.40625,0 1.78125,0.03125 V -0.46875 H 2.875 Z m 1.28125,-0.40625 H 2.828125 V -6.375 h 1.34375 c 1.484375,0 1.484375,0.765625 1.484375,1.484375 0,0.703125 0,1.46875 -1.5,1.46875 z m 0,0"
             id="id-ff84db1f-1520-4d70-93b9-647d774f8d38" /></g></g><g
         fill="#000000"
         fill-opacity="1"
         id="id-08281311-c1f3-40e8-996f-e1e3dfaf1f8b"
         transform="translate(-149.103,-125.771)"><g
           transform="translate(159.311,134.765)"
           id="g6501"><path
             d="m 6.84375,-3.265625 c 0.15625,0 0.34375,0 0.34375,-0.1875 C 7.1875,-3.65625 7,-3.65625 6.859375,-3.65625 h -5.96875 c -0.140625,0 -0.328125,0 -0.328125,0.203125 0,0.1875 0.1875,0.1875 0.328125,0.1875 z m 0.015625,1.9375 c 0.140625,0 0.328125,0 0.328125,-0.203125 0,-0.1875 -0.1875,-0.1875 -0.34375,-0.1875 H 0.890625 c -0.140625,0 -0.328125,0 -0.328125,0.1875 0,0.203125 0.1875,0.203125 0.328125,0.203125 z m 0,0"
             id="id-af56b729-c582-467a-affe-25802bd4e615" /></g></g><g
         fill="#000000"
         fill-opacity="1"
         id="id-282220b7-87ea-4c96-83d3-eee2124b631a"
         transform="translate(-149.103,-125.771)"><g
           transform="translate(169.827,134.765)"
           id="g2754"><path
             d="M 4.828125,-4.203125 7.234375,-6.1875 c 0.21875,-0.1875 0.625,-0.1875 0.9375,-0.1875 h 0.15625 V -6.84375 C 7.9375,-6.8125 7.359375,-6.8125 7.3125,-6.8125 c -0.375,0 -1.09375,0 -1.453125,-0.03125 V -6.375 c 0.125,0 0.328125,0 0.578125,0.0625 0.15625,0.03125 0.046875,0.015625 0.125,0.046875 L 2.875,-3.1875 V -6.375 h 1.078125 v -0.46875 c -0.375,0.03125 -1.34375,0.03125 -1.78125,0.03125 -0.421875,0 -1.40625,0 -1.78125,-0.03125 V -6.375 H 1.46875 v 5.90625 H 0.390625 V 0 c 0.375,-0.03125 1.359375,-0.03125 1.78125,-0.03125 0.4375,0 1.40625,0 1.78125,0.03125 V -0.46875 H 2.875 V -2.5625 l 1,-0.828125 2.0625,2.703125 C 5.984375,-0.625 5.984375,-0.609375 6.015625,-0.546875 5.828125,-0.46875 5.625,-0.46875 5.28125,-0.46875 V 0 c 0.40625,-0.03125 1.3125,-0.03125 1.75,-0.03125 0.40625,0 1.09375,0 1.46875,0.03125 V -0.46875 H 8.203125 c -0.53125,0 -0.5625,-0.046875 -0.671875,-0.203125 z m 0,0"
             id="id-249d4185-b0aa-4f87-b098-31732c0cc9a9" /></g></g><g
         fill="#000000"
         fill-opacity="1"
         id="id-d97a9e48-e08f-4d37-a287-afe97a869bae"
         transform="translate(-149.103,-125.771)"><g
           transform="translate(180.468,126.695)"
           id="g2004"><path
             d="m 2.015625,11.546875 h 1.90625 V 11.15625 H 2.40625 V 0 h 1.515625 v -0.40625 h -1.90625 z m 0,0"
             id="id-0eea31dc-416d-42f5-81b6-9c8c2b5c2e30" /></g></g><g
         fill="#000000"
         fill-opacity="1"
         id="id-bb56bf42-2fca-4343-87e7-4aaf8c1745f7"
         transform="translate(-149.103,-125.771)"><g
           transform="translate(184.619,130.677)"
           id="g4442"><path
             d="m 5.1875,-4.71875 c 0,-0.125 0,-0.1875 -0.09375,-0.1875 -0.03125,0 -0.0625,0 -0.125,0.09375 l -0.375,0.53125 c -0.28125,-0.296875 -0.765625,-0.625 -1.4375,-0.625 -1.46875,0 -2.671875,1.140625 -2.671875,2.515625 0,1.421875 1.234375,2.53125 2.671875,2.53125 1.234375,0 2.03125,-0.921875 2.03125,-1.765625 0,-0.078125 -0.015625,-0.140625 -0.125,-0.140625 -0.03125,0 -0.109375,0 -0.109375,0.09375 -0.0625,1.125 -1.015625,1.5625 -1.703125,1.5625 -0.734375,0 -2.015625,-0.453125 -2.015625,-2.265625 0,-1.890625 1.34375,-2.265625 2,-2.265625 0.703125,0 1.515625,0.453125 1.703125,1.65625 0.015625,0.078125 0.078125,0.078125 0.125,0.078125 0.125,0 0.125,-0.046875 0.125,-0.1875 z m 0,0"
             id="id-72d05bd5-b2de-4c56-97bd-47ab98e1f4f5" /></g></g><g
         fill="#000000"
         fill-opacity="1"
         id="id-f48d54d7-ebb2-43b3-9dd3-288364972753"
         transform="translate(-149.103,-125.771)"><g
           transform="translate(190.804,135.05)"
           id="g4056"><path
             d="M 2.828125,-3.59375 V -6.375 H 4 c 1.609375,0 1.625,0.78125 1.625,1.390625 0,0.5625 0,1.390625 -1.640625,1.390625 z m 2.65625,0.203125 C 6.640625,-3.6875 7.140625,-4.34375 7.140625,-5 c 0,-1 -1.09375,-1.84375 -2.96875,-1.84375 H 0.390625 V -6.375 H 1.46875 v 5.90625 H 0.390625 V 0 c 0.359375,-0.03125 1.328125,-0.03125 1.75,-0.03125 0.421875,0 1.390625,0 1.75,0.03125 v -0.46875 h -1.0625 v -2.765625 h 1.15625 c 0.140625,0 0.578125,0 0.890625,0.328125 0.3125,0.359375 0.3125,0.546875 0.3125,1.265625 0,0.65625 0,1.15625 0.703125,1.484375 0.4375,0.21875 1.0625,0.265625 1.46875,0.265625 1.0625,0 1.1875,-0.890625 1.1875,-1.0625 0,-0.21875 -0.140625,-0.21875 -0.234375,-0.21875 -0.203125,0 -0.21875,0.109375 -0.234375,0.234375 C 8.03125,-0.46875 7.75,-0.25 7.453125,-0.25 c -0.609375,0 -0.6875,-0.703125 -0.75,-1.125 C 6.6875,-1.484375 6.609375,-2.171875 6.59375,-2.21875 6.453125,-2.921875 5.90625,-3.234375 5.484375,-3.390625 Z m 0,0"
             id="id-b81d10bb-92da-4324-93bf-ff92fb1f5108" /></g></g><g
         fill="#000000"
         fill-opacity="1"
         id="id-6996c772-1d9f-4378-a80f-0641f244ea6c"
         transform="translate(-149.103,-125.771)"><g
           transform="translate(199.397,136.544)"
           id="g1446"><path
             d="m 7.09375,-4.046875 c 0.09375,-0.25 0.265625,-0.46875 0.71875,-0.46875 v -0.25 C 7.75,-4.75 7.359375,-4.734375 7.15625,-4.734375 c -0.28125,0 -0.578125,-0.015625 -0.875,-0.03125 v 0.25 c 0.390625,0.015625 0.578125,0.1875 0.578125,0.359375 0,0.03125 0,0.046875 -0.03125,0.140625 l -1.15625,3.21875 -1.21875,-3.421875 C 4.4375,-4.296875 4.4375,-4.3125 4.4375,-4.3125 c 0,-0.203125 0.390625,-0.203125 0.578125,-0.203125 v -0.25 C 4.65625,-4.75 4.21875,-4.734375 3.96875,-4.734375 c -0.28125,0 -0.5625,0 -0.84375,-0.03125 v 0.25 c 0.359375,0 0.484375,0.015625 0.5625,0.109375 0.046875,0.0625 0.140625,0.3125 0.1875,0.46875 L 2.765625,-0.796875 1.546875,-4.1875 c -0.03125,-0.09375 -0.03125,-0.109375 -0.03125,-0.125 0,-0.203125 0.390625,-0.203125 0.578125,-0.203125 v -0.25 c -0.359375,0.015625 -0.796875,0.03125 -1.046875,0.03125 -0.28125,0 -0.5625,0 -0.84375,-0.03125 v 0.25 c 0.4375,0 0.5625,0 0.640625,0.265625 l 1.515625,4.234375 c 0.046875,0.109375 0.078125,0.15625 0.1875,0.15625 0.125,0 0.15625,-0.078125 0.1875,-0.15625 L 4,-3.578125 l 1.28125,3.5625 c 0.03125,0.078125 0.0625,0.15625 0.1875,0.15625 0.109375,0 0.140625,-0.046875 0.1875,-0.15625 z m 0,0"
             id="id-47f3f495-a844-4662-8286-ab0d87448476" /></g></g><g
         fill="#000000"
         fill-opacity="1"
         id="id-a684dad0-e379-4525-9256-60e73c73d130"
         transform="translate(-149.103,-125.771)"><g
           transform="translate(217.99,131.187)"
           id="g680"><path
             d="m 5.1875,-4.71875 c 0,-0.125 0,-0.1875 -0.09375,-0.1875 -0.03125,0 -0.0625,0 -0.125,0.09375 l -0.375,0.53125 c -0.28125,-0.296875 -0.765625,-0.625 -1.4375,-0.625 -1.46875,0 -2.671875,1.140625 -2.671875,2.515625 0,1.421875 1.234375,2.53125 2.671875,2.53125 1.234375,0 2.03125,-0.921875 2.03125,-1.765625 0,-0.078125 -0.015625,-0.140625 -0.125,-0.140625 -0.03125,0 -0.109375,0 -0.109375,0.09375 -0.0625,1.125 -1.015625,1.5625 -1.703125,1.5625 -0.734375,0 -2.015625,-0.453125 -2.015625,-2.265625 0,-1.890625 1.34375,-2.265625 2,-2.265625 0.703125,0 1.515625,0.453125 1.703125,1.65625 0.015625,0.078125 0.078125,0.078125 0.125,0.078125 0.125,0 0.125,-0.046875 0.125,-0.1875 z m 0,0"
             id="id-68e4281c-ca0e-4aac-a81c-2089d36911d9" /></g></g><g
         fill="#000000"
         fill-opacity="1"
         id="id-ec8d628d-110d-46ee-888f-740c86f38292"
         transform="translate(-149.103,-125.771)"><g
           transform="translate(224.176,135.05)"
           id="g5558"><path
             d="m 1.03125,-3.953125 v 2.734375 c 0,1.0625 0.859375,1.28125 1.578125,1.28125 0.75,0 1.203125,-0.578125 1.203125,-1.296875 v -0.53125 H 3.34375 V -1.25 c 0,0.671875 -0.328125,0.90625 -0.609375,0.90625 -0.578125,0 -0.578125,-0.640625 -0.578125,-0.859375 v -2.75 H 3.625 v -0.46875 H 2.15625 v -1.90625 H 1.6875 c 0,1 -0.484375,1.984375 -1.484375,2.015625 v 0.359375 z m 0,0"
             id="id-5d94a89d-932d-4f49-a6ae-29fab43849f7" /></g></g><g
         fill="#000000"
         fill-opacity="1"
         id="id-2b128864-38cd-4bb7-a009-6ecc0a0dc971"
         transform="translate(-149.103,-125.771)"><g
           transform="translate(228.631,136.544)"
           id="g1014"><path
             d="m 7.09375,-4.046875 c 0.09375,-0.25 0.265625,-0.46875 0.71875,-0.46875 v -0.25 C 7.75,-4.75 7.359375,-4.734375 7.15625,-4.734375 c -0.28125,0 -0.578125,-0.015625 -0.875,-0.03125 v 0.25 c 0.390625,0.015625 0.578125,0.1875 0.578125,0.359375 0,0.03125 0,0.046875 -0.03125,0.140625 l -1.15625,3.21875 -1.21875,-3.421875 C 4.4375,-4.296875 4.4375,-4.3125 4.4375,-4.3125 c 0,-0.203125 0.390625,-0.203125 0.578125,-0.203125 v -0.25 C 4.65625,-4.75 4.21875,-4.734375 3.96875,-4.734375 c -0.28125,0 -0.5625,0 -0.84375,-0.03125 v 0.25 c 0.359375,0 0.484375,0.015625 0.5625,0.109375 0.046875,0.0625 0.140625,0.3125 0.1875,0.46875 L 2.765625,-0.796875 1.546875,-4.1875 c -0.03125,-0.09375 -0.03125,-0.109375 -0.03125,-0.125 0,-0.203125 0.390625,-0.203125 0.578125,-0.203125 v -0.25 c -0.359375,0.015625 -0.796875,0.03125 -1.046875,0.03125 -0.28125,0 -0.5625,0 -0.84375,-0.03125 v 0.25 c 0.4375,0 0.5625,0 0.640625,0.265625 l 1.515625,4.234375 c 0.046875,0.109375 0.078125,0.15625 0.1875,0.15625 0.125,0 0.15625,-0.078125 0.1875,-0.15625 L 4,-3.578125 l 1.28125,3.5625 c 0.03125,0.078125 0.0625,0.15625 0.1875,0.15625 0.109375,0 0.140625,-0.046875 0.1875,-0.15625 z m 0,0"
             id="id-ca964e1a-56c4-4ae5-b9c3-1c3fd59c995b" /></g></g><g
         fill="#000000"
         fill-opacity="1"
         id="id-a0b4dec9-1886-48a8-94d3-4b46bf2fdd84"
         transform="translate(-149.103,-125.771)"><g
           transform="translate(237.262,126.695)"
           id="g3965"><path
             d="M 2.140625,11.546875 V -0.40625 H 0.21875 V 0 H 1.734375 V 11.15625 H 0.21875 v 0.390625 z m 0,0"
             id="id-7fb31adf-ab5a-4e5c-ad68-5cdf06d6994b" /></g></g></g><g
       style="fill:#000000"
       id="g1"
       transform="matrix(0.82682292,0,0,0.82682292,-2.1945718,44.68282)"><text
         xml:space="preserve"
         style="font-weight:500;font-size:2.13333px;font-family:'CMU Serif';-inkscape-font-specification:'CMU Serif, Medium';text-align:center;text-anchor:middle;fill:#000000;fill-opacity:1;stroke:none;stroke-width:0.32;stroke-dasharray:none;stroke-opacity:1"
         x="103.95298"
         y="133.9619"
         id="text2"><tspan
           sodipodi:role="line"
           id="tspan2"
           style="stroke-width:0.32"
           x="103.95298"
           y="133.9619">Internal (intrinsic) parameters</tspan></text><text
         xml:space="preserve"
         style="font-weight:500;font-size:2.13333px;font-family:'CMU Serif';-inkscape-font-specification:'CMU Serif, Medium';text-align:center;text-anchor:middle;fill:#000000;fill-opacity:1;stroke:none;stroke-width:0.32;stroke-dasharray:none;stroke-opacity:1"
         x="137.74257"
         y="133.9619"
         id="text2-9"><tspan
           sodipodi:role="line"
           id="tspan2-0"
           style="stroke-width:0.32"
           x="137.74257"
           y="133.9619">External (extrinsic) parameters</tspan></text><path
         style="fill:#000000;fill-opacity:1;stroke:#fd0000;stroke-width:0.32;stroke-dasharray:none;stroke-opacity:1;marker-end:url(#ConcaveTriangle)"
         d="m 111.30452,132.24141 6.63637,-3.83151"
         id="path2" /><path
         style="fill:#000000;fill-opacity:1;stroke:#fd0000;stroke-width:0.32;stroke-dasharray:none;stroke-opacity:1;marker-start:url(#Stop);marker-end:url(#marker3)"
         d="m 124.75814,130.1012 h 24.11259"
         id="path2-7-8"
         sodipodi:nodetypes="cc" /></g></g></svg>
