<?xml version="1.0" encoding="UTF-8" standalone="no"?>
<svg
   width="611.00006"
   height="168.37865"
   viewBox="0 0 611.00006 168.37865"
   fill="none"
   version="1.1"
   id="svg61"
   sodipodi:docname="Undistort_tangential_distortion.svg"
   inkscape:version="1.3 (1:1.3+202307231459+0e150ed6c4)"
   xmlns:inkscape="http://www.inkscape.org/namespaces/inkscape"
   xmlns:sodipodi="http://sodipodi.sourceforge.net/DTD/sodipodi-0.dtd"
   xmlns="http://www.w3.org/2000/svg"
   xmlns:svg="http://www.w3.org/2000/svg">
  <defs
     id="defs61" />
  <sodipodi:namedview
     id="namedview61"
     pagecolor="#ffffff"
     bordercolor="#666666"
     borderopacity="1.0"
     inkscape:showpageshadow="2"
     inkscape:pageopacity="0.0"
     inkscape:pagecheckerboard="0"
     inkscape:deskcolor="#d1d1d1"
     inkscape:zoom="0.77954545"
     inkscape:cx="122.50729"
     inkscape:cy="-107.7551"
     inkscape:window-width="1850"
     inkscape:window-height="1016"
     inkscape:window-x="1436"
     inkscape:window-y="27"
     inkscape:window-maximized="1"
     inkscape:current-layer="svg61" />
  <rect
     x="4"
     y="4.3786516"
     width="37"
     height="37"
     fill="#ff8c42"
     id="rect2" />
  <rect
     x="45"
     y="4.3786516"
     width="37"
     height="37"
     fill="#ff8c42"
     fill-opacity="0.2"
     id="rect3" />
  <rect
     x="4"
     y="45.378651"
     width="37"
     height="37"
     fill="#ff8c42"
     fill-opacity="0.2"
     id="rect4" />
  <rect
     x="45"
     y="45.378651"
     width="37"
     height="37"
     fill="#ff8c42"
     id="rect5" />
  <rect
     x="86"
     y="4.3786516"
     width="37"
     height="37"
     fill="#ff8c42"
     id="rect6" />
  <rect
     x="127"
     y="4.3786516"
     width="37"
     height="37"
     fill="#ff8c42"
     fill-opacity="0.2"
     id="rect7" />
  <rect
     x="86"
     y="45.378651"
     width="37"
     height="37"
     fill="#ff8c42"
     fill-opacity="0.2"
     id="rect8" />
  <rect
     x="127"
     y="45.378651"
     width="37"
     height="37"
     fill="#ff8c42"
     id="rect9" />
  <rect
     x="4"
     y="86.378654"
     width="37"
     height="37"
     fill="#ff8c42"
     id="rect10" />
  <rect
     x="45"
     y="86.378654"
     width="37"
     height="37"
     fill="#ff8c42"
     fill-opacity="0.2"
     id="rect11" />
  <rect
     x="4"
     y="127.37865"
     width="37"
     height="37"
     fill="#ff8c42"
     fill-opacity="0.2"
     id="rect12" />
  <rect
     x="45"
     y="127.37865"
     width="37"
     height="37"
     fill="#ff8c42"
     id="rect13" />
  <rect
     x="86"
     y="86.378654"
     width="37"
     height="37"
     fill="#ff8c42"
     id="rect14" />
  <rect
     x="127"
     y="86.378654"
     width="37"
     height="37"
     fill="#ff8c42"
     fill-opacity="0.2"
     id="rect15" />
  <rect
     x="86"
     y="127.37865"
     width="37"
     height="37"
     fill="#ff8c42"
     fill-opacity="0.2"
     id="rect16" />
  <rect
     x="127"
     y="127.37865"
     width="37"
     height="37"
     fill="#ff8c42"
     id="rect17" />
  <rect
     x="168"
     y="4.3786516"
     width="37"
     height="37"
     fill="#ff8c42"
     id="rect18" />
  <rect
     x="209"
     y="4.3786516"
     width="37"
     height="37"
     fill="#ff8c42"
     fill-opacity="0.2"
     id="rect19" />
  <rect
     x="168"
     y="45.378651"
     width="37"
     height="37"
     fill="#ff8c42"
     fill-opacity="0.2"
     id="rect20" />
  <rect
     x="209"
     y="45.378651"
     width="37"
     height="37"
     fill="#ff8c42"
     id="rect21" />
  <rect
     x="250"
     y="4.3786516"
     width="37"
     height="37"
     fill="#ff8c42"
     id="rect22" />
  <rect
     x="250"
     y="45.378651"
     width="37"
     height="37"
     fill="#ff8c42"
     fill-opacity="0.2"
     id="rect23" />
  <rect
     x="168"
     y="86.378654"
     width="37"
     height="37"
     fill="#ff8c42"
     id="rect24" />
  <rect
     x="209"
     y="86.378654"
     width="37"
     height="37"
     fill="#ff8c42"
     fill-opacity="0.2"
     id="rect25" />
  <rect
     x="168"
     y="127.37865"
     width="37"
     height="37"
     fill="#ff8c42"
     fill-opacity="0.2"
     id="rect26" />
  <rect
     x="209"
     y="127.37865"
     width="37"
     height="37"
     fill="#ff8c42"
     id="rect27" />
  <rect
     x="250"
     y="86.378654"
     width="37"
     height="37"
     fill="#ff8c42"
     id="rect28" />
  <rect
     x="250"
     y="127.37865"
     width="37"
     height="37"
     fill="#ff8c42"
     fill-opacity="0.2"
     id="rect29" />
  <rect
     x="2"
     y="2.3786514"
     width="287"
     height="164"
     stroke="#000000"
     stroke-width="4"
     id="rect30" />
  <path
     d="M 43,4.3786514 V 164.37865"
     stroke="#000000"
     stroke-width="4"
     id="path30" />
  <path
     d="M 4,43.378651 H 287"
     stroke="#000000"
     stroke-width="4"
     id="path31" />
  <path
     d="M 4,84.378651 H 287"
     stroke="#000000"
     stroke-width="4"
     id="path32" />
  <path
     d="M 4,125.37865 H 287"
     stroke="#000000"
     stroke-width="4"
     id="path33" />
  <path
     d="M 84,4.3786514 V 164.37865"
     stroke="#000000"
     stroke-width="4"
     id="path34" />
  <path
     d="M 125,4.3786514 V 164.37865"
     stroke="#000000"
     stroke-width="4"
     id="path35" />
  <path
     d="M 166,4.3786514 V 164.37865"
     stroke="#000000"
     stroke-width="4"
     id="path36" />
  <path
     d="M 207,4.3786514 V 164.37865"
     stroke="#000000"
     stroke-width="4"
     id="path37" />
  <path
     d="M 248,4.3786514 V 164.37865"
     stroke="#000000"
     stroke-width="4"
     id="path38" />
  <path
     d="m 322.5,2.4406514 h 285 L 560,167.40065 H 367 Z"
     fill="#ff8c42"
     fill-opacity="0.2"
     id="path39" />
  <path
     d="M 374.5,46.773651 H 407 l 6,40.209 h -31.5 z"
     fill="#ff8c42"
     id="path40" />
  <path
     d="m 324,3.4716514 h 40.5 L 372,45.227151 h -36 z"
     fill="#ff8c42"
     id="path41" />
  <rect
     x="447"
     y="46.773647"
     width="37"
     height="40.209"
     fill="#ff8c42"
     id="rect41" />
  <path
     d="m 403,4.2280514 40.5,-2.3029 2,44.8484996 -38,-2.062 z"
     fill="#ff8c42"
     id="path42" />
  <path
     d="m 348,87.705651 h 33.756 L 389,129.76865 h -31 z"
     fill="#ff8c42"
     id="path43" />
  <path
     d="m 390,129.25365 h 27 l 4.5,37.116 -25.5,-2.062 z"
     fill="#ff8c42"
     id="path44" />
  <path
     d="m 412,90.075651 35,-3.093 v 43.301999 h -30.5 z"
     fill="#ff8c42"
     id="path45" />
  <rect
     x="447"
     y="130.28465"
     width="34"
     height="35.054001"
     fill="#ff8c42"
     id="rect45" />
  <path
     d="M 485.135,1.9251514 H 528 l -5.609,43.1290996 h -37.256 z"
     fill="#ff8c42"
     id="path46" />
  <path
     d="M 522.244,46.773651 H 559.5 l -8,41.24 h -33 z"
     fill="#ff8c42"
     id="path47" />
  <path
     d="M 567.766,2.4406514 H 608 L 595.5,46.773651 H 559 Z"
     fill="#ff8c42"
     id="path48" />
  <path
     d="m 482,89.044651 h 35 l -3,40.208999 h -32 z"
     fill="#ff8c42"
     id="path49" />
  <path
     d="m 514,129.76865 h 29.5 l -7.5,35.57 h -26 z"
     fill="#ff8c42"
     id="path50" />
  <path
     d="m 551,89.044651 h 32 l -12,41.239999 -27,-2.062 z"
     fill="#ff8c42"
     id="path51" />
  <path
     d="M 367.03,166.37865 322.614,2.3786514 H 608.341 L 560.996,166.37865 Z"
     stroke="#000000"
     stroke-width="4"
     id="path52" />
  <path
     d="M 364,0.37865143 396.252,167.64965"
     stroke="#000000"
     stroke-width="4"
     id="path53" />
  <path
     d="m 334,47.187851 261,-1e-4"
     stroke="#000000"
     stroke-width="4"
     id="path54" />
  <path
     d="M 347,88.225651 H 583"
     stroke="#000000"
     stroke-width="4"
     id="path55" />
  <path
     d="M 357,129.90565 H 572"
     stroke="#000000"
     stroke-width="4"
     id="path56" />
  <path
     d="M 403,2.3023514 421.065,166.81765"
     stroke="#000000"
     stroke-width="4"
     id="path57" />
  <path
     d="M 444,2.3023514 448.523,167.31465"
     stroke="#000000"
     stroke-width="4"
     id="path58" />
  <path
     d="M 485.441,1.6610514 480.912,166.89165"
     stroke="#000000"
     stroke-width="4"
     id="path59" />
  <path
     d="M 527.679,1.0198514 509.508,166.49465"
     stroke="#000000"
     stroke-width="4"
     id="path60" />
  <path
     d="M 567.934,2.3023514 536.39,167.03265"
     stroke="#000000"
     stroke-width="4"
     id="path61" />
</svg>
